G04 #@! TF.GenerationSoftware,KiCad,Pcbnew,(6.0.11-0)*
G04 #@! TF.CreationDate,2023-06-01T20:29:28-06:00*
G04 #@! TF.ProjectId,Smart Smoker PCB,536d6172-7420-4536-9d6f-6b6572205043,rev?*
G04 #@! TF.SameCoordinates,Original*
G04 #@! TF.FileFunction,Paste,Top*
G04 #@! TF.FilePolarity,Positive*
%FSLAX46Y46*%
G04 Gerber Fmt 4.6, Leading zero omitted, Abs format (unit mm)*
G04 Created by KiCad (PCBNEW (6.0.11-0)) date 2023-06-01 20:29:28*
%MOMM*%
%LPD*%
G01*
G04 APERTURE LIST*
G04 Aperture macros list*
%AMRoundRect*
0 Rectangle with rounded corners*
0 $1 Rounding radius*
0 $2 $3 $4 $5 $6 $7 $8 $9 X,Y pos of 4 corners*
0 Add a 4 corners polygon primitive as box body*
4,1,4,$2,$3,$4,$5,$6,$7,$8,$9,$2,$3,0*
0 Add four circle primitives for the rounded corners*
1,1,$1+$1,$2,$3*
1,1,$1+$1,$4,$5*
1,1,$1+$1,$6,$7*
1,1,$1+$1,$8,$9*
0 Add four rect primitives between the rounded corners*
20,1,$1+$1,$2,$3,$4,$5,0*
20,1,$1+$1,$4,$5,$6,$7,0*
20,1,$1+$1,$6,$7,$8,$9,0*
20,1,$1+$1,$8,$9,$2,$3,0*%
G04 Aperture macros list end*
%ADD10RoundRect,0.250000X-0.250000X-0.475000X0.250000X-0.475000X0.250000X0.475000X-0.250000X0.475000X0*%
%ADD11RoundRect,0.218750X0.256250X-0.218750X0.256250X0.218750X-0.256250X0.218750X-0.256250X-0.218750X0*%
%ADD12R,1.400000X0.950000*%
%ADD13RoundRect,0.150000X-0.825000X-0.150000X0.825000X-0.150000X0.825000X0.150000X-0.825000X0.150000X0*%
%ADD14RoundRect,0.218750X-0.218750X-0.256250X0.218750X-0.256250X0.218750X0.256250X-0.218750X0.256250X0*%
%ADD15RoundRect,0.225000X0.225000X0.250000X-0.225000X0.250000X-0.225000X-0.250000X0.225000X-0.250000X0*%
%ADD16R,1.498600X0.889000*%
%ADD17R,0.889000X1.498600*%
%ADD18R,0.889000X0.889000*%
%ADD19RoundRect,0.225000X-0.225000X0.225000X-0.225000X-0.225000X0.225000X-0.225000X0.225000X0.225000X0*%
%ADD20RoundRect,0.062500X-0.062500X0.337500X-0.062500X-0.337500X0.062500X-0.337500X0.062500X0.337500X0*%
%ADD21RoundRect,0.062500X-0.337500X0.062500X-0.337500X-0.062500X0.337500X-0.062500X0.337500X0.062500X0*%
%ADD22RoundRect,0.200000X0.275000X-0.200000X0.275000X0.200000X-0.275000X0.200000X-0.275000X-0.200000X0*%
%ADD23RoundRect,0.250000X-0.475000X0.250000X-0.475000X-0.250000X0.475000X-0.250000X0.475000X0.250000X0*%
%ADD24RoundRect,0.225000X-0.250000X0.225000X-0.250000X-0.225000X0.250000X-0.225000X0.250000X0.225000X0*%
%ADD25RoundRect,0.200000X-0.200000X-0.275000X0.200000X-0.275000X0.200000X0.275000X-0.200000X0.275000X0*%
%ADD26RoundRect,0.225000X0.250000X-0.225000X0.250000X0.225000X-0.250000X0.225000X-0.250000X-0.225000X0*%
%ADD27RoundRect,0.150000X-0.512500X-0.150000X0.512500X-0.150000X0.512500X0.150000X-0.512500X0.150000X0*%
%ADD28RoundRect,0.225000X-0.225000X-0.250000X0.225000X-0.250000X0.225000X0.250000X-0.225000X0.250000X0*%
%ADD29RoundRect,0.200000X-0.275000X0.200000X-0.275000X-0.200000X0.275000X-0.200000X0.275000X0.200000X0*%
%ADD30RoundRect,0.250000X0.250000X0.475000X-0.250000X0.475000X-0.250000X-0.475000X0.250000X-0.475000X0*%
%ADD31R,0.400000X1.350000*%
%ADD32R,1.500000X1.900000*%
%ADD33R,1.800000X1.900000*%
%ADD34R,0.279400X0.660400*%
%ADD35R,0.381000X0.660400*%
%ADD36R,2.500000X2.300000*%
%ADD37RoundRect,0.150000X0.150000X-0.512500X0.150000X0.512500X-0.150000X0.512500X-0.150000X-0.512500X0*%
%ADD38RoundRect,0.200000X0.200000X0.275000X-0.200000X0.275000X-0.200000X-0.275000X0.200000X-0.275000X0*%
%ADD39R,2.000000X1.500000*%
%ADD40R,2.000000X3.800000*%
%ADD41R,0.700000X1.000000*%
%ADD42R,0.700000X0.600000*%
%ADD43R,1.800000X7.500000*%
%ADD44RoundRect,0.150000X0.587500X0.150000X-0.587500X0.150000X-0.587500X-0.150000X0.587500X-0.150000X0*%
%ADD45RoundRect,0.150000X-0.587500X-0.150000X0.587500X-0.150000X0.587500X0.150000X-0.587500X0.150000X0*%
%ADD46R,0.660400X0.279400*%
%ADD47R,0.660400X0.381000*%
%ADD48R,0.558800X1.460500*%
G04 APERTURE END LIST*
D10*
X150550000Y-102865000D03*
X152450000Y-102865000D03*
D11*
X150500000Y-115537500D03*
X150500000Y-113962500D03*
D12*
X172860000Y-126012500D03*
X172860000Y-121862500D03*
D13*
X164525000Y-122345000D03*
X164525000Y-123615000D03*
X164525000Y-124885000D03*
X164525000Y-126155000D03*
X169475000Y-126155000D03*
X169475000Y-124885000D03*
X169475000Y-123615000D03*
X169475000Y-122345000D03*
D14*
X150932500Y-108000000D03*
X152507500Y-108000000D03*
D15*
X162275000Y-125800000D03*
X160725000Y-125800000D03*
D16*
X156250000Y-101374394D03*
X156250000Y-102644394D03*
X156250000Y-103914394D03*
X156250000Y-105184394D03*
X156250000Y-106454394D03*
X156250000Y-107724394D03*
X156250000Y-108994394D03*
X156250000Y-110264394D03*
X156250000Y-111534394D03*
X156250000Y-112804394D03*
X156250000Y-114074394D03*
X156250000Y-115344394D03*
X156250000Y-116614394D03*
X156250000Y-117884394D03*
D17*
X159285000Y-119134836D03*
X160555000Y-119134836D03*
X161825000Y-119134836D03*
X163095000Y-119134836D03*
X164365000Y-119134836D03*
X165635000Y-119134836D03*
X166905000Y-119134836D03*
X168175000Y-119134836D03*
X169445000Y-119134836D03*
X170715000Y-119134836D03*
D16*
X173750000Y-117884394D03*
X173750000Y-116614394D03*
X173750000Y-115344394D03*
X173750000Y-114074394D03*
X173750000Y-112804394D03*
X173750000Y-111534394D03*
X173750000Y-110264394D03*
X173750000Y-108994394D03*
X173750000Y-107724394D03*
X173750000Y-106454394D03*
X173750000Y-105184394D03*
X173750000Y-103914394D03*
X173750000Y-102644394D03*
X173750000Y-101374394D03*
D18*
X162095711Y-107314257D03*
X163495710Y-107314257D03*
X164895710Y-107314257D03*
X162095711Y-108714257D03*
X163495710Y-108714257D03*
X164895710Y-108714257D03*
X162095764Y-110114255D03*
X163495812Y-110114255D03*
X164895860Y-110114255D03*
D19*
X147946664Y-128185000D03*
X149066664Y-130425000D03*
X147946664Y-130425000D03*
X147946664Y-129305000D03*
X149066664Y-128185000D03*
X150186664Y-129305000D03*
X149066664Y-129305000D03*
X150186664Y-128185000D03*
X150186664Y-130425000D03*
D20*
X150566664Y-126855000D03*
X150066664Y-126855000D03*
X149566664Y-126855000D03*
X149066664Y-126855000D03*
X148566664Y-126855000D03*
X148066664Y-126855000D03*
X147566664Y-126855000D03*
D21*
X146616664Y-127805000D03*
X146616664Y-128305000D03*
X146616664Y-128805000D03*
X146616664Y-129305000D03*
X146616664Y-129805000D03*
X146616664Y-130305000D03*
X146616664Y-130805000D03*
D20*
X147566664Y-131755000D03*
X148066664Y-131755000D03*
X148566664Y-131755000D03*
X149066664Y-131755000D03*
X149566664Y-131755000D03*
X150066664Y-131755000D03*
X150566664Y-131755000D03*
D21*
X151516664Y-130805000D03*
X151516664Y-130305000D03*
X151516664Y-129805000D03*
X151516664Y-129305000D03*
X151516664Y-128805000D03*
X151516664Y-128305000D03*
X151516664Y-127805000D03*
D22*
X150964996Y-119795000D03*
X150964996Y-118145000D03*
D23*
X144500000Y-122800000D03*
X144500000Y-124700000D03*
D24*
X133750000Y-126770000D03*
X133750000Y-128320000D03*
D25*
X143294998Y-131675000D03*
X144944998Y-131675000D03*
D26*
X107400000Y-107200000D03*
X107400000Y-105650000D03*
D27*
X135759166Y-126595000D03*
X135759166Y-127545000D03*
X135759166Y-128495000D03*
X138034166Y-128495000D03*
X138034166Y-127545000D03*
X138034166Y-126595000D03*
D28*
X160725000Y-123600000D03*
X162275000Y-123600000D03*
D25*
X143294998Y-126935000D03*
X144944998Y-126935000D03*
X175925000Y-101000000D03*
X177575000Y-101000000D03*
D29*
X153263330Y-118145000D03*
X153263330Y-119795000D03*
X153263330Y-130100000D03*
X153263330Y-131750000D03*
D23*
X148500000Y-109650000D03*
X148500000Y-111550000D03*
D26*
X175750000Y-125025000D03*
X175750000Y-123475000D03*
D30*
X137700000Y-113750000D03*
X135800000Y-113750000D03*
D31*
X143050000Y-104825000D03*
X142400000Y-104825000D03*
X141750000Y-104825000D03*
X141100000Y-104825000D03*
X140450000Y-104825000D03*
D32*
X142750000Y-102150000D03*
X140750000Y-102150000D03*
D33*
X144950000Y-102150000D03*
X138550000Y-102150000D03*
D28*
X143500000Y-106900000D03*
X145050000Y-106900000D03*
D34*
X139849950Y-126995300D03*
X140650050Y-126995300D03*
D35*
X140250000Y-126004700D03*
D24*
X148666664Y-118195000D03*
X148666664Y-119745000D03*
D36*
X102300000Y-110300000D03*
X106600000Y-110300000D03*
D37*
X157050000Y-125687500D03*
X158950000Y-125687500D03*
X158000000Y-123412500D03*
D38*
X144944998Y-130095000D03*
X143294998Y-130095000D03*
D30*
X137677500Y-111250000D03*
X135777500Y-111250000D03*
D12*
X180720000Y-108075000D03*
X180720000Y-103925000D03*
D25*
X175925000Y-103930000D03*
X177575000Y-103930000D03*
D28*
X150945000Y-101000000D03*
X152495000Y-101000000D03*
D24*
X146565000Y-123195000D03*
X146565000Y-124745000D03*
D29*
X140422100Y-128500000D03*
X140422100Y-130150000D03*
D38*
X152545000Y-104730000D03*
X150895000Y-104730000D03*
D29*
X158970000Y-130100000D03*
X158970000Y-131750000D03*
D39*
X146127500Y-114800000D03*
D40*
X139827500Y-112500000D03*
D39*
X146127500Y-112500000D03*
X146127500Y-110200000D03*
D41*
X148250000Y-123000000D03*
D42*
X148250000Y-124700000D03*
X150250000Y-124700000D03*
X150250000Y-122800000D03*
D24*
X138500000Y-122975000D03*
X138500000Y-124525000D03*
D43*
X124000000Y-104750000D03*
X118400000Y-104750000D03*
D11*
X176937500Y-113787500D03*
X176937500Y-112212500D03*
D25*
X150895000Y-106345000D03*
X152545000Y-106345000D03*
D22*
X155150000Y-131750000D03*
X155150000Y-130100000D03*
X157067776Y-131750000D03*
X157067776Y-130100000D03*
D29*
X150500000Y-109555000D03*
X150500000Y-111205000D03*
D44*
X146115832Y-119700000D03*
X146115832Y-117800000D03*
X144240832Y-118750000D03*
D29*
X176977500Y-107175000D03*
X176977500Y-108825000D03*
D45*
X139562500Y-117800000D03*
X139562500Y-119700000D03*
X141437500Y-118750000D03*
D37*
X153283330Y-125687500D03*
X155183330Y-125687500D03*
X154233330Y-123412500D03*
D25*
X143294998Y-128515000D03*
X144944998Y-128515000D03*
D46*
X136472666Y-124650050D03*
X136472666Y-123849950D03*
D47*
X135482066Y-124250000D03*
D28*
X179725000Y-101000000D03*
X181275000Y-101000000D03*
D48*
X172695000Y-128775850D03*
X171425000Y-128775850D03*
X170155000Y-128775850D03*
X168885000Y-128775850D03*
X167615000Y-128775850D03*
X166345000Y-128775850D03*
X165075000Y-128775850D03*
X163805000Y-128775850D03*
X163805000Y-134224150D03*
X165075000Y-134224150D03*
X166345000Y-134224150D03*
X167615000Y-134224150D03*
X168885000Y-134224150D03*
X170155000Y-134224150D03*
X171425000Y-134224150D03*
X172695000Y-134224150D03*
M02*
