G04 #@! TF.GenerationSoftware,KiCad,Pcbnew,(6.0.11-0)*
G04 #@! TF.CreationDate,2023-06-01T20:29:29-06:00*
G04 #@! TF.ProjectId,Smart Smoker PCB,536d6172-7420-4536-9d6f-6b6572205043,rev?*
G04 #@! TF.SameCoordinates,Original*
G04 #@! TF.FileFunction,Soldermask,Top*
G04 #@! TF.FilePolarity,Negative*
%FSLAX46Y46*%
G04 Gerber Fmt 4.6, Leading zero omitted, Abs format (unit mm)*
G04 Created by KiCad (PCBNEW (6.0.11-0)) date 2023-06-01 20:29:29*
%MOMM*%
%LPD*%
G01*
G04 APERTURE LIST*
G04 Aperture macros list*
%AMRoundRect*
0 Rectangle with rounded corners*
0 $1 Rounding radius*
0 $2 $3 $4 $5 $6 $7 $8 $9 X,Y pos of 4 corners*
0 Add a 4 corners polygon primitive as box body*
4,1,4,$2,$3,$4,$5,$6,$7,$8,$9,$2,$3,0*
0 Add four circle primitives for the rounded corners*
1,1,$1+$1,$2,$3*
1,1,$1+$1,$4,$5*
1,1,$1+$1,$6,$7*
1,1,$1+$1,$8,$9*
0 Add four rect primitives between the rounded corners*
20,1,$1+$1,$2,$3,$4,$5,0*
20,1,$1+$1,$4,$5,$6,$7,0*
20,1,$1+$1,$6,$7,$8,$9,0*
20,1,$1+$1,$8,$9,$2,$3,0*%
%AMFreePoly0*
4,1,22,0.550000,-0.750000,0.000000,-0.750000,0.000000,-0.745033,-0.079941,-0.743568,-0.215256,-0.701293,-0.333266,-0.622738,-0.424486,-0.514219,-0.481581,-0.384460,-0.499164,-0.250000,-0.500000,-0.250000,-0.500000,0.250000,-0.499164,0.250000,-0.499963,0.256109,-0.478152,0.396186,-0.417904,0.524511,-0.324060,0.630769,-0.204165,0.706417,-0.067858,0.745374,0.000000,0.744959,0.000000,0.750000,
0.550000,0.750000,0.550000,-0.750000,0.550000,-0.750000,$1*%
%AMFreePoly1*
4,1,20,0.000000,0.744959,0.073905,0.744508,0.209726,0.703889,0.328688,0.626782,0.421226,0.519385,0.479903,0.390333,0.500000,0.250000,0.500000,-0.250000,0.499851,-0.262216,0.476331,-0.402017,0.414519,-0.529596,0.319384,-0.634700,0.198574,-0.708877,0.061801,-0.746166,0.000000,-0.745033,0.000000,-0.750000,-0.550000,-0.750000,-0.550000,0.750000,0.000000,0.750000,0.000000,0.744959,
0.000000,0.744959,$1*%
G04 Aperture macros list end*
%ADD10C,1.600200*%
%ADD11RoundRect,0.250000X-0.250000X-0.475000X0.250000X-0.475000X0.250000X0.475000X-0.250000X0.475000X0*%
%ADD12RoundRect,0.218750X0.256250X-0.218750X0.256250X0.218750X-0.256250X0.218750X-0.256250X-0.218750X0*%
%ADD13C,5.600000*%
%ADD14R,1.400000X0.950000*%
%ADD15RoundRect,0.150000X-0.825000X-0.150000X0.825000X-0.150000X0.825000X0.150000X-0.825000X0.150000X0*%
%ADD16RoundRect,0.218750X-0.218750X-0.256250X0.218750X-0.256250X0.218750X0.256250X-0.218750X0.256250X0*%
%ADD17RoundRect,0.225000X0.225000X0.250000X-0.225000X0.250000X-0.225000X-0.250000X0.225000X-0.250000X0*%
%ADD18R,1.498600X0.889000*%
%ADD19R,0.889000X1.498600*%
%ADD20R,0.889000X0.889000*%
%ADD21RoundRect,0.062500X-0.062500X0.337500X-0.062500X-0.337500X0.062500X-0.337500X0.062500X0.337500X0*%
%ADD22RoundRect,0.062500X-0.337500X0.062500X-0.337500X-0.062500X0.337500X-0.062500X0.337500X0.062500X0*%
%ADD23R,3.350000X3.350000*%
%ADD24RoundRect,0.200000X0.275000X-0.200000X0.275000X0.200000X-0.275000X0.200000X-0.275000X-0.200000X0*%
%ADD25RoundRect,0.250000X-0.475000X0.250000X-0.475000X-0.250000X0.475000X-0.250000X0.475000X0.250000X0*%
%ADD26FreePoly0,180.000000*%
%ADD27R,1.000000X1.500000*%
%ADD28FreePoly1,180.000000*%
%ADD29R,1.600200X1.600200*%
%ADD30RoundRect,0.225000X-0.250000X0.225000X-0.250000X-0.225000X0.250000X-0.225000X0.250000X0.225000X0*%
%ADD31RoundRect,0.200000X-0.200000X-0.275000X0.200000X-0.275000X0.200000X0.275000X-0.200000X0.275000X0*%
%ADD32RoundRect,0.225000X0.250000X-0.225000X0.250000X0.225000X-0.250000X0.225000X-0.250000X-0.225000X0*%
%ADD33RoundRect,0.150000X-0.512500X-0.150000X0.512500X-0.150000X0.512500X0.150000X-0.512500X0.150000X0*%
%ADD34RoundRect,0.225000X-0.225000X-0.250000X0.225000X-0.250000X0.225000X0.250000X-0.225000X0.250000X0*%
%ADD35C,2.600000*%
%ADD36R,2.400000X2.400000*%
%ADD37C,2.400000*%
%ADD38RoundRect,0.200000X-0.275000X0.200000X-0.275000X-0.200000X0.275000X-0.200000X0.275000X0.200000X0*%
%ADD39C,2.000000*%
%ADD40RoundRect,0.250000X0.250000X0.475000X-0.250000X0.475000X-0.250000X-0.475000X0.250000X-0.475000X0*%
%ADD41R,1.700000X1.700000*%
%ADD42O,1.700000X1.700000*%
%ADD43R,0.400000X1.350000*%
%ADD44C,1.450000*%
%ADD45R,1.500000X1.900000*%
%ADD46R,1.800000X1.900000*%
%ADD47O,0.800000X1.600000*%
%ADD48R,0.279400X0.660400*%
%ADD49R,0.381000X0.660400*%
%ADD50R,2.500000X2.300000*%
%ADD51R,1.600000X1.600000*%
%ADD52C,1.600000*%
%ADD53RoundRect,0.150000X0.150000X-0.512500X0.150000X0.512500X-0.150000X0.512500X-0.150000X-0.512500X0*%
%ADD54RoundRect,0.200000X0.200000X0.275000X-0.200000X0.275000X-0.200000X-0.275000X0.200000X-0.275000X0*%
%ADD55R,2.000000X1.500000*%
%ADD56R,2.000000X3.800000*%
%ADD57R,0.700000X1.000000*%
%ADD58R,0.700000X0.600000*%
%ADD59R,2.000000X2.000000*%
%ADD60R,1.800000X7.500000*%
%ADD61RoundRect,0.650000X0.650000X0.650000X-0.650000X0.650000X-0.650000X-0.650000X0.650000X-0.650000X0*%
%ADD62O,1.920000X3.840000*%
%ADD63C,3.000000*%
%ADD64RoundRect,0.250001X-0.499999X0.499999X-0.499999X-0.499999X0.499999X-0.499999X0.499999X0.499999X0*%
%ADD65C,1.500000*%
%ADD66RoundRect,0.150000X0.587500X0.150000X-0.587500X0.150000X-0.587500X-0.150000X0.587500X-0.150000X0*%
%ADD67RoundRect,0.150000X-0.587500X-0.150000X0.587500X-0.150000X0.587500X0.150000X-0.587500X0.150000X0*%
%ADD68R,0.660400X0.279400*%
%ADD69R,0.660400X0.381000*%
%ADD70R,0.558800X1.460500*%
%ADD71RoundRect,0.650000X-0.650000X-0.650000X0.650000X-0.650000X0.650000X0.650000X-0.650000X0.650000X0*%
G04 APERTURE END LIST*
D10*
X177250000Y-139809500D03*
X180755200Y-139809500D03*
X169187500Y-139809500D03*
X172692700Y-139809500D03*
X161125000Y-139809500D03*
X164630200Y-139809500D03*
X153062500Y-139809500D03*
X156567700Y-139809500D03*
X145000000Y-139809500D03*
X148505200Y-139809500D03*
X109000000Y-139809500D03*
X112505200Y-139809500D03*
D11*
X150550000Y-102865000D03*
X152450000Y-102865000D03*
D12*
X150500000Y-115537500D03*
X150500000Y-113962500D03*
D13*
X103500000Y-103500000D03*
D14*
X172860000Y-126012500D03*
X172860000Y-121862500D03*
D15*
X164525000Y-122345000D03*
X164525000Y-123615000D03*
X164525000Y-124885000D03*
X164525000Y-126155000D03*
X169475000Y-126155000D03*
X169475000Y-124885000D03*
X169475000Y-123615000D03*
X169475000Y-122345000D03*
D16*
X150932500Y-108000000D03*
X152507500Y-108000000D03*
D17*
X162275000Y-125800000D03*
X160725000Y-125800000D03*
D18*
X156250000Y-101374394D03*
X156250000Y-102644394D03*
X156250000Y-103914394D03*
X156250000Y-105184394D03*
X156250000Y-106454394D03*
X156250000Y-107724394D03*
X156250000Y-108994394D03*
X156250000Y-110264394D03*
X156250000Y-111534394D03*
X156250000Y-112804394D03*
X156250000Y-114074394D03*
X156250000Y-115344394D03*
X156250000Y-116614394D03*
X156250000Y-117884394D03*
D19*
X159285000Y-119134836D03*
X160555000Y-119134836D03*
X161825000Y-119134836D03*
X163095000Y-119134836D03*
X164365000Y-119134836D03*
X165635000Y-119134836D03*
X166905000Y-119134836D03*
X168175000Y-119134836D03*
X169445000Y-119134836D03*
X170715000Y-119134836D03*
D18*
X173750000Y-117884394D03*
X173750000Y-116614394D03*
X173750000Y-115344394D03*
X173750000Y-114074394D03*
X173750000Y-112804394D03*
X173750000Y-111534394D03*
X173750000Y-110264394D03*
X173750000Y-108994394D03*
X173750000Y-107724394D03*
X173750000Y-106454394D03*
X173750000Y-105184394D03*
X173750000Y-103914394D03*
X173750000Y-102644394D03*
X173750000Y-101374394D03*
D20*
X162095711Y-107314257D03*
X163495710Y-107314257D03*
X164895710Y-107314257D03*
X162095711Y-108714257D03*
X163495710Y-108714257D03*
X164895710Y-108714257D03*
X162095764Y-110114255D03*
X163495812Y-110114255D03*
X164895860Y-110114255D03*
D21*
X150566664Y-126855000D03*
X150066664Y-126855000D03*
X149566664Y-126855000D03*
X149066664Y-126855000D03*
X148566664Y-126855000D03*
X148066664Y-126855000D03*
X147566664Y-126855000D03*
D22*
X146616664Y-127805000D03*
X146616664Y-128305000D03*
X146616664Y-128805000D03*
X146616664Y-129305000D03*
X146616664Y-129805000D03*
X146616664Y-130305000D03*
X146616664Y-130805000D03*
D21*
X147566664Y-131755000D03*
X148066664Y-131755000D03*
X148566664Y-131755000D03*
X149066664Y-131755000D03*
X149566664Y-131755000D03*
X150066664Y-131755000D03*
X150566664Y-131755000D03*
D22*
X151516664Y-130805000D03*
X151516664Y-130305000D03*
X151516664Y-129805000D03*
X151516664Y-129305000D03*
X151516664Y-128805000D03*
X151516664Y-128305000D03*
X151516664Y-127805000D03*
D23*
X149066664Y-129305000D03*
D24*
X150964996Y-119795000D03*
X150964996Y-118145000D03*
D25*
X144500000Y-122800000D03*
X144500000Y-124700000D03*
D26*
X148050000Y-133650000D03*
D27*
X146750000Y-133650000D03*
D28*
X145450000Y-133650000D03*
D29*
X102200000Y-135750000D03*
D10*
X104400000Y-128250000D03*
D30*
X133750000Y-126770000D03*
X133750000Y-128320000D03*
D31*
X143294998Y-131675000D03*
X144944998Y-131675000D03*
D32*
X107400000Y-107200000D03*
X107400000Y-105650000D03*
D33*
X135759166Y-126595000D03*
X135759166Y-127545000D03*
X135759166Y-128495000D03*
X138034166Y-128495000D03*
X138034166Y-127545000D03*
X138034166Y-126595000D03*
D34*
X160725000Y-123600000D03*
X162275000Y-123600000D03*
D31*
X143294998Y-126935000D03*
X144944998Y-126935000D03*
D35*
X107200000Y-117700000D03*
X112200000Y-117700000D03*
D31*
X175925000Y-101000000D03*
X177575000Y-101000000D03*
D36*
X136000000Y-140323959D03*
D37*
X136000000Y-135323959D03*
D38*
X153263330Y-118145000D03*
X153263330Y-119795000D03*
D39*
X113540000Y-131684450D03*
X108460000Y-131674450D03*
D38*
X153263330Y-130100000D03*
X153263330Y-131750000D03*
D25*
X148500000Y-109650000D03*
X148500000Y-111550000D03*
D32*
X175750000Y-125025000D03*
X175750000Y-123475000D03*
D40*
X137700000Y-113750000D03*
X135800000Y-113750000D03*
D41*
X148250000Y-103280000D03*
D42*
X148250000Y-105820000D03*
D43*
X143050000Y-104825000D03*
X142400000Y-104825000D03*
X141750000Y-104825000D03*
X141100000Y-104825000D03*
X140450000Y-104825000D03*
D44*
X144250000Y-104850000D03*
X139250000Y-104850000D03*
D45*
X142750000Y-102150000D03*
X140750000Y-102150000D03*
D46*
X144950000Y-102150000D03*
X138550000Y-102150000D03*
D47*
X145250000Y-102150000D03*
X138250000Y-102150000D03*
D34*
X143500000Y-106900000D03*
X145050000Y-106900000D03*
D48*
X139849950Y-126995300D03*
X140650050Y-126995300D03*
D49*
X140250000Y-126004700D03*
D30*
X148666664Y-118195000D03*
X148666664Y-119745000D03*
D50*
X102300000Y-110300000D03*
X106600000Y-110300000D03*
D51*
X114352651Y-105000000D03*
D52*
X110852651Y-105000000D03*
D53*
X157050000Y-125687500D03*
X158950000Y-125687500D03*
X158000000Y-123412500D03*
D54*
X144944998Y-130095000D03*
X143294998Y-130095000D03*
D40*
X137677500Y-111250000D03*
X135777500Y-111250000D03*
D13*
X186500000Y-103500000D03*
D14*
X180720000Y-108075000D03*
X180720000Y-103925000D03*
D31*
X175925000Y-103930000D03*
X177575000Y-103930000D03*
D34*
X150945000Y-101000000D03*
X152495000Y-101000000D03*
D30*
X146565000Y-123195000D03*
X146565000Y-124745000D03*
D38*
X140422100Y-128500000D03*
X140422100Y-130150000D03*
D54*
X152545000Y-104730000D03*
X150895000Y-104730000D03*
D38*
X158970000Y-130100000D03*
X158970000Y-131750000D03*
D55*
X146127500Y-114800000D03*
D56*
X139827500Y-112500000D03*
D55*
X146127500Y-112500000D03*
X146127500Y-110200000D03*
D57*
X148250000Y-123000000D03*
D58*
X148250000Y-124700000D03*
X150250000Y-124700000D03*
X150250000Y-122800000D03*
D59*
X129426261Y-106000000D03*
D39*
X134426261Y-106000000D03*
D30*
X138500000Y-122975000D03*
X138500000Y-124525000D03*
D13*
X103500000Y-141500000D03*
D60*
X124000000Y-104750000D03*
X118400000Y-104750000D03*
D12*
X176937500Y-113787500D03*
X176937500Y-112212500D03*
D31*
X150895000Y-106345000D03*
X152545000Y-106345000D03*
D61*
X113540000Y-125900000D03*
D35*
X108460000Y-125900000D03*
D62*
X118075000Y-141875000D03*
X118075000Y-137375000D03*
X118075000Y-132875000D03*
X118075000Y-128375000D03*
X118075000Y-115875000D03*
X118075000Y-111375000D03*
D52*
X102400000Y-120635000D03*
X102400000Y-115555000D03*
D24*
X155150000Y-131750000D03*
X155150000Y-130100000D03*
D39*
X133250000Y-114500000D03*
X125750000Y-114500000D03*
D13*
X186500000Y-141500000D03*
D24*
X157067776Y-131750000D03*
X157067776Y-130100000D03*
D63*
X184740000Y-130250000D03*
D64*
X180420000Y-128750000D03*
D65*
X180420000Y-131750000D03*
X177420000Y-128750000D03*
X177420000Y-131750000D03*
D38*
X150500000Y-109555000D03*
X150500000Y-111205000D03*
D66*
X146115832Y-119700000D03*
X146115832Y-117800000D03*
X144240832Y-118750000D03*
D38*
X176977500Y-107175000D03*
X176977500Y-108825000D03*
D67*
X139562500Y-117800000D03*
X139562500Y-119700000D03*
X141437500Y-118750000D03*
D63*
X184740000Y-118610000D03*
D64*
X180420000Y-117110000D03*
D65*
X180420000Y-120110000D03*
X177420000Y-117110000D03*
X177420000Y-120110000D03*
D53*
X153283330Y-125687500D03*
X155183330Y-125687500D03*
X154233330Y-123412500D03*
D31*
X143294998Y-128515000D03*
X144944998Y-128515000D03*
D68*
X136472666Y-124650050D03*
X136472666Y-123849950D03*
D69*
X135482066Y-124250000D03*
D34*
X179725000Y-101000000D03*
X181275000Y-101000000D03*
D70*
X172695000Y-128775850D03*
X171425000Y-128775850D03*
X170155000Y-128775850D03*
X168885000Y-128775850D03*
X167615000Y-128775850D03*
X166345000Y-128775850D03*
X165075000Y-128775850D03*
X163805000Y-128775850D03*
X163805000Y-134224150D03*
X165075000Y-134224150D03*
X166345000Y-134224150D03*
X167615000Y-134224150D03*
X168885000Y-134224150D03*
X170155000Y-134224150D03*
X171425000Y-134224150D03*
X172695000Y-134224150D03*
D71*
X182960000Y-110750000D03*
D35*
X188040000Y-110750000D03*
M02*
