M48
; DRILL file {KiCad (6.0.11-0)} date Thursday, June 01, 2023 at 08:29:34 pm
; FORMAT={-:-/ absolute / metric / decimal}
; #@! TF.CreationDate,2023-06-01T20:29:34-06:00
; #@! TF.GenerationSoftware,Kicad,Pcbnew,(6.0.11-0)
; #@! TF.FileFunction,Plated,1,4,PTH
FMAT,2
METRIC
; #@! TA.AperFunction,Plated,PTH,ViaDrill
T1C0.300
; #@! TA.AperFunction,Plated,PTH,ComponentDrill
T2C0.600
; #@! TA.AperFunction,Plated,PTH,ComponentDrill
T3C0.800
; #@! TA.AperFunction,Plated,PTH,ComponentDrill
T4C0.850
; #@! TA.AperFunction,Plated,PTH,ComponentDrill
T5C1.000
; #@! TA.AperFunction,Plated,PTH,ComponentDrill
T6C1.020
; #@! TA.AperFunction,Plated,PTH,ComponentDrill
T7C1.092
; #@! TA.AperFunction,Plated,PTH,ComponentDrill
T8C1.200
; #@! TA.AperFunction,Plated,PTH,ComponentDrill
T9C1.300
; #@! TA.AperFunction,Plated,PTH,ComponentDrill
T10C3.200
%
G90
G05
T1
X105.8Y-129.9
X107.0Y-143.75
X112.5Y-143.75
X115.0Y-109.0
X115.0Y-109.75
X115.0Y-110.5
X115.0Y-111.25
X115.0Y-112.0
X115.0Y-112.75
X115.0Y-113.5
X118.1Y-122.3
X123.5Y-130.9
X127.5Y-116.2
X133.75Y-123.5
X133.75Y-124.25
X133.75Y-125.0
X133.75Y-125.75
X135.6Y-117.0
X136.25Y-122.0
X136.25Y-122.75
X136.25Y-123.5
X137.4Y-130.7
X137.5Y-122.0
X137.5Y-122.75
X137.5Y-123.5
X137.75Y-125.5
X138.5Y-100.8
X138.5Y-122.0
X138.7Y-108.1
X139.0Y-125.5
X139.25Y-119.0
X140.3Y-137.2
X140.45Y-106.0
X140.5Y-103.6
X140.7Y-100.8
X141.1Y-103.6
X141.22Y-112.5
X141.5Y-123.75
X141.619Y-119.681
X141.7Y-103.6
X141.75Y-126.75
X141.75Y-127.5
X141.75Y-128.25
X141.75Y-129.0
X141.75Y-129.75
X141.75Y-130.5
X142.25Y-131.75
X142.3Y-103.6
X142.495Y-125.495
X142.7Y-100.8
X142.8Y-118.7
X143.0Y-112.5
X143.0Y-126.0
X143.75Y-112.5
X143.8Y-108.2
X143.8Y-110.2
X143.9Y-114.6
X144.0Y-127.75
X144.5Y-112.5
X144.75Y-125.75
X144.77Y-119.65
X144.9Y-100.7
X145.3Y-108.2
X145.75Y-125.75
X146.1Y-118.7
X146.75Y-133.0
X146.75Y-134.25
X146.75Y-135.25
X146.75Y-136.25
X147.6Y-108.4
X147.65Y-127.9
X147.65Y-129.3
X147.65Y-130.7
X148.4Y-114.2
X148.6Y-126.1
X149.05Y-127.9
X149.05Y-129.3
X149.05Y-130.7
X149.4Y-108.2
X149.75Y-101.0
X149.75Y-101.75
X150.0Y-104.75
X150.0Y-106.25
X150.25Y-123.75
X150.3Y-125.3
X150.3Y-126.0
X150.45Y-127.9
X150.45Y-129.3
X150.45Y-130.7
X152.0Y-109.75
X152.0Y-110.75
X152.2Y-132.9
X152.5Y-121.6
X152.95Y-133.95
X153.2Y-135.5
X153.25Y-109.75
X153.3Y-126.95
X153.3Y-130.9
X153.5Y-101.0
X153.5Y-103.0
X153.5Y-113.7
X153.996Y-127.016
X154.05Y-130.9
X154.25Y-118.1
X154.75Y-100.75
X154.75Y-101.5
X154.75Y-102.25
X154.75Y-103.0
X155.0Y-124.0
X155.15Y-132.7
X157.05Y-133.2
X157.25Y-127.75
X157.55Y-103.9
X158.0Y-101.0
X158.0Y-102.0
X158.0Y-138.5
X158.299Y-103.899
X158.529Y-118.05
X160.25Y-122.0
X160.5Y-130.4
X160.7Y-124.65
X161.6Y-104.9
X161.7Y-115.4
X161.75Y-134.75
X161.8Y-131.8
X162.0Y-120.5
X162.0Y-137.0
X162.25Y-124.65
X162.275Y-126.725
X162.275Y-127.725
X162.75Y-122.0
X163.1Y-128.8
X163.25Y-142.0
X163.8Y-132.141
X164.75Y-131.0
X167.041Y-123.6
X167.25Y-126.0
X167.57Y-124.9
X167.75Y-137.25
X168.1Y-126.15
X168.25Y-130.0
X168.916Y-120.753
X169.5Y-110.3
X170.0Y-112.8
X170.3Y-104.8
X170.3Y-130.8
X170.5Y-111.5
X170.5Y-132.1
X170.5Y-133.05
X171.4Y-132.5
X171.425Y-130.075
X171.425Y-130.925
X171.5Y-120.75
X171.75Y-137.25
X172.0Y-109.5
X172.0Y-111.0
X172.0Y-112.25
X172.45Y-102.839
X172.5Y-105.2
X172.5Y-106.45
X173.7Y-131.2
X175.0Y-116.7
X175.511Y-102.839
X175.511Y-109.419
X175.75Y-137.25
X175.9Y-110.0
X176.04Y-105.05
X176.7Y-102.9
X176.7Y-106.0
X177.0Y-134.0
X177.3Y-122.7
X179.75Y-102.45
X184.9Y-114.8
X186.3Y-133.9
X188.1Y-120.0
T3
X102.4Y-115.555
X102.4Y-120.635
X110.853Y-105.0
X114.353Y-105.0
T4
X139.25Y-104.85
X144.25Y-104.85
T5
X108.46Y-131.674
X113.54Y-131.684
X125.75Y-114.5
X129.426Y-106.0
X133.25Y-114.5
X134.426Y-106.0
X148.25Y-103.28
X148.25Y-105.82
T6
X177.42Y-117.11
X177.42Y-120.11
X177.42Y-128.75
X177.42Y-131.75
X180.42Y-117.11
X180.42Y-120.11
X180.42Y-128.75
X180.42Y-131.75
T7
X102.2Y-135.75
X104.4Y-128.25
X109.0Y-139.809
X112.505Y-139.809
X145.0Y-139.809
X148.505Y-139.809
X153.062Y-139.809
X156.568Y-139.809
X161.125Y-139.809
X164.63Y-139.809
X169.188Y-139.809
X172.693Y-139.809
X177.25Y-139.809
X180.755Y-139.809
T8
X136.0Y-135.324
X136.0Y-140.324
T9
X107.2Y-117.7
X108.46Y-125.9
X112.2Y-117.7
X113.54Y-125.9
X182.96Y-110.75
X188.04Y-110.75
T10
X103.5Y-103.5
X103.5Y-141.5
X186.5Y-103.5
X186.5Y-141.5
T2
X138.25Y-102.5G85X138.25Y-101.8
G05
X145.25Y-102.5G85X145.25Y-101.8
G05
T8
X118.075Y-111.975G85X118.075Y-110.775
G05
X118.075Y-116.475G85X118.075Y-115.275
G05
X118.075Y-128.975G85X118.075Y-127.775
G05
X118.075Y-133.475G85X118.075Y-132.275
G05
X118.075Y-137.975G85X118.075Y-136.775
G05
X118.075Y-142.475G85X118.075Y-141.275
G05
T0
M30
