G04 #@! TF.GenerationSoftware,KiCad,Pcbnew,(6.0.11-0)*
G04 #@! TF.CreationDate,2023-02-14T20:09:15-07:00*
G04 #@! TF.ProjectId,LightSensorPCB,4c696768-7453-4656-9e73-6f725043422e,rev?*
G04 #@! TF.SameCoordinates,Original*
G04 #@! TF.FileFunction,Legend,Top*
G04 #@! TF.FilePolarity,Positive*
%FSLAX46Y46*%
G04 Gerber Fmt 4.6, Leading zero omitted, Abs format (unit mm)*
G04 Created by KiCad (PCBNEW (6.0.11-0)) date 2023-02-14 20:09:15*
%MOMM*%
%LPD*%
G01*
G04 APERTURE LIST*
G04 Aperture macros list*
%AMRoundRect*
0 Rectangle with rounded corners*
0 $1 Rounding radius*
0 $2 $3 $4 $5 $6 $7 $8 $9 X,Y pos of 4 corners*
0 Add a 4 corners polygon primitive as box body*
4,1,4,$2,$3,$4,$5,$6,$7,$8,$9,$2,$3,0*
0 Add four circle primitives for the rounded corners*
1,1,$1+$1,$2,$3*
1,1,$1+$1,$4,$5*
1,1,$1+$1,$6,$7*
1,1,$1+$1,$8,$9*
0 Add four rect primitives between the rounded corners*
20,1,$1+$1,$2,$3,$4,$5,0*
20,1,$1+$1,$4,$5,$6,$7,0*
20,1,$1+$1,$6,$7,$8,$9,0*
20,1,$1+$1,$8,$9,$2,$3,0*%
G04 Aperture macros list end*
%ADD10C,0.100000*%
%ADD11C,0.120000*%
%ADD12C,5.600000*%
%ADD13RoundRect,0.150000X-0.150000X-0.700000X0.150000X-0.700000X0.150000X0.700000X-0.150000X0.700000X0*%
%ADD14RoundRect,0.250000X-0.250000X-1.100000X0.250000X-1.100000X0.250000X1.100000X-0.250000X1.100000X0*%
%ADD15RoundRect,0.135000X0.135000X0.185000X-0.135000X0.185000X-0.135000X-0.185000X0.135000X-0.185000X0*%
%ADD16RoundRect,0.218750X-0.218750X-0.256250X0.218750X-0.256250X0.218750X0.256250X-0.218750X0.256250X0*%
%ADD17R,0.812800X0.660400*%
%ADD18RoundRect,0.135000X-0.135000X-0.185000X0.135000X-0.185000X0.135000X0.185000X-0.135000X0.185000X0*%
%ADD19RoundRect,0.140000X0.140000X0.170000X-0.140000X0.170000X-0.140000X-0.170000X0.140000X-0.170000X0*%
G04 APERTURE END LIST*
D10*
X113500000Y-109089285D02*
X113500000Y-109625000D01*
X113464285Y-109732142D01*
X113392857Y-109803571D01*
X113285714Y-109839285D01*
X113214285Y-109839285D01*
X114250000Y-109839285D02*
X113821428Y-109839285D01*
X114035714Y-109839285D02*
X114035714Y-109089285D01*
X113964285Y-109196428D01*
X113892857Y-109267857D01*
X113821428Y-109303571D01*
X102125000Y-112089285D02*
X101875000Y-111732142D01*
X101696428Y-112089285D02*
X101696428Y-111339285D01*
X101982142Y-111339285D01*
X102053571Y-111375000D01*
X102089285Y-111410714D01*
X102125000Y-111482142D01*
X102125000Y-111589285D01*
X102089285Y-111660714D01*
X102053571Y-111696428D01*
X101982142Y-111732142D01*
X101696428Y-111732142D01*
X102375000Y-111339285D02*
X102839285Y-111339285D01*
X102589285Y-111625000D01*
X102696428Y-111625000D01*
X102767857Y-111660714D01*
X102803571Y-111696428D01*
X102839285Y-111767857D01*
X102839285Y-111946428D01*
X102803571Y-112017857D01*
X102767857Y-112053571D01*
X102696428Y-112089285D01*
X102482142Y-112089285D01*
X102410714Y-112053571D01*
X102375000Y-112017857D01*
X100696428Y-113589285D02*
X100696428Y-112839285D01*
X100875000Y-112839285D01*
X100982142Y-112875000D01*
X101053571Y-112946428D01*
X101089285Y-113017857D01*
X101125000Y-113160714D01*
X101125000Y-113267857D01*
X101089285Y-113410714D01*
X101053571Y-113482142D01*
X100982142Y-113553571D01*
X100875000Y-113589285D01*
X100696428Y-113589285D01*
X101839285Y-113589285D02*
X101410714Y-113589285D01*
X101625000Y-113589285D02*
X101625000Y-112839285D01*
X101553571Y-112946428D01*
X101482142Y-113017857D01*
X101410714Y-113053571D01*
X109428571Y-104089285D02*
X109428571Y-104696428D01*
X109464285Y-104767857D01*
X109500000Y-104803571D01*
X109571428Y-104839285D01*
X109714285Y-104839285D01*
X109785714Y-104803571D01*
X109821428Y-104767857D01*
X109857142Y-104696428D01*
X109857142Y-104089285D01*
X110607142Y-104839285D02*
X110178571Y-104839285D01*
X110392857Y-104839285D02*
X110392857Y-104089285D01*
X110321428Y-104196428D01*
X110250000Y-104267857D01*
X110178571Y-104303571D01*
X118375000Y-113209285D02*
X118125000Y-112852142D01*
X117946428Y-113209285D02*
X117946428Y-112459285D01*
X118232142Y-112459285D01*
X118303571Y-112495000D01*
X118339285Y-112530714D01*
X118375000Y-112602142D01*
X118375000Y-112709285D01*
X118339285Y-112780714D01*
X118303571Y-112816428D01*
X118232142Y-112852142D01*
X117946428Y-112852142D01*
X118660714Y-112530714D02*
X118696428Y-112495000D01*
X118767857Y-112459285D01*
X118946428Y-112459285D01*
X119017857Y-112495000D01*
X119053571Y-112530714D01*
X119089285Y-112602142D01*
X119089285Y-112673571D01*
X119053571Y-112780714D01*
X118625000Y-113209285D01*
X119089285Y-113209285D01*
X118365000Y-111839285D02*
X118115000Y-111482142D01*
X117936428Y-111839285D02*
X117936428Y-111089285D01*
X118222142Y-111089285D01*
X118293571Y-111125000D01*
X118329285Y-111160714D01*
X118365000Y-111232142D01*
X118365000Y-111339285D01*
X118329285Y-111410714D01*
X118293571Y-111446428D01*
X118222142Y-111482142D01*
X117936428Y-111482142D01*
X119079285Y-111839285D02*
X118650714Y-111839285D01*
X118865000Y-111839285D02*
X118865000Y-111089285D01*
X118793571Y-111196428D01*
X118722142Y-111267857D01*
X118650714Y-111303571D01*
X105355000Y-107267857D02*
X105319285Y-107303571D01*
X105212142Y-107339285D01*
X105140714Y-107339285D01*
X105033571Y-107303571D01*
X104962142Y-107232142D01*
X104926428Y-107160714D01*
X104890714Y-107017857D01*
X104890714Y-106910714D01*
X104926428Y-106767857D01*
X104962142Y-106696428D01*
X105033571Y-106625000D01*
X105140714Y-106589285D01*
X105212142Y-106589285D01*
X105319285Y-106625000D01*
X105355000Y-106660714D01*
X106069285Y-107339285D02*
X105640714Y-107339285D01*
X105855000Y-107339285D02*
X105855000Y-106589285D01*
X105783571Y-106696428D01*
X105712142Y-106767857D01*
X105640714Y-106803571D01*
D11*
X105765000Y-111490000D02*
X105765000Y-110040000D01*
X114235000Y-110040000D02*
X112435000Y-110040000D01*
X105765000Y-110040000D02*
X107565000Y-110040000D01*
X114235000Y-111490000D02*
X114235000Y-110040000D01*
X107565000Y-110040000D02*
X107565000Y-109050000D01*
X107035000Y-114310000D02*
X112965000Y-114310000D01*
X104153641Y-111370000D02*
X103846359Y-111370000D01*
X104153641Y-112130000D02*
X103846359Y-112130000D01*
X104250000Y-112515000D02*
X101965000Y-112515000D01*
X101965000Y-112515000D02*
X101965000Y-113985000D01*
X101965000Y-113985000D02*
X104250000Y-113985000D01*
X108371300Y-105900000D02*
G75*
G03*
X108371300Y-105900000I-76200J0D01*
G01*
X116346359Y-112490000D02*
X116653641Y-112490000D01*
X116346359Y-113250000D02*
X116653641Y-113250000D01*
X116346359Y-111120000D02*
X116653641Y-111120000D01*
X116346359Y-111880000D02*
X116653641Y-111880000D01*
X107607836Y-106640000D02*
X107392164Y-106640000D01*
X107607836Y-107360000D02*
X107392164Y-107360000D01*
%LPC*%
D12*
X103500000Y-103500000D03*
X116500000Y-103500000D03*
D13*
X108125000Y-109900000D03*
X109375000Y-109900000D03*
X110625000Y-109900000D03*
X111875000Y-109900000D03*
D14*
X113725000Y-113100000D03*
X106275000Y-113100000D03*
D15*
X103490000Y-111750000D03*
X104510000Y-111750000D03*
D16*
X104237500Y-113250000D03*
X102662500Y-113250000D03*
D17*
X109403100Y-105900001D03*
X109403100Y-107099999D03*
X110596900Y-107099999D03*
X110596900Y-105900001D03*
D18*
X115990000Y-112870000D03*
X117010000Y-112870000D03*
X115990000Y-111500000D03*
X117010000Y-111500000D03*
D19*
X107980000Y-107000000D03*
X107020000Y-107000000D03*
M02*
