G04 #@! TF.GenerationSoftware,KiCad,Pcbnew,(6.0.11-0)*
G04 #@! TF.CreationDate,2023-06-01T20:00:55-06:00*
G04 #@! TF.ProjectId,LIDPCB,4c494450-4342-42e6-9b69-6361645f7063,rev?*
G04 #@! TF.SameCoordinates,Original*
G04 #@! TF.FileFunction,Copper,L2,Bot*
G04 #@! TF.FilePolarity,Positive*
%FSLAX46Y46*%
G04 Gerber Fmt 4.6, Leading zero omitted, Abs format (unit mm)*
G04 Created by KiCad (PCBNEW (6.0.11-0)) date 2023-06-01 20:00:55*
%MOMM*%
%LPD*%
G01*
G04 APERTURE LIST*
G04 Aperture macros list*
%AMRoundRect*
0 Rectangle with rounded corners*
0 $1 Rounding radius*
0 $2 $3 $4 $5 $6 $7 $8 $9 X,Y pos of 4 corners*
0 Add a 4 corners polygon primitive as box body*
4,1,4,$2,$3,$4,$5,$6,$7,$8,$9,$2,$3,0*
0 Add four circle primitives for the rounded corners*
1,1,$1+$1,$2,$3*
1,1,$1+$1,$4,$5*
1,1,$1+$1,$6,$7*
1,1,$1+$1,$8,$9*
0 Add four rect primitives between the rounded corners*
20,1,$1+$1,$2,$3,$4,$5,0*
20,1,$1+$1,$4,$5,$6,$7,0*
20,1,$1+$1,$6,$7,$8,$9,0*
20,1,$1+$1,$8,$9,$2,$3,0*%
G04 Aperture macros list end*
G04 #@! TA.AperFunction,ComponentPad*
%ADD10C,5.600000*%
G04 #@! TD*
G04 #@! TA.AperFunction,ComponentPad*
%ADD11RoundRect,0.250001X-0.499999X-0.499999X0.499999X-0.499999X0.499999X0.499999X-0.499999X0.499999X0*%
G04 #@! TD*
G04 #@! TA.AperFunction,ComponentPad*
%ADD12C,1.500000*%
G04 #@! TD*
G04 #@! TA.AperFunction,ViaPad*
%ADD13C,0.500000*%
G04 #@! TD*
G04 #@! TA.AperFunction,Conductor*
%ADD14C,0.250000*%
G04 #@! TD*
G04 #@! TA.AperFunction,Conductor*
%ADD15C,0.160000*%
G04 #@! TD*
G04 APERTURE END LIST*
D10*
X103500000Y-113500000D03*
X118500000Y-103500000D03*
D11*
X107750000Y-109000000D03*
D12*
X110750000Y-109000000D03*
X107750000Y-112000000D03*
X110750000Y-112000000D03*
D13*
X116300000Y-116100000D03*
X116200000Y-109400000D03*
X113600000Y-105200000D03*
X118500000Y-114300000D03*
X120700000Y-106900000D03*
X109100000Y-115000000D03*
X101300000Y-105700000D03*
X120700000Y-109600000D03*
X114700000Y-112000000D03*
X109500000Y-101400000D03*
X117100000Y-111100000D03*
X120000000Y-111100000D03*
D14*
X116300000Y-116100000D02*
X118100000Y-114300000D01*
X118100000Y-114300000D02*
X118500000Y-114300000D01*
D15*
X115750000Y-110550000D02*
X115800000Y-110550000D01*
X114250000Y-109876854D02*
X114250000Y-110250000D01*
X114850000Y-110250000D02*
X114850000Y-109876854D01*
X115915686Y-110550000D02*
X116465686Y-111100000D01*
X116465686Y-111100000D02*
X117100000Y-111100000D01*
X115800000Y-110550000D02*
X115915686Y-110550000D01*
X115450000Y-109876854D02*
X115450000Y-110250000D01*
X107750000Y-109000000D02*
X109300000Y-110550000D01*
X109300000Y-110550000D02*
X112150000Y-110550000D01*
X113050000Y-109876854D02*
X113050000Y-110250000D01*
X112450000Y-110250000D02*
X112450000Y-109876854D01*
X113650000Y-110250000D02*
X113650000Y-109876854D01*
X115150000Y-109576900D02*
G75*
G03*
X114850000Y-109876854I0J-300000D01*
G01*
X114550000Y-110550000D02*
G75*
G02*
X114250000Y-110250000I0J300000D01*
G01*
X115750000Y-110550000D02*
G75*
G02*
X115450000Y-110250000I0J300000D01*
G01*
X114250046Y-109876854D02*
G75*
G03*
X113950000Y-109576854I-300046J-46D01*
G01*
X112450000Y-110250000D02*
G75*
G02*
X112150000Y-110550000I-300000J0D01*
G01*
X113950000Y-109576900D02*
G75*
G03*
X113650000Y-109876854I0J-300000D01*
G01*
X113050046Y-109876854D02*
G75*
G03*
X112750000Y-109576854I-300046J-46D01*
G01*
X112750000Y-109576900D02*
G75*
G03*
X112450000Y-109876854I0J-300000D01*
G01*
X113350000Y-110550000D02*
G75*
G02*
X113050000Y-110250000I0J300000D01*
G01*
X115450046Y-109876854D02*
G75*
G03*
X115150000Y-109576854I-300046J-46D01*
G01*
X113650000Y-110250000D02*
G75*
G02*
X113350000Y-110550000I-300000J0D01*
G01*
X114850000Y-110250000D02*
G75*
G02*
X114550000Y-110550000I-300000J0D01*
G01*
X119100000Y-112400000D02*
X117200000Y-112400000D01*
X117200000Y-112400000D02*
X115750000Y-110950000D01*
X112914850Y-111485151D02*
X112850000Y-111485151D01*
X108800000Y-110950000D02*
X107750000Y-112000000D01*
X115750000Y-110950000D02*
X113450000Y-110950000D01*
X112250000Y-110950000D02*
X108800000Y-110950000D01*
X112582425Y-111217576D02*
X112582425Y-111217575D01*
X113182425Y-111217575D02*
X113182425Y-111217576D01*
X112314850Y-110950000D02*
X112250000Y-110950000D01*
X120000000Y-111500000D02*
X119100000Y-112400000D01*
X120000000Y-111100000D02*
X120000000Y-111500000D01*
X112582449Y-111217576D02*
G75*
G03*
X112850000Y-111485151I267551J-24D01*
G01*
X112314850Y-110949975D02*
G75*
G02*
X112582425Y-111217575I-50J-267625D01*
G01*
X112914850Y-111485225D02*
G75*
G03*
X113182425Y-111217576I-50J267625D01*
G01*
X113182400Y-111217575D02*
G75*
G02*
X113450000Y-110950000I267600J-25D01*
G01*
G04 #@! TA.AperFunction,Conductor*
G36*
X116668127Y-100528502D02*
G01*
X116714620Y-100582158D01*
X116724724Y-100652432D01*
X116695230Y-100717012D01*
X116664715Y-100742614D01*
X116647193Y-100753101D01*
X116644467Y-100755163D01*
X116644465Y-100755164D01*
X116381243Y-100954238D01*
X116361367Y-100969270D01*
X116100559Y-101215043D01*
X115867819Y-101487546D01*
X115865900Y-101490358D01*
X115865897Y-101490363D01*
X115797120Y-101591187D01*
X115665871Y-101783591D01*
X115497077Y-102099714D01*
X115363411Y-102432218D01*
X115362491Y-102435492D01*
X115362489Y-102435497D01*
X115275607Y-102744591D01*
X115266437Y-102777213D01*
X115265875Y-102780570D01*
X115265875Y-102780571D01*
X115230931Y-102989392D01*
X115207290Y-103130663D01*
X115186661Y-103488434D01*
X115186833Y-103491829D01*
X115186833Y-103491830D01*
X115195841Y-103669653D01*
X115204792Y-103846340D01*
X115205329Y-103849695D01*
X115205330Y-103849701D01*
X115238012Y-104053741D01*
X115261470Y-104200195D01*
X115356033Y-104545859D01*
X115487374Y-104879288D01*
X115488957Y-104882303D01*
X115638472Y-105167087D01*
X115653957Y-105196582D01*
X115655858Y-105199411D01*
X115655864Y-105199421D01*
X115727657Y-105306259D01*
X115853834Y-105494029D01*
X116084665Y-105768150D01*
X116343751Y-106015738D01*
X116628061Y-106233897D01*
X116660056Y-106253350D01*
X116931355Y-106418303D01*
X116931360Y-106418306D01*
X116934270Y-106420075D01*
X116937358Y-106421521D01*
X116937357Y-106421521D01*
X117255710Y-106570649D01*
X117255720Y-106570653D01*
X117258794Y-106572093D01*
X117262010Y-106573194D01*
X117262015Y-106573196D01*
X117594615Y-106687071D01*
X117594623Y-106687073D01*
X117597838Y-106688174D01*
X117947435Y-106766959D01*
X117999728Y-106772917D01*
X118300114Y-106807142D01*
X118300122Y-106807142D01*
X118303497Y-106807527D01*
X118306901Y-106807545D01*
X118306904Y-106807545D01*
X118501227Y-106808562D01*
X118661857Y-106809403D01*
X118665243Y-106809053D01*
X118665245Y-106809053D01*
X119014932Y-106772917D01*
X119014941Y-106772916D01*
X119018324Y-106772566D01*
X119021657Y-106771852D01*
X119021660Y-106771851D01*
X119194186Y-106734864D01*
X119368727Y-106697446D01*
X119708968Y-106584922D01*
X120035066Y-106436311D01*
X120254449Y-106306051D01*
X120340262Y-106255099D01*
X120340267Y-106255096D01*
X120343207Y-106253350D01*
X120384485Y-106222358D01*
X120514073Y-106125060D01*
X120629786Y-106038180D01*
X120891451Y-105793319D01*
X121125140Y-105521630D01*
X121261660Y-105322992D01*
X121316728Y-105278181D01*
X121387281Y-105270256D01*
X121450919Y-105301733D01*
X121487436Y-105362618D01*
X121491500Y-105394359D01*
X121491500Y-113950633D01*
X121490000Y-113970018D01*
X121487690Y-113984851D01*
X121487690Y-113984855D01*
X121486309Y-113993724D01*
X121488558Y-114010919D01*
X121489391Y-114034863D01*
X121473794Y-114292710D01*
X121471960Y-114307814D01*
X121422916Y-114575446D01*
X121420477Y-114588754D01*
X121416836Y-114603527D01*
X121331859Y-114876227D01*
X121326466Y-114890445D01*
X121209243Y-115150906D01*
X121202172Y-115164379D01*
X121054405Y-115408813D01*
X121045762Y-115421334D01*
X120869615Y-115646171D01*
X120859525Y-115657560D01*
X120657560Y-115859525D01*
X120646171Y-115869615D01*
X120421334Y-116045762D01*
X120408813Y-116054405D01*
X120164379Y-116202172D01*
X120150908Y-116209242D01*
X119890445Y-116326466D01*
X119876231Y-116331858D01*
X119603527Y-116416836D01*
X119588760Y-116420475D01*
X119379786Y-116458771D01*
X119307814Y-116471960D01*
X119292710Y-116473794D01*
X119042096Y-116488953D01*
X119015284Y-116487692D01*
X119015148Y-116487690D01*
X119006276Y-116486309D01*
X118997374Y-116487473D01*
X118997372Y-116487473D01*
X118982323Y-116489441D01*
X118974714Y-116490436D01*
X118958379Y-116491500D01*
X105401120Y-116491500D01*
X105332999Y-116471498D01*
X105286506Y-116417842D01*
X105276402Y-116347568D01*
X105305896Y-116282988D01*
X105336789Y-116257161D01*
X105343207Y-116253350D01*
X105629786Y-116038180D01*
X105891451Y-115793319D01*
X106125140Y-115521630D01*
X106247040Y-115344264D01*
X106326190Y-115229101D01*
X106326195Y-115229094D01*
X106328120Y-115226292D01*
X106329732Y-115223298D01*
X106329737Y-115223290D01*
X106496395Y-114913772D01*
X106498017Y-114910760D01*
X106622771Y-114603527D01*
X106631562Y-114581877D01*
X106631564Y-114581872D01*
X106632842Y-114578724D01*
X106731020Y-114234070D01*
X106766787Y-114024823D01*
X106790829Y-113884175D01*
X106790829Y-113884173D01*
X106791401Y-113880828D01*
X106813278Y-113523131D01*
X106813359Y-113500000D01*
X106793979Y-113142159D01*
X106791393Y-113126367D01*
X106800124Y-113055909D01*
X106845561Y-113001356D01*
X106913278Y-112980029D01*
X106981777Y-112998698D01*
X106988008Y-113002792D01*
X107118346Y-113094056D01*
X107317924Y-113187120D01*
X107530629Y-113244115D01*
X107750000Y-113263307D01*
X107969371Y-113244115D01*
X108182076Y-113187120D01*
X108381654Y-113094056D01*
X108532403Y-112988500D01*
X108557527Y-112970908D01*
X108557529Y-112970906D01*
X108562038Y-112967749D01*
X108717749Y-112812038D01*
X108844056Y-112631653D01*
X108846379Y-112626671D01*
X108846382Y-112626666D01*
X108934795Y-112437061D01*
X108937120Y-112432076D01*
X108994115Y-112219371D01*
X109013307Y-112000000D01*
X108994115Y-111780629D01*
X108992691Y-111775316D01*
X108992690Y-111775308D01*
X108972268Y-111699093D01*
X108973957Y-111628116D01*
X109004879Y-111577386D01*
X109006860Y-111575405D01*
X109069172Y-111541379D01*
X109095955Y-111538500D01*
X109406557Y-111538500D01*
X109474678Y-111558502D01*
X109521171Y-111612158D01*
X109531275Y-111682432D01*
X109528263Y-111697112D01*
X109507310Y-111775309D01*
X109507309Y-111775315D01*
X109505885Y-111780629D01*
X109486693Y-112000000D01*
X109505885Y-112219371D01*
X109562880Y-112432076D01*
X109565205Y-112437061D01*
X109653618Y-112626666D01*
X109653621Y-112626671D01*
X109655944Y-112631653D01*
X109782251Y-112812038D01*
X109937962Y-112967749D01*
X109942471Y-112970906D01*
X109942473Y-112970908D01*
X109967597Y-112988500D01*
X110118346Y-113094056D01*
X110317924Y-113187120D01*
X110530629Y-113244115D01*
X110750000Y-113263307D01*
X110969371Y-113244115D01*
X111182076Y-113187120D01*
X111381654Y-113094056D01*
X111532403Y-112988500D01*
X111557527Y-112970908D01*
X111557529Y-112970906D01*
X111562038Y-112967749D01*
X111717749Y-112812038D01*
X111844056Y-112631653D01*
X111846379Y-112626671D01*
X111846382Y-112626666D01*
X111934795Y-112437061D01*
X111937120Y-112432076D01*
X111994115Y-112219371D01*
X112013307Y-112000000D01*
X112004497Y-111899301D01*
X112018486Y-111829697D01*
X112067886Y-111778704D01*
X112137012Y-111762514D01*
X112203917Y-111786266D01*
X112227421Y-111808391D01*
X112241724Y-111825821D01*
X112372078Y-111932808D01*
X112469915Y-111985106D01*
X112515349Y-112009393D01*
X112515352Y-112009394D01*
X112520801Y-112012307D01*
X112682175Y-112061263D01*
X112688334Y-112061870D01*
X112688336Y-112061870D01*
X112819719Y-112074811D01*
X112823812Y-112075282D01*
X112841809Y-112077651D01*
X112841811Y-112077651D01*
X112850000Y-112078729D01*
X112866027Y-112076619D01*
X112898888Y-112076616D01*
X112914961Y-112078729D01*
X112923145Y-112077650D01*
X112923147Y-112077650D01*
X112930118Y-112076731D01*
X112938925Y-112075570D01*
X112942987Y-112075102D01*
X112993849Y-112070083D01*
X113076619Y-112061916D01*
X113076623Y-112061915D01*
X113082777Y-112061308D01*
X113244139Y-112012330D01*
X113362114Y-111949247D01*
X113387391Y-111935731D01*
X113387392Y-111935730D01*
X113392846Y-111932814D01*
X113397643Y-111928876D01*
X113518398Y-111829747D01*
X113518400Y-111829745D01*
X113523185Y-111825817D01*
X113527110Y-111821033D01*
X113527114Y-111821029D01*
X113608366Y-111721995D01*
X113630146Y-111695449D01*
X113656869Y-111645440D01*
X113678416Y-111605117D01*
X113728162Y-111554463D01*
X113789545Y-111538500D01*
X115454045Y-111538500D01*
X115522166Y-111558502D01*
X115543140Y-111575405D01*
X116750750Y-112783014D01*
X116761617Y-112795405D01*
X116780277Y-112819723D01*
X116903211Y-112914054D01*
X116974791Y-112943703D01*
X117046371Y-112973353D01*
X117200000Y-112993578D01*
X117230385Y-112989578D01*
X117246830Y-112988500D01*
X119053170Y-112988500D01*
X119069615Y-112989578D01*
X119100000Y-112993578D01*
X119108189Y-112992500D01*
X119245442Y-112974431D01*
X119245443Y-112974431D01*
X119253630Y-112973353D01*
X119358979Y-112929715D01*
X119389158Y-112917215D01*
X119389159Y-112917214D01*
X119396789Y-112914054D01*
X119519723Y-112819723D01*
X119538380Y-112795409D01*
X119549247Y-112783018D01*
X120383018Y-111949247D01*
X120395409Y-111938380D01*
X120413173Y-111924749D01*
X120419723Y-111919723D01*
X120514054Y-111796789D01*
X120573352Y-111653629D01*
X120575464Y-111637586D01*
X120577073Y-111625367D01*
X120597047Y-111572087D01*
X120647103Y-111496746D01*
X120678891Y-111448902D01*
X120739319Y-111289825D01*
X120763001Y-111121313D01*
X120763299Y-111100000D01*
X120744331Y-110930892D01*
X120688368Y-110770189D01*
X120683031Y-110761647D01*
X120660420Y-110725464D01*
X120598192Y-110625879D01*
X120478286Y-110505132D01*
X120462039Y-110494821D01*
X120423406Y-110470304D01*
X120334608Y-110413951D01*
X120174300Y-110356868D01*
X120005329Y-110336720D01*
X119998326Y-110337456D01*
X119998325Y-110337456D01*
X119843101Y-110353770D01*
X119843097Y-110353771D01*
X119836093Y-110354507D01*
X119829422Y-110356778D01*
X119681673Y-110407075D01*
X119681670Y-110407076D01*
X119675003Y-110409346D01*
X119669005Y-110413036D01*
X119669003Y-110413037D01*
X119536065Y-110494821D01*
X119536063Y-110494823D01*
X119530066Y-110498512D01*
X119525033Y-110503441D01*
X119437567Y-110589095D01*
X119408486Y-110617573D01*
X119404675Y-110623487D01*
X119404673Y-110623489D01*
X119331409Y-110737172D01*
X119316304Y-110760610D01*
X119258103Y-110920516D01*
X119236775Y-111089343D01*
X119253381Y-111258699D01*
X119255604Y-111265381D01*
X119255605Y-111265387D01*
X119267672Y-111301662D01*
X119270194Y-111372613D01*
X119237208Y-111430527D01*
X118893140Y-111774595D01*
X118830828Y-111808621D01*
X118804045Y-111811500D01*
X117767817Y-111811500D01*
X117699696Y-111791498D01*
X117653203Y-111737842D01*
X117643099Y-111667568D01*
X117672593Y-111602988D01*
X117678744Y-111596540D01*
X117679618Y-111595499D01*
X117684721Y-111590639D01*
X117693527Y-111577386D01*
X117747103Y-111496746D01*
X117778891Y-111448902D01*
X117839319Y-111289825D01*
X117863001Y-111121313D01*
X117863299Y-111100000D01*
X117844331Y-110930892D01*
X117788368Y-110770189D01*
X117783031Y-110761647D01*
X117760420Y-110725464D01*
X117698192Y-110625879D01*
X117578286Y-110505132D01*
X117562039Y-110494821D01*
X117523406Y-110470304D01*
X117434608Y-110413951D01*
X117274300Y-110356868D01*
X117105329Y-110336720D01*
X117098326Y-110337456D01*
X117098325Y-110337456D01*
X116943101Y-110353770D01*
X116943097Y-110353771D01*
X116936093Y-110354507D01*
X116929422Y-110356778D01*
X116781673Y-110407075D01*
X116781670Y-110407076D01*
X116775003Y-110409346D01*
X116755927Y-110421082D01*
X116687428Y-110439740D01*
X116619714Y-110418402D01*
X116600810Y-110402859D01*
X116364933Y-110166982D01*
X116354066Y-110154591D01*
X116340435Y-110136827D01*
X116335409Y-110130277D01*
X116212475Y-110035946D01*
X116153176Y-110011384D01*
X116120282Y-109997759D01*
X116065002Y-109953212D01*
X116042833Y-109882429D01*
X116043578Y-109876763D01*
X116040932Y-109856685D01*
X116040461Y-109852589D01*
X116026274Y-109708758D01*
X116026273Y-109708755D01*
X116025666Y-109702597D01*
X115974842Y-109535128D01*
X115892326Y-109380791D01*
X115781288Y-109245515D01*
X115645995Y-109134498D01*
X115520445Y-109067398D01*
X115497105Y-109054924D01*
X115497104Y-109054924D01*
X115491645Y-109052006D01*
X115485720Y-109050209D01*
X115485718Y-109050208D01*
X115330091Y-109003003D01*
X115330088Y-109003002D01*
X115324169Y-109001207D01*
X115318014Y-109000601D01*
X115318010Y-109000600D01*
X115244466Y-108993358D01*
X115175512Y-108986567D01*
X115171480Y-108986104D01*
X115150000Y-108983276D01*
X115141811Y-108984354D01*
X115141809Y-108984354D01*
X115127170Y-108986281D01*
X115123076Y-108986752D01*
X114982000Y-109000646D01*
X114981997Y-109000647D01*
X114975840Y-109001253D01*
X114808372Y-109052048D01*
X114802916Y-109054964D01*
X114802911Y-109054966D01*
X114659557Y-109131582D01*
X114654030Y-109134536D01*
X114649247Y-109138461D01*
X114629964Y-109154284D01*
X114564615Y-109182034D01*
X114494638Y-109170048D01*
X114470109Y-109154285D01*
X114450777Y-109138422D01*
X114450778Y-109138422D01*
X114445995Y-109134498D01*
X114320445Y-109067398D01*
X114297105Y-109054924D01*
X114297104Y-109054924D01*
X114291645Y-109052006D01*
X114285720Y-109050209D01*
X114285718Y-109050208D01*
X114130091Y-109003003D01*
X114130088Y-109003002D01*
X114124169Y-109001207D01*
X114118014Y-109000601D01*
X114118010Y-109000600D01*
X114044466Y-108993358D01*
X113975512Y-108986567D01*
X113971480Y-108986104D01*
X113950000Y-108983276D01*
X113941811Y-108984354D01*
X113941809Y-108984354D01*
X113927170Y-108986281D01*
X113923076Y-108986752D01*
X113782000Y-109000646D01*
X113781997Y-109000647D01*
X113775840Y-109001253D01*
X113608372Y-109052048D01*
X113602916Y-109054964D01*
X113602911Y-109054966D01*
X113459557Y-109131582D01*
X113454030Y-109134536D01*
X113449247Y-109138461D01*
X113429964Y-109154284D01*
X113364615Y-109182034D01*
X113294638Y-109170048D01*
X113270109Y-109154285D01*
X113250777Y-109138422D01*
X113250778Y-109138422D01*
X113245995Y-109134498D01*
X113120445Y-109067398D01*
X113097105Y-109054924D01*
X113097104Y-109054924D01*
X113091645Y-109052006D01*
X113085720Y-109050209D01*
X113085718Y-109050208D01*
X112930091Y-109003003D01*
X112930088Y-109003002D01*
X112924169Y-109001207D01*
X112918014Y-109000601D01*
X112918010Y-109000600D01*
X112844466Y-108993358D01*
X112775512Y-108986567D01*
X112771480Y-108986104D01*
X112750000Y-108983276D01*
X112741811Y-108984354D01*
X112741809Y-108984354D01*
X112727170Y-108986281D01*
X112723076Y-108986752D01*
X112582000Y-109000646D01*
X112581997Y-109000647D01*
X112575840Y-109001253D01*
X112408372Y-109052048D01*
X112402916Y-109054964D01*
X112402911Y-109054966D01*
X112259557Y-109131582D01*
X112254030Y-109134536D01*
X112249248Y-109138460D01*
X112249242Y-109138464D01*
X112213020Y-109168186D01*
X112147671Y-109195935D01*
X112077693Y-109183948D01*
X112025305Y-109136031D01*
X112007139Y-109067398D01*
X112007574Y-109059799D01*
X112012326Y-109005486D01*
X112012326Y-108994525D01*
X111994099Y-108786196D01*
X111992196Y-108775401D01*
X111938072Y-108573405D01*
X111934326Y-108563113D01*
X111845946Y-108373583D01*
X111840466Y-108364093D01*
X111811589Y-108322851D01*
X111801114Y-108314477D01*
X111787667Y-108321545D01*
X110839095Y-109270116D01*
X110776783Y-109304141D01*
X110705967Y-109299076D01*
X110660905Y-109270116D01*
X109711611Y-108320822D01*
X109699838Y-108314394D01*
X109687824Y-108323689D01*
X109659534Y-108364093D01*
X109654054Y-108373583D01*
X109565674Y-108563113D01*
X109561928Y-108573405D01*
X109507804Y-108775401D01*
X109505901Y-108786196D01*
X109487674Y-108994525D01*
X109487674Y-109005475D01*
X109505901Y-109213804D01*
X109507804Y-109224599D01*
X109561928Y-109426595D01*
X109565674Y-109436887D01*
X109654056Y-109626421D01*
X109659530Y-109635901D01*
X109748686Y-109763229D01*
X109771374Y-109830503D01*
X109754089Y-109899364D01*
X109702319Y-109947948D01*
X109645473Y-109961500D01*
X109595955Y-109961500D01*
X109527834Y-109941498D01*
X109506860Y-109924595D01*
X109045405Y-109463140D01*
X109011379Y-109400828D01*
X109008500Y-109374045D01*
X109008500Y-108449600D01*
X108997526Y-108343835D01*
X108990090Y-108321545D01*
X108943868Y-108183003D01*
X108941550Y-108176055D01*
X108848478Y-108025652D01*
X108771579Y-107948887D01*
X110064477Y-107948887D01*
X110071545Y-107962334D01*
X110737189Y-108627979D01*
X110751132Y-108635592D01*
X110752966Y-108635461D01*
X110759580Y-108631210D01*
X111429180Y-107961609D01*
X111435607Y-107949839D01*
X111426313Y-107937825D01*
X111385912Y-107909536D01*
X111376416Y-107904053D01*
X111186887Y-107815674D01*
X111176595Y-107811928D01*
X110974599Y-107757804D01*
X110963804Y-107755901D01*
X110755475Y-107737674D01*
X110744525Y-107737674D01*
X110536196Y-107755901D01*
X110525401Y-107757804D01*
X110323405Y-107811928D01*
X110313113Y-107815674D01*
X110123583Y-107904054D01*
X110114093Y-107909534D01*
X110072851Y-107938411D01*
X110064477Y-107948887D01*
X108771579Y-107948887D01*
X108723303Y-107900695D01*
X108585374Y-107815674D01*
X108578968Y-107811725D01*
X108578966Y-107811724D01*
X108572738Y-107807885D01*
X108421748Y-107757804D01*
X108411389Y-107754368D01*
X108411387Y-107754368D01*
X108404861Y-107752203D01*
X108398025Y-107751503D01*
X108398022Y-107751502D01*
X108354969Y-107747091D01*
X108300400Y-107741500D01*
X107199600Y-107741500D01*
X107196354Y-107741837D01*
X107196350Y-107741837D01*
X107100693Y-107751762D01*
X107100689Y-107751763D01*
X107093835Y-107752474D01*
X107087299Y-107754655D01*
X107087297Y-107754655D01*
X106955195Y-107798728D01*
X106926055Y-107808450D01*
X106775652Y-107901522D01*
X106650695Y-108026697D01*
X106557885Y-108177262D01*
X106555581Y-108184209D01*
X106509318Y-108323689D01*
X106502203Y-108345139D01*
X106491500Y-108449600D01*
X106491500Y-109550400D01*
X106491837Y-109553646D01*
X106491837Y-109553650D01*
X106499388Y-109626421D01*
X106502474Y-109656165D01*
X106504655Y-109662701D01*
X106504655Y-109662703D01*
X106517965Y-109702597D01*
X106558450Y-109823945D01*
X106651522Y-109974348D01*
X106776697Y-110099305D01*
X106782927Y-110103145D01*
X106782928Y-110103146D01*
X106837569Y-110136827D01*
X106927262Y-110192115D01*
X107007005Y-110218564D01*
X107088611Y-110245632D01*
X107088613Y-110245632D01*
X107095139Y-110247797D01*
X107101975Y-110248497D01*
X107101978Y-110248498D01*
X107145031Y-110252909D01*
X107199600Y-110258500D01*
X108124045Y-110258500D01*
X108192166Y-110278502D01*
X108213140Y-110295405D01*
X108328640Y-110410905D01*
X108362666Y-110473217D01*
X108357601Y-110544032D01*
X108328640Y-110589095D01*
X108172614Y-110745121D01*
X108110302Y-110779147D01*
X108050907Y-110777732D01*
X107974692Y-110757310D01*
X107974684Y-110757309D01*
X107969371Y-110755885D01*
X107750000Y-110736693D01*
X107530629Y-110755885D01*
X107317924Y-110812880D01*
X107224562Y-110856415D01*
X107123334Y-110903618D01*
X107123329Y-110903621D01*
X107118347Y-110905944D01*
X107113840Y-110909100D01*
X107113838Y-110909101D01*
X106942473Y-111029092D01*
X106942470Y-111029094D01*
X106937962Y-111032251D01*
X106782251Y-111187962D01*
X106779094Y-111192470D01*
X106779092Y-111192473D01*
X106706312Y-111296414D01*
X106655944Y-111368347D01*
X106653621Y-111373329D01*
X106653618Y-111373334D01*
X106626949Y-111430527D01*
X106562880Y-111567924D01*
X106561456Y-111573237D01*
X106561456Y-111573238D01*
X106527803Y-111698832D01*
X106490851Y-111759455D01*
X106426991Y-111790476D01*
X106356496Y-111782048D01*
X106301760Y-111736861D01*
X106141102Y-111499570D01*
X106139190Y-111496746D01*
X106103595Y-111454773D01*
X105942983Y-111265387D01*
X105907403Y-111223432D01*
X105647454Y-110976750D01*
X105388063Y-110779147D01*
X105365091Y-110761647D01*
X105365089Y-110761646D01*
X105362384Y-110759585D01*
X105359472Y-110757828D01*
X105359467Y-110757825D01*
X105058443Y-110576236D01*
X105058437Y-110576233D01*
X105055528Y-110574478D01*
X104730475Y-110423593D01*
X104530880Y-110356034D01*
X104394255Y-110309789D01*
X104394250Y-110309788D01*
X104391028Y-110308697D01*
X104164606Y-110258500D01*
X104044493Y-110231871D01*
X104044487Y-110231870D01*
X104041158Y-110231132D01*
X104037769Y-110230758D01*
X104037764Y-110230757D01*
X103688338Y-110192180D01*
X103688333Y-110192180D01*
X103684957Y-110191807D01*
X103681558Y-110191801D01*
X103681557Y-110191801D01*
X103512080Y-110191505D01*
X103326592Y-110191182D01*
X103213413Y-110203277D01*
X102973639Y-110228901D01*
X102973631Y-110228902D01*
X102970256Y-110229263D01*
X102620117Y-110305606D01*
X102280271Y-110419317D01*
X102277178Y-110420739D01*
X102277177Y-110420740D01*
X102270974Y-110423593D01*
X101954694Y-110569066D01*
X101951760Y-110570822D01*
X101951758Y-110570823D01*
X101660527Y-110745121D01*
X101647193Y-110753101D01*
X101644467Y-110755163D01*
X101644465Y-110755164D01*
X101412112Y-110930892D01*
X101361367Y-110969270D01*
X101100559Y-111215043D01*
X101098347Y-111217633D01*
X101098345Y-111217635D01*
X101039874Y-111286096D01*
X100867819Y-111487546D01*
X100865900Y-111490358D01*
X100865897Y-111490363D01*
X100827454Y-111546719D01*
X100745017Y-111667568D01*
X100738588Y-111676992D01*
X100683677Y-111721995D01*
X100613152Y-111730166D01*
X100549405Y-111698912D01*
X100512675Y-111638155D01*
X100508500Y-111605988D01*
X100508500Y-104609733D01*
X107237822Y-104609733D01*
X107237975Y-104614121D01*
X107237975Y-104614127D01*
X107247235Y-104879288D01*
X107247625Y-104890458D01*
X107248387Y-104894781D01*
X107248388Y-104894788D01*
X107272164Y-105029624D01*
X107296402Y-105167087D01*
X107383203Y-105434235D01*
X107385131Y-105438188D01*
X107385133Y-105438193D01*
X107427091Y-105524218D01*
X107506340Y-105686702D01*
X107508795Y-105690341D01*
X107508798Y-105690347D01*
X107559520Y-105765545D01*
X107663415Y-105919576D01*
X107851371Y-106128322D01*
X108066550Y-106308879D01*
X108304764Y-106457731D01*
X108561375Y-106571982D01*
X108831390Y-106649407D01*
X108835740Y-106650018D01*
X108835743Y-106650019D01*
X108938690Y-106664487D01*
X109109552Y-106688500D01*
X109320146Y-106688500D01*
X109322332Y-106688347D01*
X109322336Y-106688347D01*
X109525827Y-106674118D01*
X109525832Y-106674117D01*
X109530212Y-106673811D01*
X109804970Y-106615409D01*
X109809099Y-106613906D01*
X109809103Y-106613905D01*
X110064781Y-106520846D01*
X110064785Y-106520844D01*
X110068926Y-106519337D01*
X110316942Y-106387464D01*
X110421896Y-106311211D01*
X110540629Y-106224947D01*
X110540632Y-106224944D01*
X110544192Y-106222358D01*
X110746252Y-106027231D01*
X110919188Y-105805882D01*
X110921384Y-105802078D01*
X110921389Y-105802071D01*
X111057435Y-105566431D01*
X111059636Y-105562619D01*
X111164862Y-105302176D01*
X111198544Y-105167087D01*
X111231753Y-105033893D01*
X111231754Y-105033888D01*
X111232817Y-105029624D01*
X111262178Y-104750267D01*
X111255040Y-104545859D01*
X111252529Y-104473939D01*
X111252528Y-104473933D01*
X111252375Y-104469542D01*
X111228608Y-104334749D01*
X111204360Y-104197236D01*
X111203598Y-104192913D01*
X111116797Y-103925765D01*
X110993660Y-103673298D01*
X110991205Y-103669659D01*
X110991202Y-103669653D01*
X110910935Y-103550653D01*
X110836585Y-103440424D01*
X110648629Y-103231678D01*
X110433450Y-103051121D01*
X110195236Y-102902269D01*
X109938625Y-102788018D01*
X109668610Y-102710593D01*
X109664260Y-102709982D01*
X109664257Y-102709981D01*
X109537637Y-102692186D01*
X109390448Y-102671500D01*
X109179854Y-102671500D01*
X109177668Y-102671653D01*
X109177664Y-102671653D01*
X108974173Y-102685882D01*
X108974168Y-102685883D01*
X108969788Y-102686189D01*
X108695030Y-102744591D01*
X108690901Y-102746094D01*
X108690897Y-102746095D01*
X108435219Y-102839154D01*
X108435215Y-102839156D01*
X108431074Y-102840663D01*
X108183058Y-102972536D01*
X108179499Y-102975122D01*
X108179497Y-102975123D01*
X107965414Y-103130663D01*
X107955808Y-103137642D01*
X107753748Y-103332769D01*
X107580812Y-103554118D01*
X107578616Y-103557922D01*
X107578611Y-103557929D01*
X107464794Y-103755067D01*
X107440364Y-103797381D01*
X107335138Y-104057824D01*
X107334073Y-104062097D01*
X107334072Y-104062099D01*
X107300379Y-104197236D01*
X107267183Y-104330376D01*
X107237822Y-104609733D01*
X100508500Y-104609733D01*
X100508500Y-103053250D01*
X100510246Y-103032345D01*
X100512770Y-103017344D01*
X100512770Y-103017341D01*
X100513576Y-103012552D01*
X100513729Y-103000000D01*
X100513040Y-102995186D01*
X100513039Y-102995177D01*
X100511869Y-102987006D01*
X100510827Y-102961540D01*
X100526206Y-102707290D01*
X100528040Y-102692186D01*
X100579523Y-102411246D01*
X100583164Y-102396473D01*
X100668141Y-102123773D01*
X100673534Y-102109555D01*
X100790758Y-101849092D01*
X100797828Y-101835621D01*
X100945595Y-101591187D01*
X100954238Y-101578666D01*
X101130385Y-101353829D01*
X101140475Y-101342440D01*
X101342440Y-101140475D01*
X101353829Y-101130385D01*
X101578666Y-100954238D01*
X101591187Y-100945595D01*
X101835621Y-100797828D01*
X101849094Y-100790757D01*
X101891777Y-100771547D01*
X102109555Y-100673534D01*
X102123769Y-100668142D01*
X102396474Y-100583164D01*
X102411240Y-100579525D01*
X102620214Y-100541229D01*
X102692186Y-100528040D01*
X102707290Y-100526206D01*
X102957904Y-100511047D01*
X102984716Y-100512308D01*
X102984852Y-100512310D01*
X102993724Y-100513691D01*
X103002626Y-100512527D01*
X103002628Y-100512527D01*
X103017677Y-100510559D01*
X103025286Y-100509564D01*
X103041621Y-100508500D01*
X116600006Y-100508500D01*
X116668127Y-100528502D01*
G37*
G04 #@! TD.AperFunction*
M02*
