G04 #@! TF.GenerationSoftware,KiCad,Pcbnew,(6.0.11-0)*
G04 #@! TF.CreationDate,2023-06-01T20:00:55-06:00*
G04 #@! TF.ProjectId,LIDPCB,4c494450-4342-42e6-9b69-6361645f7063,rev?*
G04 #@! TF.SameCoordinates,Original*
G04 #@! TF.FileFunction,Copper,L1,Top*
G04 #@! TF.FilePolarity,Positive*
%FSLAX46Y46*%
G04 Gerber Fmt 4.6, Leading zero omitted, Abs format (unit mm)*
G04 Created by KiCad (PCBNEW (6.0.11-0)) date 2023-06-01 20:00:55*
%MOMM*%
%LPD*%
G01*
G04 APERTURE LIST*
G04 Aperture macros list*
%AMRoundRect*
0 Rectangle with rounded corners*
0 $1 Rounding radius*
0 $2 $3 $4 $5 $6 $7 $8 $9 X,Y pos of 4 corners*
0 Add a 4 corners polygon primitive as box body*
4,1,4,$2,$3,$4,$5,$6,$7,$8,$9,$2,$3,0*
0 Add four circle primitives for the rounded corners*
1,1,$1+$1,$2,$3*
1,1,$1+$1,$4,$5*
1,1,$1+$1,$6,$7*
1,1,$1+$1,$8,$9*
0 Add four rect primitives between the rounded corners*
20,1,$1+$1,$2,$3,$4,$5,0*
20,1,$1+$1,$4,$5,$6,$7,0*
20,1,$1+$1,$6,$7,$8,$9,0*
20,1,$1+$1,$8,$9,$2,$3,0*%
G04 Aperture macros list end*
G04 #@! TA.AperFunction,ComponentPad*
%ADD10C,5.600000*%
G04 #@! TD*
G04 #@! TA.AperFunction,SMDPad,CuDef*
%ADD11RoundRect,0.225000X0.250000X-0.225000X0.250000X0.225000X-0.250000X0.225000X-0.250000X-0.225000X0*%
G04 #@! TD*
G04 #@! TA.AperFunction,SMDPad,CuDef*
%ADD12RoundRect,0.225000X-0.250000X0.225000X-0.250000X-0.225000X0.250000X-0.225000X0.250000X0.225000X0*%
G04 #@! TD*
G04 #@! TA.AperFunction,SMDPad,CuDef*
%ADD13R,0.600000X0.350000*%
G04 #@! TD*
G04 #@! TA.AperFunction,SMDPad,CuDef*
%ADD14R,0.350000X0.600000*%
G04 #@! TD*
G04 #@! TA.AperFunction,SMDPad,CuDef*
%ADD15R,0.660400X0.812800*%
G04 #@! TD*
G04 #@! TA.AperFunction,SMDPad,CuDef*
%ADD16RoundRect,0.225000X-0.225000X-0.250000X0.225000X-0.250000X0.225000X0.250000X-0.225000X0.250000X0*%
G04 #@! TD*
G04 #@! TA.AperFunction,SMDPad,CuDef*
%ADD17RoundRect,0.218750X-0.256250X0.218750X-0.256250X-0.218750X0.256250X-0.218750X0.256250X0.218750X0*%
G04 #@! TD*
G04 #@! TA.AperFunction,SMDPad,CuDef*
%ADD18RoundRect,0.200000X-0.275000X0.200000X-0.275000X-0.200000X0.275000X-0.200000X0.275000X0.200000X0*%
G04 #@! TD*
G04 #@! TA.AperFunction,ComponentPad*
%ADD19RoundRect,0.250001X-0.499999X-0.499999X0.499999X-0.499999X0.499999X0.499999X-0.499999X0.499999X0*%
G04 #@! TD*
G04 #@! TA.AperFunction,ComponentPad*
%ADD20C,1.500000*%
G04 #@! TD*
G04 #@! TA.AperFunction,ViaPad*
%ADD21C,0.500000*%
G04 #@! TD*
G04 #@! TA.AperFunction,Conductor*
%ADD22C,0.650000*%
G04 #@! TD*
G04 #@! TA.AperFunction,Conductor*
%ADD23C,0.250000*%
G04 #@! TD*
G04 #@! TA.AperFunction,Conductor*
%ADD24C,0.160000*%
G04 #@! TD*
G04 APERTURE END LIST*
D10*
X103500000Y-113500000D03*
D11*
X115500000Y-115025000D03*
X115500000Y-113475000D03*
D12*
X113500000Y-113450000D03*
X113500000Y-115000000D03*
D13*
X117340000Y-113500000D03*
X117340000Y-114000000D03*
X117340000Y-114500000D03*
X117340000Y-115000000D03*
D14*
X118000000Y-115160000D03*
X118500000Y-115160000D03*
X119000000Y-115160000D03*
D13*
X119660000Y-115000000D03*
X119660000Y-114500000D03*
X119660000Y-114000000D03*
X119660000Y-113500000D03*
D14*
X119000000Y-113340000D03*
X118500000Y-113340000D03*
X118000000Y-113340000D03*
D15*
X119199998Y-109806200D03*
X118000000Y-109806200D03*
X118000000Y-111000000D03*
X119199998Y-111000000D03*
D16*
X117725000Y-108000000D03*
X119275000Y-108000000D03*
D17*
X102750000Y-102712500D03*
X102750000Y-104287500D03*
D10*
X118500000Y-103500000D03*
D18*
X102750000Y-107175000D03*
X102750000Y-108825000D03*
D19*
X107750000Y-109000000D03*
D20*
X110750000Y-109000000D03*
X107750000Y-112000000D03*
X110750000Y-112000000D03*
D21*
X116300000Y-116100000D03*
X116200000Y-109400000D03*
X113600000Y-105200000D03*
X118500000Y-114300000D03*
X120700000Y-106900000D03*
X109100000Y-115000000D03*
X101300000Y-105700000D03*
X120700000Y-109600000D03*
X114700000Y-112000000D03*
X109500000Y-101400000D03*
X117100000Y-111100000D03*
X120000000Y-111100000D03*
D22*
X119275000Y-108000000D02*
X119275000Y-109731198D01*
X102750000Y-108825000D02*
X103825000Y-108825000D01*
D23*
X120075000Y-112790000D02*
X119425000Y-112790000D01*
X119660000Y-115000000D02*
X119660000Y-115640000D01*
X116700000Y-113700000D02*
X116700000Y-115300000D01*
X119425000Y-112790000D02*
X119000000Y-113215000D01*
X117185000Y-115785000D02*
X118000000Y-115785000D01*
D22*
X110750000Y-112000000D02*
X112050000Y-112000000D01*
D23*
X120300000Y-113015000D02*
X120075000Y-112790000D01*
D22*
X110750000Y-112000000D02*
X115750000Y-107000000D01*
X112050000Y-112000000D02*
X113500000Y-113450000D01*
D23*
X118000000Y-115785000D02*
X119515000Y-115785000D01*
X119815000Y-115785000D02*
X120300000Y-115300000D01*
X116500000Y-113500000D02*
X116700000Y-113700000D01*
D22*
X119275000Y-109731198D02*
X119199998Y-109806200D01*
X109050000Y-110300000D02*
X110750000Y-112000000D01*
D23*
X119660000Y-115640000D02*
X119515000Y-115785000D01*
D22*
X118275000Y-107000000D02*
X119275000Y-108000000D01*
D23*
X120300000Y-115300000D02*
X120300000Y-113015000D01*
D22*
X115750000Y-107000000D02*
X118275000Y-107000000D01*
D23*
X116700000Y-115300000D02*
X117185000Y-115785000D01*
X118000000Y-115785000D02*
X118000000Y-115160000D01*
D22*
X115500000Y-113475000D02*
X113525000Y-113475000D01*
D23*
X116500000Y-113500000D02*
X115525000Y-113500000D01*
D22*
X105300000Y-110300000D02*
X109050000Y-110300000D01*
X103825000Y-108825000D02*
X105300000Y-110300000D01*
D23*
X119515000Y-115785000D02*
X119815000Y-115785000D01*
X117340000Y-113500000D02*
X116500000Y-113500000D01*
X118740000Y-114540000D02*
X118500000Y-114300000D01*
X118500000Y-114300000D02*
X117400000Y-114300000D01*
X118740000Y-115160000D02*
X119000000Y-115160000D01*
X117340000Y-114500000D02*
X117340000Y-114240000D01*
X118500000Y-115160000D02*
X118740000Y-115160000D01*
X118740000Y-115160000D02*
X118740000Y-114540000D01*
X117340000Y-114240000D02*
X117340000Y-114000000D01*
X117400000Y-114300000D02*
X117340000Y-114240000D01*
X102750000Y-107175000D02*
X102750000Y-104287500D01*
D24*
X118000000Y-113340000D02*
X118000000Y-112800000D01*
X117100000Y-111100000D02*
X117900000Y-111100000D01*
X117462476Y-111900000D02*
X117700000Y-111900000D01*
X118000000Y-111600000D02*
X118000000Y-111550000D01*
X117700000Y-112500000D02*
X117462476Y-112500000D01*
X118000000Y-111550000D02*
X118000000Y-111000000D01*
X117462476Y-111899976D02*
G75*
G03*
X117162476Y-112200000I24J-300024D01*
G01*
X117162500Y-112200000D02*
G75*
G03*
X117462476Y-112500000I300000J0D01*
G01*
X118000000Y-111600000D02*
G75*
G02*
X117700000Y-111900000I-300000J0D01*
G01*
X117700000Y-112500000D02*
G75*
G02*
X118000000Y-112800000I0J-300000D01*
G01*
X118500000Y-112900000D02*
X118630200Y-112769800D01*
X118630200Y-112769800D02*
X118630200Y-112430200D01*
X118730200Y-111000000D02*
X119199998Y-111000000D01*
X118630200Y-111100000D02*
X118730200Y-111000000D01*
X118630200Y-111230200D02*
X118630200Y-111100000D01*
X119185150Y-111875250D02*
X119185150Y-111830200D01*
X118630200Y-111275250D02*
X118630200Y-111230200D01*
X120000000Y-111100000D02*
X119299998Y-111100000D01*
X118500000Y-113340000D02*
X118500000Y-112900000D01*
X119185225Y-111875250D02*
G75*
G02*
X118907675Y-112152725I-277525J50D01*
G01*
X118907675Y-112152700D02*
G75*
G03*
X118630200Y-112430200I25J-277500D01*
G01*
X118907675Y-111552750D02*
G75*
G02*
X119185150Y-111830200I25J-277450D01*
G01*
X118630175Y-111275250D02*
G75*
G03*
X118907675Y-111552725I277525J50D01*
G01*
G04 #@! TA.AperFunction,Conductor*
G36*
X109161632Y-111600179D02*
G01*
X109195672Y-111624419D01*
X109451949Y-111880696D01*
X109485975Y-111943008D01*
X109488375Y-111980772D01*
X109486693Y-112000000D01*
X109505885Y-112219371D01*
X109562880Y-112432076D01*
X109565205Y-112437061D01*
X109653618Y-112626666D01*
X109653621Y-112626671D01*
X109655944Y-112631653D01*
X109659100Y-112636160D01*
X109659101Y-112636162D01*
X109778587Y-112806805D01*
X109782251Y-112812038D01*
X109937962Y-112967749D01*
X109942471Y-112970906D01*
X109942473Y-112970908D01*
X109994038Y-113007014D01*
X110118346Y-113094056D01*
X110317924Y-113187120D01*
X110530629Y-113244115D01*
X110750000Y-113263307D01*
X110969371Y-113244115D01*
X111182076Y-113187120D01*
X111381654Y-113094056D01*
X111505962Y-113007014D01*
X111557527Y-112970908D01*
X111557529Y-112970906D01*
X111562038Y-112967749D01*
X111611425Y-112918362D01*
X111673737Y-112884336D01*
X111744552Y-112889401D01*
X111789615Y-112918362D01*
X112479595Y-113608342D01*
X112513621Y-113670654D01*
X112516500Y-113697437D01*
X112516500Y-113723732D01*
X112527113Y-113826019D01*
X112529295Y-113832559D01*
X112546516Y-113884175D01*
X112581244Y-113988268D01*
X112585096Y-113994492D01*
X112585096Y-113994493D01*
X112603865Y-114024823D01*
X112671248Y-114133713D01*
X112676430Y-114138886D01*
X112680977Y-114144623D01*
X112679170Y-114146055D01*
X112707902Y-114198575D01*
X112702892Y-114269395D01*
X112679501Y-114305853D01*
X112680552Y-114306683D01*
X112667002Y-114323840D01*
X112584996Y-114456880D01*
X112578849Y-114470061D01*
X112529509Y-114618814D01*
X112526642Y-114632190D01*
X112517328Y-114723097D01*
X112517071Y-114728126D01*
X112521475Y-114743124D01*
X112522865Y-114744329D01*
X112530548Y-114746000D01*
X114454947Y-114746000D01*
X114523068Y-114766002D01*
X114526957Y-114768914D01*
X114536548Y-114771000D01*
X115628000Y-114771000D01*
X115696121Y-114791002D01*
X115742614Y-114844658D01*
X115754000Y-114897000D01*
X115754000Y-115964885D01*
X115758475Y-115980124D01*
X115759865Y-115981329D01*
X115767548Y-115983000D01*
X115795438Y-115983000D01*
X115801953Y-115982663D01*
X115894057Y-115973106D01*
X115907456Y-115970212D01*
X116056107Y-115920619D01*
X116069279Y-115914448D01*
X116200188Y-115833440D01*
X116268640Y-115814603D01*
X116336410Y-115835765D01*
X116355586Y-115851490D01*
X116681343Y-116177247D01*
X116688887Y-116185537D01*
X116693000Y-116192018D01*
X116698777Y-116197443D01*
X116742667Y-116238658D01*
X116745509Y-116241413D01*
X116765231Y-116261135D01*
X116768355Y-116263558D01*
X116768359Y-116263562D01*
X116768424Y-116263612D01*
X116777452Y-116271324D01*
X116779935Y-116273656D01*
X116815896Y-116334871D01*
X116813054Y-116405810D01*
X116772310Y-116463952D01*
X116706600Y-116490835D01*
X116693676Y-116491500D01*
X105401120Y-116491500D01*
X105332999Y-116471498D01*
X105286506Y-116417842D01*
X105276402Y-116347568D01*
X105305896Y-116282988D01*
X105336789Y-116257161D01*
X105343207Y-116253350D01*
X105629786Y-116038180D01*
X105891451Y-115793319D01*
X106125140Y-115521630D01*
X106279445Y-115297115D01*
X106297780Y-115270438D01*
X112517000Y-115270438D01*
X112517337Y-115276953D01*
X112526894Y-115369057D01*
X112529788Y-115382456D01*
X112579381Y-115531107D01*
X112585555Y-115544286D01*
X112667788Y-115677173D01*
X112676824Y-115688574D01*
X112787429Y-115798986D01*
X112798840Y-115807998D01*
X112931880Y-115890004D01*
X112945061Y-115896151D01*
X113093814Y-115945491D01*
X113107190Y-115948358D01*
X113198097Y-115957672D01*
X113204513Y-115958000D01*
X113227885Y-115958000D01*
X113243124Y-115953525D01*
X113244329Y-115952135D01*
X113246000Y-115944452D01*
X113246000Y-115939885D01*
X113754000Y-115939885D01*
X113758475Y-115955124D01*
X113759865Y-115956329D01*
X113767548Y-115958000D01*
X113795438Y-115958000D01*
X113801953Y-115957663D01*
X113894057Y-115948106D01*
X113907456Y-115945212D01*
X114056107Y-115895619D01*
X114069286Y-115889445D01*
X114202173Y-115807212D01*
X114213574Y-115798176D01*
X114323986Y-115687571D01*
X114332998Y-115676160D01*
X114384983Y-115591825D01*
X114437756Y-115544332D01*
X114507827Y-115532908D01*
X114572951Y-115561182D01*
X114599387Y-115591638D01*
X114667788Y-115702173D01*
X114676824Y-115713574D01*
X114787429Y-115823986D01*
X114798840Y-115832998D01*
X114931880Y-115915004D01*
X114945061Y-115921151D01*
X115093814Y-115970491D01*
X115107190Y-115973358D01*
X115198097Y-115982672D01*
X115204513Y-115983000D01*
X115227885Y-115983000D01*
X115243124Y-115978525D01*
X115244329Y-115977135D01*
X115246000Y-115969452D01*
X115246000Y-115297115D01*
X115241525Y-115281876D01*
X115240135Y-115280671D01*
X115232452Y-115279000D01*
X114545053Y-115279000D01*
X114476932Y-115258998D01*
X114473043Y-115256086D01*
X114463452Y-115254000D01*
X113772115Y-115254000D01*
X113756876Y-115258475D01*
X113755671Y-115259865D01*
X113754000Y-115267548D01*
X113754000Y-115939885D01*
X113246000Y-115939885D01*
X113246000Y-115272115D01*
X113241525Y-115256876D01*
X113240135Y-115255671D01*
X113232452Y-115254000D01*
X112535115Y-115254000D01*
X112519876Y-115258475D01*
X112518671Y-115259865D01*
X112517000Y-115267548D01*
X112517000Y-115270438D01*
X106297780Y-115270438D01*
X106326190Y-115229101D01*
X106326195Y-115229094D01*
X106328120Y-115226292D01*
X106329732Y-115223298D01*
X106329737Y-115223290D01*
X106496395Y-114913772D01*
X106498017Y-114910760D01*
X106622771Y-114603527D01*
X106631562Y-114581877D01*
X106631564Y-114581872D01*
X106632842Y-114578724D01*
X106731020Y-114234070D01*
X106766787Y-114024823D01*
X106790829Y-113884175D01*
X106790829Y-113884173D01*
X106791401Y-113880828D01*
X106794354Y-113832559D01*
X106813168Y-113524928D01*
X106813278Y-113523131D01*
X106813359Y-113500000D01*
X106793979Y-113142159D01*
X106791393Y-113126367D01*
X106800124Y-113055909D01*
X106845561Y-113001356D01*
X106913278Y-112980029D01*
X106981777Y-112998698D01*
X106988008Y-113002792D01*
X106994038Y-113007014D01*
X107118346Y-113094056D01*
X107317924Y-113187120D01*
X107530629Y-113244115D01*
X107750000Y-113263307D01*
X107969371Y-113244115D01*
X108182076Y-113187120D01*
X108381654Y-113094056D01*
X108505962Y-113007014D01*
X108557527Y-112970908D01*
X108557529Y-112970906D01*
X108562038Y-112967749D01*
X108717749Y-112812038D01*
X108721414Y-112806805D01*
X108840899Y-112636162D01*
X108840900Y-112636160D01*
X108844056Y-112631653D01*
X108846379Y-112626671D01*
X108846382Y-112626666D01*
X108934795Y-112437061D01*
X108937120Y-112432076D01*
X108994115Y-112219371D01*
X109013307Y-112000000D01*
X108994115Y-111780629D01*
X108992693Y-111775323D01*
X108992692Y-111775316D01*
X108984870Y-111746125D01*
X108986560Y-111675149D01*
X109026354Y-111616353D01*
X109091619Y-111588405D01*
X109161632Y-111600179D01*
G37*
G04 #@! TD.AperFunction*
G04 #@! TA.AperFunction,Conductor*
G36*
X121450919Y-105301733D02*
G01*
X121487436Y-105362618D01*
X121491500Y-105394359D01*
X121491500Y-113950633D01*
X121490000Y-113970018D01*
X121487690Y-113984851D01*
X121487690Y-113984855D01*
X121486309Y-113993724D01*
X121488558Y-114010919D01*
X121489391Y-114034863D01*
X121473794Y-114292710D01*
X121471960Y-114307814D01*
X121465272Y-114344308D01*
X121422916Y-114575446D01*
X121420477Y-114588754D01*
X121416836Y-114603526D01*
X121366207Y-114766002D01*
X121331859Y-114876227D01*
X121326466Y-114890445D01*
X121209243Y-115150906D01*
X121202172Y-115164379D01*
X121167328Y-115222017D01*
X121114969Y-115269966D01*
X121044999Y-115281995D01*
X120979633Y-115254286D01*
X120939624Y-115195636D01*
X120933500Y-115156832D01*
X120933500Y-113093767D01*
X120934027Y-113082584D01*
X120935702Y-113075091D01*
X120933562Y-113007014D01*
X120933500Y-113003055D01*
X120933500Y-112975144D01*
X120932995Y-112971144D01*
X120932062Y-112959301D01*
X120930922Y-112923030D01*
X120930673Y-112915111D01*
X120925021Y-112895657D01*
X120921013Y-112876300D01*
X120919468Y-112864070D01*
X120919468Y-112864069D01*
X120918474Y-112856203D01*
X120915555Y-112848830D01*
X120902196Y-112815088D01*
X120898351Y-112803858D01*
X120888229Y-112769017D01*
X120888229Y-112769016D01*
X120886018Y-112761407D01*
X120881985Y-112754588D01*
X120881983Y-112754583D01*
X120875707Y-112743972D01*
X120867012Y-112726224D01*
X120859552Y-112707383D01*
X120836475Y-112675619D01*
X120833564Y-112671613D01*
X120827048Y-112661693D01*
X120808580Y-112630465D01*
X120808578Y-112630462D01*
X120804542Y-112623638D01*
X120790218Y-112609314D01*
X120777383Y-112594287D01*
X120765472Y-112577893D01*
X120731403Y-112549708D01*
X120722625Y-112541720D01*
X120578648Y-112397744D01*
X120571112Y-112389462D01*
X120567000Y-112382982D01*
X120551057Y-112368010D01*
X120517348Y-112336356D01*
X120514506Y-112333601D01*
X120494770Y-112313865D01*
X120491573Y-112311385D01*
X120482551Y-112303680D01*
X120456100Y-112278841D01*
X120450321Y-112273414D01*
X120443375Y-112269595D01*
X120443372Y-112269593D01*
X120432566Y-112263652D01*
X120416047Y-112252801D01*
X120415583Y-112252441D01*
X120400041Y-112240386D01*
X120392772Y-112237241D01*
X120392768Y-112237238D01*
X120359463Y-112222826D01*
X120348813Y-112217609D01*
X120310060Y-112196305D01*
X120290437Y-112191267D01*
X120271734Y-112184863D01*
X120260420Y-112179967D01*
X120260419Y-112179967D01*
X120253145Y-112176819D01*
X120245322Y-112175580D01*
X120245312Y-112175577D01*
X120209476Y-112169901D01*
X120197856Y-112167495D01*
X120162711Y-112158472D01*
X120162710Y-112158472D01*
X120155030Y-112156500D01*
X120134776Y-112156500D01*
X120115065Y-112154949D01*
X120102886Y-112153020D01*
X120095057Y-112151780D01*
X120087165Y-112152526D01*
X120051039Y-112155941D01*
X120039181Y-112156500D01*
X119889219Y-112156500D01*
X119821098Y-112136498D01*
X119774605Y-112082842D01*
X119763828Y-112018127D01*
X119768980Y-111965914D01*
X119795575Y-111900087D01*
X119853536Y-111859087D01*
X119911034Y-111853394D01*
X119948161Y-111858348D01*
X119977035Y-111862201D01*
X119977038Y-111862201D01*
X119984015Y-111863132D01*
X119991026Y-111862494D01*
X119991030Y-111862494D01*
X120146462Y-111848348D01*
X120153483Y-111847709D01*
X120160185Y-111845531D01*
X120160187Y-111845531D01*
X120308623Y-111797301D01*
X120308626Y-111797300D01*
X120315322Y-111795124D01*
X120461490Y-111707990D01*
X120466584Y-111703139D01*
X120466588Y-111703136D01*
X120549248Y-111624419D01*
X120584721Y-111590639D01*
X120678891Y-111448902D01*
X120739319Y-111289825D01*
X120763001Y-111121313D01*
X120763299Y-111100000D01*
X120744331Y-110930892D01*
X120688368Y-110770189D01*
X120682383Y-110760610D01*
X120645726Y-110701949D01*
X120598192Y-110625879D01*
X120478286Y-110505132D01*
X120462039Y-110494821D01*
X120423406Y-110470304D01*
X120334608Y-110413951D01*
X120306416Y-110403912D01*
X120180935Y-110359230D01*
X120180930Y-110359229D01*
X120174300Y-110356868D01*
X120167312Y-110356035D01*
X120167309Y-110356034D01*
X120149779Y-110353944D01*
X120084506Y-110326016D01*
X120044693Y-110267233D01*
X120038698Y-110228830D01*
X120038698Y-110096888D01*
X120051838Y-110040864D01*
X120058813Y-110026813D01*
X120061847Y-110020701D01*
X120063498Y-110014080D01*
X120064409Y-110011604D01*
X120064611Y-110011119D01*
X120064803Y-110010577D01*
X120064957Y-110010053D01*
X120065799Y-110007580D01*
X120068685Y-110001390D01*
X120085897Y-109924387D01*
X120086584Y-109921486D01*
X120104005Y-109851612D01*
X120105658Y-109844984D01*
X120105849Y-109838154D01*
X120106202Y-109835574D01*
X120106397Y-109834491D01*
X120107062Y-109829701D01*
X120108190Y-109824655D01*
X120108500Y-109819110D01*
X120108500Y-109744992D01*
X120108549Y-109741474D01*
X120109016Y-109724752D01*
X120110714Y-109663958D01*
X120109435Y-109657250D01*
X120108906Y-109650681D01*
X120108500Y-109640574D01*
X120108500Y-108696454D01*
X120127240Y-108630338D01*
X120165462Y-108568331D01*
X120165463Y-108568329D01*
X120169302Y-108562101D01*
X120223149Y-108399757D01*
X120233500Y-108298732D01*
X120233500Y-107701268D01*
X120222887Y-107598981D01*
X120168756Y-107436732D01*
X120078752Y-107291287D01*
X119957702Y-107170448D01*
X119812101Y-107080698D01*
X119649757Y-107026851D01*
X119642920Y-107026151D01*
X119642918Y-107026150D01*
X119601599Y-107021917D01*
X119548732Y-107016500D01*
X119522437Y-107016500D01*
X119454316Y-106996498D01*
X119433342Y-106979595D01*
X119349796Y-106896049D01*
X119315770Y-106833737D01*
X119320835Y-106762922D01*
X119363382Y-106706086D01*
X119399328Y-106687326D01*
X119616784Y-106615409D01*
X119708968Y-106584922D01*
X120035066Y-106436311D01*
X120199869Y-106338458D01*
X120340262Y-106255099D01*
X120340267Y-106255096D01*
X120343207Y-106253350D01*
X120355694Y-106243975D01*
X120450713Y-106172632D01*
X120629786Y-106038180D01*
X120891451Y-105793319D01*
X121125140Y-105521630D01*
X121261660Y-105322992D01*
X121316728Y-105278181D01*
X121387281Y-105270256D01*
X121450919Y-105301733D01*
G37*
G04 #@! TD.AperFunction*
G04 #@! TA.AperFunction,Conductor*
G36*
X117921121Y-107853502D02*
G01*
X117967614Y-107907158D01*
X117979000Y-107959500D01*
X117979000Y-108128000D01*
X117958998Y-108196121D01*
X117905342Y-108242614D01*
X117853000Y-108254000D01*
X116785115Y-108254000D01*
X116769876Y-108258475D01*
X116768671Y-108259865D01*
X116767000Y-108267548D01*
X116767000Y-108295438D01*
X116767337Y-108301953D01*
X116776894Y-108394057D01*
X116779788Y-108407456D01*
X116829381Y-108556107D01*
X116835555Y-108569286D01*
X116917788Y-108702173D01*
X116926824Y-108713574D01*
X117037429Y-108823986D01*
X117048840Y-108832998D01*
X117181881Y-108915005D01*
X117201575Y-108924189D01*
X117254859Y-108971107D01*
X117274319Y-109039385D01*
X117253776Y-109107344D01*
X117249149Y-109113948D01*
X117225014Y-109146151D01*
X117216476Y-109161746D01*
X117171322Y-109282194D01*
X117167695Y-109297449D01*
X117162169Y-109348314D01*
X117161800Y-109355128D01*
X117161800Y-109534085D01*
X117166275Y-109549324D01*
X117167665Y-109550529D01*
X117175348Y-109552200D01*
X118128000Y-109552200D01*
X118196121Y-109572202D01*
X118242614Y-109625858D01*
X118254000Y-109678200D01*
X118254000Y-109934200D01*
X118233998Y-110002321D01*
X118180342Y-110048814D01*
X118128000Y-110060200D01*
X117179916Y-110060200D01*
X117164677Y-110064675D01*
X117163472Y-110066065D01*
X117161801Y-110073748D01*
X117161801Y-110217333D01*
X117141799Y-110285454D01*
X117088143Y-110331947D01*
X117048972Y-110342643D01*
X117014166Y-110346301D01*
X116936093Y-110354507D01*
X116929422Y-110356778D01*
X116781673Y-110407075D01*
X116781670Y-110407076D01*
X116775003Y-110409346D01*
X116769005Y-110413036D01*
X116769003Y-110413037D01*
X116636065Y-110494821D01*
X116636063Y-110494823D01*
X116630066Y-110498512D01*
X116508486Y-110617573D01*
X116504675Y-110623487D01*
X116504673Y-110623489D01*
X116427333Y-110743496D01*
X116416304Y-110760610D01*
X116358103Y-110920516D01*
X116336775Y-111089343D01*
X116353381Y-111258699D01*
X116407094Y-111420167D01*
X116410741Y-111426189D01*
X116410742Y-111426191D01*
X116424497Y-111448902D01*
X116495246Y-111565723D01*
X116613455Y-111688132D01*
X116615377Y-111689389D01*
X116654064Y-111746668D01*
X116655685Y-111817646D01*
X116645135Y-111844308D01*
X116640553Y-111852881D01*
X116640550Y-111852889D01*
X116637632Y-111858348D01*
X116586831Y-112025828D01*
X116586225Y-112031981D01*
X116586224Y-112031986D01*
X116572192Y-112174459D01*
X116571721Y-112178553D01*
X116569976Y-112191810D01*
X116568898Y-112200000D01*
X116569976Y-112208189D01*
X116569976Y-112208190D01*
X116571816Y-112222168D01*
X116572287Y-112226262D01*
X116586854Y-112374168D01*
X116637654Y-112541643D01*
X116640570Y-112547099D01*
X116640571Y-112547101D01*
X116712195Y-112681106D01*
X116726666Y-112750613D01*
X116701261Y-112816908D01*
X116644047Y-112858945D01*
X116601072Y-112866500D01*
X116559776Y-112866500D01*
X116540065Y-112864949D01*
X116534516Y-112864070D01*
X116520057Y-112861780D01*
X116512165Y-112862526D01*
X116476039Y-112865941D01*
X116464181Y-112866500D01*
X116445499Y-112866500D01*
X116377378Y-112846498D01*
X116338356Y-112806805D01*
X116332605Y-112797512D01*
X116332601Y-112797507D01*
X116328752Y-112791287D01*
X116207702Y-112670448D01*
X116136675Y-112626666D01*
X116068331Y-112584538D01*
X116068329Y-112584537D01*
X116062101Y-112580698D01*
X115899757Y-112526851D01*
X115892920Y-112526151D01*
X115892918Y-112526150D01*
X115851599Y-112521917D01*
X115798732Y-112516500D01*
X115201268Y-112516500D01*
X115198022Y-112516837D01*
X115198018Y-112516837D01*
X115163917Y-112520375D01*
X115098981Y-112527113D01*
X115092440Y-112529295D01*
X115092441Y-112529295D01*
X114943676Y-112578927D01*
X114943674Y-112578928D01*
X114936732Y-112581244D01*
X114869827Y-112622646D01*
X114803527Y-112641500D01*
X114237011Y-112641500D01*
X114170895Y-112622760D01*
X114170709Y-112622645D01*
X114103544Y-112581244D01*
X114068331Y-112559538D01*
X114068329Y-112559537D01*
X114062101Y-112555698D01*
X113899757Y-112501851D01*
X113892920Y-112501151D01*
X113892918Y-112501150D01*
X113851599Y-112496917D01*
X113798732Y-112491500D01*
X113772437Y-112491500D01*
X113704316Y-112471498D01*
X113683342Y-112454595D01*
X112667910Y-111439163D01*
X112660423Y-111430988D01*
X112660361Y-111430914D01*
X112631945Y-111365852D01*
X112643214Y-111295756D01*
X112667848Y-111260899D01*
X116058342Y-107870405D01*
X116120654Y-107836379D01*
X116147437Y-107833500D01*
X117853000Y-107833500D01*
X117921121Y-107853502D01*
G37*
G04 #@! TD.AperFunction*
G04 #@! TA.AperFunction,Conductor*
G36*
X116668127Y-100528502D02*
G01*
X116714620Y-100582158D01*
X116724724Y-100652432D01*
X116695230Y-100717012D01*
X116664715Y-100742614D01*
X116647193Y-100753101D01*
X116644467Y-100755163D01*
X116644465Y-100755164D01*
X116381243Y-100954238D01*
X116361367Y-100969270D01*
X116100559Y-101215043D01*
X115867819Y-101487546D01*
X115865900Y-101490358D01*
X115865897Y-101490363D01*
X115797120Y-101591187D01*
X115665871Y-101783591D01*
X115497077Y-102099714D01*
X115363411Y-102432218D01*
X115362491Y-102435492D01*
X115362489Y-102435497D01*
X115275607Y-102744591D01*
X115266437Y-102777213D01*
X115265875Y-102780570D01*
X115265875Y-102780571D01*
X115216769Y-103074021D01*
X115207290Y-103130663D01*
X115186661Y-103488434D01*
X115186833Y-103491829D01*
X115186833Y-103491830D01*
X115193019Y-103613945D01*
X115204792Y-103846340D01*
X115205329Y-103849695D01*
X115205330Y-103849701D01*
X115232156Y-104017178D01*
X115261470Y-104200195D01*
X115356033Y-104545859D01*
X115487374Y-104879288D01*
X115488957Y-104882303D01*
X115638472Y-105167087D01*
X115653957Y-105196582D01*
X115655858Y-105199411D01*
X115655864Y-105199421D01*
X115727657Y-105306259D01*
X115853834Y-105494029D01*
X116084665Y-105768150D01*
X116246548Y-105922848D01*
X116274339Y-105949406D01*
X116309769Y-106010930D01*
X116306312Y-106081843D01*
X116265066Y-106139629D01*
X116199126Y-106165943D01*
X116187288Y-106166500D01*
X115790351Y-106166500D01*
X115779808Y-106166058D01*
X115729515Y-106161835D01*
X115722755Y-106162737D01*
X115722754Y-106162737D01*
X115702981Y-106165375D01*
X115651345Y-106172265D01*
X115648344Y-106172628D01*
X115586256Y-106179373D01*
X115576747Y-106180406D01*
X115569963Y-106181143D01*
X115563497Y-106183319D01*
X115560937Y-106183882D01*
X115560413Y-106183975D01*
X115559828Y-106184111D01*
X115559328Y-106184256D01*
X115556772Y-106184884D01*
X115550011Y-106185786D01*
X115475904Y-106212759D01*
X115473083Y-106213747D01*
X115398325Y-106238906D01*
X115392477Y-106242420D01*
X115390096Y-106243520D01*
X115389601Y-106243724D01*
X115389076Y-106243975D01*
X115388604Y-106244232D01*
X115386252Y-106245389D01*
X115379835Y-106247725D01*
X115313246Y-106289984D01*
X115310658Y-106291581D01*
X115243095Y-106332177D01*
X115238141Y-106336862D01*
X115236038Y-106338458D01*
X115235162Y-106339068D01*
X115231307Y-106341983D01*
X115226930Y-106344761D01*
X115222790Y-106348463D01*
X115170386Y-106400867D01*
X115167864Y-106403320D01*
X115111515Y-106456607D01*
X115107680Y-106462251D01*
X115103400Y-106467279D01*
X115096541Y-106474712D01*
X112194964Y-109376289D01*
X112132652Y-109410315D01*
X112061837Y-109405250D01*
X112005001Y-109362703D01*
X111980190Y-109296183D01*
X111984162Y-109254584D01*
X111992195Y-109224602D01*
X111994099Y-109213804D01*
X112012326Y-109005475D01*
X112012326Y-108994525D01*
X111994099Y-108786196D01*
X111992196Y-108775401D01*
X111938072Y-108573405D01*
X111934326Y-108563113D01*
X111845946Y-108373583D01*
X111840466Y-108364093D01*
X111811589Y-108322851D01*
X111801113Y-108314477D01*
X111787666Y-108321545D01*
X111109210Y-109000000D01*
X110839095Y-109270116D01*
X110776783Y-109304141D01*
X110705967Y-109299076D01*
X110660905Y-109270115D01*
X110390790Y-109000000D01*
X109711613Y-108320824D01*
X109699839Y-108314394D01*
X109687824Y-108323690D01*
X109659534Y-108364093D01*
X109654054Y-108373583D01*
X109565674Y-108563113D01*
X109561928Y-108573405D01*
X109507804Y-108775401D01*
X109505901Y-108786196D01*
X109487674Y-108994525D01*
X109487674Y-109005475D01*
X109505901Y-109213804D01*
X109507804Y-109224599D01*
X109550578Y-109384235D01*
X109548888Y-109455212D01*
X109509094Y-109514007D01*
X109443829Y-109541955D01*
X109372846Y-109529705D01*
X109339503Y-109513153D01*
X109332885Y-109511503D01*
X109330402Y-109510589D01*
X109329914Y-109510386D01*
X109329390Y-109510200D01*
X109328855Y-109510043D01*
X109326382Y-109509201D01*
X109320192Y-109506315D01*
X109243189Y-109489103D01*
X109240307Y-109488421D01*
X109163786Y-109469342D01*
X109156956Y-109469151D01*
X109154376Y-109468798D01*
X109153293Y-109468603D01*
X109148503Y-109467938D01*
X109143457Y-109466810D01*
X109137912Y-109466500D01*
X109134500Y-109466500D01*
X109066379Y-109446498D01*
X109019886Y-109392842D01*
X109008500Y-109340500D01*
X109008500Y-108449600D01*
X109008163Y-108446350D01*
X108998238Y-108350693D01*
X108998237Y-108350689D01*
X108997526Y-108343835D01*
X108993345Y-108331301D01*
X108943868Y-108183003D01*
X108941550Y-108176055D01*
X108848478Y-108025652D01*
X108771579Y-107948887D01*
X110064477Y-107948887D01*
X110071545Y-107962334D01*
X110737189Y-108627979D01*
X110751132Y-108635592D01*
X110752966Y-108635461D01*
X110759580Y-108631210D01*
X111429180Y-107961609D01*
X111435607Y-107949839D01*
X111426313Y-107937825D01*
X111385912Y-107909536D01*
X111376416Y-107904053D01*
X111186887Y-107815674D01*
X111176595Y-107811928D01*
X110974599Y-107757804D01*
X110963804Y-107755901D01*
X110755475Y-107737674D01*
X110744525Y-107737674D01*
X110536196Y-107755901D01*
X110525401Y-107757804D01*
X110323405Y-107811928D01*
X110313113Y-107815674D01*
X110123583Y-107904054D01*
X110114093Y-107909534D01*
X110072851Y-107938411D01*
X110064477Y-107948887D01*
X108771579Y-107948887D01*
X108723303Y-107900695D01*
X108646742Y-107853502D01*
X108578968Y-107811725D01*
X108578966Y-107811724D01*
X108572738Y-107807885D01*
X108421748Y-107757804D01*
X108411389Y-107754368D01*
X108411387Y-107754368D01*
X108404861Y-107752203D01*
X108398025Y-107751503D01*
X108398022Y-107751502D01*
X108354969Y-107747091D01*
X108300400Y-107741500D01*
X107199600Y-107741500D01*
X107196354Y-107741837D01*
X107196350Y-107741837D01*
X107100693Y-107751762D01*
X107100689Y-107751763D01*
X107093835Y-107752474D01*
X107087299Y-107754655D01*
X107087297Y-107754655D01*
X106955195Y-107798728D01*
X106926055Y-107808450D01*
X106775652Y-107901522D01*
X106650695Y-108026697D01*
X106646855Y-108032927D01*
X106646854Y-108032928D01*
X106562956Y-108169036D01*
X106557885Y-108177262D01*
X106555581Y-108184209D01*
X106509596Y-108322851D01*
X106502203Y-108345139D01*
X106491500Y-108449600D01*
X106491500Y-109340500D01*
X106471498Y-109408621D01*
X106417842Y-109455114D01*
X106365500Y-109466500D01*
X105697437Y-109466500D01*
X105629316Y-109446498D01*
X105608342Y-109429595D01*
X104442910Y-108264163D01*
X104435767Y-108256396D01*
X104407594Y-108223057D01*
X104407590Y-108223053D01*
X104403187Y-108217843D01*
X104340557Y-108169959D01*
X104338198Y-108168110D01*
X104276714Y-108118675D01*
X104270604Y-108115642D01*
X104268391Y-108114227D01*
X104267968Y-108113931D01*
X104267452Y-108113610D01*
X104266981Y-108113351D01*
X104264747Y-108111998D01*
X104259322Y-108107850D01*
X104253136Y-108104966D01*
X104253132Y-108104963D01*
X104187898Y-108074545D01*
X104185122Y-108073209D01*
X104114503Y-108038153D01*
X104107885Y-108036503D01*
X104105402Y-108035589D01*
X104104914Y-108035386D01*
X104104390Y-108035200D01*
X104103855Y-108035043D01*
X104101382Y-108034201D01*
X104095192Y-108031315D01*
X104018189Y-108014103D01*
X104015307Y-108013421D01*
X103938786Y-107994342D01*
X103931956Y-107994151D01*
X103929376Y-107993798D01*
X103928293Y-107993603D01*
X103923503Y-107992938D01*
X103918457Y-107991810D01*
X103912912Y-107991500D01*
X103838794Y-107991500D01*
X103835276Y-107991451D01*
X103833630Y-107991405D01*
X103757760Y-107989286D01*
X103751052Y-107990565D01*
X103744483Y-107991094D01*
X103734376Y-107991500D01*
X103703591Y-107991500D01*
X103635470Y-107971498D01*
X103588977Y-107917842D01*
X103578873Y-107847568D01*
X103595815Y-107800229D01*
X103675472Y-107668699D01*
X103726753Y-107505062D01*
X103733500Y-107431635D01*
X103733499Y-106918366D01*
X103733234Y-106915474D01*
X103727364Y-106851592D01*
X103726753Y-106844938D01*
X103701051Y-106762922D01*
X103677744Y-106688550D01*
X103677743Y-106688548D01*
X103675472Y-106681301D01*
X103586639Y-106534619D01*
X103465381Y-106413361D01*
X103444229Y-106400551D01*
X103396322Y-106348154D01*
X103383500Y-106292775D01*
X103383500Y-105198266D01*
X103403502Y-105130145D01*
X103443198Y-105091121D01*
X103454830Y-105083923D01*
X103454829Y-105083923D01*
X103461055Y-105080071D01*
X103580864Y-104960053D01*
X103669849Y-104815692D01*
X103723238Y-104654731D01*
X103727848Y-104609733D01*
X107237822Y-104609733D01*
X107237975Y-104614121D01*
X107237975Y-104614127D01*
X107247235Y-104879288D01*
X107247625Y-104890458D01*
X107248387Y-104894781D01*
X107248388Y-104894788D01*
X107272164Y-105029624D01*
X107296402Y-105167087D01*
X107383203Y-105434235D01*
X107385131Y-105438188D01*
X107385133Y-105438193D01*
X107427091Y-105524218D01*
X107506340Y-105686702D01*
X107508795Y-105690341D01*
X107508798Y-105690347D01*
X107559520Y-105765545D01*
X107663415Y-105919576D01*
X107851371Y-106128322D01*
X108066550Y-106308879D01*
X108304764Y-106457731D01*
X108561375Y-106571982D01*
X108831390Y-106649407D01*
X108835740Y-106650018D01*
X108835743Y-106650019D01*
X108938690Y-106664487D01*
X109109552Y-106688500D01*
X109320146Y-106688500D01*
X109322332Y-106688347D01*
X109322336Y-106688347D01*
X109525827Y-106674118D01*
X109525832Y-106674117D01*
X109530212Y-106673811D01*
X109804970Y-106615409D01*
X109809099Y-106613906D01*
X109809103Y-106613905D01*
X110064781Y-106520846D01*
X110064785Y-106520844D01*
X110068926Y-106519337D01*
X110316942Y-106387464D01*
X110371048Y-106348154D01*
X110540629Y-106224947D01*
X110540632Y-106224944D01*
X110544192Y-106222358D01*
X110582064Y-106185786D01*
X110644947Y-106125060D01*
X110746252Y-106027231D01*
X110919188Y-105805882D01*
X110921384Y-105802078D01*
X110921389Y-105802071D01*
X111057435Y-105566431D01*
X111059636Y-105562619D01*
X111164862Y-105302176D01*
X111198544Y-105167087D01*
X111231753Y-105033893D01*
X111231754Y-105033888D01*
X111232817Y-105029624D01*
X111239481Y-104966224D01*
X111261719Y-104754636D01*
X111261719Y-104754633D01*
X111262178Y-104750267D01*
X111258842Y-104654731D01*
X111252529Y-104473939D01*
X111252528Y-104473933D01*
X111252375Y-104469542D01*
X111228608Y-104334749D01*
X111204360Y-104197236D01*
X111203598Y-104192913D01*
X111116797Y-103925765D01*
X111114117Y-103920269D01*
X111035046Y-103758151D01*
X110993660Y-103673298D01*
X110991205Y-103669659D01*
X110991202Y-103669653D01*
X110872814Y-103494136D01*
X110836585Y-103440424D01*
X110648629Y-103231678D01*
X110433450Y-103051121D01*
X110195236Y-102902269D01*
X109938625Y-102788018D01*
X109668610Y-102710593D01*
X109664260Y-102709982D01*
X109664257Y-102709981D01*
X109537637Y-102692186D01*
X109390448Y-102671500D01*
X109179854Y-102671500D01*
X109177668Y-102671653D01*
X109177664Y-102671653D01*
X108974173Y-102685882D01*
X108974168Y-102685883D01*
X108969788Y-102686189D01*
X108695030Y-102744591D01*
X108690901Y-102746094D01*
X108690897Y-102746095D01*
X108435219Y-102839154D01*
X108435215Y-102839156D01*
X108431074Y-102840663D01*
X108183058Y-102972536D01*
X108179499Y-102975122D01*
X108179497Y-102975123D01*
X107965414Y-103130663D01*
X107955808Y-103137642D01*
X107753748Y-103332769D01*
X107580812Y-103554118D01*
X107578616Y-103557922D01*
X107578611Y-103557929D01*
X107466605Y-103751930D01*
X107440364Y-103797381D01*
X107335138Y-104057824D01*
X107334073Y-104062097D01*
X107334072Y-104062099D01*
X107300379Y-104197236D01*
X107267183Y-104330376D01*
X107266724Y-104334744D01*
X107266723Y-104334749D01*
X107243283Y-104557771D01*
X107237822Y-104609733D01*
X103727848Y-104609733D01*
X103733500Y-104554572D01*
X103733500Y-104020428D01*
X103722978Y-103919018D01*
X103669308Y-103758151D01*
X103580071Y-103613945D01*
X103554841Y-103588759D01*
X103520762Y-103526477D01*
X103525765Y-103455657D01*
X103554686Y-103410568D01*
X103575298Y-103389920D01*
X103584310Y-103378509D01*
X103665553Y-103246709D01*
X103671697Y-103233532D01*
X103720579Y-103086157D01*
X103723445Y-103072790D01*
X103732614Y-102983300D01*
X103728525Y-102969376D01*
X103727135Y-102968171D01*
X103719452Y-102966500D01*
X101785115Y-102966500D01*
X101769876Y-102970975D01*
X101768671Y-102972365D01*
X101767158Y-102979321D01*
X101767337Y-102982782D01*
X101776804Y-103074021D01*
X101779697Y-103087417D01*
X101828830Y-103234687D01*
X101835004Y-103247866D01*
X101916470Y-103379514D01*
X101925506Y-103390915D01*
X101945158Y-103410533D01*
X101979237Y-103472816D01*
X101974234Y-103543636D01*
X101945314Y-103588723D01*
X101919136Y-103614947D01*
X101830151Y-103759308D01*
X101827846Y-103766256D01*
X101827846Y-103766257D01*
X101800169Y-103849701D01*
X101776762Y-103920269D01*
X101766500Y-104020428D01*
X101766500Y-104554572D01*
X101777022Y-104655982D01*
X101830692Y-104816849D01*
X101919929Y-104961055D01*
X102039947Y-105080864D01*
X102046177Y-105084704D01*
X102046178Y-105084705D01*
X102056616Y-105091139D01*
X102104110Y-105143912D01*
X102116500Y-105198399D01*
X102116500Y-106292775D01*
X102096498Y-106360896D01*
X102055771Y-106400551D01*
X102034619Y-106413361D01*
X101913361Y-106534619D01*
X101824528Y-106681301D01*
X101773247Y-106844938D01*
X101766500Y-106918365D01*
X101766501Y-107431634D01*
X101766764Y-107434492D01*
X101766764Y-107434501D01*
X101766969Y-107436732D01*
X101773247Y-107505062D01*
X101775246Y-107511440D01*
X101775246Y-107511441D01*
X101802680Y-107598981D01*
X101824528Y-107668699D01*
X101913361Y-107815381D01*
X102008885Y-107910905D01*
X102042911Y-107973217D01*
X102037846Y-108044032D01*
X102008885Y-108089095D01*
X101913361Y-108184619D01*
X101824528Y-108331301D01*
X101822257Y-108338548D01*
X101822256Y-108338550D01*
X101805218Y-108392918D01*
X101773247Y-108494938D01*
X101766500Y-108568365D01*
X101766501Y-109081634D01*
X101773247Y-109155062D01*
X101775246Y-109161440D01*
X101775246Y-109161441D01*
X101819966Y-109304141D01*
X101824528Y-109318699D01*
X101913361Y-109465381D01*
X102034619Y-109586639D01*
X102181301Y-109675472D01*
X102188548Y-109677743D01*
X102188550Y-109677744D01*
X102244907Y-109695405D01*
X102344938Y-109726753D01*
X102418365Y-109733500D01*
X102421263Y-109733500D01*
X102750860Y-109733499D01*
X103081634Y-109733499D01*
X103084492Y-109733236D01*
X103084501Y-109733236D01*
X103120004Y-109729974D01*
X103155062Y-109726753D01*
X103161447Y-109724752D01*
X103311450Y-109677744D01*
X103311452Y-109677743D01*
X103318699Y-109675472D01*
X103325194Y-109671538D01*
X103329350Y-109669662D01*
X103381198Y-109658500D01*
X103427563Y-109658500D01*
X103495684Y-109678502D01*
X103516658Y-109695405D01*
X103800072Y-109978819D01*
X103834098Y-110041131D01*
X103829033Y-110111946D01*
X103786486Y-110168782D01*
X103719966Y-110193593D01*
X103697152Y-110193153D01*
X103691399Y-110192518D01*
X103684957Y-110191807D01*
X103681558Y-110191801D01*
X103681557Y-110191801D01*
X103512080Y-110191505D01*
X103326592Y-110191182D01*
X103213413Y-110203277D01*
X102973639Y-110228901D01*
X102973631Y-110228902D01*
X102970256Y-110229263D01*
X102620117Y-110305606D01*
X102280271Y-110419317D01*
X102277178Y-110420739D01*
X102277177Y-110420740D01*
X102116114Y-110494821D01*
X101954694Y-110569066D01*
X101951760Y-110570822D01*
X101951758Y-110570823D01*
X101663242Y-110743496D01*
X101647193Y-110753101D01*
X101644467Y-110755163D01*
X101644465Y-110755164D01*
X101412112Y-110930892D01*
X101361367Y-110969270D01*
X101100559Y-111215043D01*
X101098347Y-111217633D01*
X101098345Y-111217635D01*
X101039874Y-111286096D01*
X100867819Y-111487546D01*
X100865900Y-111490358D01*
X100865897Y-111490363D01*
X100738588Y-111676992D01*
X100683677Y-111721995D01*
X100613152Y-111730166D01*
X100549405Y-111698912D01*
X100512675Y-111638155D01*
X100508500Y-111605988D01*
X100508500Y-103053250D01*
X100510246Y-103032345D01*
X100512770Y-103017344D01*
X100512770Y-103017341D01*
X100513576Y-103012552D01*
X100513729Y-103000000D01*
X100513040Y-102995186D01*
X100513039Y-102995177D01*
X100511869Y-102987006D01*
X100510827Y-102961540D01*
X100526206Y-102707290D01*
X100528040Y-102692186D01*
X100571684Y-102454025D01*
X100573943Y-102441700D01*
X101767386Y-102441700D01*
X101771475Y-102455624D01*
X101772865Y-102456829D01*
X101780548Y-102458500D01*
X102477885Y-102458500D01*
X102493124Y-102454025D01*
X102494329Y-102452635D01*
X102496000Y-102444952D01*
X102496000Y-102440385D01*
X103004000Y-102440385D01*
X103008475Y-102455624D01*
X103009865Y-102456829D01*
X103017548Y-102458500D01*
X103714885Y-102458500D01*
X103730124Y-102454025D01*
X103731329Y-102452635D01*
X103732842Y-102445679D01*
X103732663Y-102442218D01*
X103723196Y-102350979D01*
X103720303Y-102337583D01*
X103671170Y-102190313D01*
X103664996Y-102177134D01*
X103583530Y-102045486D01*
X103574494Y-102034085D01*
X103464920Y-101924702D01*
X103453509Y-101915690D01*
X103321709Y-101834447D01*
X103308532Y-101828303D01*
X103161157Y-101779421D01*
X103147790Y-101776555D01*
X103057730Y-101767328D01*
X103051315Y-101767000D01*
X103022115Y-101767000D01*
X103006876Y-101771475D01*
X103005671Y-101772865D01*
X103004000Y-101780548D01*
X103004000Y-102440385D01*
X102496000Y-102440385D01*
X102496000Y-101785115D01*
X102491525Y-101769876D01*
X102490135Y-101768671D01*
X102482452Y-101767000D01*
X102448734Y-101767000D01*
X102442218Y-101767337D01*
X102350979Y-101776804D01*
X102337583Y-101779697D01*
X102190313Y-101828830D01*
X102177134Y-101835004D01*
X102045486Y-101916470D01*
X102034085Y-101925506D01*
X101924702Y-102035080D01*
X101915690Y-102046491D01*
X101834447Y-102178291D01*
X101828303Y-102191468D01*
X101779421Y-102338843D01*
X101776555Y-102352210D01*
X101767386Y-102441700D01*
X100573943Y-102441700D01*
X100579525Y-102411240D01*
X100583164Y-102396473D01*
X100608646Y-102314700D01*
X100668142Y-102123769D01*
X100673534Y-102109555D01*
X100790758Y-101849092D01*
X100797828Y-101835621D01*
X100945595Y-101591187D01*
X100954238Y-101578666D01*
X101130385Y-101353829D01*
X101140475Y-101342440D01*
X101342440Y-101140475D01*
X101353829Y-101130385D01*
X101578666Y-100954238D01*
X101591187Y-100945595D01*
X101835621Y-100797828D01*
X101849094Y-100790757D01*
X101891777Y-100771547D01*
X102109555Y-100673534D01*
X102123769Y-100668142D01*
X102396474Y-100583164D01*
X102411240Y-100579525D01*
X102620214Y-100541229D01*
X102692186Y-100528040D01*
X102707290Y-100526206D01*
X102957904Y-100511047D01*
X102984716Y-100512308D01*
X102984852Y-100512310D01*
X102993724Y-100513691D01*
X103002626Y-100512527D01*
X103002628Y-100512527D01*
X103017677Y-100510559D01*
X103025286Y-100509564D01*
X103041621Y-100508500D01*
X116600006Y-100508500D01*
X116668127Y-100528502D01*
G37*
G04 #@! TD.AperFunction*
M02*
