G04 #@! TF.GenerationSoftware,KiCad,Pcbnew,(6.0.11-0)*
G04 #@! TF.CreationDate,2023-06-01T20:00:55-06:00*
G04 #@! TF.ProjectId,LIDPCB,4c494450-4342-42e6-9b69-6361645f7063,rev?*
G04 #@! TF.SameCoordinates,Original*
G04 #@! TF.FileFunction,Legend,Bot*
G04 #@! TF.FilePolarity,Positive*
%FSLAX46Y46*%
G04 Gerber Fmt 4.6, Leading zero omitted, Abs format (unit mm)*
G04 Created by KiCad (PCBNEW (6.0.11-0)) date 2023-06-01 20:00:55*
%MOMM*%
%LPD*%
G01*
G04 APERTURE LIST*
G04 Aperture macros list*
%AMRoundRect*
0 Rectangle with rounded corners*
0 $1 Rounding radius*
0 $2 $3 $4 $5 $6 $7 $8 $9 X,Y pos of 4 corners*
0 Add a 4 corners polygon primitive as box body*
4,1,4,$2,$3,$4,$5,$6,$7,$8,$9,$2,$3,0*
0 Add four circle primitives for the rounded corners*
1,1,$1+$1,$2,$3*
1,1,$1+$1,$4,$5*
1,1,$1+$1,$6,$7*
1,1,$1+$1,$8,$9*
0 Add four rect primitives between the rounded corners*
20,1,$1+$1,$2,$3,$4,$5,0*
20,1,$1+$1,$4,$5,$6,$7,0*
20,1,$1+$1,$6,$7,$8,$9,0*
20,1,$1+$1,$8,$9,$2,$3,0*%
G04 Aperture macros list end*
%ADD10C,0.300000*%
%ADD11C,0.160000*%
%ADD12C,5.600000*%
%ADD13C,3.000000*%
%ADD14RoundRect,0.250001X-0.499999X-0.499999X0.499999X-0.499999X0.499999X0.499999X-0.499999X0.499999X0*%
%ADD15C,1.500000*%
G04 APERTURE END LIST*
D10*
X118764285Y-110863571D02*
X119478571Y-110863571D01*
X119478571Y-109363571D01*
X118264285Y-110863571D02*
X118264285Y-109363571D01*
X117550000Y-110863571D02*
X117550000Y-109363571D01*
X117192857Y-109363571D01*
X116978571Y-109435000D01*
X116835714Y-109577857D01*
X116764285Y-109720714D01*
X116692857Y-110006428D01*
X116692857Y-110220714D01*
X116764285Y-110506428D01*
X116835714Y-110649285D01*
X116978571Y-110792142D01*
X117192857Y-110863571D01*
X117550000Y-110863571D01*
X114907142Y-110863571D02*
X114907142Y-109363571D01*
X114335714Y-109363571D01*
X114192857Y-109435000D01*
X114121428Y-109506428D01*
X114050000Y-109649285D01*
X114050000Y-109863571D01*
X114121428Y-110006428D01*
X114192857Y-110077857D01*
X114335714Y-110149285D01*
X114907142Y-110149285D01*
X112550000Y-110720714D02*
X112621428Y-110792142D01*
X112835714Y-110863571D01*
X112978571Y-110863571D01*
X113192857Y-110792142D01*
X113335714Y-110649285D01*
X113407142Y-110506428D01*
X113478571Y-110220714D01*
X113478571Y-110006428D01*
X113407142Y-109720714D01*
X113335714Y-109577857D01*
X113192857Y-109435000D01*
X112978571Y-109363571D01*
X112835714Y-109363571D01*
X112621428Y-109435000D01*
X112550000Y-109506428D01*
X111407142Y-110077857D02*
X111192857Y-110149285D01*
X111121428Y-110220714D01*
X111050000Y-110363571D01*
X111050000Y-110577857D01*
X111121428Y-110720714D01*
X111192857Y-110792142D01*
X111335714Y-110863571D01*
X111907142Y-110863571D01*
X111907142Y-109363571D01*
X111407142Y-109363571D01*
X111264285Y-109435000D01*
X111192857Y-109506428D01*
X111121428Y-109649285D01*
X111121428Y-109792142D01*
X111192857Y-109935000D01*
X111264285Y-110006428D01*
X111407142Y-110077857D01*
X111907142Y-110077857D01*
X117264285Y-113278571D02*
X117764285Y-112564285D01*
X118121428Y-113278571D02*
X118121428Y-111778571D01*
X117550000Y-111778571D01*
X117407142Y-111850000D01*
X117335714Y-111921428D01*
X117264285Y-112064285D01*
X117264285Y-112278571D01*
X117335714Y-112421428D01*
X117407142Y-112492857D01*
X117550000Y-112564285D01*
X118121428Y-112564285D01*
X116050000Y-113207142D02*
X116192857Y-113278571D01*
X116478571Y-113278571D01*
X116621428Y-113207142D01*
X116692857Y-113064285D01*
X116692857Y-112492857D01*
X116621428Y-112350000D01*
X116478571Y-112278571D01*
X116192857Y-112278571D01*
X116050000Y-112350000D01*
X115978571Y-112492857D01*
X115978571Y-112635714D01*
X116692857Y-112778571D01*
X115478571Y-112278571D02*
X115121428Y-113278571D01*
X114764285Y-112278571D01*
X113121428Y-112850000D02*
X112407142Y-112850000D01*
X113264285Y-113278571D02*
X112764285Y-111778571D01*
X112264285Y-113278571D01*
X120478571Y-115693571D02*
X120478571Y-114193571D01*
X119978571Y-115265000D01*
X119478571Y-114193571D01*
X119478571Y-115693571D01*
X118121428Y-115693571D02*
X118121428Y-114907857D01*
X118192857Y-114765000D01*
X118335714Y-114693571D01*
X118621428Y-114693571D01*
X118764285Y-114765000D01*
X118121428Y-115622142D02*
X118264285Y-115693571D01*
X118621428Y-115693571D01*
X118764285Y-115622142D01*
X118835714Y-115479285D01*
X118835714Y-115336428D01*
X118764285Y-115193571D01*
X118621428Y-115122142D01*
X118264285Y-115122142D01*
X118121428Y-115050714D01*
X117550000Y-114693571D02*
X117192857Y-115693571D01*
X116835714Y-114693571D02*
X117192857Y-115693571D01*
X117335714Y-116050714D01*
X117407142Y-116122142D01*
X117550000Y-116193571D01*
X115192857Y-114336428D02*
X115121428Y-114265000D01*
X114978571Y-114193571D01*
X114621428Y-114193571D01*
X114478571Y-114265000D01*
X114407142Y-114336428D01*
X114335714Y-114479285D01*
X114335714Y-114622142D01*
X114407142Y-114836428D01*
X115264285Y-115693571D01*
X114335714Y-115693571D01*
X113407142Y-114193571D02*
X113264285Y-114193571D01*
X113121428Y-114265000D01*
X113050000Y-114336428D01*
X112978571Y-114479285D01*
X112907142Y-114765000D01*
X112907142Y-115122142D01*
X112978571Y-115407857D01*
X113050000Y-115550714D01*
X113121428Y-115622142D01*
X113264285Y-115693571D01*
X113407142Y-115693571D01*
X113550000Y-115622142D01*
X113621428Y-115550714D01*
X113692857Y-115407857D01*
X113764285Y-115122142D01*
X113764285Y-114765000D01*
X113692857Y-114479285D01*
X113621428Y-114336428D01*
X113550000Y-114265000D01*
X113407142Y-114193571D01*
X112335714Y-114336428D02*
X112264285Y-114265000D01*
X112121428Y-114193571D01*
X111764285Y-114193571D01*
X111621428Y-114265000D01*
X111550000Y-114336428D01*
X111478571Y-114479285D01*
X111478571Y-114622142D01*
X111550000Y-114836428D01*
X112407142Y-115693571D01*
X111478571Y-115693571D01*
X110978571Y-114193571D02*
X110050000Y-114193571D01*
X110550000Y-114765000D01*
X110335714Y-114765000D01*
X110192857Y-114836428D01*
X110121428Y-114907857D01*
X110050000Y-115050714D01*
X110050000Y-115407857D01*
X110121428Y-115550714D01*
X110192857Y-115622142D01*
X110335714Y-115693571D01*
X110764285Y-115693571D01*
X110907142Y-115622142D01*
X110978571Y-115550714D01*
D11*
X110352380Y-100742619D02*
X110304761Y-100695000D01*
X110209523Y-100647380D01*
X109971428Y-100647380D01*
X109876190Y-100695000D01*
X109828571Y-100742619D01*
X109780952Y-100837857D01*
X109780952Y-100933095D01*
X109828571Y-101075952D01*
X110400000Y-101647380D01*
X109780952Y-101647380D01*
X109400000Y-100742619D02*
X109352380Y-100695000D01*
X109257142Y-100647380D01*
X109019047Y-100647380D01*
X108923809Y-100695000D01*
X108876190Y-100742619D01*
X108828571Y-100837857D01*
X108828571Y-100933095D01*
X108876190Y-101075952D01*
X109447619Y-101647380D01*
X108828571Y-101647380D01*
X108495238Y-101647380D02*
X107971428Y-100980714D01*
X108495238Y-100980714D02*
X107971428Y-101647380D01*
X107066666Y-101647380D02*
X107638095Y-101647380D01*
X107352380Y-101647380D02*
X107352380Y-100647380D01*
X107447619Y-100790238D01*
X107542857Y-100885476D01*
X107638095Y-100933095D01*
X106733333Y-100647380D02*
X106066666Y-100647380D01*
X106495238Y-101647380D01*
X105685714Y-101647380D02*
X105685714Y-100980714D01*
X105685714Y-101075952D02*
X105638095Y-101028333D01*
X105542857Y-100980714D01*
X105400000Y-100980714D01*
X105304761Y-101028333D01*
X105257142Y-101123571D01*
X105257142Y-101647380D01*
X105257142Y-101123571D02*
X105209523Y-101028333D01*
X105114285Y-100980714D01*
X104971428Y-100980714D01*
X104876190Y-101028333D01*
X104828571Y-101123571D01*
X104828571Y-101647380D01*
X104352380Y-101647380D02*
X104352380Y-100980714D01*
X104352380Y-101075952D02*
X104304761Y-101028333D01*
X104209523Y-100980714D01*
X104066666Y-100980714D01*
X103971428Y-101028333D01*
X103923809Y-101123571D01*
X103923809Y-101647380D01*
X103923809Y-101123571D02*
X103876190Y-101028333D01*
X103780952Y-100980714D01*
X103638095Y-100980714D01*
X103542857Y-101028333D01*
X103495238Y-101123571D01*
X103495238Y-101647380D01*
X112661904Y-103257380D02*
X112661904Y-102257380D01*
X112661904Y-102733571D02*
X112090476Y-102733571D01*
X112090476Y-103257380D02*
X112090476Y-102257380D01*
X110852380Y-103257380D02*
X110852380Y-102257380D01*
X110519047Y-102971666D01*
X110185714Y-102257380D01*
X110185714Y-103257380D01*
X109804761Y-102257380D02*
X109185714Y-102257380D01*
X109519047Y-102638333D01*
X109376190Y-102638333D01*
X109280952Y-102685952D01*
X109233333Y-102733571D01*
X109185714Y-102828809D01*
X109185714Y-103066904D01*
X109233333Y-103162142D01*
X109280952Y-103209761D01*
X109376190Y-103257380D01*
X109661904Y-103257380D01*
X109757142Y-103209761D01*
X109804761Y-103162142D01*
X108852380Y-103257380D02*
X108328571Y-102590714D01*
X108852380Y-102590714D02*
X108328571Y-103257380D01*
X107423809Y-103257380D02*
X107995238Y-103257380D01*
X107709523Y-103257380D02*
X107709523Y-102257380D01*
X107804761Y-102400238D01*
X107900000Y-102495476D01*
X107995238Y-102543095D01*
X106804761Y-102257380D02*
X106709523Y-102257380D01*
X106614285Y-102305000D01*
X106566666Y-102352619D01*
X106519047Y-102447857D01*
X106471428Y-102638333D01*
X106471428Y-102876428D01*
X106519047Y-103066904D01*
X106566666Y-103162142D01*
X106614285Y-103209761D01*
X106709523Y-103257380D01*
X106804761Y-103257380D01*
X106900000Y-103209761D01*
X106947619Y-103162142D01*
X106995238Y-103066904D01*
X107042857Y-102876428D01*
X107042857Y-102638333D01*
X106995238Y-102447857D01*
X106947619Y-102352619D01*
X106900000Y-102305000D01*
X106804761Y-102257380D01*
X106138095Y-103257380D02*
X105614285Y-102590714D01*
X106138095Y-102590714D02*
X105614285Y-103257380D01*
X104709523Y-103257380D02*
X105280952Y-103257380D01*
X104995238Y-103257380D02*
X104995238Y-102257380D01*
X105090476Y-102400238D01*
X105185714Y-102495476D01*
X105280952Y-102543095D01*
X103804761Y-102257380D02*
X104280952Y-102257380D01*
X104328571Y-102733571D01*
X104280952Y-102685952D01*
X104185714Y-102638333D01*
X103947619Y-102638333D01*
X103852380Y-102685952D01*
X103804761Y-102733571D01*
X103757142Y-102828809D01*
X103757142Y-103066904D01*
X103804761Y-103162142D01*
X103852380Y-103209761D01*
X103947619Y-103257380D01*
X104185714Y-103257380D01*
X104280952Y-103209761D01*
X104328571Y-103162142D01*
X103328571Y-103257380D02*
X103328571Y-102590714D01*
X103328571Y-102685952D02*
X103280952Y-102638333D01*
X103185714Y-102590714D01*
X103042857Y-102590714D01*
X102947619Y-102638333D01*
X102900000Y-102733571D01*
X102900000Y-103257380D01*
X102900000Y-102733571D02*
X102852380Y-102638333D01*
X102757142Y-102590714D01*
X102614285Y-102590714D01*
X102519047Y-102638333D01*
X102471428Y-102733571D01*
X102471428Y-103257380D01*
X101995238Y-103257380D02*
X101995238Y-102590714D01*
X101995238Y-102685952D02*
X101947619Y-102638333D01*
X101852380Y-102590714D01*
X101709523Y-102590714D01*
X101614285Y-102638333D01*
X101566666Y-102733571D01*
X101566666Y-103257380D01*
X101566666Y-102733571D02*
X101519047Y-102638333D01*
X101423809Y-102590714D01*
X101280952Y-102590714D01*
X101185714Y-102638333D01*
X101138095Y-102733571D01*
X101138095Y-103257380D01*
%LPC*%
D12*
X103500000Y-113500000D03*
X118500000Y-103500000D03*
D13*
X109250000Y-104680000D03*
D14*
X107750000Y-109000000D03*
D15*
X110750000Y-109000000D03*
X107750000Y-112000000D03*
X110750000Y-112000000D03*
M02*
