G04 #@! TF.GenerationSoftware,KiCad,Pcbnew,(6.0.11-0)*
G04 #@! TF.CreationDate,2023-06-01T20:00:55-06:00*
G04 #@! TF.ProjectId,LIDPCB,4c494450-4342-42e6-9b69-6361645f7063,rev?*
G04 #@! TF.SameCoordinates,Original*
G04 #@! TF.FileFunction,Legend,Top*
G04 #@! TF.FilePolarity,Positive*
%FSLAX46Y46*%
G04 Gerber Fmt 4.6, Leading zero omitted, Abs format (unit mm)*
G04 Created by KiCad (PCBNEW (6.0.11-0)) date 2023-06-01 20:00:55*
%MOMM*%
%LPD*%
G01*
G04 APERTURE LIST*
G04 Aperture macros list*
%AMRoundRect*
0 Rectangle with rounded corners*
0 $1 Rounding radius*
0 $2 $3 $4 $5 $6 $7 $8 $9 X,Y pos of 4 corners*
0 Add a 4 corners polygon primitive as box body*
4,1,4,$2,$3,$4,$5,$6,$7,$8,$9,$2,$3,0*
0 Add four circle primitives for the rounded corners*
1,1,$1+$1,$2,$3*
1,1,$1+$1,$4,$5*
1,1,$1+$1,$6,$7*
1,1,$1+$1,$8,$9*
0 Add four rect primitives between the rounded corners*
20,1,$1+$1,$2,$3,$4,$5,0*
20,1,$1+$1,$4,$5,$6,$7,0*
20,1,$1+$1,$6,$7,$8,$9,0*
20,1,$1+$1,$8,$9,$2,$3,0*%
G04 Aperture macros list end*
%ADD10C,0.160000*%
%ADD11C,0.150000*%
%ADD12C,0.120000*%
%ADD13C,0.127000*%
%ADD14C,0.100000*%
%ADD15C,5.600000*%
%ADD16RoundRect,0.225000X0.250000X-0.225000X0.250000X0.225000X-0.250000X0.225000X-0.250000X-0.225000X0*%
%ADD17RoundRect,0.225000X-0.250000X0.225000X-0.250000X-0.225000X0.250000X-0.225000X0.250000X0.225000X0*%
%ADD18R,0.600000X0.350000*%
%ADD19R,0.350000X0.600000*%
%ADD20R,0.660400X0.812800*%
%ADD21RoundRect,0.225000X-0.225000X-0.250000X0.225000X-0.250000X0.225000X0.250000X-0.225000X0.250000X0*%
%ADD22RoundRect,0.218750X-0.256250X0.218750X-0.256250X-0.218750X0.256250X-0.218750X0.256250X0.218750X0*%
%ADD23RoundRect,0.200000X-0.275000X0.200000X-0.275000X-0.200000X0.275000X-0.200000X0.275000X0.200000X0*%
%ADD24C,3.000000*%
%ADD25RoundRect,0.250001X-0.499999X-0.499999X0.499999X-0.499999X0.499999X0.499999X-0.499999X0.499999X0*%
%ADD26C,1.500000*%
G04 APERTURE END LIST*
D10*
X101371428Y-106000000D02*
X101371428Y-105238095D01*
X101752380Y-105619047D02*
X100990476Y-105619047D01*
X100752380Y-104857142D02*
X100752380Y-104238095D01*
X101133333Y-104571428D01*
X101133333Y-104428571D01*
X101180952Y-104333333D01*
X101228571Y-104285714D01*
X101323809Y-104238095D01*
X101561904Y-104238095D01*
X101657142Y-104285714D01*
X101704761Y-104333333D01*
X101752380Y-104428571D01*
X101752380Y-104714285D01*
X101704761Y-104809523D01*
X101657142Y-104857142D01*
X101657142Y-103809523D02*
X101704761Y-103761904D01*
X101752380Y-103809523D01*
X101704761Y-103857142D01*
X101657142Y-103809523D01*
X101752380Y-103809523D01*
X100752380Y-103428571D02*
X100752380Y-102809523D01*
X101133333Y-103142857D01*
X101133333Y-103000000D01*
X101180952Y-102904761D01*
X101228571Y-102857142D01*
X101323809Y-102809523D01*
X101561904Y-102809523D01*
X101657142Y-102857142D01*
X101704761Y-102904761D01*
X101752380Y-103000000D01*
X101752380Y-103285714D01*
X101704761Y-103380952D01*
X101657142Y-103428571D01*
X100752380Y-102523809D02*
X101752380Y-102190476D01*
X100752380Y-101857142D01*
D11*
X115767857Y-112025000D02*
X115803571Y-112060714D01*
X115839285Y-112167857D01*
X115839285Y-112239285D01*
X115803571Y-112346428D01*
X115732142Y-112417857D01*
X115660714Y-112453571D01*
X115517857Y-112489285D01*
X115410714Y-112489285D01*
X115267857Y-112453571D01*
X115196428Y-112417857D01*
X115125000Y-112346428D01*
X115089285Y-112239285D01*
X115089285Y-112167857D01*
X115125000Y-112060714D01*
X115160714Y-112025000D01*
X115089285Y-111775000D02*
X115089285Y-111310714D01*
X115375000Y-111560714D01*
X115375000Y-111453571D01*
X115410714Y-111382142D01*
X115446428Y-111346428D01*
X115517857Y-111310714D01*
X115696428Y-111310714D01*
X115767857Y-111346428D01*
X115803571Y-111382142D01*
X115839285Y-111453571D01*
X115839285Y-111667857D01*
X115803571Y-111739285D01*
X115767857Y-111775000D01*
X113767857Y-112025000D02*
X113803571Y-112060714D01*
X113839285Y-112167857D01*
X113839285Y-112239285D01*
X113803571Y-112346428D01*
X113732142Y-112417857D01*
X113660714Y-112453571D01*
X113517857Y-112489285D01*
X113410714Y-112489285D01*
X113267857Y-112453571D01*
X113196428Y-112417857D01*
X113125000Y-112346428D01*
X113089285Y-112239285D01*
X113089285Y-112167857D01*
X113125000Y-112060714D01*
X113160714Y-112025000D01*
X113839285Y-111310714D02*
X113839285Y-111739285D01*
X113839285Y-111525000D02*
X113089285Y-111525000D01*
X113196428Y-111596428D01*
X113267857Y-111667857D01*
X113303571Y-111739285D01*
X120489285Y-114871428D02*
X121096428Y-114871428D01*
X121167857Y-114835714D01*
X121203571Y-114800000D01*
X121239285Y-114728571D01*
X121239285Y-114585714D01*
X121203571Y-114514285D01*
X121167857Y-114478571D01*
X121096428Y-114442857D01*
X120489285Y-114442857D01*
X120560714Y-114121428D02*
X120525000Y-114085714D01*
X120489285Y-114014285D01*
X120489285Y-113835714D01*
X120525000Y-113764285D01*
X120560714Y-113728571D01*
X120632142Y-113692857D01*
X120703571Y-113692857D01*
X120810714Y-113728571D01*
X121239285Y-114157142D01*
X121239285Y-113692857D01*
X120289285Y-110971428D02*
X120896428Y-110971428D01*
X120967857Y-110935714D01*
X121003571Y-110900000D01*
X121039285Y-110828571D01*
X121039285Y-110685714D01*
X121003571Y-110614285D01*
X120967857Y-110578571D01*
X120896428Y-110542857D01*
X120289285Y-110542857D01*
X121039285Y-109792857D02*
X121039285Y-110221428D01*
X121039285Y-110007142D02*
X120289285Y-110007142D01*
X120396428Y-110078571D01*
X120467857Y-110150000D01*
X120503571Y-110221428D01*
X116767857Y-108125000D02*
X116803571Y-108160714D01*
X116839285Y-108267857D01*
X116839285Y-108339285D01*
X116803571Y-108446428D01*
X116732142Y-108517857D01*
X116660714Y-108553571D01*
X116517857Y-108589285D01*
X116410714Y-108589285D01*
X116267857Y-108553571D01*
X116196428Y-108517857D01*
X116125000Y-108446428D01*
X116089285Y-108339285D01*
X116089285Y-108267857D01*
X116125000Y-108160714D01*
X116160714Y-108125000D01*
X116160714Y-107839285D02*
X116125000Y-107803571D01*
X116089285Y-107732142D01*
X116089285Y-107553571D01*
X116125000Y-107482142D01*
X116160714Y-107446428D01*
X116232142Y-107410714D01*
X116303571Y-107410714D01*
X116410714Y-107446428D01*
X116839285Y-107875000D01*
X116839285Y-107410714D01*
X103139285Y-101753571D02*
X102389285Y-101753571D01*
X102389285Y-101575000D01*
X102425000Y-101467857D01*
X102496428Y-101396428D01*
X102567857Y-101360714D01*
X102710714Y-101325000D01*
X102817857Y-101325000D01*
X102960714Y-101360714D01*
X103032142Y-101396428D01*
X103103571Y-101467857D01*
X103139285Y-101575000D01*
X103139285Y-101753571D01*
X103139285Y-100610714D02*
X103139285Y-101039285D01*
X103139285Y-100825000D02*
X102389285Y-100825000D01*
X102496428Y-100896428D01*
X102567857Y-100967857D01*
X102603571Y-101039285D01*
X103139285Y-105925000D02*
X102782142Y-106175000D01*
X103139285Y-106353571D02*
X102389285Y-106353571D01*
X102389285Y-106067857D01*
X102425000Y-105996428D01*
X102460714Y-105960714D01*
X102532142Y-105925000D01*
X102639285Y-105925000D01*
X102710714Y-105960714D01*
X102746428Y-105996428D01*
X102782142Y-106067857D01*
X102782142Y-106353571D01*
X103139285Y-105210714D02*
X103139285Y-105639285D01*
X103139285Y-105425000D02*
X102389285Y-105425000D01*
X102496428Y-105496428D01*
X102567857Y-105567857D01*
X102603571Y-105639285D01*
X113289285Y-109450000D02*
X113825000Y-109450000D01*
X113932142Y-109485714D01*
X114003571Y-109557142D01*
X114039285Y-109664285D01*
X114039285Y-109735714D01*
X114039285Y-108700000D02*
X114039285Y-109128571D01*
X114039285Y-108914285D02*
X113289285Y-108914285D01*
X113396428Y-108985714D01*
X113467857Y-109057142D01*
X113503571Y-109128571D01*
D12*
X116010000Y-114390580D02*
X116010000Y-114109420D01*
X114990000Y-114390580D02*
X114990000Y-114109420D01*
X114010000Y-114084420D02*
X114010000Y-114365580D01*
X112990000Y-114084420D02*
X112990000Y-114365580D01*
D13*
X116950000Y-115550000D02*
X117350000Y-115550000D01*
X120050000Y-115550000D02*
X119650000Y-115550000D01*
X120050000Y-112950000D02*
X119650000Y-112950000D01*
X117350000Y-112950000D02*
X116950000Y-112950000D01*
D14*
X116450000Y-113250000D02*
G75*
G03*
X116450000Y-113250000I-50000J0D01*
G01*
D12*
X119276199Y-108698200D02*
G75*
G03*
X119276199Y-108698200I-76200J0D01*
G01*
X118359420Y-108510000D02*
X118640580Y-108510000D01*
X118359420Y-107490000D02*
X118640580Y-107490000D01*
X103485000Y-104300000D02*
X103485000Y-102015000D01*
X102015000Y-102015000D02*
X102015000Y-104300000D01*
X103485000Y-102015000D02*
X102015000Y-102015000D01*
X103272500Y-107762742D02*
X103272500Y-108237258D01*
X102227500Y-107762742D02*
X102227500Y-108237258D01*
X104065000Y-100970000D02*
X105065000Y-99970000D01*
X104065000Y-110100000D02*
X104065000Y-100970000D01*
X105065000Y-99970000D02*
X113435000Y-99970000D01*
X113435000Y-99970000D02*
X114435000Y-100970000D01*
X114435000Y-110100000D02*
X104065000Y-110100000D01*
X114435000Y-100970000D02*
X114435000Y-110100000D01*
%LPC*%
D15*
X103500000Y-113500000D03*
D16*
X115500000Y-115025000D03*
X115500000Y-113475000D03*
D17*
X113500000Y-113450000D03*
X113500000Y-115000000D03*
D18*
X117340000Y-113500000D03*
X117340000Y-114000000D03*
X117340000Y-114500000D03*
X117340000Y-115000000D03*
D19*
X118000000Y-115160000D03*
X118500000Y-115160000D03*
X119000000Y-115160000D03*
D18*
X119660000Y-115000000D03*
X119660000Y-114500000D03*
X119660000Y-114000000D03*
X119660000Y-113500000D03*
D19*
X119000000Y-113340000D03*
X118500000Y-113340000D03*
X118000000Y-113340000D03*
D20*
X119199998Y-109806200D03*
X118000000Y-109806200D03*
X118000000Y-111000000D03*
X119199998Y-111000000D03*
D21*
X117725000Y-108000000D03*
X119275000Y-108000000D03*
D22*
X102750000Y-102712500D03*
X102750000Y-104287500D03*
D15*
X118500000Y-103500000D03*
D23*
X102750000Y-107175000D03*
X102750000Y-108825000D03*
D24*
X109250000Y-104680000D03*
D25*
X107750000Y-109000000D03*
D26*
X110750000Y-109000000D03*
X107750000Y-112000000D03*
X110750000Y-112000000D03*
M02*
