M48
; DRILL file {KiCad (6.0.11-0)} date Thursday, June 01, 2023 at 07:50:47 pm
; FORMAT={-:-/ absolute / metric / decimal}
; #@! TF.CreationDate,2023-06-01T19:50:47-06:00
; #@! TF.GenerationSoftware,Kicad,Pcbnew,(6.0.11-0)
; #@! TF.FileFunction,Plated,1,2,PTH
FMAT,2
METRIC
; #@! TA.AperFunction,Plated,PTH,ViaDrill
T1C0.300
; #@! TA.AperFunction,Plated,PTH,ComponentDrill
T2C1.000
; #@! TA.AperFunction,Plated,PTH,ComponentDrill
T3C1.020
; #@! TA.AperFunction,Plated,PTH,ComponentDrill
T4C3.200
%
G90
G05
T1
X101.6Y-121.2
X102.4Y-114.8
X105.6Y-107.0
X109.0Y-114.5
X109.6Y-108.7
X109.9Y-118.8
X110.972Y-114.972
X111.1Y-112.1
X111.618Y-115.24
X112.069Y-110.493
X112.9Y-106.8
X113.0Y-119.3
X114.225Y-109.9
X114.8Y-117.4
X115.6Y-115.2
X115.7Y-119.2
X115.7Y-121.7
X115.774Y-110.0
X116.0Y-115.9
X116.134Y-114.5
X116.168Y-110.579
X117.1Y-108.2
X117.3Y-111.3
X117.8Y-109.1
X118.0Y-116.9
X118.0Y-119.3
X118.0Y-121.6
T2
X110.0Y-103.0
X110.0Y-105.54
T3
X109.585Y-112.95
X109.585Y-115.95
X112.585Y-112.95
X112.585Y-115.95
T4
X103.5Y-103.5
X116.5Y-103.5
T0
M30
