G04 #@! TF.GenerationSoftware,KiCad,Pcbnew,(6.0.11-0)*
G04 #@! TF.CreationDate,2023-06-01T19:50:38-06:00*
G04 #@! TF.ProjectId,LightSensorPCB,4c696768-7453-4656-9e73-6f725043422e,rev?*
G04 #@! TF.SameCoordinates,Original*
G04 #@! TF.FileFunction,Legend,Top*
G04 #@! TF.FilePolarity,Positive*
%FSLAX46Y46*%
G04 Gerber Fmt 4.6, Leading zero omitted, Abs format (unit mm)*
G04 Created by KiCad (PCBNEW (6.0.11-0)) date 2023-06-01 19:50:38*
%MOMM*%
%LPD*%
G01*
G04 APERTURE LIST*
G04 Aperture macros list*
%AMRoundRect*
0 Rectangle with rounded corners*
0 $1 Rounding radius*
0 $2 $3 $4 $5 $6 $7 $8 $9 X,Y pos of 4 corners*
0 Add a 4 corners polygon primitive as box body*
4,1,4,$2,$3,$4,$5,$6,$7,$8,$9,$2,$3,0*
0 Add four circle primitives for the rounded corners*
1,1,$1+$1,$2,$3*
1,1,$1+$1,$4,$5*
1,1,$1+$1,$6,$7*
1,1,$1+$1,$8,$9*
0 Add four rect primitives between the rounded corners*
20,1,$1+$1,$2,$3,$4,$5,0*
20,1,$1+$1,$4,$5,$6,$7,0*
20,1,$1+$1,$6,$7,$8,$9,0*
20,1,$1+$1,$8,$9,$2,$3,0*%
G04 Aperture macros list end*
%ADD10C,0.160000*%
%ADD11C,0.150000*%
%ADD12C,0.127000*%
%ADD13C,0.100000*%
%ADD14C,0.120000*%
%ADD15R,0.600000X0.350000*%
%ADD16R,0.350000X0.600000*%
%ADD17R,0.660400X0.812800*%
%ADD18C,5.600000*%
%ADD19RoundRect,0.225000X0.250000X-0.225000X0.250000X0.225000X-0.250000X0.225000X-0.250000X-0.225000X0*%
%ADD20RoundRect,0.225000X0.225000X0.250000X-0.225000X0.250000X-0.225000X-0.250000X0.225000X-0.250000X0*%
%ADD21C,3.000000*%
%ADD22RoundRect,0.250001X-0.499999X0.499999X-0.499999X-0.499999X0.499999X-0.499999X0.499999X0.499999X0*%
%ADD23C,1.500000*%
%ADD24R,1.700000X1.700000*%
%ADD25O,1.700000X1.700000*%
G04 APERTURE END LIST*
D10*
X100438095Y-107842380D02*
X100438095Y-106842380D01*
X100438095Y-107318571D02*
X101009523Y-107318571D01*
X101009523Y-107842380D02*
X101009523Y-106842380D01*
X101628571Y-107842380D02*
X101533333Y-107794761D01*
X101485714Y-107747142D01*
X101438095Y-107651904D01*
X101438095Y-107366190D01*
X101485714Y-107270952D01*
X101533333Y-107223333D01*
X101628571Y-107175714D01*
X101771428Y-107175714D01*
X101866666Y-107223333D01*
X101914285Y-107270952D01*
X101961904Y-107366190D01*
X101961904Y-107651904D01*
X101914285Y-107747142D01*
X101866666Y-107794761D01*
X101771428Y-107842380D01*
X101628571Y-107842380D01*
X102390476Y-107175714D02*
X102390476Y-108175714D01*
X102390476Y-107223333D02*
X102485714Y-107175714D01*
X102676190Y-107175714D01*
X102771428Y-107223333D01*
X102819047Y-107270952D01*
X102866666Y-107366190D01*
X102866666Y-107651904D01*
X102819047Y-107747142D01*
X102771428Y-107794761D01*
X102676190Y-107842380D01*
X102485714Y-107842380D01*
X102390476Y-107794761D01*
X103295238Y-107175714D02*
X103295238Y-108175714D01*
X103295238Y-107223333D02*
X103390476Y-107175714D01*
X103580952Y-107175714D01*
X103676190Y-107223333D01*
X103723809Y-107270952D01*
X103771428Y-107366190D01*
X103771428Y-107651904D01*
X103723809Y-107747142D01*
X103676190Y-107794761D01*
X103580952Y-107842380D01*
X103390476Y-107842380D01*
X103295238Y-107794761D01*
X104580952Y-107794761D02*
X104485714Y-107842380D01*
X104295238Y-107842380D01*
X104200000Y-107794761D01*
X104152380Y-107699523D01*
X104152380Y-107318571D01*
X104200000Y-107223333D01*
X104295238Y-107175714D01*
X104485714Y-107175714D01*
X104580952Y-107223333D01*
X104628571Y-107318571D01*
X104628571Y-107413809D01*
X104152380Y-107509047D01*
X105057142Y-107842380D02*
X105057142Y-107175714D01*
X105057142Y-107366190D02*
X105104761Y-107270952D01*
X105152380Y-107223333D01*
X105247619Y-107175714D01*
X105342857Y-107175714D01*
X106438095Y-107842380D02*
X106438095Y-106842380D01*
X106819047Y-106842380D01*
X106914285Y-106890000D01*
X106961904Y-106937619D01*
X107009523Y-107032857D01*
X107009523Y-107175714D01*
X106961904Y-107270952D01*
X106914285Y-107318571D01*
X106819047Y-107366190D01*
X106438095Y-107366190D01*
X108009523Y-107747142D02*
X107961904Y-107794761D01*
X107819047Y-107842380D01*
X107723809Y-107842380D01*
X107580952Y-107794761D01*
X107485714Y-107699523D01*
X107438095Y-107604285D01*
X107390476Y-107413809D01*
X107390476Y-107270952D01*
X107438095Y-107080476D01*
X107485714Y-106985238D01*
X107580952Y-106890000D01*
X107723809Y-106842380D01*
X107819047Y-106842380D01*
X107961904Y-106890000D01*
X108009523Y-106937619D01*
X108771428Y-107318571D02*
X108914285Y-107366190D01*
X108961904Y-107413809D01*
X109009523Y-107509047D01*
X109009523Y-107651904D01*
X108961904Y-107747142D01*
X108914285Y-107794761D01*
X108819047Y-107842380D01*
X108438095Y-107842380D01*
X108438095Y-106842380D01*
X108771428Y-106842380D01*
X108866666Y-106890000D01*
X108914285Y-106937619D01*
X108961904Y-107032857D01*
X108961904Y-107128095D01*
X108914285Y-107223333D01*
X108866666Y-107270952D01*
X108771428Y-107318571D01*
X108438095Y-107318571D01*
X103319047Y-109452380D02*
X102985714Y-108976190D01*
X102747619Y-109452380D02*
X102747619Y-108452380D01*
X103128571Y-108452380D01*
X103223809Y-108500000D01*
X103271428Y-108547619D01*
X103319047Y-108642857D01*
X103319047Y-108785714D01*
X103271428Y-108880952D01*
X103223809Y-108928571D01*
X103128571Y-108976190D01*
X102747619Y-108976190D01*
X103747619Y-108928571D02*
X104080952Y-108928571D01*
X104223809Y-109452380D02*
X103747619Y-109452380D01*
X103747619Y-108452380D01*
X104223809Y-108452380D01*
X104509523Y-108452380D02*
X104842857Y-109452380D01*
X105176190Y-108452380D01*
X106223809Y-109166666D02*
X106700000Y-109166666D01*
X106128571Y-109452380D02*
X106461904Y-108452380D01*
X106795238Y-109452380D01*
X101247619Y-111062380D02*
X101247619Y-110062380D01*
X101580952Y-110776666D01*
X101914285Y-110062380D01*
X101914285Y-111062380D01*
X102819047Y-111062380D02*
X102819047Y-110538571D01*
X102771428Y-110443333D01*
X102676190Y-110395714D01*
X102485714Y-110395714D01*
X102390476Y-110443333D01*
X102819047Y-111014761D02*
X102723809Y-111062380D01*
X102485714Y-111062380D01*
X102390476Y-111014761D01*
X102342857Y-110919523D01*
X102342857Y-110824285D01*
X102390476Y-110729047D01*
X102485714Y-110681428D01*
X102723809Y-110681428D01*
X102819047Y-110633809D01*
X103200000Y-110395714D02*
X103438095Y-111062380D01*
X103676190Y-110395714D02*
X103438095Y-111062380D01*
X103342857Y-111300476D01*
X103295238Y-111348095D01*
X103200000Y-111395714D01*
X104771428Y-110157619D02*
X104819047Y-110110000D01*
X104914285Y-110062380D01*
X105152380Y-110062380D01*
X105247619Y-110110000D01*
X105295238Y-110157619D01*
X105342857Y-110252857D01*
X105342857Y-110348095D01*
X105295238Y-110490952D01*
X104723809Y-111062380D01*
X105342857Y-111062380D01*
X105961904Y-110062380D02*
X106057142Y-110062380D01*
X106152380Y-110110000D01*
X106200000Y-110157619D01*
X106247619Y-110252857D01*
X106295238Y-110443333D01*
X106295238Y-110681428D01*
X106247619Y-110871904D01*
X106200000Y-110967142D01*
X106152380Y-111014761D01*
X106057142Y-111062380D01*
X105961904Y-111062380D01*
X105866666Y-111014761D01*
X105819047Y-110967142D01*
X105771428Y-110871904D01*
X105723809Y-110681428D01*
X105723809Y-110443333D01*
X105771428Y-110252857D01*
X105819047Y-110157619D01*
X105866666Y-110110000D01*
X105961904Y-110062380D01*
X106676190Y-110157619D02*
X106723809Y-110110000D01*
X106819047Y-110062380D01*
X107057142Y-110062380D01*
X107152380Y-110110000D01*
X107200000Y-110157619D01*
X107247619Y-110252857D01*
X107247619Y-110348095D01*
X107200000Y-110490952D01*
X106628571Y-111062380D01*
X107247619Y-111062380D01*
X107580952Y-110062380D02*
X108200000Y-110062380D01*
X107866666Y-110443333D01*
X108009523Y-110443333D01*
X108104761Y-110490952D01*
X108152380Y-110538571D01*
X108200000Y-110633809D01*
X108200000Y-110871904D01*
X108152380Y-110967142D01*
X108104761Y-111014761D01*
X108009523Y-111062380D01*
X107723809Y-111062380D01*
X107628571Y-111014761D01*
X107580952Y-110967142D01*
X117042619Y-116495238D02*
X116995000Y-116447619D01*
X116947380Y-116352380D01*
X116947380Y-116114285D01*
X116995000Y-116019047D01*
X117042619Y-115971428D01*
X117137857Y-115923809D01*
X117233095Y-115923809D01*
X117375952Y-115971428D01*
X117947380Y-116542857D01*
X117947380Y-115923809D01*
X116947380Y-115590476D02*
X116947380Y-114971428D01*
X117328333Y-115304761D01*
X117328333Y-115161904D01*
X117375952Y-115066666D01*
X117423571Y-115019047D01*
X117518809Y-114971428D01*
X117756904Y-114971428D01*
X117852142Y-115019047D01*
X117899761Y-115066666D01*
X117947380Y-115161904D01*
X117947380Y-115447619D01*
X117899761Y-115542857D01*
X117852142Y-115590476D01*
X117947380Y-113876190D02*
X117280714Y-113352380D01*
X117280714Y-113876190D02*
X117947380Y-113352380D01*
X117042619Y-112257142D02*
X116995000Y-112209523D01*
X116947380Y-112114285D01*
X116947380Y-111876190D01*
X116995000Y-111780952D01*
X117042619Y-111733333D01*
X117137857Y-111685714D01*
X117233095Y-111685714D01*
X117375952Y-111733333D01*
X117947380Y-112304761D01*
X117947380Y-111685714D01*
X116947380Y-111066666D02*
X116947380Y-110971428D01*
X116995000Y-110876190D01*
X117042619Y-110828571D01*
X117137857Y-110780952D01*
X117328333Y-110733333D01*
X117566428Y-110733333D01*
X117756904Y-110780952D01*
X117852142Y-110828571D01*
X117899761Y-110876190D01*
X117947380Y-110971428D01*
X117947380Y-111066666D01*
X117899761Y-111161904D01*
X117852142Y-111209523D01*
X117756904Y-111257142D01*
X117566428Y-111304761D01*
X117328333Y-111304761D01*
X117137857Y-111257142D01*
X117042619Y-111209523D01*
X116995000Y-111161904D01*
X116947380Y-111066666D01*
X117947380Y-109542857D02*
X117280714Y-109542857D01*
X117375952Y-109542857D02*
X117328333Y-109495238D01*
X117280714Y-109400000D01*
X117280714Y-109257142D01*
X117328333Y-109161904D01*
X117423571Y-109114285D01*
X117947380Y-109114285D01*
X117423571Y-109114285D02*
X117328333Y-109066666D01*
X117280714Y-108971428D01*
X117280714Y-108828571D01*
X117328333Y-108733333D01*
X117423571Y-108685714D01*
X117947380Y-108685714D01*
X117947380Y-108209523D02*
X117280714Y-108209523D01*
X117375952Y-108209523D02*
X117328333Y-108161904D01*
X117280714Y-108066666D01*
X117280714Y-107923809D01*
X117328333Y-107828571D01*
X117423571Y-107780952D01*
X117947380Y-107780952D01*
X117423571Y-107780952D02*
X117328333Y-107733333D01*
X117280714Y-107638095D01*
X117280714Y-107495238D01*
X117328333Y-107400000D01*
X117423571Y-107352380D01*
X117947380Y-107352380D01*
X119557380Y-116685714D02*
X118557380Y-116685714D01*
X119033571Y-116685714D02*
X119033571Y-116114285D01*
X119557380Y-116114285D02*
X118557380Y-116114285D01*
X119557380Y-114876190D02*
X118557380Y-114876190D01*
X119271666Y-114542857D01*
X118557380Y-114209523D01*
X119557380Y-114209523D01*
X118557380Y-113828571D02*
X118557380Y-113209523D01*
X118938333Y-113542857D01*
X118938333Y-113400000D01*
X118985952Y-113304761D01*
X119033571Y-113257142D01*
X119128809Y-113209523D01*
X119366904Y-113209523D01*
X119462142Y-113257142D01*
X119509761Y-113304761D01*
X119557380Y-113400000D01*
X119557380Y-113685714D01*
X119509761Y-113780952D01*
X119462142Y-113828571D01*
X119557380Y-112876190D02*
X118890714Y-112352380D01*
X118890714Y-112876190D02*
X119557380Y-112352380D01*
X119557380Y-111447619D02*
X119557380Y-112019047D01*
X119557380Y-111733333D02*
X118557380Y-111733333D01*
X118700238Y-111828571D01*
X118795476Y-111923809D01*
X118843095Y-112019047D01*
X118557380Y-111114285D02*
X118557380Y-110495238D01*
X118938333Y-110828571D01*
X118938333Y-110685714D01*
X118985952Y-110590476D01*
X119033571Y-110542857D01*
X119128809Y-110495238D01*
X119366904Y-110495238D01*
X119462142Y-110542857D01*
X119509761Y-110590476D01*
X119557380Y-110685714D01*
X119557380Y-110971428D01*
X119509761Y-111066666D01*
X119462142Y-111114285D01*
X119557380Y-109304761D02*
X118890714Y-109304761D01*
X118985952Y-109304761D02*
X118938333Y-109257142D01*
X118890714Y-109161904D01*
X118890714Y-109019047D01*
X118938333Y-108923809D01*
X119033571Y-108876190D01*
X119557380Y-108876190D01*
X119033571Y-108876190D02*
X118938333Y-108828571D01*
X118890714Y-108733333D01*
X118890714Y-108590476D01*
X118938333Y-108495238D01*
X119033571Y-108447619D01*
X119557380Y-108447619D01*
X119557380Y-107971428D02*
X118890714Y-107971428D01*
X118985952Y-107971428D02*
X118938333Y-107923809D01*
X118890714Y-107828571D01*
X118890714Y-107685714D01*
X118938333Y-107590476D01*
X119033571Y-107542857D01*
X119557380Y-107542857D01*
X119033571Y-107542857D02*
X118938333Y-107495238D01*
X118890714Y-107400000D01*
X118890714Y-107257142D01*
X118938333Y-107161904D01*
X119033571Y-107114285D01*
X119557380Y-107114285D01*
D11*
X112416071Y-121089285D02*
X112416071Y-121696428D01*
X112451785Y-121767857D01*
X112487500Y-121803571D01*
X112558928Y-121839285D01*
X112701785Y-121839285D01*
X112773214Y-121803571D01*
X112808928Y-121767857D01*
X112844642Y-121696428D01*
X112844642Y-121089285D01*
X113166071Y-121160714D02*
X113201785Y-121125000D01*
X113273214Y-121089285D01*
X113451785Y-121089285D01*
X113523214Y-121125000D01*
X113558928Y-121160714D01*
X113594642Y-121232142D01*
X113594642Y-121303571D01*
X113558928Y-121410714D01*
X113130357Y-121839285D01*
X113594642Y-121839285D01*
X111428571Y-106889285D02*
X111428571Y-107496428D01*
X111464285Y-107567857D01*
X111500000Y-107603571D01*
X111571428Y-107639285D01*
X111714285Y-107639285D01*
X111785714Y-107603571D01*
X111821428Y-107567857D01*
X111857142Y-107496428D01*
X111857142Y-106889285D01*
X112607142Y-107639285D02*
X112178571Y-107639285D01*
X112392857Y-107639285D02*
X112392857Y-106889285D01*
X112321428Y-106996428D01*
X112250000Y-107067857D01*
X112178571Y-107103571D01*
X114875000Y-110517857D02*
X114839285Y-110553571D01*
X114732142Y-110589285D01*
X114660714Y-110589285D01*
X114553571Y-110553571D01*
X114482142Y-110482142D01*
X114446428Y-110410714D01*
X114410714Y-110267857D01*
X114410714Y-110160714D01*
X114446428Y-110017857D01*
X114482142Y-109946428D01*
X114553571Y-109875000D01*
X114660714Y-109839285D01*
X114732142Y-109839285D01*
X114839285Y-109875000D01*
X114875000Y-109910714D01*
X115589285Y-110589285D02*
X115160714Y-110589285D01*
X115375000Y-110589285D02*
X115375000Y-109839285D01*
X115303571Y-109946428D01*
X115232142Y-110017857D01*
X115160714Y-110053571D01*
X115575000Y-120467857D02*
X115539285Y-120503571D01*
X115432142Y-120539285D01*
X115360714Y-120539285D01*
X115253571Y-120503571D01*
X115182142Y-120432142D01*
X115146428Y-120360714D01*
X115110714Y-120217857D01*
X115110714Y-120110714D01*
X115146428Y-119967857D01*
X115182142Y-119896428D01*
X115253571Y-119825000D01*
X115360714Y-119789285D01*
X115432142Y-119789285D01*
X115539285Y-119825000D01*
X115575000Y-119860714D01*
X115860714Y-119860714D02*
X115896428Y-119825000D01*
X115967857Y-119789285D01*
X116146428Y-119789285D01*
X116217857Y-119825000D01*
X116253571Y-119860714D01*
X116289285Y-119932142D01*
X116289285Y-120003571D01*
X116253571Y-120110714D01*
X115825000Y-120539285D01*
X116289285Y-120539285D01*
X115575000Y-118867857D02*
X115539285Y-118903571D01*
X115432142Y-118939285D01*
X115360714Y-118939285D01*
X115253571Y-118903571D01*
X115182142Y-118832142D01*
X115146428Y-118760714D01*
X115110714Y-118617857D01*
X115110714Y-118510714D01*
X115146428Y-118367857D01*
X115182142Y-118296428D01*
X115253571Y-118225000D01*
X115360714Y-118189285D01*
X115432142Y-118189285D01*
X115539285Y-118225000D01*
X115575000Y-118260714D01*
X115825000Y-118189285D02*
X116289285Y-118189285D01*
X116039285Y-118475000D01*
X116146428Y-118475000D01*
X116217857Y-118510714D01*
X116253571Y-118546428D01*
X116289285Y-118617857D01*
X116289285Y-118796428D01*
X116253571Y-118867857D01*
X116217857Y-118903571D01*
X116146428Y-118939285D01*
X115932142Y-118939285D01*
X115860714Y-118903571D01*
X115825000Y-118867857D01*
D12*
X111837500Y-117950000D02*
X111437500Y-117950000D01*
X111437500Y-120550000D02*
X111837500Y-120550000D01*
X114537500Y-120550000D02*
X114137500Y-120550000D01*
X114537500Y-117950000D02*
X114137500Y-117950000D01*
D13*
X110937500Y-118250000D02*
G75*
G03*
X110937500Y-118250000I-50000J0D01*
G01*
D14*
X113426200Y-107545100D02*
G75*
G03*
X113426200Y-107545100I-76200J0D01*
G01*
X115510000Y-108415580D02*
X115510000Y-108134420D01*
X114490000Y-108415580D02*
X114490000Y-108134420D01*
X118140580Y-119640000D02*
X117859420Y-119640000D01*
X118140580Y-120660000D02*
X117859420Y-120660000D01*
X118140580Y-117940000D02*
X117859420Y-117940000D01*
X118140580Y-118960000D02*
X117859420Y-118960000D01*
%LPC*%
D15*
X111827500Y-118500000D03*
X111827500Y-119000000D03*
X111827500Y-119500000D03*
X111827500Y-120000000D03*
D16*
X112487500Y-120160000D03*
X112987500Y-120160000D03*
X113487500Y-120160000D03*
D15*
X114147500Y-120000000D03*
X114147500Y-119500000D03*
X114147500Y-119000000D03*
X114147500Y-118500000D03*
D16*
X113487500Y-118340000D03*
X112987500Y-118340000D03*
X112487500Y-118340000D03*
D17*
X113349999Y-108653100D03*
X112150001Y-108653100D03*
X112150001Y-109846900D03*
X113349999Y-109846900D03*
D18*
X103500000Y-103500000D03*
D19*
X115000000Y-109050000D03*
X115000000Y-107500000D03*
D18*
X116500000Y-103500000D03*
D20*
X118775000Y-120150000D03*
X117225000Y-120150000D03*
X118775000Y-118450000D03*
X117225000Y-118450000D03*
D21*
X105265000Y-114450000D03*
D22*
X109585000Y-112950000D03*
D23*
X109585000Y-115950000D03*
X112585000Y-112950000D03*
X112585000Y-115950000D03*
D24*
X110000000Y-105540000D03*
D25*
X110000000Y-103000000D03*
M02*
