G04 #@! TF.GenerationSoftware,KiCad,Pcbnew,(6.0.11-0)*
G04 #@! TF.CreationDate,2025-05-12T21:50:11-06:00*
G04 #@! TF.ProjectId,LightSensorPCB,4c696768-7453-4656-9e73-6f725043422e,rev?*
G04 #@! TF.SameCoordinates,Original*
G04 #@! TF.FileFunction,Paste,Top*
G04 #@! TF.FilePolarity,Positive*
%FSLAX46Y46*%
G04 Gerber Fmt 4.6, Leading zero omitted, Abs format (unit mm)*
G04 Created by KiCad (PCBNEW (6.0.11-0)) date 2025-05-12 21:50:11*
%MOMM*%
%LPD*%
G01*
G04 APERTURE LIST*
G04 Aperture macros list*
%AMRoundRect*
0 Rectangle with rounded corners*
0 $1 Rounding radius*
0 $2 $3 $4 $5 $6 $7 $8 $9 X,Y pos of 4 corners*
0 Add a 4 corners polygon primitive as box body*
4,1,4,$2,$3,$4,$5,$6,$7,$8,$9,$2,$3,0*
0 Add four circle primitives for the rounded corners*
1,1,$1+$1,$2,$3*
1,1,$1+$1,$4,$5*
1,1,$1+$1,$6,$7*
1,1,$1+$1,$8,$9*
0 Add four rect primitives between the rounded corners*
20,1,$1+$1,$2,$3,$4,$5,0*
20,1,$1+$1,$4,$5,$6,$7,0*
20,1,$1+$1,$6,$7,$8,$9,0*
20,1,$1+$1,$8,$9,$2,$3,0*%
G04 Aperture macros list end*
%ADD10C,0.010000*%
%ADD11RoundRect,0.250000X-0.250000X-0.475000X0.250000X-0.475000X0.250000X0.475000X-0.250000X0.475000X0*%
%ADD12RoundRect,0.225000X-0.225000X-0.250000X0.225000X-0.250000X0.225000X0.250000X-0.225000X0.250000X0*%
%ADD13R,0.350000X0.600000*%
%ADD14R,0.600000X0.350000*%
%ADD15R,0.609600X1.549400*%
%ADD16R,1.193800X1.803400*%
%ADD17RoundRect,0.225000X0.225000X0.250000X-0.225000X0.250000X-0.225000X-0.250000X0.225000X-0.250000X0*%
%ADD18R,0.500000X0.500000*%
%ADD19RoundRect,0.218750X-0.256250X0.218750X-0.256250X-0.218750X0.256250X-0.218750X0.256250X0.218750X0*%
%ADD20RoundRect,0.200000X-0.275000X0.200000X-0.275000X-0.200000X0.275000X-0.200000X0.275000X0.200000X0*%
%ADD21RoundRect,0.200000X0.275000X-0.200000X0.275000X0.200000X-0.275000X0.200000X-0.275000X-0.200000X0*%
%ADD22RoundRect,0.225000X0.250000X-0.225000X0.250000X0.225000X-0.250000X0.225000X-0.250000X-0.225000X0*%
G04 APERTURE END LIST*
G36*
X116950000Y-113430000D02*
G01*
X116700000Y-113430000D01*
X116700000Y-113350000D01*
X116450000Y-113350000D01*
X116450000Y-112850000D01*
X116950000Y-112850000D01*
X116950000Y-113430000D01*
G37*
D10*
X116950000Y-113430000D02*
X116700000Y-113430000D01*
X116700000Y-113350000D01*
X116450000Y-113350000D01*
X116450000Y-112850000D01*
X116950000Y-112850000D01*
X116950000Y-113430000D01*
D11*
X115400000Y-117750000D03*
X117300000Y-117750000D03*
D12*
X115575000Y-115650000D03*
X117125000Y-115650000D03*
D13*
X104500000Y-109890000D03*
X104000000Y-109890000D03*
X103500000Y-109890000D03*
X103000000Y-109890000D03*
D14*
X102840000Y-110550000D03*
X102840000Y-111050000D03*
X102840000Y-111550000D03*
D13*
X103000000Y-112210000D03*
X103500000Y-112210000D03*
X104000000Y-112210000D03*
X104500000Y-112210000D03*
D14*
X104660000Y-111550000D03*
X104660000Y-111050000D03*
X104660000Y-110550000D03*
D15*
X109000000Y-114898500D03*
X110000001Y-114898500D03*
X110999999Y-114898500D03*
X112000000Y-114898500D03*
D16*
X107700001Y-118773501D03*
X113299999Y-118773501D03*
D17*
X104525000Y-114050000D03*
X102975000Y-114050000D03*
D18*
X116700000Y-112300000D03*
X116700000Y-111500000D03*
X116700000Y-110700000D03*
X116700000Y-109900000D03*
X117500000Y-109900000D03*
X118300000Y-109900000D03*
X118300000Y-110700000D03*
X118300000Y-111500000D03*
X118300000Y-112300000D03*
X118300000Y-113100000D03*
X117500000Y-113100000D03*
D19*
X104000000Y-116212500D03*
X104000000Y-117787500D03*
D20*
X114750000Y-109675000D03*
X114750000Y-111325000D03*
D21*
X105900000Y-117800000D03*
X105900000Y-116150000D03*
D22*
X101050000Y-111825000D03*
X101050000Y-110275000D03*
M02*
