G04 #@! TF.GenerationSoftware,KiCad,Pcbnew,(6.0.11-0)*
G04 #@! TF.CreationDate,2025-05-12T21:50:11-06:00*
G04 #@! TF.ProjectId,LightSensorPCB,4c696768-7453-4656-9e73-6f725043422e,rev?*
G04 #@! TF.SameCoordinates,Original*
G04 #@! TF.FileFunction,Copper,L1,Top*
G04 #@! TF.FilePolarity,Positive*
%FSLAX46Y46*%
G04 Gerber Fmt 4.6, Leading zero omitted, Abs format (unit mm)*
G04 Created by KiCad (PCBNEW (6.0.11-0)) date 2025-05-12 21:50:11*
%MOMM*%
%LPD*%
G01*
G04 APERTURE LIST*
G04 Aperture macros list*
%AMRoundRect*
0 Rectangle with rounded corners*
0 $1 Rounding radius*
0 $2 $3 $4 $5 $6 $7 $8 $9 X,Y pos of 4 corners*
0 Add a 4 corners polygon primitive as box body*
4,1,4,$2,$3,$4,$5,$6,$7,$8,$9,$2,$3,0*
0 Add four circle primitives for the rounded corners*
1,1,$1+$1,$2,$3*
1,1,$1+$1,$4,$5*
1,1,$1+$1,$6,$7*
1,1,$1+$1,$8,$9*
0 Add four rect primitives between the rounded corners*
20,1,$1+$1,$2,$3,$4,$5,0*
20,1,$1+$1,$4,$5,$6,$7,0*
20,1,$1+$1,$6,$7,$8,$9,0*
20,1,$1+$1,$8,$9,$2,$3,0*%
%AMFreePoly0*
4,1,17,0.253536,0.253536,0.255000,0.250000,0.255000,-0.250000,0.253536,-0.253536,0.250000,-0.255000,-0.330000,-0.255000,-0.333536,-0.253536,-0.335000,-0.250000,-0.335000,0.000000,-0.333536,0.003536,-0.330000,0.005000,-0.255000,0.005000,-0.255000,0.250000,-0.253536,0.253536,-0.250000,0.255000,0.250000,0.255000,0.253536,0.253536,0.253536,0.253536,$1*%
G04 Aperture macros list end*
G04 #@! TA.AperFunction,SMDPad,CuDef*
%ADD10RoundRect,0.250000X-0.250000X-0.475000X0.250000X-0.475000X0.250000X0.475000X-0.250000X0.475000X0*%
G04 #@! TD*
G04 #@! TA.AperFunction,SMDPad,CuDef*
%ADD11RoundRect,0.225000X-0.225000X-0.250000X0.225000X-0.250000X0.225000X0.250000X-0.225000X0.250000X0*%
G04 #@! TD*
G04 #@! TA.AperFunction,SMDPad,CuDef*
%ADD12R,0.350000X0.600000*%
G04 #@! TD*
G04 #@! TA.AperFunction,SMDPad,CuDef*
%ADD13R,0.600000X0.350000*%
G04 #@! TD*
G04 #@! TA.AperFunction,SMDPad,CuDef*
%ADD14C,1.000000*%
G04 #@! TD*
G04 #@! TA.AperFunction,ComponentPad*
%ADD15C,5.600000*%
G04 #@! TD*
G04 #@! TA.AperFunction,SMDPad,CuDef*
%ADD16R,0.609600X1.549400*%
G04 #@! TD*
G04 #@! TA.AperFunction,SMDPad,CuDef*
%ADD17R,1.193800X1.803400*%
G04 #@! TD*
G04 #@! TA.AperFunction,SMDPad,CuDef*
%ADD18RoundRect,0.225000X0.225000X0.250000X-0.225000X0.250000X-0.225000X-0.250000X0.225000X-0.250000X0*%
G04 #@! TD*
G04 #@! TA.AperFunction,SMDPad,CuDef*
%ADD19FreePoly0,90.000000*%
G04 #@! TD*
G04 #@! TA.AperFunction,SMDPad,CuDef*
%ADD20R,0.500000X0.500000*%
G04 #@! TD*
G04 #@! TA.AperFunction,SMDPad,CuDef*
%ADD21RoundRect,0.218750X-0.256250X0.218750X-0.256250X-0.218750X0.256250X-0.218750X0.256250X0.218750X0*%
G04 #@! TD*
G04 #@! TA.AperFunction,SMDPad,CuDef*
%ADD22RoundRect,0.200000X-0.275000X0.200000X-0.275000X-0.200000X0.275000X-0.200000X0.275000X0.200000X0*%
G04 #@! TD*
G04 #@! TA.AperFunction,SMDPad,CuDef*
%ADD23RoundRect,0.200000X0.275000X-0.200000X0.275000X0.200000X-0.275000X0.200000X-0.275000X-0.200000X0*%
G04 #@! TD*
G04 #@! TA.AperFunction,SMDPad,CuDef*
%ADD24RoundRect,0.225000X0.250000X-0.225000X0.250000X0.225000X-0.250000X0.225000X-0.250000X-0.225000X0*%
G04 #@! TD*
G04 #@! TA.AperFunction,ViaPad*
%ADD25C,0.450000*%
G04 #@! TD*
G04 #@! TA.AperFunction,Conductor*
%ADD26C,0.160000*%
G04 #@! TD*
G04 APERTURE END LIST*
D10*
X115400000Y-117750000D03*
X117300000Y-117750000D03*
D11*
X115575000Y-115650000D03*
X117125000Y-115650000D03*
D12*
X104500000Y-109890000D03*
X104000000Y-109890000D03*
X103500000Y-109890000D03*
X103000000Y-109890000D03*
D13*
X102840000Y-110550000D03*
X102840000Y-111050000D03*
X102840000Y-111550000D03*
D12*
X103000000Y-112210000D03*
X103500000Y-112210000D03*
X104000000Y-112210000D03*
X104500000Y-112210000D03*
D13*
X104660000Y-111550000D03*
X104660000Y-111050000D03*
X104660000Y-110550000D03*
D14*
X110400000Y-111700000D03*
D15*
X103500000Y-103500000D03*
D14*
X112500000Y-111700000D03*
X118250000Y-107750000D03*
D16*
X109000000Y-114898500D03*
X110000001Y-114898500D03*
X110999999Y-114898500D03*
X112000000Y-114898500D03*
D17*
X107700001Y-118773501D03*
X113299999Y-118773501D03*
D15*
X116500000Y-103500000D03*
D18*
X104525000Y-114050000D03*
X102975000Y-114050000D03*
D19*
X116700000Y-113100000D03*
D20*
X116700000Y-112300000D03*
X116700000Y-111500000D03*
X116700000Y-110700000D03*
X116700000Y-109900000D03*
X117500000Y-109900000D03*
X118300000Y-109900000D03*
X118300000Y-110700000D03*
X118300000Y-111500000D03*
X118300000Y-112300000D03*
X118300000Y-113100000D03*
X117500000Y-113100000D03*
D21*
X104000000Y-116212500D03*
X104000000Y-117787500D03*
D22*
X114750000Y-109675000D03*
X114750000Y-111325000D03*
D14*
X102950000Y-107850000D03*
D23*
X105900000Y-117800000D03*
X105900000Y-116150000D03*
D24*
X101050000Y-111825000D03*
X101050000Y-110275000D03*
D25*
X118800000Y-116400000D03*
X119000000Y-117800000D03*
X105000000Y-108600000D03*
X101000000Y-113000000D03*
X105200000Y-115000000D03*
X104000000Y-115200000D03*
X102600000Y-116200000D03*
X108000000Y-114800000D03*
X112600000Y-102400000D03*
X119400000Y-108800000D03*
X108220623Y-111581722D03*
X108800000Y-107600000D03*
X113200000Y-106200000D03*
X101400000Y-117200000D03*
X108800000Y-105800000D03*
X114600000Y-114000000D03*
X115800000Y-110600000D03*
X104400000Y-108200000D03*
X106800000Y-113600000D03*
X118800000Y-114800000D03*
X101200000Y-106800000D03*
X110400000Y-118200000D03*
X109200000Y-111800000D03*
X119253730Y-111346270D03*
X106453036Y-110759193D03*
X109643391Y-110902222D03*
X112600000Y-113000000D03*
X105727397Y-111446545D03*
X119167198Y-112426138D03*
D26*
X102000000Y-112000000D02*
X102000000Y-110600000D01*
X116700000Y-113100000D02*
X115500000Y-113100000D01*
X113400000Y-116200000D02*
X114000000Y-115600000D01*
X105900000Y-116150000D02*
X105900000Y-113700000D01*
X108220623Y-111820623D02*
X110000001Y-113600001D01*
X117000000Y-114000000D02*
X116700000Y-113700000D01*
X110366801Y-116200000D02*
X113400000Y-116200000D01*
X103000000Y-112210000D02*
X103000000Y-113000000D01*
X110000001Y-113600001D02*
X110000001Y-114898500D01*
X102840000Y-110550000D02*
X102050000Y-110550000D01*
X116700000Y-113700000D02*
X116700000Y-113100000D01*
X105200000Y-112400000D02*
X104900000Y-112700000D01*
X102210000Y-112210000D02*
X102000000Y-112000000D01*
X110000001Y-115833200D02*
X110366801Y-116200000D01*
X105200000Y-111875000D02*
X105200000Y-112400000D01*
X110000001Y-114898500D02*
X110000001Y-115833200D01*
X115575000Y-115425000D02*
X117000000Y-114000000D01*
X102050000Y-110550000D02*
X101325000Y-110550000D01*
X104875000Y-111550000D02*
X105200000Y-111875000D01*
X114000000Y-115600000D02*
X115525000Y-115600000D01*
X104900000Y-112700000D02*
X104600000Y-113000000D01*
X105900000Y-113700000D02*
X104900000Y-112700000D01*
X102000000Y-110600000D02*
X102050000Y-110550000D01*
X103000000Y-112210000D02*
X102210000Y-112210000D01*
X118300000Y-113100000D02*
X118300000Y-113950000D01*
X103000000Y-113000000D02*
X103000000Y-114025000D01*
X104600000Y-113000000D02*
X103000000Y-113000000D01*
X109683201Y-116150000D02*
X105900000Y-116150000D01*
X115575000Y-115650000D02*
X115575000Y-117575000D01*
X115500000Y-113100000D02*
X114600000Y-112200000D01*
X110000001Y-115833200D02*
X109683201Y-116150000D01*
X108220623Y-111581722D02*
X108220623Y-111820623D01*
X114600000Y-112200000D02*
X114600000Y-111475000D01*
X118250000Y-114000000D02*
X117000000Y-114000000D01*
X118300000Y-113950000D02*
X118250000Y-114000000D01*
X117500000Y-111500000D02*
X117500000Y-110700000D01*
X116700000Y-110700000D02*
X117500000Y-110700000D01*
X117500000Y-112300000D02*
X117500000Y-111500000D01*
X117500000Y-110700000D02*
X117500000Y-109900000D01*
X117500000Y-113100000D02*
X117500000Y-112300000D01*
X104000000Y-111250000D02*
X104000000Y-109890000D01*
X116700000Y-112300000D02*
X117500000Y-112300000D01*
X116700000Y-111500000D02*
X117500000Y-111500000D01*
X103500000Y-109890000D02*
X104500000Y-109890000D01*
X103700000Y-111550000D02*
X104000000Y-111250000D01*
X103500000Y-109890000D02*
X103500000Y-110925000D01*
X103375000Y-111050000D02*
X102840000Y-111050000D01*
X102840000Y-111550000D02*
X103700000Y-111550000D01*
X103500000Y-110925000D02*
X103375000Y-111050000D01*
X105050000Y-109850000D02*
X105050000Y-110250000D01*
X109200000Y-111800000D02*
X110300000Y-111800000D01*
X118300000Y-111500000D02*
X119100000Y-111500000D01*
X105650000Y-110250000D02*
X105650000Y-109850000D01*
X119100000Y-111500000D02*
X119253730Y-111346270D01*
X106453036Y-110759193D02*
X106243843Y-110550000D01*
X106243843Y-110550000D02*
X105950000Y-110550000D01*
X110999999Y-114898500D02*
X110999999Y-112299999D01*
X110999999Y-112299999D02*
X110400000Y-111700000D01*
X105350000Y-109550000D02*
G75*
G02*
X105650000Y-109850000I0J-300000D01*
G01*
X104750000Y-110550000D02*
G75*
G03*
X105050000Y-110250000I0J300000D01*
G01*
X105650000Y-110250000D02*
G75*
G03*
X105950000Y-110550000I300000J0D01*
G01*
X105050000Y-109850000D02*
G75*
G02*
X105350000Y-109550000I300000J0D01*
G01*
X104660000Y-111050000D02*
X105330852Y-111050000D01*
X119041060Y-112300000D02*
X119167198Y-112426138D01*
X112000000Y-114898500D02*
X112000001Y-112199999D01*
X107497778Y-110902222D02*
X106953455Y-111446545D01*
X109643391Y-110902222D02*
X107497778Y-110902222D01*
X118300000Y-112300000D02*
X119041060Y-112300000D01*
X105330852Y-111050000D02*
X105727397Y-111446545D01*
X112000001Y-112199999D02*
X112500000Y-111700000D01*
X106953455Y-111446545D02*
X105727397Y-111446545D01*
X112600000Y-113000000D02*
X112600000Y-111800000D01*
X105900000Y-117800000D02*
X104012500Y-117800000D01*
X102950000Y-107850000D02*
X102950000Y-109840000D01*
X118300000Y-109900000D02*
X118300000Y-107800000D01*
X116700000Y-109900000D02*
X114975000Y-109900000D01*
G04 #@! TA.AperFunction,Conductor*
G36*
X119458331Y-113180285D02*
G01*
X119489655Y-113243998D01*
X119491500Y-113265481D01*
X119491500Y-116950633D01*
X119490000Y-116970018D01*
X119487690Y-116984851D01*
X119487690Y-116984855D01*
X119486309Y-116993724D01*
X119488558Y-117010919D01*
X119489391Y-117034863D01*
X119473794Y-117292710D01*
X119471960Y-117307814D01*
X119433861Y-117515720D01*
X119420477Y-117588754D01*
X119416836Y-117603526D01*
X119347173Y-117827084D01*
X119331859Y-117876227D01*
X119326466Y-117890445D01*
X119210044Y-118149126D01*
X119209243Y-118150906D01*
X119202172Y-118164379D01*
X119054405Y-118408813D01*
X119045762Y-118421334D01*
X118869615Y-118646171D01*
X118859525Y-118657560D01*
X118657560Y-118859525D01*
X118646171Y-118869615D01*
X118421334Y-119045762D01*
X118408813Y-119054405D01*
X118164379Y-119202172D01*
X118150908Y-119209242D01*
X117890445Y-119326466D01*
X117876231Y-119331858D01*
X117603527Y-119416836D01*
X117588760Y-119420475D01*
X117379786Y-119458771D01*
X117307814Y-119471960D01*
X117292710Y-119473794D01*
X117042096Y-119488953D01*
X117015284Y-119487692D01*
X117015148Y-119487690D01*
X117006276Y-119486309D01*
X116997374Y-119487473D01*
X116997372Y-119487473D01*
X116982707Y-119489391D01*
X116974714Y-119490436D01*
X116958379Y-119491500D01*
X114531399Y-119491500D01*
X114463278Y-119471498D01*
X114416785Y-119417842D01*
X114405399Y-119365500D01*
X114405399Y-118857296D01*
X114425401Y-118789175D01*
X114479057Y-118742682D01*
X114549331Y-118732578D01*
X114613911Y-118762072D01*
X114620417Y-118768123D01*
X114676697Y-118824305D01*
X114682927Y-118828145D01*
X114682928Y-118828146D01*
X114820288Y-118912816D01*
X114827262Y-118917115D01*
X114907005Y-118943564D01*
X114988611Y-118970632D01*
X114988613Y-118970632D01*
X114995139Y-118972797D01*
X115001975Y-118973497D01*
X115001978Y-118973498D01*
X115045031Y-118977909D01*
X115099600Y-118983500D01*
X115700400Y-118983500D01*
X115703646Y-118983163D01*
X115703650Y-118983163D01*
X115799308Y-118973238D01*
X115799312Y-118973237D01*
X115806166Y-118972526D01*
X115812702Y-118970345D01*
X115812704Y-118970345D01*
X115944806Y-118926272D01*
X115973946Y-118916550D01*
X116124348Y-118823478D01*
X116249305Y-118698303D01*
X116252102Y-118693765D01*
X116309353Y-118653176D01*
X116380276Y-118649946D01*
X116441687Y-118685572D01*
X116449062Y-118694068D01*
X116457098Y-118704207D01*
X116571829Y-118818739D01*
X116583240Y-118827751D01*
X116721243Y-118912816D01*
X116734424Y-118918963D01*
X116888710Y-118970138D01*
X116902086Y-118973005D01*
X116996438Y-118982672D01*
X117002854Y-118983000D01*
X117027885Y-118983000D01*
X117043124Y-118978525D01*
X117044329Y-118977135D01*
X117046000Y-118969452D01*
X117046000Y-118964884D01*
X117554000Y-118964884D01*
X117558475Y-118980123D01*
X117559865Y-118981328D01*
X117567548Y-118982999D01*
X117597095Y-118982999D01*
X117603614Y-118982662D01*
X117699206Y-118972743D01*
X117712600Y-118969851D01*
X117866784Y-118918412D01*
X117879962Y-118912239D01*
X118017807Y-118826937D01*
X118029208Y-118817901D01*
X118143739Y-118703171D01*
X118152751Y-118691760D01*
X118237816Y-118553757D01*
X118243963Y-118540576D01*
X118295138Y-118386290D01*
X118298005Y-118372914D01*
X118307672Y-118278562D01*
X118308000Y-118272146D01*
X118308000Y-118022115D01*
X118303525Y-118006876D01*
X118302135Y-118005671D01*
X118294452Y-118004000D01*
X117572115Y-118004000D01*
X117556876Y-118008475D01*
X117555671Y-118009865D01*
X117554000Y-118017548D01*
X117554000Y-118964884D01*
X117046000Y-118964884D01*
X117046000Y-116691115D01*
X117041525Y-116675876D01*
X117040135Y-116674671D01*
X117032452Y-116673000D01*
X116997000Y-116673000D01*
X116928879Y-116652998D01*
X116882386Y-116599342D01*
X116871000Y-116547000D01*
X116871000Y-116458885D01*
X117379000Y-116458885D01*
X117383475Y-116474124D01*
X117384865Y-116475329D01*
X117392548Y-116477000D01*
X117428000Y-116477000D01*
X117496121Y-116497002D01*
X117542614Y-116550658D01*
X117554000Y-116603000D01*
X117554000Y-117477885D01*
X117558475Y-117493124D01*
X117559865Y-117494329D01*
X117567548Y-117496000D01*
X118289884Y-117496000D01*
X118305123Y-117491525D01*
X118306328Y-117490135D01*
X118307999Y-117482452D01*
X118307999Y-117227905D01*
X118307662Y-117221386D01*
X118297743Y-117125794D01*
X118294851Y-117112400D01*
X118243412Y-116958216D01*
X118237239Y-116945038D01*
X118151937Y-116807193D01*
X118142901Y-116795792D01*
X118028171Y-116681261D01*
X118016757Y-116672247D01*
X117903521Y-116602448D01*
X117856027Y-116549676D01*
X117844603Y-116479605D01*
X117872877Y-116414481D01*
X117880463Y-116406170D01*
X117923986Y-116362571D01*
X117932998Y-116351160D01*
X118015004Y-116218120D01*
X118021151Y-116204939D01*
X118070491Y-116056186D01*
X118073358Y-116042810D01*
X118082673Y-115951896D01*
X118083000Y-115945487D01*
X118083000Y-115922115D01*
X118078525Y-115906876D01*
X118077135Y-115905671D01*
X118069452Y-115904000D01*
X117397115Y-115904000D01*
X117381876Y-115908475D01*
X117380671Y-115909865D01*
X117379000Y-115917548D01*
X117379000Y-116458885D01*
X116871000Y-116458885D01*
X116871000Y-115522000D01*
X116891002Y-115453879D01*
X116944658Y-115407386D01*
X116997000Y-115396000D01*
X118064885Y-115396000D01*
X118080124Y-115391525D01*
X118081329Y-115390135D01*
X118083000Y-115382452D01*
X118083000Y-115354562D01*
X118082663Y-115348047D01*
X118073106Y-115255943D01*
X118070212Y-115242544D01*
X118020619Y-115093893D01*
X118014445Y-115080714D01*
X117932212Y-114947827D01*
X117923176Y-114936426D01*
X117812572Y-114826015D01*
X117796576Y-114813382D01*
X117755513Y-114755465D01*
X117752281Y-114684542D01*
X117787906Y-114623130D01*
X117851078Y-114590728D01*
X117874668Y-114588500D01*
X118203170Y-114588500D01*
X118219615Y-114589578D01*
X118250000Y-114593578D01*
X118258189Y-114592500D01*
X118395442Y-114574431D01*
X118395443Y-114574431D01*
X118403630Y-114573353D01*
X118487490Y-114538616D01*
X118546789Y-114514054D01*
X118608256Y-114466889D01*
X118663170Y-114424752D01*
X118663173Y-114424749D01*
X118669723Y-114419723D01*
X118674750Y-114413172D01*
X118674752Y-114413170D01*
X118681333Y-114404593D01*
X118704593Y-114381333D01*
X118713170Y-114374752D01*
X118713172Y-114374750D01*
X118719723Y-114369723D01*
X118724749Y-114363173D01*
X118724752Y-114363170D01*
X118766889Y-114308256D01*
X118814054Y-114246789D01*
X118856876Y-114143406D01*
X118873353Y-114103629D01*
X118876585Y-114079083D01*
X118892500Y-113958188D01*
X118893578Y-113950000D01*
X118889578Y-113919615D01*
X118888500Y-113903170D01*
X118888500Y-113788275D01*
X118908502Y-113720154D01*
X118913674Y-113712710D01*
X118928013Y-113693578D01*
X119000615Y-113596705D01*
X119051745Y-113460316D01*
X119058500Y-113398134D01*
X119058500Y-113287656D01*
X119078502Y-113219535D01*
X119132158Y-113173042D01*
X119173081Y-113162175D01*
X119308601Y-113149842D01*
X119308602Y-113149842D01*
X119315622Y-113149203D01*
X119322324Y-113147025D01*
X119322326Y-113147025D01*
X119326567Y-113145647D01*
X119397534Y-113143621D01*
X119458331Y-113180285D01*
G37*
G04 #@! TD.AperFunction*
G04 #@! TA.AperFunction,Conductor*
G36*
X114663836Y-116208502D02*
G01*
X114702856Y-116248193D01*
X114771248Y-116358713D01*
X114818489Y-116405871D01*
X114852568Y-116468153D01*
X114847565Y-116538973D01*
X114805069Y-116595846D01*
X114795775Y-116602187D01*
X114675652Y-116676522D01*
X114550695Y-116801697D01*
X114546855Y-116807927D01*
X114546854Y-116807928D01*
X114483586Y-116910568D01*
X114457885Y-116952262D01*
X114437888Y-117012552D01*
X114405644Y-117109766D01*
X114402203Y-117120139D01*
X114391500Y-117224600D01*
X114391500Y-117355083D01*
X114371498Y-117423204D01*
X114317842Y-117469697D01*
X114247568Y-117479801D01*
X114189935Y-117455909D01*
X114150791Y-117426572D01*
X114150789Y-117426571D01*
X114143604Y-117421186D01*
X114007215Y-117370056D01*
X113945033Y-117363301D01*
X112654965Y-117363301D01*
X112592783Y-117370056D01*
X112456394Y-117421186D01*
X112339838Y-117508540D01*
X112252484Y-117625096D01*
X112201354Y-117761485D01*
X112194599Y-117823667D01*
X112194599Y-119365500D01*
X112174597Y-119433621D01*
X112120941Y-119480114D01*
X112068599Y-119491500D01*
X108931401Y-119491500D01*
X108863280Y-119471498D01*
X108816787Y-119417842D01*
X108805401Y-119365500D01*
X108805401Y-117823667D01*
X108798646Y-117761485D01*
X108747516Y-117625096D01*
X108660162Y-117508540D01*
X108543606Y-117421186D01*
X108407217Y-117370056D01*
X108345035Y-117363301D01*
X107054967Y-117363301D01*
X107051570Y-117363670D01*
X107000635Y-117369203D01*
X107000633Y-117369203D01*
X106992785Y-117370056D01*
X106985390Y-117372828D01*
X106985387Y-117372829D01*
X106983957Y-117373365D01*
X106982766Y-117373452D01*
X106977703Y-117374656D01*
X106977508Y-117373837D01*
X106913150Y-117378548D01*
X106850782Y-117344626D01*
X106826486Y-117309537D01*
X106825472Y-117306301D01*
X106736639Y-117159619D01*
X106641115Y-117064095D01*
X106607089Y-117001783D01*
X106612154Y-116930968D01*
X106641115Y-116885905D01*
X106736639Y-116790381D01*
X106739228Y-116786107D01*
X106796098Y-116745488D01*
X106837477Y-116738500D01*
X109636371Y-116738500D01*
X109652816Y-116739578D01*
X109683201Y-116743578D01*
X109691390Y-116742500D01*
X109828643Y-116724431D01*
X109828644Y-116724431D01*
X109836831Y-116723353D01*
X109914658Y-116691115D01*
X109920689Y-116688617D01*
X109920691Y-116688616D01*
X109928931Y-116685203D01*
X109999522Y-116677617D01*
X110053849Y-116701651D01*
X110070012Y-116714054D01*
X110213172Y-116773353D01*
X110366801Y-116793578D01*
X110397186Y-116789578D01*
X110413631Y-116788500D01*
X113353170Y-116788500D01*
X113369615Y-116789578D01*
X113400000Y-116793578D01*
X113408189Y-116792500D01*
X113545442Y-116774431D01*
X113545443Y-116774431D01*
X113553630Y-116773353D01*
X113625511Y-116743578D01*
X113637768Y-116738501D01*
X113637770Y-116738500D01*
X113689158Y-116717215D01*
X113689159Y-116717214D01*
X113696789Y-116714054D01*
X113819723Y-116619723D01*
X113838380Y-116595409D01*
X113849247Y-116583018D01*
X114206860Y-116225405D01*
X114269172Y-116191379D01*
X114295955Y-116188500D01*
X114595715Y-116188500D01*
X114663836Y-116208502D01*
G37*
G04 #@! TD.AperFunction*
G04 #@! TA.AperFunction,Conductor*
G36*
X101246121Y-111591002D02*
G01*
X101292614Y-111644658D01*
X101304000Y-111697000D01*
X101304000Y-112764885D01*
X101308475Y-112780124D01*
X101309865Y-112781329D01*
X101317548Y-112783000D01*
X101345438Y-112783000D01*
X101351953Y-112782663D01*
X101444057Y-112773106D01*
X101457456Y-112770212D01*
X101606107Y-112720619D01*
X101619286Y-112714445D01*
X101701079Y-112663830D01*
X101769531Y-112644992D01*
X101837301Y-112666153D01*
X101844080Y-112671008D01*
X101860234Y-112683403D01*
X101895730Y-112710640D01*
X101913211Y-112724054D01*
X101984791Y-112753703D01*
X102056371Y-112783353D01*
X102210000Y-112803578D01*
X102240385Y-112799578D01*
X102256830Y-112798500D01*
X102285500Y-112798500D01*
X102353621Y-112818502D01*
X102400114Y-112872158D01*
X102411500Y-112924500D01*
X102411500Y-112953171D01*
X102410422Y-112969617D01*
X102406422Y-113000000D01*
X102407500Y-113008188D01*
X102410422Y-113030383D01*
X102411500Y-113046829D01*
X102411500Y-113076656D01*
X102391498Y-113144777D01*
X102351804Y-113183799D01*
X102291287Y-113221248D01*
X102170448Y-113342298D01*
X102166608Y-113348528D01*
X102166607Y-113348529D01*
X102093140Y-113467715D01*
X102080698Y-113487899D01*
X102026851Y-113650243D01*
X102016500Y-113751268D01*
X102016500Y-114348732D01*
X102027113Y-114451019D01*
X102029295Y-114457559D01*
X102072981Y-114588500D01*
X102081244Y-114613268D01*
X102085096Y-114619492D01*
X102085096Y-114619493D01*
X102114185Y-114666500D01*
X102171248Y-114758713D01*
X102292298Y-114879552D01*
X102298528Y-114883392D01*
X102298529Y-114883393D01*
X102413302Y-114954140D01*
X102437899Y-114969302D01*
X102600243Y-115023149D01*
X102607080Y-115023849D01*
X102607082Y-115023850D01*
X102648401Y-115028083D01*
X102701268Y-115033500D01*
X103248732Y-115033500D01*
X103251978Y-115033163D01*
X103251982Y-115033163D01*
X103286083Y-115029625D01*
X103351019Y-115022887D01*
X103422284Y-114999111D01*
X103506324Y-114971073D01*
X103506326Y-114971072D01*
X103513268Y-114968756D01*
X103538276Y-114953281D01*
X103652485Y-114882606D01*
X103658713Y-114878752D01*
X103663886Y-114873570D01*
X103669623Y-114869023D01*
X103671055Y-114870830D01*
X103723575Y-114842098D01*
X103794395Y-114847108D01*
X103830853Y-114870499D01*
X103831683Y-114869448D01*
X103848840Y-114882998D01*
X103981880Y-114965004D01*
X103995061Y-114971151D01*
X104143814Y-115020491D01*
X104157190Y-115023358D01*
X104219032Y-115029694D01*
X104253089Y-115043602D01*
X104257003Y-115041360D01*
X104269329Y-115027135D01*
X104271000Y-115019452D01*
X104271000Y-113922000D01*
X104291002Y-113853879D01*
X104344658Y-113807386D01*
X104397000Y-113796000D01*
X104653000Y-113796000D01*
X104721121Y-113816002D01*
X104767614Y-113869658D01*
X104779000Y-113922000D01*
X104779000Y-115014885D01*
X104783475Y-115030124D01*
X104784865Y-115031329D01*
X104792548Y-115033000D01*
X104795438Y-115033000D01*
X104801953Y-115032663D01*
X104894057Y-115023106D01*
X104907456Y-115020212D01*
X105056107Y-114970619D01*
X105069285Y-114964446D01*
X105119197Y-114933559D01*
X105187649Y-114914721D01*
X105255418Y-114935882D01*
X105300990Y-114990323D01*
X105311500Y-115040703D01*
X105311500Y-115240522D01*
X105291498Y-115308643D01*
X105250771Y-115348298D01*
X105240428Y-115354562D01*
X105184619Y-115388361D01*
X105063361Y-115509619D01*
X105059424Y-115516120D01*
X105045324Y-115539402D01*
X104992927Y-115587309D01*
X104922947Y-115599282D01*
X104857603Y-115571521D01*
X104839114Y-115550393D01*
X104838073Y-115551218D01*
X104824494Y-115534085D01*
X104714920Y-115424702D01*
X104703509Y-115415690D01*
X104571709Y-115334447D01*
X104558532Y-115328303D01*
X104411157Y-115279421D01*
X104397789Y-115276555D01*
X104313942Y-115267964D01*
X104279886Y-115254056D01*
X104264169Y-115263058D01*
X104255671Y-115272865D01*
X104254000Y-115280548D01*
X104254000Y-116340500D01*
X104233998Y-116408621D01*
X104180342Y-116455114D01*
X104128000Y-116466500D01*
X103035115Y-116466500D01*
X103019876Y-116470975D01*
X103018671Y-116472365D01*
X103017158Y-116479321D01*
X103017337Y-116482782D01*
X103026804Y-116574021D01*
X103029697Y-116587417D01*
X103078830Y-116734687D01*
X103085004Y-116747866D01*
X103166470Y-116879514D01*
X103175506Y-116890915D01*
X103195158Y-116910533D01*
X103229237Y-116972816D01*
X103224234Y-117043636D01*
X103195314Y-117088723D01*
X103169136Y-117114947D01*
X103080151Y-117259308D01*
X103077846Y-117266256D01*
X103077846Y-117266257D01*
X103042291Y-117373452D01*
X103026762Y-117420269D01*
X103016500Y-117520428D01*
X103016500Y-118054572D01*
X103027022Y-118155982D01*
X103080692Y-118316849D01*
X103169929Y-118461055D01*
X103289947Y-118580864D01*
X103434308Y-118669849D01*
X103441256Y-118672154D01*
X103441257Y-118672154D01*
X103588738Y-118721072D01*
X103588740Y-118721072D01*
X103595269Y-118723238D01*
X103695428Y-118733500D01*
X104304572Y-118733500D01*
X104307818Y-118733163D01*
X104307822Y-118733163D01*
X104341603Y-118729658D01*
X104405982Y-118722978D01*
X104566849Y-118669308D01*
X104711055Y-118580071D01*
X104830864Y-118460053D01*
X104838058Y-118448383D01*
X104890830Y-118400890D01*
X104945317Y-118388500D01*
X104962523Y-118388500D01*
X105030644Y-118408502D01*
X105060533Y-118435712D01*
X105063361Y-118440381D01*
X105184619Y-118561639D01*
X105331301Y-118650472D01*
X105338548Y-118652743D01*
X105338550Y-118652744D01*
X105369079Y-118662311D01*
X105494938Y-118701753D01*
X105568365Y-118708500D01*
X105571263Y-118708500D01*
X105900860Y-118708499D01*
X106231634Y-118708499D01*
X106234492Y-118708236D01*
X106234501Y-118708236D01*
X106270004Y-118704974D01*
X106305062Y-118701753D01*
X106311447Y-118699752D01*
X106430922Y-118662311D01*
X106501907Y-118661027D01*
X106562318Y-118698324D01*
X106592974Y-118762361D01*
X106594601Y-118782545D01*
X106594601Y-119365500D01*
X106574599Y-119433621D01*
X106520943Y-119480114D01*
X106468601Y-119491500D01*
X103049367Y-119491500D01*
X103029982Y-119490000D01*
X103015149Y-119487690D01*
X103015145Y-119487690D01*
X103006276Y-119486309D01*
X102989077Y-119488558D01*
X102965137Y-119489391D01*
X102707290Y-119473794D01*
X102692186Y-119471960D01*
X102620214Y-119458771D01*
X102411240Y-119420475D01*
X102396473Y-119416836D01*
X102123769Y-119331858D01*
X102109555Y-119326466D01*
X101849092Y-119209242D01*
X101835621Y-119202172D01*
X101591187Y-119054405D01*
X101578666Y-119045762D01*
X101353829Y-118869615D01*
X101342440Y-118859525D01*
X101140475Y-118657560D01*
X101130385Y-118646171D01*
X100954238Y-118421334D01*
X100945595Y-118408813D01*
X100797828Y-118164379D01*
X100790757Y-118150906D01*
X100789956Y-118149126D01*
X100673534Y-117890445D01*
X100668141Y-117876227D01*
X100652828Y-117827084D01*
X100583164Y-117603526D01*
X100579523Y-117588754D01*
X100566140Y-117515720D01*
X100528040Y-117307814D01*
X100526206Y-117292710D01*
X100511269Y-117045768D01*
X100512520Y-117022216D01*
X100512334Y-117022199D01*
X100512769Y-117017350D01*
X100513576Y-117012552D01*
X100513729Y-117000000D01*
X100509773Y-116972376D01*
X100508500Y-116954514D01*
X100508500Y-115941700D01*
X103017386Y-115941700D01*
X103021475Y-115955624D01*
X103022865Y-115956829D01*
X103030548Y-115958500D01*
X103727885Y-115958500D01*
X103743124Y-115954025D01*
X103744329Y-115952635D01*
X103746000Y-115944952D01*
X103746000Y-115285115D01*
X103741525Y-115269876D01*
X103740135Y-115268671D01*
X103732452Y-115267000D01*
X103698734Y-115267000D01*
X103692218Y-115267337D01*
X103600979Y-115276804D01*
X103587583Y-115279697D01*
X103440313Y-115328830D01*
X103427134Y-115335004D01*
X103295486Y-115416470D01*
X103284085Y-115425506D01*
X103174702Y-115535080D01*
X103165690Y-115546491D01*
X103084447Y-115678291D01*
X103078303Y-115691468D01*
X103029421Y-115838843D01*
X103026555Y-115852210D01*
X103017386Y-115941700D01*
X100508500Y-115941700D01*
X100508500Y-112897357D01*
X100528502Y-112829236D01*
X100582158Y-112782743D01*
X100650316Y-112772943D01*
X100650345Y-112772657D01*
X100651491Y-112772774D01*
X100652432Y-112772639D01*
X100655462Y-112773181D01*
X100748097Y-112782672D01*
X100754513Y-112783000D01*
X100777885Y-112783000D01*
X100793124Y-112778525D01*
X100794329Y-112777135D01*
X100796000Y-112769452D01*
X100796000Y-111697000D01*
X100816002Y-111628879D01*
X100869658Y-111582386D01*
X100922000Y-111571000D01*
X101178000Y-111571000D01*
X101246121Y-111591002D01*
G37*
G04 #@! TD.AperFunction*
G04 #@! TA.AperFunction,Conductor*
G36*
X114668127Y-100528502D02*
G01*
X114714620Y-100582158D01*
X114724724Y-100652432D01*
X114695230Y-100717012D01*
X114664715Y-100742614D01*
X114647193Y-100753101D01*
X114644467Y-100755163D01*
X114644465Y-100755164D01*
X114638620Y-100759585D01*
X114361367Y-100969270D01*
X114100559Y-101215043D01*
X113867819Y-101487546D01*
X113865900Y-101490358D01*
X113865897Y-101490363D01*
X113772624Y-101627097D01*
X113665871Y-101783591D01*
X113497077Y-102099714D01*
X113363411Y-102432218D01*
X113362491Y-102435492D01*
X113362489Y-102435497D01*
X113360332Y-102443173D01*
X113266437Y-102777213D01*
X113265875Y-102780570D01*
X113265875Y-102780571D01*
X113230931Y-102989392D01*
X113207290Y-103130663D01*
X113186661Y-103488434D01*
X113204792Y-103846340D01*
X113205329Y-103849695D01*
X113205330Y-103849701D01*
X113210316Y-103880828D01*
X113261470Y-104200195D01*
X113356033Y-104545859D01*
X113487374Y-104879288D01*
X113653957Y-105196582D01*
X113655858Y-105199411D01*
X113655864Y-105199421D01*
X113786858Y-105394359D01*
X113853834Y-105494029D01*
X114084665Y-105768150D01*
X114343751Y-106015738D01*
X114628061Y-106233897D01*
X114660056Y-106253350D01*
X114931355Y-106418303D01*
X114931360Y-106418306D01*
X114934270Y-106420075D01*
X114937358Y-106421521D01*
X114937357Y-106421521D01*
X115255710Y-106570649D01*
X115255720Y-106570653D01*
X115258794Y-106572093D01*
X115262012Y-106573195D01*
X115262015Y-106573196D01*
X115594615Y-106687071D01*
X115594623Y-106687073D01*
X115597838Y-106688174D01*
X115947435Y-106766959D01*
X115999728Y-106772917D01*
X116300114Y-106807142D01*
X116300122Y-106807142D01*
X116303497Y-106807527D01*
X116306901Y-106807545D01*
X116306904Y-106807545D01*
X116501227Y-106808562D01*
X116661857Y-106809403D01*
X116665243Y-106809053D01*
X116665245Y-106809053D01*
X117014932Y-106772917D01*
X117014941Y-106772916D01*
X117018324Y-106772566D01*
X117021657Y-106771852D01*
X117021660Y-106771851D01*
X117278164Y-106716861D01*
X117368727Y-106697446D01*
X117708968Y-106584922D01*
X118035066Y-106436311D01*
X118129052Y-106380506D01*
X118340262Y-106255099D01*
X118340267Y-106255096D01*
X118343207Y-106253350D01*
X118629786Y-106038180D01*
X118891451Y-105793319D01*
X119125140Y-105521630D01*
X119261660Y-105322992D01*
X119316728Y-105278181D01*
X119387281Y-105270256D01*
X119450919Y-105301733D01*
X119487436Y-105362618D01*
X119491500Y-105394359D01*
X119491500Y-107520779D01*
X119471498Y-107588900D01*
X119417842Y-107635393D01*
X119347568Y-107645497D01*
X119282988Y-107616003D01*
X119244604Y-107556277D01*
X119244239Y-107554789D01*
X119244080Y-107553167D01*
X119234302Y-107520779D01*
X119215466Y-107458392D01*
X119186916Y-107363831D01*
X119094066Y-107189204D01*
X119023709Y-107102938D01*
X118972960Y-107040713D01*
X118972957Y-107040710D01*
X118969065Y-107035938D01*
X118962724Y-107030692D01*
X118821425Y-106913799D01*
X118821421Y-106913797D01*
X118816675Y-106909870D01*
X118642701Y-106815802D01*
X118453768Y-106757318D01*
X118447643Y-106756674D01*
X118447642Y-106756674D01*
X118263204Y-106737289D01*
X118263202Y-106737289D01*
X118257075Y-106736645D01*
X118174576Y-106744153D01*
X118066251Y-106754011D01*
X118066248Y-106754012D01*
X118060112Y-106754570D01*
X118054206Y-106756308D01*
X118054202Y-106756309D01*
X117997773Y-106772917D01*
X117870381Y-106810410D01*
X117864923Y-106813263D01*
X117864919Y-106813265D01*
X117785911Y-106854570D01*
X117695110Y-106902040D01*
X117540975Y-107025968D01*
X117537011Y-107030692D01*
X117532609Y-107035938D01*
X117413846Y-107177474D01*
X117410879Y-107182872D01*
X117410875Y-107182877D01*
X117355048Y-107284428D01*
X117318567Y-107350787D01*
X117316706Y-107356654D01*
X117316705Y-107356656D01*
X117264642Y-107520779D01*
X117258765Y-107539306D01*
X117236719Y-107735851D01*
X117237235Y-107741995D01*
X117246460Y-107851852D01*
X117253268Y-107932934D01*
X117307783Y-108123050D01*
X117398187Y-108298956D01*
X117521035Y-108453953D01*
X117525728Y-108457947D01*
X117525729Y-108457948D01*
X117667163Y-108578317D01*
X117706076Y-108637700D01*
X117711500Y-108674271D01*
X117711500Y-109211725D01*
X117691498Y-109279846D01*
X117686326Y-109287290D01*
X117600826Y-109401372D01*
X117543967Y-109443887D01*
X117473148Y-109448913D01*
X117410855Y-109414853D01*
X117399174Y-109401372D01*
X117318645Y-109293923D01*
X117313261Y-109286739D01*
X117306081Y-109281358D01*
X117306078Y-109281355D01*
X117300436Y-109277127D01*
X117257921Y-109220269D01*
X117250000Y-109176300D01*
X117250000Y-109160116D01*
X117245525Y-109144877D01*
X117244135Y-109143672D01*
X117236452Y-109142001D01*
X117205331Y-109142001D01*
X117198510Y-109142371D01*
X117147651Y-109147895D01*
X117130236Y-109152035D01*
X117071942Y-109152034D01*
X117067716Y-109151029D01*
X117060316Y-109148255D01*
X116998134Y-109141500D01*
X116401866Y-109141500D01*
X116339684Y-109148255D01*
X116203295Y-109199385D01*
X116171152Y-109223475D01*
X116087290Y-109286326D01*
X116020784Y-109311174D01*
X116011725Y-109311500D01*
X115808830Y-109311500D01*
X115740709Y-109291498D01*
X115694216Y-109237842D01*
X115688596Y-109223180D01*
X115677743Y-109188548D01*
X115675472Y-109181301D01*
X115586639Y-109034619D01*
X115465381Y-108913361D01*
X115318699Y-108824528D01*
X115311452Y-108822257D01*
X115311450Y-108822256D01*
X115245164Y-108801483D01*
X115155062Y-108773247D01*
X115081635Y-108766500D01*
X115078737Y-108766500D01*
X114749140Y-108766501D01*
X114418366Y-108766501D01*
X114415508Y-108766764D01*
X114415499Y-108766764D01*
X114379996Y-108770026D01*
X114344938Y-108773247D01*
X114338560Y-108775246D01*
X114338559Y-108775246D01*
X114188550Y-108822256D01*
X114188548Y-108822257D01*
X114181301Y-108824528D01*
X114034619Y-108913361D01*
X113913361Y-109034619D01*
X113824528Y-109181301D01*
X113822257Y-109188548D01*
X113822256Y-109188550D01*
X113806809Y-109237842D01*
X113773247Y-109344938D01*
X113766500Y-109418365D01*
X113766501Y-109931634D01*
X113766764Y-109934492D01*
X113766764Y-109934501D01*
X113767407Y-109941498D01*
X113773247Y-110005062D01*
X113775246Y-110011440D01*
X113775246Y-110011441D01*
X113802853Y-110099533D01*
X113824528Y-110168699D01*
X113913361Y-110315381D01*
X114008885Y-110410905D01*
X114042911Y-110473217D01*
X114037846Y-110544032D01*
X114008885Y-110589095D01*
X113913361Y-110684619D01*
X113824528Y-110831301D01*
X113773247Y-110994938D01*
X113766500Y-111068365D01*
X113766501Y-111581634D01*
X113766764Y-111584492D01*
X113766764Y-111584501D01*
X113770026Y-111620004D01*
X113773247Y-111655062D01*
X113775246Y-111661440D01*
X113775246Y-111661441D01*
X113795298Y-111725425D01*
X113824528Y-111818699D01*
X113913361Y-111965381D01*
X113974595Y-112026615D01*
X114008621Y-112088927D01*
X114011500Y-112115710D01*
X114011500Y-112153170D01*
X114010422Y-112169615D01*
X114006422Y-112200000D01*
X114007500Y-112208189D01*
X114024300Y-112335799D01*
X114026647Y-112353630D01*
X114055846Y-112424120D01*
X114085946Y-112496789D01*
X114129213Y-112553175D01*
X114175248Y-112613170D01*
X114175251Y-112613173D01*
X114180277Y-112619723D01*
X114186827Y-112624749D01*
X114186828Y-112624750D01*
X114204594Y-112638382D01*
X114216985Y-112649250D01*
X115050753Y-113483018D01*
X115061620Y-113495409D01*
X115080277Y-113519723D01*
X115086827Y-113524749D01*
X115104899Y-113538616D01*
X115111141Y-113543406D01*
X115116585Y-113547583D01*
X115180602Y-113596705D01*
X115203211Y-113614054D01*
X115297746Y-113653211D01*
X115346370Y-113673352D01*
X115354554Y-113674429D01*
X115354556Y-113674430D01*
X115491812Y-113692500D01*
X115500000Y-113693578D01*
X115508188Y-113692500D01*
X115530383Y-113689578D01*
X115546829Y-113688500D01*
X115994409Y-113688500D01*
X116062530Y-113708502D01*
X116109023Y-113762158D01*
X116119331Y-113798055D01*
X116126647Y-113853630D01*
X116147168Y-113903170D01*
X116149334Y-113908399D01*
X116156924Y-113978989D01*
X116122021Y-114045714D01*
X115538140Y-114629595D01*
X115475828Y-114663621D01*
X115449045Y-114666500D01*
X115301268Y-114666500D01*
X115298022Y-114666837D01*
X115298018Y-114666837D01*
X115263917Y-114670375D01*
X115198981Y-114677113D01*
X115192440Y-114679295D01*
X115192441Y-114679295D01*
X115043676Y-114728927D01*
X115043674Y-114728928D01*
X115036732Y-114731244D01*
X115030508Y-114735096D01*
X115030507Y-114735096D01*
X114983983Y-114763886D01*
X114891287Y-114821248D01*
X114770448Y-114942298D01*
X114766605Y-114948532D01*
X114766603Y-114948535D01*
X114764702Y-114951618D01*
X114762855Y-114953281D01*
X114762070Y-114954274D01*
X114761900Y-114954140D01*
X114711929Y-114999111D01*
X114657444Y-115011500D01*
X114046829Y-115011500D01*
X114030383Y-115010422D01*
X114008188Y-115007500D01*
X114000000Y-115006422D01*
X113846370Y-115026648D01*
X113838741Y-115029808D01*
X113831035Y-115033000D01*
X113804440Y-115044016D01*
X113703211Y-115085946D01*
X113580277Y-115180277D01*
X113575251Y-115186827D01*
X113561620Y-115204591D01*
X113550753Y-115216982D01*
X113193140Y-115574595D01*
X113130828Y-115608621D01*
X113104045Y-115611500D01*
X112939300Y-115611500D01*
X112871179Y-115591498D01*
X112824686Y-115537842D01*
X112813300Y-115485500D01*
X112813300Y-114075666D01*
X112806545Y-114013484D01*
X112755415Y-113877095D01*
X112753860Y-113875021D01*
X112739377Y-113808803D01*
X112764112Y-113742255D01*
X112826129Y-113697817D01*
X112883998Y-113679014D01*
X112898230Y-113674390D01*
X112898233Y-113674389D01*
X112904929Y-113672213D01*
X113046279Y-113587951D01*
X113165449Y-113474468D01*
X113169936Y-113467715D01*
X113252614Y-113343275D01*
X113252615Y-113343273D01*
X113256515Y-113337403D01*
X113314951Y-113183568D01*
X113326927Y-113098351D01*
X113337302Y-113024534D01*
X113337303Y-113024527D01*
X113337853Y-113020610D01*
X113338141Y-113000000D01*
X113319798Y-112836466D01*
X113265680Y-112681060D01*
X113254914Y-112663830D01*
X113207646Y-112588187D01*
X113188500Y-112521417D01*
X113188500Y-112492707D01*
X113208502Y-112424586D01*
X113219114Y-112410382D01*
X113328078Y-112284145D01*
X113425769Y-112112179D01*
X113488197Y-111924513D01*
X113512985Y-111728295D01*
X113513380Y-111700000D01*
X113494080Y-111503167D01*
X113436916Y-111313831D01*
X113344066Y-111139204D01*
X113273709Y-111052938D01*
X113222960Y-110990713D01*
X113222957Y-110990710D01*
X113219065Y-110985938D01*
X113211149Y-110979389D01*
X113071425Y-110863799D01*
X113071421Y-110863797D01*
X113066675Y-110859870D01*
X112892701Y-110765802D01*
X112703768Y-110707318D01*
X112697643Y-110706674D01*
X112697642Y-110706674D01*
X112513204Y-110687289D01*
X112513202Y-110687289D01*
X112507075Y-110686645D01*
X112446970Y-110692115D01*
X112316251Y-110704011D01*
X112316248Y-110704012D01*
X112310112Y-110704570D01*
X112304206Y-110706308D01*
X112304202Y-110706309D01*
X112199076Y-110737249D01*
X112120381Y-110760410D01*
X112114923Y-110763263D01*
X112114919Y-110763265D01*
X112096042Y-110773134D01*
X111945110Y-110852040D01*
X111790975Y-110975968D01*
X111663846Y-111127474D01*
X111660879Y-111132872D01*
X111660875Y-111132877D01*
X111605558Y-111233500D01*
X111568567Y-111300787D01*
X111566703Y-111306664D01*
X111565810Y-111308747D01*
X111520592Y-111363482D01*
X111452960Y-111385080D01*
X111384388Y-111366686D01*
X111337189Y-111314736D01*
X111336916Y-111313831D01*
X111244066Y-111139204D01*
X111173709Y-111052938D01*
X111122960Y-110990713D01*
X111122957Y-110990710D01*
X111119065Y-110985938D01*
X111111149Y-110979389D01*
X110971425Y-110863799D01*
X110971421Y-110863797D01*
X110966675Y-110859870D01*
X110792701Y-110765802D01*
X110603768Y-110707318D01*
X110597645Y-110706675D01*
X110597643Y-110706674D01*
X110422233Y-110688238D01*
X110356577Y-110661225D01*
X110316413Y-110604366D01*
X110309071Y-110583282D01*
X110221867Y-110443727D01*
X110139654Y-110360938D01*
X110110877Y-110331959D01*
X110110873Y-110331956D01*
X110105913Y-110326961D01*
X109966971Y-110238785D01*
X109843214Y-110194717D01*
X109818580Y-110185945D01*
X109818578Y-110185944D01*
X109811946Y-110183583D01*
X109804960Y-110182750D01*
X109804956Y-110182749D01*
X109687122Y-110168699D01*
X109648544Y-110164099D01*
X109641541Y-110164835D01*
X109641540Y-110164835D01*
X109598326Y-110169377D01*
X109484886Y-110181300D01*
X109478218Y-110183570D01*
X109335773Y-110232062D01*
X109335770Y-110232063D01*
X109329106Y-110234332D01*
X109269740Y-110270854D01*
X109230426Y-110295040D01*
X109164404Y-110313722D01*
X107544608Y-110313722D01*
X107528162Y-110312644D01*
X107497778Y-110308644D01*
X107489589Y-110309722D01*
X107352336Y-110327791D01*
X107352335Y-110327791D01*
X107344148Y-110328869D01*
X107274971Y-110357524D01*
X107274970Y-110357524D01*
X107208324Y-110385129D01*
X107137734Y-110392718D01*
X107074248Y-110360938D01*
X107053254Y-110335491D01*
X107035247Y-110306675D01*
X107035246Y-110306674D01*
X107031512Y-110300698D01*
X106933035Y-110201531D01*
X106920522Y-110188930D01*
X106920518Y-110188927D01*
X106915558Y-110183932D01*
X106776616Y-110095756D01*
X106621591Y-110040554D01*
X106540776Y-110030918D01*
X106507477Y-110022213D01*
X106469354Y-110006422D01*
X106450007Y-109998408D01*
X106397473Y-109976647D01*
X106352054Y-109970668D01*
X106287128Y-109941947D01*
X106248035Y-109882682D01*
X106243372Y-109851565D01*
X106243578Y-109850000D01*
X106240752Y-109828536D01*
X106240281Y-109824439D01*
X106226251Y-109681987D01*
X106225644Y-109675824D01*
X106203210Y-109601866D01*
X106176636Y-109514264D01*
X106176635Y-109514261D01*
X106174839Y-109508341D01*
X106092335Y-109353987D01*
X105981304Y-109218696D01*
X105846013Y-109107665D01*
X105800703Y-109083446D01*
X105697120Y-109028080D01*
X105691659Y-109025161D01*
X105685739Y-109023365D01*
X105685736Y-109023364D01*
X105530098Y-108976152D01*
X105530094Y-108976151D01*
X105524176Y-108974356D01*
X105516741Y-108973624D01*
X105375557Y-108959718D01*
X105371464Y-108959247D01*
X105358192Y-108957500D01*
X105358189Y-108957500D01*
X105350000Y-108956422D01*
X105341811Y-108957500D01*
X105341808Y-108957500D01*
X105328536Y-108959247D01*
X105324443Y-108959718D01*
X105183259Y-108973624D01*
X105175824Y-108974356D01*
X105169906Y-108976151D01*
X105169902Y-108976152D01*
X105014264Y-109023364D01*
X105014261Y-109023365D01*
X105008341Y-109025161D01*
X105002880Y-109028080D01*
X104896697Y-109084836D01*
X104827191Y-109099308D01*
X104800298Y-109093309D01*
X104800289Y-109093348D01*
X104797475Y-109092679D01*
X104793078Y-109091698D01*
X104792607Y-109091521D01*
X104777357Y-109087895D01*
X104726486Y-109082369D01*
X104719672Y-109082000D01*
X104693115Y-109082000D01*
X104677876Y-109086475D01*
X104676671Y-109087865D01*
X104675000Y-109095548D01*
X104675000Y-109226855D01*
X104654998Y-109294976D01*
X104646400Y-109306788D01*
X104616440Y-109343295D01*
X104607665Y-109353987D01*
X104604748Y-109359445D01*
X104604747Y-109359446D01*
X104562122Y-109439192D01*
X104512370Y-109489840D01*
X104443133Y-109505550D01*
X104376394Y-109481334D01*
X104333342Y-109424880D01*
X104325000Y-109379796D01*
X104325000Y-109100116D01*
X104320525Y-109084877D01*
X104319135Y-109083672D01*
X104311452Y-109082001D01*
X104280330Y-109082001D01*
X104273518Y-109082370D01*
X104263614Y-109083446D01*
X104236393Y-109083446D01*
X104226477Y-109082369D01*
X104219673Y-109082000D01*
X104193115Y-109082000D01*
X104177876Y-109086475D01*
X104176671Y-109087865D01*
X104175000Y-109095548D01*
X104175000Y-109696885D01*
X104182899Y-109723788D01*
X104208672Y-109763892D01*
X104208672Y-109834888D01*
X104170288Y-109894614D01*
X104132004Y-109917371D01*
X104127089Y-109919214D01*
X104121702Y-109921233D01*
X104121700Y-109921234D01*
X104113295Y-109924385D01*
X103996739Y-110011739D01*
X103991358Y-110018919D01*
X103985008Y-110025269D01*
X103982997Y-110023258D01*
X103937761Y-110057080D01*
X103893795Y-110065000D01*
X103809500Y-110065000D01*
X103741379Y-110044998D01*
X103694886Y-109991342D01*
X103683500Y-109939000D01*
X103683500Y-109841000D01*
X103703502Y-109772879D01*
X103757158Y-109726386D01*
X103799408Y-109717195D01*
X103822124Y-109710525D01*
X103823329Y-109709135D01*
X103825000Y-109701452D01*
X103825000Y-109100116D01*
X103820525Y-109084877D01*
X103819135Y-109083672D01*
X103811452Y-109082001D01*
X103780330Y-109082001D01*
X103773518Y-109082370D01*
X103763614Y-109083446D01*
X103736393Y-109083446D01*
X103726477Y-109082369D01*
X103719673Y-109082000D01*
X103664500Y-109082000D01*
X103596379Y-109061998D01*
X103549886Y-109008342D01*
X103538500Y-108956000D01*
X103538500Y-108731528D01*
X103558502Y-108663407D01*
X103586927Y-108632238D01*
X103643991Y-108587655D01*
X103643992Y-108587654D01*
X103648847Y-108583861D01*
X103760980Y-108453953D01*
X103774049Y-108438813D01*
X103774050Y-108438811D01*
X103778078Y-108434145D01*
X103875769Y-108262179D01*
X103938197Y-108074513D01*
X103962985Y-107878295D01*
X103963380Y-107850000D01*
X103944080Y-107653167D01*
X103941765Y-107645497D01*
X103907931Y-107533436D01*
X103886916Y-107463831D01*
X103794066Y-107289204D01*
X103699086Y-107172747D01*
X103672960Y-107140713D01*
X103672957Y-107140710D01*
X103669065Y-107135938D01*
X103657014Y-107125968D01*
X103617191Y-107093024D01*
X103543777Y-107032291D01*
X103504040Y-106973458D01*
X103502417Y-106902480D01*
X103539426Y-106841893D01*
X103603316Y-106810932D01*
X103624752Y-106809209D01*
X103646527Y-106809323D01*
X103661857Y-106809403D01*
X103665243Y-106809053D01*
X103665245Y-106809053D01*
X104014932Y-106772917D01*
X104014941Y-106772916D01*
X104018324Y-106772566D01*
X104021657Y-106771852D01*
X104021660Y-106771851D01*
X104278164Y-106716861D01*
X104368727Y-106697446D01*
X104708968Y-106584922D01*
X105035066Y-106436311D01*
X105129052Y-106380506D01*
X105340262Y-106255099D01*
X105340267Y-106255096D01*
X105343207Y-106253350D01*
X105629786Y-106038180D01*
X105891451Y-105793319D01*
X106125140Y-105521630D01*
X106234426Y-105362618D01*
X106326190Y-105229101D01*
X106326195Y-105229094D01*
X106328120Y-105226292D01*
X106329732Y-105223298D01*
X106329737Y-105223290D01*
X106496395Y-104913772D01*
X106498017Y-104910760D01*
X106632842Y-104578724D01*
X106643142Y-104542568D01*
X106663527Y-104471006D01*
X106731020Y-104234070D01*
X106791401Y-103880828D01*
X106793511Y-103846340D01*
X106813168Y-103524928D01*
X106813278Y-103523131D01*
X106813359Y-103500000D01*
X106793979Y-103142159D01*
X106736066Y-102788505D01*
X106640297Y-102443173D01*
X106637243Y-102435497D01*
X106509052Y-102113369D01*
X106507793Y-102110205D01*
X106439016Y-101980308D01*
X106341702Y-101796513D01*
X106341698Y-101796506D01*
X106340103Y-101793494D01*
X106139190Y-101496746D01*
X105907403Y-101223432D01*
X105647454Y-100976750D01*
X105456448Y-100831242D01*
X105365091Y-100761647D01*
X105365089Y-100761646D01*
X105362384Y-100759585D01*
X105359466Y-100757825D01*
X105359459Y-100757820D01*
X105333880Y-100742390D01*
X105285881Y-100690077D01*
X105273785Y-100620118D01*
X105301432Y-100554726D01*
X105360044Y-100514661D01*
X105398962Y-100508500D01*
X114600006Y-100508500D01*
X114668127Y-100528502D01*
G37*
G04 #@! TD.AperFunction*
G04 #@! TA.AperFunction,Conductor*
G36*
X107508076Y-111855601D02*
G01*
X107556787Y-111901627D01*
X107626501Y-112016737D01*
X107635802Y-112032095D01*
X107640694Y-112037161D01*
X107640698Y-112037166D01*
X107681637Y-112079559D01*
X107700120Y-112104085D01*
X107703407Y-112109779D01*
X107706569Y-112117412D01*
X107800900Y-112240346D01*
X107807450Y-112245372D01*
X107825214Y-112259003D01*
X107837605Y-112269870D01*
X108968441Y-113400706D01*
X109002467Y-113463018D01*
X108997402Y-113533833D01*
X108954855Y-113590669D01*
X108888335Y-113615480D01*
X108879346Y-113615801D01*
X108650531Y-113615801D01*
X108643710Y-113616171D01*
X108592848Y-113621695D01*
X108577596Y-113625321D01*
X108457146Y-113670476D01*
X108441551Y-113679014D01*
X108339476Y-113755515D01*
X108326915Y-113768076D01*
X108250414Y-113870151D01*
X108241876Y-113885746D01*
X108196722Y-114006194D01*
X108193095Y-114021449D01*
X108187569Y-114072314D01*
X108187200Y-114079128D01*
X108187200Y-114626385D01*
X108191675Y-114641624D01*
X108193065Y-114642829D01*
X108200748Y-114644500D01*
X109060701Y-114644500D01*
X109128822Y-114664502D01*
X109175315Y-114718158D01*
X109186701Y-114770500D01*
X109186701Y-115026500D01*
X109166699Y-115094621D01*
X109113043Y-115141114D01*
X109060701Y-115152500D01*
X108205316Y-115152500D01*
X108190077Y-115156975D01*
X108188872Y-115158365D01*
X108187201Y-115166048D01*
X108187201Y-115435500D01*
X108167199Y-115503621D01*
X108113543Y-115550114D01*
X108061201Y-115561500D01*
X106837477Y-115561500D01*
X106769356Y-115541498D01*
X106739467Y-115514288D01*
X106736639Y-115509619D01*
X106615381Y-115388361D01*
X106559572Y-115354562D01*
X106549229Y-115348298D01*
X106501322Y-115295901D01*
X106488500Y-115240522D01*
X106488500Y-113746829D01*
X106489578Y-113730383D01*
X106492500Y-113708188D01*
X106493578Y-113700000D01*
X106478899Y-113588500D01*
X106474431Y-113554559D01*
X106473353Y-113546371D01*
X106462315Y-113519723D01*
X106417213Y-113410837D01*
X106417212Y-113410836D01*
X106414054Y-113403211D01*
X106409126Y-113396789D01*
X106319723Y-113280277D01*
X106295405Y-113261617D01*
X106283014Y-113250750D01*
X105777979Y-112745715D01*
X105743953Y-112683403D01*
X105750666Y-112608401D01*
X105770192Y-112561261D01*
X105773353Y-112553630D01*
X105778900Y-112511500D01*
X105792500Y-112408189D01*
X105793578Y-112400000D01*
X105789578Y-112369615D01*
X105788500Y-112353170D01*
X105788500Y-112289496D01*
X105808502Y-112221375D01*
X105862158Y-112174882D01*
X105876058Y-112170339D01*
X105875821Y-112169610D01*
X106025627Y-112120935D01*
X106025630Y-112120934D01*
X106032326Y-112118758D01*
X106142944Y-112052816D01*
X106207462Y-112035045D01*
X106906625Y-112035045D01*
X106923070Y-112036123D01*
X106953455Y-112040123D01*
X106961644Y-112039045D01*
X107098897Y-112020976D01*
X107098898Y-112020976D01*
X107107085Y-112019898D01*
X107194791Y-111983568D01*
X107250244Y-111960599D01*
X107372308Y-111866936D01*
X107438528Y-111841336D01*
X107508076Y-111855601D01*
G37*
G04 #@! TD.AperFunction*
G04 #@! TA.AperFunction,Conductor*
G36*
X116079846Y-110508502D02*
G01*
X116087290Y-110513674D01*
X116203295Y-110600615D01*
X116339684Y-110651745D01*
X116401866Y-110658500D01*
X116824000Y-110658500D01*
X116892121Y-110678502D01*
X116938614Y-110732158D01*
X116950000Y-110784500D01*
X116950000Y-112205271D01*
X116929998Y-112273392D01*
X116876342Y-112319885D01*
X116824000Y-112331271D01*
X116450995Y-112331271D01*
X116450995Y-112332894D01*
X116432988Y-112335155D01*
X116427369Y-112334954D01*
X116404118Y-112334122D01*
X116404116Y-112334122D01*
X116395107Y-112333800D01*
X116386373Y-112336029D01*
X116386371Y-112336029D01*
X116291249Y-112360304D01*
X116253425Y-112369956D01*
X116249598Y-112371541D01*
X116153175Y-112424190D01*
X116147413Y-112429555D01*
X116147410Y-112429557D01*
X116095683Y-112477718D01*
X116032196Y-112509498D01*
X116009823Y-112511500D01*
X115795955Y-112511500D01*
X115727834Y-112491498D01*
X115706860Y-112474595D01*
X115481238Y-112248973D01*
X115447212Y-112186661D01*
X115452277Y-112115846D01*
X115481237Y-112070783D01*
X115586639Y-111965381D01*
X115675472Y-111818699D01*
X115695767Y-111753938D01*
X115735225Y-111694916D01*
X115800328Y-111666596D01*
X115870408Y-111677969D01*
X115923214Y-111725425D01*
X115942001Y-111791617D01*
X115942001Y-111794669D01*
X115942371Y-111801490D01*
X115947895Y-111852354D01*
X115952294Y-111870857D01*
X115952294Y-111929146D01*
X115947895Y-111947649D01*
X115942369Y-111998514D01*
X115942000Y-112005328D01*
X115942000Y-112031885D01*
X115946475Y-112047124D01*
X115947865Y-112048329D01*
X115955548Y-112050000D01*
X116431885Y-112050000D01*
X116447124Y-112045525D01*
X116448329Y-112044135D01*
X116450000Y-112036452D01*
X116450000Y-110968115D01*
X116445525Y-110952876D01*
X116444135Y-110951671D01*
X116436452Y-110950000D01*
X115960116Y-110950000D01*
X115944877Y-110954475D01*
X115923288Y-110979389D01*
X115863562Y-111017772D01*
X115792565Y-111017772D01*
X115732839Y-110979388D01*
X115707830Y-110934555D01*
X115677744Y-110838550D01*
X115677743Y-110838548D01*
X115675472Y-110831301D01*
X115586639Y-110684619D01*
X115588072Y-110683751D01*
X115565167Y-110626293D01*
X115578706Y-110556599D01*
X115627774Y-110505288D01*
X115690614Y-110488500D01*
X116011725Y-110488500D01*
X116079846Y-110508502D01*
G37*
G04 #@! TD.AperFunction*
G04 #@! TA.AperFunction,Conductor*
G36*
X119459296Y-107887990D02*
G01*
X119489892Y-107952056D01*
X119491500Y-107972122D01*
X119491500Y-110493967D01*
X119471498Y-110562088D01*
X119417842Y-110608581D01*
X119350582Y-110619081D01*
X119265877Y-110608981D01*
X119258883Y-110608147D01*
X119197670Y-110614581D01*
X119127833Y-110601809D01*
X119075986Y-110553307D01*
X119058500Y-110489271D01*
X119058500Y-110401866D01*
X119051745Y-110339684D01*
X119048971Y-110332285D01*
X119048225Y-110329146D01*
X119048225Y-110270854D01*
X119048971Y-110267715D01*
X119051745Y-110260316D01*
X119058500Y-110198134D01*
X119058500Y-109601866D01*
X119051745Y-109539684D01*
X119000615Y-109403295D01*
X118913674Y-109287290D01*
X118888826Y-109220784D01*
X118888500Y-109211725D01*
X118888500Y-108592464D01*
X118908502Y-108524343D01*
X118936926Y-108493175D01*
X118943989Y-108487657D01*
X118943992Y-108487654D01*
X118948847Y-108483861D01*
X119078078Y-108334145D01*
X119175769Y-108162179D01*
X119238197Y-107974513D01*
X119240494Y-107956330D01*
X119268875Y-107891254D01*
X119327935Y-107851852D01*
X119398921Y-107850635D01*
X119459296Y-107887990D01*
G37*
G04 #@! TD.AperFunction*
G04 #@! TA.AperFunction,Conductor*
G36*
X100717012Y-105298311D02*
G01*
X100739080Y-105323258D01*
X100853834Y-105494029D01*
X101084665Y-105768150D01*
X101343751Y-106015738D01*
X101628061Y-106233897D01*
X101660056Y-106253350D01*
X101931355Y-106418303D01*
X101931360Y-106418306D01*
X101934270Y-106420075D01*
X101937358Y-106421521D01*
X101937357Y-106421521D01*
X102255710Y-106570649D01*
X102255720Y-106570653D01*
X102258794Y-106572093D01*
X102262012Y-106573195D01*
X102262015Y-106573196D01*
X102561903Y-106675871D01*
X102619872Y-106716861D01*
X102646478Y-106782683D01*
X102633274Y-106852441D01*
X102584452Y-106903987D01*
X102572780Y-106909704D01*
X102570381Y-106910410D01*
X102395110Y-107002040D01*
X102240975Y-107125968D01*
X102113846Y-107277474D01*
X102110879Y-107282872D01*
X102110875Y-107282877D01*
X102032095Y-107426180D01*
X102018567Y-107450787D01*
X102016706Y-107456654D01*
X102016705Y-107456656D01*
X101996364Y-107520779D01*
X101958765Y-107639306D01*
X101936719Y-107835851D01*
X101937235Y-107841995D01*
X101948162Y-107972122D01*
X101953268Y-108032934D01*
X102007783Y-108223050D01*
X102098187Y-108398956D01*
X102221035Y-108553953D01*
X102280320Y-108604408D01*
X102317163Y-108635764D01*
X102356076Y-108695147D01*
X102361500Y-108731718D01*
X102361500Y-109354824D01*
X102353482Y-109399054D01*
X102323255Y-109479684D01*
X102316500Y-109541866D01*
X102316500Y-109835500D01*
X102296498Y-109903621D01*
X102242842Y-109950114D01*
X102190500Y-109961500D01*
X102134535Y-109961500D01*
X102066414Y-109941498D01*
X102019921Y-109887842D01*
X102015012Y-109875377D01*
X101971073Y-109743676D01*
X101971072Y-109743674D01*
X101968756Y-109736732D01*
X101951679Y-109709135D01*
X101882606Y-109597515D01*
X101878752Y-109591287D01*
X101757702Y-109470448D01*
X101706996Y-109439192D01*
X101618331Y-109384538D01*
X101618329Y-109384537D01*
X101612101Y-109380698D01*
X101449757Y-109326851D01*
X101442920Y-109326151D01*
X101442918Y-109326150D01*
X101401599Y-109321917D01*
X101348732Y-109316500D01*
X100751268Y-109316500D01*
X100748022Y-109316837D01*
X100748018Y-109316837D01*
X100648981Y-109327113D01*
X100648695Y-109324359D01*
X100590292Y-109320095D01*
X100533520Y-109277464D01*
X100508808Y-109210907D01*
X100508500Y-109202105D01*
X100508500Y-105393535D01*
X100528502Y-105325414D01*
X100582158Y-105278921D01*
X100652432Y-105268817D01*
X100717012Y-105298311D01*
G37*
G04 #@! TD.AperFunction*
M02*
