G04 #@! TF.GenerationSoftware,KiCad,Pcbnew,(6.0.11-0)*
G04 #@! TF.CreationDate,2023-06-01T19:50:38-06:00*
G04 #@! TF.ProjectId,LightSensorPCB,4c696768-7453-4656-9e73-6f725043422e,rev?*
G04 #@! TF.SameCoordinates,Original*
G04 #@! TF.FileFunction,Legend,Bot*
G04 #@! TF.FilePolarity,Positive*
%FSLAX46Y46*%
G04 Gerber Fmt 4.6, Leading zero omitted, Abs format (unit mm)*
G04 Created by KiCad (PCBNEW (6.0.11-0)) date 2023-06-01 19:50:38*
%MOMM*%
%LPD*%
G01*
G04 APERTURE LIST*
G04 Aperture macros list*
%AMRoundRect*
0 Rectangle with rounded corners*
0 $1 Rounding radius*
0 $2 $3 $4 $5 $6 $7 $8 $9 X,Y pos of 4 corners*
0 Add a 4 corners polygon primitive as box body*
4,1,4,$2,$3,$4,$5,$6,$7,$8,$9,$2,$3,0*
0 Add four circle primitives for the rounded corners*
1,1,$1+$1,$2,$3*
1,1,$1+$1,$4,$5*
1,1,$1+$1,$6,$7*
1,1,$1+$1,$8,$9*
0 Add four rect primitives between the rounded corners*
20,1,$1+$1,$2,$3,$4,$5,0*
20,1,$1+$1,$4,$5,$6,$7,0*
20,1,$1+$1,$6,$7,$8,$9,0*
20,1,$1+$1,$8,$9,$2,$3,0*%
G04 Aperture macros list end*
%ADD10C,0.150000*%
%ADD11C,0.160000*%
%ADD12C,0.120000*%
%ADD13C,0.127000*%
%ADD14C,0.200000*%
%ADD15C,0.010000*%
%ADD16RoundRect,0.250000X-0.250000X-0.475000X0.250000X-0.475000X0.250000X0.475000X-0.250000X0.475000X0*%
%ADD17C,5.600000*%
%ADD18C,3.000000*%
%ADD19RoundRect,0.250001X-0.499999X0.499999X-0.499999X-0.499999X0.499999X-0.499999X0.499999X0.499999X0*%
%ADD20C,1.500000*%
%ADD21RoundRect,0.225000X-0.225000X-0.250000X0.225000X-0.250000X0.225000X0.250000X-0.225000X0.250000X0*%
%ADD22R,1.700000X1.700000*%
%ADD23O,1.700000X1.700000*%
%ADD24R,0.500000X0.500000*%
%ADD25RoundRect,0.218750X-0.218750X-0.256250X0.218750X-0.256250X0.218750X0.256250X-0.218750X0.256250X0*%
%ADD26RoundRect,0.200000X0.275000X-0.200000X0.275000X0.200000X-0.275000X0.200000X-0.275000X-0.200000X0*%
%ADD27RoundRect,0.200000X-0.200000X-0.275000X0.200000X-0.275000X0.200000X0.275000X-0.200000X0.275000X0*%
G04 APERTURE END LIST*
D10*
X108339285Y-104664285D02*
X107589285Y-104664285D01*
X108339285Y-105021428D02*
X107589285Y-105021428D01*
X108339285Y-105450000D01*
X107589285Y-105450000D01*
X107589285Y-105700000D02*
X107589285Y-106128571D01*
X108339285Y-105914285D02*
X107589285Y-105914285D01*
X108339285Y-106771428D02*
X108339285Y-106342857D01*
X108339285Y-106557142D02*
X107589285Y-106557142D01*
X107696428Y-106485714D01*
X107767857Y-106414285D01*
X107803571Y-106342857D01*
X107589285Y-101732142D02*
X108339285Y-101982142D01*
X107589285Y-102232142D01*
X108339285Y-102839285D02*
X108339285Y-102482142D01*
X107589285Y-102482142D01*
X107589285Y-103446428D02*
X107589285Y-103089285D01*
X107946428Y-103053571D01*
X107910714Y-103089285D01*
X107875000Y-103160714D01*
X107875000Y-103339285D01*
X107910714Y-103410714D01*
X107946428Y-103446428D01*
X108017857Y-103482142D01*
X108196428Y-103482142D01*
X108267857Y-103446428D01*
X108303571Y-103410714D01*
X108339285Y-103339285D01*
X108339285Y-103160714D01*
X108303571Y-103089285D01*
X108267857Y-103053571D01*
X108339285Y-104196428D02*
X108339285Y-103767857D01*
X108339285Y-103982142D02*
X107589285Y-103982142D01*
X107696428Y-103910714D01*
X107767857Y-103839285D01*
X107803571Y-103767857D01*
D11*
X106900000Y-122457142D02*
X106290476Y-122457142D01*
X106595238Y-122761904D02*
X106595238Y-122152380D01*
X105985714Y-121961904D02*
X105490476Y-121961904D01*
X105757142Y-122266666D01*
X105642857Y-122266666D01*
X105566666Y-122304761D01*
X105528571Y-122342857D01*
X105490476Y-122419047D01*
X105490476Y-122609523D01*
X105528571Y-122685714D01*
X105566666Y-122723809D01*
X105642857Y-122761904D01*
X105871428Y-122761904D01*
X105947619Y-122723809D01*
X105985714Y-122685714D01*
X105147619Y-122685714D02*
X105109523Y-122723809D01*
X105147619Y-122761904D01*
X105185714Y-122723809D01*
X105147619Y-122685714D01*
X105147619Y-122761904D01*
X104842857Y-121961904D02*
X104347619Y-121961904D01*
X104614285Y-122266666D01*
X104500000Y-122266666D01*
X104423809Y-122304761D01*
X104385714Y-122342857D01*
X104347619Y-122419047D01*
X104347619Y-122609523D01*
X104385714Y-122685714D01*
X104423809Y-122723809D01*
X104500000Y-122761904D01*
X104728571Y-122761904D01*
X104804761Y-122723809D01*
X104842857Y-122685714D01*
X104119047Y-121961904D02*
X103852380Y-122761904D01*
X103585714Y-121961904D01*
D10*
X115425000Y-120667857D02*
X115460714Y-120703571D01*
X115567857Y-120739285D01*
X115639285Y-120739285D01*
X115746428Y-120703571D01*
X115817857Y-120632142D01*
X115853571Y-120560714D01*
X115889285Y-120417857D01*
X115889285Y-120310714D01*
X115853571Y-120167857D01*
X115817857Y-120096428D01*
X115746428Y-120025000D01*
X115639285Y-119989285D01*
X115567857Y-119989285D01*
X115460714Y-120025000D01*
X115425000Y-120060714D01*
X114782142Y-120239285D02*
X114782142Y-120739285D01*
X114960714Y-119953571D02*
X115139285Y-120489285D01*
X114675000Y-120489285D01*
X109950000Y-109689285D02*
X109950000Y-110225000D01*
X109985714Y-110332142D01*
X110057142Y-110403571D01*
X110164285Y-110439285D01*
X110235714Y-110439285D01*
X109200000Y-110439285D02*
X109628571Y-110439285D01*
X109414285Y-110439285D02*
X109414285Y-109689285D01*
X109485714Y-109796428D01*
X109557142Y-109867857D01*
X109628571Y-109903571D01*
X115925000Y-118717857D02*
X115960714Y-118753571D01*
X116067857Y-118789285D01*
X116139285Y-118789285D01*
X116246428Y-118753571D01*
X116317857Y-118682142D01*
X116353571Y-118610714D01*
X116389285Y-118467857D01*
X116389285Y-118360714D01*
X116353571Y-118217857D01*
X116317857Y-118146428D01*
X116246428Y-118075000D01*
X116139285Y-118039285D01*
X116067857Y-118039285D01*
X115960714Y-118075000D01*
X115925000Y-118110714D01*
X115246428Y-118039285D02*
X115603571Y-118039285D01*
X115639285Y-118396428D01*
X115603571Y-118360714D01*
X115532142Y-118325000D01*
X115353571Y-118325000D01*
X115282142Y-118360714D01*
X115246428Y-118396428D01*
X115210714Y-118467857D01*
X115210714Y-118646428D01*
X115246428Y-118717857D01*
X115282142Y-118753571D01*
X115353571Y-118789285D01*
X115532142Y-118789285D01*
X115603571Y-118753571D01*
X115639285Y-118717857D01*
X116371428Y-112289285D02*
X116371428Y-112896428D01*
X116335714Y-112967857D01*
X116300000Y-113003571D01*
X116228571Y-113039285D01*
X116085714Y-113039285D01*
X116014285Y-113003571D01*
X115978571Y-112967857D01*
X115942857Y-112896428D01*
X115942857Y-112289285D01*
X115657142Y-112289285D02*
X115192857Y-112289285D01*
X115442857Y-112575000D01*
X115335714Y-112575000D01*
X115264285Y-112610714D01*
X115228571Y-112646428D01*
X115192857Y-112717857D01*
X115192857Y-112896428D01*
X115228571Y-112967857D01*
X115264285Y-113003571D01*
X115335714Y-113039285D01*
X115550000Y-113039285D01*
X115621428Y-113003571D01*
X115657142Y-112967857D01*
X103253571Y-121339285D02*
X103253571Y-120589285D01*
X103075000Y-120589285D01*
X102967857Y-120625000D01*
X102896428Y-120696428D01*
X102860714Y-120767857D01*
X102825000Y-120910714D01*
X102825000Y-121017857D01*
X102860714Y-121160714D01*
X102896428Y-121232142D01*
X102967857Y-121303571D01*
X103075000Y-121339285D01*
X103253571Y-121339285D01*
X102110714Y-121339285D02*
X102539285Y-121339285D01*
X102325000Y-121339285D02*
X102325000Y-120589285D01*
X102396428Y-120696428D01*
X102467857Y-120767857D01*
X102539285Y-120803571D01*
X118875000Y-108439285D02*
X119125000Y-108082142D01*
X119303571Y-108439285D02*
X119303571Y-107689285D01*
X119017857Y-107689285D01*
X118946428Y-107725000D01*
X118910714Y-107760714D01*
X118875000Y-107832142D01*
X118875000Y-107939285D01*
X118910714Y-108010714D01*
X118946428Y-108046428D01*
X119017857Y-108082142D01*
X119303571Y-108082142D01*
X118232142Y-107939285D02*
X118232142Y-108439285D01*
X118410714Y-107653571D02*
X118589285Y-108189285D01*
X118125000Y-108189285D01*
X111325000Y-121379285D02*
X111575000Y-121022142D01*
X111753571Y-121379285D02*
X111753571Y-120629285D01*
X111467857Y-120629285D01*
X111396428Y-120665000D01*
X111360714Y-120700714D01*
X111325000Y-120772142D01*
X111325000Y-120879285D01*
X111360714Y-120950714D01*
X111396428Y-120986428D01*
X111467857Y-121022142D01*
X111753571Y-121022142D01*
X111075000Y-120629285D02*
X110610714Y-120629285D01*
X110860714Y-120915000D01*
X110753571Y-120915000D01*
X110682142Y-120950714D01*
X110646428Y-120986428D01*
X110610714Y-121057857D01*
X110610714Y-121236428D01*
X110646428Y-121307857D01*
X110682142Y-121343571D01*
X110753571Y-121379285D01*
X110967857Y-121379285D01*
X111039285Y-121343571D01*
X111075000Y-121307857D01*
D12*
X117538748Y-119665000D02*
X118061252Y-119665000D01*
X117538748Y-121135000D02*
X118061252Y-121135000D01*
X100555000Y-110265000D02*
X100555000Y-118635000D01*
X110685000Y-119635000D02*
X110685000Y-109265000D01*
X110685000Y-109265000D02*
X101555000Y-109265000D01*
X101555000Y-109265000D02*
X100555000Y-110265000D01*
X101555000Y-119635000D02*
X110685000Y-119635000D01*
X100555000Y-118635000D02*
X101555000Y-119635000D01*
X117859420Y-117940000D02*
X118140580Y-117940000D01*
X117859420Y-118960000D02*
X118140580Y-118960000D01*
X108670000Y-104270000D02*
X108670000Y-101670000D01*
X111330000Y-104270000D02*
X111330000Y-101670000D01*
X108670000Y-106870000D02*
X110000000Y-106870000D01*
X108670000Y-105540000D02*
X108670000Y-106870000D01*
X108670000Y-101670000D02*
X111330000Y-101670000D01*
X108670000Y-104270000D02*
X111330000Y-104270000D01*
D13*
X119370000Y-116650000D02*
X116630000Y-116650000D01*
X119370000Y-116650000D02*
X119370000Y-112250000D01*
X116630000Y-112250000D02*
X119370000Y-112250000D01*
X116630000Y-112250000D02*
X116630000Y-116650000D01*
D14*
X118885000Y-117352000D02*
G75*
G03*
X118885000Y-117352000I-100000J0D01*
G01*
D12*
X105800000Y-121735000D02*
X103515000Y-121735000D01*
X103515000Y-121735000D02*
X103515000Y-120265000D01*
X103515000Y-120265000D02*
X105800000Y-120265000D01*
X118227500Y-110187258D02*
X118227500Y-109712742D01*
X119272500Y-110187258D02*
X119272500Y-109712742D01*
X108687742Y-121562500D02*
X109162258Y-121562500D01*
X108687742Y-120517500D02*
X109162258Y-120517500D01*
%LPC*%
G36*
X119150000Y-116400000D02*
G01*
X118900000Y-116400000D01*
X118900000Y-116480000D01*
X118450000Y-116480000D01*
X118450000Y-115700000D01*
X119150000Y-115700000D01*
X119150000Y-116400000D01*
G37*
D15*
X119150000Y-116400000D02*
X118900000Y-116400000D01*
X118900000Y-116480000D01*
X118450000Y-116480000D01*
X118450000Y-115700000D01*
X119150000Y-115700000D01*
X119150000Y-116400000D01*
D16*
X116850000Y-120400000D03*
X118750000Y-120400000D03*
D17*
X103500000Y-103500000D03*
X116500000Y-103500000D03*
D18*
X105265000Y-114450000D03*
D19*
X109585000Y-112950000D03*
D20*
X109585000Y-115950000D03*
X112585000Y-112950000D03*
X112585000Y-115950000D03*
D21*
X117225000Y-118450000D03*
X118775000Y-118450000D03*
D22*
X110000000Y-105540000D03*
D23*
X110000000Y-103000000D03*
D24*
X118800000Y-115250000D03*
X118800000Y-114450000D03*
X118800000Y-113650000D03*
X118800000Y-112850000D03*
X118000000Y-112850000D03*
X117200000Y-112850000D03*
X117200000Y-113650000D03*
X117200000Y-114450000D03*
X117200000Y-115250000D03*
X117200000Y-116050000D03*
X118000000Y-116050000D03*
D25*
X104212500Y-121000000D03*
X105787500Y-121000000D03*
D26*
X118750000Y-110775000D03*
X118750000Y-109125000D03*
D27*
X108100000Y-121040000D03*
X109750000Y-121040000D03*
M02*
