G04 #@! TF.GenerationSoftware,KiCad,Pcbnew,(6.0.11-0)*
G04 #@! TF.CreationDate,2025-05-12T21:50:11-06:00*
G04 #@! TF.ProjectId,LightSensorPCB,4c696768-7453-4656-9e73-6f725043422e,rev?*
G04 #@! TF.SameCoordinates,Original*
G04 #@! TF.FileFunction,Copper,L2,Bot*
G04 #@! TF.FilePolarity,Positive*
%FSLAX46Y46*%
G04 Gerber Fmt 4.6, Leading zero omitted, Abs format (unit mm)*
G04 Created by KiCad (PCBNEW (6.0.11-0)) date 2025-05-12 21:50:11*
%MOMM*%
%LPD*%
G01*
G04 APERTURE LIST*
G04 Aperture macros list*
%AMRoundRect*
0 Rectangle with rounded corners*
0 $1 Rounding radius*
0 $2 $3 $4 $5 $6 $7 $8 $9 X,Y pos of 4 corners*
0 Add a 4 corners polygon primitive as box body*
4,1,4,$2,$3,$4,$5,$6,$7,$8,$9,$2,$3,0*
0 Add four circle primitives for the rounded corners*
1,1,$1+$1,$2,$3*
1,1,$1+$1,$4,$5*
1,1,$1+$1,$6,$7*
1,1,$1+$1,$8,$9*
0 Add four rect primitives between the rounded corners*
20,1,$1+$1,$2,$3,$4,$5,0*
20,1,$1+$1,$4,$5,$6,$7,0*
20,1,$1+$1,$6,$7,$8,$9,0*
20,1,$1+$1,$8,$9,$2,$3,0*%
G04 Aperture macros list end*
G04 #@! TA.AperFunction,ComponentPad*
%ADD10C,5.600000*%
G04 #@! TD*
G04 #@! TA.AperFunction,SMDPad,CuDef*
%ADD11R,0.812800X0.660400*%
G04 #@! TD*
G04 #@! TA.AperFunction,SMDPad,CuDef*
%ADD12RoundRect,0.225000X0.250000X-0.225000X0.250000X0.225000X-0.250000X0.225000X-0.250000X-0.225000X0*%
G04 #@! TD*
G04 #@! TA.AperFunction,ViaPad*
%ADD13C,0.450000*%
G04 #@! TD*
G04 #@! TA.AperFunction,Conductor*
%ADD14C,0.160000*%
G04 #@! TD*
G04 APERTURE END LIST*
D10*
X103500000Y-103500000D03*
X116500000Y-103500000D03*
D11*
X109403100Y-109853099D03*
X109403100Y-108653101D03*
X110596900Y-108653101D03*
X110596900Y-109853099D03*
D12*
X107400000Y-109975000D03*
X107400000Y-108425000D03*
D13*
X118800000Y-116400000D03*
X119000000Y-117800000D03*
X105000000Y-108600000D03*
X101000000Y-113000000D03*
X105200000Y-115000000D03*
X104000000Y-115200000D03*
X102600000Y-116200000D03*
X108000000Y-114800000D03*
X112600000Y-102400000D03*
X119400000Y-108800000D03*
X108220623Y-111581722D03*
X108800000Y-107600000D03*
X113200000Y-106200000D03*
X101400000Y-117200000D03*
X108800000Y-105800000D03*
X114600000Y-114000000D03*
X115800000Y-110600000D03*
X104400000Y-108200000D03*
X106800000Y-113600000D03*
X118800000Y-114800000D03*
X101200000Y-106800000D03*
X110400000Y-118200000D03*
X109200000Y-111800000D03*
X119253730Y-111346270D03*
X106453036Y-110759193D03*
X109643391Y-110902222D03*
X112600000Y-113000000D03*
X105727397Y-111446545D03*
X119167198Y-112426138D03*
D14*
X107521901Y-109853099D02*
X109403100Y-109853099D01*
X107400000Y-109975000D02*
X107400000Y-110761099D01*
X107400000Y-110761099D02*
X108220623Y-111581722D01*
X107400000Y-108425000D02*
X107975000Y-108425000D01*
X107975000Y-108425000D02*
X108800000Y-107600000D01*
X110200000Y-106600000D02*
X110600000Y-107000000D01*
X110596900Y-107003100D02*
X110600000Y-107000000D01*
X112960002Y-108653101D02*
X110596900Y-108653101D01*
X119253730Y-111346270D02*
X117400559Y-109493099D01*
X106500586Y-111791470D02*
X106500587Y-111791471D01*
X110596900Y-108653101D02*
X110596900Y-107003100D01*
X107400000Y-106600000D02*
X110200000Y-106600000D01*
X116206901Y-109193099D02*
X116206901Y-108952969D01*
X106453036Y-107546964D02*
X107400000Y-106600000D01*
X108360000Y-112640000D02*
X107349116Y-112640000D01*
X113800000Y-109493099D02*
X112960002Y-108653101D01*
X107349116Y-112215735D02*
X107491643Y-112073207D01*
X109200000Y-111800000D02*
X108360000Y-112640000D01*
X107349115Y-112215735D02*
X107349116Y-112215735D01*
X107067378Y-111648942D02*
X107067378Y-111648943D01*
X106453036Y-110759193D02*
X106453036Y-107546964D01*
X113800000Y-109493099D02*
X115306901Y-109493099D01*
X107067378Y-111648943D02*
X106924850Y-111791470D01*
X117400559Y-109493099D02*
X116506901Y-109493099D01*
X106453036Y-111743920D02*
X106453036Y-110759193D01*
X106500587Y-111791471D02*
X106453036Y-111743920D01*
X115606901Y-108952969D02*
X115606901Y-109193099D01*
X107067368Y-111648932D02*
G75*
G02*
X107491643Y-111648943I212132J-212168D01*
G01*
X115606869Y-108952969D02*
G75*
G02*
X115906901Y-108652969I300031J-31D01*
G01*
X106500587Y-111791469D02*
G75*
G03*
X106924849Y-111791469I212131J212131D01*
G01*
X107349148Y-112215768D02*
G75*
G03*
X107349116Y-112640000I212052J-212132D01*
G01*
X107491618Y-111648968D02*
G75*
G02*
X107491643Y-112073207I-212118J-212132D01*
G01*
X115906901Y-108652999D02*
G75*
G02*
X116206901Y-108952969I-1J-300001D01*
G01*
X115306901Y-109493101D02*
G75*
G03*
X115606901Y-109193099I-1J300001D01*
G01*
X116206901Y-109193099D02*
G75*
G03*
X116506901Y-109493099I299999J-1D01*
G01*
X116799599Y-109853099D02*
X114853099Y-109853099D01*
X119167198Y-112221404D02*
X116799599Y-109853805D01*
X110596900Y-109948713D02*
X109643391Y-110902222D01*
X105727397Y-111446545D02*
X105727397Y-111527397D01*
X113953099Y-110341880D02*
X113953099Y-110153099D01*
X113653099Y-109853099D02*
X110596900Y-109853099D01*
X116799599Y-109853805D02*
X116799599Y-109853099D01*
X114553099Y-110153099D02*
X114553099Y-110341880D01*
X107200000Y-113000000D02*
X112600000Y-113000000D01*
X119167198Y-112426138D02*
X119167198Y-112221404D01*
X105727397Y-111527397D02*
X107200000Y-113000000D01*
X114253099Y-110641899D02*
G75*
G03*
X114553099Y-110341880I1J299999D01*
G01*
X113653099Y-109853101D02*
G75*
G02*
X113953099Y-110153099I1J-299999D01*
G01*
X113953120Y-110341880D02*
G75*
G03*
X114253099Y-110641880I299980J-20D01*
G01*
X114553099Y-110153099D02*
G75*
G02*
X114853099Y-109853099I300001J-1D01*
G01*
G04 #@! TA.AperFunction,Conductor*
G36*
X114668127Y-100528502D02*
G01*
X114714620Y-100582158D01*
X114724724Y-100652432D01*
X114695230Y-100717012D01*
X114664715Y-100742614D01*
X114647193Y-100753101D01*
X114644467Y-100755163D01*
X114644465Y-100755164D01*
X114638620Y-100759585D01*
X114361367Y-100969270D01*
X114100559Y-101215043D01*
X113867819Y-101487546D01*
X113865900Y-101490358D01*
X113865897Y-101490363D01*
X113772624Y-101627097D01*
X113665871Y-101783591D01*
X113497077Y-102099714D01*
X113363411Y-102432218D01*
X113362491Y-102435492D01*
X113362489Y-102435497D01*
X113360332Y-102443173D01*
X113266437Y-102777213D01*
X113265875Y-102780570D01*
X113265875Y-102780571D01*
X113230931Y-102989392D01*
X113207290Y-103130663D01*
X113186661Y-103488434D01*
X113204792Y-103846340D01*
X113205329Y-103849695D01*
X113205330Y-103849701D01*
X113210316Y-103880828D01*
X113261470Y-104200195D01*
X113356033Y-104545859D01*
X113487374Y-104879288D01*
X113653957Y-105196582D01*
X113655858Y-105199411D01*
X113655864Y-105199421D01*
X113786858Y-105394359D01*
X113853834Y-105494029D01*
X114084665Y-105768150D01*
X114343751Y-106015738D01*
X114628061Y-106233897D01*
X114660056Y-106253350D01*
X114931355Y-106418303D01*
X114931360Y-106418306D01*
X114934270Y-106420075D01*
X114937358Y-106421521D01*
X114937357Y-106421521D01*
X115255710Y-106570649D01*
X115255720Y-106570653D01*
X115258794Y-106572093D01*
X115262012Y-106573195D01*
X115262015Y-106573196D01*
X115594615Y-106687071D01*
X115594623Y-106687073D01*
X115597838Y-106688174D01*
X115947435Y-106766959D01*
X115999728Y-106772917D01*
X116300114Y-106807142D01*
X116300122Y-106807142D01*
X116303497Y-106807527D01*
X116306901Y-106807545D01*
X116306904Y-106807545D01*
X116501227Y-106808562D01*
X116661857Y-106809403D01*
X116665243Y-106809053D01*
X116665245Y-106809053D01*
X117014932Y-106772917D01*
X117014941Y-106772916D01*
X117018324Y-106772566D01*
X117021657Y-106771852D01*
X117021660Y-106771851D01*
X117194186Y-106734864D01*
X117368727Y-106697446D01*
X117708968Y-106584922D01*
X118035066Y-106436311D01*
X118129052Y-106380506D01*
X118340262Y-106255099D01*
X118340267Y-106255096D01*
X118343207Y-106253350D01*
X118629786Y-106038180D01*
X118891451Y-105793319D01*
X119125140Y-105521630D01*
X119261660Y-105322992D01*
X119316728Y-105278181D01*
X119387281Y-105270256D01*
X119450919Y-105301733D01*
X119487436Y-105362618D01*
X119491500Y-105394359D01*
X119491500Y-110447585D01*
X119471498Y-110515706D01*
X119417842Y-110562199D01*
X119347568Y-110572303D01*
X119282988Y-110542809D01*
X119276405Y-110536680D01*
X117849806Y-109110081D01*
X117838939Y-109097690D01*
X117825308Y-109079926D01*
X117820282Y-109073376D01*
X117697348Y-108979045D01*
X117626647Y-108949760D01*
X117554189Y-108919746D01*
X117546002Y-108918668D01*
X117546001Y-108918668D01*
X117408748Y-108900599D01*
X117400559Y-108899521D01*
X117370175Y-108903521D01*
X117353729Y-108904599D01*
X116909126Y-108904599D01*
X116841005Y-108884597D01*
X116794512Y-108830941D01*
X116783734Y-108790967D01*
X116783136Y-108784901D01*
X116783135Y-108784895D01*
X116782529Y-108778745D01*
X116780733Y-108772826D01*
X116780732Y-108772821D01*
X116733510Y-108617198D01*
X116733507Y-108617190D01*
X116731713Y-108611277D01*
X116649205Y-108456940D01*
X116538173Y-108321664D01*
X116402886Y-108210646D01*
X116248541Y-108128152D01*
X116242616Y-108126355D01*
X116242614Y-108126354D01*
X116086996Y-108079151D01*
X116086995Y-108079151D01*
X116081068Y-108077353D01*
X115933360Y-108062806D01*
X115929285Y-108062338D01*
X115906903Y-108059391D01*
X115885415Y-108062220D01*
X115881383Y-108062683D01*
X115811595Y-108069556D01*
X115738890Y-108076716D01*
X115738886Y-108076717D01*
X115732731Y-108077323D01*
X115726812Y-108079118D01*
X115726809Y-108079119D01*
X115571182Y-108126324D01*
X115571179Y-108126325D01*
X115565252Y-108128123D01*
X115559786Y-108131044D01*
X115559787Y-108131044D01*
X115416358Y-108207702D01*
X115416355Y-108207704D01*
X115410901Y-108210619D01*
X115275608Y-108321640D01*
X115271679Y-108326427D01*
X115271677Y-108326429D01*
X115237313Y-108368297D01*
X115164572Y-108456921D01*
X115082059Y-108611264D01*
X115031241Y-108778738D01*
X115030634Y-108784895D01*
X115030036Y-108790961D01*
X115003447Y-108856790D01*
X114945489Y-108897795D01*
X114904644Y-108904599D01*
X114095955Y-108904599D01*
X114027834Y-108884597D01*
X114006859Y-108867694D01*
X113409245Y-108270079D01*
X113398384Y-108257695D01*
X113379725Y-108233378D01*
X113256791Y-108139047D01*
X113226075Y-108126324D01*
X113197492Y-108114485D01*
X113197490Y-108114484D01*
X113135880Y-108088964D01*
X113113632Y-108079748D01*
X113105445Y-108078670D01*
X113105444Y-108078670D01*
X112968191Y-108060601D01*
X112960002Y-108059523D01*
X112929618Y-108063523D01*
X112913172Y-108064601D01*
X111508252Y-108064601D01*
X111440131Y-108044599D01*
X111407426Y-108014166D01*
X111371942Y-107966820D01*
X111366561Y-107959640D01*
X111278835Y-107893893D01*
X111257189Y-107877670D01*
X111257188Y-107877670D01*
X111250005Y-107872286D01*
X111248334Y-107871660D01*
X111200745Y-107823964D01*
X111185400Y-107763702D01*
X111185400Y-107070378D01*
X111186478Y-107053932D01*
X111192500Y-107008189D01*
X111192500Y-107008188D01*
X111193578Y-107000000D01*
X111173353Y-106846370D01*
X111114053Y-106703211D01*
X111102515Y-106688174D01*
X111043406Y-106611141D01*
X111043404Y-106611139D01*
X111019723Y-106580277D01*
X110995409Y-106561620D01*
X110983018Y-106550753D01*
X110649247Y-106216982D01*
X110638380Y-106204591D01*
X110624749Y-106186827D01*
X110619723Y-106180277D01*
X110496789Y-106085946D01*
X110489156Y-106082784D01*
X110437490Y-106061384D01*
X110437488Y-106061383D01*
X110375859Y-106035855D01*
X110353630Y-106026647D01*
X110345443Y-106025569D01*
X110345442Y-106025569D01*
X110208189Y-106007500D01*
X110200000Y-106006422D01*
X110169616Y-106010422D01*
X110153170Y-106011500D01*
X107446829Y-106011500D01*
X107430383Y-106010422D01*
X107408188Y-106007500D01*
X107400000Y-106006422D01*
X107246370Y-106026648D01*
X107238739Y-106029809D01*
X107218529Y-106038180D01*
X107110843Y-106082784D01*
X107110838Y-106082787D01*
X107103211Y-106085946D01*
X106980277Y-106180277D01*
X106975251Y-106186827D01*
X106961620Y-106204591D01*
X106950753Y-106216982D01*
X106070018Y-107097717D01*
X106057627Y-107108584D01*
X106033313Y-107127241D01*
X105938982Y-107250175D01*
X105919674Y-107296789D01*
X105879683Y-107393334D01*
X105878606Y-107401518D01*
X105878605Y-107401520D01*
X105860536Y-107538775D01*
X105859458Y-107546964D01*
X105860536Y-107555152D01*
X105863458Y-107577348D01*
X105864536Y-107593794D01*
X105864536Y-110281158D01*
X105844447Y-110349413D01*
X105791874Y-110430990D01*
X105789463Y-110437613D01*
X105789462Y-110437616D01*
X105738002Y-110579002D01*
X105738001Y-110579007D01*
X105735592Y-110585625D01*
X105734709Y-110592617D01*
X105732428Y-110610671D01*
X105704046Y-110675747D01*
X105644987Y-110715149D01*
X105620594Y-110720189D01*
X105568892Y-110725623D01*
X105562226Y-110727892D01*
X105562223Y-110727893D01*
X105419779Y-110776385D01*
X105419776Y-110776386D01*
X105413112Y-110778655D01*
X105272952Y-110864882D01*
X105267919Y-110869811D01*
X105162358Y-110973184D01*
X105155379Y-110980018D01*
X105066235Y-111118342D01*
X105063824Y-111124965D01*
X105063823Y-111124968D01*
X105012363Y-111266354D01*
X105012362Y-111266359D01*
X105009953Y-111272977D01*
X104989328Y-111436239D01*
X105005386Y-111600013D01*
X105057329Y-111756160D01*
X105142576Y-111896918D01*
X105256888Y-112015292D01*
X105394586Y-112105399D01*
X105401190Y-112107855D01*
X105401198Y-112107859D01*
X105493895Y-112142333D01*
X105539070Y-112171335D01*
X106750753Y-113383018D01*
X106761620Y-113395409D01*
X106780277Y-113419723D01*
X106903211Y-113514054D01*
X106996046Y-113552507D01*
X107046370Y-113573352D01*
X107200000Y-113593578D01*
X107208188Y-113592500D01*
X107230383Y-113589578D01*
X107246829Y-113588500D01*
X112122115Y-113588500D01*
X112191108Y-113609068D01*
X112267189Y-113658854D01*
X112421428Y-113716215D01*
X112428409Y-113717146D01*
X112428411Y-113717147D01*
X112577561Y-113737048D01*
X112577565Y-113737048D01*
X112584542Y-113737979D01*
X112591553Y-113737341D01*
X112591557Y-113737341D01*
X112741403Y-113723704D01*
X112741404Y-113723704D01*
X112748424Y-113723065D01*
X112777062Y-113713760D01*
X112898230Y-113674390D01*
X112898233Y-113674389D01*
X112904929Y-113672213D01*
X113046279Y-113587951D01*
X113165449Y-113474468D01*
X113169350Y-113468597D01*
X113252614Y-113343275D01*
X113252615Y-113343273D01*
X113256515Y-113337403D01*
X113314951Y-113183568D01*
X113328460Y-113087448D01*
X113337302Y-113024534D01*
X113337303Y-113024527D01*
X113337853Y-113020610D01*
X113338141Y-113000000D01*
X113319798Y-112836466D01*
X113265680Y-112681060D01*
X113178476Y-112541505D01*
X113120499Y-112483122D01*
X113067486Y-112429737D01*
X113067482Y-112429734D01*
X113062522Y-112424739D01*
X112923580Y-112336563D01*
X112874447Y-112319068D01*
X112775189Y-112283723D01*
X112775187Y-112283722D01*
X112768555Y-112281361D01*
X112761569Y-112280528D01*
X112761565Y-112280527D01*
X112647071Y-112266875D01*
X112605153Y-112261877D01*
X112598150Y-112262613D01*
X112598149Y-112262613D01*
X112554935Y-112267155D01*
X112441495Y-112279078D01*
X112434827Y-112281348D01*
X112292382Y-112329840D01*
X112292379Y-112329841D01*
X112285715Y-112332110D01*
X112212757Y-112376994D01*
X112187035Y-112392818D01*
X112121013Y-112411500D01*
X109909394Y-112411500D01*
X109841273Y-112391498D01*
X109794780Y-112337842D01*
X109784676Y-112267568D01*
X109804446Y-112215773D01*
X109852614Y-112143275D01*
X109852615Y-112143273D01*
X109856515Y-112137403D01*
X109914951Y-111983568D01*
X109937853Y-111820610D01*
X109938141Y-111800000D01*
X109924115Y-111674954D01*
X109936399Y-111605029D01*
X109984813Y-111552681D01*
X110083621Y-111493780D01*
X110083627Y-111493775D01*
X110089670Y-111490173D01*
X110208840Y-111376690D01*
X110212741Y-111370819D01*
X110296005Y-111245497D01*
X110296006Y-111245495D01*
X110299906Y-111239625D01*
X110358342Y-111085790D01*
X110363309Y-111050449D01*
X110392598Y-110985775D01*
X110398988Y-110978890D01*
X110649174Y-110728704D01*
X110711486Y-110694678D01*
X110738269Y-110691799D01*
X111051434Y-110691799D01*
X111113616Y-110685044D01*
X111250005Y-110633914D01*
X111366561Y-110546560D01*
X111407426Y-110492034D01*
X111464285Y-110449519D01*
X111508252Y-110441599D01*
X113261440Y-110441599D01*
X113329561Y-110461601D01*
X113376054Y-110515257D01*
X113382017Y-110531030D01*
X113425908Y-110675747D01*
X113428262Y-110683510D01*
X113510760Y-110837870D01*
X113621788Y-110973168D01*
X113626569Y-110977092D01*
X113626571Y-110977094D01*
X113698767Y-111036347D01*
X113757078Y-111084205D01*
X113762533Y-111087121D01*
X113905980Y-111163800D01*
X113905983Y-111163801D01*
X113911432Y-111166714D01*
X114078918Y-111217523D01*
X114085077Y-111218130D01*
X114085079Y-111218130D01*
X114227542Y-111232162D01*
X114231636Y-111232633D01*
X114244907Y-111234380D01*
X114244909Y-111234380D01*
X114253097Y-111235458D01*
X114261285Y-111234380D01*
X114261286Y-111234380D01*
X114273994Y-111232707D01*
X114278090Y-111232236D01*
X114421118Y-111218149D01*
X114427281Y-111217542D01*
X114433202Y-111215746D01*
X114433206Y-111215745D01*
X114588851Y-111168529D01*
X114588852Y-111168528D01*
X114594771Y-111166733D01*
X114600223Y-111163818D01*
X114600227Y-111163817D01*
X114743670Y-111087141D01*
X114749129Y-111084223D01*
X114807463Y-111036347D01*
X114879637Y-110977113D01*
X114879638Y-110977112D01*
X114884424Y-110973184D01*
X114995454Y-110837882D01*
X115077955Y-110683518D01*
X115083203Y-110666216D01*
X115105524Y-110592617D01*
X115124203Y-110531029D01*
X115163114Y-110471647D01*
X115227954Y-110442727D01*
X115244779Y-110441599D01*
X116502938Y-110441599D01*
X116571059Y-110461601D01*
X116592033Y-110478504D01*
X117495079Y-111381549D01*
X118396724Y-112283194D01*
X118430749Y-112345506D01*
X118432635Y-112388080D01*
X118429129Y-112415832D01*
X118445187Y-112579606D01*
X118497130Y-112735753D01*
X118500779Y-112741778D01*
X118558125Y-112836466D01*
X118582377Y-112876511D01*
X118696689Y-112994885D01*
X118834387Y-113084992D01*
X118988626Y-113142353D01*
X118995607Y-113143284D01*
X118995609Y-113143285D01*
X119144759Y-113163186D01*
X119144763Y-113163186D01*
X119151740Y-113164117D01*
X119158751Y-113163479D01*
X119158755Y-113163479D01*
X119308601Y-113149842D01*
X119308602Y-113149842D01*
X119315622Y-113149203D01*
X119322324Y-113147025D01*
X119322326Y-113147025D01*
X119326567Y-113145647D01*
X119397534Y-113143621D01*
X119458331Y-113180285D01*
X119489655Y-113243998D01*
X119491500Y-113265481D01*
X119491500Y-116950633D01*
X119490000Y-116970018D01*
X119487690Y-116984851D01*
X119487690Y-116984855D01*
X119486309Y-116993724D01*
X119488558Y-117010919D01*
X119489391Y-117034863D01*
X119473794Y-117292710D01*
X119471960Y-117307814D01*
X119420477Y-117588754D01*
X119416836Y-117603527D01*
X119331859Y-117876227D01*
X119326466Y-117890445D01*
X119209243Y-118150906D01*
X119202172Y-118164379D01*
X119054405Y-118408813D01*
X119045762Y-118421334D01*
X118869615Y-118646171D01*
X118859525Y-118657560D01*
X118657560Y-118859525D01*
X118646171Y-118869615D01*
X118421334Y-119045762D01*
X118408813Y-119054405D01*
X118164379Y-119202172D01*
X118150908Y-119209242D01*
X117890445Y-119326466D01*
X117876231Y-119331858D01*
X117603527Y-119416836D01*
X117588760Y-119420475D01*
X117379786Y-119458771D01*
X117307814Y-119471960D01*
X117292710Y-119473794D01*
X117042096Y-119488953D01*
X117015284Y-119487692D01*
X117015148Y-119487690D01*
X117006276Y-119486309D01*
X116997374Y-119487473D01*
X116997372Y-119487473D01*
X116982707Y-119489391D01*
X116974714Y-119490436D01*
X116958379Y-119491500D01*
X103049367Y-119491500D01*
X103029982Y-119490000D01*
X103015149Y-119487690D01*
X103015145Y-119487690D01*
X103006276Y-119486309D01*
X102989077Y-119488558D01*
X102965137Y-119489391D01*
X102707290Y-119473794D01*
X102692186Y-119471960D01*
X102620214Y-119458771D01*
X102411240Y-119420475D01*
X102396473Y-119416836D01*
X102123769Y-119331858D01*
X102109555Y-119326466D01*
X101849092Y-119209242D01*
X101835621Y-119202172D01*
X101591187Y-119054405D01*
X101578666Y-119045762D01*
X101353829Y-118869615D01*
X101342440Y-118859525D01*
X101140475Y-118657560D01*
X101130385Y-118646171D01*
X100954238Y-118421334D01*
X100945595Y-118408813D01*
X100797828Y-118164379D01*
X100790757Y-118150906D01*
X100673534Y-117890445D01*
X100668141Y-117876227D01*
X100583164Y-117603527D01*
X100579523Y-117588754D01*
X100528040Y-117307814D01*
X100526206Y-117292710D01*
X100511269Y-117045768D01*
X100512520Y-117022216D01*
X100512334Y-117022199D01*
X100512769Y-117017350D01*
X100513576Y-117012552D01*
X100513729Y-117000000D01*
X100509773Y-116972376D01*
X100508500Y-116954514D01*
X100508500Y-105393535D01*
X100528502Y-105325414D01*
X100582158Y-105278921D01*
X100652432Y-105268817D01*
X100717012Y-105298311D01*
X100739080Y-105323258D01*
X100853834Y-105494029D01*
X101084665Y-105768150D01*
X101343751Y-106015738D01*
X101628061Y-106233897D01*
X101660056Y-106253350D01*
X101931355Y-106418303D01*
X101931360Y-106418306D01*
X101934270Y-106420075D01*
X101937358Y-106421521D01*
X101937357Y-106421521D01*
X102255710Y-106570649D01*
X102255720Y-106570653D01*
X102258794Y-106572093D01*
X102262012Y-106573195D01*
X102262015Y-106573196D01*
X102594615Y-106687071D01*
X102594623Y-106687073D01*
X102597838Y-106688174D01*
X102947435Y-106766959D01*
X102999728Y-106772917D01*
X103300114Y-106807142D01*
X103300122Y-106807142D01*
X103303497Y-106807527D01*
X103306901Y-106807545D01*
X103306904Y-106807545D01*
X103501227Y-106808562D01*
X103661857Y-106809403D01*
X103665243Y-106809053D01*
X103665245Y-106809053D01*
X104014932Y-106772917D01*
X104014941Y-106772916D01*
X104018324Y-106772566D01*
X104021657Y-106771852D01*
X104021660Y-106771851D01*
X104194186Y-106734864D01*
X104368727Y-106697446D01*
X104708968Y-106584922D01*
X105035066Y-106436311D01*
X105129052Y-106380506D01*
X105340262Y-106255099D01*
X105340267Y-106255096D01*
X105343207Y-106253350D01*
X105629786Y-106038180D01*
X105891451Y-105793319D01*
X106125140Y-105521630D01*
X106234426Y-105362618D01*
X106326190Y-105229101D01*
X106326195Y-105229094D01*
X106328120Y-105226292D01*
X106329732Y-105223298D01*
X106329737Y-105223290D01*
X106496395Y-104913772D01*
X106498017Y-104910760D01*
X106632842Y-104578724D01*
X106643142Y-104542568D01*
X106663527Y-104471006D01*
X106731020Y-104234070D01*
X106791401Y-103880828D01*
X106793511Y-103846340D01*
X106813168Y-103524928D01*
X106813278Y-103523131D01*
X106813359Y-103500000D01*
X106793979Y-103142159D01*
X106736066Y-102788505D01*
X106640297Y-102443173D01*
X106637243Y-102435497D01*
X106509052Y-102113369D01*
X106507793Y-102110205D01*
X106439016Y-101980308D01*
X106341702Y-101796513D01*
X106341698Y-101796506D01*
X106340103Y-101793494D01*
X106139190Y-101496746D01*
X105907403Y-101223432D01*
X105647454Y-100976750D01*
X105456448Y-100831242D01*
X105365091Y-100761647D01*
X105365089Y-100761646D01*
X105362384Y-100759585D01*
X105359466Y-100757825D01*
X105359459Y-100757820D01*
X105333880Y-100742390D01*
X105285881Y-100690077D01*
X105273785Y-100620118D01*
X105301432Y-100554726D01*
X105360044Y-100514661D01*
X105398962Y-100508500D01*
X114600006Y-100508500D01*
X114668127Y-100528502D01*
G37*
G04 #@! TD.AperFunction*
G04 #@! TA.AperFunction,Conductor*
G36*
X109950521Y-107208502D02*
G01*
X109997014Y-107262158D01*
X110008400Y-107314500D01*
X110008400Y-107690855D01*
X109988398Y-107758976D01*
X109934742Y-107805469D01*
X109868792Y-107816118D01*
X109860986Y-107815270D01*
X109854172Y-107814901D01*
X109675215Y-107814901D01*
X109659976Y-107819376D01*
X109658771Y-107820766D01*
X109657100Y-107828449D01*
X109657100Y-108781101D01*
X109637098Y-108849222D01*
X109583442Y-108895715D01*
X109531100Y-108907101D01*
X109275100Y-108907101D01*
X109206979Y-108887099D01*
X109160486Y-108833443D01*
X109149100Y-108781101D01*
X109149100Y-107833017D01*
X109144625Y-107817778D01*
X109143235Y-107816573D01*
X109135552Y-107814902D01*
X108952031Y-107814902D01*
X108945210Y-107815272D01*
X108894348Y-107820796D01*
X108879096Y-107824422D01*
X108758646Y-107869577D01*
X108743051Y-107878115D01*
X108640976Y-107954616D01*
X108628415Y-107967177D01*
X108576584Y-108036335D01*
X108519725Y-108078850D01*
X108448906Y-108083876D01*
X108386613Y-108049816D01*
X108356234Y-108000646D01*
X108320619Y-107893893D01*
X108314445Y-107880714D01*
X108232212Y-107747827D01*
X108223176Y-107736426D01*
X108112571Y-107626014D01*
X108101160Y-107617002D01*
X107968120Y-107534996D01*
X107954939Y-107528849D01*
X107806186Y-107479509D01*
X107792810Y-107476642D01*
X107701903Y-107467328D01*
X107695486Y-107467000D01*
X107669455Y-107467000D01*
X107601334Y-107446998D01*
X107554841Y-107393342D01*
X107544737Y-107323068D01*
X107574231Y-107258488D01*
X107580360Y-107251905D01*
X107606860Y-107225405D01*
X107669172Y-107191379D01*
X107695955Y-107188500D01*
X109882400Y-107188500D01*
X109950521Y-107208502D01*
G37*
G04 #@! TD.AperFunction*
M02*
