G04 #@! TF.GenerationSoftware,KiCad,Pcbnew,(6.0.11-0)*
G04 #@! TF.CreationDate,2023-06-01T19:50:38-06:00*
G04 #@! TF.ProjectId,LightSensorPCB,4c696768-7453-4656-9e73-6f725043422e,rev?*
G04 #@! TF.SameCoordinates,Original*
G04 #@! TF.FileFunction,Copper,L1,Top*
G04 #@! TF.FilePolarity,Positive*
%FSLAX46Y46*%
G04 Gerber Fmt 4.6, Leading zero omitted, Abs format (unit mm)*
G04 Created by KiCad (PCBNEW (6.0.11-0)) date 2023-06-01 19:50:38*
%MOMM*%
%LPD*%
G01*
G04 APERTURE LIST*
G04 Aperture macros list*
%AMRoundRect*
0 Rectangle with rounded corners*
0 $1 Rounding radius*
0 $2 $3 $4 $5 $6 $7 $8 $9 X,Y pos of 4 corners*
0 Add a 4 corners polygon primitive as box body*
4,1,4,$2,$3,$4,$5,$6,$7,$8,$9,$2,$3,0*
0 Add four circle primitives for the rounded corners*
1,1,$1+$1,$2,$3*
1,1,$1+$1,$4,$5*
1,1,$1+$1,$6,$7*
1,1,$1+$1,$8,$9*
0 Add four rect primitives between the rounded corners*
20,1,$1+$1,$2,$3,$4,$5,0*
20,1,$1+$1,$4,$5,$6,$7,0*
20,1,$1+$1,$6,$7,$8,$9,0*
20,1,$1+$1,$8,$9,$2,$3,0*%
G04 Aperture macros list end*
G04 #@! TA.AperFunction,SMDPad,CuDef*
%ADD10R,0.600000X0.350000*%
G04 #@! TD*
G04 #@! TA.AperFunction,SMDPad,CuDef*
%ADD11R,0.350000X0.600000*%
G04 #@! TD*
G04 #@! TA.AperFunction,SMDPad,CuDef*
%ADD12R,0.660400X0.812800*%
G04 #@! TD*
G04 #@! TA.AperFunction,ComponentPad*
%ADD13C,5.600000*%
G04 #@! TD*
G04 #@! TA.AperFunction,SMDPad,CuDef*
%ADD14RoundRect,0.225000X0.250000X-0.225000X0.250000X0.225000X-0.250000X0.225000X-0.250000X-0.225000X0*%
G04 #@! TD*
G04 #@! TA.AperFunction,SMDPad,CuDef*
%ADD15RoundRect,0.225000X0.225000X0.250000X-0.225000X0.250000X-0.225000X-0.250000X0.225000X-0.250000X0*%
G04 #@! TD*
G04 #@! TA.AperFunction,ComponentPad*
%ADD16RoundRect,0.250001X-0.499999X0.499999X-0.499999X-0.499999X0.499999X-0.499999X0.499999X0.499999X0*%
G04 #@! TD*
G04 #@! TA.AperFunction,ComponentPad*
%ADD17C,1.500000*%
G04 #@! TD*
G04 #@! TA.AperFunction,ComponentPad*
%ADD18R,1.700000X1.700000*%
G04 #@! TD*
G04 #@! TA.AperFunction,ComponentPad*
%ADD19O,1.700000X1.700000*%
G04 #@! TD*
G04 #@! TA.AperFunction,ViaPad*
%ADD20C,0.500000*%
G04 #@! TD*
G04 #@! TA.AperFunction,Conductor*
%ADD21C,0.160000*%
G04 #@! TD*
G04 #@! TA.AperFunction,Conductor*
%ADD22C,0.250000*%
G04 #@! TD*
G04 #@! TA.AperFunction,Conductor*
%ADD23C,0.650000*%
G04 #@! TD*
G04 APERTURE END LIST*
D10*
X111827500Y-118500000D03*
X111827500Y-119000000D03*
X111827500Y-119500000D03*
X111827500Y-120000000D03*
D11*
X112487500Y-120160000D03*
X112987500Y-120160000D03*
X113487500Y-120160000D03*
D10*
X114147500Y-120000000D03*
X114147500Y-119500000D03*
X114147500Y-119000000D03*
X114147500Y-118500000D03*
D11*
X113487500Y-118340000D03*
X112987500Y-118340000D03*
X112487500Y-118340000D03*
D12*
X113349999Y-108653100D03*
X112150001Y-108653100D03*
X112150001Y-109846900D03*
X113349999Y-109846900D03*
D13*
X103500000Y-103500000D03*
D14*
X115000000Y-109050000D03*
X115000000Y-107500000D03*
D13*
X116500000Y-103500000D03*
D15*
X118775000Y-120150000D03*
X117225000Y-120150000D03*
X118775000Y-118450000D03*
X117225000Y-118450000D03*
D16*
X109585000Y-112950000D03*
D17*
X109585000Y-115950000D03*
X112585000Y-112950000D03*
X112585000Y-115950000D03*
D18*
X110000000Y-105540000D03*
D19*
X110000000Y-103000000D03*
D20*
X117800000Y-109100000D03*
X117300000Y-111300000D03*
X115700000Y-119200000D03*
X114800000Y-117400000D03*
X115700000Y-121700000D03*
X101600000Y-121200000D03*
X113000000Y-119300000D03*
X118000000Y-116900000D03*
X112900000Y-106800000D03*
X118000000Y-119300000D03*
X109900000Y-118800000D03*
X105600000Y-107000000D03*
X109600000Y-108700000D03*
X109000000Y-114500000D03*
X116000000Y-115900000D03*
X102400000Y-114800000D03*
X118000000Y-121600000D03*
X111100000Y-112100000D03*
X117100000Y-108200000D03*
X110971982Y-114972259D03*
X116167539Y-110578640D03*
X116134500Y-114500000D03*
X112069054Y-110492860D03*
X114225500Y-109900000D03*
X115774500Y-110000000D03*
X115600000Y-115200000D03*
X111618237Y-115239948D03*
D21*
X117750000Y-109050000D02*
X117800000Y-109100000D01*
X115000000Y-109050000D02*
X117750000Y-109050000D01*
D22*
X114147500Y-120000000D02*
X117075000Y-120000000D01*
D23*
X113349999Y-108653100D02*
X114603100Y-108653100D01*
D22*
X112487500Y-120160000D02*
X112487500Y-121587500D01*
X114772500Y-118000000D02*
X114772500Y-120000000D01*
D23*
X117225000Y-120150000D02*
X117225000Y-118450000D01*
X112585000Y-115950000D02*
X112585000Y-114815000D01*
X114603100Y-108653100D02*
X115000000Y-109050000D01*
X115000000Y-112400000D02*
X115000000Y-109050000D01*
X112585000Y-115950000D02*
X114725000Y-115950000D01*
D22*
X113487500Y-118340000D02*
X113487500Y-118035000D01*
X113522500Y-118000000D02*
X114772500Y-118000000D01*
X114147500Y-121452500D02*
X114147500Y-120000000D01*
X112700000Y-121800000D02*
X113800000Y-121800000D01*
X113800000Y-121800000D02*
X114147500Y-121452500D01*
X113487500Y-118035000D02*
X113522500Y-118000000D01*
D23*
X112585000Y-114815000D02*
X115000000Y-112400000D01*
D22*
X112487500Y-121587500D02*
X112700000Y-121800000D01*
D23*
X114725000Y-115950000D02*
X117225000Y-118450000D01*
D22*
X118000000Y-119300000D02*
X118000000Y-119375000D01*
X113487500Y-120160000D02*
X112987500Y-120160000D01*
X111827500Y-119000000D02*
X112700000Y-119000000D01*
X111827500Y-119500000D02*
X111827500Y-118500000D01*
X112700000Y-119000000D02*
X113000000Y-119300000D01*
X113000000Y-119300000D02*
X113000000Y-120147500D01*
X118000000Y-119375000D02*
X118775000Y-120150000D01*
D21*
X110299922Y-111696978D02*
X109585000Y-112411901D01*
X110724186Y-110848450D02*
X110671301Y-110795565D01*
X110299921Y-111696977D02*
X110299922Y-111696978D01*
X115965000Y-114330500D02*
X116134500Y-114500000D01*
X112487500Y-117896616D02*
X112487500Y-118340000D01*
X110971982Y-116381098D02*
X112487500Y-117896616D01*
X115965000Y-110781179D02*
X115965000Y-114330500D01*
X116167539Y-110578640D02*
X115965000Y-110781179D01*
X112150001Y-109846900D02*
X111148451Y-110848450D01*
X110724185Y-110848450D02*
X110724186Y-110848450D01*
X112150001Y-110411913D02*
X112069054Y-110492860D01*
X110247037Y-111219829D02*
X110299921Y-111272713D01*
X112150001Y-109846900D02*
X112150001Y-110411913D01*
X110971982Y-114972259D02*
X110971982Y-116381098D01*
X110724185Y-110848450D02*
G75*
G03*
X111148451Y-110848450I212133J212134D01*
G01*
X110247035Y-111219831D02*
G75*
G02*
X110247038Y-110795566I212165J212131D01*
G01*
X110247038Y-110795566D02*
G75*
G02*
X110671300Y-110795566I212131J-212131D01*
G01*
X110299876Y-111696932D02*
G75*
G03*
X110299921Y-111272713I-212076J212132D01*
G01*
X113349999Y-109846900D02*
X114172400Y-109846900D01*
X112885000Y-111185000D02*
X113332538Y-111185000D01*
X112987500Y-118340000D02*
X112987500Y-117887500D01*
X114172400Y-109846900D02*
X114225500Y-109900000D01*
X115774500Y-110000000D02*
X115605000Y-110169500D01*
X115605000Y-110169500D02*
X115605000Y-115195000D01*
X112585000Y-112085000D02*
X112585000Y-112135000D01*
X113332538Y-111785000D02*
X112885000Y-111785000D01*
X115605000Y-115195000D02*
X115600000Y-115200000D01*
X113349999Y-109846900D02*
X112585000Y-110611899D01*
X111400000Y-116300000D02*
X111400000Y-115458185D01*
X112585000Y-112135000D02*
X112585000Y-112950000D01*
X112987500Y-117887500D02*
X111400000Y-116300000D01*
X112585000Y-110611899D02*
X112585000Y-110885000D01*
X111400000Y-115458185D02*
X111618237Y-115239948D01*
X112885000Y-111185000D02*
G75*
G02*
X112585000Y-110885000I0J300000D01*
G01*
X113632500Y-111485000D02*
G75*
G03*
X113332538Y-111185000I-300000J0D01*
G01*
X112585000Y-112085000D02*
G75*
G02*
X112885000Y-111785000I300000J0D01*
G01*
X113332538Y-111785038D02*
G75*
G03*
X113632538Y-111485000I-38J300038D01*
G01*
X108000000Y-107540000D02*
X108000000Y-119200000D01*
X108000000Y-119200000D02*
X108800000Y-120000000D01*
X108800000Y-120000000D02*
X111827500Y-120000000D01*
X110000000Y-105540000D02*
X108000000Y-107540000D01*
G04 #@! TA.AperFunction,Conductor*
G36*
X114668127Y-100528502D02*
G01*
X114714620Y-100582158D01*
X114724724Y-100652432D01*
X114695230Y-100717012D01*
X114664715Y-100742614D01*
X114647193Y-100753101D01*
X114644467Y-100755163D01*
X114644465Y-100755164D01*
X114638620Y-100759585D01*
X114361367Y-100969270D01*
X114100559Y-101215043D01*
X113867819Y-101487546D01*
X113865900Y-101490358D01*
X113865897Y-101490363D01*
X113772624Y-101627097D01*
X113665871Y-101783591D01*
X113497077Y-102099714D01*
X113363411Y-102432218D01*
X113362491Y-102435492D01*
X113362489Y-102435497D01*
X113274169Y-102749707D01*
X113266437Y-102777213D01*
X113265875Y-102780570D01*
X113265875Y-102780571D01*
X113230931Y-102989392D01*
X113207290Y-103130663D01*
X113186661Y-103488434D01*
X113204792Y-103846340D01*
X113205329Y-103849695D01*
X113205330Y-103849701D01*
X113235999Y-104041173D01*
X113261470Y-104200195D01*
X113356033Y-104545859D01*
X113487374Y-104879288D01*
X113653957Y-105196582D01*
X113655858Y-105199411D01*
X113655864Y-105199421D01*
X113786858Y-105394359D01*
X113853834Y-105494029D01*
X114084665Y-105768150D01*
X114343751Y-106015738D01*
X114628061Y-106233897D01*
X114751916Y-106309202D01*
X114799730Y-106361682D01*
X114811581Y-106431682D01*
X114783706Y-106496978D01*
X114724955Y-106536837D01*
X114699461Y-106542190D01*
X114605943Y-106551894D01*
X114592544Y-106554788D01*
X114443893Y-106604381D01*
X114430714Y-106610555D01*
X114297827Y-106692788D01*
X114286426Y-106701824D01*
X114176014Y-106812429D01*
X114167002Y-106823840D01*
X114084996Y-106956880D01*
X114078849Y-106970061D01*
X114029509Y-107118814D01*
X114026642Y-107132190D01*
X114017328Y-107223097D01*
X114017071Y-107228126D01*
X114021475Y-107243124D01*
X114022865Y-107244329D01*
X114030548Y-107246000D01*
X115964885Y-107246000D01*
X115980124Y-107241525D01*
X115981329Y-107240135D01*
X115983000Y-107232452D01*
X115983000Y-107229562D01*
X115982663Y-107223047D01*
X115973106Y-107130943D01*
X115970212Y-107117544D01*
X115920617Y-106968886D01*
X115914819Y-106956510D01*
X115904033Y-106886337D01*
X115932898Y-106821474D01*
X115992249Y-106782512D01*
X116043183Y-106777868D01*
X116077744Y-106781806D01*
X116300114Y-106807142D01*
X116300122Y-106807142D01*
X116303497Y-106807527D01*
X116306901Y-106807545D01*
X116306904Y-106807545D01*
X116501227Y-106808562D01*
X116661857Y-106809403D01*
X116665243Y-106809053D01*
X116665245Y-106809053D01*
X117014932Y-106772917D01*
X117014941Y-106772916D01*
X117018324Y-106772566D01*
X117021657Y-106771852D01*
X117021660Y-106771851D01*
X117348305Y-106701824D01*
X117368727Y-106697446D01*
X117708968Y-106584922D01*
X118035066Y-106436311D01*
X118160755Y-106361682D01*
X118340262Y-106255099D01*
X118340267Y-106255096D01*
X118343207Y-106253350D01*
X118629786Y-106038180D01*
X118891451Y-105793319D01*
X119125140Y-105521630D01*
X119261660Y-105322992D01*
X119316728Y-105278181D01*
X119387281Y-105270256D01*
X119450919Y-105301733D01*
X119487436Y-105362618D01*
X119491500Y-105394359D01*
X119491500Y-117418063D01*
X119471498Y-117486184D01*
X119417842Y-117532677D01*
X119347568Y-117542781D01*
X119312251Y-117532258D01*
X119304944Y-117528851D01*
X119156186Y-117479509D01*
X119142810Y-117476642D01*
X119051903Y-117467328D01*
X119046874Y-117467071D01*
X119031876Y-117471475D01*
X119030671Y-117472865D01*
X119029000Y-117480548D01*
X119029000Y-121114885D01*
X119033475Y-121130124D01*
X119041748Y-121137293D01*
X119090467Y-121163895D01*
X119124492Y-121226207D01*
X119119427Y-121297023D01*
X119109204Y-121318166D01*
X119054406Y-121408813D01*
X119054405Y-121408814D01*
X119045762Y-121421334D01*
X118869615Y-121646171D01*
X118859525Y-121657560D01*
X118657560Y-121859525D01*
X118646172Y-121869614D01*
X118637655Y-121876287D01*
X118421334Y-122045762D01*
X118408813Y-122054405D01*
X118164379Y-122202172D01*
X118150908Y-122209242D01*
X117890445Y-122326466D01*
X117876231Y-122331858D01*
X117650787Y-122402109D01*
X117603527Y-122416836D01*
X117588760Y-122420475D01*
X117379786Y-122458771D01*
X117307814Y-122471960D01*
X117292710Y-122473794D01*
X117042096Y-122488953D01*
X117015284Y-122487692D01*
X117015148Y-122487690D01*
X117006276Y-122486309D01*
X116997374Y-122487473D01*
X116997372Y-122487473D01*
X116982707Y-122489391D01*
X116974714Y-122490436D01*
X116958379Y-122491500D01*
X114313200Y-122491500D01*
X114245079Y-122471498D01*
X114198586Y-122417842D01*
X114188482Y-122347568D01*
X114217976Y-122282988D01*
X114226949Y-122273648D01*
X114230694Y-122270132D01*
X114237107Y-122265472D01*
X114265298Y-122231395D01*
X114273288Y-122222616D01*
X114539747Y-121956157D01*
X114548037Y-121948613D01*
X114554518Y-121944500D01*
X114601159Y-121894832D01*
X114603913Y-121891991D01*
X114623634Y-121872270D01*
X114626112Y-121869075D01*
X114633818Y-121860053D01*
X114636275Y-121857437D01*
X114664086Y-121827821D01*
X114673846Y-121810068D01*
X114684699Y-121793545D01*
X114692253Y-121783806D01*
X114697113Y-121777541D01*
X114714676Y-121736957D01*
X114719883Y-121726327D01*
X114741195Y-121687560D01*
X114743166Y-121679883D01*
X114743168Y-121679878D01*
X114746232Y-121667942D01*
X114752638Y-121649230D01*
X114757533Y-121637919D01*
X114760681Y-121630645D01*
X114761921Y-121622817D01*
X114761923Y-121622810D01*
X114767599Y-121586976D01*
X114770005Y-121575356D01*
X114779028Y-121540211D01*
X114779028Y-121540210D01*
X114781000Y-121532530D01*
X114781000Y-121512276D01*
X114782551Y-121492565D01*
X114784480Y-121480386D01*
X114785720Y-121472557D01*
X114781559Y-121428538D01*
X114781000Y-121416681D01*
X114781000Y-120759500D01*
X114801002Y-120691379D01*
X114854658Y-120644886D01*
X114907000Y-120633500D01*
X116214698Y-120633500D01*
X116282819Y-120653502D01*
X116328800Y-120706051D01*
X116328926Y-120706319D01*
X116331244Y-120713268D01*
X116421248Y-120858713D01*
X116542298Y-120979552D01*
X116687899Y-121069302D01*
X116850243Y-121123149D01*
X116857080Y-121123849D01*
X116857082Y-121123850D01*
X116898401Y-121128083D01*
X116951268Y-121133500D01*
X117498732Y-121133500D01*
X117501978Y-121133163D01*
X117501982Y-121133163D01*
X117536083Y-121129625D01*
X117601019Y-121122887D01*
X117754726Y-121071606D01*
X117756324Y-121071073D01*
X117756326Y-121071072D01*
X117763268Y-121068756D01*
X117908713Y-120978752D01*
X117913886Y-120973570D01*
X117919623Y-120969023D01*
X117921055Y-120970830D01*
X117973575Y-120942098D01*
X118044395Y-120947108D01*
X118080853Y-120970499D01*
X118081683Y-120969448D01*
X118098840Y-120982998D01*
X118231880Y-121065004D01*
X118245061Y-121071151D01*
X118393814Y-121120491D01*
X118407190Y-121123358D01*
X118498097Y-121132672D01*
X118503126Y-121132929D01*
X118518124Y-121128525D01*
X118519329Y-121127135D01*
X118521000Y-121119452D01*
X118521000Y-117485115D01*
X118516525Y-117469876D01*
X118515135Y-117468671D01*
X118507452Y-117467000D01*
X118504562Y-117467000D01*
X118498047Y-117467337D01*
X118405943Y-117476894D01*
X118392544Y-117479788D01*
X118243893Y-117529381D01*
X118230714Y-117535555D01*
X118097827Y-117617788D01*
X118080689Y-117631371D01*
X118079159Y-117629441D01*
X118027120Y-117657903D01*
X117956301Y-117652887D01*
X117919383Y-117629201D01*
X117918628Y-117630157D01*
X117912882Y-117625619D01*
X117907702Y-117620448D01*
X117901471Y-117616607D01*
X117768331Y-117534538D01*
X117768329Y-117534537D01*
X117762101Y-117530698D01*
X117599757Y-117476851D01*
X117592920Y-117476151D01*
X117592918Y-117476150D01*
X117551599Y-117471917D01*
X117498732Y-117466500D01*
X117472437Y-117466500D01*
X117404316Y-117446498D01*
X117383342Y-117429595D01*
X115988137Y-116034390D01*
X115954111Y-115972078D01*
X115959176Y-115901263D01*
X116001723Y-115844427D01*
X116012715Y-115837066D01*
X116055441Y-115811597D01*
X116055447Y-115811592D01*
X116061490Y-115807990D01*
X116066584Y-115803139D01*
X116066588Y-115803136D01*
X116133833Y-115739099D01*
X116184721Y-115690639D01*
X116278891Y-115548902D01*
X116339319Y-115389825D01*
X116346823Y-115336431D01*
X116351746Y-115301399D01*
X116381034Y-115236725D01*
X116437581Y-115199102D01*
X116443122Y-115197301D01*
X116449822Y-115195124D01*
X116595990Y-115107990D01*
X116601084Y-115103139D01*
X116601088Y-115103136D01*
X116687847Y-115020516D01*
X116719221Y-114990639D01*
X116727223Y-114978596D01*
X116799387Y-114869980D01*
X116813391Y-114848902D01*
X116873819Y-114689825D01*
X116897501Y-114521313D01*
X116897799Y-114500000D01*
X116878831Y-114330892D01*
X116822868Y-114170189D01*
X116732692Y-114025879D01*
X116612786Y-113905132D01*
X116606838Y-113901357D01*
X116601350Y-113896945D01*
X116603214Y-113894626D01*
X116565173Y-113851204D01*
X116553500Y-113798239D01*
X116553500Y-111303233D01*
X116573502Y-111235112D01*
X116614981Y-111195005D01*
X116622980Y-111190237D01*
X116622986Y-111190232D01*
X116629029Y-111186630D01*
X116634123Y-111181779D01*
X116634127Y-111181776D01*
X116701372Y-111117739D01*
X116752260Y-111069279D01*
X116846430Y-110927542D01*
X116906858Y-110768465D01*
X116930540Y-110599953D01*
X116930838Y-110578640D01*
X116911870Y-110409532D01*
X116906701Y-110394687D01*
X116858225Y-110255486D01*
X116855907Y-110248829D01*
X116765731Y-110104519D01*
X116645825Y-109983772D01*
X116578529Y-109941065D01*
X116531733Y-109887679D01*
X116520831Y-109848724D01*
X116519616Y-109837891D01*
X116518831Y-109830892D01*
X116510140Y-109805935D01*
X116506628Y-109735026D01*
X116542009Y-109673474D01*
X116605052Y-109640822D01*
X116629132Y-109638500D01*
X117212042Y-109638500D01*
X117280163Y-109658502D01*
X117302679Y-109676974D01*
X117308557Y-109683060D01*
X117313455Y-109688132D01*
X117455846Y-109781310D01*
X117462450Y-109783766D01*
X117462452Y-109783767D01*
X117498844Y-109797301D01*
X117615341Y-109840626D01*
X117784015Y-109863132D01*
X117791026Y-109862494D01*
X117791030Y-109862494D01*
X117946462Y-109848348D01*
X117953483Y-109847709D01*
X117960185Y-109845531D01*
X117960187Y-109845531D01*
X118108623Y-109797301D01*
X118108626Y-109797300D01*
X118115322Y-109795124D01*
X118261490Y-109707990D01*
X118266584Y-109703139D01*
X118266588Y-109703136D01*
X118334462Y-109638500D01*
X118384721Y-109590639D01*
X118478891Y-109448902D01*
X118539319Y-109289825D01*
X118563001Y-109121313D01*
X118563299Y-109100000D01*
X118544331Y-108930892D01*
X118488368Y-108770189D01*
X118398192Y-108625879D01*
X118278286Y-108505132D01*
X118134608Y-108413951D01*
X117974300Y-108356868D01*
X117805329Y-108336720D01*
X117798326Y-108337456D01*
X117798325Y-108337456D01*
X117643101Y-108353770D01*
X117643097Y-108353771D01*
X117636093Y-108354507D01*
X117629422Y-108356778D01*
X117481673Y-108407075D01*
X117481670Y-108407076D01*
X117475003Y-108409346D01*
X117469005Y-108413036D01*
X117469003Y-108413037D01*
X117420595Y-108442818D01*
X117354573Y-108461500D01*
X115957874Y-108461500D01*
X115889753Y-108441498D01*
X115850730Y-108401803D01*
X115832606Y-108372515D01*
X115828752Y-108366287D01*
X115823570Y-108361114D01*
X115819023Y-108355377D01*
X115820830Y-108353945D01*
X115792098Y-108301425D01*
X115797108Y-108230605D01*
X115820499Y-108194147D01*
X115819448Y-108193317D01*
X115832998Y-108176160D01*
X115915004Y-108043120D01*
X115921151Y-108029939D01*
X115970491Y-107881186D01*
X115973358Y-107867810D01*
X115982672Y-107776903D01*
X115982929Y-107771874D01*
X115978525Y-107756876D01*
X115977135Y-107755671D01*
X115969452Y-107754000D01*
X114035115Y-107754000D01*
X114005229Y-107762775D01*
X113970145Y-107785322D01*
X113899148Y-107785321D01*
X113890418Y-107782407D01*
X113862321Y-107771874D01*
X113790515Y-107744955D01*
X113728333Y-107738200D01*
X112971665Y-107738200D01*
X112909483Y-107744955D01*
X112902087Y-107747727D01*
X112902081Y-107747729D01*
X112793517Y-107788428D01*
X112722710Y-107793611D01*
X112705059Y-107788428D01*
X112597810Y-107748222D01*
X112582552Y-107744595D01*
X112531687Y-107739069D01*
X112524873Y-107738700D01*
X112422116Y-107738700D01*
X112406877Y-107743175D01*
X112405672Y-107744565D01*
X112404001Y-107752248D01*
X112404001Y-108781100D01*
X112383999Y-108849221D01*
X112330343Y-108895714D01*
X112278001Y-108907100D01*
X111329917Y-108907100D01*
X111314678Y-108911575D01*
X111313473Y-108912965D01*
X111311802Y-108920648D01*
X111311802Y-109104169D01*
X111312172Y-109110990D01*
X111317696Y-109161852D01*
X111321323Y-109177107D01*
X111331801Y-109205057D01*
X111336985Y-109275864D01*
X111331801Y-109293519D01*
X111318056Y-109330184D01*
X111311301Y-109392366D01*
X111311301Y-109801145D01*
X111291299Y-109869266D01*
X111274396Y-109890241D01*
X110984825Y-110179811D01*
X110922513Y-110213836D01*
X110851697Y-110208771D01*
X110836334Y-110201837D01*
X110806284Y-110185775D01*
X110806281Y-110185774D01*
X110800828Y-110182859D01*
X110731100Y-110161707D01*
X110639267Y-110133850D01*
X110639263Y-110133849D01*
X110633345Y-110132054D01*
X110459169Y-110114899D01*
X110284993Y-110132054D01*
X110279075Y-110133849D01*
X110279071Y-110133850D01*
X110123433Y-110181062D01*
X110123430Y-110181063D01*
X110117510Y-110182859D01*
X109963157Y-110265363D01*
X109958376Y-110269287D01*
X109847709Y-110360108D01*
X109844478Y-110362672D01*
X109827314Y-110375842D01*
X109827302Y-110375858D01*
X109827286Y-110375870D01*
X109822048Y-110382697D01*
X109822045Y-110382700D01*
X109814106Y-110393048D01*
X109811544Y-110396277D01*
X109800667Y-110409532D01*
X109716822Y-110511710D01*
X109713906Y-110517166D01*
X109713904Y-110517169D01*
X109667570Y-110603863D01*
X109634330Y-110666056D01*
X109583531Y-110833529D01*
X109566378Y-111007694D01*
X109583529Y-111181859D01*
X109585324Y-111187777D01*
X109624282Y-111316219D01*
X109634325Y-111349332D01*
X109637243Y-111354793D01*
X109637244Y-111354794D01*
X109653316Y-111384867D01*
X109667783Y-111454374D01*
X109642376Y-111520668D01*
X109631285Y-111533351D01*
X109510041Y-111654595D01*
X109447729Y-111688621D01*
X109420946Y-111691500D01*
X109034600Y-111691500D01*
X109031354Y-111691837D01*
X109031350Y-111691837D01*
X108935693Y-111701762D01*
X108935689Y-111701763D01*
X108928835Y-111702474D01*
X108922299Y-111704655D01*
X108922297Y-111704655D01*
X108859895Y-111725474D01*
X108761055Y-111758450D01*
X108760663Y-111757276D01*
X108697781Y-111766941D01*
X108632917Y-111738077D01*
X108593955Y-111678727D01*
X108588500Y-111642055D01*
X108588500Y-108380985D01*
X111311801Y-108380985D01*
X111316276Y-108396224D01*
X111317666Y-108397429D01*
X111325349Y-108399100D01*
X111877886Y-108399100D01*
X111893125Y-108394625D01*
X111894330Y-108393235D01*
X111896001Y-108385552D01*
X111896001Y-107756816D01*
X111891526Y-107741577D01*
X111890136Y-107740372D01*
X111882453Y-107738701D01*
X111775132Y-107738701D01*
X111768311Y-107739071D01*
X111717449Y-107744595D01*
X111702197Y-107748221D01*
X111581747Y-107793376D01*
X111566152Y-107801914D01*
X111464077Y-107878415D01*
X111451516Y-107890976D01*
X111375015Y-107993051D01*
X111366477Y-108008646D01*
X111321323Y-108129094D01*
X111317696Y-108144349D01*
X111312170Y-108195214D01*
X111311801Y-108202028D01*
X111311801Y-108380985D01*
X108588500Y-108380985D01*
X108588500Y-107835955D01*
X108608502Y-107767834D01*
X108625405Y-107746860D01*
X109436860Y-106935405D01*
X109499172Y-106901379D01*
X109525955Y-106898500D01*
X110898134Y-106898500D01*
X110960316Y-106891745D01*
X111096705Y-106840615D01*
X111213261Y-106753261D01*
X111300615Y-106636705D01*
X111351745Y-106500316D01*
X111358500Y-106438134D01*
X111358500Y-104641866D01*
X111351745Y-104579684D01*
X111300615Y-104443295D01*
X111213261Y-104326739D01*
X111096705Y-104239385D01*
X111073586Y-104230718D01*
X110978203Y-104194960D01*
X110921439Y-104152318D01*
X110896739Y-104085756D01*
X110911947Y-104016408D01*
X110933493Y-103987727D01*
X111034435Y-103887137D01*
X111038096Y-103883489D01*
X111097594Y-103800689D01*
X111165435Y-103706277D01*
X111168453Y-103702077D01*
X111267430Y-103501811D01*
X111332370Y-103288069D01*
X111361529Y-103066590D01*
X111362112Y-103042723D01*
X111363074Y-103003365D01*
X111363074Y-103003361D01*
X111363156Y-103000000D01*
X111344852Y-102777361D01*
X111290431Y-102560702D01*
X111201354Y-102355840D01*
X111080014Y-102168277D01*
X110929670Y-102003051D01*
X110925619Y-101999852D01*
X110925615Y-101999848D01*
X110758414Y-101867800D01*
X110758410Y-101867798D01*
X110754359Y-101864598D01*
X110558789Y-101756638D01*
X110553920Y-101754914D01*
X110553916Y-101754912D01*
X110353087Y-101683795D01*
X110353083Y-101683794D01*
X110348212Y-101682069D01*
X110343119Y-101681162D01*
X110343116Y-101681161D01*
X110133373Y-101643800D01*
X110133367Y-101643799D01*
X110128284Y-101642894D01*
X110054452Y-101641992D01*
X109910081Y-101640228D01*
X109910079Y-101640228D01*
X109904911Y-101640165D01*
X109684091Y-101673955D01*
X109471756Y-101743357D01*
X109273607Y-101846507D01*
X109269474Y-101849610D01*
X109269471Y-101849612D01*
X109245247Y-101867800D01*
X109094965Y-101980635D01*
X108940629Y-102142138D01*
X108814743Y-102326680D01*
X108720688Y-102529305D01*
X108660989Y-102744570D01*
X108637251Y-102966695D01*
X108637548Y-102971848D01*
X108637548Y-102971851D01*
X108643011Y-103066590D01*
X108650110Y-103189715D01*
X108651247Y-103194761D01*
X108651248Y-103194767D01*
X108671119Y-103282939D01*
X108699222Y-103407639D01*
X108783266Y-103614616D01*
X108899987Y-103805088D01*
X109046250Y-103973938D01*
X109050230Y-103977242D01*
X109054981Y-103981187D01*
X109094616Y-104040090D01*
X109096113Y-104111071D01*
X109058997Y-104171593D01*
X109018725Y-104196112D01*
X108926414Y-104230718D01*
X108903295Y-104239385D01*
X108786739Y-104326739D01*
X108699385Y-104443295D01*
X108648255Y-104579684D01*
X108641500Y-104641866D01*
X108641500Y-106014045D01*
X108621498Y-106082166D01*
X108604595Y-106103140D01*
X107616982Y-107090753D01*
X107604591Y-107101620D01*
X107580277Y-107120277D01*
X107485946Y-107243211D01*
X107461384Y-107302510D01*
X107426647Y-107386370D01*
X107406422Y-107540000D01*
X107407500Y-107548188D01*
X107410422Y-107570384D01*
X107411500Y-107586830D01*
X107411500Y-113761071D01*
X107391498Y-113829192D01*
X107337842Y-113875685D01*
X107267568Y-113885789D01*
X107202988Y-113856295D01*
X107165667Y-113800007D01*
X107153016Y-113761071D01*
X107131797Y-113695765D01*
X107008660Y-113443298D01*
X107006205Y-113439659D01*
X107006202Y-113439653D01*
X106925935Y-113320653D01*
X106851585Y-113210424D01*
X106663629Y-113001678D01*
X106448450Y-112821121D01*
X106210236Y-112672269D01*
X105953625Y-112558018D01*
X105683610Y-112480593D01*
X105679260Y-112479982D01*
X105679257Y-112479981D01*
X105576310Y-112465513D01*
X105405448Y-112441500D01*
X105194854Y-112441500D01*
X105192668Y-112441653D01*
X105192664Y-112441653D01*
X104989173Y-112455882D01*
X104989168Y-112455883D01*
X104984788Y-112456189D01*
X104710030Y-112514591D01*
X104705901Y-112516094D01*
X104705897Y-112516095D01*
X104450219Y-112609154D01*
X104450215Y-112609156D01*
X104446074Y-112610663D01*
X104198058Y-112742536D01*
X104194499Y-112745122D01*
X104194497Y-112745123D01*
X104089895Y-112821121D01*
X103970808Y-112907642D01*
X103967644Y-112910698D01*
X103967641Y-112910700D01*
X103926945Y-112950000D01*
X103768748Y-113102769D01*
X103595812Y-113324118D01*
X103593616Y-113327922D01*
X103593611Y-113327929D01*
X103492189Y-113503598D01*
X103455364Y-113567381D01*
X103350138Y-113827824D01*
X103349073Y-113832097D01*
X103349072Y-113832099D01*
X103295123Y-114048478D01*
X103282183Y-114100376D01*
X103281724Y-114104744D01*
X103281723Y-114104749D01*
X103253465Y-114373616D01*
X103252822Y-114379733D01*
X103252975Y-114384121D01*
X103252975Y-114384127D01*
X103261893Y-114639491D01*
X103262625Y-114660458D01*
X103263387Y-114664781D01*
X103263388Y-114664788D01*
X103280517Y-114761928D01*
X103311402Y-114937087D01*
X103398203Y-115204235D01*
X103400131Y-115208188D01*
X103400133Y-115208193D01*
X103441217Y-115292426D01*
X103521340Y-115456702D01*
X103523795Y-115460341D01*
X103523798Y-115460347D01*
X103596890Y-115568710D01*
X103678415Y-115689576D01*
X103866371Y-115898322D01*
X103869733Y-115901143D01*
X103869734Y-115901144D01*
X103934105Y-115955157D01*
X104081550Y-116078879D01*
X104319764Y-116227731D01*
X104576375Y-116341982D01*
X104580603Y-116343194D01*
X104580602Y-116343194D01*
X104837058Y-116416731D01*
X104846390Y-116419407D01*
X104850740Y-116420018D01*
X104850743Y-116420019D01*
X104953690Y-116434487D01*
X105124552Y-116458500D01*
X105335146Y-116458500D01*
X105337332Y-116458347D01*
X105337336Y-116458347D01*
X105540827Y-116444118D01*
X105540832Y-116444117D01*
X105545212Y-116443811D01*
X105819970Y-116385409D01*
X105824099Y-116383906D01*
X105824103Y-116383905D01*
X106079781Y-116290846D01*
X106079785Y-116290844D01*
X106083926Y-116289337D01*
X106331942Y-116157464D01*
X106436896Y-116081211D01*
X106555629Y-115994947D01*
X106555632Y-115994944D01*
X106559192Y-115992358D01*
X106575321Y-115976783D01*
X106659947Y-115895060D01*
X106761252Y-115797231D01*
X106934188Y-115575882D01*
X106936384Y-115572078D01*
X106936389Y-115572071D01*
X107072435Y-115336431D01*
X107074636Y-115332619D01*
X107150799Y-115144110D01*
X107168675Y-115099865D01*
X107212739Y-115044198D01*
X107279904Y-115021190D01*
X107348846Y-115038147D01*
X107397676Y-115089685D01*
X107411500Y-115147066D01*
X107411500Y-119153170D01*
X107410422Y-119169615D01*
X107406422Y-119200000D01*
X107407500Y-119208189D01*
X107409468Y-119223134D01*
X107426647Y-119353630D01*
X107456893Y-119426648D01*
X107485946Y-119496789D01*
X107580277Y-119619723D01*
X107604594Y-119638382D01*
X107616978Y-119649243D01*
X108350753Y-120383017D01*
X108361620Y-120395409D01*
X108380277Y-120419723D01*
X108503211Y-120514054D01*
X108561653Y-120538261D01*
X108646371Y-120573353D01*
X108654555Y-120574430D01*
X108654557Y-120574431D01*
X108791812Y-120592500D01*
X108800000Y-120593578D01*
X108830385Y-120589578D01*
X108846830Y-120588500D01*
X111189297Y-120588500D01*
X111257418Y-120608502D01*
X111264848Y-120613663D01*
X111280795Y-120625615D01*
X111417184Y-120676745D01*
X111479366Y-120683500D01*
X111728000Y-120683500D01*
X111796121Y-120703502D01*
X111842614Y-120757158D01*
X111854000Y-120809500D01*
X111854000Y-121508733D01*
X111853473Y-121519916D01*
X111851798Y-121527409D01*
X111852047Y-121535335D01*
X111852047Y-121535336D01*
X111853938Y-121595486D01*
X111854000Y-121599445D01*
X111854000Y-121627356D01*
X111854497Y-121631290D01*
X111854497Y-121631291D01*
X111854505Y-121631356D01*
X111855438Y-121643193D01*
X111856827Y-121687389D01*
X111862478Y-121706839D01*
X111866487Y-121726200D01*
X111869026Y-121746297D01*
X111871945Y-121753668D01*
X111871945Y-121753670D01*
X111885304Y-121787412D01*
X111889149Y-121798642D01*
X111895607Y-121820872D01*
X111901482Y-121841093D01*
X111905515Y-121847912D01*
X111905517Y-121847917D01*
X111911793Y-121858528D01*
X111920488Y-121876276D01*
X111927948Y-121895117D01*
X111932610Y-121901533D01*
X111932610Y-121901534D01*
X111953936Y-121930887D01*
X111960452Y-121940807D01*
X111982958Y-121978862D01*
X111997279Y-121993183D01*
X112010119Y-122008216D01*
X112022028Y-122024607D01*
X112028134Y-122029658D01*
X112056105Y-122052798D01*
X112064884Y-122060788D01*
X112196343Y-122192247D01*
X112203887Y-122200537D01*
X112208000Y-122207018D01*
X112213777Y-122212443D01*
X112257667Y-122253658D01*
X112260509Y-122256413D01*
X112280230Y-122276134D01*
X112278884Y-122277480D01*
X112312659Y-122331115D01*
X112312007Y-122402109D01*
X112273075Y-122461479D01*
X112208226Y-122490377D01*
X112191442Y-122491500D01*
X103049367Y-122491500D01*
X103029982Y-122490000D01*
X103015149Y-122487690D01*
X103015145Y-122487690D01*
X103006276Y-122486309D01*
X102989077Y-122488558D01*
X102965137Y-122489391D01*
X102707290Y-122473794D01*
X102692186Y-122471960D01*
X102620214Y-122458771D01*
X102411240Y-122420475D01*
X102396473Y-122416836D01*
X102349213Y-122402109D01*
X102123769Y-122331858D01*
X102109555Y-122326466D01*
X101849092Y-122209242D01*
X101835621Y-122202172D01*
X101591187Y-122054405D01*
X101578666Y-122045762D01*
X101362345Y-121876287D01*
X101353828Y-121869614D01*
X101342440Y-121859525D01*
X101140475Y-121657560D01*
X101130385Y-121646171D01*
X100954238Y-121421334D01*
X100945595Y-121408813D01*
X100797828Y-121164379D01*
X100790757Y-121150906D01*
X100777165Y-121120705D01*
X100673534Y-120890445D01*
X100668141Y-120876227D01*
X100664296Y-120863886D01*
X100583164Y-120603526D01*
X100579523Y-120588754D01*
X100579477Y-120588500D01*
X100528040Y-120307814D01*
X100526206Y-120292710D01*
X100511269Y-120045768D01*
X100512520Y-120022216D01*
X100512334Y-120022199D01*
X100512769Y-120017350D01*
X100513576Y-120012552D01*
X100513729Y-120000000D01*
X100509773Y-119972376D01*
X100508500Y-119954514D01*
X100508500Y-105393535D01*
X100528502Y-105325414D01*
X100582158Y-105278921D01*
X100652432Y-105268817D01*
X100717012Y-105298311D01*
X100739080Y-105323258D01*
X100853834Y-105494029D01*
X101084665Y-105768150D01*
X101343751Y-106015738D01*
X101628061Y-106233897D01*
X101660056Y-106253350D01*
X101931355Y-106418303D01*
X101931360Y-106418306D01*
X101934270Y-106420075D01*
X101937358Y-106421521D01*
X101937357Y-106421521D01*
X102255710Y-106570649D01*
X102255720Y-106570653D01*
X102258794Y-106572093D01*
X102262012Y-106573195D01*
X102262015Y-106573196D01*
X102594615Y-106687071D01*
X102594623Y-106687073D01*
X102597838Y-106688174D01*
X102947435Y-106766959D01*
X102999728Y-106772917D01*
X103300114Y-106807142D01*
X103300122Y-106807142D01*
X103303497Y-106807527D01*
X103306901Y-106807545D01*
X103306904Y-106807545D01*
X103501227Y-106808562D01*
X103661857Y-106809403D01*
X103665243Y-106809053D01*
X103665245Y-106809053D01*
X104014932Y-106772917D01*
X104014941Y-106772916D01*
X104018324Y-106772566D01*
X104021657Y-106771852D01*
X104021660Y-106771851D01*
X104348305Y-106701824D01*
X104368727Y-106697446D01*
X104708968Y-106584922D01*
X105035066Y-106436311D01*
X105160755Y-106361682D01*
X105340262Y-106255099D01*
X105340267Y-106255096D01*
X105343207Y-106253350D01*
X105629786Y-106038180D01*
X105891451Y-105793319D01*
X106125140Y-105521630D01*
X106234426Y-105362618D01*
X106326190Y-105229101D01*
X106326195Y-105229094D01*
X106328120Y-105226292D01*
X106329732Y-105223298D01*
X106329737Y-105223290D01*
X106496395Y-104913772D01*
X106498017Y-104910760D01*
X106632842Y-104578724D01*
X106643142Y-104542568D01*
X106706155Y-104321358D01*
X106731020Y-104234070D01*
X106791401Y-103880828D01*
X106793511Y-103846340D01*
X106813168Y-103524928D01*
X106813278Y-103523131D01*
X106813316Y-103512265D01*
X106813353Y-103501819D01*
X106813353Y-103501806D01*
X106813359Y-103500000D01*
X106793979Y-103142159D01*
X106736066Y-102788505D01*
X106640297Y-102443173D01*
X106637243Y-102435497D01*
X106520501Y-102142138D01*
X106507793Y-102110205D01*
X106366907Y-101844118D01*
X106341702Y-101796513D01*
X106341698Y-101796506D01*
X106340103Y-101793494D01*
X106139190Y-101496746D01*
X105907403Y-101223432D01*
X105647454Y-100976750D01*
X105456448Y-100831242D01*
X105365091Y-100761647D01*
X105365089Y-100761646D01*
X105362384Y-100759585D01*
X105359466Y-100757825D01*
X105359459Y-100757820D01*
X105333880Y-100742390D01*
X105285881Y-100690077D01*
X105273785Y-100620118D01*
X105301432Y-100554726D01*
X105360044Y-100514661D01*
X105398962Y-100508500D01*
X114600006Y-100508500D01*
X114668127Y-100528502D01*
G37*
G04 #@! TD.AperFunction*
G04 #@! TA.AperFunction,Conductor*
G36*
X109629032Y-115650924D02*
G01*
X109674095Y-115679885D01*
X110348629Y-116354419D01*
X110382655Y-116416731D01*
X110384456Y-116427068D01*
X110398629Y-116534728D01*
X110433049Y-116617823D01*
X110457928Y-116677887D01*
X110552259Y-116800821D01*
X110558809Y-116805847D01*
X110576573Y-116819478D01*
X110588964Y-116830345D01*
X111398976Y-117640357D01*
X111433002Y-117702669D01*
X111427937Y-117773484D01*
X111385390Y-117830320D01*
X111354111Y-117847434D01*
X111289446Y-117871676D01*
X111273851Y-117880214D01*
X111171776Y-117956715D01*
X111159215Y-117969276D01*
X111082714Y-118071351D01*
X111074176Y-118086946D01*
X111029022Y-118207394D01*
X111025395Y-118222649D01*
X111019869Y-118273514D01*
X111019500Y-118280328D01*
X111019500Y-118306885D01*
X111023975Y-118322124D01*
X111025365Y-118323329D01*
X111033048Y-118325000D01*
X111634384Y-118325000D01*
X111642504Y-118322616D01*
X111713500Y-118322617D01*
X111773226Y-118361002D01*
X111802718Y-118425583D01*
X111804000Y-118443513D01*
X111804000Y-118554547D01*
X111783998Y-118622668D01*
X111730342Y-118669161D01*
X111660068Y-118679265D01*
X111651218Y-118677668D01*
X111638953Y-118675000D01*
X111037616Y-118675000D01*
X111022377Y-118679475D01*
X111021172Y-118680865D01*
X111019501Y-118688548D01*
X111019501Y-118719670D01*
X111019870Y-118726482D01*
X111020946Y-118736386D01*
X111020946Y-118763607D01*
X111019869Y-118773523D01*
X111019500Y-118780327D01*
X111019500Y-118806885D01*
X111023975Y-118822124D01*
X111025365Y-118823329D01*
X111033048Y-118825000D01*
X111634385Y-118825000D01*
X111661288Y-118817101D01*
X111701392Y-118791328D01*
X111772388Y-118791328D01*
X111832114Y-118829712D01*
X111854871Y-118867996D01*
X111861885Y-118886705D01*
X111949239Y-119003261D01*
X111956419Y-119008642D01*
X111962769Y-119014992D01*
X111960758Y-119017003D01*
X111994580Y-119062239D01*
X112002500Y-119106205D01*
X112002500Y-119190500D01*
X111982498Y-119258621D01*
X111928842Y-119305114D01*
X111876500Y-119316500D01*
X111778500Y-119316500D01*
X111710379Y-119296498D01*
X111663886Y-119242842D01*
X111654695Y-119200592D01*
X111648025Y-119177876D01*
X111646635Y-119176671D01*
X111638952Y-119175000D01*
X111037616Y-119175000D01*
X111022377Y-119179475D01*
X111021172Y-119180865D01*
X111019501Y-119188548D01*
X111019501Y-119219670D01*
X111019870Y-119226482D01*
X111020946Y-119236386D01*
X111020946Y-119263607D01*
X111019869Y-119273523D01*
X111019500Y-119280327D01*
X111019500Y-119285500D01*
X110999498Y-119353621D01*
X110945842Y-119400114D01*
X110893500Y-119411500D01*
X109095955Y-119411500D01*
X109027834Y-119391498D01*
X109006859Y-119374595D01*
X108625404Y-118993139D01*
X108591379Y-118930827D01*
X108588500Y-118904044D01*
X108588500Y-117030021D01*
X108608502Y-116961900D01*
X108662158Y-116915407D01*
X108732432Y-116905303D01*
X108786771Y-116926808D01*
X108949088Y-117040464D01*
X108958584Y-117045947D01*
X109148113Y-117134326D01*
X109158405Y-117138072D01*
X109360401Y-117192196D01*
X109371196Y-117194099D01*
X109579525Y-117212326D01*
X109590475Y-117212326D01*
X109798804Y-117194099D01*
X109809599Y-117192196D01*
X110011595Y-117138072D01*
X110021887Y-117134326D01*
X110211416Y-117045947D01*
X110220912Y-117040464D01*
X110262148Y-117011590D01*
X110270523Y-117001113D01*
X110263455Y-116987667D01*
X109314884Y-116039095D01*
X109280859Y-115976783D01*
X109285924Y-115905967D01*
X109314885Y-115860905D01*
X109495905Y-115679885D01*
X109558217Y-115645859D01*
X109629032Y-115650924D01*
G37*
G04 #@! TD.AperFunction*
G04 #@! TA.AperFunction,Conductor*
G36*
X115614512Y-118018713D02*
G01*
X115621095Y-118024842D01*
X116229595Y-118633342D01*
X116263621Y-118695654D01*
X116266500Y-118722437D01*
X116266500Y-118748732D01*
X116277113Y-118851019D01*
X116331244Y-119013268D01*
X116372646Y-119080173D01*
X116391500Y-119146473D01*
X116391500Y-119240500D01*
X116371498Y-119308621D01*
X116317842Y-119355114D01*
X116265500Y-119366500D01*
X115532000Y-119366500D01*
X115463879Y-119346498D01*
X115417386Y-119292842D01*
X115406000Y-119240500D01*
X115406000Y-118113937D01*
X115426002Y-118045816D01*
X115479658Y-117999323D01*
X115549932Y-117989219D01*
X115614512Y-118018713D01*
G37*
G04 #@! TD.AperFunction*
G04 #@! TA.AperFunction,Conductor*
G36*
X114395684Y-116803502D02*
G01*
X114416658Y-116820405D01*
X114747658Y-117151405D01*
X114781684Y-117213717D01*
X114776619Y-117284532D01*
X114734072Y-117341368D01*
X114667552Y-117366179D01*
X114658563Y-117366500D01*
X113601263Y-117366500D01*
X113590079Y-117365973D01*
X113582591Y-117364299D01*
X113574668Y-117364548D01*
X113514533Y-117366438D01*
X113510575Y-117366500D01*
X113482644Y-117366500D01*
X113478729Y-117366995D01*
X113478725Y-117366995D01*
X113478667Y-117367003D01*
X113478638Y-117367006D01*
X113466796Y-117367939D01*
X113422610Y-117369327D01*
X113405244Y-117374372D01*
X113403158Y-117374978D01*
X113383807Y-117378986D01*
X113380634Y-117379387D01*
X113310543Y-117368084D01*
X113275741Y-117343476D01*
X113179992Y-117247727D01*
X113145966Y-117185415D01*
X113151031Y-117114600D01*
X113193578Y-117057764D01*
X113207184Y-117049618D01*
X113206903Y-117049132D01*
X113211666Y-117046382D01*
X113216654Y-117044056D01*
X113333984Y-116961900D01*
X113392527Y-116920908D01*
X113392529Y-116920906D01*
X113397038Y-116917749D01*
X113494382Y-116820405D01*
X113556694Y-116786379D01*
X113583477Y-116783500D01*
X114327563Y-116783500D01*
X114395684Y-116803502D01*
G37*
G04 #@! TD.AperFunction*
G04 #@! TA.AperFunction,Conductor*
G36*
X111749761Y-111183416D02*
G01*
X111884395Y-111233486D01*
X112013575Y-111250722D01*
X112078451Y-111279557D01*
X112108032Y-111316219D01*
X112142665Y-111381013D01*
X112146590Y-111385796D01*
X112146591Y-111385797D01*
X112162405Y-111405066D01*
X112190159Y-111470413D01*
X112178178Y-111540391D01*
X112162406Y-111564933D01*
X112142665Y-111588987D01*
X112139748Y-111594445D01*
X112139747Y-111594446D01*
X112108500Y-111652906D01*
X112060161Y-111743341D01*
X112058365Y-111749262D01*
X112058362Y-111749269D01*
X112054305Y-111762643D01*
X112015388Y-111822024D01*
X111986981Y-111840260D01*
X111962830Y-111851522D01*
X111953347Y-111855944D01*
X111948840Y-111859100D01*
X111948838Y-111859101D01*
X111777473Y-111979092D01*
X111777470Y-111979094D01*
X111772962Y-111982251D01*
X111617251Y-112137962D01*
X111614094Y-112142470D01*
X111614092Y-112142473D01*
X111508107Y-112293835D01*
X111490944Y-112318347D01*
X111488621Y-112323329D01*
X111488618Y-112323334D01*
X111454571Y-112396350D01*
X111397880Y-112517924D01*
X111340885Y-112730629D01*
X111321693Y-112950000D01*
X111340885Y-113169371D01*
X111397880Y-113382076D01*
X111400205Y-113387061D01*
X111488618Y-113576666D01*
X111488621Y-113576671D01*
X111490944Y-113581653D01*
X111494100Y-113586160D01*
X111494101Y-113586162D01*
X111604142Y-113743316D01*
X111617251Y-113762038D01*
X111772962Y-113917749D01*
X111777471Y-113920906D01*
X111777473Y-113920908D01*
X111837462Y-113962913D01*
X111952261Y-114043296D01*
X111953346Y-114044056D01*
X111952917Y-114044668D01*
X111998915Y-114092902D01*
X112012355Y-114162615D01*
X111985973Y-114228528D01*
X111981404Y-114233803D01*
X111977843Y-114236813D01*
X111973700Y-114242232D01*
X111973699Y-114242233D01*
X111961696Y-114257933D01*
X111941885Y-114283845D01*
X111929969Y-114299430D01*
X111928110Y-114301802D01*
X111878675Y-114363286D01*
X111875642Y-114369396D01*
X111874227Y-114371609D01*
X111873931Y-114372032D01*
X111873610Y-114372548D01*
X111873351Y-114373019D01*
X111871998Y-114375252D01*
X111867850Y-114380678D01*
X111851126Y-114416543D01*
X111804211Y-114469827D01*
X111735934Y-114489289D01*
X111722017Y-114488407D01*
X111623566Y-114476668D01*
X111616563Y-114477404D01*
X111616559Y-114477404D01*
X111615951Y-114477468D01*
X111615564Y-114477397D01*
X111609517Y-114477355D01*
X111609524Y-114476293D01*
X111546113Y-114464695D01*
X111513377Y-114440942D01*
X111455231Y-114382388D01*
X111455227Y-114382385D01*
X111450268Y-114377391D01*
X111306590Y-114286210D01*
X111146282Y-114229127D01*
X110977311Y-114208979D01*
X110970308Y-114209715D01*
X110970307Y-114209715D01*
X110815083Y-114226029D01*
X110815079Y-114226030D01*
X110808075Y-114226766D01*
X110665735Y-114275222D01*
X110594804Y-114278240D01*
X110554665Y-114254794D01*
X110548248Y-114314886D01*
X110509379Y-114366040D01*
X110508049Y-114367079D01*
X110502048Y-114370771D01*
X110485615Y-114386864D01*
X110393094Y-114477468D01*
X110380468Y-114489832D01*
X110376657Y-114495746D01*
X110376655Y-114495748D01*
X110357660Y-114525223D01*
X110288286Y-114632869D01*
X110276668Y-114664788D01*
X110255338Y-114723392D01*
X110213244Y-114780563D01*
X110146922Y-114805901D01*
X110083687Y-114794492D01*
X110021887Y-114765674D01*
X110011595Y-114761928D01*
X109809599Y-114707804D01*
X109798804Y-114705901D01*
X109590475Y-114687674D01*
X109579525Y-114687674D01*
X109371196Y-114705901D01*
X109360401Y-114707804D01*
X109158405Y-114761928D01*
X109148113Y-114765674D01*
X108958579Y-114854056D01*
X108949098Y-114859530D01*
X108786771Y-114973193D01*
X108719497Y-114995881D01*
X108650636Y-114978596D01*
X108602052Y-114926826D01*
X108588500Y-114869980D01*
X108588500Y-114257933D01*
X108608502Y-114189812D01*
X108662158Y-114143319D01*
X108732432Y-114133215D01*
X108762227Y-114142093D01*
X108762262Y-114142115D01*
X108769210Y-114144420D01*
X108769211Y-114144420D01*
X108923611Y-114195632D01*
X108923613Y-114195632D01*
X108930139Y-114197797D01*
X108936975Y-114198497D01*
X108936978Y-114198498D01*
X108980031Y-114202909D01*
X109034600Y-114208500D01*
X110135400Y-114208500D01*
X110138646Y-114208163D01*
X110138650Y-114208163D01*
X110234307Y-114198238D01*
X110234311Y-114198237D01*
X110241165Y-114197526D01*
X110247701Y-114195345D01*
X110247703Y-114195345D01*
X110391929Y-114147227D01*
X110462878Y-114144643D01*
X110502405Y-114168057D01*
X110508396Y-114108521D01*
X110548411Y-114058166D01*
X110547388Y-114056875D01*
X110553120Y-114052332D01*
X110559348Y-114048478D01*
X110684305Y-113923303D01*
X110695506Y-113905132D01*
X110773275Y-113778968D01*
X110773276Y-113778966D01*
X110777115Y-113772738D01*
X110832797Y-113604861D01*
X110843500Y-113500400D01*
X110843500Y-112399600D01*
X110835587Y-112323334D01*
X110833238Y-112300693D01*
X110833237Y-112300689D01*
X110832526Y-112293835D01*
X110830343Y-112287291D01*
X110779598Y-112135190D01*
X110777013Y-112064240D01*
X110801730Y-112015369D01*
X110830040Y-111980883D01*
X110899205Y-111851522D01*
X110909644Y-111831998D01*
X110909644Y-111831997D01*
X110912561Y-111826542D01*
X110921649Y-111796597D01*
X110961587Y-111664993D01*
X110961588Y-111664989D01*
X110963385Y-111659067D01*
X110966444Y-111628044D01*
X110993034Y-111562215D01*
X111050994Y-111521212D01*
X111079485Y-111515016D01*
X111110494Y-111511962D01*
X111199377Y-111485000D01*
X111272054Y-111462954D01*
X111272057Y-111462953D01*
X111277977Y-111461157D01*
X111283435Y-111458240D01*
X111283439Y-111458238D01*
X111420706Y-111384867D01*
X111432330Y-111378654D01*
X111547784Y-111283905D01*
X111551009Y-111281345D01*
X111561626Y-111273198D01*
X111568173Y-111268174D01*
X111586833Y-111243856D01*
X111597700Y-111231466D01*
X111616748Y-111212418D01*
X111679060Y-111178392D01*
X111749761Y-111183416D01*
G37*
G04 #@! TD.AperFunction*
M02*
