M48
; DRILL file {KiCad (6.0.11-0)} date 
; FORMAT={-:-/ absolute / metric / decimal}
; #@! TF.CreationDate,2025-05-12T21:51:00-06:00
; #@! TF.GenerationSoftware,Kicad,Pcbnew,(6.0.11-0)
; #@! TF.FileFunction,Plated,1,2,PTH
FMAT,2
METRIC
; #@! TA.AperFunction,Plated,PTH,ViaDrill
T1C0.300
; #@! TA.AperFunction,Plated,PTH,ComponentDrill
T2C3.200
%
G90
G05
T1
X101.0Y-113.0
X101.2Y-106.8
X101.4Y-117.2
X102.6Y-116.2
X104.0Y-115.2
X104.4Y-108.2
X105.0Y-108.6
X105.2Y-115.0
X105.727Y-111.447
X106.453Y-110.759
X106.8Y-113.6
X108.0Y-114.8
X108.221Y-111.582
X108.8Y-105.8
X108.8Y-107.6
X109.2Y-111.8
X109.643Y-110.902
X110.4Y-118.2
X112.6Y-102.4
X112.6Y-113.0
X113.2Y-106.2
X114.6Y-114.0
X115.8Y-110.6
X118.8Y-114.8
X118.8Y-116.4
X119.0Y-117.8
X119.167Y-112.426
X119.254Y-111.346
X119.4Y-108.8
T2
X103.5Y-103.5
X116.5Y-103.5
T0
M30
