G04 #@! TF.GenerationSoftware,KiCad,Pcbnew,(6.0.11-0)*
G04 #@! TF.CreationDate,2025-05-12T21:50:11-06:00*
G04 #@! TF.ProjectId,LightSensorPCB,4c696768-7453-4656-9e73-6f725043422e,rev?*
G04 #@! TF.SameCoordinates,Original*
G04 #@! TF.FileFunction,Legend,Top*
G04 #@! TF.FilePolarity,Positive*
%FSLAX46Y46*%
G04 Gerber Fmt 4.6, Leading zero omitted, Abs format (unit mm)*
G04 Created by KiCad (PCBNEW (6.0.11-0)) date 2025-05-12 21:50:11*
%MOMM*%
%LPD*%
G01*
G04 APERTURE LIST*
G04 Aperture macros list*
%AMRoundRect*
0 Rectangle with rounded corners*
0 $1 Rounding radius*
0 $2 $3 $4 $5 $6 $7 $8 $9 X,Y pos of 4 corners*
0 Add a 4 corners polygon primitive as box body*
4,1,4,$2,$3,$4,$5,$6,$7,$8,$9,$2,$3,0*
0 Add four circle primitives for the rounded corners*
1,1,$1+$1,$2,$3*
1,1,$1+$1,$4,$5*
1,1,$1+$1,$6,$7*
1,1,$1+$1,$8,$9*
0 Add four rect primitives between the rounded corners*
20,1,$1+$1,$2,$3,$4,$5,0*
20,1,$1+$1,$4,$5,$6,$7,0*
20,1,$1+$1,$6,$7,$8,$9,0*
20,1,$1+$1,$8,$9,$2,$3,0*%
G04 Aperture macros list end*
%ADD10C,0.140000*%
%ADD11C,0.160000*%
%ADD12C,0.100000*%
%ADD13C,0.120000*%
%ADD14C,0.127000*%
%ADD15C,0.152400*%
%ADD16C,0.200000*%
%ADD17C,0.010000*%
%ADD18RoundRect,0.250000X-0.250000X-0.475000X0.250000X-0.475000X0.250000X0.475000X-0.250000X0.475000X0*%
%ADD19RoundRect,0.225000X-0.225000X-0.250000X0.225000X-0.250000X0.225000X0.250000X-0.225000X0.250000X0*%
%ADD20R,0.350000X0.600000*%
%ADD21R,0.600000X0.350000*%
%ADD22C,1.000000*%
%ADD23C,5.600000*%
%ADD24R,0.609600X1.549400*%
%ADD25R,1.193800X1.803400*%
%ADD26RoundRect,0.225000X0.225000X0.250000X-0.225000X0.250000X-0.225000X-0.250000X0.225000X-0.250000X0*%
%ADD27R,0.500000X0.500000*%
%ADD28RoundRect,0.218750X-0.256250X0.218750X-0.256250X-0.218750X0.256250X-0.218750X0.256250X0.218750X0*%
%ADD29RoundRect,0.200000X-0.275000X0.200000X-0.275000X-0.200000X0.275000X-0.200000X0.275000X0.200000X0*%
%ADD30RoundRect,0.200000X0.275000X-0.200000X0.275000X0.200000X-0.275000X0.200000X-0.275000X-0.200000X0*%
%ADD31RoundRect,0.225000X0.250000X-0.225000X0.250000X0.225000X-0.250000X0.225000X-0.250000X-0.225000X0*%
G04 APERTURE END LIST*
D10*
X106164285Y-101558142D02*
X106164285Y-100658142D01*
X106164285Y-101086714D02*
X106678571Y-101086714D01*
X106678571Y-101558142D02*
X106678571Y-100658142D01*
X107235714Y-101558142D02*
X107150000Y-101515285D01*
X107107142Y-101472428D01*
X107064285Y-101386714D01*
X107064285Y-101129571D01*
X107107142Y-101043857D01*
X107150000Y-101001000D01*
X107235714Y-100958142D01*
X107364285Y-100958142D01*
X107450000Y-101001000D01*
X107492857Y-101043857D01*
X107535714Y-101129571D01*
X107535714Y-101386714D01*
X107492857Y-101472428D01*
X107450000Y-101515285D01*
X107364285Y-101558142D01*
X107235714Y-101558142D01*
X107921428Y-100958142D02*
X107921428Y-101858142D01*
X107921428Y-101001000D02*
X108007142Y-100958142D01*
X108178571Y-100958142D01*
X108264285Y-101001000D01*
X108307142Y-101043857D01*
X108350000Y-101129571D01*
X108350000Y-101386714D01*
X108307142Y-101472428D01*
X108264285Y-101515285D01*
X108178571Y-101558142D01*
X108007142Y-101558142D01*
X107921428Y-101515285D01*
X108735714Y-100958142D02*
X108735714Y-101858142D01*
X108735714Y-101001000D02*
X108821428Y-100958142D01*
X108992857Y-100958142D01*
X109078571Y-101001000D01*
X109121428Y-101043857D01*
X109164285Y-101129571D01*
X109164285Y-101386714D01*
X109121428Y-101472428D01*
X109078571Y-101515285D01*
X108992857Y-101558142D01*
X108821428Y-101558142D01*
X108735714Y-101515285D01*
X109892857Y-101515285D02*
X109807142Y-101558142D01*
X109635714Y-101558142D01*
X109550000Y-101515285D01*
X109507142Y-101429571D01*
X109507142Y-101086714D01*
X109550000Y-101001000D01*
X109635714Y-100958142D01*
X109807142Y-100958142D01*
X109892857Y-101001000D01*
X109935714Y-101086714D01*
X109935714Y-101172428D01*
X109507142Y-101258142D01*
X110321428Y-101558142D02*
X110321428Y-100958142D01*
X110321428Y-101129571D02*
X110364285Y-101043857D01*
X110407142Y-101001000D01*
X110492857Y-100958142D01*
X110578571Y-100958142D01*
X111564285Y-101558142D02*
X111564285Y-100658142D01*
X111907142Y-100658142D01*
X111992857Y-100701000D01*
X112035714Y-100743857D01*
X112078571Y-100829571D01*
X112078571Y-100958142D01*
X112035714Y-101043857D01*
X111992857Y-101086714D01*
X111907142Y-101129571D01*
X111564285Y-101129571D01*
X112978571Y-101472428D02*
X112935714Y-101515285D01*
X112807142Y-101558142D01*
X112721428Y-101558142D01*
X112592857Y-101515285D01*
X112507142Y-101429571D01*
X112464285Y-101343857D01*
X112421428Y-101172428D01*
X112421428Y-101043857D01*
X112464285Y-100872428D01*
X112507142Y-100786714D01*
X112592857Y-100701000D01*
X112721428Y-100658142D01*
X112807142Y-100658142D01*
X112935714Y-100701000D01*
X112978571Y-100743857D01*
X113664285Y-101086714D02*
X113792857Y-101129571D01*
X113835714Y-101172428D01*
X113878571Y-101258142D01*
X113878571Y-101386714D01*
X113835714Y-101472428D01*
X113792857Y-101515285D01*
X113707142Y-101558142D01*
X113364285Y-101558142D01*
X113364285Y-100658142D01*
X113664285Y-100658142D01*
X113750000Y-100701000D01*
X113792857Y-100743857D01*
X113835714Y-100829571D01*
X113835714Y-100915285D01*
X113792857Y-101001000D01*
X113750000Y-101043857D01*
X113664285Y-101086714D01*
X113364285Y-101086714D01*
X108692857Y-103007142D02*
X108392857Y-102578571D01*
X108178571Y-103007142D02*
X108178571Y-102107142D01*
X108521428Y-102107142D01*
X108607142Y-102150000D01*
X108650000Y-102192857D01*
X108692857Y-102278571D01*
X108692857Y-102407142D01*
X108650000Y-102492857D01*
X108607142Y-102535714D01*
X108521428Y-102578571D01*
X108178571Y-102578571D01*
X109078571Y-102535714D02*
X109378571Y-102535714D01*
X109507142Y-103007142D02*
X109078571Y-103007142D01*
X109078571Y-102107142D01*
X109507142Y-102107142D01*
X109764285Y-102107142D02*
X110064285Y-103007142D01*
X110364285Y-102107142D01*
X111650000Y-102535714D02*
X111778571Y-102578571D01*
X111821428Y-102621428D01*
X111864285Y-102707142D01*
X111864285Y-102835714D01*
X111821428Y-102921428D01*
X111778571Y-102964285D01*
X111692857Y-103007142D01*
X111350000Y-103007142D01*
X111350000Y-102107142D01*
X111650000Y-102107142D01*
X111735714Y-102150000D01*
X111778571Y-102192857D01*
X111821428Y-102278571D01*
X111821428Y-102364285D01*
X111778571Y-102450000D01*
X111735714Y-102492857D01*
X111650000Y-102535714D01*
X111350000Y-102535714D01*
X106892857Y-104456142D02*
X106892857Y-103556142D01*
X107192857Y-104199000D01*
X107492857Y-103556142D01*
X107492857Y-104456142D01*
X108307142Y-104456142D02*
X108307142Y-103984714D01*
X108264285Y-103899000D01*
X108178571Y-103856142D01*
X108007142Y-103856142D01*
X107921428Y-103899000D01*
X108307142Y-104413285D02*
X108221428Y-104456142D01*
X108007142Y-104456142D01*
X107921428Y-104413285D01*
X107878571Y-104327571D01*
X107878571Y-104241857D01*
X107921428Y-104156142D01*
X108007142Y-104113285D01*
X108221428Y-104113285D01*
X108307142Y-104070428D01*
X108650000Y-103856142D02*
X108864285Y-104456142D01*
X109078571Y-103856142D02*
X108864285Y-104456142D01*
X108778571Y-104670428D01*
X108735714Y-104713285D01*
X108650000Y-104756142D01*
X110064285Y-103641857D02*
X110107142Y-103599000D01*
X110192857Y-103556142D01*
X110407142Y-103556142D01*
X110492857Y-103599000D01*
X110535714Y-103641857D01*
X110578571Y-103727571D01*
X110578571Y-103813285D01*
X110535714Y-103941857D01*
X110021428Y-104456142D01*
X110578571Y-104456142D01*
X111135714Y-103556142D02*
X111221428Y-103556142D01*
X111307142Y-103599000D01*
X111350000Y-103641857D01*
X111392857Y-103727571D01*
X111435714Y-103899000D01*
X111435714Y-104113285D01*
X111392857Y-104284714D01*
X111350000Y-104370428D01*
X111307142Y-104413285D01*
X111221428Y-104456142D01*
X111135714Y-104456142D01*
X111050000Y-104413285D01*
X111007142Y-104370428D01*
X110964285Y-104284714D01*
X110921428Y-104113285D01*
X110921428Y-103899000D01*
X110964285Y-103727571D01*
X111007142Y-103641857D01*
X111050000Y-103599000D01*
X111135714Y-103556142D01*
X111778571Y-103641857D02*
X111821428Y-103599000D01*
X111907142Y-103556142D01*
X112121428Y-103556142D01*
X112207142Y-103599000D01*
X112250000Y-103641857D01*
X112292857Y-103727571D01*
X112292857Y-103813285D01*
X112250000Y-103941857D01*
X111735714Y-104456142D01*
X112292857Y-104456142D01*
X113107142Y-103556142D02*
X112678571Y-103556142D01*
X112635714Y-103984714D01*
X112678571Y-103941857D01*
X112764285Y-103899000D01*
X112978571Y-103899000D01*
X113064285Y-103941857D01*
X113107142Y-103984714D01*
X113150000Y-104070428D01*
X113150000Y-104284714D01*
X113107142Y-104370428D01*
X113064285Y-104413285D01*
X112978571Y-104456142D01*
X112764285Y-104456142D01*
X112678571Y-104413285D01*
X112635714Y-104370428D01*
D11*
X102657142Y-118600000D02*
X102657142Y-117990476D01*
X102961904Y-118295238D02*
X102352380Y-118295238D01*
X102161904Y-117685714D02*
X102161904Y-117190476D01*
X102466666Y-117457142D01*
X102466666Y-117342857D01*
X102504761Y-117266666D01*
X102542857Y-117228571D01*
X102619047Y-117190476D01*
X102809523Y-117190476D01*
X102885714Y-117228571D01*
X102923809Y-117266666D01*
X102961904Y-117342857D01*
X102961904Y-117571428D01*
X102923809Y-117647619D01*
X102885714Y-117685714D01*
X102885714Y-116847619D02*
X102923809Y-116809523D01*
X102961904Y-116847619D01*
X102923809Y-116885714D01*
X102885714Y-116847619D01*
X102961904Y-116847619D01*
X102161904Y-116542857D02*
X102161904Y-116047619D01*
X102466666Y-116314285D01*
X102466666Y-116200000D01*
X102504761Y-116123809D01*
X102542857Y-116085714D01*
X102619047Y-116047619D01*
X102809523Y-116047619D01*
X102885714Y-116085714D01*
X102923809Y-116123809D01*
X102961904Y-116200000D01*
X102961904Y-116428571D01*
X102923809Y-116504761D01*
X102885714Y-116542857D01*
X102161904Y-115819047D02*
X102961904Y-115552380D01*
X102161904Y-115285714D01*
D12*
X118625000Y-118017857D02*
X118589285Y-118053571D01*
X118482142Y-118089285D01*
X118410714Y-118089285D01*
X118303571Y-118053571D01*
X118232142Y-117982142D01*
X118196428Y-117910714D01*
X118160714Y-117767857D01*
X118160714Y-117660714D01*
X118196428Y-117517857D01*
X118232142Y-117446428D01*
X118303571Y-117375000D01*
X118410714Y-117339285D01*
X118482142Y-117339285D01*
X118589285Y-117375000D01*
X118625000Y-117410714D01*
X119267857Y-117589285D02*
X119267857Y-118089285D01*
X119089285Y-117303571D02*
X118910714Y-117839285D01*
X119375000Y-117839285D01*
X118625000Y-115917857D02*
X118589285Y-115953571D01*
X118482142Y-115989285D01*
X118410714Y-115989285D01*
X118303571Y-115953571D01*
X118232142Y-115882142D01*
X118196428Y-115810714D01*
X118160714Y-115667857D01*
X118160714Y-115560714D01*
X118196428Y-115417857D01*
X118232142Y-115346428D01*
X118303571Y-115275000D01*
X118410714Y-115239285D01*
X118482142Y-115239285D01*
X118589285Y-115275000D01*
X118625000Y-115310714D01*
X119303571Y-115239285D02*
X118946428Y-115239285D01*
X118910714Y-115596428D01*
X118946428Y-115560714D01*
X119017857Y-115525000D01*
X119196428Y-115525000D01*
X119267857Y-115560714D01*
X119303571Y-115596428D01*
X119339285Y-115667857D01*
X119339285Y-115846428D01*
X119303571Y-115917857D01*
X119267857Y-115953571D01*
X119196428Y-115989285D01*
X119017857Y-115989285D01*
X118946428Y-115953571D01*
X118910714Y-115917857D01*
X101089285Y-111621428D02*
X101696428Y-111621428D01*
X101767857Y-111585714D01*
X101803571Y-111550000D01*
X101839285Y-111478571D01*
X101839285Y-111335714D01*
X101803571Y-111264285D01*
X101767857Y-111228571D01*
X101696428Y-111192857D01*
X101089285Y-111192857D01*
X101160714Y-110871428D02*
X101125000Y-110835714D01*
X101089285Y-110764285D01*
X101089285Y-110585714D01*
X101125000Y-110514285D01*
X101160714Y-110478571D01*
X101232142Y-110442857D01*
X101303571Y-110442857D01*
X101410714Y-110478571D01*
X101839285Y-110907142D01*
X101839285Y-110442857D01*
X109989285Y-110346428D02*
X109989285Y-109917857D01*
X110739285Y-110132142D02*
X109989285Y-110132142D01*
X110739285Y-109667857D02*
X109989285Y-109667857D01*
X109989285Y-109382142D01*
X110025000Y-109310714D01*
X110060714Y-109275000D01*
X110132142Y-109239285D01*
X110239285Y-109239285D01*
X110310714Y-109275000D01*
X110346428Y-109310714D01*
X110382142Y-109382142D01*
X110382142Y-109667857D01*
X110060714Y-108953571D02*
X110025000Y-108917857D01*
X109989285Y-108846428D01*
X109989285Y-108667857D01*
X110025000Y-108596428D01*
X110060714Y-108560714D01*
X110132142Y-108525000D01*
X110203571Y-108525000D01*
X110310714Y-108560714D01*
X110739285Y-108989285D01*
X110739285Y-108525000D01*
X112089285Y-110346428D02*
X112089285Y-109917857D01*
X112839285Y-110132142D02*
X112089285Y-110132142D01*
X112839285Y-109667857D02*
X112089285Y-109667857D01*
X112089285Y-109382142D01*
X112125000Y-109310714D01*
X112160714Y-109275000D01*
X112232142Y-109239285D01*
X112339285Y-109239285D01*
X112410714Y-109275000D01*
X112446428Y-109310714D01*
X112482142Y-109382142D01*
X112482142Y-109667857D01*
X112839285Y-108525000D02*
X112839285Y-108953571D01*
X112839285Y-108739285D02*
X112089285Y-108739285D01*
X112196428Y-108810714D01*
X112267857Y-108882142D01*
X112303571Y-108953571D01*
X115303571Y-107089285D02*
X115732142Y-107089285D01*
X115517857Y-107839285D02*
X115517857Y-107089285D01*
X115982142Y-107839285D02*
X115982142Y-107089285D01*
X116267857Y-107089285D01*
X116339285Y-107125000D01*
X116375000Y-107160714D01*
X116410714Y-107232142D01*
X116410714Y-107339285D01*
X116375000Y-107410714D01*
X116339285Y-107446428D01*
X116267857Y-107482142D01*
X115982142Y-107482142D01*
X117053571Y-107339285D02*
X117053571Y-107839285D01*
X116875000Y-107053571D02*
X116696428Y-107589285D01*
X117160714Y-107589285D01*
X110250000Y-114487785D02*
X110250000Y-115023500D01*
X110214285Y-115130642D01*
X110142857Y-115202071D01*
X110035714Y-115237785D01*
X109964285Y-115237785D01*
X111000000Y-115237785D02*
X110571428Y-115237785D01*
X110785714Y-115237785D02*
X110785714Y-114487785D01*
X110714285Y-114594928D01*
X110642857Y-114666357D01*
X110571428Y-114702071D01*
X101325000Y-114367857D02*
X101289285Y-114403571D01*
X101182142Y-114439285D01*
X101110714Y-114439285D01*
X101003571Y-114403571D01*
X100932142Y-114332142D01*
X100896428Y-114260714D01*
X100860714Y-114117857D01*
X100860714Y-114010714D01*
X100896428Y-113867857D01*
X100932142Y-113796428D01*
X101003571Y-113725000D01*
X101110714Y-113689285D01*
X101182142Y-113689285D01*
X101289285Y-113725000D01*
X101325000Y-113760714D01*
X101610714Y-113760714D02*
X101646428Y-113725000D01*
X101717857Y-113689285D01*
X101896428Y-113689285D01*
X101967857Y-113725000D01*
X102003571Y-113760714D01*
X102039285Y-113832142D01*
X102039285Y-113903571D01*
X102003571Y-114010714D01*
X101575000Y-114439285D01*
X102039285Y-114439285D01*
X116228571Y-108089285D02*
X116228571Y-108696428D01*
X116264285Y-108767857D01*
X116300000Y-108803571D01*
X116371428Y-108839285D01*
X116514285Y-108839285D01*
X116585714Y-108803571D01*
X116621428Y-108767857D01*
X116657142Y-108696428D01*
X116657142Y-108089285D01*
X116942857Y-108089285D02*
X117407142Y-108089285D01*
X117157142Y-108375000D01*
X117264285Y-108375000D01*
X117335714Y-108410714D01*
X117371428Y-108446428D01*
X117407142Y-108517857D01*
X117407142Y-108696428D01*
X117371428Y-108767857D01*
X117335714Y-108803571D01*
X117264285Y-108839285D01*
X117050000Y-108839285D01*
X116978571Y-108803571D01*
X116942857Y-108767857D01*
X104339285Y-119853571D02*
X103589285Y-119853571D01*
X103589285Y-119675000D01*
X103625000Y-119567857D01*
X103696428Y-119496428D01*
X103767857Y-119460714D01*
X103910714Y-119425000D01*
X104017857Y-119425000D01*
X104160714Y-119460714D01*
X104232142Y-119496428D01*
X104303571Y-119567857D01*
X104339285Y-119675000D01*
X104339285Y-119853571D01*
X104339285Y-118710714D02*
X104339285Y-119139285D01*
X104339285Y-118925000D02*
X103589285Y-118925000D01*
X103696428Y-118996428D01*
X103767857Y-119067857D01*
X103803571Y-119139285D01*
X114625000Y-108839285D02*
X114375000Y-108482142D01*
X114196428Y-108839285D02*
X114196428Y-108089285D01*
X114482142Y-108089285D01*
X114553571Y-108125000D01*
X114589285Y-108160714D01*
X114625000Y-108232142D01*
X114625000Y-108339285D01*
X114589285Y-108410714D01*
X114553571Y-108446428D01*
X114482142Y-108482142D01*
X114196428Y-108482142D01*
X114910714Y-108160714D02*
X114946428Y-108125000D01*
X115017857Y-108089285D01*
X115196428Y-108089285D01*
X115267857Y-108125000D01*
X115303571Y-108160714D01*
X115339285Y-108232142D01*
X115339285Y-108303571D01*
X115303571Y-108410714D01*
X114875000Y-108839285D01*
X115339285Y-108839285D01*
X103987285Y-108796428D02*
X103987285Y-108367857D01*
X104737285Y-108582142D02*
X103987285Y-108582142D01*
X104737285Y-108117857D02*
X103987285Y-108117857D01*
X103987285Y-107832142D01*
X104023000Y-107760714D01*
X104058714Y-107725000D01*
X104130142Y-107689285D01*
X104237285Y-107689285D01*
X104308714Y-107725000D01*
X104344428Y-107760714D01*
X104380142Y-107832142D01*
X104380142Y-108117857D01*
X103987285Y-107439285D02*
X103987285Y-106975000D01*
X104273000Y-107225000D01*
X104273000Y-107117857D01*
X104308714Y-107046428D01*
X104344428Y-107010714D01*
X104415857Y-106975000D01*
X104594428Y-106975000D01*
X104665857Y-107010714D01*
X104701571Y-107046428D01*
X104737285Y-107117857D01*
X104737285Y-107332142D01*
X104701571Y-107403571D01*
X104665857Y-107439285D01*
X106239285Y-119425000D02*
X105882142Y-119675000D01*
X106239285Y-119853571D02*
X105489285Y-119853571D01*
X105489285Y-119567857D01*
X105525000Y-119496428D01*
X105560714Y-119460714D01*
X105632142Y-119425000D01*
X105739285Y-119425000D01*
X105810714Y-119460714D01*
X105846428Y-119496428D01*
X105882142Y-119567857D01*
X105882142Y-119853571D01*
X106239285Y-118710714D02*
X106239285Y-119139285D01*
X106239285Y-118925000D02*
X105489285Y-118925000D01*
X105596428Y-118996428D01*
X105667857Y-119067857D01*
X105703571Y-119139285D01*
X101167857Y-108875000D02*
X101203571Y-108910714D01*
X101239285Y-109017857D01*
X101239285Y-109089285D01*
X101203571Y-109196428D01*
X101132142Y-109267857D01*
X101060714Y-109303571D01*
X100917857Y-109339285D01*
X100810714Y-109339285D01*
X100667857Y-109303571D01*
X100596428Y-109267857D01*
X100525000Y-109196428D01*
X100489285Y-109089285D01*
X100489285Y-109017857D01*
X100525000Y-108910714D01*
X100560714Y-108875000D01*
X100489285Y-108625000D02*
X100489285Y-108160714D01*
X100775000Y-108410714D01*
X100775000Y-108303571D01*
X100810714Y-108232142D01*
X100846428Y-108196428D01*
X100917857Y-108160714D01*
X101096428Y-108160714D01*
X101167857Y-108196428D01*
X101203571Y-108232142D01*
X101239285Y-108303571D01*
X101239285Y-108517857D01*
X101203571Y-108589285D01*
X101167857Y-108625000D01*
D13*
X116088748Y-118485000D02*
X116611252Y-118485000D01*
X116088748Y-117015000D02*
X116611252Y-117015000D01*
X116209420Y-116160000D02*
X116490580Y-116160000D01*
X116209420Y-115140000D02*
X116490580Y-115140000D01*
D14*
X105050000Y-109900000D02*
X105050000Y-109500000D01*
X102450000Y-109500000D02*
X102450000Y-109900000D01*
X102450000Y-112600000D02*
X102450000Y-112200000D01*
X105050000Y-112600000D02*
X105050000Y-112200000D01*
D12*
X104800000Y-108950000D02*
G75*
G03*
X104800000Y-108950000I-50000J0D01*
G01*
D13*
X111100000Y-111700000D02*
G75*
G03*
X111100000Y-111700000I-700000J0D01*
G01*
X113200000Y-111700000D02*
G75*
G03*
X113200000Y-111700000I-700000J0D01*
G01*
X118950000Y-107750000D02*
G75*
G03*
X118950000Y-107750000I-700000J0D01*
G01*
D15*
X108362460Y-114396500D02*
X107375800Y-114396500D01*
X108629641Y-119603500D02*
X112370359Y-119603500D01*
X113624200Y-117539061D02*
X113624200Y-114396500D01*
X113624200Y-114396500D02*
X112637540Y-114396500D01*
X107375800Y-114396500D02*
X107375800Y-117539061D01*
D13*
X103890580Y-113540000D02*
X103609420Y-113540000D01*
X103890580Y-114560000D02*
X103609420Y-114560000D01*
D14*
X116130000Y-113700000D02*
X116130000Y-109300000D01*
X118870000Y-109300000D02*
X116130000Y-109300000D01*
X118870000Y-109300000D02*
X118870000Y-113700000D01*
X116130000Y-113700000D02*
X118870000Y-113700000D01*
D16*
X116815000Y-114402000D02*
G75*
G03*
X116815000Y-114402000I-100000J0D01*
G01*
D13*
X104735000Y-117800000D02*
X104735000Y-115515000D01*
X104735000Y-115515000D02*
X103265000Y-115515000D01*
X103265000Y-115515000D02*
X103265000Y-117800000D01*
X114227500Y-110262742D02*
X114227500Y-110737258D01*
X115272500Y-110262742D02*
X115272500Y-110737258D01*
X103650000Y-107850000D02*
G75*
G03*
X103650000Y-107850000I-700000J0D01*
G01*
X105377500Y-117212258D02*
X105377500Y-116737742D01*
X106422500Y-117212258D02*
X106422500Y-116737742D01*
X101560000Y-111190580D02*
X101560000Y-110909420D01*
X100540000Y-111190580D02*
X100540000Y-110909420D01*
%LPC*%
G36*
X117050000Y-113530000D02*
G01*
X116600000Y-113530000D01*
X116600000Y-113450000D01*
X116350000Y-113450000D01*
X116350000Y-112750000D01*
X117050000Y-112750000D01*
X117050000Y-113530000D01*
G37*
D17*
X117050000Y-113530000D02*
X116600000Y-113530000D01*
X116600000Y-113450000D01*
X116350000Y-113450000D01*
X116350000Y-112750000D01*
X117050000Y-112750000D01*
X117050000Y-113530000D01*
D18*
X115400000Y-117750000D03*
X117300000Y-117750000D03*
D19*
X115575000Y-115650000D03*
X117125000Y-115650000D03*
D20*
X104500000Y-109890000D03*
X104000000Y-109890000D03*
X103500000Y-109890000D03*
X103000000Y-109890000D03*
D21*
X102840000Y-110550000D03*
X102840000Y-111050000D03*
X102840000Y-111550000D03*
D20*
X103000000Y-112210000D03*
X103500000Y-112210000D03*
X104000000Y-112210000D03*
X104500000Y-112210000D03*
D21*
X104660000Y-111550000D03*
X104660000Y-111050000D03*
X104660000Y-110550000D03*
D22*
X110400000Y-111700000D03*
D23*
X103500000Y-103500000D03*
D22*
X112500000Y-111700000D03*
X118250000Y-107750000D03*
D24*
X109000000Y-114898500D03*
X110000001Y-114898500D03*
X110999999Y-114898500D03*
X112000000Y-114898500D03*
D25*
X107700001Y-118773501D03*
X113299999Y-118773501D03*
D23*
X116500000Y-103500000D03*
D26*
X104525000Y-114050000D03*
X102975000Y-114050000D03*
D27*
X116700000Y-112300000D03*
X116700000Y-111500000D03*
X116700000Y-110700000D03*
X116700000Y-109900000D03*
X117500000Y-109900000D03*
X118300000Y-109900000D03*
X118300000Y-110700000D03*
X118300000Y-111500000D03*
X118300000Y-112300000D03*
X118300000Y-113100000D03*
X117500000Y-113100000D03*
D28*
X104000000Y-116212500D03*
X104000000Y-117787500D03*
D29*
X114750000Y-109675000D03*
X114750000Y-111325000D03*
D22*
X102950000Y-107850000D03*
D30*
X105900000Y-117800000D03*
X105900000Y-116150000D03*
D31*
X101050000Y-111825000D03*
X101050000Y-110275000D03*
M02*
