M48
; DRILL file {KiCad (6.0.11-0)} date 
; FORMAT={-:-/ absolute / metric / decimal}
; #@! TF.CreationDate,2025-05-14T22:18:45-06:00
; #@! TF.GenerationSoftware,Kicad,Pcbnew,(6.0.11-0)
; #@! TF.FileFunction,Plated,1,2,PTH
FMAT,2
METRIC
; #@! TA.AperFunction,Plated,PTH,ViaDrill
T1C0.300
; #@! TA.AperFunction,Plated,PTH,ComponentDrill
T2C0.600
; #@! TA.AperFunction,Plated,PTH,ComponentDrill
T3C0.800
; #@! TA.AperFunction,Plated,PTH,ComponentDrill
T4C1.000
; #@! TA.AperFunction,Plated,PTH,ComponentDrill
T5C1.092
; #@! TA.AperFunction,Plated,PTH,ComponentDrill
T6C1.500
; #@! TA.AperFunction,Plated,PTH,ComponentDrill
T7C3.200
%
G90
G05
T1
X50.75Y-143.5
X51.25Y-120.75
X51.5Y-110.75
X52.25Y-109.25
X52.5Y-102.0
X52.5Y-113.75
X52.75Y-83.75
X52.75Y-120.75
X53.0Y-138.25
X53.25Y-92.75
X53.25Y-104.5
X53.25Y-109.25
X53.5Y-97.25
X53.5Y-108.25
X53.5Y-148.0
X53.75Y-80.0
X54.25Y-109.25
X54.7Y-120.2
X55.0Y-89.5
X55.0Y-101.25
X55.25Y-112.75
X55.25Y-115.0
X55.5Y-103.25
X55.75Y-73.75
X55.75Y-77.5
X55.75Y-92.5
X56.0Y-117.2
X56.4Y-106.2
X56.5Y-104.5
X56.75Y-128.0
X57.342Y-127.677
X57.847Y-127.268
X58.029Y-103.246
X58.2Y-115.0
X59.5Y-103.75
X59.75Y-96.75
X60.0Y-108.25
X60.5Y-91.75
X61.0Y-124.75
X61.5Y-76.0
X61.6Y-80.105
X61.7Y-102.5
X62.25Y-144.25
X63.5Y-76.0
X65.5Y-118.25
X66.0Y-118.75
X66.5Y-102.5
X66.75Y-119.25
X66.75Y-130.25
X67.75Y-136.75
X68.0Y-132.25
X68.5Y-149.0
X69.75Y-122.5
X75.5Y-122.5
X76.5Y-63.5
X77.777Y-66.0
X78.25Y-101.0
X78.477Y-66.001
X78.691Y-89.25
X78.691Y-112.75
X79.0Y-114.359
X79.175Y-65.973
X79.25Y-55.75
X79.75Y-55.029
X79.8Y-122.8
X80.0Y-74.25
X80.0Y-75.25
X80.0Y-76.25
X80.0Y-77.25
X80.0Y-78.25
X80.0Y-115.0
X80.0Y-116.0
X80.0Y-117.0
X80.0Y-118.0
X80.0Y-119.0
X80.0Y-120.0
X80.25Y-56.5
X83.0Y-66.5
X83.0Y-67.5
X83.0Y-68.5
X83.0Y-69.5
X83.0Y-70.5
X83.0Y-100.25
X83.0Y-101.25
X83.0Y-102.25
X83.0Y-103.25
X83.0Y-104.25
X83.75Y-56.25
X84.0Y-63.75
X86.5Y-122.1
X87.0Y-56.75
X87.471Y-55.982
X87.529Y-113.75
X87.75Y-124.5
X87.821Y-55.377
X88.004Y-113.1
X89.5Y-126.25
X97.25Y-122.5
X98.5Y-125.5
X100.25Y-125.25
T5
X73.31Y-122.475
X73.31Y-133.975
X73.31Y-140.975
X73.843Y-145.8
X77.348Y-145.8
X78.01Y-122.475
X84.06Y-122.475
X84.06Y-133.975
X84.06Y-140.975
X86.992Y-145.8
X88.76Y-122.475
X90.498Y-145.8
X94.81Y-122.475
X94.81Y-133.975
X94.81Y-140.975
X99.51Y-122.475
X100.142Y-145.809
X103.648Y-145.809
X105.609Y-136.352
X105.609Y-139.857
T6
X66.575Y-126.25
X66.575Y-134.15
X66.657Y-72.15
X66.657Y-80.15
X66.657Y-98.55
X66.657Y-106.55
X105.157Y-72.15
X105.157Y-82.9
X105.157Y-98.55
X105.157Y-109.3
T7
X55.0Y-55.0
X55.0Y-65.0
X105.0Y-55.0
X105.0Y-65.0
T2
X62.65Y-147.588G85X60.75Y-147.588
G05
X66.6Y-143.137G85X66.6Y-145.037
G05
T3
X58.5Y-143.237G85X58.5Y-144.938
G05
X61.4Y-140.588G85X59.7Y-140.588
G05
T4
X64.95Y-140.588G85X63.45Y-140.588
G05
T0
M30
