G04 #@! TF.GenerationSoftware,KiCad,Pcbnew,(6.0.11-0)*
G04 #@! TF.CreationDate,2025-05-14T22:18:42-06:00*
G04 #@! TF.ProjectId,AnalogPCB,416e616c-6f67-4504-9342-2e6b69636164,rev?*
G04 #@! TF.SameCoordinates,Original*
G04 #@! TF.FileFunction,Soldermask,Bot*
G04 #@! TF.FilePolarity,Negative*
%FSLAX46Y46*%
G04 Gerber Fmt 4.6, Leading zero omitted, Abs format (unit mm)*
G04 Created by KiCad (PCBNEW (6.0.11-0)) date 2025-05-14 22:18:42*
%MOMM*%
%LPD*%
G01*
G04 APERTURE LIST*
G04 Aperture macros list*
%AMRoundRect*
0 Rectangle with rounded corners*
0 $1 Rounding radius*
0 $2 $3 $4 $5 $6 $7 $8 $9 X,Y pos of 4 corners*
0 Add a 4 corners polygon primitive as box body*
4,1,4,$2,$3,$4,$5,$6,$7,$8,$9,$2,$3,0*
0 Add four circle primitives for the rounded corners*
1,1,$1+$1,$2,$3*
1,1,$1+$1,$4,$5*
1,1,$1+$1,$6,$7*
1,1,$1+$1,$8,$9*
0 Add four rect primitives between the rounded corners*
20,1,$1+$1,$2,$3,$4,$5,0*
20,1,$1+$1,$4,$5,$6,$7,0*
20,1,$1+$1,$6,$7,$8,$9,0*
20,1,$1+$1,$8,$9,$2,$3,0*%
%AMFreePoly0*
4,1,22,0.550000,-0.750000,0.000000,-0.750000,0.000000,-0.745033,-0.079941,-0.743568,-0.215256,-0.701293,-0.333266,-0.622738,-0.424486,-0.514219,-0.481581,-0.384460,-0.499164,-0.250000,-0.500000,-0.250000,-0.500000,0.250000,-0.499164,0.250000,-0.499963,0.256109,-0.478152,0.396186,-0.417904,0.524511,-0.324060,0.630769,-0.204165,0.706417,-0.067858,0.745374,0.000000,0.744959,0.000000,0.750000,
0.550000,0.750000,0.550000,-0.750000,0.550000,-0.750000,$1*%
%AMFreePoly1*
4,1,20,0.000000,0.744959,0.073905,0.744508,0.209726,0.703889,0.328688,0.626782,0.421226,0.519385,0.479903,0.390333,0.500000,0.250000,0.500000,-0.250000,0.499851,-0.262216,0.476331,-0.402017,0.414519,-0.529596,0.319384,-0.634700,0.198574,-0.708877,0.061801,-0.746166,0.000000,-0.745033,0.000000,-0.750000,-0.550000,-0.750000,-0.550000,0.750000,0.000000,0.750000,0.000000,0.744959,
0.000000,0.744959,$1*%
G04 Aperture macros list end*
%ADD10C,0.010000*%
%ADD11C,1.600200*%
%ADD12R,3.000000X3.000000*%
%ADD13C,3.000000*%
%ADD14C,5.600000*%
%ADD15C,2.500000*%
%ADD16FreePoly0,180.000000*%
%ADD17R,1.000000X1.500000*%
%ADD18FreePoly1,180.000000*%
%ADD19RoundRect,0.225000X-0.250000X0.225000X-0.250000X-0.225000X0.250000X-0.225000X0.250000X0.225000X0*%
%ADD20RoundRect,0.250000X0.475000X-0.250000X0.475000X0.250000X-0.475000X0.250000X-0.475000X-0.250000X0*%
%ADD21O,3.404000X1.804000*%
%ADD22O,1.804000X3.404000*%
%ADD23RoundRect,0.102000X0.400000X0.900000X-0.400000X0.900000X-0.400000X-0.900000X0.400000X-0.900000X0*%
G04 APERTURE END LIST*
G36*
X77950000Y-62650000D02*
G01*
X77550000Y-62650000D01*
X77550000Y-60950000D01*
X77950000Y-60950000D01*
X77950000Y-62650000D01*
G37*
D10*
X77950000Y-62650000D02*
X77550000Y-62650000D01*
X77550000Y-60950000D01*
X77950000Y-60950000D01*
X77950000Y-62650000D01*
G36*
X78450000Y-59050000D02*
G01*
X78050000Y-59050000D01*
X78050000Y-57350000D01*
X78450000Y-57350000D01*
X78450000Y-59050000D01*
G37*
X78450000Y-59050000D02*
X78050000Y-59050000D01*
X78050000Y-57350000D01*
X78450000Y-57350000D01*
X78450000Y-59050000D01*
G36*
X80450000Y-62650000D02*
G01*
X80050000Y-62650000D01*
X80050000Y-60950000D01*
X80450000Y-60950000D01*
X80450000Y-62650000D01*
G37*
X80450000Y-62650000D02*
X80050000Y-62650000D01*
X80050000Y-60950000D01*
X80450000Y-60950000D01*
X80450000Y-62650000D01*
G36*
X79450000Y-62650000D02*
G01*
X79050000Y-62650000D01*
X79050000Y-60950000D01*
X79450000Y-60950000D01*
X79450000Y-62650000D01*
G37*
X79450000Y-62650000D02*
X79050000Y-62650000D01*
X79050000Y-60950000D01*
X79450000Y-60950000D01*
X79450000Y-62650000D01*
G36*
X79450000Y-59050000D02*
G01*
X79050000Y-59050000D01*
X79050000Y-57350000D01*
X79450000Y-57350000D01*
X79450000Y-59050000D01*
G37*
X79450000Y-59050000D02*
X79050000Y-59050000D01*
X79050000Y-57350000D01*
X79450000Y-57350000D01*
X79450000Y-59050000D01*
G36*
X80950000Y-59050000D02*
G01*
X80550000Y-59050000D01*
X80550000Y-57350000D01*
X80950000Y-57350000D01*
X80950000Y-59050000D01*
G37*
X80950000Y-59050000D02*
X80550000Y-59050000D01*
X80550000Y-57350000D01*
X80950000Y-57350000D01*
X80950000Y-59050000D01*
G36*
X82450000Y-59050000D02*
G01*
X82050000Y-59050000D01*
X82050000Y-57350000D01*
X82450000Y-57350000D01*
X82450000Y-59050000D01*
G37*
X82450000Y-59050000D02*
X82050000Y-59050000D01*
X82050000Y-57350000D01*
X82450000Y-57350000D01*
X82450000Y-59050000D01*
G36*
X80950000Y-62650000D02*
G01*
X80550000Y-62650000D01*
X80550000Y-60950000D01*
X80950000Y-60950000D01*
X80950000Y-62650000D01*
G37*
X80950000Y-62650000D02*
X80550000Y-62650000D01*
X80550000Y-60950000D01*
X80950000Y-60950000D01*
X80950000Y-62650000D01*
G36*
X81950000Y-62650000D02*
G01*
X81550000Y-62650000D01*
X81550000Y-60950000D01*
X81950000Y-60950000D01*
X81950000Y-62650000D01*
G37*
X81950000Y-62650000D02*
X81550000Y-62650000D01*
X81550000Y-60950000D01*
X81950000Y-60950000D01*
X81950000Y-62650000D01*
G36*
X77950000Y-59050000D02*
G01*
X77550000Y-59050000D01*
X77550000Y-57350000D01*
X77950000Y-57350000D01*
X77950000Y-59050000D01*
G37*
X77950000Y-59050000D02*
X77550000Y-59050000D01*
X77550000Y-57350000D01*
X77950000Y-57350000D01*
X77950000Y-59050000D01*
G36*
X78950000Y-62650000D02*
G01*
X78550000Y-62650000D01*
X78550000Y-60950000D01*
X78950000Y-60950000D01*
X78950000Y-62650000D01*
G37*
X78950000Y-62650000D02*
X78550000Y-62650000D01*
X78550000Y-60950000D01*
X78950000Y-60950000D01*
X78950000Y-62650000D01*
G36*
X81450000Y-59050000D02*
G01*
X81050000Y-59050000D01*
X81050000Y-57350000D01*
X81450000Y-57350000D01*
X81450000Y-59050000D01*
G37*
X81450000Y-59050000D02*
X81050000Y-59050000D01*
X81050000Y-57350000D01*
X81450000Y-57350000D01*
X81450000Y-59050000D01*
G36*
X81950000Y-59050000D02*
G01*
X81550000Y-59050000D01*
X81550000Y-57350000D01*
X81950000Y-57350000D01*
X81950000Y-59050000D01*
G37*
X81950000Y-59050000D02*
X81550000Y-59050000D01*
X81550000Y-57350000D01*
X81950000Y-57350000D01*
X81950000Y-59050000D01*
G36*
X81450000Y-62650000D02*
G01*
X81050000Y-62650000D01*
X81050000Y-60950000D01*
X81450000Y-60950000D01*
X81450000Y-62650000D01*
G37*
X81450000Y-62650000D02*
X81050000Y-62650000D01*
X81050000Y-60950000D01*
X81450000Y-60950000D01*
X81450000Y-62650000D01*
G36*
X78950000Y-59050000D02*
G01*
X78550000Y-59050000D01*
X78550000Y-57350000D01*
X78950000Y-57350000D01*
X78950000Y-59050000D01*
G37*
X78950000Y-59050000D02*
X78550000Y-59050000D01*
X78550000Y-57350000D01*
X78950000Y-57350000D01*
X78950000Y-59050000D01*
G36*
X80450000Y-59050000D02*
G01*
X80050000Y-59050000D01*
X80050000Y-57350000D01*
X80450000Y-57350000D01*
X80450000Y-59050000D01*
G37*
X80450000Y-59050000D02*
X80050000Y-59050000D01*
X80050000Y-57350000D01*
X80450000Y-57350000D01*
X80450000Y-59050000D01*
G36*
X79950000Y-59050000D02*
G01*
X79550000Y-59050000D01*
X79550000Y-57350000D01*
X79950000Y-57350000D01*
X79950000Y-59050000D01*
G37*
X79950000Y-59050000D02*
X79550000Y-59050000D01*
X79550000Y-57350000D01*
X79950000Y-57350000D01*
X79950000Y-59050000D01*
G36*
X78450000Y-62650000D02*
G01*
X78050000Y-62650000D01*
X78050000Y-60950000D01*
X78450000Y-60950000D01*
X78450000Y-62650000D01*
G37*
X78450000Y-62650000D02*
X78050000Y-62650000D01*
X78050000Y-60950000D01*
X78450000Y-60950000D01*
X78450000Y-62650000D01*
G36*
X79950000Y-62650000D02*
G01*
X79550000Y-62650000D01*
X79550000Y-60950000D01*
X79950000Y-60950000D01*
X79950000Y-62650000D01*
G37*
X79950000Y-62650000D02*
X79550000Y-62650000D01*
X79550000Y-60950000D01*
X79950000Y-60950000D01*
X79950000Y-62650000D01*
G36*
X82450000Y-62650000D02*
G01*
X82050000Y-62650000D01*
X82050000Y-60950000D01*
X82450000Y-60950000D01*
X82450000Y-62650000D01*
G37*
X82450000Y-62650000D02*
X82050000Y-62650000D01*
X82050000Y-60950000D01*
X82450000Y-60950000D01*
X82450000Y-62650000D01*
D11*
X105609500Y-136352300D03*
X105609500Y-139857500D03*
X103647700Y-145809500D03*
X100142500Y-145809500D03*
X90497700Y-145800000D03*
X86992500Y-145800000D03*
X77347700Y-145800000D03*
X73842500Y-145800000D03*
D12*
X105157500Y-109300000D03*
D13*
X105157500Y-98550000D03*
X66657500Y-98550000D03*
X66657500Y-106550000D03*
D11*
X94809750Y-122474951D03*
X94809750Y-133974951D03*
X94809750Y-140974950D03*
X99509751Y-122474951D03*
D14*
X55000000Y-65000000D03*
D11*
X73309750Y-122474951D03*
X73309750Y-133974951D03*
X73309750Y-140974950D03*
X78009751Y-122474951D03*
D14*
X55000000Y-55000000D03*
X105000000Y-55000000D03*
D11*
X84059750Y-122474951D03*
X84059750Y-133974951D03*
X84059750Y-140974950D03*
X88759751Y-122474951D03*
D12*
X105157500Y-82900000D03*
D13*
X105157500Y-72150000D03*
X66657500Y-72150000D03*
X66657500Y-80150000D03*
D15*
X66575000Y-126250000D03*
X66575000Y-134150000D03*
D14*
X105000000Y-65000000D03*
D16*
X65250000Y-137500000D03*
D17*
X63950000Y-137500000D03*
D18*
X62650000Y-137500000D03*
D19*
X63600000Y-78600000D03*
X63600000Y-80150000D03*
X63700000Y-104845000D03*
X63700000Y-106395000D03*
D20*
X61700000Y-106350000D03*
X61700000Y-104450000D03*
D21*
X61700000Y-147587500D03*
D22*
X66600000Y-144087500D03*
X58500000Y-144087500D03*
D21*
X64200000Y-140587500D03*
X60550000Y-140587500D03*
D23*
X84000000Y-60000000D03*
X76000000Y-60000000D03*
D20*
X61600000Y-80105000D03*
X61600000Y-78205000D03*
M02*
