G04 #@! TF.GenerationSoftware,KiCad,Pcbnew,(6.0.11-0)*
G04 #@! TF.CreationDate,2025-05-14T22:18:42-06:00*
G04 #@! TF.ProjectId,AnalogPCB,416e616c-6f67-4504-9342-2e6b69636164,rev?*
G04 #@! TF.SameCoordinates,Original*
G04 #@! TF.FileFunction,Copper,L1,Top*
G04 #@! TF.FilePolarity,Positive*
%FSLAX46Y46*%
G04 Gerber Fmt 4.6, Leading zero omitted, Abs format (unit mm)*
G04 Created by KiCad (PCBNEW (6.0.11-0)) date 2025-05-14 22:18:42*
%MOMM*%
%LPD*%
G01*
G04 APERTURE LIST*
G04 Aperture macros list*
%AMRoundRect*
0 Rectangle with rounded corners*
0 $1 Rounding radius*
0 $2 $3 $4 $5 $6 $7 $8 $9 X,Y pos of 4 corners*
0 Add a 4 corners polygon primitive as box body*
4,1,4,$2,$3,$4,$5,$6,$7,$8,$9,$2,$3,0*
0 Add four circle primitives for the rounded corners*
1,1,$1+$1,$2,$3*
1,1,$1+$1,$4,$5*
1,1,$1+$1,$6,$7*
1,1,$1+$1,$8,$9*
0 Add four rect primitives between the rounded corners*
20,1,$1+$1,$2,$3,$4,$5,0*
20,1,$1+$1,$4,$5,$6,$7,0*
20,1,$1+$1,$6,$7,$8,$9,0*
20,1,$1+$1,$8,$9,$2,$3,0*%
%AMFreePoly0*
4,1,22,0.550000,-0.750000,0.000000,-0.750000,0.000000,-0.745033,-0.079941,-0.743568,-0.215256,-0.701293,-0.333266,-0.622738,-0.424486,-0.514219,-0.481581,-0.384460,-0.499164,-0.250000,-0.500000,-0.250000,-0.500000,0.250000,-0.499164,0.250000,-0.499963,0.256109,-0.478152,0.396186,-0.417904,0.524511,-0.324060,0.630769,-0.204165,0.706417,-0.067858,0.745374,0.000000,0.744959,0.000000,0.750000,
0.550000,0.750000,0.550000,-0.750000,0.550000,-0.750000,$1*%
%AMFreePoly1*
4,1,20,0.000000,0.744959,0.073905,0.744508,0.209726,0.703889,0.328688,0.626782,0.421226,0.519385,0.479903,0.390333,0.500000,0.250000,0.500000,-0.250000,0.499851,-0.262216,0.476331,-0.402017,0.414519,-0.529596,0.319384,-0.634700,0.198574,-0.708877,0.061801,-0.746166,0.000000,-0.745033,0.000000,-0.750000,-0.550000,-0.750000,-0.550000,0.750000,0.000000,0.750000,0.000000,0.744959,
0.000000,0.744959,$1*%
G04 Aperture macros list end*
G04 #@! TA.AperFunction,ComponentPad*
%ADD10C,1.600200*%
G04 #@! TD*
G04 #@! TA.AperFunction,SMDPad,CuDef*
%ADD11C,1.000000*%
G04 #@! TD*
G04 #@! TA.AperFunction,ComponentPad*
%ADD12R,3.000000X3.000000*%
G04 #@! TD*
G04 #@! TA.AperFunction,ComponentPad*
%ADD13C,3.000000*%
G04 #@! TD*
G04 #@! TA.AperFunction,SMDPad,CuDef*
%ADD14R,0.406400X0.609600*%
G04 #@! TD*
G04 #@! TA.AperFunction,SMDPad,CuDef*
%ADD15RoundRect,0.218750X0.218750X0.256250X-0.218750X0.256250X-0.218750X-0.256250X0.218750X-0.256250X0*%
G04 #@! TD*
G04 #@! TA.AperFunction,SMDPad,CuDef*
%ADD16RoundRect,0.200000X0.200000X0.275000X-0.200000X0.275000X-0.200000X-0.275000X0.200000X-0.275000X0*%
G04 #@! TD*
G04 #@! TA.AperFunction,SMDPad,CuDef*
%ADD17RoundRect,0.150000X-0.587500X-0.150000X0.587500X-0.150000X0.587500X0.150000X-0.587500X0.150000X0*%
G04 #@! TD*
G04 #@! TA.AperFunction,ComponentPad*
%ADD18C,5.600000*%
G04 #@! TD*
G04 #@! TA.AperFunction,SMDPad,CuDef*
%ADD19RoundRect,0.200000X0.275000X-0.200000X0.275000X0.200000X-0.275000X0.200000X-0.275000X-0.200000X0*%
G04 #@! TD*
G04 #@! TA.AperFunction,SMDPad,CuDef*
%ADD20FreePoly0,270.000000*%
G04 #@! TD*
G04 #@! TA.AperFunction,SMDPad,CuDef*
%ADD21R,1.500000X1.000000*%
G04 #@! TD*
G04 #@! TA.AperFunction,SMDPad,CuDef*
%ADD22FreePoly1,270.000000*%
G04 #@! TD*
G04 #@! TA.AperFunction,SMDPad,CuDef*
%ADD23RoundRect,0.218750X-0.256250X0.218750X-0.256250X-0.218750X0.256250X-0.218750X0.256250X0.218750X0*%
G04 #@! TD*
G04 #@! TA.AperFunction,SMDPad,CuDef*
%ADD24RoundRect,0.218750X0.256250X-0.218750X0.256250X0.218750X-0.256250X0.218750X-0.256250X-0.218750X0*%
G04 #@! TD*
G04 #@! TA.AperFunction,SMDPad,CuDef*
%ADD25RoundRect,0.250000X-0.262500X-0.450000X0.262500X-0.450000X0.262500X0.450000X-0.262500X0.450000X0*%
G04 #@! TD*
G04 #@! TA.AperFunction,SMDPad,CuDef*
%ADD26RoundRect,0.250000X0.262500X0.450000X-0.262500X0.450000X-0.262500X-0.450000X0.262500X-0.450000X0*%
G04 #@! TD*
G04 #@! TA.AperFunction,ComponentPad*
%ADD27C,2.500000*%
G04 #@! TD*
G04 #@! TA.AperFunction,SMDPad,CuDef*
%ADD28RoundRect,0.200000X-0.275000X0.200000X-0.275000X-0.200000X0.275000X-0.200000X0.275000X0.200000X0*%
G04 #@! TD*
G04 #@! TA.AperFunction,ComponentPad*
%ADD29O,3.200000X1.600000*%
G04 #@! TD*
G04 #@! TA.AperFunction,ComponentPad*
%ADD30O,1.600000X3.200000*%
G04 #@! TD*
G04 #@! TA.AperFunction,ViaPad*
%ADD31C,0.450000*%
G04 #@! TD*
G04 #@! TA.AperFunction,ViaPad*
%ADD32C,0.500000*%
G04 #@! TD*
G04 #@! TA.AperFunction,Conductor*
%ADD33C,0.160000*%
G04 #@! TD*
G04 #@! TA.AperFunction,Conductor*
%ADD34C,1.000000*%
G04 #@! TD*
G04 #@! TA.AperFunction,Conductor*
%ADD35C,0.250000*%
G04 #@! TD*
G04 APERTURE END LIST*
D10*
X105609500Y-136352300D03*
X105609500Y-139857500D03*
X103647700Y-145809500D03*
X100142500Y-145809500D03*
X90497700Y-145800000D03*
X86992500Y-145800000D03*
X77347700Y-145800000D03*
X73842500Y-145800000D03*
D11*
X52000000Y-147400000D03*
D12*
X105157500Y-109300000D03*
D13*
X105157500Y-98550000D03*
X66657500Y-98550000D03*
X66657500Y-106550000D03*
D14*
X91800000Y-123750900D03*
X91800000Y-122049100D03*
D15*
X54387500Y-75000000D03*
X52812500Y-75000000D03*
D16*
X54425000Y-69700000D03*
X52775000Y-69700000D03*
D10*
X94809750Y-122474951D03*
X94809750Y-133974951D03*
X94809750Y-140974950D03*
X99509751Y-122474951D03*
D15*
X54387500Y-78600000D03*
X52812500Y-78600000D03*
D17*
X53610000Y-101250000D03*
X53610000Y-103150000D03*
X55485000Y-102200000D03*
D18*
X55000000Y-65000000D03*
D11*
X53585000Y-99300000D03*
D19*
X54400000Y-118325000D03*
X54400000Y-116675000D03*
D11*
X55100000Y-147400000D03*
D10*
X73309750Y-122474951D03*
X73309750Y-133974951D03*
X73309750Y-140974950D03*
X78009751Y-122474951D03*
D19*
X61900000Y-100625000D03*
X61900000Y-98975000D03*
D20*
X52000000Y-93075000D03*
D21*
X52000000Y-94375000D03*
D22*
X52000000Y-95675000D03*
D23*
X59600000Y-83912500D03*
X59600000Y-85487500D03*
D11*
X61700000Y-95800000D03*
D18*
X55000000Y-55000000D03*
D24*
X59700000Y-100487500D03*
X59700000Y-98912500D03*
D11*
X104200000Y-131400000D03*
D15*
X54387500Y-71400000D03*
X52812500Y-71400000D03*
D18*
X105000000Y-55000000D03*
D10*
X84059750Y-122474951D03*
X84059750Y-133974951D03*
X84059750Y-140974950D03*
X88759751Y-122474951D03*
D19*
X54600000Y-106525000D03*
X54600000Y-104875000D03*
D11*
X61600000Y-82000000D03*
X61700000Y-102500000D03*
D12*
X105157500Y-82900000D03*
D13*
X105157500Y-72150000D03*
X66657500Y-72150000D03*
X66657500Y-80150000D03*
D11*
X104200000Y-127500000D03*
D19*
X51585000Y-102925000D03*
X51585000Y-101275000D03*
D11*
X61600000Y-88500000D03*
D25*
X51775000Y-144800000D03*
X53600000Y-144800000D03*
D11*
X53500000Y-87675000D03*
D16*
X54425000Y-76900000D03*
X52775000Y-76900000D03*
D26*
X53600000Y-140200000D03*
X51775000Y-140200000D03*
D19*
X54400000Y-94825000D03*
X54400000Y-93175000D03*
X51500000Y-114500000D03*
X51500000Y-112850000D03*
D14*
X81100000Y-123650900D03*
X81100000Y-121949100D03*
D20*
X52000000Y-116475000D03*
D21*
X52000000Y-117775000D03*
D22*
X52000000Y-119075000D03*
D20*
X52027500Y-104800000D03*
D21*
X52027500Y-106100000D03*
D22*
X52027500Y-107400000D03*
D17*
X53500000Y-89575000D03*
X53500000Y-91475000D03*
X55375000Y-90525000D03*
X53462500Y-112925000D03*
X53462500Y-114825000D03*
X55337500Y-113875000D03*
D27*
X66575000Y-126250000D03*
X66575000Y-134150000D03*
D11*
X53500000Y-110975000D03*
D25*
X51775000Y-142500000D03*
X53600000Y-142500000D03*
D14*
X91900000Y-125749100D03*
X91900000Y-127450900D03*
D16*
X54425000Y-73300000D03*
X52775000Y-73300000D03*
D18*
X105000000Y-65000000D03*
D28*
X61800000Y-83850000D03*
X61800000Y-85500000D03*
D19*
X51500000Y-91225000D03*
X51500000Y-89575000D03*
D29*
X61700000Y-147587500D03*
D30*
X66600000Y-144087500D03*
X58500000Y-144087500D03*
D29*
X64200000Y-140587500D03*
X60550000Y-140587500D03*
D31*
X60500000Y-91750000D03*
X80250000Y-56500000D03*
X50750000Y-143500000D03*
X52750000Y-120750000D03*
X52750000Y-83750000D03*
X59500000Y-103750000D03*
X51500000Y-110750000D03*
X54700000Y-120200000D03*
X89500000Y-126250000D03*
X56400000Y-106200000D03*
X87750000Y-124500000D03*
X69750000Y-122500000D03*
X51250000Y-120750000D03*
X76500000Y-63500000D03*
X55750000Y-92500000D03*
X53500000Y-148000000D03*
X60000000Y-108250000D03*
X67750000Y-136750000D03*
D32*
X98500000Y-125500000D03*
D31*
X56500000Y-104500000D03*
X53000000Y-138250000D03*
X100250000Y-125250000D03*
X53250000Y-104500000D03*
X55750000Y-73750000D03*
X66750000Y-130250000D03*
X68000000Y-132250000D03*
X68500000Y-149000000D03*
X63500000Y-76000000D03*
X75500000Y-122500000D03*
X97250000Y-122500000D03*
X53250000Y-92750000D03*
X53500000Y-97250000D03*
X55750000Y-77500000D03*
X53500000Y-108250000D03*
X86500000Y-122100000D03*
X62250000Y-144250000D03*
X52500000Y-113750000D03*
X61000000Y-124750000D03*
X79750000Y-55029500D03*
X83750000Y-56250000D03*
X84000000Y-63750000D03*
D32*
X56000000Y-117200000D03*
D31*
X61500000Y-76000000D03*
X52500000Y-102000000D03*
X59750000Y-96750000D03*
X79800000Y-122800000D03*
X61700000Y-102500000D03*
X83000000Y-68500000D03*
X83000000Y-67500000D03*
X53250000Y-109250000D03*
X54250000Y-109250000D03*
X83000000Y-104250000D03*
X83000000Y-70500000D03*
X83000000Y-100250000D03*
X83000000Y-66500000D03*
X66500000Y-102500000D03*
X83000000Y-102250000D03*
X83000000Y-101250000D03*
X52250000Y-109250000D03*
X83000000Y-103250000D03*
X83000000Y-69500000D03*
X80000000Y-77250000D03*
X80000000Y-115000000D03*
X80000000Y-76250000D03*
X80000000Y-78250000D03*
X80000000Y-118000000D03*
X53750000Y-80000000D03*
X80000000Y-74250000D03*
X80000000Y-117000000D03*
X80000000Y-75250000D03*
X80000000Y-120000000D03*
X80000000Y-119000000D03*
X80000000Y-116000000D03*
X61600000Y-80105000D03*
X56750000Y-128000000D03*
X57846540Y-127267682D03*
X58200000Y-115000000D03*
X55250000Y-115000000D03*
X58029500Y-103246028D03*
X55500000Y-103250000D03*
X57341906Y-127676580D03*
X55000000Y-89500000D03*
X78690500Y-89250000D03*
X78476542Y-66000927D03*
X77777040Y-65999704D03*
X78690500Y-112750000D03*
X55250000Y-112750000D03*
X79250000Y-55750000D03*
X55000000Y-101250000D03*
X78250000Y-101000000D03*
X66750000Y-119250000D03*
X79175500Y-65973312D03*
X79000000Y-114359500D03*
X87000000Y-56750000D03*
X87821188Y-55377139D03*
X88004500Y-113100000D03*
X65500000Y-118250000D03*
X87529500Y-113750000D03*
X87470500Y-55982384D03*
X66000000Y-118750000D03*
D33*
X52445000Y-113805000D02*
X52500000Y-113750000D01*
X52445000Y-116030000D02*
X52445000Y-113805000D01*
X52000000Y-116475000D02*
X52445000Y-116030000D01*
D34*
X83000000Y-100250000D02*
X83000000Y-101250000D01*
D35*
X52000000Y-95750000D02*
X50379000Y-97371000D01*
X52250000Y-109250000D02*
X53250000Y-109250000D01*
X66657500Y-106550000D02*
X66657500Y-102657500D01*
D34*
X83000000Y-100250000D02*
X83000000Y-66500000D01*
X83000000Y-102250000D02*
X83000000Y-103250000D01*
D35*
X51775000Y-144800000D02*
X54375000Y-147400000D01*
X52027500Y-107400000D02*
X50408000Y-107400000D01*
X66657500Y-102657500D02*
X66500000Y-102500000D01*
X50379000Y-117908000D02*
X51546000Y-119075000D01*
X61700000Y-102500000D02*
X61700000Y-100825000D01*
X54375000Y-147400000D02*
X55100000Y-147400000D01*
D34*
X83000000Y-103250000D02*
X83000000Y-104250000D01*
D35*
X50500000Y-120575000D02*
X50500000Y-141225000D01*
X52027500Y-109027500D02*
X52250000Y-109250000D01*
X50500000Y-141225000D02*
X51775000Y-142500000D01*
X50379000Y-97371000D02*
X50379000Y-107371000D01*
D34*
X83000000Y-101250000D02*
X83000000Y-102250000D01*
D35*
X50408000Y-107400000D02*
X50379000Y-107371000D01*
X53250000Y-109250000D02*
X54250000Y-109250000D01*
X51775000Y-142500000D02*
X51775000Y-144800000D01*
X52000000Y-119075000D02*
X50500000Y-120575000D01*
X50379000Y-107371000D02*
X50379000Y-117908000D01*
X52027500Y-107400000D02*
X52027500Y-109027500D01*
D33*
X61600000Y-83650000D02*
X61600000Y-82000000D01*
D35*
X91900000Y-125749100D02*
X94150900Y-125749100D01*
X53650000Y-76900000D02*
X54425000Y-76900000D01*
X91800000Y-123750900D02*
X85335699Y-123750900D01*
X53575000Y-73325000D02*
X54400000Y-73325000D01*
D34*
X80000000Y-74250000D02*
X80000000Y-120000000D01*
D35*
X94809750Y-125090250D02*
X94809750Y-122474951D01*
X85335699Y-123750900D02*
X84059750Y-122474951D01*
X53800000Y-69700000D02*
X54425000Y-69700000D01*
X53575000Y-79825000D02*
X53575000Y-76825000D01*
X81100000Y-123650900D02*
X74485699Y-123650900D01*
X53750000Y-80000000D02*
X53575000Y-79825000D01*
X94150900Y-125749100D02*
X94809750Y-125090250D01*
X74485699Y-123650900D02*
X73309750Y-122474951D01*
X53575000Y-76825000D02*
X53650000Y-76900000D01*
X53575000Y-76825000D02*
X53575000Y-73325000D01*
D33*
X61600000Y-82000000D02*
X61600000Y-80105000D01*
D35*
X53575000Y-69925000D02*
X53800000Y-69700000D01*
X53575000Y-73325000D02*
X53575000Y-69925000D01*
D33*
X59600000Y-85487500D02*
X61787500Y-85487500D01*
X61600000Y-88500000D02*
X61600000Y-85700000D01*
X61900000Y-98975000D02*
X59762500Y-98975000D01*
X61700000Y-98775000D02*
X61700000Y-95800000D01*
D35*
X56750000Y-119150000D02*
X55925000Y-118325000D01*
X55925000Y-118325000D02*
X54400000Y-118325000D01*
X91900000Y-127450900D02*
X94533802Y-127450900D01*
X94533802Y-127450900D02*
X99509751Y-122474951D01*
X56750000Y-128000000D02*
X56750000Y-119150000D01*
D33*
X52775000Y-69700000D02*
X52775000Y-71362500D01*
D35*
X55200000Y-92375000D02*
X54400000Y-93175000D01*
X55200000Y-90700000D02*
X55200000Y-92375000D01*
D33*
X54387500Y-78600000D02*
X55400000Y-78600000D01*
X56750000Y-79950000D02*
X56750000Y-89150000D01*
X55400000Y-78600000D02*
X56750000Y-79950000D01*
X56750000Y-89150000D02*
X55375000Y-90525000D01*
X52775000Y-76900000D02*
X52775000Y-78562500D01*
D35*
X57095000Y-97095000D02*
X57095000Y-103658640D01*
X54825000Y-94825000D02*
X57095000Y-97095000D01*
X57650000Y-104213640D02*
X57650000Y-127071142D01*
X57650000Y-127071142D02*
X57846540Y-127267682D01*
X78535602Y-121949100D02*
X78009751Y-122474951D01*
X57095000Y-103658640D02*
X57650000Y-104213640D01*
X54400000Y-94825000D02*
X54825000Y-94825000D01*
X81100000Y-121949100D02*
X78535602Y-121949100D01*
D33*
X58055000Y-104045884D02*
X58054999Y-114854999D01*
X57500000Y-95390884D02*
X57110000Y-95000884D01*
X55500000Y-75000000D02*
X54387500Y-75000000D01*
D35*
X55337500Y-113875000D02*
X55337500Y-114912500D01*
X55337500Y-114912500D02*
X55250000Y-115000000D01*
X54400000Y-116675000D02*
X54400000Y-115850000D01*
X54400000Y-115850000D02*
X55250000Y-115000000D01*
D33*
X57500000Y-103490884D02*
X58055000Y-104045884D01*
X58054999Y-114854999D02*
X58200000Y-115000000D01*
X57110000Y-76610000D02*
X55500000Y-75000000D01*
X57110000Y-95000884D02*
X57110000Y-76610000D01*
X57500000Y-103490884D02*
X57500000Y-95390884D01*
X52775000Y-73300000D02*
X52775000Y-74962500D01*
X57860000Y-102610000D02*
X57860000Y-95241767D01*
X57470000Y-94851768D02*
X57470000Y-73720000D01*
X57860000Y-95241767D02*
X57470000Y-94851768D01*
D35*
X54600000Y-104875000D02*
X55485000Y-103990000D01*
D33*
X55150000Y-71400000D02*
X54387500Y-71400000D01*
X58029500Y-102779500D02*
X57860000Y-102610000D01*
D35*
X55485000Y-103990000D02*
X55485000Y-102200000D01*
D33*
X58029500Y-103246028D02*
X58029500Y-102779500D01*
X57470000Y-73720000D02*
X55150000Y-71400000D01*
D34*
X105609500Y-136352300D02*
X105609500Y-132809500D01*
X105609500Y-132809500D02*
X104200000Y-131400000D01*
X108000000Y-147000000D02*
X105754000Y-149246000D01*
X87054000Y-149246000D02*
X75046000Y-149246000D01*
X101750000Y-117000000D02*
X105750000Y-117000000D01*
X105754000Y-149246000D02*
X100146000Y-149246000D01*
X105609500Y-139857500D02*
X102057500Y-139857500D01*
X105157500Y-109300000D02*
X97500000Y-109300000D01*
X102900000Y-82900000D02*
X105157500Y-82900000D01*
X75046000Y-149246000D02*
X73842500Y-148042500D01*
X103000000Y-127500000D02*
X104200000Y-127500000D01*
X73842500Y-148042500D02*
X73842500Y-145800000D01*
X107750000Y-125000000D02*
X105250000Y-127500000D01*
X105750000Y-117000000D02*
X107750000Y-119000000D01*
X100400000Y-130100000D02*
X103000000Y-127500000D01*
X97500000Y-109300000D02*
X97500000Y-112750000D01*
X102057500Y-139857500D02*
X100400000Y-138200000D01*
X100142500Y-149242500D02*
X100146000Y-149246000D01*
X100400000Y-138200000D02*
X100400000Y-130100000D01*
X107750000Y-119000000D02*
X107750000Y-125000000D01*
X105609500Y-139857500D02*
X108000000Y-142248000D01*
X97500000Y-112750000D02*
X101750000Y-117000000D01*
X87054000Y-149246000D02*
X100146000Y-149246000D01*
X97500000Y-109300000D02*
X97500000Y-88300000D01*
X108000000Y-142248000D02*
X108000000Y-147000000D01*
X86992500Y-145800000D02*
X86992500Y-149184500D01*
X97500000Y-88300000D02*
X102900000Y-82900000D01*
X86992500Y-149184500D02*
X87054000Y-149246000D01*
X100142500Y-145809500D02*
X100142500Y-149242500D01*
X105250000Y-127500000D02*
X104200000Y-127500000D01*
X73309750Y-140974950D02*
X75974950Y-140974950D01*
X75974950Y-140974950D02*
X77347700Y-142347700D01*
X77347700Y-142347700D02*
X77347700Y-145800000D01*
X90497700Y-145800000D02*
X90497700Y-143697700D01*
X87774950Y-140974950D02*
X84059750Y-140974950D01*
X90497700Y-143697700D02*
X87774950Y-140974950D01*
X103647700Y-143947700D02*
X102300000Y-142600000D01*
X103647700Y-145809500D02*
X103647700Y-143947700D01*
X102300000Y-142600000D02*
X96434800Y-142600000D01*
X96434800Y-142600000D02*
X94809750Y-140974950D01*
D33*
X50875000Y-94375000D02*
X52000000Y-94375000D01*
X50750000Y-94250000D02*
X50875000Y-94375000D01*
X50750000Y-91975000D02*
X50750000Y-94250000D01*
X51500000Y-91225000D02*
X50750000Y-91975000D01*
X50784000Y-117500000D02*
X51059000Y-117775000D01*
X51059000Y-117775000D02*
X52000000Y-117775000D01*
X51500000Y-114500000D02*
X50784000Y-115216000D01*
X50784000Y-115216000D02*
X50784000Y-117500000D01*
D35*
X57200000Y-127534674D02*
X57341906Y-127676580D01*
X57200000Y-109125000D02*
X57200000Y-127534674D01*
X91800000Y-122049100D02*
X89185602Y-122049100D01*
X54600000Y-106525000D02*
X57200000Y-109125000D01*
D33*
X54925000Y-89575000D02*
X55000000Y-89500000D01*
X78476542Y-66366542D02*
X78860000Y-66750000D01*
X53500000Y-89575000D02*
X53500000Y-87675000D01*
X53500000Y-89575000D02*
X51500000Y-89575000D01*
X53500000Y-89575000D02*
X54925000Y-89575000D01*
X78860000Y-66750000D02*
X78860000Y-89080500D01*
X78476542Y-66000927D02*
X78476542Y-66366542D01*
X78860000Y-89080500D02*
X78690500Y-89250000D01*
X78860000Y-90250000D02*
X78860000Y-112580500D01*
X55075000Y-112925000D02*
X55250000Y-112750000D01*
X78160500Y-89030466D02*
X78160500Y-89550500D01*
X78500000Y-67000000D02*
X78500000Y-88690966D01*
X53500000Y-112887500D02*
X53500000Y-110975000D01*
X78160500Y-89550500D02*
X78860000Y-90250000D01*
X78860000Y-112580500D02*
X78690500Y-112750000D01*
X53462500Y-112925000D02*
X51575000Y-112925000D01*
X53462500Y-112925000D02*
X55075000Y-112925000D01*
X77777040Y-65999704D02*
X77777040Y-66277040D01*
X78500000Y-88690966D02*
X78160500Y-89030466D01*
X77777040Y-66277040D02*
X78500000Y-67000000D01*
X78500000Y-90500000D02*
X78500000Y-100750000D01*
X74750000Y-57750000D02*
X74750000Y-64110000D01*
X74750000Y-64110000D02*
X78140000Y-67500000D01*
X53610000Y-101250000D02*
X55000000Y-101250000D01*
X77750000Y-54750000D02*
X74750000Y-57750000D01*
X77800500Y-89800500D02*
X78500000Y-90500000D01*
X53610000Y-101250000D02*
X51610000Y-101250000D01*
X79250000Y-55750000D02*
X78250000Y-54750000D01*
X53585000Y-101225000D02*
X53585000Y-99300000D01*
X78140000Y-88250000D02*
X77800500Y-88589500D01*
X78140000Y-67500000D02*
X78140000Y-88250000D01*
X78250000Y-54750000D02*
X77750000Y-54750000D01*
X77800500Y-88589500D02*
X77800500Y-89800500D01*
X78500000Y-100750000D02*
X78250000Y-101000000D01*
X66500000Y-119250000D02*
X65500000Y-120250000D01*
X66750000Y-119250000D02*
X66500000Y-119250000D01*
X79220000Y-114139500D02*
X79000000Y-114359500D01*
X79220000Y-66017812D02*
X79220000Y-114139500D01*
X65500000Y-120250000D02*
X65500000Y-125175000D01*
X79175500Y-65973312D02*
X79220000Y-66017812D01*
X65500000Y-125175000D02*
X66575000Y-126250000D01*
X82400000Y-119000000D02*
X82400000Y-124300000D01*
X68900000Y-130200000D02*
X66575000Y-132525000D01*
X82400000Y-124300000D02*
X81200000Y-125500000D01*
X70300000Y-125500000D02*
X68900000Y-126900000D01*
X87000000Y-56750000D02*
X87140000Y-56890000D01*
X81200000Y-125500000D02*
X70300000Y-125500000D01*
X87000000Y-114400000D02*
X82400000Y-119000000D01*
X87000000Y-113400000D02*
X87000000Y-114400000D01*
X87140000Y-56890000D02*
X87140000Y-113260000D01*
X66575000Y-132525000D02*
X66575000Y-134150000D01*
X87140000Y-113260000D02*
X87000000Y-113400000D01*
X68900000Y-126900000D02*
X68900000Y-130200000D01*
X51350000Y-106100000D02*
X52027500Y-106100000D01*
X50784000Y-105534000D02*
X51350000Y-106100000D01*
X50784000Y-103466000D02*
X50784000Y-105534000D01*
X51325000Y-102925000D02*
X50784000Y-103466000D01*
X64390000Y-131600884D02*
X64390000Y-119360000D01*
X52750000Y-141050000D02*
X53600000Y-140200000D01*
X88000000Y-55555951D02*
X88000000Y-57460000D01*
X53600000Y-144800000D02*
X52750000Y-143950000D01*
X52750000Y-143950000D02*
X52750000Y-141050000D01*
X55790884Y-140200000D02*
X64390000Y-131600884D01*
X87821188Y-55377139D02*
X88000000Y-55555951D01*
X87860000Y-57600000D02*
X87860000Y-112955500D01*
X88000000Y-57460000D02*
X87860000Y-57600000D01*
X87860000Y-112955500D02*
X88004500Y-113100000D01*
X53600000Y-140200000D02*
X55790884Y-140200000D01*
X64390000Y-119360000D02*
X65500000Y-118250000D01*
X54000000Y-143500000D02*
X53600000Y-143100000D01*
X55187500Y-144087500D02*
X58500000Y-144087500D01*
X54600000Y-143500000D02*
X54000000Y-143500000D01*
X64750000Y-131750000D02*
X54000000Y-142500000D01*
X87500000Y-113720500D02*
X87500000Y-57250000D01*
X87640000Y-57110000D02*
X87640000Y-56151884D01*
X64750000Y-120000000D02*
X64750000Y-131750000D01*
X87500000Y-113720500D02*
X87529500Y-113750000D01*
X87500000Y-57250000D02*
X87640000Y-57110000D01*
X66000000Y-118750000D02*
X64750000Y-120000000D01*
X87640000Y-56151884D02*
X87470500Y-55982384D01*
X55187500Y-144087500D02*
X54600000Y-143500000D01*
G04 #@! TA.AperFunction,Conductor*
G36*
X68268050Y-127134686D02*
G01*
X68306410Y-127194428D01*
X68311500Y-127229878D01*
X68311500Y-129904046D01*
X68291498Y-129972167D01*
X68274595Y-129993141D01*
X66191982Y-132075753D01*
X66179591Y-132086620D01*
X66155277Y-132105277D01*
X66060946Y-132228211D01*
X66052458Y-132248704D01*
X66001647Y-132371370D01*
X66000569Y-132379558D01*
X65995791Y-132415851D01*
X65967069Y-132480778D01*
X65923620Y-132513831D01*
X65720072Y-132607668D01*
X65670024Y-132640481D01*
X65505404Y-132748410D01*
X65505399Y-132748414D01*
X65501491Y-132750976D01*
X65306494Y-132925018D01*
X65139363Y-133125970D01*
X65136934Y-133129973D01*
X65077915Y-133227234D01*
X65003771Y-133349419D01*
X64902697Y-133590455D01*
X64838359Y-133843783D01*
X64812173Y-134103839D01*
X64824713Y-134364908D01*
X64875704Y-134621256D01*
X64964026Y-134867252D01*
X64966242Y-134871376D01*
X65030753Y-134991437D01*
X65087737Y-135097491D01*
X65090532Y-135101234D01*
X65090534Y-135101237D01*
X65241330Y-135303177D01*
X65241335Y-135303183D01*
X65244122Y-135306915D01*
X65247431Y-135310195D01*
X65247436Y-135310201D01*
X65426426Y-135487635D01*
X65429743Y-135490923D01*
X65433505Y-135493681D01*
X65433508Y-135493684D01*
X65636750Y-135642707D01*
X65640524Y-135645474D01*
X65644667Y-135647654D01*
X65644669Y-135647655D01*
X65867684Y-135764989D01*
X65867689Y-135764991D01*
X65871834Y-135767172D01*
X66118590Y-135853344D01*
X66123183Y-135854216D01*
X66370785Y-135901224D01*
X66370788Y-135901224D01*
X66375374Y-135902095D01*
X66505958Y-135907226D01*
X66631875Y-135912174D01*
X66631881Y-135912174D01*
X66636543Y-135912357D01*
X66721770Y-135903023D01*
X66891707Y-135884412D01*
X66891712Y-135884411D01*
X66896360Y-135883902D01*
X67009116Y-135854216D01*
X67144594Y-135818548D01*
X67144596Y-135818547D01*
X67149117Y-135817357D01*
X67389262Y-135714182D01*
X67611519Y-135576646D01*
X67615082Y-135573629D01*
X67615087Y-135573626D01*
X67807439Y-135410787D01*
X67807440Y-135410786D01*
X67811005Y-135407768D01*
X67915557Y-135288550D01*
X67980257Y-135214774D01*
X67980261Y-135214769D01*
X67983339Y-135211259D01*
X68124733Y-134991437D01*
X68232083Y-134753129D01*
X68244231Y-134710056D01*
X68281973Y-134649922D01*
X68346234Y-134619740D01*
X68416612Y-134629091D01*
X68470763Y-134675006D01*
X68491500Y-134744258D01*
X68491500Y-146950633D01*
X68490000Y-146970018D01*
X68486309Y-146993724D01*
X68487130Y-147000000D01*
X68486835Y-147000000D01*
X68505465Y-147236711D01*
X68560895Y-147467594D01*
X68562788Y-147472165D01*
X68562789Y-147472167D01*
X68634071Y-147644257D01*
X68651760Y-147686963D01*
X68654346Y-147691183D01*
X68773241Y-147885202D01*
X68773245Y-147885208D01*
X68775824Y-147889416D01*
X68930031Y-148069969D01*
X68933787Y-148073177D01*
X68954618Y-148090968D01*
X69110584Y-148224176D01*
X69114792Y-148226755D01*
X69114798Y-148226759D01*
X69284134Y-148330528D01*
X69313037Y-148348240D01*
X69317607Y-148350133D01*
X69317611Y-148350135D01*
X69494896Y-148423568D01*
X69532406Y-148439105D01*
X69612609Y-148458360D01*
X69758476Y-148493380D01*
X69758482Y-148493381D01*
X69763289Y-148494535D01*
X69883887Y-148504027D01*
X69950227Y-148529311D01*
X69992367Y-148586449D01*
X70000000Y-148629638D01*
X70000000Y-148993813D01*
X69999393Y-149006163D01*
X69982002Y-149182737D01*
X69977185Y-149206957D01*
X69930802Y-149359864D01*
X69927482Y-149370809D01*
X69918030Y-149393627D01*
X69901318Y-149424894D01*
X69851566Y-149475543D01*
X69790195Y-149491500D01*
X52049367Y-149491500D01*
X52029982Y-149490000D01*
X52015149Y-149487690D01*
X52015145Y-149487690D01*
X52006276Y-149486309D01*
X51991019Y-149488304D01*
X51965698Y-149489047D01*
X51796715Y-149476961D01*
X51778936Y-149474404D01*
X51588607Y-149433001D01*
X51571359Y-149427937D01*
X51388850Y-149359864D01*
X51372498Y-149352396D01*
X51201542Y-149259048D01*
X51186418Y-149249328D01*
X51030486Y-149132598D01*
X51016900Y-149120825D01*
X50879175Y-148983100D01*
X50867402Y-148969514D01*
X50750672Y-148813582D01*
X50740952Y-148798458D01*
X50647604Y-148627502D01*
X50640136Y-148611150D01*
X50572063Y-148428641D01*
X50566999Y-148411392D01*
X50564082Y-148397984D01*
X50536052Y-148269132D01*
X51495698Y-148269132D01*
X51500607Y-148275690D01*
X51589118Y-148325157D01*
X51600357Y-148330067D01*
X51776641Y-148387345D01*
X51788615Y-148389978D01*
X51972676Y-148411926D01*
X51984925Y-148412183D01*
X52169742Y-148397962D01*
X52181822Y-148395831D01*
X52360345Y-148345986D01*
X52371778Y-148341552D01*
X52495507Y-148279052D01*
X52505791Y-148269407D01*
X52503553Y-148262763D01*
X52012812Y-147772022D01*
X51998868Y-147764408D01*
X51997035Y-147764539D01*
X51990420Y-147768790D01*
X51502458Y-148256752D01*
X51495698Y-148269132D01*
X50536052Y-148269132D01*
X50525596Y-148221064D01*
X50523038Y-148203278D01*
X50518203Y-148135663D01*
X50511719Y-148045011D01*
X50512805Y-148022245D01*
X50512334Y-148022203D01*
X50512770Y-148017345D01*
X50513576Y-148012552D01*
X50513652Y-148006313D01*
X50513670Y-148004860D01*
X50513670Y-148004857D01*
X50513729Y-148000000D01*
X50509773Y-147972376D01*
X50508500Y-147954514D01*
X50508500Y-147392002D01*
X50987738Y-147392002D01*
X51003248Y-147576705D01*
X51005461Y-147588764D01*
X51056554Y-147766945D01*
X51061066Y-147778342D01*
X51121148Y-147895250D01*
X51130865Y-147905468D01*
X51137666Y-147903124D01*
X51627978Y-147412812D01*
X51635592Y-147398868D01*
X51635461Y-147397035D01*
X51631210Y-147390420D01*
X51143121Y-146902331D01*
X51130741Y-146895571D01*
X51124353Y-146900353D01*
X51071997Y-146995586D01*
X51067166Y-147006858D01*
X51011120Y-147183538D01*
X51008570Y-147195532D01*
X50987909Y-147379733D01*
X50987738Y-147392002D01*
X50508500Y-147392002D01*
X50508500Y-145369564D01*
X50528502Y-145301443D01*
X50582158Y-145254950D01*
X50652432Y-145244846D01*
X50717012Y-145274340D01*
X50755396Y-145334066D01*
X50759827Y-145356560D01*
X50764974Y-145406166D01*
X50820950Y-145573946D01*
X50914022Y-145724348D01*
X51039197Y-145849305D01*
X51045427Y-145853145D01*
X51045428Y-145853146D01*
X51182590Y-145937694D01*
X51189762Y-145942115D01*
X51269505Y-145968564D01*
X51351111Y-145995632D01*
X51351113Y-145995632D01*
X51357639Y-145997797D01*
X51364475Y-145998497D01*
X51364478Y-145998498D01*
X51407531Y-146002909D01*
X51462100Y-146008500D01*
X52035406Y-146008500D01*
X52103527Y-146028502D01*
X52124501Y-146045405D01*
X52268576Y-146189480D01*
X52302602Y-146251792D01*
X52297537Y-146322607D01*
X52254990Y-146379443D01*
X52188470Y-146404254D01*
X52166310Y-146403885D01*
X52013199Y-146387792D01*
X52000931Y-146387707D01*
X51816345Y-146404505D01*
X51804296Y-146406803D01*
X51626483Y-146459137D01*
X51615108Y-146463732D01*
X51504969Y-146521312D01*
X51494820Y-146531101D01*
X51497274Y-146538064D01*
X52856661Y-147897451D01*
X52869041Y-147904211D01*
X52875775Y-147899170D01*
X52922262Y-147817337D01*
X52927256Y-147806121D01*
X52985759Y-147630253D01*
X52988479Y-147618281D01*
X53012039Y-147431784D01*
X53012531Y-147424757D01*
X53012828Y-147403523D01*
X53012533Y-147396496D01*
X52996534Y-147233323D01*
X53009793Y-147163575D01*
X53058656Y-147112068D01*
X53127609Y-147095155D01*
X53194759Y-147118205D01*
X53211028Y-147131932D01*
X53871343Y-147792247D01*
X53878887Y-147800537D01*
X53883000Y-147807018D01*
X53888777Y-147812443D01*
X53932667Y-147853658D01*
X53935509Y-147856413D01*
X53955230Y-147876134D01*
X53958425Y-147878612D01*
X53967447Y-147886318D01*
X53999679Y-147916586D01*
X54006628Y-147920406D01*
X54017432Y-147926346D01*
X54033956Y-147937199D01*
X54049959Y-147949613D01*
X54090543Y-147967176D01*
X54101173Y-147972383D01*
X54139940Y-147993695D01*
X54147617Y-147995666D01*
X54147622Y-147995668D01*
X54159558Y-147998732D01*
X54178266Y-148005137D01*
X54196855Y-148013181D01*
X54204683Y-148014421D01*
X54204690Y-148014423D01*
X54240524Y-148020099D01*
X54252143Y-148022505D01*
X54279288Y-148029474D01*
X54340295Y-148065787D01*
X54346700Y-148073250D01*
X54371035Y-148103953D01*
X54521650Y-148232136D01*
X54694294Y-148328624D01*
X54882392Y-148389740D01*
X55078777Y-148413158D01*
X55084912Y-148412686D01*
X55084914Y-148412686D01*
X55269830Y-148398457D01*
X55269834Y-148398456D01*
X55275972Y-148397984D01*
X55466463Y-148344798D01*
X55471967Y-148342018D01*
X55471969Y-148342017D01*
X55637495Y-148258404D01*
X55637497Y-148258403D01*
X55642996Y-148255625D01*
X55798847Y-148133861D01*
X55895227Y-148022203D01*
X55924049Y-147988813D01*
X55924050Y-147988811D01*
X55928078Y-147984145D01*
X56025769Y-147812179D01*
X56088197Y-147624513D01*
X56092873Y-147587500D01*
X59586502Y-147587500D01*
X59606457Y-147815587D01*
X59607881Y-147820900D01*
X59607881Y-147820902D01*
X59663904Y-148029979D01*
X59665716Y-148036743D01*
X59668039Y-148041724D01*
X59668039Y-148041725D01*
X59760151Y-148239262D01*
X59760154Y-148239267D01*
X59762477Y-148244249D01*
X59830935Y-148342017D01*
X59880749Y-148413158D01*
X59893802Y-148431800D01*
X60055700Y-148593698D01*
X60060208Y-148596855D01*
X60060211Y-148596857D01*
X60069407Y-148603296D01*
X60243251Y-148725023D01*
X60248233Y-148727346D01*
X60248238Y-148727349D01*
X60445775Y-148819461D01*
X60450757Y-148821784D01*
X60456065Y-148823206D01*
X60456067Y-148823207D01*
X60666598Y-148879619D01*
X60666600Y-148879619D01*
X60671913Y-148881043D01*
X60771480Y-148889754D01*
X60840149Y-148895762D01*
X60840156Y-148895762D01*
X60842873Y-148896000D01*
X62557127Y-148896000D01*
X62559844Y-148895762D01*
X62559851Y-148895762D01*
X62628520Y-148889754D01*
X62728087Y-148881043D01*
X62733400Y-148879619D01*
X62733402Y-148879619D01*
X62943933Y-148823207D01*
X62943935Y-148823206D01*
X62949243Y-148821784D01*
X62954225Y-148819461D01*
X63151762Y-148727349D01*
X63151767Y-148727346D01*
X63156749Y-148725023D01*
X63330593Y-148603296D01*
X63339789Y-148596857D01*
X63339792Y-148596855D01*
X63344300Y-148593698D01*
X63506198Y-148431800D01*
X63519252Y-148413158D01*
X63569065Y-148342017D01*
X63637523Y-148244249D01*
X63639846Y-148239267D01*
X63639849Y-148239262D01*
X63731961Y-148041725D01*
X63731961Y-148041724D01*
X63734284Y-148036743D01*
X63736097Y-148029979D01*
X63792119Y-147820902D01*
X63792119Y-147820900D01*
X63793543Y-147815587D01*
X63813498Y-147587500D01*
X63793543Y-147359413D01*
X63792119Y-147354098D01*
X63735707Y-147143567D01*
X63735706Y-147143565D01*
X63734284Y-147138257D01*
X63717910Y-147103142D01*
X63639849Y-146935738D01*
X63639846Y-146935733D01*
X63637523Y-146930751D01*
X63506198Y-146743200D01*
X63344300Y-146581302D01*
X63339792Y-146578145D01*
X63339789Y-146578143D01*
X63258626Y-146521312D01*
X63156749Y-146449977D01*
X63151767Y-146447654D01*
X63151762Y-146447651D01*
X62954225Y-146355539D01*
X62954224Y-146355539D01*
X62949243Y-146353216D01*
X62943935Y-146351794D01*
X62943933Y-146351793D01*
X62733402Y-146295381D01*
X62733400Y-146295381D01*
X62728087Y-146293957D01*
X62628520Y-146285246D01*
X62559851Y-146279238D01*
X62559844Y-146279238D01*
X62557127Y-146279000D01*
X60842873Y-146279000D01*
X60840156Y-146279238D01*
X60840149Y-146279238D01*
X60771480Y-146285246D01*
X60671913Y-146293957D01*
X60666600Y-146295381D01*
X60666598Y-146295381D01*
X60456067Y-146351793D01*
X60456065Y-146351794D01*
X60450757Y-146353216D01*
X60445776Y-146355539D01*
X60445775Y-146355539D01*
X60248238Y-146447651D01*
X60248233Y-146447654D01*
X60243251Y-146449977D01*
X60141374Y-146521312D01*
X60060211Y-146578143D01*
X60060208Y-146578145D01*
X60055700Y-146581302D01*
X59893802Y-146743200D01*
X59762477Y-146930751D01*
X59760154Y-146935733D01*
X59760151Y-146935738D01*
X59682090Y-147103142D01*
X59665716Y-147138257D01*
X59664294Y-147143565D01*
X59664293Y-147143567D01*
X59607881Y-147354098D01*
X59606457Y-147359413D01*
X59586502Y-147587500D01*
X56092873Y-147587500D01*
X56112985Y-147428295D01*
X56113380Y-147400000D01*
X56094080Y-147203167D01*
X56082127Y-147163575D01*
X56049881Y-147056773D01*
X56036916Y-147013831D01*
X55944066Y-146839204D01*
X55862589Y-146739303D01*
X55822960Y-146690713D01*
X55822957Y-146690710D01*
X55819065Y-146685938D01*
X55814316Y-146682009D01*
X55671425Y-146563799D01*
X55671421Y-146563797D01*
X55666675Y-146559870D01*
X55492701Y-146465802D01*
X55303768Y-146407318D01*
X55297643Y-146406674D01*
X55297642Y-146406674D01*
X55113204Y-146387289D01*
X55113202Y-146387289D01*
X55107075Y-146386645D01*
X55024576Y-146394153D01*
X54916251Y-146404011D01*
X54916248Y-146404012D01*
X54910112Y-146404570D01*
X54904206Y-146406308D01*
X54904202Y-146406309D01*
X54799076Y-146437249D01*
X54720381Y-146460410D01*
X54714917Y-146463267D01*
X54714911Y-146463269D01*
X54546909Y-146551099D01*
X54477273Y-146564934D01*
X54411212Y-146538924D01*
X54399438Y-146528533D01*
X54050131Y-146179226D01*
X54016105Y-146116914D01*
X54021170Y-146046099D01*
X54063717Y-145989263D01*
X54099347Y-145970609D01*
X54186446Y-145941550D01*
X54336848Y-145848478D01*
X54461805Y-145723303D01*
X54554615Y-145572738D01*
X54610297Y-145404861D01*
X54621000Y-145300400D01*
X54621000Y-144650099D01*
X54641002Y-144581978D01*
X54694658Y-144535485D01*
X54764932Y-144525381D01*
X54823701Y-144550135D01*
X54890711Y-144601554D01*
X54991940Y-144643484D01*
X55033870Y-144660852D01*
X55187500Y-144681078D01*
X55195688Y-144680000D01*
X55217883Y-144677078D01*
X55234329Y-144676000D01*
X57065500Y-144676000D01*
X57133621Y-144696002D01*
X57180114Y-144749658D01*
X57191500Y-144802000D01*
X57191500Y-144944627D01*
X57206457Y-145115587D01*
X57265716Y-145336743D01*
X57268039Y-145341724D01*
X57268039Y-145341725D01*
X57360151Y-145539262D01*
X57360154Y-145539267D01*
X57362477Y-145544249D01*
X57493802Y-145731800D01*
X57655700Y-145893698D01*
X57660208Y-145896855D01*
X57660211Y-145896857D01*
X57724846Y-145942115D01*
X57843251Y-146025023D01*
X57848233Y-146027346D01*
X57848238Y-146027349D01*
X58040313Y-146116914D01*
X58050757Y-146121784D01*
X58056065Y-146123206D01*
X58056067Y-146123207D01*
X58266598Y-146179619D01*
X58266600Y-146179619D01*
X58271913Y-146181043D01*
X58500000Y-146200998D01*
X58728087Y-146181043D01*
X58733400Y-146179619D01*
X58733402Y-146179619D01*
X58943933Y-146123207D01*
X58943935Y-146123206D01*
X58949243Y-146121784D01*
X58959687Y-146116914D01*
X59151762Y-146027349D01*
X59151767Y-146027346D01*
X59156749Y-146025023D01*
X59275154Y-145942115D01*
X59339789Y-145896857D01*
X59339792Y-145896855D01*
X59344300Y-145893698D01*
X59506198Y-145731800D01*
X59637523Y-145544249D01*
X59639846Y-145539267D01*
X59639849Y-145539262D01*
X59731961Y-145341725D01*
X59731961Y-145341724D01*
X59734284Y-145336743D01*
X59793543Y-145115587D01*
X59808500Y-144944627D01*
X65291500Y-144944627D01*
X65306457Y-145115587D01*
X65365716Y-145336743D01*
X65368039Y-145341724D01*
X65368039Y-145341725D01*
X65460151Y-145539262D01*
X65460154Y-145539267D01*
X65462477Y-145544249D01*
X65593802Y-145731800D01*
X65755700Y-145893698D01*
X65760208Y-145896855D01*
X65760211Y-145896857D01*
X65824846Y-145942115D01*
X65943251Y-146025023D01*
X65948233Y-146027346D01*
X65948238Y-146027349D01*
X66140313Y-146116914D01*
X66150757Y-146121784D01*
X66156065Y-146123206D01*
X66156067Y-146123207D01*
X66366598Y-146179619D01*
X66366600Y-146179619D01*
X66371913Y-146181043D01*
X66600000Y-146200998D01*
X66828087Y-146181043D01*
X66833400Y-146179619D01*
X66833402Y-146179619D01*
X67043933Y-146123207D01*
X67043935Y-146123206D01*
X67049243Y-146121784D01*
X67059687Y-146116914D01*
X67251762Y-146027349D01*
X67251767Y-146027346D01*
X67256749Y-146025023D01*
X67375154Y-145942115D01*
X67439789Y-145896857D01*
X67439792Y-145896855D01*
X67444300Y-145893698D01*
X67606198Y-145731800D01*
X67737523Y-145544249D01*
X67739846Y-145539267D01*
X67739849Y-145539262D01*
X67831961Y-145341725D01*
X67831961Y-145341724D01*
X67834284Y-145336743D01*
X67893543Y-145115587D01*
X67908500Y-144944627D01*
X67908500Y-143230373D01*
X67905898Y-143200624D01*
X67900734Y-143141611D01*
X67893543Y-143059413D01*
X67878010Y-143001443D01*
X67835707Y-142843567D01*
X67835706Y-142843565D01*
X67834284Y-142838257D01*
X67831961Y-142833275D01*
X67739849Y-142635738D01*
X67739846Y-142635733D01*
X67737523Y-142630751D01*
X67606198Y-142443200D01*
X67444300Y-142281302D01*
X67439792Y-142278145D01*
X67439789Y-142278143D01*
X67333132Y-142203461D01*
X67256749Y-142149977D01*
X67251767Y-142147654D01*
X67251762Y-142147651D01*
X67054225Y-142055539D01*
X67054224Y-142055539D01*
X67049243Y-142053216D01*
X67043935Y-142051794D01*
X67043933Y-142051793D01*
X66833402Y-141995381D01*
X66833400Y-141995381D01*
X66828087Y-141993957D01*
X66600000Y-141974002D01*
X66371913Y-141993957D01*
X66366600Y-141995381D01*
X66366598Y-141995381D01*
X66156067Y-142051793D01*
X66156065Y-142051794D01*
X66150757Y-142053216D01*
X66145776Y-142055539D01*
X66145775Y-142055539D01*
X65948238Y-142147651D01*
X65948233Y-142147654D01*
X65943251Y-142149977D01*
X65866868Y-142203461D01*
X65760211Y-142278143D01*
X65760208Y-142278145D01*
X65755700Y-142281302D01*
X65593802Y-142443200D01*
X65462477Y-142630751D01*
X65460154Y-142635733D01*
X65460151Y-142635738D01*
X65368039Y-142833275D01*
X65365716Y-142838257D01*
X65364294Y-142843565D01*
X65364293Y-142843567D01*
X65321990Y-143001443D01*
X65306457Y-143059413D01*
X65299266Y-143141611D01*
X65294103Y-143200624D01*
X65291500Y-143230373D01*
X65291500Y-144944627D01*
X59808500Y-144944627D01*
X59808500Y-143230373D01*
X59805898Y-143200624D01*
X59800734Y-143141611D01*
X59793543Y-143059413D01*
X59778010Y-143001443D01*
X59735707Y-142843567D01*
X59735706Y-142843565D01*
X59734284Y-142838257D01*
X59731961Y-142833275D01*
X59639849Y-142635738D01*
X59639846Y-142635733D01*
X59637523Y-142630751D01*
X59506198Y-142443200D01*
X59344300Y-142281302D01*
X59339792Y-142278145D01*
X59339789Y-142278143D01*
X59233132Y-142203461D01*
X59156749Y-142149977D01*
X59151767Y-142147654D01*
X59151762Y-142147651D01*
X58954225Y-142055539D01*
X58954224Y-142055539D01*
X58949243Y-142053216D01*
X58943935Y-142051794D01*
X58943933Y-142051793D01*
X58733402Y-141995381D01*
X58733400Y-141995381D01*
X58728087Y-141993957D01*
X58500000Y-141974002D01*
X58271913Y-141993957D01*
X58266600Y-141995381D01*
X58266598Y-141995381D01*
X58056067Y-142051793D01*
X58056065Y-142051794D01*
X58050757Y-142053216D01*
X58045776Y-142055539D01*
X58045775Y-142055539D01*
X57848238Y-142147651D01*
X57848233Y-142147654D01*
X57843251Y-142149977D01*
X57766868Y-142203461D01*
X57660211Y-142278143D01*
X57660208Y-142278145D01*
X57655700Y-142281302D01*
X57493802Y-142443200D01*
X57362477Y-142630751D01*
X57360154Y-142635733D01*
X57360151Y-142635738D01*
X57268039Y-142833275D01*
X57265716Y-142838257D01*
X57264294Y-142843565D01*
X57264293Y-142843567D01*
X57221990Y-143001443D01*
X57206457Y-143059413D01*
X57199266Y-143141611D01*
X57194103Y-143200624D01*
X57191500Y-143230373D01*
X57191500Y-143373000D01*
X57171498Y-143441121D01*
X57117842Y-143487614D01*
X57065500Y-143499000D01*
X55483455Y-143499000D01*
X55415334Y-143478998D01*
X55394360Y-143462095D01*
X55049247Y-143116982D01*
X55038380Y-143104591D01*
X55024752Y-143086830D01*
X55024749Y-143086827D01*
X55019723Y-143080277D01*
X54987740Y-143055735D01*
X54947329Y-143024727D01*
X54896789Y-142985946D01*
X54837490Y-142961384D01*
X54821958Y-142954950D01*
X54797565Y-142944846D01*
X54753630Y-142926647D01*
X54745447Y-142925570D01*
X54745444Y-142925569D01*
X54730553Y-142923609D01*
X54665626Y-142894886D01*
X54626535Y-142835621D01*
X54621000Y-142798687D01*
X54621000Y-142763455D01*
X54641002Y-142695334D01*
X54657905Y-142674360D01*
X56744765Y-140587500D01*
X58436502Y-140587500D01*
X58456457Y-140815587D01*
X58515716Y-141036743D01*
X58518039Y-141041724D01*
X58518039Y-141041725D01*
X58610151Y-141239262D01*
X58610154Y-141239267D01*
X58612477Y-141244249D01*
X58743802Y-141431800D01*
X58905700Y-141593698D01*
X58910208Y-141596855D01*
X58910211Y-141596857D01*
X58935572Y-141614615D01*
X59093251Y-141725023D01*
X59098233Y-141727346D01*
X59098238Y-141727349D01*
X59225956Y-141786904D01*
X59300757Y-141821784D01*
X59306065Y-141823206D01*
X59306067Y-141823207D01*
X59516598Y-141879619D01*
X59516600Y-141879619D01*
X59521913Y-141881043D01*
X59621480Y-141889754D01*
X59690149Y-141895762D01*
X59690156Y-141895762D01*
X59692873Y-141896000D01*
X61407127Y-141896000D01*
X61409844Y-141895762D01*
X61409851Y-141895762D01*
X61478520Y-141889754D01*
X61578087Y-141881043D01*
X61583400Y-141879619D01*
X61583402Y-141879619D01*
X61793933Y-141823207D01*
X61793935Y-141823206D01*
X61799243Y-141821784D01*
X61874044Y-141786904D01*
X62001762Y-141727349D01*
X62001767Y-141727346D01*
X62006749Y-141725023D01*
X62164428Y-141614615D01*
X62189789Y-141596857D01*
X62189792Y-141596855D01*
X62194300Y-141593698D01*
X62285905Y-141502093D01*
X62348217Y-141468067D01*
X62419032Y-141473132D01*
X62464095Y-141502093D01*
X62555700Y-141593698D01*
X62560208Y-141596855D01*
X62560211Y-141596857D01*
X62585572Y-141614615D01*
X62743251Y-141725023D01*
X62748233Y-141727346D01*
X62748238Y-141727349D01*
X62875956Y-141786904D01*
X62950757Y-141821784D01*
X62956065Y-141823206D01*
X62956067Y-141823207D01*
X63166598Y-141879619D01*
X63166600Y-141879619D01*
X63171913Y-141881043D01*
X63271480Y-141889754D01*
X63340149Y-141895762D01*
X63340156Y-141895762D01*
X63342873Y-141896000D01*
X65057127Y-141896000D01*
X65059844Y-141895762D01*
X65059851Y-141895762D01*
X65128520Y-141889754D01*
X65228087Y-141881043D01*
X65233400Y-141879619D01*
X65233402Y-141879619D01*
X65443933Y-141823207D01*
X65443935Y-141823206D01*
X65449243Y-141821784D01*
X65524044Y-141786904D01*
X65651762Y-141727349D01*
X65651767Y-141727346D01*
X65656749Y-141725023D01*
X65814428Y-141614615D01*
X65839789Y-141596857D01*
X65839792Y-141596855D01*
X65844300Y-141593698D01*
X66006198Y-141431800D01*
X66137523Y-141244249D01*
X66139846Y-141239267D01*
X66139849Y-141239262D01*
X66231961Y-141041725D01*
X66231961Y-141041724D01*
X66234284Y-141036743D01*
X66293543Y-140815587D01*
X66313498Y-140587500D01*
X66293543Y-140359413D01*
X66234284Y-140138257D01*
X66211142Y-140088629D01*
X66139849Y-139935738D01*
X66139846Y-139935733D01*
X66137523Y-139930751D01*
X66006198Y-139743200D01*
X65844300Y-139581302D01*
X65839792Y-139578145D01*
X65839789Y-139578143D01*
X65761611Y-139523402D01*
X65656749Y-139449977D01*
X65651767Y-139447654D01*
X65651762Y-139447651D01*
X65454225Y-139355539D01*
X65454224Y-139355539D01*
X65449243Y-139353216D01*
X65443935Y-139351794D01*
X65443933Y-139351793D01*
X65233402Y-139295381D01*
X65233400Y-139295381D01*
X65228087Y-139293957D01*
X65128520Y-139285246D01*
X65059851Y-139279238D01*
X65059844Y-139279238D01*
X65057127Y-139279000D01*
X63342873Y-139279000D01*
X63340156Y-139279238D01*
X63340149Y-139279238D01*
X63271480Y-139285246D01*
X63171913Y-139293957D01*
X63166600Y-139295381D01*
X63166598Y-139295381D01*
X62956067Y-139351793D01*
X62956065Y-139351794D01*
X62950757Y-139353216D01*
X62945776Y-139355539D01*
X62945775Y-139355539D01*
X62748238Y-139447651D01*
X62748233Y-139447654D01*
X62743251Y-139449977D01*
X62638389Y-139523402D01*
X62560211Y-139578143D01*
X62560208Y-139578145D01*
X62555700Y-139581302D01*
X62464095Y-139672907D01*
X62401783Y-139706933D01*
X62330968Y-139701868D01*
X62285905Y-139672907D01*
X62194300Y-139581302D01*
X62189792Y-139578145D01*
X62189789Y-139578143D01*
X62111611Y-139523402D01*
X62006749Y-139449977D01*
X62001767Y-139447654D01*
X62001762Y-139447651D01*
X61804225Y-139355539D01*
X61804224Y-139355539D01*
X61799243Y-139353216D01*
X61793935Y-139351794D01*
X61793933Y-139351793D01*
X61583402Y-139295381D01*
X61583400Y-139295381D01*
X61578087Y-139293957D01*
X61478520Y-139285246D01*
X61409851Y-139279238D01*
X61409844Y-139279238D01*
X61407127Y-139279000D01*
X59692873Y-139279000D01*
X59690156Y-139279238D01*
X59690149Y-139279238D01*
X59621480Y-139285246D01*
X59521913Y-139293957D01*
X59516600Y-139295381D01*
X59516598Y-139295381D01*
X59306067Y-139351793D01*
X59306065Y-139351794D01*
X59300757Y-139353216D01*
X59295776Y-139355539D01*
X59295775Y-139355539D01*
X59098238Y-139447651D01*
X59098233Y-139447654D01*
X59093251Y-139449977D01*
X58988389Y-139523402D01*
X58910211Y-139578143D01*
X58910208Y-139578145D01*
X58905700Y-139581302D01*
X58743802Y-139743200D01*
X58612477Y-139930751D01*
X58610154Y-139935733D01*
X58610151Y-139935738D01*
X58538858Y-140088629D01*
X58515716Y-140138257D01*
X58456457Y-140359413D01*
X58436502Y-140587500D01*
X56744765Y-140587500D01*
X65133014Y-132199250D01*
X65145405Y-132188383D01*
X65163173Y-132174749D01*
X65169723Y-132169723D01*
X65264054Y-132046789D01*
X65296122Y-131969370D01*
X65323353Y-131903629D01*
X65343578Y-131750000D01*
X65339578Y-131719615D01*
X65338500Y-131703170D01*
X65338500Y-127772649D01*
X65358502Y-127704528D01*
X65412158Y-127658035D01*
X65482432Y-127647931D01*
X65539004Y-127671037D01*
X65549078Y-127678423D01*
X65635991Y-127742150D01*
X65640524Y-127745474D01*
X65644667Y-127747654D01*
X65644669Y-127747655D01*
X65867684Y-127864989D01*
X65867689Y-127864991D01*
X65871834Y-127867172D01*
X66118590Y-127953344D01*
X66123183Y-127954216D01*
X66370785Y-128001224D01*
X66370788Y-128001224D01*
X66375374Y-128002095D01*
X66505958Y-128007226D01*
X66631875Y-128012174D01*
X66631881Y-128012174D01*
X66636543Y-128012357D01*
X66727413Y-128002405D01*
X66891707Y-127984412D01*
X66891712Y-127984411D01*
X66896360Y-127983902D01*
X66934753Y-127973794D01*
X67144594Y-127918548D01*
X67144596Y-127918547D01*
X67149117Y-127917357D01*
X67389262Y-127814182D01*
X67436574Y-127784905D01*
X67607547Y-127679104D01*
X67607548Y-127679104D01*
X67611519Y-127676646D01*
X67615082Y-127673629D01*
X67615087Y-127673626D01*
X67807439Y-127510787D01*
X67807440Y-127510786D01*
X67811005Y-127507768D01*
X67866687Y-127444275D01*
X67980257Y-127314774D01*
X67980261Y-127314769D01*
X67983339Y-127311259D01*
X68079528Y-127161715D01*
X68133203Y-127115244D01*
X68203481Y-127105168D01*
X68268050Y-127134686D01*
G37*
G04 #@! TD.AperFunction*
G04 #@! TA.AperFunction,Conductor*
G36*
X50717012Y-142974340D02*
G01*
X50755396Y-143034066D01*
X50759827Y-143056560D01*
X50762968Y-143086830D01*
X50764974Y-143106166D01*
X50767155Y-143112702D01*
X50767155Y-143112704D01*
X50775229Y-143136904D01*
X50820950Y-143273946D01*
X50914022Y-143424348D01*
X51039197Y-143549305D01*
X51043416Y-143551906D01*
X51083917Y-143609030D01*
X51087149Y-143679953D01*
X51051524Y-143741365D01*
X51043970Y-143747922D01*
X51038152Y-143751522D01*
X50913195Y-143876697D01*
X50909355Y-143882927D01*
X50909354Y-143882928D01*
X50862887Y-143958312D01*
X50820385Y-144027262D01*
X50764703Y-144195139D01*
X50764003Y-144201975D01*
X50764002Y-144201978D01*
X50759844Y-144242563D01*
X50733003Y-144308290D01*
X50674888Y-144349072D01*
X50603950Y-144351960D01*
X50542712Y-144316038D01*
X50510615Y-144252711D01*
X50508500Y-144229720D01*
X50508500Y-143069564D01*
X50528502Y-143001443D01*
X50582158Y-142954950D01*
X50652432Y-142944846D01*
X50717012Y-142974340D01*
G37*
G04 #@! TD.AperFunction*
G04 #@! TA.AperFunction,Conductor*
G36*
X104970018Y-50510000D02*
G01*
X104984851Y-50512310D01*
X104984855Y-50512310D01*
X104993724Y-50513691D01*
X105014183Y-50511016D01*
X105036007Y-50510072D01*
X105385965Y-50525352D01*
X105396913Y-50526310D01*
X105774498Y-50576019D01*
X105785307Y-50577926D01*
X106157114Y-50660353D01*
X106167731Y-50663198D01*
X106530939Y-50777718D01*
X106541254Y-50781471D01*
X106893123Y-50927220D01*
X106903067Y-50931858D01*
X107240867Y-51107705D01*
X107250387Y-51113201D01*
X107571574Y-51317820D01*
X107580578Y-51324124D01*
X107882716Y-51555962D01*
X107891137Y-51563028D01*
X108171914Y-51820314D01*
X108179686Y-51828086D01*
X108436972Y-52108863D01*
X108444038Y-52117284D01*
X108675876Y-52419422D01*
X108682180Y-52428426D01*
X108886799Y-52749613D01*
X108892294Y-52759132D01*
X109017459Y-52999570D01*
X109068138Y-53096924D01*
X109072780Y-53106877D01*
X109148909Y-53290669D01*
X109218526Y-53458739D01*
X109222282Y-53469061D01*
X109267783Y-53613369D01*
X109336802Y-53832268D01*
X109339647Y-53842885D01*
X109414341Y-54179807D01*
X109422073Y-54214685D01*
X109423981Y-54225502D01*
X109440976Y-54354595D01*
X109473690Y-54603086D01*
X109474648Y-54614035D01*
X109487730Y-54913646D01*
X109489603Y-54956552D01*
X109488223Y-54981429D01*
X109486309Y-54993724D01*
X109487473Y-55002626D01*
X109487473Y-55002628D01*
X109488771Y-55012552D01*
X109490390Y-55024928D01*
X109490436Y-55025283D01*
X109491500Y-55041621D01*
X109491500Y-67790195D01*
X109471498Y-67858316D01*
X109424894Y-67901318D01*
X109393627Y-67918030D01*
X109370810Y-67927482D01*
X109206957Y-67977185D01*
X109182740Y-67982001D01*
X109006163Y-67999393D01*
X108993813Y-68000000D01*
X106886804Y-68000000D01*
X106818683Y-67979998D01*
X106772190Y-67926342D01*
X106762086Y-67856068D01*
X106791580Y-67791488D01*
X106822471Y-67765662D01*
X106843207Y-67753350D01*
X107129786Y-67538180D01*
X107391451Y-67293319D01*
X107625140Y-67021630D01*
X107731750Y-66866512D01*
X107826190Y-66729101D01*
X107826195Y-66729094D01*
X107828120Y-66726292D01*
X107829732Y-66723298D01*
X107829737Y-66723290D01*
X107996395Y-66413772D01*
X107998017Y-66410760D01*
X108132842Y-66078724D01*
X108143142Y-66042568D01*
X108175927Y-65927474D01*
X108231020Y-65734070D01*
X108291401Y-65380828D01*
X108293050Y-65353881D01*
X108313168Y-65024928D01*
X108313278Y-65023131D01*
X108313359Y-65000000D01*
X108293979Y-64642159D01*
X108236066Y-64288505D01*
X108140297Y-63943173D01*
X108137243Y-63935497D01*
X108009052Y-63613369D01*
X108007793Y-63610205D01*
X107977768Y-63553498D01*
X107841702Y-63296513D01*
X107841698Y-63296506D01*
X107840103Y-63293494D01*
X107639190Y-62996746D01*
X107407403Y-62723432D01*
X107147454Y-62476750D01*
X106862384Y-62259585D01*
X106859472Y-62257828D01*
X106859467Y-62257825D01*
X106558443Y-62076236D01*
X106558437Y-62076233D01*
X106555528Y-62074478D01*
X106230475Y-61923593D01*
X106060752Y-61866145D01*
X105894255Y-61809789D01*
X105894250Y-61809788D01*
X105891028Y-61808697D01*
X105692681Y-61764724D01*
X105544493Y-61731871D01*
X105544487Y-61731870D01*
X105541158Y-61731132D01*
X105537769Y-61730758D01*
X105537764Y-61730757D01*
X105188338Y-61692180D01*
X105188333Y-61692180D01*
X105184957Y-61691807D01*
X105181558Y-61691801D01*
X105181557Y-61691801D01*
X105012080Y-61691505D01*
X104826592Y-61691182D01*
X104713413Y-61703277D01*
X104473639Y-61728901D01*
X104473631Y-61728902D01*
X104470256Y-61729263D01*
X104120117Y-61805606D01*
X103780271Y-61919317D01*
X103777178Y-61920739D01*
X103777177Y-61920740D01*
X103770974Y-61923593D01*
X103454694Y-62069066D01*
X103147193Y-62253101D01*
X103144467Y-62255163D01*
X103144465Y-62255164D01*
X103138620Y-62259585D01*
X102861367Y-62469270D01*
X102600559Y-62715043D01*
X102367819Y-62987546D01*
X102365900Y-62990358D01*
X102365897Y-62990363D01*
X102272624Y-63127097D01*
X102165871Y-63283591D01*
X101997077Y-63599714D01*
X101863411Y-63932218D01*
X101862491Y-63935492D01*
X101862489Y-63935497D01*
X101772557Y-64255442D01*
X101766437Y-64277213D01*
X101765875Y-64280570D01*
X101765875Y-64280571D01*
X101725278Y-64523173D01*
X101707290Y-64630663D01*
X101686661Y-64988434D01*
X101686833Y-64991829D01*
X101686833Y-64991830D01*
X101700540Y-65262415D01*
X101704792Y-65346340D01*
X101705329Y-65349695D01*
X101705330Y-65349701D01*
X101739652Y-65563980D01*
X101761470Y-65700195D01*
X101856033Y-66045859D01*
X101987374Y-66379288D01*
X102153957Y-66696582D01*
X102155858Y-66699411D01*
X102155864Y-66699421D01*
X102339569Y-66972800D01*
X102353834Y-66994029D01*
X102584665Y-67268150D01*
X102843751Y-67515738D01*
X103128061Y-67733897D01*
X103130979Y-67735671D01*
X103181417Y-67766338D01*
X103229232Y-67818819D01*
X103241083Y-67888820D01*
X103213208Y-67954115D01*
X103154457Y-67993974D01*
X103115958Y-68000000D01*
X97414214Y-68000000D01*
X97411141Y-68000303D01*
X97411134Y-68000303D01*
X97293354Y-68011904D01*
X97219123Y-68019215D01*
X97213203Y-68021011D01*
X97213197Y-68021012D01*
X97078035Y-68062013D01*
X97031530Y-68076120D01*
X96858643Y-68168530D01*
X96853858Y-68172457D01*
X96709502Y-68290927D01*
X96709497Y-68290932D01*
X96707107Y-68292893D01*
X94494517Y-70505483D01*
X94432205Y-70539509D01*
X94376008Y-70538907D01*
X94241524Y-70506620D01*
X94241518Y-70506619D01*
X94236711Y-70505465D01*
X94000000Y-70486835D01*
X93763289Y-70505465D01*
X93758482Y-70506619D01*
X93758476Y-70506620D01*
X93623993Y-70538907D01*
X93532406Y-70560895D01*
X93527835Y-70562788D01*
X93527833Y-70562789D01*
X93317611Y-70649865D01*
X93317607Y-70649867D01*
X93313037Y-70651760D01*
X93308817Y-70654346D01*
X93114798Y-70773241D01*
X93114792Y-70773245D01*
X93110584Y-70775824D01*
X92930031Y-70930031D01*
X92775824Y-71110584D01*
X92773245Y-71114792D01*
X92773241Y-71114798D01*
X92654346Y-71308817D01*
X92651760Y-71313037D01*
X92649867Y-71317607D01*
X92649865Y-71317611D01*
X92570797Y-71508500D01*
X92560895Y-71532406D01*
X92548401Y-71584446D01*
X92519562Y-71704572D01*
X92505465Y-71763289D01*
X92488955Y-71973070D01*
X92488746Y-71975720D01*
X92487785Y-71983921D01*
X92487821Y-71984011D01*
X92486309Y-71993724D01*
X92486946Y-71998593D01*
X92486835Y-72000000D01*
X92487130Y-72000000D01*
X92488380Y-72009560D01*
X92488380Y-72009562D01*
X92490436Y-72025283D01*
X92491500Y-72041620D01*
X92491500Y-89950633D01*
X92490000Y-89970018D01*
X92486309Y-89993724D01*
X92487130Y-90000000D01*
X92486835Y-90000000D01*
X92505465Y-90236711D01*
X92506619Y-90241518D01*
X92506620Y-90241524D01*
X92540122Y-90381067D01*
X92560895Y-90467594D01*
X92562788Y-90472165D01*
X92562789Y-90472167D01*
X92649103Y-90680548D01*
X92651760Y-90686963D01*
X92654346Y-90691183D01*
X92773241Y-90885202D01*
X92773245Y-90885208D01*
X92775824Y-90889416D01*
X92930031Y-91069969D01*
X92955832Y-91092005D01*
X92994639Y-91151452D01*
X93000000Y-91187814D01*
X93000000Y-97812186D01*
X92979998Y-97880307D01*
X92955835Y-97907992D01*
X92930031Y-97930031D01*
X92775824Y-98110584D01*
X92773245Y-98114792D01*
X92773241Y-98114798D01*
X92667538Y-98287289D01*
X92651760Y-98313037D01*
X92649867Y-98317607D01*
X92649865Y-98317611D01*
X92570797Y-98508500D01*
X92560895Y-98532406D01*
X92546897Y-98590713D01*
X92512394Y-98734428D01*
X92505465Y-98763289D01*
X92493153Y-98919731D01*
X92488746Y-98975720D01*
X92487785Y-98983921D01*
X92487821Y-98984011D01*
X92486309Y-98993724D01*
X92486946Y-98998593D01*
X92486835Y-99000000D01*
X92487130Y-99000000D01*
X92488380Y-99009560D01*
X92488380Y-99009562D01*
X92490436Y-99025283D01*
X92491500Y-99041620D01*
X92491500Y-116950633D01*
X92490000Y-116970018D01*
X92486309Y-116993724D01*
X92487130Y-117000000D01*
X92486835Y-117000000D01*
X92505465Y-117236711D01*
X92506619Y-117241518D01*
X92506620Y-117241524D01*
X92532073Y-117347543D01*
X92560895Y-117467594D01*
X92562788Y-117472165D01*
X92562789Y-117472167D01*
X92646697Y-117674739D01*
X92651760Y-117686963D01*
X92654346Y-117691183D01*
X92773241Y-117885202D01*
X92773245Y-117885208D01*
X92775824Y-117889416D01*
X92930031Y-118069969D01*
X93110584Y-118224176D01*
X93114792Y-118226755D01*
X93114798Y-118226759D01*
X93308817Y-118345654D01*
X93313037Y-118348240D01*
X93317607Y-118350133D01*
X93317611Y-118350135D01*
X93527833Y-118437211D01*
X93532406Y-118439105D01*
X93612609Y-118458360D01*
X93758476Y-118493380D01*
X93758482Y-118493381D01*
X93763289Y-118494535D01*
X94000000Y-118513165D01*
X94236711Y-118494535D01*
X94241518Y-118493381D01*
X94241524Y-118493380D01*
X94387391Y-118458360D01*
X94467594Y-118439105D01*
X94472167Y-118437211D01*
X94682389Y-118350135D01*
X94682393Y-118350133D01*
X94686963Y-118348240D01*
X94691183Y-118345654D01*
X94885202Y-118226759D01*
X94885208Y-118226755D01*
X94889416Y-118224176D01*
X95069969Y-118069969D01*
X95224176Y-117889416D01*
X95226755Y-117885208D01*
X95226759Y-117885202D01*
X95345654Y-117691183D01*
X95348240Y-117686963D01*
X95353304Y-117674739D01*
X95437211Y-117472167D01*
X95437212Y-117472165D01*
X95439105Y-117467594D01*
X95467927Y-117347543D01*
X95493380Y-117241524D01*
X95493381Y-117241518D01*
X95494535Y-117236711D01*
X95510512Y-117033704D01*
X95511871Y-117022684D01*
X95512768Y-117017356D01*
X95512768Y-117017351D01*
X95513576Y-117012552D01*
X95513729Y-117000000D01*
X95509773Y-116972376D01*
X95508500Y-116954514D01*
X95508500Y-115812690D01*
X95528502Y-115744569D01*
X95582158Y-115698076D01*
X95652432Y-115687972D01*
X95717012Y-115717466D01*
X95723595Y-115723595D01*
X100702725Y-120702725D01*
X100711029Y-120711886D01*
X100823597Y-120849050D01*
X100837320Y-120869588D01*
X100918029Y-121020584D01*
X100927482Y-121043403D01*
X100977185Y-121207256D01*
X100982001Y-121231473D01*
X100999393Y-121408051D01*
X101000000Y-121420401D01*
X101000000Y-122023528D01*
X100979998Y-122091649D01*
X100926342Y-122138142D01*
X100856068Y-122148246D01*
X100791488Y-122118752D01*
X100752293Y-122056139D01*
X100745553Y-122030984D01*
X100745552Y-122030982D01*
X100744130Y-122025674D01*
X100741807Y-122020692D01*
X100649687Y-121823139D01*
X100649684Y-121823134D01*
X100647361Y-121818152D01*
X100516026Y-121630586D01*
X100354116Y-121468676D01*
X100285173Y-121420401D01*
X100245773Y-121392813D01*
X100166551Y-121337341D01*
X100161569Y-121335018D01*
X100161564Y-121335015D01*
X99964010Y-121242895D01*
X99964009Y-121242895D01*
X99959028Y-121240572D01*
X99953720Y-121239150D01*
X99953718Y-121239149D01*
X99743170Y-121182733D01*
X99743168Y-121182733D01*
X99737855Y-121181309D01*
X99509751Y-121161352D01*
X99281647Y-121181309D01*
X99276334Y-121182733D01*
X99276332Y-121182733D01*
X99065784Y-121239149D01*
X99065782Y-121239150D01*
X99060474Y-121240572D01*
X99055493Y-121242894D01*
X99055492Y-121242895D01*
X98857939Y-121335015D01*
X98857934Y-121335018D01*
X98852952Y-121337341D01*
X98848445Y-121340497D01*
X98848443Y-121340498D01*
X98669897Y-121465517D01*
X98669894Y-121465519D01*
X98665386Y-121468676D01*
X98503476Y-121630586D01*
X98372141Y-121818152D01*
X98369818Y-121823134D01*
X98369815Y-121823139D01*
X98277695Y-122020692D01*
X98275372Y-122025674D01*
X98216109Y-122246847D01*
X98196152Y-122474951D01*
X98216109Y-122703055D01*
X98217533Y-122708368D01*
X98217533Y-122708370D01*
X98233129Y-122766575D01*
X98231439Y-122837552D01*
X98200518Y-122888280D01*
X95589845Y-125498953D01*
X95527534Y-125532978D01*
X95456719Y-125527913D01*
X95399883Y-125485366D01*
X95375072Y-125418846D01*
X95390335Y-125349158D01*
X95399626Y-125332258D01*
X95399628Y-125332253D01*
X95403445Y-125325310D01*
X95408483Y-125305687D01*
X95414887Y-125286984D01*
X95419783Y-125275670D01*
X95419783Y-125275669D01*
X95422931Y-125268395D01*
X95424170Y-125260572D01*
X95424173Y-125260562D01*
X95429849Y-125224726D01*
X95432255Y-125213106D01*
X95441278Y-125177961D01*
X95441278Y-125177960D01*
X95443250Y-125170280D01*
X95443250Y-125150026D01*
X95444801Y-125130315D01*
X95446730Y-125118136D01*
X95447970Y-125110307D01*
X95443809Y-125066288D01*
X95443250Y-125054431D01*
X95443250Y-123694467D01*
X95463252Y-123626346D01*
X95496979Y-123591254D01*
X95543713Y-123558531D01*
X95654115Y-123481226D01*
X95816025Y-123319316D01*
X95832264Y-123296125D01*
X95944203Y-123136259D01*
X95944204Y-123136257D01*
X95947360Y-123131750D01*
X95949683Y-123126768D01*
X95949686Y-123126763D01*
X96041806Y-122929210D01*
X96041807Y-122929209D01*
X96044129Y-122924228D01*
X96053530Y-122889145D01*
X96101968Y-122708370D01*
X96101968Y-122708368D01*
X96103392Y-122703055D01*
X96123349Y-122474951D01*
X96103392Y-122246847D01*
X96044129Y-122025674D01*
X96041806Y-122020692D01*
X95949686Y-121823139D01*
X95949683Y-121823134D01*
X95947360Y-121818152D01*
X95816025Y-121630586D01*
X95654115Y-121468676D01*
X95585172Y-121420401D01*
X95545772Y-121392813D01*
X95466550Y-121337341D01*
X95461568Y-121335018D01*
X95461563Y-121335015D01*
X95264009Y-121242895D01*
X95264008Y-121242895D01*
X95259027Y-121240572D01*
X95253719Y-121239150D01*
X95253717Y-121239149D01*
X95043169Y-121182733D01*
X95043167Y-121182733D01*
X95037854Y-121181309D01*
X94809750Y-121161352D01*
X94581646Y-121181309D01*
X94576333Y-121182733D01*
X94576331Y-121182733D01*
X94365783Y-121239149D01*
X94365781Y-121239150D01*
X94360473Y-121240572D01*
X94355492Y-121242894D01*
X94355491Y-121242895D01*
X94157938Y-121335015D01*
X94157933Y-121335018D01*
X94152951Y-121337341D01*
X94148444Y-121340497D01*
X94148442Y-121340498D01*
X93969896Y-121465517D01*
X93969893Y-121465519D01*
X93965385Y-121468676D01*
X93803475Y-121630586D01*
X93672140Y-121818152D01*
X93669817Y-121823134D01*
X93669814Y-121823139D01*
X93577694Y-122020692D01*
X93575371Y-122025674D01*
X93516108Y-122246847D01*
X93496151Y-122474951D01*
X93516108Y-122703055D01*
X93517532Y-122708368D01*
X93517532Y-122708370D01*
X93565971Y-122889145D01*
X93575371Y-122924228D01*
X93577693Y-122929209D01*
X93577694Y-122929210D01*
X93669814Y-123126763D01*
X93669817Y-123126768D01*
X93672140Y-123131750D01*
X93675296Y-123136257D01*
X93675297Y-123136259D01*
X93787237Y-123296125D01*
X93803475Y-123319316D01*
X93965385Y-123481226D01*
X94075788Y-123558531D01*
X94122521Y-123591254D01*
X94166849Y-123646711D01*
X94176250Y-123694467D01*
X94176250Y-124775655D01*
X94156248Y-124843776D01*
X94139345Y-124864751D01*
X93925399Y-125078696D01*
X93863087Y-125112721D01*
X93836304Y-125115600D01*
X92551413Y-125115600D01*
X92483292Y-125095598D01*
X92468344Y-125083551D01*
X92466461Y-125081039D01*
X92349905Y-124993685D01*
X92213516Y-124942555D01*
X92151334Y-124935800D01*
X91648666Y-124935800D01*
X91586484Y-124942555D01*
X91450095Y-124993685D01*
X91333539Y-125081039D01*
X91246185Y-125197595D01*
X91195055Y-125333984D01*
X91188300Y-125396166D01*
X91188300Y-126102034D01*
X91195055Y-126164216D01*
X91246185Y-126300605D01*
X91333539Y-126417161D01*
X91432730Y-126491500D01*
X91442969Y-126499174D01*
X91485484Y-126556033D01*
X91490510Y-126626851D01*
X91456450Y-126689145D01*
X91442972Y-126700823D01*
X91333539Y-126782839D01*
X91246185Y-126899395D01*
X91195055Y-127035784D01*
X91188300Y-127097966D01*
X91188300Y-127803834D01*
X91188669Y-127807231D01*
X91194444Y-127860392D01*
X91181916Y-127930275D01*
X91133595Y-127982291D01*
X91069181Y-128000000D01*
X71000000Y-128000000D01*
X70996927Y-128000303D01*
X70996920Y-128000303D01*
X70896943Y-128010150D01*
X70804910Y-128019215D01*
X70798990Y-128021011D01*
X70798984Y-128021012D01*
X70663822Y-128062013D01*
X70617317Y-128076120D01*
X70444430Y-128168530D01*
X70292893Y-128292893D01*
X70288966Y-128297678D01*
X70207071Y-128397467D01*
X70168530Y-128444430D01*
X70076120Y-128617317D01*
X70074325Y-128623235D01*
X70021012Y-128798984D01*
X70021011Y-128798990D01*
X70019215Y-128804910D01*
X70000000Y-129000000D01*
X70000000Y-130370362D01*
X69979998Y-130438483D01*
X69926342Y-130484976D01*
X69883888Y-130495973D01*
X69763289Y-130505465D01*
X69758482Y-130506619D01*
X69758476Y-130506620D01*
X69658235Y-130530686D01*
X69611955Y-130541797D01*
X69541048Y-130538250D01*
X69483314Y-130496930D01*
X69457084Y-130430957D01*
X69466134Y-130371058D01*
X69470193Y-130361259D01*
X69470194Y-130361256D01*
X69473353Y-130353629D01*
X69493578Y-130200000D01*
X69489578Y-130169615D01*
X69488500Y-130153170D01*
X69488500Y-127195955D01*
X69508502Y-127127834D01*
X69525405Y-127106860D01*
X70506860Y-126125405D01*
X70569172Y-126091379D01*
X70595955Y-126088500D01*
X81153170Y-126088500D01*
X81169615Y-126089578D01*
X81200000Y-126093578D01*
X81208189Y-126092500D01*
X81345442Y-126074431D01*
X81345443Y-126074431D01*
X81353630Y-126073353D01*
X81437490Y-126038616D01*
X81496789Y-126014054D01*
X81619723Y-125919723D01*
X81638380Y-125895409D01*
X81649247Y-125883018D01*
X82783018Y-124749247D01*
X82795409Y-124738380D01*
X82813173Y-124724749D01*
X82819723Y-124719723D01*
X82914054Y-124596789D01*
X82958509Y-124489464D01*
X82973352Y-124453630D01*
X82993578Y-124300000D01*
X82989578Y-124269617D01*
X82988500Y-124253171D01*
X82988500Y-123558531D01*
X83008502Y-123490410D01*
X83062158Y-123443917D01*
X83132432Y-123433813D01*
X83197012Y-123463307D01*
X83203595Y-123469436D01*
X83215385Y-123481226D01*
X83402950Y-123612561D01*
X83407932Y-123614884D01*
X83407937Y-123614887D01*
X83578599Y-123694467D01*
X83610473Y-123709330D01*
X83615781Y-123710752D01*
X83615783Y-123710753D01*
X83826331Y-123767169D01*
X83826333Y-123767169D01*
X83831646Y-123768593D01*
X84059750Y-123788550D01*
X84287854Y-123768593D01*
X84293167Y-123767169D01*
X84293169Y-123767169D01*
X84351374Y-123751573D01*
X84422351Y-123753263D01*
X84473080Y-123784185D01*
X84832042Y-124143147D01*
X84839586Y-124151437D01*
X84843699Y-124157918D01*
X84849476Y-124163343D01*
X84893366Y-124204558D01*
X84896208Y-124207313D01*
X84915929Y-124227034D01*
X84919124Y-124229512D01*
X84928146Y-124237218D01*
X84960378Y-124267486D01*
X84971145Y-124273405D01*
X84978131Y-124277246D01*
X84994655Y-124288099D01*
X85010658Y-124300513D01*
X85051242Y-124318076D01*
X85061872Y-124323283D01*
X85100639Y-124344595D01*
X85108316Y-124346566D01*
X85108321Y-124346568D01*
X85120257Y-124349632D01*
X85138965Y-124356037D01*
X85157554Y-124364081D01*
X85165379Y-124365320D01*
X85165381Y-124365321D01*
X85201218Y-124370997D01*
X85212839Y-124373404D01*
X85247988Y-124382428D01*
X85255669Y-124384400D01*
X85275930Y-124384400D01*
X85295639Y-124385951D01*
X85315642Y-124389119D01*
X85323534Y-124388373D01*
X85328761Y-124387879D01*
X85359653Y-124384959D01*
X85371510Y-124384400D01*
X91148587Y-124384400D01*
X91216708Y-124404402D01*
X91231656Y-124416449D01*
X91233539Y-124418961D01*
X91350095Y-124506315D01*
X91486484Y-124557445D01*
X91548666Y-124564200D01*
X92051334Y-124564200D01*
X92113516Y-124557445D01*
X92249905Y-124506315D01*
X92366461Y-124418961D01*
X92453815Y-124302405D01*
X92504945Y-124166016D01*
X92511700Y-124103834D01*
X92511700Y-123397966D01*
X92504945Y-123335784D01*
X92453815Y-123199395D01*
X92366461Y-123082839D01*
X92257030Y-123000825D01*
X92214516Y-122943967D01*
X92209490Y-122873149D01*
X92243550Y-122810855D01*
X92257031Y-122799174D01*
X92300531Y-122766573D01*
X92366461Y-122717161D01*
X92453815Y-122600605D01*
X92504945Y-122464216D01*
X92511700Y-122402034D01*
X92511700Y-121696166D01*
X92504945Y-121633984D01*
X92453815Y-121497595D01*
X92366461Y-121381039D01*
X92249905Y-121293685D01*
X92113516Y-121242555D01*
X92051334Y-121235800D01*
X91548666Y-121235800D01*
X91486484Y-121242555D01*
X91350095Y-121293685D01*
X91233539Y-121381039D01*
X91233496Y-121380981D01*
X91175370Y-121412721D01*
X91148587Y-121415600D01*
X89568044Y-121415600D01*
X89495773Y-121392813D01*
X89471273Y-121375658D01*
X89416551Y-121337341D01*
X89411569Y-121335018D01*
X89411564Y-121335015D01*
X89214010Y-121242895D01*
X89214009Y-121242895D01*
X89209028Y-121240572D01*
X89203720Y-121239150D01*
X89203718Y-121239149D01*
X88993170Y-121182733D01*
X88993168Y-121182733D01*
X88987855Y-121181309D01*
X88759751Y-121161352D01*
X88531647Y-121181309D01*
X88526334Y-121182733D01*
X88526332Y-121182733D01*
X88315784Y-121239149D01*
X88315782Y-121239150D01*
X88310474Y-121240572D01*
X88305493Y-121242894D01*
X88305492Y-121242895D01*
X88107939Y-121335015D01*
X88107934Y-121335018D01*
X88102952Y-121337341D01*
X88098445Y-121340497D01*
X88098443Y-121340498D01*
X87919897Y-121465517D01*
X87919894Y-121465519D01*
X87915386Y-121468676D01*
X87753476Y-121630586D01*
X87622141Y-121818152D01*
X87619818Y-121823134D01*
X87619815Y-121823139D01*
X87527695Y-122020692D01*
X87525372Y-122025674D01*
X87466109Y-122246847D01*
X87446152Y-122474951D01*
X87466109Y-122703055D01*
X87467533Y-122708368D01*
X87467533Y-122708370D01*
X87515972Y-122889145D01*
X87525372Y-122924228D01*
X87527695Y-122929209D01*
X87527695Y-122929210D01*
X87531864Y-122938150D01*
X87542525Y-123008341D01*
X87513545Y-123073154D01*
X87454126Y-123112011D01*
X87417669Y-123117400D01*
X85650294Y-123117400D01*
X85582173Y-123097398D01*
X85561199Y-123080495D01*
X85368984Y-122888280D01*
X85334958Y-122825968D01*
X85336373Y-122766573D01*
X85351967Y-122708377D01*
X85351969Y-122708366D01*
X85353392Y-122703055D01*
X85373349Y-122474951D01*
X85353392Y-122246847D01*
X85294129Y-122025674D01*
X85291806Y-122020692D01*
X85199686Y-121823139D01*
X85199683Y-121823134D01*
X85197360Y-121818152D01*
X85066025Y-121630586D01*
X84904115Y-121468676D01*
X84835172Y-121420401D01*
X84795772Y-121392813D01*
X84716550Y-121337341D01*
X84711568Y-121335018D01*
X84711563Y-121335015D01*
X84514009Y-121242895D01*
X84514008Y-121242895D01*
X84509027Y-121240572D01*
X84503719Y-121239150D01*
X84503717Y-121239149D01*
X84293169Y-121182733D01*
X84293167Y-121182733D01*
X84287854Y-121181309D01*
X84059750Y-121161352D01*
X83831646Y-121181309D01*
X83826333Y-121182733D01*
X83826331Y-121182733D01*
X83615783Y-121239149D01*
X83615781Y-121239150D01*
X83610473Y-121240572D01*
X83605492Y-121242894D01*
X83605491Y-121242895D01*
X83407938Y-121335015D01*
X83407933Y-121335018D01*
X83402951Y-121337341D01*
X83398444Y-121340497D01*
X83398442Y-121340498D01*
X83219896Y-121465517D01*
X83219893Y-121465519D01*
X83215385Y-121468676D01*
X83203595Y-121480466D01*
X83141283Y-121514492D01*
X83070468Y-121509427D01*
X83013632Y-121466880D01*
X82988821Y-121400360D01*
X82988500Y-121391371D01*
X82988500Y-119295955D01*
X83008502Y-119227834D01*
X83025405Y-119206860D01*
X87383018Y-114849247D01*
X87395409Y-114838380D01*
X87413173Y-114824749D01*
X87419723Y-114819723D01*
X87514054Y-114696789D01*
X87573352Y-114553629D01*
X87575742Y-114554619D01*
X87605958Y-114505036D01*
X87665388Y-114474836D01*
X87670905Y-114473704D01*
X87677924Y-114473065D01*
X87684621Y-114470889D01*
X87684626Y-114470888D01*
X87827730Y-114424390D01*
X87827733Y-114424389D01*
X87834429Y-114422213D01*
X87975779Y-114337951D01*
X88094949Y-114224468D01*
X88098850Y-114218597D01*
X88182114Y-114093275D01*
X88182115Y-114093273D01*
X88186015Y-114087403D01*
X88244451Y-113933568D01*
X88245431Y-113926597D01*
X88245432Y-113926592D01*
X88254858Y-113859518D01*
X88284146Y-113794843D01*
X88315114Y-113768824D01*
X88374694Y-113733307D01*
X88450779Y-113687951D01*
X88569949Y-113574468D01*
X88573850Y-113568597D01*
X88657114Y-113443275D01*
X88657115Y-113443273D01*
X88661015Y-113437403D01*
X88719451Y-113283568D01*
X88728549Y-113218829D01*
X88741802Y-113124534D01*
X88741803Y-113124527D01*
X88742353Y-113120610D01*
X88742641Y-113100000D01*
X88724298Y-112936466D01*
X88670180Y-112781060D01*
X88650772Y-112750000D01*
X88586709Y-112647479D01*
X88582976Y-112641505D01*
X88485093Y-112542937D01*
X88451287Y-112480508D01*
X88448500Y-112454154D01*
X88448500Y-57884991D01*
X88468502Y-57816870D01*
X88474538Y-57808287D01*
X88509026Y-57763342D01*
X88509027Y-57763340D01*
X88514054Y-57756789D01*
X88544472Y-57683352D01*
X88573353Y-57613629D01*
X88593578Y-57460000D01*
X88589578Y-57429615D01*
X88588500Y-57413170D01*
X88588500Y-55602780D01*
X88589578Y-55586334D01*
X88592500Y-55564139D01*
X88593578Y-55555951D01*
X88573352Y-55402321D01*
X88564814Y-55381708D01*
X88556009Y-55347537D01*
X88541771Y-55220604D01*
X88540986Y-55213605D01*
X88535186Y-55196948D01*
X88489186Y-55064856D01*
X88486868Y-55058199D01*
X88477198Y-55042723D01*
X88443274Y-54988434D01*
X101686661Y-54988434D01*
X101704792Y-55346340D01*
X101705329Y-55349695D01*
X101705330Y-55349701D01*
X101742188Y-55579812D01*
X101761470Y-55700195D01*
X101856033Y-56045859D01*
X101863825Y-56065640D01*
X101969179Y-56333096D01*
X101987374Y-56379288D01*
X102006580Y-56415870D01*
X102035465Y-56470887D01*
X102153957Y-56696582D01*
X102155858Y-56699411D01*
X102155864Y-56699421D01*
X102288269Y-56896459D01*
X102353834Y-56994029D01*
X102584665Y-57268150D01*
X102843751Y-57515738D01*
X103128061Y-57733897D01*
X103160056Y-57753350D01*
X103431355Y-57918303D01*
X103431360Y-57918306D01*
X103434270Y-57920075D01*
X103437358Y-57921521D01*
X103437357Y-57921521D01*
X103755710Y-58070649D01*
X103755720Y-58070653D01*
X103758794Y-58072093D01*
X103762012Y-58073195D01*
X103762015Y-58073196D01*
X104094615Y-58187071D01*
X104094623Y-58187073D01*
X104097838Y-58188174D01*
X104447435Y-58266959D01*
X104499728Y-58272917D01*
X104800114Y-58307142D01*
X104800122Y-58307142D01*
X104803497Y-58307527D01*
X104806901Y-58307545D01*
X104806904Y-58307545D01*
X105001227Y-58308562D01*
X105161857Y-58309403D01*
X105165243Y-58309053D01*
X105165245Y-58309053D01*
X105514932Y-58272917D01*
X105514941Y-58272916D01*
X105518324Y-58272566D01*
X105521657Y-58271852D01*
X105521660Y-58271851D01*
X105694186Y-58234864D01*
X105868727Y-58197446D01*
X106208968Y-58084922D01*
X106535066Y-57936311D01*
X106693533Y-57842220D01*
X106840262Y-57755099D01*
X106840267Y-57755096D01*
X106843207Y-57753350D01*
X106848791Y-57749158D01*
X107019134Y-57621260D01*
X107129786Y-57538180D01*
X107391451Y-57293319D01*
X107625140Y-57021630D01*
X107731750Y-56866512D01*
X107826190Y-56729101D01*
X107826195Y-56729094D01*
X107828120Y-56726292D01*
X107829732Y-56723298D01*
X107829737Y-56723290D01*
X107993792Y-56418607D01*
X107998017Y-56410760D01*
X108097953Y-56164645D01*
X108131562Y-56081877D01*
X108131564Y-56081872D01*
X108132842Y-56078724D01*
X108138286Y-56059615D01*
X108187751Y-55885966D01*
X108231020Y-55734070D01*
X108253462Y-55602780D01*
X108290829Y-55384175D01*
X108290829Y-55384173D01*
X108291401Y-55380828D01*
X108293438Y-55347537D01*
X108312826Y-55030527D01*
X108313278Y-55023131D01*
X108313359Y-55000000D01*
X108293979Y-54642159D01*
X108236066Y-54288505D01*
X108140297Y-53943173D01*
X108137243Y-53935497D01*
X108009052Y-53613369D01*
X108007793Y-53610205D01*
X107933065Y-53469068D01*
X107841702Y-53296513D01*
X107841698Y-53296506D01*
X107840103Y-53293494D01*
X107639190Y-52996746D01*
X107407403Y-52723432D01*
X107147454Y-52476750D01*
X106862384Y-52259585D01*
X106859472Y-52257828D01*
X106859467Y-52257825D01*
X106558443Y-52076236D01*
X106558437Y-52076233D01*
X106555528Y-52074478D01*
X106230475Y-51923593D01*
X105936328Y-51824030D01*
X105894255Y-51809789D01*
X105894250Y-51809788D01*
X105891028Y-51808697D01*
X105692681Y-51764724D01*
X105544493Y-51731871D01*
X105544487Y-51731870D01*
X105541158Y-51731132D01*
X105537769Y-51730758D01*
X105537764Y-51730757D01*
X105188338Y-51692180D01*
X105188333Y-51692180D01*
X105184957Y-51691807D01*
X105181558Y-51691801D01*
X105181557Y-51691801D01*
X105012080Y-51691505D01*
X104826592Y-51691182D01*
X104713413Y-51703277D01*
X104473639Y-51728901D01*
X104473631Y-51728902D01*
X104470256Y-51729263D01*
X104120117Y-51805606D01*
X103780271Y-51919317D01*
X103777178Y-51920739D01*
X103777177Y-51920740D01*
X103770974Y-51923593D01*
X103454694Y-52069066D01*
X103451760Y-52070822D01*
X103451758Y-52070823D01*
X103381421Y-52112919D01*
X103147193Y-52253101D01*
X103144467Y-52255163D01*
X103144465Y-52255164D01*
X102927278Y-52419422D01*
X102861367Y-52469270D01*
X102600559Y-52715043D01*
X102598347Y-52717633D01*
X102598345Y-52717635D01*
X102540495Y-52785369D01*
X102367819Y-52987546D01*
X102365900Y-52990358D01*
X102365897Y-52990363D01*
X102293206Y-53096924D01*
X102165871Y-53283591D01*
X101997077Y-53599714D01*
X101863411Y-53932218D01*
X101862491Y-53935492D01*
X101862489Y-53935497D01*
X101778037Y-54235946D01*
X101766437Y-54277213D01*
X101707290Y-54630663D01*
X101686661Y-54988434D01*
X88443274Y-54988434D01*
X88403397Y-54924618D01*
X88399664Y-54918644D01*
X88341687Y-54860261D01*
X88288674Y-54806876D01*
X88288670Y-54806873D01*
X88283710Y-54801878D01*
X88144768Y-54713702D01*
X88095635Y-54696207D01*
X87996377Y-54660862D01*
X87996375Y-54660861D01*
X87989743Y-54658500D01*
X87982757Y-54657667D01*
X87982753Y-54657666D01*
X87868259Y-54644014D01*
X87826341Y-54639016D01*
X87819338Y-54639752D01*
X87819337Y-54639752D01*
X87776123Y-54644294D01*
X87662683Y-54656217D01*
X87656015Y-54658487D01*
X87513570Y-54706979D01*
X87513567Y-54706980D01*
X87506903Y-54709249D01*
X87366743Y-54795476D01*
X87249170Y-54910612D01*
X87160026Y-55048936D01*
X87157615Y-55055559D01*
X87157614Y-55055562D01*
X87106154Y-55196948D01*
X87106153Y-55196953D01*
X87103744Y-55203571D01*
X87101592Y-55220604D01*
X87091695Y-55298948D01*
X87063313Y-55364025D01*
X87032712Y-55390473D01*
X87022059Y-55397027D01*
X87022057Y-55397029D01*
X87016055Y-55400721D01*
X86898482Y-55515857D01*
X86809338Y-55654181D01*
X86806927Y-55660804D01*
X86806926Y-55660807D01*
X86755466Y-55802193D01*
X86755465Y-55802198D01*
X86753056Y-55808816D01*
X86752173Y-55815808D01*
X86733314Y-55965084D01*
X86733314Y-55965089D01*
X86732431Y-55972078D01*
X86733118Y-55979088D01*
X86733045Y-55984330D01*
X86712091Y-56052164D01*
X86673080Y-56089883D01*
X86545555Y-56168337D01*
X86427982Y-56283473D01*
X86338838Y-56421797D01*
X86336427Y-56428420D01*
X86336426Y-56428423D01*
X86284966Y-56569809D01*
X86284965Y-56569814D01*
X86282556Y-56576432D01*
X86261931Y-56739694D01*
X86277989Y-56903468D01*
X86329932Y-57059615D01*
X86415179Y-57200373D01*
X86512115Y-57300753D01*
X86516137Y-57304918D01*
X86549069Y-57367815D01*
X86551500Y-57392445D01*
X86551500Y-112975009D01*
X86531498Y-113043130D01*
X86525462Y-113051713D01*
X86491432Y-113096062D01*
X86485946Y-113103211D01*
X86466892Y-113149213D01*
X86426647Y-113246370D01*
X86406422Y-113400000D01*
X86407500Y-113408188D01*
X86410422Y-113430384D01*
X86411500Y-113446830D01*
X86411500Y-114104045D01*
X86391498Y-114172166D01*
X86374595Y-114193140D01*
X82016982Y-118550753D01*
X82004591Y-118561620D01*
X81980277Y-118580277D01*
X81885946Y-118703211D01*
X81869443Y-118743054D01*
X81826647Y-118846370D01*
X81825569Y-118854557D01*
X81825569Y-118854558D01*
X81810272Y-118970757D01*
X81806422Y-119000000D01*
X81807500Y-119008188D01*
X81810422Y-119030384D01*
X81811500Y-119046830D01*
X81811500Y-121137849D01*
X81791498Y-121205970D01*
X81737842Y-121252463D01*
X81667568Y-121262567D01*
X81609935Y-121238675D01*
X81600325Y-121231473D01*
X81549905Y-121193685D01*
X81413516Y-121142555D01*
X81351334Y-121135800D01*
X80848666Y-121135800D01*
X80786484Y-121142555D01*
X80650095Y-121193685D01*
X80533539Y-121281039D01*
X80533496Y-121280981D01*
X80475370Y-121312721D01*
X80448587Y-121315600D01*
X78647861Y-121315600D01*
X78594611Y-121303795D01*
X78464010Y-121242895D01*
X78464009Y-121242895D01*
X78459028Y-121240572D01*
X78453720Y-121239150D01*
X78453718Y-121239149D01*
X78243170Y-121182733D01*
X78243168Y-121182733D01*
X78237855Y-121181309D01*
X78009751Y-121161352D01*
X77781647Y-121181309D01*
X77776334Y-121182733D01*
X77776332Y-121182733D01*
X77565784Y-121239149D01*
X77565782Y-121239150D01*
X77560474Y-121240572D01*
X77555493Y-121242894D01*
X77555492Y-121242895D01*
X77357939Y-121335015D01*
X77357934Y-121335018D01*
X77352952Y-121337341D01*
X77348445Y-121340497D01*
X77348443Y-121340498D01*
X77169897Y-121465517D01*
X77169894Y-121465519D01*
X77165386Y-121468676D01*
X77003476Y-121630586D01*
X76872141Y-121818152D01*
X76869818Y-121823134D01*
X76869815Y-121823139D01*
X76777695Y-122020692D01*
X76775372Y-122025674D01*
X76716109Y-122246847D01*
X76696152Y-122474951D01*
X76716109Y-122703055D01*
X76717533Y-122708368D01*
X76717533Y-122708370D01*
X76722146Y-122725585D01*
X76757100Y-122856033D01*
X76757838Y-122858789D01*
X76756148Y-122929765D01*
X76716354Y-122988561D01*
X76651090Y-123016509D01*
X76636131Y-123017400D01*
X74800293Y-123017400D01*
X74732172Y-122997398D01*
X74711198Y-122980495D01*
X74618984Y-122888281D01*
X74584958Y-122825969D01*
X74586372Y-122766575D01*
X74601968Y-122708370D01*
X74601968Y-122708368D01*
X74603392Y-122703055D01*
X74623349Y-122474951D01*
X74603392Y-122246847D01*
X74544129Y-122025674D01*
X74541806Y-122020692D01*
X74449686Y-121823139D01*
X74449683Y-121823134D01*
X74447360Y-121818152D01*
X74316025Y-121630586D01*
X74154115Y-121468676D01*
X74085172Y-121420401D01*
X74045772Y-121392813D01*
X73966550Y-121337341D01*
X73961568Y-121335018D01*
X73961563Y-121335015D01*
X73764009Y-121242895D01*
X73764008Y-121242895D01*
X73759027Y-121240572D01*
X73753719Y-121239150D01*
X73753717Y-121239149D01*
X73543169Y-121182733D01*
X73543167Y-121182733D01*
X73537854Y-121181309D01*
X73309750Y-121161352D01*
X73081646Y-121181309D01*
X73076333Y-121182733D01*
X73076331Y-121182733D01*
X72865783Y-121239149D01*
X72865781Y-121239150D01*
X72860473Y-121240572D01*
X72855492Y-121242894D01*
X72855491Y-121242895D01*
X72657938Y-121335015D01*
X72657933Y-121335018D01*
X72652951Y-121337341D01*
X72648444Y-121340497D01*
X72648442Y-121340498D01*
X72469896Y-121465517D01*
X72469893Y-121465519D01*
X72465385Y-121468676D01*
X72303475Y-121630586D01*
X72172140Y-121818152D01*
X72169817Y-121823134D01*
X72169814Y-121823139D01*
X72077694Y-122020692D01*
X72075371Y-122025674D01*
X72016108Y-122246847D01*
X71996151Y-122474951D01*
X72016108Y-122703055D01*
X72017532Y-122708368D01*
X72017532Y-122708370D01*
X72065971Y-122889145D01*
X72075371Y-122924228D01*
X72077693Y-122929209D01*
X72077694Y-122929210D01*
X72169814Y-123126763D01*
X72169817Y-123126768D01*
X72172140Y-123131750D01*
X72175296Y-123136257D01*
X72175297Y-123136259D01*
X72287237Y-123296125D01*
X72303475Y-123319316D01*
X72465385Y-123481226D01*
X72652950Y-123612561D01*
X72657932Y-123614884D01*
X72657937Y-123614887D01*
X72828599Y-123694467D01*
X72860473Y-123709330D01*
X72865781Y-123710752D01*
X72865783Y-123710753D01*
X73076331Y-123767169D01*
X73076333Y-123767169D01*
X73081646Y-123768593D01*
X73309750Y-123788550D01*
X73537854Y-123768593D01*
X73543167Y-123767169D01*
X73543169Y-123767169D01*
X73601373Y-123751573D01*
X73672349Y-123753263D01*
X73723080Y-123784185D01*
X73982052Y-124043158D01*
X73989586Y-124051437D01*
X73993699Y-124057918D01*
X74038956Y-124100417D01*
X74043350Y-124104543D01*
X74046192Y-124107298D01*
X74065929Y-124127035D01*
X74069126Y-124129515D01*
X74078146Y-124137218D01*
X74110378Y-124167486D01*
X74117324Y-124171305D01*
X74117327Y-124171307D01*
X74128133Y-124177248D01*
X74144652Y-124188099D01*
X74160658Y-124200514D01*
X74167927Y-124203659D01*
X74167931Y-124203662D01*
X74201236Y-124218074D01*
X74211886Y-124223291D01*
X74250639Y-124244595D01*
X74258314Y-124246566D01*
X74258315Y-124246566D01*
X74270261Y-124249633D01*
X74288966Y-124256037D01*
X74307554Y-124264081D01*
X74315377Y-124265320D01*
X74315387Y-124265323D01*
X74351223Y-124270999D01*
X74362843Y-124273405D01*
X74396411Y-124282023D01*
X74405669Y-124284400D01*
X74425923Y-124284400D01*
X74445633Y-124285951D01*
X74465642Y-124289120D01*
X74473534Y-124288374D01*
X74509660Y-124284959D01*
X74521518Y-124284400D01*
X80448587Y-124284400D01*
X80516708Y-124304402D01*
X80531656Y-124316449D01*
X80533539Y-124318961D01*
X80650095Y-124406315D01*
X80786484Y-124457445D01*
X80848666Y-124464200D01*
X81099345Y-124464200D01*
X81167466Y-124484202D01*
X81213959Y-124537858D01*
X81224063Y-124608132D01*
X81194569Y-124672712D01*
X81188440Y-124679295D01*
X80993140Y-124874595D01*
X80930828Y-124908621D01*
X80904045Y-124911500D01*
X70346830Y-124911500D01*
X70330384Y-124910422D01*
X70300000Y-124906422D01*
X70291811Y-124907500D01*
X70154558Y-124925569D01*
X70154557Y-124925569D01*
X70146370Y-124926647D01*
X70138739Y-124929808D01*
X70062512Y-124961383D01*
X70062510Y-124961384D01*
X70030234Y-124974753D01*
X70003211Y-124985946D01*
X69880277Y-125080277D01*
X69875251Y-125086827D01*
X69861620Y-125104591D01*
X69850753Y-125116982D01*
X68551551Y-126416184D01*
X68489239Y-126450210D01*
X68418424Y-126445145D01*
X68361588Y-126402598D01*
X68336777Y-126336078D01*
X68336499Y-126323791D01*
X68337793Y-126274372D01*
X68338431Y-126250000D01*
X68326643Y-126091379D01*
X68319407Y-125994000D01*
X68319406Y-125993996D01*
X68319061Y-125989348D01*
X68303307Y-125919723D01*
X68262408Y-125738980D01*
X68261377Y-125734423D01*
X68240846Y-125681626D01*
X68168340Y-125495176D01*
X68168339Y-125495173D01*
X68166647Y-125490823D01*
X68137102Y-125439129D01*
X68077006Y-125333984D01*
X68036951Y-125263902D01*
X67875138Y-125058643D01*
X67684763Y-124879557D01*
X67491882Y-124745750D01*
X67473851Y-124733241D01*
X67473848Y-124733239D01*
X67470009Y-124730576D01*
X67458193Y-124724749D01*
X67239781Y-124617040D01*
X67239778Y-124617039D01*
X67235593Y-124614975D01*
X67214216Y-124608132D01*
X66991123Y-124536720D01*
X66986665Y-124535293D01*
X66728693Y-124493279D01*
X66614942Y-124491790D01*
X66472022Y-124489919D01*
X66472019Y-124489919D01*
X66467345Y-124489858D01*
X66392823Y-124500000D01*
X66231491Y-124521956D01*
X66161295Y-124511323D01*
X66107992Y-124464427D01*
X66088500Y-124397107D01*
X66088500Y-120545956D01*
X66108502Y-120477835D01*
X66125404Y-120456861D01*
X66566762Y-120015502D01*
X66629075Y-119981477D01*
X66672522Y-119979704D01*
X66681960Y-119980963D01*
X66734542Y-119987979D01*
X66741553Y-119987341D01*
X66741557Y-119987341D01*
X66891403Y-119973704D01*
X66891404Y-119973704D01*
X66898424Y-119973065D01*
X66921455Y-119965582D01*
X67048230Y-119924390D01*
X67048233Y-119924389D01*
X67054929Y-119922213D01*
X67196279Y-119837951D01*
X67315449Y-119724468D01*
X67319350Y-119718597D01*
X67402614Y-119593275D01*
X67402615Y-119593273D01*
X67406515Y-119587403D01*
X67464951Y-119433568D01*
X67484291Y-119295955D01*
X67487302Y-119274534D01*
X67487303Y-119274527D01*
X67487853Y-119270610D01*
X67488141Y-119250000D01*
X67469798Y-119086466D01*
X67465579Y-119074349D01*
X67425368Y-118958880D01*
X67415680Y-118931060D01*
X67409963Y-118921910D01*
X67332209Y-118797479D01*
X67328476Y-118791505D01*
X67234289Y-118696658D01*
X67217486Y-118679737D01*
X67217482Y-118679734D01*
X67212522Y-118674739D01*
X67073580Y-118586563D01*
X67003532Y-118561620D01*
X66925189Y-118533723D01*
X66925187Y-118533722D01*
X66918555Y-118531361D01*
X66911567Y-118530528D01*
X66911564Y-118530527D01*
X66769184Y-118513550D01*
X66703910Y-118485623D01*
X66670470Y-118442876D01*
X66667998Y-118437716D01*
X66665680Y-118431060D01*
X66578476Y-118291505D01*
X66508427Y-118220965D01*
X66467486Y-118179737D01*
X66467482Y-118179734D01*
X66462522Y-118174739D01*
X66323580Y-118086563D01*
X66262015Y-118064641D01*
X66204552Y-118022947D01*
X66185295Y-117987387D01*
X66165680Y-117931060D01*
X66140725Y-117891123D01*
X66082209Y-117797479D01*
X66078476Y-117791505D01*
X66007332Y-117719863D01*
X65967486Y-117679737D01*
X65967482Y-117679734D01*
X65962522Y-117674739D01*
X65823580Y-117586563D01*
X65758421Y-117563361D01*
X65675189Y-117533723D01*
X65675187Y-117533722D01*
X65668555Y-117531361D01*
X65661569Y-117530528D01*
X65661565Y-117530527D01*
X65547071Y-117516875D01*
X65505153Y-117511877D01*
X65498150Y-117512613D01*
X65498149Y-117512613D01*
X65454935Y-117517155D01*
X65341495Y-117529078D01*
X65334827Y-117531348D01*
X65192382Y-117579840D01*
X65192379Y-117579841D01*
X65185715Y-117582110D01*
X65045555Y-117668337D01*
X65021902Y-117691500D01*
X64975721Y-117736724D01*
X64927982Y-117783473D01*
X64838838Y-117921797D01*
X64836427Y-117928420D01*
X64836426Y-117928423D01*
X64823860Y-117962949D01*
X64782556Y-118076432D01*
X64781673Y-118083422D01*
X64781672Y-118083426D01*
X64779468Y-118100875D01*
X64751086Y-118165952D01*
X64743557Y-118174178D01*
X64006982Y-118910753D01*
X63994591Y-118921620D01*
X63970277Y-118940277D01*
X63875946Y-119063211D01*
X63872786Y-119070841D01*
X63872785Y-119070842D01*
X63869070Y-119079812D01*
X63862211Y-119096371D01*
X63816647Y-119206370D01*
X63815569Y-119214557D01*
X63815569Y-119214558D01*
X63813075Y-119233500D01*
X63796422Y-119360000D01*
X63797500Y-119368188D01*
X63800422Y-119390384D01*
X63801500Y-119406830D01*
X63801500Y-131304929D01*
X63781498Y-131373050D01*
X63764595Y-131394024D01*
X55584024Y-139574595D01*
X55521712Y-139608621D01*
X55494929Y-139611500D01*
X54706711Y-139611500D01*
X54638590Y-139591498D01*
X54592097Y-139537842D01*
X54587188Y-139525377D01*
X54556370Y-139433007D01*
X54556369Y-139433005D01*
X54554050Y-139426054D01*
X54460978Y-139275652D01*
X54335803Y-139150695D01*
X54329572Y-139146854D01*
X54191468Y-139061725D01*
X54191466Y-139061724D01*
X54185238Y-139057885D01*
X54077063Y-139022005D01*
X54023889Y-139004368D01*
X54023887Y-139004368D01*
X54017361Y-139002203D01*
X54010525Y-139001503D01*
X54010522Y-139001502D01*
X53967469Y-138997091D01*
X53912900Y-138991500D01*
X53287100Y-138991500D01*
X53283854Y-138991837D01*
X53283850Y-138991837D01*
X53188192Y-139001762D01*
X53188188Y-139001763D01*
X53181334Y-139002474D01*
X53174798Y-139004655D01*
X53174796Y-139004655D01*
X53115047Y-139024589D01*
X53013554Y-139058450D01*
X52863152Y-139151522D01*
X52857979Y-139156704D01*
X52776362Y-139238463D01*
X52714079Y-139272542D01*
X52643259Y-139267539D01*
X52598171Y-139238618D01*
X52515671Y-139156261D01*
X52504260Y-139147249D01*
X52366257Y-139062184D01*
X52353076Y-139056037D01*
X52198790Y-139004862D01*
X52185414Y-139001995D01*
X52091062Y-138992328D01*
X52084645Y-138992000D01*
X52047115Y-138992000D01*
X52031876Y-138996475D01*
X52030671Y-138997865D01*
X52029000Y-139005548D01*
X52029000Y-140328000D01*
X52008998Y-140396121D01*
X51955342Y-140442614D01*
X51903000Y-140454000D01*
X51647000Y-140454000D01*
X51578879Y-140433998D01*
X51532386Y-140380342D01*
X51521000Y-140328000D01*
X51521000Y-139010116D01*
X51516525Y-138994877D01*
X51515135Y-138993672D01*
X51507452Y-138992001D01*
X51465405Y-138992001D01*
X51458886Y-138992338D01*
X51363294Y-139002257D01*
X51349900Y-139005149D01*
X51299376Y-139022005D01*
X51228427Y-139024589D01*
X51167343Y-138988405D01*
X51135518Y-138924941D01*
X51133500Y-138902481D01*
X51133500Y-120889594D01*
X51153502Y-120821473D01*
X51170405Y-120800499D01*
X51845270Y-120125634D01*
X51907582Y-120091608D01*
X51934365Y-120088729D01*
X52170519Y-120088729D01*
X52181778Y-120089233D01*
X52231373Y-120093682D01*
X52233795Y-120093712D01*
X52233802Y-120093712D01*
X52237116Y-120093752D01*
X52243715Y-120093833D01*
X52280007Y-120091471D01*
X52320408Y-120088841D01*
X52320418Y-120088840D01*
X52322829Y-120088683D01*
X52326840Y-120088109D01*
X52460161Y-120069016D01*
X52460167Y-120069015D01*
X52464606Y-120068379D01*
X52468911Y-120067120D01*
X52468916Y-120067119D01*
X52600108Y-120028755D01*
X52604410Y-120027497D01*
X52734789Y-119968217D01*
X52738560Y-119965805D01*
X52738568Y-119965801D01*
X52853721Y-119892157D01*
X52853722Y-119892156D01*
X52857497Y-119889742D01*
X52965998Y-119796252D01*
X53061750Y-119686489D01*
X53139650Y-119566304D01*
X53200748Y-119434076D01*
X53241784Y-119296858D01*
X53245415Y-119272565D01*
X53262650Y-119157235D01*
X53262650Y-119157232D01*
X53263312Y-119152804D01*
X53263859Y-119063211D01*
X53264160Y-119014055D01*
X53264160Y-119014050D01*
X53264187Y-119009583D01*
X53263852Y-119007139D01*
X53263729Y-119003344D01*
X53263729Y-118921910D01*
X53283731Y-118853789D01*
X53337387Y-118807296D01*
X53407661Y-118797192D01*
X53472241Y-118826686D01*
X53497505Y-118856639D01*
X53563361Y-118965381D01*
X53684619Y-119086639D01*
X53831301Y-119175472D01*
X53838548Y-119177743D01*
X53838550Y-119177744D01*
X53904836Y-119198517D01*
X53994938Y-119226753D01*
X54068365Y-119233500D01*
X54071263Y-119233500D01*
X54400860Y-119233499D01*
X54731634Y-119233499D01*
X54734492Y-119233236D01*
X54734501Y-119233236D01*
X54770004Y-119229974D01*
X54805062Y-119226753D01*
X54843976Y-119214558D01*
X54961450Y-119177744D01*
X54961452Y-119177743D01*
X54968699Y-119175472D01*
X55115381Y-119086639D01*
X55206615Y-118995405D01*
X55268927Y-118961379D01*
X55295710Y-118958500D01*
X55610406Y-118958500D01*
X55678527Y-118978502D01*
X55699501Y-118995405D01*
X56079595Y-119375499D01*
X56113621Y-119437811D01*
X56116500Y-119464594D01*
X56116500Y-127591791D01*
X56096411Y-127660046D01*
X56088838Y-127671797D01*
X56086427Y-127678420D01*
X56086426Y-127678423D01*
X56034966Y-127819809D01*
X56034965Y-127819814D01*
X56032556Y-127826432D01*
X56011931Y-127989694D01*
X56027989Y-128153468D01*
X56079932Y-128309615D01*
X56083581Y-128315640D01*
X56157962Y-128438456D01*
X56165179Y-128450373D01*
X56170070Y-128455438D01*
X56170071Y-128455439D01*
X56188447Y-128474468D01*
X56279491Y-128568747D01*
X56417189Y-128658854D01*
X56571428Y-128716215D01*
X56578409Y-128717146D01*
X56578411Y-128717147D01*
X56727561Y-128737048D01*
X56727565Y-128737048D01*
X56734542Y-128737979D01*
X56741553Y-128737341D01*
X56741557Y-128737341D01*
X56891403Y-128723704D01*
X56891404Y-128723704D01*
X56898424Y-128723065D01*
X56927062Y-128713760D01*
X57048230Y-128674390D01*
X57048233Y-128674389D01*
X57054929Y-128672213D01*
X57196279Y-128587951D01*
X57315449Y-128474468D01*
X57320388Y-128467035D01*
X57323697Y-128462053D01*
X57378054Y-128416382D01*
X57417226Y-128406298D01*
X57483310Y-128400284D01*
X57483311Y-128400284D01*
X57490330Y-128399645D01*
X57513361Y-128392162D01*
X57640136Y-128350970D01*
X57640139Y-128350969D01*
X57646835Y-128348793D01*
X57788185Y-128264531D01*
X57907355Y-128151048D01*
X57994780Y-128019463D01*
X58049137Y-127973794D01*
X58060790Y-127969359D01*
X58144773Y-127942071D01*
X58144775Y-127942070D01*
X58151469Y-127939895D01*
X58292819Y-127855633D01*
X58411989Y-127742150D01*
X58453877Y-127679104D01*
X58499154Y-127610957D01*
X58499155Y-127610955D01*
X58503055Y-127605085D01*
X58561491Y-127451250D01*
X58572796Y-127370809D01*
X58583842Y-127292216D01*
X58583843Y-127292209D01*
X58584393Y-127288292D01*
X58584681Y-127267682D01*
X58566338Y-127104148D01*
X58512220Y-126948742D01*
X58486639Y-126907803D01*
X58428749Y-126815161D01*
X58425016Y-126809187D01*
X58413309Y-126797398D01*
X58320094Y-126703530D01*
X58286287Y-126641099D01*
X58283500Y-126614746D01*
X58283500Y-115835704D01*
X58303502Y-115767583D01*
X58357158Y-115721090D01*
X58370561Y-115715872D01*
X58430127Y-115696518D01*
X58498230Y-115674390D01*
X58498233Y-115674389D01*
X58504929Y-115672213D01*
X58646279Y-115587951D01*
X58765449Y-115474468D01*
X58769350Y-115468597D01*
X58852614Y-115343275D01*
X58852615Y-115343273D01*
X58856515Y-115337403D01*
X58914951Y-115183568D01*
X58937853Y-115020610D01*
X58938141Y-115000000D01*
X58919798Y-114836466D01*
X58913968Y-114819723D01*
X58867998Y-114687717D01*
X58865680Y-114681060D01*
X58855739Y-114665150D01*
X58782209Y-114547479D01*
X58778476Y-114541505D01*
X58680093Y-114442433D01*
X58646286Y-114380002D01*
X58643499Y-114353649D01*
X58643500Y-109246732D01*
X58643500Y-106528918D01*
X64644417Y-106528918D01*
X64660182Y-106802320D01*
X64661007Y-106806525D01*
X64661008Y-106806533D01*
X64671627Y-106860657D01*
X64712905Y-107071053D01*
X64714292Y-107075103D01*
X64714293Y-107075108D01*
X64788381Y-107291500D01*
X64801612Y-107330144D01*
X64825552Y-107377744D01*
X64913845Y-107553295D01*
X64924660Y-107574799D01*
X64927086Y-107578328D01*
X64927089Y-107578334D01*
X65039166Y-107741405D01*
X65079774Y-107800490D01*
X65264082Y-108003043D01*
X65267377Y-108005798D01*
X65267378Y-108005799D01*
X65311882Y-108043010D01*
X65474175Y-108178707D01*
X65477816Y-108180991D01*
X65702524Y-108321951D01*
X65702528Y-108321953D01*
X65706164Y-108324234D01*
X65774044Y-108354883D01*
X65951845Y-108435164D01*
X65951849Y-108435166D01*
X65955757Y-108436930D01*
X65959877Y-108438150D01*
X65959876Y-108438150D01*
X66214223Y-108513491D01*
X66214227Y-108513492D01*
X66218336Y-108514709D01*
X66222570Y-108515357D01*
X66222575Y-108515358D01*
X66484798Y-108555483D01*
X66484800Y-108555483D01*
X66489040Y-108556132D01*
X66628412Y-108558322D01*
X66758571Y-108560367D01*
X66758577Y-108560367D01*
X66762862Y-108560434D01*
X67034735Y-108527534D01*
X67299627Y-108458041D01*
X67303587Y-108456401D01*
X67303592Y-108456399D01*
X67426131Y-108405641D01*
X67552636Y-108353241D01*
X67789082Y-108215073D01*
X68004589Y-108046094D01*
X68046309Y-108003043D01*
X68154591Y-107891304D01*
X68195169Y-107849431D01*
X68197702Y-107845983D01*
X68197706Y-107845978D01*
X68354757Y-107632178D01*
X68357295Y-107628723D01*
X68359341Y-107624955D01*
X68485918Y-107391830D01*
X68485919Y-107391828D01*
X68487968Y-107388054D01*
X68572109Y-107165381D01*
X68583251Y-107135895D01*
X68583252Y-107135891D01*
X68584769Y-107131877D01*
X68645907Y-106864933D01*
X68647039Y-106852257D01*
X68670031Y-106594627D01*
X68670031Y-106594625D01*
X68670251Y-106592161D01*
X68670693Y-106550000D01*
X68652067Y-106276778D01*
X68636499Y-106201601D01*
X68597401Y-106012809D01*
X68596532Y-106008612D01*
X68505117Y-105750465D01*
X68379513Y-105507112D01*
X68369540Y-105492921D01*
X68271409Y-105353295D01*
X68222045Y-105283057D01*
X68127457Y-105181268D01*
X68038546Y-105085588D01*
X68038543Y-105085585D01*
X68035625Y-105082445D01*
X68032310Y-105079731D01*
X68032306Y-105079728D01*
X67895790Y-104967991D01*
X67823705Y-104908990D01*
X67654587Y-104805355D01*
X67593866Y-104768145D01*
X67593865Y-104768145D01*
X67590204Y-104765901D01*
X67586268Y-104764173D01*
X67366354Y-104667637D01*
X67312019Y-104621941D01*
X67291000Y-104552264D01*
X67291000Y-102736268D01*
X67291527Y-102725085D01*
X67293202Y-102717592D01*
X67291062Y-102649501D01*
X67291000Y-102645544D01*
X67291000Y-102617644D01*
X67290496Y-102613653D01*
X67289563Y-102601811D01*
X67288423Y-102565536D01*
X67288174Y-102557611D01*
X67282521Y-102538152D01*
X67278512Y-102518793D01*
X67278346Y-102517483D01*
X67275974Y-102498703D01*
X67273058Y-102491337D01*
X67273056Y-102491331D01*
X67259700Y-102457598D01*
X67255855Y-102446368D01*
X67245730Y-102411517D01*
X67245730Y-102411516D01*
X67243519Y-102403907D01*
X67238461Y-102395354D01*
X67237329Y-102393439D01*
X67222854Y-102350178D01*
X67222145Y-102350339D01*
X67220583Y-102343465D01*
X67219798Y-102336466D01*
X67165680Y-102181060D01*
X67154621Y-102163361D01*
X67082209Y-102047479D01*
X67078476Y-102041505D01*
X66982290Y-101944645D01*
X66967486Y-101929737D01*
X66967482Y-101929734D01*
X66962522Y-101924739D01*
X66823580Y-101836563D01*
X66767211Y-101816491D01*
X66675189Y-101783723D01*
X66675187Y-101783722D01*
X66668555Y-101781361D01*
X66661569Y-101780528D01*
X66661565Y-101780527D01*
X66547071Y-101766875D01*
X66505153Y-101761877D01*
X66498150Y-101762613D01*
X66498149Y-101762613D01*
X66454935Y-101767155D01*
X66341495Y-101779078D01*
X66334827Y-101781348D01*
X66192382Y-101829840D01*
X66192379Y-101829841D01*
X66185715Y-101832110D01*
X66045555Y-101918337D01*
X66018690Y-101944645D01*
X65951028Y-102010905D01*
X65927982Y-102033473D01*
X65838838Y-102171797D01*
X65836427Y-102178420D01*
X65836426Y-102178423D01*
X65784966Y-102319809D01*
X65784965Y-102319814D01*
X65782556Y-102326432D01*
X65761931Y-102489694D01*
X65777989Y-102653468D01*
X65829932Y-102809615D01*
X65833581Y-102815640D01*
X65905109Y-102933745D01*
X65915179Y-102950373D01*
X65920070Y-102955438D01*
X65920071Y-102955439D01*
X65988637Y-103026441D01*
X66021569Y-103089338D01*
X66024000Y-103113968D01*
X66024000Y-104553362D01*
X66003998Y-104621483D01*
X65947435Y-104669259D01*
X65747482Y-104754546D01*
X65747478Y-104754548D01*
X65743530Y-104756232D01*
X65661451Y-104805355D01*
X65512225Y-104894664D01*
X65512221Y-104894667D01*
X65508543Y-104896868D01*
X65294818Y-105068094D01*
X65220667Y-105146233D01*
X65110053Y-105262796D01*
X65106308Y-105266742D01*
X64946502Y-105489136D01*
X64818357Y-105731161D01*
X64816885Y-105735184D01*
X64816883Y-105735188D01*
X64809814Y-105754506D01*
X64724243Y-105988337D01*
X64665904Y-106255907D01*
X64644417Y-106528918D01*
X58643500Y-106528918D01*
X58643500Y-104092714D01*
X58644578Y-104076268D01*
X58647500Y-104054072D01*
X58648578Y-104045884D01*
X58628353Y-103892255D01*
X58597393Y-103817511D01*
X58589804Y-103746923D01*
X58608853Y-103699569D01*
X58686015Y-103583431D01*
X58744451Y-103429596D01*
X58767353Y-103266638D01*
X58767515Y-103255062D01*
X58767586Y-103249990D01*
X58767586Y-103249984D01*
X58767641Y-103246028D01*
X58749298Y-103082494D01*
X58695180Y-102927088D01*
X58682207Y-102906326D01*
X58641146Y-102840616D01*
X58623601Y-102779431D01*
X58623078Y-102779500D01*
X58622617Y-102775997D01*
X58622617Y-102775996D01*
X58602852Y-102625870D01*
X58582804Y-102577470D01*
X58543554Y-102482711D01*
X58474538Y-102392768D01*
X58448937Y-102326548D01*
X58448500Y-102316064D01*
X58448500Y-100754321D01*
X58717158Y-100754321D01*
X58717337Y-100757782D01*
X58726804Y-100849021D01*
X58729697Y-100862417D01*
X58778830Y-101009687D01*
X58785004Y-101022866D01*
X58866470Y-101154514D01*
X58875506Y-101165915D01*
X58985080Y-101275298D01*
X58996491Y-101284310D01*
X59128291Y-101365553D01*
X59141468Y-101371697D01*
X59288843Y-101420579D01*
X59302210Y-101423445D01*
X59392270Y-101432672D01*
X59398685Y-101433000D01*
X59427885Y-101433000D01*
X59443124Y-101428525D01*
X59444329Y-101427135D01*
X59446000Y-101419452D01*
X59446000Y-100759615D01*
X59441525Y-100744376D01*
X59440135Y-100743171D01*
X59432452Y-100741500D01*
X58735115Y-100741500D01*
X58719876Y-100745975D01*
X58718671Y-100747365D01*
X58717158Y-100754321D01*
X58448500Y-100754321D01*
X58448500Y-99179572D01*
X58716500Y-99179572D01*
X58727022Y-99280982D01*
X58780692Y-99441849D01*
X58869929Y-99586055D01*
X58875107Y-99591224D01*
X58895159Y-99611241D01*
X58929238Y-99673523D01*
X58924235Y-99744343D01*
X58895314Y-99789432D01*
X58874702Y-99810080D01*
X58865690Y-99821491D01*
X58784447Y-99953291D01*
X58778303Y-99966468D01*
X58729421Y-100113843D01*
X58726555Y-100127210D01*
X58717386Y-100216700D01*
X58721475Y-100230624D01*
X58722865Y-100231829D01*
X58730548Y-100233500D01*
X59828000Y-100233500D01*
X59896121Y-100253502D01*
X59942614Y-100307158D01*
X59954000Y-100359500D01*
X59954000Y-101414885D01*
X59958475Y-101430124D01*
X59959865Y-101431329D01*
X59967548Y-101433000D01*
X60001266Y-101433000D01*
X60007782Y-101432663D01*
X60099021Y-101423196D01*
X60112417Y-101420303D01*
X60259687Y-101371170D01*
X60272866Y-101364996D01*
X60404514Y-101283530D01*
X60415915Y-101274494D01*
X60525298Y-101164920D01*
X60534310Y-101153509D01*
X60615553Y-101021709D01*
X60621697Y-101008532D01*
X60671801Y-100857471D01*
X60712231Y-100799111D01*
X60777795Y-100771874D01*
X60847677Y-100784407D01*
X60899689Y-100832732D01*
X60916866Y-100885610D01*
X60923247Y-100955062D01*
X60925246Y-100961440D01*
X60925246Y-100961441D01*
X60964427Y-101086466D01*
X60974528Y-101118699D01*
X61002520Y-101164920D01*
X61048276Y-101240472D01*
X61066500Y-101305743D01*
X61066500Y-101654876D01*
X61046498Y-101722997D01*
X61019456Y-101753069D01*
X60990975Y-101775968D01*
X60863846Y-101927474D01*
X60860879Y-101932872D01*
X60860875Y-101932877D01*
X60805573Y-102033473D01*
X60768567Y-102100787D01*
X60766706Y-102106654D01*
X60766705Y-102106656D01*
X60740991Y-102187717D01*
X60708765Y-102289306D01*
X60686719Y-102485851D01*
X60687235Y-102491995D01*
X60702045Y-102668366D01*
X60703268Y-102682934D01*
X60704967Y-102688858D01*
X60748483Y-102840616D01*
X60757783Y-102873050D01*
X60760602Y-102878535D01*
X60826463Y-103006685D01*
X60848187Y-103048956D01*
X60971035Y-103203953D01*
X60975728Y-103207947D01*
X60975729Y-103207948D01*
X61049301Y-103270562D01*
X61121650Y-103332136D01*
X61294294Y-103428624D01*
X61482392Y-103489740D01*
X61678777Y-103513158D01*
X61684912Y-103512686D01*
X61684914Y-103512686D01*
X61869830Y-103498457D01*
X61869834Y-103498456D01*
X61875972Y-103497984D01*
X62066463Y-103444798D01*
X62071967Y-103442018D01*
X62071969Y-103442017D01*
X62237495Y-103358404D01*
X62237497Y-103358403D01*
X62242996Y-103355625D01*
X62398847Y-103233861D01*
X62528078Y-103084145D01*
X62625769Y-102912179D01*
X62688197Y-102724513D01*
X62712985Y-102528295D01*
X62713380Y-102500000D01*
X62694080Y-102303167D01*
X62636916Y-102113831D01*
X62544066Y-101939204D01*
X62460354Y-101836563D01*
X62422960Y-101790713D01*
X62422957Y-101790710D01*
X62419065Y-101785938D01*
X62414316Y-101782009D01*
X62379184Y-101752945D01*
X62339446Y-101694111D01*
X62333500Y-101655861D01*
X62333500Y-101610397D01*
X62353502Y-101542276D01*
X62407158Y-101495783D01*
X62421820Y-101490163D01*
X62461452Y-101477743D01*
X62461451Y-101477743D01*
X62468699Y-101475472D01*
X62615381Y-101386639D01*
X62736639Y-101265381D01*
X62825472Y-101118699D01*
X62876753Y-100955062D01*
X62883500Y-100881635D01*
X62883499Y-100368366D01*
X62883023Y-100363176D01*
X62878863Y-100317904D01*
X62876753Y-100294938D01*
X62874754Y-100288559D01*
X62828090Y-100139654D01*
X65433118Y-100139654D01*
X65440173Y-100149627D01*
X65471179Y-100175551D01*
X65478098Y-100180579D01*
X65702772Y-100321515D01*
X65710307Y-100325556D01*
X65952020Y-100434694D01*
X65960051Y-100437680D01*
X66214332Y-100513002D01*
X66222684Y-100514869D01*
X66484840Y-100554984D01*
X66493374Y-100555700D01*
X66758545Y-100559867D01*
X66767096Y-100559418D01*
X67030383Y-100527557D01*
X67038784Y-100525955D01*
X67295324Y-100458653D01*
X67303426Y-100455926D01*
X67548449Y-100354434D01*
X67556117Y-100350628D01*
X67785098Y-100216822D01*
X67792179Y-100212009D01*
X67872155Y-100149301D01*
X67880625Y-100137442D01*
X67874108Y-100125818D01*
X66670312Y-98922022D01*
X66656368Y-98914408D01*
X66654535Y-98914539D01*
X66647920Y-98918790D01*
X65440410Y-100126300D01*
X65433118Y-100139654D01*
X62828090Y-100139654D01*
X62827744Y-100138550D01*
X62827743Y-100138548D01*
X62825472Y-100131301D01*
X62736639Y-99984619D01*
X62641115Y-99889095D01*
X62607089Y-99826783D01*
X62612154Y-99755968D01*
X62641115Y-99710905D01*
X62736639Y-99615381D01*
X62825472Y-99468699D01*
X62833887Y-99441849D01*
X62852069Y-99383827D01*
X62876753Y-99305062D01*
X62883500Y-99231635D01*
X62883499Y-98718366D01*
X62876753Y-98644938D01*
X62859435Y-98589677D01*
X62841738Y-98533204D01*
X64645165Y-98533204D01*
X64660432Y-98797969D01*
X64661505Y-98806470D01*
X64712565Y-99066722D01*
X64714776Y-99074974D01*
X64800684Y-99325894D01*
X64803999Y-99333779D01*
X64923164Y-99570713D01*
X64927520Y-99578079D01*
X65056847Y-99766250D01*
X65067101Y-99774594D01*
X65080842Y-99767448D01*
X66285478Y-98562812D01*
X66291856Y-98551132D01*
X67021908Y-98551132D01*
X67022039Y-98552965D01*
X67026290Y-98559580D01*
X68233230Y-99766520D01*
X68245439Y-99773187D01*
X68256939Y-99764497D01*
X68354331Y-99631913D01*
X68358918Y-99624685D01*
X68485462Y-99391621D01*
X68489030Y-99383827D01*
X68582771Y-99135750D01*
X68585248Y-99127544D01*
X68644454Y-98869038D01*
X68645794Y-98860577D01*
X68669531Y-98594616D01*
X68669777Y-98589677D01*
X68670166Y-98552485D01*
X68670023Y-98547519D01*
X68651862Y-98281123D01*
X68650701Y-98272649D01*
X68596919Y-98012944D01*
X68594620Y-98004709D01*
X68506088Y-97754705D01*
X68502691Y-97746854D01*
X68381050Y-97511178D01*
X68376622Y-97503866D01*
X68257531Y-97334417D01*
X68247009Y-97326037D01*
X68233621Y-97333089D01*
X67029522Y-98537188D01*
X67021908Y-98551132D01*
X66291856Y-98551132D01*
X66293092Y-98548868D01*
X66292961Y-98547035D01*
X66288710Y-98540420D01*
X65081314Y-97333024D01*
X65069304Y-97326466D01*
X65057564Y-97335434D01*
X64949435Y-97485911D01*
X64944918Y-97493196D01*
X64820825Y-97727567D01*
X64817339Y-97735395D01*
X64726200Y-97984446D01*
X64723811Y-97992670D01*
X64667312Y-98251795D01*
X64666063Y-98260250D01*
X64645254Y-98524653D01*
X64645165Y-98533204D01*
X62841738Y-98533204D01*
X62827744Y-98488550D01*
X62827743Y-98488548D01*
X62825472Y-98481301D01*
X62736639Y-98334619D01*
X62615381Y-98213361D01*
X62468699Y-98124528D01*
X62461452Y-98122257D01*
X62461450Y-98122256D01*
X62376821Y-98095735D01*
X62317799Y-98056277D01*
X62289479Y-97991174D01*
X62288500Y-97975501D01*
X62288500Y-96962500D01*
X65434084Y-96962500D01*
X65440480Y-96973770D01*
X66644688Y-98177978D01*
X66658632Y-98185592D01*
X66660465Y-98185461D01*
X66667080Y-98181210D01*
X67874104Y-96974186D01*
X67881295Y-96961017D01*
X67873973Y-96950780D01*
X67826733Y-96912115D01*
X67819761Y-96907160D01*
X67593622Y-96768582D01*
X67586052Y-96764624D01*
X67343204Y-96658022D01*
X67335144Y-96655120D01*
X67080092Y-96582467D01*
X67071714Y-96580685D01*
X66809156Y-96543318D01*
X66800611Y-96542691D01*
X66535408Y-96541302D01*
X66526874Y-96541839D01*
X66263933Y-96576456D01*
X66255535Y-96578149D01*
X65999738Y-96648127D01*
X65991643Y-96650946D01*
X65747699Y-96754997D01*
X65740077Y-96758881D01*
X65512513Y-96895075D01*
X65505481Y-96899962D01*
X65442553Y-96950377D01*
X65434084Y-96962500D01*
X62288500Y-96962500D01*
X62288500Y-96681528D01*
X62308502Y-96613407D01*
X62336927Y-96582238D01*
X62393991Y-96537655D01*
X62393992Y-96537654D01*
X62398847Y-96533861D01*
X62528078Y-96384145D01*
X62625769Y-96212179D01*
X62688197Y-96024513D01*
X62712985Y-95828295D01*
X62713188Y-95813753D01*
X62713331Y-95803523D01*
X62713331Y-95803520D01*
X62713380Y-95800000D01*
X62694080Y-95603167D01*
X62636916Y-95413831D01*
X62544066Y-95239204D01*
X62468318Y-95146328D01*
X62422960Y-95090713D01*
X62422957Y-95090710D01*
X62419065Y-95085938D01*
X62414316Y-95082009D01*
X62271425Y-94963799D01*
X62271421Y-94963797D01*
X62266675Y-94959870D01*
X62092701Y-94865802D01*
X61903768Y-94807318D01*
X61897643Y-94806674D01*
X61897642Y-94806674D01*
X61713204Y-94787289D01*
X61713202Y-94787289D01*
X61707075Y-94786645D01*
X61642476Y-94792524D01*
X61516251Y-94804011D01*
X61516248Y-94804012D01*
X61510112Y-94804570D01*
X61504206Y-94806308D01*
X61504202Y-94806309D01*
X61428484Y-94828594D01*
X61320381Y-94860410D01*
X61314923Y-94863263D01*
X61314919Y-94863265D01*
X61265590Y-94889054D01*
X61145110Y-94952040D01*
X60990975Y-95075968D01*
X60863846Y-95227474D01*
X60860879Y-95232872D01*
X60860875Y-95232877D01*
X60813695Y-95318699D01*
X60768567Y-95400787D01*
X60766706Y-95406654D01*
X60766705Y-95406656D01*
X60761866Y-95421910D01*
X60708765Y-95589306D01*
X60686719Y-95785851D01*
X60703268Y-95982934D01*
X60704967Y-95988858D01*
X60755849Y-96166304D01*
X60757783Y-96173050D01*
X60848187Y-96348956D01*
X60971035Y-96503953D01*
X60975728Y-96507947D01*
X60975729Y-96507948D01*
X61067163Y-96585764D01*
X61106076Y-96645147D01*
X61111500Y-96681718D01*
X61111500Y-98234290D01*
X61091498Y-98302411D01*
X61074595Y-98323385D01*
X61063361Y-98334619D01*
X61060772Y-98338893D01*
X61003902Y-98379512D01*
X60962523Y-98386500D01*
X60691584Y-98386500D01*
X60623463Y-98366498D01*
X60584440Y-98326803D01*
X60533925Y-98245171D01*
X60533919Y-98245164D01*
X60530071Y-98238945D01*
X60410053Y-98119136D01*
X60403016Y-98114798D01*
X60335607Y-98073247D01*
X60265692Y-98030151D01*
X60258743Y-98027846D01*
X60111262Y-97978928D01*
X60111260Y-97978928D01*
X60104731Y-97976762D01*
X60004572Y-97966500D01*
X59395428Y-97966500D01*
X59392182Y-97966837D01*
X59392178Y-97966837D01*
X59358397Y-97970342D01*
X59294018Y-97977022D01*
X59133151Y-98030692D01*
X58988945Y-98119929D01*
X58869136Y-98239947D01*
X58780151Y-98384308D01*
X58777846Y-98391256D01*
X58777846Y-98391257D01*
X58731029Y-98532406D01*
X58726762Y-98545269D01*
X58716500Y-98645428D01*
X58716500Y-99179572D01*
X58448500Y-99179572D01*
X58448500Y-95288597D01*
X58449578Y-95272151D01*
X58452500Y-95249955D01*
X58453578Y-95241767D01*
X58433353Y-95088137D01*
X58390762Y-94985316D01*
X58374054Y-94944978D01*
X58279723Y-94822044D01*
X58255406Y-94803385D01*
X58243022Y-94792524D01*
X58095405Y-94644908D01*
X58061380Y-94582596D01*
X58058500Y-94555812D01*
X58058500Y-85754572D01*
X58616500Y-85754572D01*
X58627022Y-85855982D01*
X58680692Y-86016849D01*
X58769929Y-86161055D01*
X58889947Y-86280864D01*
X59034308Y-86369849D01*
X59041256Y-86372154D01*
X59041257Y-86372154D01*
X59188738Y-86421072D01*
X59188740Y-86421072D01*
X59195269Y-86423238D01*
X59295428Y-86433500D01*
X59904572Y-86433500D01*
X59907818Y-86433163D01*
X59907822Y-86433163D01*
X59941603Y-86429658D01*
X60005982Y-86422978D01*
X60166849Y-86369308D01*
X60311055Y-86280071D01*
X60430864Y-86160053D01*
X60445762Y-86135884D01*
X60498534Y-86088391D01*
X60553022Y-86076000D01*
X60853373Y-86076000D01*
X60921494Y-86096002D01*
X60953502Y-86128873D01*
X60954738Y-86127904D01*
X60959424Y-86133880D01*
X60963361Y-86140381D01*
X60974595Y-86151615D01*
X61008621Y-86213927D01*
X61011500Y-86240710D01*
X61011500Y-87618695D01*
X60991498Y-87686816D01*
X60964456Y-87716887D01*
X60890975Y-87775968D01*
X60763846Y-87927474D01*
X60760879Y-87932872D01*
X60760875Y-87932877D01*
X60700258Y-88043140D01*
X60668567Y-88100787D01*
X60666706Y-88106654D01*
X60666705Y-88106656D01*
X60654195Y-88146094D01*
X60608765Y-88289306D01*
X60586719Y-88485851D01*
X60587235Y-88491995D01*
X60602623Y-88675248D01*
X60603268Y-88682934D01*
X60615191Y-88724513D01*
X60652334Y-88854046D01*
X60657783Y-88873050D01*
X60748187Y-89048956D01*
X60871035Y-89203953D01*
X61021650Y-89332136D01*
X61194294Y-89428624D01*
X61382392Y-89489740D01*
X61578777Y-89513158D01*
X61584912Y-89512686D01*
X61584914Y-89512686D01*
X61769830Y-89498457D01*
X61769834Y-89498456D01*
X61775972Y-89497984D01*
X61966463Y-89444798D01*
X61971967Y-89442018D01*
X61971969Y-89442017D01*
X62137495Y-89358404D01*
X62137497Y-89358403D01*
X62142996Y-89355625D01*
X62298847Y-89233861D01*
X62428078Y-89084145D01*
X62525769Y-88912179D01*
X62588197Y-88724513D01*
X62612985Y-88528295D01*
X62613380Y-88500000D01*
X62594080Y-88303167D01*
X62536916Y-88113831D01*
X62444066Y-87939204D01*
X62319065Y-87785938D01*
X62314329Y-87782020D01*
X62314320Y-87782011D01*
X62234184Y-87715717D01*
X62194446Y-87656884D01*
X62188500Y-87618633D01*
X62188500Y-86499499D01*
X62208502Y-86431378D01*
X62262158Y-86384885D01*
X62276821Y-86379265D01*
X62361450Y-86352744D01*
X62361452Y-86352743D01*
X62368699Y-86350472D01*
X62515381Y-86261639D01*
X62636639Y-86140381D01*
X62725472Y-85993699D01*
X62776753Y-85830062D01*
X62783500Y-85756635D01*
X62783499Y-85243366D01*
X62776753Y-85169938D01*
X62725472Y-85006301D01*
X62636639Y-84859619D01*
X62541115Y-84764095D01*
X62507089Y-84701783D01*
X62512154Y-84630968D01*
X62541115Y-84585905D01*
X62636639Y-84490381D01*
X62725472Y-84343699D01*
X62776753Y-84180062D01*
X62783500Y-84106635D01*
X62783499Y-83593366D01*
X62776753Y-83519938D01*
X62736131Y-83390313D01*
X62727744Y-83363550D01*
X62727743Y-83363548D01*
X62725472Y-83356301D01*
X62636639Y-83209619D01*
X62515381Y-83088361D01*
X62368699Y-82999528D01*
X62322707Y-82985115D01*
X62305164Y-82979617D01*
X62246142Y-82940159D01*
X62217822Y-82875055D01*
X62229196Y-82804975D01*
X62265271Y-82760093D01*
X62293991Y-82737655D01*
X62293992Y-82737654D01*
X62298847Y-82733861D01*
X62428078Y-82584145D01*
X62525769Y-82412179D01*
X62588197Y-82224513D01*
X62612985Y-82028295D01*
X62613380Y-82000000D01*
X62594080Y-81803167D01*
X62536916Y-81613831D01*
X62444066Y-81439204D01*
X62319065Y-81285938D01*
X62314329Y-81282020D01*
X62314320Y-81282011D01*
X62234184Y-81215717D01*
X62194446Y-81156884D01*
X62188500Y-81118633D01*
X62188500Y-80582815D01*
X62209552Y-80513088D01*
X62252614Y-80448275D01*
X62252615Y-80448273D01*
X62256515Y-80442403D01*
X62314951Y-80288568D01*
X62324704Y-80219172D01*
X62337302Y-80129534D01*
X62337303Y-80129527D01*
X62337389Y-80128918D01*
X64644417Y-80128918D01*
X64660182Y-80402320D01*
X64661007Y-80406525D01*
X64661008Y-80406533D01*
X64675290Y-80479327D01*
X64712905Y-80671053D01*
X64714292Y-80675103D01*
X64714293Y-80675108D01*
X64735819Y-80737979D01*
X64801612Y-80930144D01*
X64803539Y-80933975D01*
X64913845Y-81153295D01*
X64924660Y-81174799D01*
X64927086Y-81178328D01*
X64927089Y-81178334D01*
X65004321Y-81290706D01*
X65079774Y-81400490D01*
X65264082Y-81603043D01*
X65474175Y-81778707D01*
X65477816Y-81780991D01*
X65702524Y-81921951D01*
X65702528Y-81921953D01*
X65706164Y-81924234D01*
X65792207Y-81963084D01*
X65951845Y-82035164D01*
X65951849Y-82035166D01*
X65955757Y-82036930D01*
X66011464Y-82053431D01*
X66214223Y-82113491D01*
X66214227Y-82113492D01*
X66218336Y-82114709D01*
X66222570Y-82115357D01*
X66222575Y-82115358D01*
X66484798Y-82155483D01*
X66484800Y-82155483D01*
X66489040Y-82156132D01*
X66628412Y-82158322D01*
X66758571Y-82160367D01*
X66758577Y-82160367D01*
X66762862Y-82160434D01*
X67034735Y-82127534D01*
X67299627Y-82058041D01*
X67303587Y-82056401D01*
X67303592Y-82056399D01*
X67459076Y-81991995D01*
X67552636Y-81953241D01*
X67789082Y-81815073D01*
X68004589Y-81646094D01*
X68046309Y-81603043D01*
X68192186Y-81452509D01*
X68195169Y-81449431D01*
X68197702Y-81445983D01*
X68197706Y-81445978D01*
X68354757Y-81232178D01*
X68357295Y-81228723D01*
X68384876Y-81177925D01*
X68485918Y-80991830D01*
X68485919Y-80991828D01*
X68487968Y-80988054D01*
X68536368Y-80859966D01*
X68583251Y-80735895D01*
X68583252Y-80735891D01*
X68584769Y-80731877D01*
X68617732Y-80587951D01*
X68644949Y-80469117D01*
X68644950Y-80469113D01*
X68645907Y-80464933D01*
X68646755Y-80455439D01*
X68670031Y-80194627D01*
X68670031Y-80194625D01*
X68670251Y-80192161D01*
X68670693Y-80150000D01*
X68668224Y-80113787D01*
X68652359Y-79881055D01*
X68652358Y-79881049D01*
X68652067Y-79876778D01*
X68650427Y-79868856D01*
X68604379Y-79646505D01*
X68596532Y-79608612D01*
X68505117Y-79350465D01*
X68379513Y-79107112D01*
X68369540Y-79092921D01*
X68237166Y-78904572D01*
X68222045Y-78883057D01*
X68151966Y-78807643D01*
X68038546Y-78685588D01*
X68038543Y-78685585D01*
X68035625Y-78682445D01*
X68032310Y-78679731D01*
X68032306Y-78679728D01*
X67827023Y-78511706D01*
X67823705Y-78508990D01*
X67590204Y-78365901D01*
X67586268Y-78364173D01*
X67343373Y-78257549D01*
X67343369Y-78257548D01*
X67339445Y-78255825D01*
X67076066Y-78180800D01*
X67071824Y-78180196D01*
X67071818Y-78180195D01*
X66871334Y-78151662D01*
X66804943Y-78142213D01*
X66661089Y-78141460D01*
X66535377Y-78140802D01*
X66535371Y-78140802D01*
X66531091Y-78140780D01*
X66526847Y-78141339D01*
X66526843Y-78141339D01*
X66407802Y-78157011D01*
X66259578Y-78176525D01*
X66255438Y-78177658D01*
X66255436Y-78177658D01*
X66191061Y-78195269D01*
X65995428Y-78248788D01*
X65991480Y-78250472D01*
X65747482Y-78354546D01*
X65747478Y-78354548D01*
X65743530Y-78356232D01*
X65723625Y-78368145D01*
X65512225Y-78494664D01*
X65512221Y-78494667D01*
X65508543Y-78496868D01*
X65294818Y-78668094D01*
X65106308Y-78866742D01*
X64946502Y-79089136D01*
X64818357Y-79331161D01*
X64816885Y-79335184D01*
X64816883Y-79335188D01*
X64729603Y-79573689D01*
X64724243Y-79588337D01*
X64665904Y-79855907D01*
X64644417Y-80128918D01*
X62337389Y-80128918D01*
X62337853Y-80125610D01*
X62338141Y-80105000D01*
X62319798Y-79941466D01*
X62313998Y-79924809D01*
X62290003Y-79855907D01*
X62265680Y-79786060D01*
X62252464Y-79764909D01*
X62182209Y-79652479D01*
X62178476Y-79646505D01*
X62118216Y-79585823D01*
X62067486Y-79534737D01*
X62067482Y-79534734D01*
X62062522Y-79529739D01*
X61923580Y-79441563D01*
X61874447Y-79424068D01*
X61775189Y-79388723D01*
X61775187Y-79388722D01*
X61768555Y-79386361D01*
X61761569Y-79385528D01*
X61761565Y-79385527D01*
X61647071Y-79371875D01*
X61605153Y-79366877D01*
X61598150Y-79367613D01*
X61598149Y-79367613D01*
X61554935Y-79372155D01*
X61441495Y-79384078D01*
X61434827Y-79386348D01*
X61292382Y-79434840D01*
X61292379Y-79434841D01*
X61285715Y-79437110D01*
X61145555Y-79523337D01*
X61096810Y-79571072D01*
X61062599Y-79604574D01*
X61027982Y-79638473D01*
X60938838Y-79776797D01*
X60936427Y-79783420D01*
X60936426Y-79783423D01*
X60884966Y-79924809D01*
X60884965Y-79924814D01*
X60882556Y-79931432D01*
X60861931Y-80094694D01*
X60877989Y-80258468D01*
X60929932Y-80414615D01*
X60989570Y-80513088D01*
X60993276Y-80519207D01*
X61011500Y-80584479D01*
X61011500Y-81118695D01*
X60991498Y-81186816D01*
X60964456Y-81216887D01*
X60890975Y-81275968D01*
X60763846Y-81427474D01*
X60760879Y-81432872D01*
X60760875Y-81432877D01*
X60682095Y-81576180D01*
X60668567Y-81600787D01*
X60666706Y-81606654D01*
X60666705Y-81606656D01*
X60655173Y-81643010D01*
X60608765Y-81789306D01*
X60586719Y-81985851D01*
X60587235Y-81991995D01*
X60601379Y-82160434D01*
X60603268Y-82182934D01*
X60657783Y-82373050D01*
X60748187Y-82548956D01*
X60871035Y-82703953D01*
X60937000Y-82760093D01*
X60967163Y-82785764D01*
X61006076Y-82845147D01*
X61011500Y-82881718D01*
X61011500Y-83109290D01*
X60991498Y-83177411D01*
X60974595Y-83198385D01*
X60963361Y-83209619D01*
X60874528Y-83356301D01*
X60872257Y-83363548D01*
X60872256Y-83363550D01*
X60863869Y-83390313D01*
X60823247Y-83519938D01*
X60821794Y-83535756D01*
X60795645Y-83601757D01*
X60737961Y-83643146D01*
X60667057Y-83646779D01*
X60605445Y-83611502D01*
X60573162Y-83550823D01*
X60570302Y-83537582D01*
X60521170Y-83390313D01*
X60514996Y-83377134D01*
X60433530Y-83245486D01*
X60424494Y-83234085D01*
X60314920Y-83124702D01*
X60303509Y-83115690D01*
X60171709Y-83034447D01*
X60158532Y-83028303D01*
X60011157Y-82979421D01*
X59997790Y-82976555D01*
X59907730Y-82967328D01*
X59901315Y-82967000D01*
X59872115Y-82967000D01*
X59856876Y-82971475D01*
X59855671Y-82972865D01*
X59854000Y-82980548D01*
X59854000Y-84040500D01*
X59833998Y-84108621D01*
X59780342Y-84155114D01*
X59728000Y-84166500D01*
X58635115Y-84166500D01*
X58619876Y-84170975D01*
X58618671Y-84172365D01*
X58617158Y-84179321D01*
X58617337Y-84182782D01*
X58626804Y-84274021D01*
X58629697Y-84287417D01*
X58678830Y-84434687D01*
X58685004Y-84447866D01*
X58766470Y-84579514D01*
X58775506Y-84590915D01*
X58795158Y-84610533D01*
X58829237Y-84672816D01*
X58824234Y-84743636D01*
X58795314Y-84788723D01*
X58769136Y-84814947D01*
X58680151Y-84959308D01*
X58677846Y-84966256D01*
X58677846Y-84966257D01*
X58662160Y-85013550D01*
X58626762Y-85120269D01*
X58616500Y-85220428D01*
X58616500Y-85754572D01*
X58058500Y-85754572D01*
X58058500Y-83641700D01*
X58617386Y-83641700D01*
X58621475Y-83655624D01*
X58622865Y-83656829D01*
X58630548Y-83658500D01*
X59327885Y-83658500D01*
X59343124Y-83654025D01*
X59344329Y-83652635D01*
X59346000Y-83644952D01*
X59346000Y-82985115D01*
X59341525Y-82969876D01*
X59340135Y-82968671D01*
X59332452Y-82967000D01*
X59298734Y-82967000D01*
X59292218Y-82967337D01*
X59200979Y-82976804D01*
X59187583Y-82979697D01*
X59040313Y-83028830D01*
X59027134Y-83035004D01*
X58895486Y-83116470D01*
X58884085Y-83125506D01*
X58774702Y-83235080D01*
X58765690Y-83246491D01*
X58684447Y-83378291D01*
X58678303Y-83391468D01*
X58629421Y-83538843D01*
X58626555Y-83552210D01*
X58617386Y-83641700D01*
X58058500Y-83641700D01*
X58058500Y-73766829D01*
X58059578Y-73750383D01*
X58060990Y-73739654D01*
X65433118Y-73739654D01*
X65440173Y-73749627D01*
X65471179Y-73775551D01*
X65478098Y-73780579D01*
X65702772Y-73921515D01*
X65710307Y-73925556D01*
X65952020Y-74034694D01*
X65960051Y-74037680D01*
X66214332Y-74113002D01*
X66222684Y-74114869D01*
X66484840Y-74154984D01*
X66493374Y-74155700D01*
X66758545Y-74159867D01*
X66767096Y-74159418D01*
X67030383Y-74127557D01*
X67038784Y-74125955D01*
X67295324Y-74058653D01*
X67303426Y-74055926D01*
X67548449Y-73954434D01*
X67556117Y-73950628D01*
X67785098Y-73816822D01*
X67792179Y-73812009D01*
X67872155Y-73749301D01*
X67880625Y-73737442D01*
X67874108Y-73725818D01*
X66670312Y-72522022D01*
X66656368Y-72514408D01*
X66654535Y-72514539D01*
X66647920Y-72518790D01*
X65440410Y-73726300D01*
X65433118Y-73739654D01*
X58060990Y-73739654D01*
X58062500Y-73728188D01*
X58063578Y-73720000D01*
X58043352Y-73566370D01*
X58032725Y-73540713D01*
X58009149Y-73483797D01*
X57987214Y-73430840D01*
X57984054Y-73423211D01*
X57889723Y-73300277D01*
X57865409Y-73281620D01*
X57853018Y-73270753D01*
X56715469Y-72133204D01*
X64645165Y-72133204D01*
X64660432Y-72397969D01*
X64661505Y-72406470D01*
X64712565Y-72666722D01*
X64714776Y-72674974D01*
X64800684Y-72925894D01*
X64803999Y-72933779D01*
X64923164Y-73170713D01*
X64927520Y-73178079D01*
X65056847Y-73366250D01*
X65067101Y-73374594D01*
X65080842Y-73367448D01*
X66285478Y-72162812D01*
X66291856Y-72151132D01*
X67021908Y-72151132D01*
X67022039Y-72152965D01*
X67026290Y-72159580D01*
X68233230Y-73366520D01*
X68245439Y-73373187D01*
X68256939Y-73364497D01*
X68354331Y-73231913D01*
X68358918Y-73224685D01*
X68485462Y-72991621D01*
X68489030Y-72983827D01*
X68582771Y-72735750D01*
X68585248Y-72727544D01*
X68644454Y-72469038D01*
X68645794Y-72460577D01*
X68669531Y-72194616D01*
X68669777Y-72189677D01*
X68670166Y-72152485D01*
X68670023Y-72147519D01*
X68651862Y-71881123D01*
X68650701Y-71872649D01*
X68596919Y-71612944D01*
X68594620Y-71604709D01*
X68506088Y-71354705D01*
X68502691Y-71346854D01*
X68381050Y-71111178D01*
X68376622Y-71103866D01*
X68257531Y-70934417D01*
X68247009Y-70926037D01*
X68233621Y-70933089D01*
X67029522Y-72137188D01*
X67021908Y-72151132D01*
X66291856Y-72151132D01*
X66293092Y-72148868D01*
X66292961Y-72147035D01*
X66288710Y-72140420D01*
X65081314Y-70933024D01*
X65069304Y-70926466D01*
X65057564Y-70935434D01*
X64949435Y-71085911D01*
X64944918Y-71093196D01*
X64820825Y-71327567D01*
X64817339Y-71335395D01*
X64726200Y-71584446D01*
X64723811Y-71592670D01*
X64667312Y-71851795D01*
X64666063Y-71860250D01*
X64645254Y-72124653D01*
X64645165Y-72133204D01*
X56715469Y-72133204D01*
X55599247Y-71016982D01*
X55588380Y-71004591D01*
X55574749Y-70986827D01*
X55569723Y-70980277D01*
X55446789Y-70885946D01*
X55387490Y-70861384D01*
X55303630Y-70826647D01*
X55303516Y-70826632D01*
X55246117Y-70791646D01*
X55232205Y-70773193D01*
X55183920Y-70695165D01*
X55180071Y-70688945D01*
X55135707Y-70644658D01*
X55101628Y-70582375D01*
X55103032Y-70562500D01*
X65434084Y-70562500D01*
X65440480Y-70573770D01*
X66644688Y-71777978D01*
X66658632Y-71785592D01*
X66660465Y-71785461D01*
X66667080Y-71781210D01*
X67874104Y-70574186D01*
X67881295Y-70561017D01*
X67873973Y-70550780D01*
X67826733Y-70512115D01*
X67819761Y-70507160D01*
X67593622Y-70368582D01*
X67586052Y-70364624D01*
X67343204Y-70258022D01*
X67335144Y-70255120D01*
X67080092Y-70182467D01*
X67071714Y-70180685D01*
X66809156Y-70143318D01*
X66800611Y-70142691D01*
X66535408Y-70141302D01*
X66526874Y-70141839D01*
X66263933Y-70176456D01*
X66255535Y-70178149D01*
X65999738Y-70248127D01*
X65991643Y-70250946D01*
X65747699Y-70354997D01*
X65740077Y-70358881D01*
X65512513Y-70495075D01*
X65505481Y-70499962D01*
X65442553Y-70550377D01*
X65434084Y-70562500D01*
X55103032Y-70562500D01*
X55106631Y-70511555D01*
X55135630Y-70466390D01*
X55186639Y-70415381D01*
X55275472Y-70268699D01*
X55279507Y-70255825D01*
X55314764Y-70143318D01*
X55326753Y-70105062D01*
X55333500Y-70031635D01*
X55333499Y-69368366D01*
X55333234Y-69365474D01*
X55327364Y-69301592D01*
X55326753Y-69294938D01*
X55275472Y-69131301D01*
X55186639Y-68984619D01*
X55065381Y-68863361D01*
X54918699Y-68774528D01*
X54911452Y-68772257D01*
X54911450Y-68772256D01*
X54845164Y-68751483D01*
X54755062Y-68723247D01*
X54681635Y-68716500D01*
X54678737Y-68716500D01*
X54424335Y-68716501D01*
X54168366Y-68716501D01*
X54165508Y-68716764D01*
X54165499Y-68716764D01*
X54129996Y-68720026D01*
X54094938Y-68723247D01*
X54088560Y-68725246D01*
X54088559Y-68725246D01*
X53938550Y-68772256D01*
X53938548Y-68772257D01*
X53931301Y-68774528D01*
X53784619Y-68863361D01*
X53689095Y-68958885D01*
X53626783Y-68992911D01*
X53555968Y-68987846D01*
X53510905Y-68958885D01*
X53415381Y-68863361D01*
X53268699Y-68774528D01*
X53261452Y-68772257D01*
X53261450Y-68772256D01*
X53195164Y-68751483D01*
X53105062Y-68723247D01*
X53031635Y-68716500D01*
X53028737Y-68716500D01*
X52774335Y-68716501D01*
X52518366Y-68716501D01*
X52515508Y-68716764D01*
X52515499Y-68716764D01*
X52479996Y-68720026D01*
X52444938Y-68723247D01*
X52438560Y-68725246D01*
X52438559Y-68725246D01*
X52288550Y-68772256D01*
X52288548Y-68772257D01*
X52281301Y-68774528D01*
X52134619Y-68863361D01*
X52013361Y-68984619D01*
X51924528Y-69131301D01*
X51873247Y-69294938D01*
X51866500Y-69368365D01*
X51866501Y-70031634D01*
X51866764Y-70034492D01*
X51866764Y-70034501D01*
X51870026Y-70070004D01*
X51873247Y-70105062D01*
X51875246Y-70111440D01*
X51875246Y-70111441D01*
X51920494Y-70255825D01*
X51924528Y-70268699D01*
X52013361Y-70415381D01*
X52064396Y-70466416D01*
X52098422Y-70528728D01*
X52093357Y-70599543D01*
X52064475Y-70644528D01*
X52040951Y-70668094D01*
X52019136Y-70689947D01*
X51930151Y-70834308D01*
X51927846Y-70841256D01*
X51927846Y-70841257D01*
X51881735Y-70980277D01*
X51876762Y-70995269D01*
X51866500Y-71095428D01*
X51866500Y-71704572D01*
X51877022Y-71805982D01*
X51930692Y-71966849D01*
X52019929Y-72111055D01*
X52139947Y-72230864D01*
X52152014Y-72238302D01*
X52199507Y-72291073D01*
X52210931Y-72361144D01*
X52182658Y-72426268D01*
X52151169Y-72453338D01*
X52134619Y-72463361D01*
X52013361Y-72584619D01*
X51924528Y-72731301D01*
X51873247Y-72894938D01*
X51866500Y-72968365D01*
X51866501Y-73631634D01*
X51866764Y-73634492D01*
X51866764Y-73634501D01*
X51867829Y-73646094D01*
X51873247Y-73705062D01*
X51875246Y-73711440D01*
X51875246Y-73711441D01*
X51908271Y-73816822D01*
X51924528Y-73868699D01*
X52013361Y-74015381D01*
X52064396Y-74066416D01*
X52098422Y-74128728D01*
X52093357Y-74199543D01*
X52064475Y-74244528D01*
X52025296Y-74283776D01*
X52019136Y-74289947D01*
X51930151Y-74434308D01*
X51927846Y-74441256D01*
X51927846Y-74441257D01*
X51881735Y-74580277D01*
X51876762Y-74595269D01*
X51866500Y-74695428D01*
X51866500Y-75304572D01*
X51877022Y-75405982D01*
X51930692Y-75566849D01*
X52019929Y-75711055D01*
X52139947Y-75830864D01*
X52152014Y-75838302D01*
X52199507Y-75891073D01*
X52210931Y-75961144D01*
X52182658Y-76026268D01*
X52151169Y-76053338D01*
X52134619Y-76063361D01*
X52013361Y-76184619D01*
X51924528Y-76331301D01*
X51873247Y-76494938D01*
X51866500Y-76568365D01*
X51866501Y-77231634D01*
X51866764Y-77234492D01*
X51866764Y-77234501D01*
X51870026Y-77270004D01*
X51873247Y-77305062D01*
X51924528Y-77468699D01*
X52013361Y-77615381D01*
X52064396Y-77666416D01*
X52098422Y-77728728D01*
X52093357Y-77799543D01*
X52064475Y-77844528D01*
X52025296Y-77883776D01*
X52019136Y-77889947D01*
X51930151Y-78034308D01*
X51927846Y-78041256D01*
X51927846Y-78041257D01*
X51881735Y-78180277D01*
X51876762Y-78195269D01*
X51866500Y-78295428D01*
X51866500Y-78904572D01*
X51877022Y-79005982D01*
X51930692Y-79166849D01*
X52019929Y-79311055D01*
X52139947Y-79430864D01*
X52146177Y-79434704D01*
X52146178Y-79434705D01*
X52177514Y-79454020D01*
X52284308Y-79519849D01*
X52291256Y-79522154D01*
X52291257Y-79522154D01*
X52438738Y-79571072D01*
X52438740Y-79571072D01*
X52445269Y-79573238D01*
X52545428Y-79583500D01*
X52815500Y-79583500D01*
X52883621Y-79603502D01*
X52930114Y-79657158D01*
X52941500Y-79709500D01*
X52941500Y-79746233D01*
X52940973Y-79757416D01*
X52939298Y-79764909D01*
X52939547Y-79772835D01*
X52939547Y-79772836D01*
X52941438Y-79832986D01*
X52941500Y-79836945D01*
X52941500Y-79864856D01*
X52941997Y-79868790D01*
X52941997Y-79868791D01*
X52942005Y-79868856D01*
X52942938Y-79880693D01*
X52944327Y-79924889D01*
X52949143Y-79941466D01*
X52949978Y-79944339D01*
X52953987Y-79963700D01*
X52956526Y-79983797D01*
X52959445Y-79991168D01*
X52959445Y-79991170D01*
X52972804Y-80024912D01*
X52976649Y-80036142D01*
X52988982Y-80078593D01*
X52993015Y-80085412D01*
X52993017Y-80085417D01*
X52999293Y-80096028D01*
X53007988Y-80113776D01*
X53015448Y-80132617D01*
X53020110Y-80139034D01*
X53022381Y-80143165D01*
X53031523Y-80164092D01*
X53079932Y-80309615D01*
X53165179Y-80450373D01*
X53279491Y-80568747D01*
X53417189Y-80658854D01*
X53571428Y-80716215D01*
X53578409Y-80717146D01*
X53578411Y-80717147D01*
X53727561Y-80737048D01*
X53727565Y-80737048D01*
X53734542Y-80737979D01*
X53741553Y-80737341D01*
X53741557Y-80737341D01*
X53891403Y-80723704D01*
X53891404Y-80723704D01*
X53898424Y-80723065D01*
X53927062Y-80713760D01*
X54048230Y-80674390D01*
X54048233Y-80674389D01*
X54054929Y-80672213D01*
X54196279Y-80587951D01*
X54315449Y-80474468D01*
X54332852Y-80448275D01*
X54402614Y-80343275D01*
X54402615Y-80343273D01*
X54406515Y-80337403D01*
X54464951Y-80183568D01*
X54480774Y-80070983D01*
X54487302Y-80024534D01*
X54487303Y-80024527D01*
X54487853Y-80020610D01*
X54488141Y-80000000D01*
X54469798Y-79836466D01*
X54440013Y-79750935D01*
X54436501Y-79680027D01*
X54471882Y-79618475D01*
X54534924Y-79585823D01*
X54559005Y-79583500D01*
X54654572Y-79583500D01*
X54657818Y-79583163D01*
X54657822Y-79583163D01*
X54691603Y-79579658D01*
X54755982Y-79572978D01*
X54916849Y-79519308D01*
X55061055Y-79430071D01*
X55140189Y-79350799D01*
X55202472Y-79316720D01*
X55273292Y-79321723D01*
X55318457Y-79350722D01*
X56124595Y-80156860D01*
X56158621Y-80219172D01*
X56161500Y-80245955D01*
X56161500Y-88854046D01*
X56141498Y-88922167D01*
X56124595Y-88943141D01*
X55862511Y-89205225D01*
X55800199Y-89239251D01*
X55729384Y-89234186D01*
X55672548Y-89191639D01*
X55666012Y-89180853D01*
X55665680Y-89181060D01*
X55582209Y-89047479D01*
X55578476Y-89041505D01*
X55484669Y-88947041D01*
X55467486Y-88929737D01*
X55467482Y-88929734D01*
X55462522Y-88924739D01*
X55323580Y-88836563D01*
X55204833Y-88794279D01*
X55175189Y-88783723D01*
X55175187Y-88783722D01*
X55168555Y-88781361D01*
X55161569Y-88780528D01*
X55161565Y-88780527D01*
X55043924Y-88766500D01*
X55005153Y-88761877D01*
X54998150Y-88762613D01*
X54998149Y-88762613D01*
X54961168Y-88766500D01*
X54841495Y-88779078D01*
X54834827Y-88781348D01*
X54692382Y-88829840D01*
X54692379Y-88829841D01*
X54685715Y-88832110D01*
X54650059Y-88854046D01*
X54599919Y-88884892D01*
X54531418Y-88903551D01*
X54469757Y-88886028D01*
X54357927Y-88819892D01*
X54357928Y-88819892D01*
X54351101Y-88815855D01*
X54343490Y-88813644D01*
X54343488Y-88813643D01*
X54197511Y-88771233D01*
X54197507Y-88771232D01*
X54191331Y-88769438D01*
X54190160Y-88769346D01*
X54128442Y-88738284D01*
X54092347Y-88677148D01*
X54088500Y-88646252D01*
X54088500Y-88556528D01*
X54108502Y-88488407D01*
X54136927Y-88457238D01*
X54193991Y-88412655D01*
X54193992Y-88412654D01*
X54198847Y-88408861D01*
X54328078Y-88259145D01*
X54425769Y-88087179D01*
X54488197Y-87899513D01*
X54512985Y-87703295D01*
X54513380Y-87675000D01*
X54494080Y-87478167D01*
X54436916Y-87288831D01*
X54344066Y-87114204D01*
X54273709Y-87027938D01*
X54222960Y-86965713D01*
X54222957Y-86965710D01*
X54219065Y-86960938D01*
X54212724Y-86955692D01*
X54071425Y-86838799D01*
X54071421Y-86838797D01*
X54066675Y-86834870D01*
X53892701Y-86740802D01*
X53703768Y-86682318D01*
X53697643Y-86681674D01*
X53697642Y-86681674D01*
X53513204Y-86662289D01*
X53513202Y-86662289D01*
X53507075Y-86661645D01*
X53424576Y-86669153D01*
X53316251Y-86679011D01*
X53316248Y-86679012D01*
X53310112Y-86679570D01*
X53304206Y-86681308D01*
X53304202Y-86681309D01*
X53199076Y-86712249D01*
X53120381Y-86735410D01*
X53114923Y-86738263D01*
X53114919Y-86738265D01*
X53024147Y-86785720D01*
X52945110Y-86827040D01*
X52790975Y-86950968D01*
X52663846Y-87102474D01*
X52660879Y-87107872D01*
X52660875Y-87107877D01*
X52657397Y-87114204D01*
X52568567Y-87275787D01*
X52566706Y-87281654D01*
X52566705Y-87281656D01*
X52510627Y-87458436D01*
X52508765Y-87464306D01*
X52486719Y-87660851D01*
X52487235Y-87666995D01*
X52497223Y-87785938D01*
X52503268Y-87857934D01*
X52504967Y-87863858D01*
X52550361Y-88022166D01*
X52557783Y-88048050D01*
X52560602Y-88053535D01*
X52617760Y-88164751D01*
X52648187Y-88223956D01*
X52771035Y-88378953D01*
X52775728Y-88382947D01*
X52775729Y-88382948D01*
X52867163Y-88460764D01*
X52906076Y-88520147D01*
X52911500Y-88556718D01*
X52911500Y-88646252D01*
X52891498Y-88714373D01*
X52837842Y-88760866D01*
X52811203Y-88769239D01*
X52808669Y-88769438D01*
X52802493Y-88771232D01*
X52802489Y-88771233D01*
X52656512Y-88813643D01*
X52656510Y-88813644D01*
X52648899Y-88815855D01*
X52642072Y-88819892D01*
X52642073Y-88819892D01*
X52512520Y-88896509D01*
X52512517Y-88896511D01*
X52505693Y-88900547D01*
X52493225Y-88913015D01*
X52430913Y-88947041D01*
X52360098Y-88941976D01*
X52315035Y-88913015D01*
X52215381Y-88813361D01*
X52068699Y-88724528D01*
X52061452Y-88722257D01*
X52061450Y-88722256D01*
X51954876Y-88688858D01*
X51905062Y-88673247D01*
X51831635Y-88666500D01*
X51828737Y-88666500D01*
X51499140Y-88666501D01*
X51168366Y-88666501D01*
X51165508Y-88666764D01*
X51165499Y-88666764D01*
X51129996Y-88670026D01*
X51094938Y-88673247D01*
X51088560Y-88675246D01*
X51088559Y-88675246D01*
X50938550Y-88722256D01*
X50938548Y-88722257D01*
X50931301Y-88724528D01*
X50784619Y-88813361D01*
X50723595Y-88874385D01*
X50661283Y-88908411D01*
X50590468Y-88903346D01*
X50533632Y-88860799D01*
X50508821Y-88794279D01*
X50508500Y-88785290D01*
X50508500Y-64988434D01*
X51686661Y-64988434D01*
X51686833Y-64991829D01*
X51686833Y-64991830D01*
X51700540Y-65262415D01*
X51704792Y-65346340D01*
X51705329Y-65349695D01*
X51705330Y-65349701D01*
X51739652Y-65563980D01*
X51761470Y-65700195D01*
X51856033Y-66045859D01*
X51987374Y-66379288D01*
X52153957Y-66696582D01*
X52155858Y-66699411D01*
X52155864Y-66699421D01*
X52339569Y-66972800D01*
X52353834Y-66994029D01*
X52584665Y-67268150D01*
X52843751Y-67515738D01*
X53128061Y-67733897D01*
X53162932Y-67755099D01*
X53431355Y-67918303D01*
X53431360Y-67918306D01*
X53434270Y-67920075D01*
X53437358Y-67921521D01*
X53437357Y-67921521D01*
X53755710Y-68070649D01*
X53755720Y-68070653D01*
X53758794Y-68072093D01*
X53762012Y-68073195D01*
X53762015Y-68073196D01*
X54094615Y-68187071D01*
X54094623Y-68187073D01*
X54097838Y-68188174D01*
X54447435Y-68266959D01*
X54499728Y-68272917D01*
X54800114Y-68307142D01*
X54800122Y-68307142D01*
X54803497Y-68307527D01*
X54806901Y-68307545D01*
X54806904Y-68307545D01*
X55001227Y-68308562D01*
X55161857Y-68309403D01*
X55165243Y-68309053D01*
X55165245Y-68309053D01*
X55514932Y-68272917D01*
X55514941Y-68272916D01*
X55518324Y-68272566D01*
X55521657Y-68271852D01*
X55521660Y-68271851D01*
X55694186Y-68234864D01*
X55868727Y-68197446D01*
X56208968Y-68084922D01*
X56535066Y-67936311D01*
X56666424Y-67858316D01*
X56840262Y-67755099D01*
X56840267Y-67755096D01*
X56843207Y-67753350D01*
X57129786Y-67538180D01*
X57391451Y-67293319D01*
X57625140Y-67021630D01*
X57731750Y-66866512D01*
X57826190Y-66729101D01*
X57826195Y-66729094D01*
X57828120Y-66726292D01*
X57829732Y-66723298D01*
X57829737Y-66723290D01*
X57996395Y-66413772D01*
X57998017Y-66410760D01*
X58132842Y-66078724D01*
X58143142Y-66042568D01*
X58175927Y-65927474D01*
X58231020Y-65734070D01*
X58291401Y-65380828D01*
X58293050Y-65353881D01*
X58313168Y-65024928D01*
X58313278Y-65023131D01*
X58313359Y-65000000D01*
X58293979Y-64642159D01*
X58236066Y-64288505D01*
X58186562Y-64110000D01*
X74156422Y-64110000D01*
X74176647Y-64263630D01*
X74211384Y-64347490D01*
X74235946Y-64406789D01*
X74330277Y-64529723D01*
X74336827Y-64534749D01*
X74354591Y-64548380D01*
X74366982Y-64559247D01*
X77514595Y-67706860D01*
X77548621Y-67769172D01*
X77551500Y-67795955D01*
X77551500Y-87954045D01*
X77531498Y-88022166D01*
X77514595Y-88043140D01*
X77417482Y-88140253D01*
X77405091Y-88151120D01*
X77380777Y-88169777D01*
X77286446Y-88292711D01*
X77261884Y-88352010D01*
X77227147Y-88435870D01*
X77206922Y-88589500D01*
X77208000Y-88597688D01*
X77210922Y-88619884D01*
X77212000Y-88636330D01*
X77212000Y-89753670D01*
X77210922Y-89770115D01*
X77206922Y-89800500D01*
X77227147Y-89954130D01*
X77251347Y-90012552D01*
X77286446Y-90097289D01*
X77380777Y-90220223D01*
X77387327Y-90225249D01*
X77405091Y-90238880D01*
X77417482Y-90249747D01*
X77874595Y-90706860D01*
X77908621Y-90769172D01*
X77911500Y-90795955D01*
X77911500Y-100276588D01*
X77891498Y-100344709D01*
X77851523Y-100383905D01*
X77795555Y-100418337D01*
X77755011Y-100458041D01*
X77683222Y-100528342D01*
X77677982Y-100533473D01*
X77588838Y-100671797D01*
X77586427Y-100678420D01*
X77586426Y-100678423D01*
X77534966Y-100819809D01*
X77534965Y-100819814D01*
X77532556Y-100826432D01*
X77511931Y-100989694D01*
X77527989Y-101153468D01*
X77579932Y-101309615D01*
X77583581Y-101315640D01*
X77659415Y-101440855D01*
X77665179Y-101450373D01*
X77779491Y-101568747D01*
X77917189Y-101658854D01*
X78071428Y-101716215D01*
X78147198Y-101726325D01*
X78162165Y-101728322D01*
X78227041Y-101757158D01*
X78266030Y-101816491D01*
X78271500Y-101853215D01*
X78271500Y-112080660D01*
X78251498Y-112148781D01*
X78233658Y-112170683D01*
X78123517Y-112278541D01*
X78123511Y-112278548D01*
X78118482Y-112283473D01*
X78029338Y-112421797D01*
X78026927Y-112428420D01*
X78026926Y-112428423D01*
X77975466Y-112569809D01*
X77975465Y-112569814D01*
X77973056Y-112576432D01*
X77952431Y-112739694D01*
X77968489Y-112903468D01*
X78020432Y-113059615D01*
X78024081Y-113065640D01*
X78054493Y-113115855D01*
X78105679Y-113200373D01*
X78110570Y-113205438D01*
X78110571Y-113205439D01*
X78130691Y-113226274D01*
X78219991Y-113318747D01*
X78357689Y-113408854D01*
X78511928Y-113466215D01*
X78522167Y-113467581D01*
X78524101Y-113468441D01*
X78525743Y-113468850D01*
X78525671Y-113469139D01*
X78587043Y-113496418D01*
X78626030Y-113555753D01*
X78631500Y-113592474D01*
X78631500Y-113654545D01*
X78611498Y-113722666D01*
X78571525Y-113761860D01*
X78545555Y-113777837D01*
X78427982Y-113892973D01*
X78338838Y-114031297D01*
X78336427Y-114037920D01*
X78336426Y-114037923D01*
X78284966Y-114179309D01*
X78284965Y-114179314D01*
X78282556Y-114185932D01*
X78261931Y-114349194D01*
X78277989Y-114512968D01*
X78329932Y-114669115D01*
X78333581Y-114675140D01*
X78404335Y-114791967D01*
X78415179Y-114809873D01*
X78420070Y-114814938D01*
X78420071Y-114814939D01*
X78447561Y-114843406D01*
X78529491Y-114928247D01*
X78667189Y-115018354D01*
X78821428Y-115075715D01*
X78828409Y-115076646D01*
X78828411Y-115076647D01*
X78882164Y-115083819D01*
X78947041Y-115112655D01*
X78986029Y-115171988D01*
X78991500Y-115208712D01*
X78991500Y-120049769D01*
X78991800Y-120052825D01*
X78991800Y-120052832D01*
X78997537Y-120111340D01*
X79005920Y-120196833D01*
X79063084Y-120386169D01*
X79155934Y-120560796D01*
X79226291Y-120647062D01*
X79277040Y-120709287D01*
X79277043Y-120709290D01*
X79280935Y-120714062D01*
X79285682Y-120717989D01*
X79285684Y-120717991D01*
X79428575Y-120836201D01*
X79428579Y-120836203D01*
X79433325Y-120840130D01*
X79607299Y-120934198D01*
X79796232Y-120992682D01*
X79802357Y-120993326D01*
X79802358Y-120993326D01*
X79986796Y-121012711D01*
X79986798Y-121012711D01*
X79992925Y-121013355D01*
X80075424Y-121005847D01*
X80183749Y-120995989D01*
X80183752Y-120995988D01*
X80189888Y-120995430D01*
X80195794Y-120993692D01*
X80195798Y-120993691D01*
X80300924Y-120962751D01*
X80379619Y-120939590D01*
X80385077Y-120936737D01*
X80385081Y-120936735D01*
X80475853Y-120889280D01*
X80554890Y-120847960D01*
X80709025Y-120724032D01*
X80836154Y-120572526D01*
X80839121Y-120567128D01*
X80839125Y-120567123D01*
X80928467Y-120404608D01*
X80931433Y-120399213D01*
X80933846Y-120391608D01*
X80989373Y-120216564D01*
X80989373Y-120216563D01*
X80991235Y-120210694D01*
X81008500Y-120056773D01*
X81008500Y-104299769D01*
X81991500Y-104299769D01*
X81991800Y-104302825D01*
X81991800Y-104302832D01*
X81992284Y-104307768D01*
X82005920Y-104446833D01*
X82007702Y-104452734D01*
X82007702Y-104452736D01*
X82017642Y-104485659D01*
X82063084Y-104636169D01*
X82155934Y-104810796D01*
X82179423Y-104839596D01*
X82277040Y-104959287D01*
X82277043Y-104959290D01*
X82280935Y-104964062D01*
X82285682Y-104967989D01*
X82285684Y-104967991D01*
X82428575Y-105086201D01*
X82428579Y-105086203D01*
X82433325Y-105090130D01*
X82607299Y-105184198D01*
X82796232Y-105242682D01*
X82802357Y-105243326D01*
X82802358Y-105243326D01*
X82986796Y-105262711D01*
X82986798Y-105262711D01*
X82992925Y-105263355D01*
X83075424Y-105255847D01*
X83183749Y-105245989D01*
X83183752Y-105245988D01*
X83189888Y-105245430D01*
X83195794Y-105243692D01*
X83195798Y-105243691D01*
X83300924Y-105212751D01*
X83379619Y-105189590D01*
X83385077Y-105186737D01*
X83385081Y-105186735D01*
X83490478Y-105131634D01*
X83554890Y-105097960D01*
X83709025Y-104974032D01*
X83836154Y-104822526D01*
X83839121Y-104817128D01*
X83839125Y-104817123D01*
X83928467Y-104654608D01*
X83931433Y-104649213D01*
X83933846Y-104641608D01*
X83989373Y-104466564D01*
X83989373Y-104466563D01*
X83991235Y-104460694D01*
X84008500Y-104306773D01*
X84008500Y-66450231D01*
X84007814Y-66443227D01*
X83996102Y-66323788D01*
X83994080Y-66303167D01*
X83936916Y-66113831D01*
X83844066Y-65939204D01*
X83744217Y-65816777D01*
X83722960Y-65790713D01*
X83722957Y-65790710D01*
X83719065Y-65785938D01*
X83712724Y-65780692D01*
X83571425Y-65663799D01*
X83571421Y-65663797D01*
X83566675Y-65659870D01*
X83392701Y-65565802D01*
X83203768Y-65507318D01*
X83197643Y-65506674D01*
X83197642Y-65506674D01*
X83013204Y-65487289D01*
X83013202Y-65487289D01*
X83007075Y-65486645D01*
X82924576Y-65494153D01*
X82816251Y-65504011D01*
X82816248Y-65504012D01*
X82810112Y-65504570D01*
X82804206Y-65506308D01*
X82804202Y-65506309D01*
X82729646Y-65528252D01*
X82620381Y-65560410D01*
X82614923Y-65563263D01*
X82614919Y-65563265D01*
X82524147Y-65610720D01*
X82445110Y-65652040D01*
X82290975Y-65775968D01*
X82163846Y-65927474D01*
X82160879Y-65932872D01*
X82160875Y-65932877D01*
X82127316Y-65993922D01*
X82068567Y-66100787D01*
X82066706Y-66106654D01*
X82066705Y-66106656D01*
X82052986Y-66149905D01*
X82008765Y-66289306D01*
X81991500Y-66443227D01*
X81991500Y-104299769D01*
X81008500Y-104299769D01*
X81008500Y-74200231D01*
X81004064Y-74154984D01*
X80995379Y-74066416D01*
X80994080Y-74053167D01*
X80936916Y-73863831D01*
X80844066Y-73689204D01*
X80737663Y-73558741D01*
X80722960Y-73540713D01*
X80722957Y-73540710D01*
X80719065Y-73535938D01*
X80714316Y-73532009D01*
X80571425Y-73413799D01*
X80571421Y-73413797D01*
X80566675Y-73409870D01*
X80392701Y-73315802D01*
X80203768Y-73257318D01*
X80197643Y-73256674D01*
X80197642Y-73256674D01*
X80013204Y-73237289D01*
X80013202Y-73237289D01*
X80007075Y-73236645D01*
X79945919Y-73242211D01*
X79876267Y-73228466D01*
X79825102Y-73179245D01*
X79808500Y-73116730D01*
X79808500Y-66384149D01*
X79826725Y-66323788D01*
X79824896Y-66322848D01*
X79828113Y-66316587D01*
X79832015Y-66310715D01*
X79890451Y-66156880D01*
X79901896Y-66075446D01*
X79912802Y-65997846D01*
X79912803Y-65997839D01*
X79913353Y-65993922D01*
X79913641Y-65973312D01*
X79895298Y-65809778D01*
X79841180Y-65654372D01*
X79753976Y-65514817D01*
X79662768Y-65422970D01*
X79642986Y-65403049D01*
X79642982Y-65403046D01*
X79638022Y-65398051D01*
X79499080Y-65309875D01*
X79428240Y-65284650D01*
X79350689Y-65257035D01*
X79350687Y-65257034D01*
X79344055Y-65254673D01*
X79337069Y-65253840D01*
X79337065Y-65253839D01*
X79222571Y-65240187D01*
X79180653Y-65235189D01*
X79173650Y-65235925D01*
X79173649Y-65235925D01*
X79130435Y-65240467D01*
X79016995Y-65252390D01*
X79010327Y-65254660D01*
X78867882Y-65303152D01*
X78867879Y-65303153D01*
X78861215Y-65305422D01*
X78855217Y-65309112D01*
X78848842Y-65312112D01*
X78848029Y-65310384D01*
X78788710Y-65326537D01*
X78748930Y-65319261D01*
X78651732Y-65284650D01*
X78651727Y-65284649D01*
X78645097Y-65282288D01*
X78638111Y-65281455D01*
X78638107Y-65281454D01*
X78523613Y-65267802D01*
X78481695Y-65262804D01*
X78474692Y-65263540D01*
X78474691Y-65263540D01*
X78431477Y-65268082D01*
X78318037Y-65280005D01*
X78167644Y-65331203D01*
X78096712Y-65334221D01*
X78084776Y-65330625D01*
X78013997Y-65305422D01*
X77952229Y-65283427D01*
X77952227Y-65283426D01*
X77945595Y-65281065D01*
X77938609Y-65280232D01*
X77938605Y-65280231D01*
X77824111Y-65266579D01*
X77782193Y-65261581D01*
X77775190Y-65262317D01*
X77775189Y-65262317D01*
X77731975Y-65266859D01*
X77618535Y-65278782D01*
X77611867Y-65281052D01*
X77469422Y-65329544D01*
X77469419Y-65329545D01*
X77462755Y-65331814D01*
X77322595Y-65418041D01*
X77317562Y-65422970D01*
X77223771Y-65514817D01*
X77205022Y-65533177D01*
X77202988Y-65536333D01*
X77145504Y-65575746D01*
X77074539Y-65577863D01*
X77017322Y-65545057D01*
X75375405Y-63903140D01*
X75341379Y-63840828D01*
X75338500Y-63814045D01*
X75338500Y-58045955D01*
X75358502Y-57977834D01*
X75375405Y-57956860D01*
X77910905Y-55421360D01*
X77973217Y-55387334D01*
X78044032Y-55392399D01*
X78089095Y-55421360D01*
X78491389Y-55823654D01*
X78525415Y-55885966D01*
X78526393Y-55892183D01*
X78527302Y-55896457D01*
X78527989Y-55903468D01*
X78579932Y-56059615D01*
X78665179Y-56200373D01*
X78779491Y-56318747D01*
X78917189Y-56408854D01*
X79071428Y-56466215D01*
X79078409Y-56467146D01*
X79078411Y-56467147D01*
X79227561Y-56487048D01*
X79227565Y-56487048D01*
X79234542Y-56487979D01*
X79241553Y-56487341D01*
X79241557Y-56487341D01*
X79391403Y-56473704D01*
X79391404Y-56473704D01*
X79398424Y-56473065D01*
X79427062Y-56463760D01*
X79548230Y-56424390D01*
X79548233Y-56424389D01*
X79554929Y-56422213D01*
X79696279Y-56337951D01*
X79815449Y-56224468D01*
X79831458Y-56200373D01*
X79902614Y-56093275D01*
X79902615Y-56093273D01*
X79906515Y-56087403D01*
X79964951Y-55933568D01*
X79982484Y-55808816D01*
X79987302Y-55774534D01*
X79987303Y-55774527D01*
X79987853Y-55770610D01*
X79988141Y-55750000D01*
X79969798Y-55586466D01*
X79915680Y-55431060D01*
X79884292Y-55380828D01*
X79832209Y-55297479D01*
X79828476Y-55291505D01*
X79744510Y-55206951D01*
X79717486Y-55179737D01*
X79717482Y-55179734D01*
X79712522Y-55174739D01*
X79573580Y-55086563D01*
X79418555Y-55031361D01*
X79411567Y-55030528D01*
X79411564Y-55030527D01*
X79399511Y-55029090D01*
X79334238Y-55001162D01*
X79325336Y-54993071D01*
X78699247Y-54366982D01*
X78688380Y-54354591D01*
X78674749Y-54336827D01*
X78669723Y-54330277D01*
X78546789Y-54235946D01*
X78495460Y-54214685D01*
X78487490Y-54211384D01*
X78487488Y-54211383D01*
X78411261Y-54179808D01*
X78403630Y-54176647D01*
X78395443Y-54175569D01*
X78395442Y-54175569D01*
X78258189Y-54157500D01*
X78250000Y-54156422D01*
X78219616Y-54160422D01*
X78203170Y-54161500D01*
X77796830Y-54161500D01*
X77780384Y-54160422D01*
X77750000Y-54156422D01*
X77596371Y-54176647D01*
X77524791Y-54206297D01*
X77453211Y-54235946D01*
X77330277Y-54330277D01*
X77325251Y-54336827D01*
X77311617Y-54354595D01*
X77300750Y-54366986D01*
X74366982Y-57300753D01*
X74354591Y-57311620D01*
X74330277Y-57330277D01*
X74235946Y-57453211D01*
X74223368Y-57483578D01*
X74176647Y-57596370D01*
X74156422Y-57750000D01*
X74160422Y-57780384D01*
X74161500Y-57796830D01*
X74161500Y-64063170D01*
X74160422Y-64079615D01*
X74156422Y-64110000D01*
X58186562Y-64110000D01*
X58140297Y-63943173D01*
X58137243Y-63935497D01*
X58009052Y-63613369D01*
X58007793Y-63610205D01*
X57977768Y-63553498D01*
X57841702Y-63296513D01*
X57841698Y-63296506D01*
X57840103Y-63293494D01*
X57639190Y-62996746D01*
X57407403Y-62723432D01*
X57147454Y-62476750D01*
X56862384Y-62259585D01*
X56859472Y-62257828D01*
X56859467Y-62257825D01*
X56558443Y-62076236D01*
X56558437Y-62076233D01*
X56555528Y-62074478D01*
X56230475Y-61923593D01*
X56060752Y-61866145D01*
X55894255Y-61809789D01*
X55894250Y-61809788D01*
X55891028Y-61808697D01*
X55692681Y-61764724D01*
X55544493Y-61731871D01*
X55544487Y-61731870D01*
X55541158Y-61731132D01*
X55537769Y-61730758D01*
X55537764Y-61730757D01*
X55188338Y-61692180D01*
X55188333Y-61692180D01*
X55184957Y-61691807D01*
X55181558Y-61691801D01*
X55181557Y-61691801D01*
X55012080Y-61691505D01*
X54826592Y-61691182D01*
X54713413Y-61703277D01*
X54473639Y-61728901D01*
X54473631Y-61728902D01*
X54470256Y-61729263D01*
X54120117Y-61805606D01*
X53780271Y-61919317D01*
X53777178Y-61920739D01*
X53777177Y-61920740D01*
X53770974Y-61923593D01*
X53454694Y-62069066D01*
X53147193Y-62253101D01*
X53144467Y-62255163D01*
X53144465Y-62255164D01*
X53138620Y-62259585D01*
X52861367Y-62469270D01*
X52600559Y-62715043D01*
X52367819Y-62987546D01*
X52365900Y-62990358D01*
X52365897Y-62990363D01*
X52272624Y-63127097D01*
X52165871Y-63283591D01*
X51997077Y-63599714D01*
X51863411Y-63932218D01*
X51862491Y-63935492D01*
X51862489Y-63935497D01*
X51772557Y-64255442D01*
X51766437Y-64277213D01*
X51765875Y-64280570D01*
X51765875Y-64280571D01*
X51725278Y-64523173D01*
X51707290Y-64630663D01*
X51686661Y-64988434D01*
X50508500Y-64988434D01*
X50508500Y-55053250D01*
X50510246Y-55032345D01*
X50512770Y-55017344D01*
X50512770Y-55017341D01*
X50513576Y-55012552D01*
X50513729Y-55000000D01*
X50513039Y-54995184D01*
X50513039Y-54995178D01*
X50512073Y-54988434D01*
X51686661Y-54988434D01*
X51704792Y-55346340D01*
X51705329Y-55349695D01*
X51705330Y-55349701D01*
X51742188Y-55579812D01*
X51761470Y-55700195D01*
X51856033Y-56045859D01*
X51863825Y-56065640D01*
X51969179Y-56333096D01*
X51987374Y-56379288D01*
X52006580Y-56415870D01*
X52035465Y-56470887D01*
X52153957Y-56696582D01*
X52155858Y-56699411D01*
X52155864Y-56699421D01*
X52288269Y-56896459D01*
X52353834Y-56994029D01*
X52584665Y-57268150D01*
X52843751Y-57515738D01*
X53128061Y-57733897D01*
X53160056Y-57753350D01*
X53431355Y-57918303D01*
X53431360Y-57918306D01*
X53434270Y-57920075D01*
X53437358Y-57921521D01*
X53437357Y-57921521D01*
X53755710Y-58070649D01*
X53755720Y-58070653D01*
X53758794Y-58072093D01*
X53762012Y-58073195D01*
X53762015Y-58073196D01*
X54094615Y-58187071D01*
X54094623Y-58187073D01*
X54097838Y-58188174D01*
X54447435Y-58266959D01*
X54499728Y-58272917D01*
X54800114Y-58307142D01*
X54800122Y-58307142D01*
X54803497Y-58307527D01*
X54806901Y-58307545D01*
X54806904Y-58307545D01*
X55001227Y-58308562D01*
X55161857Y-58309403D01*
X55165243Y-58309053D01*
X55165245Y-58309053D01*
X55514932Y-58272917D01*
X55514941Y-58272916D01*
X55518324Y-58272566D01*
X55521657Y-58271852D01*
X55521660Y-58271851D01*
X55694186Y-58234864D01*
X55868727Y-58197446D01*
X56208968Y-58084922D01*
X56535066Y-57936311D01*
X56693533Y-57842220D01*
X56840262Y-57755099D01*
X56840267Y-57755096D01*
X56843207Y-57753350D01*
X56848791Y-57749158D01*
X57019134Y-57621260D01*
X57129786Y-57538180D01*
X57391451Y-57293319D01*
X57625140Y-57021630D01*
X57731750Y-56866512D01*
X57826190Y-56729101D01*
X57826195Y-56729094D01*
X57828120Y-56726292D01*
X57829732Y-56723298D01*
X57829737Y-56723290D01*
X57993792Y-56418607D01*
X57998017Y-56410760D01*
X58097953Y-56164645D01*
X58131562Y-56081877D01*
X58131564Y-56081872D01*
X58132842Y-56078724D01*
X58138286Y-56059615D01*
X58187751Y-55885966D01*
X58231020Y-55734070D01*
X58253462Y-55602780D01*
X58290829Y-55384175D01*
X58290829Y-55384173D01*
X58291401Y-55380828D01*
X58293438Y-55347537D01*
X58312826Y-55030527D01*
X58313278Y-55023131D01*
X58313359Y-55000000D01*
X58293979Y-54642159D01*
X58236066Y-54288505D01*
X58140297Y-53943173D01*
X58137243Y-53935497D01*
X58009052Y-53613369D01*
X58007793Y-53610205D01*
X57933065Y-53469068D01*
X57841702Y-53296513D01*
X57841698Y-53296506D01*
X57840103Y-53293494D01*
X57639190Y-52996746D01*
X57407403Y-52723432D01*
X57147454Y-52476750D01*
X56862384Y-52259585D01*
X56859472Y-52257828D01*
X56859467Y-52257825D01*
X56558443Y-52076236D01*
X56558437Y-52076233D01*
X56555528Y-52074478D01*
X56230475Y-51923593D01*
X55936328Y-51824030D01*
X55894255Y-51809789D01*
X55894250Y-51809788D01*
X55891028Y-51808697D01*
X55692681Y-51764724D01*
X55544493Y-51731871D01*
X55544487Y-51731870D01*
X55541158Y-51731132D01*
X55537769Y-51730758D01*
X55537764Y-51730757D01*
X55188338Y-51692180D01*
X55188333Y-51692180D01*
X55184957Y-51691807D01*
X55181558Y-51691801D01*
X55181557Y-51691801D01*
X55012080Y-51691505D01*
X54826592Y-51691182D01*
X54713413Y-51703277D01*
X54473639Y-51728901D01*
X54473631Y-51728902D01*
X54470256Y-51729263D01*
X54120117Y-51805606D01*
X53780271Y-51919317D01*
X53777178Y-51920739D01*
X53777177Y-51920740D01*
X53770974Y-51923593D01*
X53454694Y-52069066D01*
X53451760Y-52070822D01*
X53451758Y-52070823D01*
X53381421Y-52112919D01*
X53147193Y-52253101D01*
X53144467Y-52255163D01*
X53144465Y-52255164D01*
X52927278Y-52419422D01*
X52861367Y-52469270D01*
X52600559Y-52715043D01*
X52598347Y-52717633D01*
X52598345Y-52717635D01*
X52540495Y-52785369D01*
X52367819Y-52987546D01*
X52365900Y-52990358D01*
X52365897Y-52990363D01*
X52293206Y-53096924D01*
X52165871Y-53283591D01*
X51997077Y-53599714D01*
X51863411Y-53932218D01*
X51862491Y-53935492D01*
X51862489Y-53935497D01*
X51778037Y-54235946D01*
X51766437Y-54277213D01*
X51707290Y-54630663D01*
X51686661Y-54988434D01*
X50512073Y-54988434D01*
X50511387Y-54983644D01*
X50510234Y-54960284D01*
X50511792Y-54924618D01*
X50525352Y-54614035D01*
X50526310Y-54603086D01*
X50559024Y-54354595D01*
X50576019Y-54225502D01*
X50577927Y-54214685D01*
X50585660Y-54179807D01*
X50660353Y-53842885D01*
X50663198Y-53832268D01*
X50732217Y-53613369D01*
X50777718Y-53469061D01*
X50781474Y-53458739D01*
X50851091Y-53290669D01*
X50927220Y-53106877D01*
X50931862Y-53096924D01*
X50982542Y-52999570D01*
X51107706Y-52759132D01*
X51113201Y-52749613D01*
X51317820Y-52428426D01*
X51324124Y-52419422D01*
X51555962Y-52117284D01*
X51563028Y-52108863D01*
X51820314Y-51828086D01*
X51828086Y-51820314D01*
X52108863Y-51563028D01*
X52117284Y-51555962D01*
X52419422Y-51324124D01*
X52428426Y-51317820D01*
X52749613Y-51113201D01*
X52759133Y-51107705D01*
X53096933Y-50931858D01*
X53106877Y-50927220D01*
X53458746Y-50781471D01*
X53469061Y-50777718D01*
X53832269Y-50663198D01*
X53842886Y-50660353D01*
X54214693Y-50577926D01*
X54225502Y-50576019D01*
X54603087Y-50526310D01*
X54614035Y-50525352D01*
X54956554Y-50510397D01*
X54981429Y-50511777D01*
X54993724Y-50513691D01*
X55002626Y-50512527D01*
X55002628Y-50512527D01*
X55021399Y-50510072D01*
X55025286Y-50509564D01*
X55041621Y-50508500D01*
X104950633Y-50508500D01*
X104970018Y-50510000D01*
G37*
G04 #@! TD.AperFunction*
G04 #@! TA.AperFunction,Conductor*
G36*
X68428989Y-131607441D02*
G01*
X68485825Y-131649988D01*
X68510636Y-131716508D01*
X68507477Y-131754906D01*
X68506621Y-131758471D01*
X68506620Y-131758480D01*
X68505465Y-131763289D01*
X68489246Y-131969370D01*
X68488746Y-131975720D01*
X68487785Y-131983921D01*
X68487821Y-131984011D01*
X68486309Y-131993724D01*
X68486946Y-131998593D01*
X68486835Y-132000000D01*
X68487130Y-132000000D01*
X68488380Y-132009560D01*
X68488380Y-132009562D01*
X68490436Y-132025283D01*
X68491500Y-132041620D01*
X68491500Y-133554529D01*
X68471498Y-133622650D01*
X68417842Y-133669143D01*
X68347568Y-133679247D01*
X68282988Y-133649753D01*
X68248067Y-133600196D01*
X68168340Y-133395176D01*
X68168339Y-133395173D01*
X68166647Y-133390823D01*
X68036951Y-133163902D01*
X67875138Y-132958643D01*
X67684763Y-132779557D01*
X67494556Y-132647605D01*
X67449986Y-132592342D01*
X67442369Y-132521755D01*
X67477281Y-132454983D01*
X68028635Y-131903629D01*
X68295864Y-131636401D01*
X68358174Y-131602376D01*
X68428989Y-131607441D01*
G37*
G04 #@! TD.AperFunction*
G04 #@! TA.AperFunction,Conductor*
G36*
X100923600Y-122810547D02*
G01*
X100978347Y-122855750D01*
X101000000Y-122926374D01*
X101000000Y-126993813D01*
X100999393Y-127006163D01*
X100986735Y-127134686D01*
X100982002Y-127182737D01*
X100977185Y-127206957D01*
X100951323Y-127292216D01*
X100927482Y-127370809D01*
X100918029Y-127393629D01*
X100858898Y-127504257D01*
X100837319Y-127544628D01*
X100823601Y-127565158D01*
X100714974Y-127697521D01*
X100697521Y-127714974D01*
X100565158Y-127823601D01*
X100544631Y-127837317D01*
X100485886Y-127868717D01*
X100393629Y-127918029D01*
X100370810Y-127927482D01*
X100206957Y-127977185D01*
X100182740Y-127982001D01*
X100033434Y-127996707D01*
X100006163Y-127999393D01*
X99993813Y-128000000D01*
X95184796Y-128000000D01*
X95116675Y-127979998D01*
X95070182Y-127926342D01*
X95060078Y-127856068D01*
X95089572Y-127791488D01*
X95095701Y-127784905D01*
X99096421Y-123784185D01*
X99158733Y-123750159D01*
X99218127Y-123751573D01*
X99276332Y-123767169D01*
X99276334Y-123767169D01*
X99281647Y-123768593D01*
X99509751Y-123788550D01*
X99737855Y-123768593D01*
X99743168Y-123767169D01*
X99743170Y-123767169D01*
X99953718Y-123710753D01*
X99953720Y-123710752D01*
X99959028Y-123709330D01*
X99990902Y-123694467D01*
X100161564Y-123614887D01*
X100161569Y-123614884D01*
X100166551Y-123612561D01*
X100354116Y-123481226D01*
X100516026Y-123319316D01*
X100532265Y-123296125D01*
X100644204Y-123136259D01*
X100644205Y-123136257D01*
X100647361Y-123131750D01*
X100649684Y-123126768D01*
X100649687Y-123126763D01*
X100741807Y-122929210D01*
X100741808Y-122929209D01*
X100744130Y-122924228D01*
X100752293Y-122893763D01*
X100789245Y-122833140D01*
X100853105Y-122802119D01*
X100923600Y-122810547D01*
G37*
G04 #@! TD.AperFunction*
G04 #@! TA.AperFunction,Conductor*
G36*
X80516708Y-122602602D02*
G01*
X80531656Y-122614649D01*
X80533539Y-122617161D01*
X80633872Y-122692356D01*
X80642969Y-122699174D01*
X80685484Y-122756033D01*
X80690510Y-122826851D01*
X80656450Y-122889145D01*
X80642972Y-122900823D01*
X80533539Y-122982839D01*
X80533496Y-122982781D01*
X80475370Y-123014521D01*
X80448587Y-123017400D01*
X79383371Y-123017400D01*
X79315250Y-122997398D01*
X79268757Y-122943742D01*
X79258653Y-122873468D01*
X79261664Y-122858789D01*
X79303393Y-122703055D01*
X79303873Y-122697566D01*
X79304826Y-122692162D01*
X79305925Y-122692356D01*
X79329736Y-122631494D01*
X79387242Y-122589858D01*
X79429389Y-122582600D01*
X80448587Y-122582600D01*
X80516708Y-122602602D01*
G37*
G04 #@! TD.AperFunction*
G04 #@! TA.AperFunction,Conductor*
G36*
X56484532Y-114500894D02*
G01*
X56541368Y-114543441D01*
X56566179Y-114609961D01*
X56566500Y-114618950D01*
X56566500Y-117766405D01*
X56546498Y-117834526D01*
X56492842Y-117881019D01*
X56422568Y-117891123D01*
X56357988Y-117861629D01*
X56351405Y-117855500D01*
X56344770Y-117848865D01*
X56341573Y-117846385D01*
X56332551Y-117838680D01*
X56329861Y-117836154D01*
X56300321Y-117808414D01*
X56293375Y-117804595D01*
X56293372Y-117804593D01*
X56282566Y-117798652D01*
X56266047Y-117787801D01*
X56260467Y-117783473D01*
X56250041Y-117775386D01*
X56242772Y-117772241D01*
X56242768Y-117772238D01*
X56209463Y-117757826D01*
X56198813Y-117752609D01*
X56160060Y-117731305D01*
X56140437Y-117726267D01*
X56121734Y-117719863D01*
X56110420Y-117714967D01*
X56110419Y-117714967D01*
X56103145Y-117711819D01*
X56095322Y-117710580D01*
X56095312Y-117710577D01*
X56059476Y-117704901D01*
X56047856Y-117702495D01*
X56012711Y-117693472D01*
X56012710Y-117693472D01*
X56005030Y-117691500D01*
X55984776Y-117691500D01*
X55965065Y-117689949D01*
X55952886Y-117688020D01*
X55945057Y-117686780D01*
X55937165Y-117687526D01*
X55901039Y-117690941D01*
X55889181Y-117691500D01*
X55295710Y-117691500D01*
X55227589Y-117671498D01*
X55206615Y-117654595D01*
X55141115Y-117589095D01*
X55107089Y-117526783D01*
X55112154Y-117455968D01*
X55141115Y-117410905D01*
X55236639Y-117315381D01*
X55325472Y-117168699D01*
X55376753Y-117005062D01*
X55383500Y-116931635D01*
X55383499Y-116418366D01*
X55383234Y-116415474D01*
X55377364Y-116351592D01*
X55376753Y-116344938D01*
X55325472Y-116181301D01*
X55284519Y-116113679D01*
X55240536Y-116041053D01*
X55222357Y-115972423D01*
X55244168Y-115904860D01*
X55259217Y-115886687D01*
X55413199Y-115732705D01*
X55463357Y-115701967D01*
X55548233Y-115674389D01*
X55548235Y-115674388D01*
X55554929Y-115672213D01*
X55696279Y-115587951D01*
X55815449Y-115474468D01*
X55819350Y-115468597D01*
X55902614Y-115343275D01*
X55902615Y-115343273D01*
X55906515Y-115337403D01*
X55964951Y-115183568D01*
X55987853Y-115020610D01*
X55988141Y-115000000D01*
X55971785Y-114854180D01*
X55971000Y-114840136D01*
X55971000Y-114791967D01*
X55991002Y-114723846D01*
X56044658Y-114677353D01*
X56061848Y-114670970D01*
X56180986Y-114636358D01*
X56180991Y-114636356D01*
X56188601Y-114634145D01*
X56229494Y-114609961D01*
X56324980Y-114553491D01*
X56324983Y-114553489D01*
X56331807Y-114549453D01*
X56351405Y-114529855D01*
X56413717Y-114495829D01*
X56484532Y-114500894D01*
G37*
G04 #@! TD.AperFunction*
G04 #@! TA.AperFunction,Conductor*
G36*
X52391912Y-113539274D02*
G01*
X52436975Y-113568235D01*
X52468193Y-113599453D01*
X52475017Y-113603489D01*
X52475020Y-113603491D01*
X52561348Y-113654545D01*
X52611399Y-113684145D01*
X52619010Y-113686356D01*
X52619012Y-113686357D01*
X52671231Y-113701528D01*
X52771169Y-113730562D01*
X52777574Y-113731066D01*
X52777579Y-113731067D01*
X52806042Y-113733307D01*
X52806050Y-113733307D01*
X52808498Y-113733500D01*
X53965500Y-113733500D01*
X54033621Y-113753502D01*
X54080114Y-113807158D01*
X54091500Y-113859500D01*
X54091500Y-113891000D01*
X54071498Y-113959121D01*
X54017842Y-114005614D01*
X53965500Y-114017000D01*
X53734615Y-114017000D01*
X53719376Y-114021475D01*
X53718171Y-114022865D01*
X53716500Y-114030548D01*
X53716500Y-115614884D01*
X53720975Y-115630123D01*
X53728670Y-115636791D01*
X53767054Y-115696518D01*
X53768042Y-115754246D01*
X53769465Y-115754426D01*
X53768472Y-115762291D01*
X53766500Y-115769970D01*
X53766500Y-115790224D01*
X53764947Y-115809943D01*
X53764500Y-115812764D01*
X53734084Y-115876915D01*
X53705324Y-115900821D01*
X53691118Y-115909424D01*
X53691112Y-115909429D01*
X53684619Y-115913361D01*
X53563361Y-116034619D01*
X53474528Y-116181301D01*
X53423247Y-116344938D01*
X53416500Y-116418365D01*
X53416501Y-116931634D01*
X53416629Y-116933026D01*
X53399821Y-117001756D01*
X53348349Y-117050655D01*
X53278611Y-117063963D01*
X53212748Y-117037456D01*
X53189992Y-117014121D01*
X53185169Y-117007685D01*
X53113261Y-116911739D01*
X52996705Y-116824385D01*
X52860316Y-116773255D01*
X52798134Y-116766500D01*
X51498500Y-116766500D01*
X51430379Y-116746498D01*
X51383886Y-116692842D01*
X51372500Y-116640500D01*
X51372500Y-115534500D01*
X51392502Y-115466379D01*
X51446158Y-115419886D01*
X51498500Y-115408500D01*
X51816484Y-115408499D01*
X51831634Y-115408499D01*
X51834492Y-115408236D01*
X51834501Y-115408236D01*
X51870004Y-115404974D01*
X51905062Y-115401753D01*
X51991468Y-115374675D01*
X52061450Y-115352744D01*
X52061452Y-115352743D01*
X52068699Y-115350472D01*
X52154093Y-115298756D01*
X52222723Y-115280577D01*
X52290286Y-115302388D01*
X52327817Y-115342392D01*
X52346909Y-115374675D01*
X52356551Y-115387104D01*
X52462896Y-115493449D01*
X52475322Y-115503089D01*
X52604779Y-115579648D01*
X52619210Y-115585893D01*
X52765065Y-115628269D01*
X52777667Y-115630570D01*
X52806084Y-115632807D01*
X52811014Y-115633000D01*
X53190385Y-115633000D01*
X53205624Y-115628525D01*
X53206829Y-115627135D01*
X53208500Y-115619452D01*
X53208500Y-114035116D01*
X53204025Y-114019877D01*
X53202635Y-114018672D01*
X53194952Y-114017001D01*
X52811017Y-114017001D01*
X52806080Y-114017195D01*
X52777664Y-114019430D01*
X52765069Y-114021730D01*
X52619210Y-114064107D01*
X52597502Y-114073501D01*
X52596783Y-114071840D01*
X52537556Y-114086863D01*
X52470226Y-114064341D01*
X52427571Y-114013000D01*
X52425472Y-114006301D01*
X52336639Y-113859619D01*
X52241115Y-113764095D01*
X52207089Y-113701783D01*
X52212154Y-113630968D01*
X52241115Y-113585905D01*
X52258785Y-113568235D01*
X52321097Y-113534209D01*
X52391912Y-113539274D01*
G37*
G04 #@! TD.AperFunction*
G04 #@! TA.AperFunction,Conductor*
G36*
X52602814Y-101911574D02*
G01*
X52615693Y-101924453D01*
X52622517Y-101928489D01*
X52622520Y-101928491D01*
X52730089Y-101992107D01*
X52758899Y-102009145D01*
X52766510Y-102011356D01*
X52766512Y-102011357D01*
X52818731Y-102026528D01*
X52918669Y-102055562D01*
X52925074Y-102056066D01*
X52925079Y-102056067D01*
X52953542Y-102058307D01*
X52953550Y-102058307D01*
X52955998Y-102058500D01*
X54113000Y-102058500D01*
X54181121Y-102078502D01*
X54227614Y-102132158D01*
X54239000Y-102184500D01*
X54239000Y-102216000D01*
X54218998Y-102284121D01*
X54165342Y-102330614D01*
X54113000Y-102342000D01*
X53882115Y-102342000D01*
X53866876Y-102346475D01*
X53865671Y-102347865D01*
X53864000Y-102355548D01*
X53864000Y-103939884D01*
X53871774Y-103966358D01*
X53898007Y-104007176D01*
X53898009Y-104078173D01*
X53866207Y-104131773D01*
X53763361Y-104234619D01*
X53674528Y-104381301D01*
X53672257Y-104388548D01*
X53672256Y-104388550D01*
X53651565Y-104454575D01*
X53623247Y-104544938D01*
X53616500Y-104618365D01*
X53616501Y-105131634D01*
X53616764Y-105134492D01*
X53616764Y-105134501D01*
X53620026Y-105170004D01*
X53623247Y-105205062D01*
X53625246Y-105211440D01*
X53625246Y-105211441D01*
X53669701Y-105353295D01*
X53674528Y-105368699D01*
X53763361Y-105515381D01*
X53858885Y-105610905D01*
X53892911Y-105673217D01*
X53887846Y-105744032D01*
X53858885Y-105789095D01*
X53763361Y-105884619D01*
X53674528Y-106031301D01*
X53623247Y-106194938D01*
X53616500Y-106268365D01*
X53616501Y-106781634D01*
X53616764Y-106784492D01*
X53616764Y-106784501D01*
X53620026Y-106820004D01*
X53623247Y-106855062D01*
X53674528Y-107018699D01*
X53763361Y-107165381D01*
X53884619Y-107286639D01*
X54031301Y-107375472D01*
X54038548Y-107377743D01*
X54038550Y-107377744D01*
X54071450Y-107388054D01*
X54194938Y-107426753D01*
X54268365Y-107433500D01*
X54286474Y-107433500D01*
X54560406Y-107433499D01*
X54628525Y-107453501D01*
X54649500Y-107470404D01*
X56529595Y-109350499D01*
X56563621Y-109412811D01*
X56566500Y-109439594D01*
X56566500Y-113131050D01*
X56546498Y-113199171D01*
X56492842Y-113245664D01*
X56422568Y-113255768D01*
X56357988Y-113226274D01*
X56351405Y-113220145D01*
X56331807Y-113200547D01*
X56324983Y-113196511D01*
X56324980Y-113196509D01*
X56195427Y-113119892D01*
X56195428Y-113119892D01*
X56188601Y-113115855D01*
X56180990Y-113113644D01*
X56180988Y-113113643D01*
X56053421Y-113076582D01*
X55993586Y-113038369D01*
X55963908Y-112973873D01*
X55966034Y-112933720D01*
X55964951Y-112933568D01*
X55987302Y-112774534D01*
X55987303Y-112774527D01*
X55987853Y-112770610D01*
X55988141Y-112750000D01*
X55969798Y-112586466D01*
X55963998Y-112569809D01*
X55944209Y-112512984D01*
X55915680Y-112431060D01*
X55828476Y-112291505D01*
X55767297Y-112229898D01*
X55717486Y-112179737D01*
X55717482Y-112179734D01*
X55712522Y-112174739D01*
X55573580Y-112086563D01*
X55499098Y-112060041D01*
X55425189Y-112033723D01*
X55425187Y-112033722D01*
X55418555Y-112031361D01*
X55411569Y-112030528D01*
X55411565Y-112030527D01*
X55297071Y-112016875D01*
X55255153Y-112011877D01*
X55248150Y-112012613D01*
X55248149Y-112012613D01*
X55204935Y-112017155D01*
X55091495Y-112029078D01*
X55084827Y-112031348D01*
X54942382Y-112079840D01*
X54942379Y-112079841D01*
X54935715Y-112082110D01*
X54795555Y-112168337D01*
X54681353Y-112280172D01*
X54681350Y-112280174D01*
X54677982Y-112283473D01*
X54677402Y-112282881D01*
X54623552Y-112319802D01*
X54552587Y-112321917D01*
X54495372Y-112289112D01*
X54456807Y-112250547D01*
X54449983Y-112246511D01*
X54449980Y-112246509D01*
X54326132Y-112173266D01*
X54313601Y-112165855D01*
X54305990Y-112163644D01*
X54305988Y-112163643D01*
X54179347Y-112126851D01*
X54119512Y-112088638D01*
X54089834Y-112024142D01*
X54088500Y-112005854D01*
X54088500Y-111856528D01*
X54108502Y-111788407D01*
X54136927Y-111757238D01*
X54193991Y-111712655D01*
X54193992Y-111712654D01*
X54198847Y-111708861D01*
X54328078Y-111559145D01*
X54425769Y-111387179D01*
X54488197Y-111199513D01*
X54512985Y-111003295D01*
X54513380Y-110975000D01*
X54494080Y-110778167D01*
X54436916Y-110588831D01*
X54344066Y-110414204D01*
X54257856Y-110308500D01*
X54222960Y-110265713D01*
X54222957Y-110265710D01*
X54219065Y-110260938D01*
X54214318Y-110257011D01*
X54214315Y-110257008D01*
X54157955Y-110210383D01*
X54118217Y-110151550D01*
X54116596Y-110080572D01*
X54153605Y-110019984D01*
X54217495Y-109989024D01*
X54233616Y-109987856D01*
X54234542Y-109987979D01*
X54241553Y-109987341D01*
X54241557Y-109987341D01*
X54391403Y-109973704D01*
X54391404Y-109973704D01*
X54398424Y-109973065D01*
X54433571Y-109961645D01*
X54548230Y-109924390D01*
X54548233Y-109924389D01*
X54554929Y-109922213D01*
X54696279Y-109837951D01*
X54815449Y-109724468D01*
X54831458Y-109700373D01*
X54902614Y-109593275D01*
X54902615Y-109593273D01*
X54906515Y-109587403D01*
X54964951Y-109433568D01*
X54973760Y-109370887D01*
X54987302Y-109274534D01*
X54987303Y-109274527D01*
X54987853Y-109270610D01*
X54988141Y-109250000D01*
X54969798Y-109086466D01*
X54915680Y-108931060D01*
X54828476Y-108791505D01*
X54770499Y-108733122D01*
X54717486Y-108679737D01*
X54717482Y-108679734D01*
X54712522Y-108674739D01*
X54573580Y-108586563D01*
X54524447Y-108569068D01*
X54425189Y-108533723D01*
X54425187Y-108533722D01*
X54418555Y-108531361D01*
X54411569Y-108530528D01*
X54411565Y-108530527D01*
X54278903Y-108514709D01*
X54255153Y-108511877D01*
X54248150Y-108512613D01*
X54248149Y-108512613D01*
X54222033Y-108515358D01*
X54091495Y-108529078D01*
X54084827Y-108531348D01*
X53942382Y-108579840D01*
X53942379Y-108579841D01*
X53935715Y-108582110D01*
X53912359Y-108596479D01*
X53910182Y-108597818D01*
X53844160Y-108616500D01*
X53657359Y-108616500D01*
X53589848Y-108596887D01*
X53573580Y-108586563D01*
X53524447Y-108569068D01*
X53425189Y-108533723D01*
X53425187Y-108533722D01*
X53418555Y-108531361D01*
X53411569Y-108530528D01*
X53411565Y-108530527D01*
X53278903Y-108514709D01*
X53255153Y-108511877D01*
X53248150Y-108512613D01*
X53248149Y-108512613D01*
X53222033Y-108515358D01*
X53091495Y-108529078D01*
X53084827Y-108531348D01*
X52942382Y-108579840D01*
X52942379Y-108579841D01*
X52935715Y-108582110D01*
X52912359Y-108596479D01*
X52910182Y-108597818D01*
X52844160Y-108616500D01*
X52787000Y-108616500D01*
X52718879Y-108596498D01*
X52672386Y-108542842D01*
X52661000Y-108490500D01*
X52661000Y-108420394D01*
X52681002Y-108352273D01*
X52734848Y-108305694D01*
X52758210Y-108295072D01*
X52758214Y-108295070D01*
X52762289Y-108293217D01*
X52862577Y-108229080D01*
X52881221Y-108217157D01*
X52881222Y-108217156D01*
X52884997Y-108214742D01*
X52993498Y-108121252D01*
X53089250Y-108011489D01*
X53094725Y-108003043D01*
X53164714Y-107895062D01*
X53167150Y-107891304D01*
X53188094Y-107845978D01*
X53226368Y-107763145D01*
X53226369Y-107763143D01*
X53228248Y-107759076D01*
X53269284Y-107621858D01*
X53275789Y-107578334D01*
X53290150Y-107482235D01*
X53290150Y-107482232D01*
X53290812Y-107477804D01*
X53291687Y-107334583D01*
X53291352Y-107332139D01*
X53291229Y-107328344D01*
X53291229Y-106850000D01*
X53287512Y-106798032D01*
X53286482Y-106783625D01*
X53286482Y-106783623D01*
X53286000Y-106776889D01*
X53282385Y-106764577D01*
X53280974Y-106710504D01*
X53279245Y-106710316D01*
X53285631Y-106651531D01*
X53286000Y-106648134D01*
X53286000Y-105551866D01*
X53279245Y-105489684D01*
X53228115Y-105353295D01*
X53140761Y-105236739D01*
X53024205Y-105149385D01*
X52887816Y-105098255D01*
X52825634Y-105091500D01*
X51498500Y-105091500D01*
X51430379Y-105071498D01*
X51383886Y-105017842D01*
X51372500Y-104965500D01*
X51372500Y-103959500D01*
X51392502Y-103891379D01*
X51446158Y-103844886D01*
X51498500Y-103833500D01*
X51904462Y-103833499D01*
X51916634Y-103833499D01*
X51919492Y-103833236D01*
X51919501Y-103833236D01*
X51955004Y-103829974D01*
X51990062Y-103826753D01*
X52019547Y-103817513D01*
X52146450Y-103777744D01*
X52146452Y-103777743D01*
X52153699Y-103775472D01*
X52300381Y-103686639D01*
X52305757Y-103681263D01*
X52311728Y-103676581D01*
X52313221Y-103678485D01*
X52365210Y-103650096D01*
X52436025Y-103655161D01*
X52491552Y-103695990D01*
X52504054Y-103712107D01*
X52610396Y-103818449D01*
X52622822Y-103828089D01*
X52752279Y-103904648D01*
X52766710Y-103910893D01*
X52912565Y-103953269D01*
X52925167Y-103955570D01*
X52953584Y-103957807D01*
X52958514Y-103958000D01*
X53337885Y-103958000D01*
X53353124Y-103953525D01*
X53354329Y-103952135D01*
X53356000Y-103944452D01*
X53356000Y-102360116D01*
X53351525Y-102344877D01*
X53350135Y-102343672D01*
X53342452Y-102342001D01*
X52958517Y-102342001D01*
X52953580Y-102342195D01*
X52925164Y-102344430D01*
X52912569Y-102346730D01*
X52766710Y-102389107D01*
X52752275Y-102395354D01*
X52665531Y-102446653D01*
X52596715Y-102464112D01*
X52529384Y-102441595D01*
X52493617Y-102403470D01*
X52461440Y-102350339D01*
X52421639Y-102284619D01*
X52326115Y-102189095D01*
X52292089Y-102126783D01*
X52297154Y-102055968D01*
X52326115Y-102010905D01*
X52421639Y-101915381D01*
X52423091Y-101916833D01*
X52472337Y-101881658D01*
X52543248Y-101878178D01*
X52602814Y-101911574D01*
G37*
G04 #@! TD.AperFunction*
G04 #@! TA.AperFunction,Conductor*
G36*
X51208958Y-108239235D02*
G01*
X51267317Y-108278599D01*
X51267322Y-108278602D01*
X51271036Y-108281107D01*
X51322941Y-108306254D01*
X51375521Y-108353955D01*
X51394000Y-108419645D01*
X51394000Y-108948733D01*
X51393473Y-108959916D01*
X51391798Y-108967409D01*
X51392047Y-108975335D01*
X51392047Y-108975336D01*
X51393938Y-109035486D01*
X51394000Y-109039445D01*
X51394000Y-109067356D01*
X51394497Y-109071290D01*
X51394497Y-109071291D01*
X51394505Y-109071356D01*
X51395438Y-109083193D01*
X51396827Y-109127389D01*
X51402478Y-109146839D01*
X51406487Y-109166200D01*
X51409026Y-109186297D01*
X51411945Y-109193668D01*
X51411945Y-109193670D01*
X51425304Y-109227412D01*
X51429149Y-109238642D01*
X51441482Y-109281093D01*
X51445515Y-109287912D01*
X51445517Y-109287917D01*
X51451793Y-109298528D01*
X51460488Y-109316276D01*
X51467948Y-109335117D01*
X51472610Y-109341533D01*
X51472610Y-109341534D01*
X51493936Y-109370887D01*
X51500452Y-109380807D01*
X51522958Y-109418862D01*
X51527241Y-109423145D01*
X51546586Y-109459374D01*
X51579932Y-109559615D01*
X51665179Y-109700373D01*
X51779491Y-109818747D01*
X51917189Y-109908854D01*
X52071428Y-109966215D01*
X52078409Y-109967146D01*
X52078411Y-109967147D01*
X52227561Y-109987048D01*
X52227565Y-109987048D01*
X52234542Y-109987979D01*
X52241553Y-109987341D01*
X52241557Y-109987341D01*
X52391403Y-109973704D01*
X52391404Y-109973704D01*
X52398424Y-109973065D01*
X52433571Y-109961645D01*
X52548230Y-109924390D01*
X52548233Y-109924389D01*
X52554929Y-109922213D01*
X52590059Y-109901271D01*
X52654577Y-109883500D01*
X52840882Y-109883500D01*
X52904661Y-109902513D01*
X52905010Y-109901822D01*
X52908851Y-109903762D01*
X52909873Y-109904067D01*
X52911007Y-109904808D01*
X52917189Y-109908854D01*
X52923788Y-109911308D01*
X52927701Y-109913285D01*
X52979485Y-109961854D01*
X52996789Y-110030710D01*
X52974121Y-110097990D01*
X52944691Y-110126519D01*
X52945110Y-110127040D01*
X52790975Y-110250968D01*
X52663846Y-110402474D01*
X52660879Y-110407872D01*
X52660875Y-110407877D01*
X52657397Y-110414204D01*
X52568567Y-110575787D01*
X52566706Y-110581654D01*
X52566705Y-110581656D01*
X52510627Y-110758436D01*
X52508765Y-110764306D01*
X52486719Y-110960851D01*
X52503268Y-111157934D01*
X52557783Y-111348050D01*
X52648187Y-111523956D01*
X52771035Y-111678953D01*
X52775728Y-111682947D01*
X52775729Y-111682948D01*
X52867163Y-111760764D01*
X52906076Y-111820147D01*
X52911500Y-111856718D01*
X52911500Y-111991920D01*
X52891498Y-112060041D01*
X52837842Y-112106534D01*
X52795386Y-112117532D01*
X52777579Y-112118933D01*
X52777574Y-112118934D01*
X52771169Y-112119438D01*
X52677913Y-112146531D01*
X52619012Y-112163643D01*
X52619010Y-112163644D01*
X52611399Y-112165855D01*
X52494558Y-112234955D01*
X52425744Y-112252414D01*
X52358413Y-112229898D01*
X52336791Y-112209467D01*
X52336639Y-112209619D01*
X52215381Y-112088361D01*
X52068699Y-111999528D01*
X52061452Y-111997257D01*
X52061450Y-111997256D01*
X51987501Y-111974082D01*
X51905062Y-111948247D01*
X51831635Y-111941500D01*
X51828737Y-111941500D01*
X51499140Y-111941501D01*
X51168366Y-111941501D01*
X51165505Y-111941764D01*
X51165480Y-111941765D01*
X51150028Y-111943185D01*
X51080363Y-111929500D01*
X51029156Y-111880323D01*
X51012500Y-111817714D01*
X51012500Y-108343694D01*
X51032502Y-108275573D01*
X51086158Y-108229080D01*
X51156432Y-108218976D01*
X51208958Y-108239235D01*
G37*
G04 #@! TD.AperFunction*
G04 #@! TA.AperFunction,Conductor*
G36*
X56383885Y-103351219D02*
G01*
X56439102Y-103395846D01*
X56461500Y-103467558D01*
X56461500Y-103579873D01*
X56460973Y-103591056D01*
X56459298Y-103598549D01*
X56459547Y-103606475D01*
X56459547Y-103606476D01*
X56461438Y-103666626D01*
X56461500Y-103670585D01*
X56461500Y-103698496D01*
X56461997Y-103702430D01*
X56461997Y-103702431D01*
X56462005Y-103702496D01*
X56462938Y-103714333D01*
X56464327Y-103758529D01*
X56469978Y-103777979D01*
X56473987Y-103797340D01*
X56476526Y-103817437D01*
X56479445Y-103824808D01*
X56479445Y-103824810D01*
X56492804Y-103858552D01*
X56496649Y-103869782D01*
X56503178Y-103892255D01*
X56508982Y-103912233D01*
X56513015Y-103919052D01*
X56513017Y-103919057D01*
X56519293Y-103929668D01*
X56527988Y-103947416D01*
X56535448Y-103966257D01*
X56540110Y-103972673D01*
X56540110Y-103972674D01*
X56561436Y-104002027D01*
X56567952Y-104011947D01*
X56584459Y-104039858D01*
X56590458Y-104050002D01*
X56604779Y-104064323D01*
X56617619Y-104079356D01*
X56629528Y-104095747D01*
X56635634Y-104100798D01*
X56663605Y-104123938D01*
X56672384Y-104131928D01*
X56979595Y-104439139D01*
X57013621Y-104501451D01*
X57016500Y-104528234D01*
X57016500Y-107741405D01*
X56996498Y-107809526D01*
X56942842Y-107856019D01*
X56872568Y-107866123D01*
X56807988Y-107836629D01*
X56801405Y-107830500D01*
X55620405Y-106649500D01*
X55586379Y-106587188D01*
X55583500Y-106560405D01*
X55583499Y-106271249D01*
X55583499Y-106268366D01*
X55583234Y-106265474D01*
X55577364Y-106201592D01*
X55576753Y-106194938D01*
X55525472Y-106031301D01*
X55436639Y-105884619D01*
X55341115Y-105789095D01*
X55307089Y-105726783D01*
X55312154Y-105655968D01*
X55341115Y-105610905D01*
X55436639Y-105515381D01*
X55525472Y-105368699D01*
X55530300Y-105353295D01*
X55556333Y-105270222D01*
X55576753Y-105205062D01*
X55583500Y-105131635D01*
X55583499Y-104839595D01*
X55603501Y-104771476D01*
X55620404Y-104750500D01*
X55734736Y-104636169D01*
X55877258Y-104493647D01*
X55885537Y-104486113D01*
X55892018Y-104482000D01*
X55938644Y-104432348D01*
X55941398Y-104429507D01*
X55961135Y-104409770D01*
X55963615Y-104406573D01*
X55971320Y-104397551D01*
X56001586Y-104365321D01*
X56005405Y-104358375D01*
X56005407Y-104358372D01*
X56011348Y-104347566D01*
X56022199Y-104331047D01*
X56029758Y-104321301D01*
X56034614Y-104315041D01*
X56037759Y-104307772D01*
X56037762Y-104307768D01*
X56052174Y-104274463D01*
X56057391Y-104263813D01*
X56078695Y-104225060D01*
X56083733Y-104205437D01*
X56090137Y-104186734D01*
X56095033Y-104175420D01*
X56095033Y-104175419D01*
X56098181Y-104168145D01*
X56099420Y-104160322D01*
X56099423Y-104160312D01*
X56105099Y-104124476D01*
X56107505Y-104112856D01*
X56116528Y-104077711D01*
X56116528Y-104077710D01*
X56118500Y-104070030D01*
X56118500Y-104049776D01*
X56120051Y-104030065D01*
X56121980Y-104017886D01*
X56123220Y-104010057D01*
X56119059Y-103966038D01*
X56118500Y-103954181D01*
X56118500Y-103682661D01*
X56139551Y-103612935D01*
X56156515Y-103587403D01*
X56191112Y-103496326D01*
X56212450Y-103440153D01*
X56212451Y-103440150D01*
X56214951Y-103433568D01*
X56215023Y-103433595D01*
X56249774Y-103375216D01*
X56313306Y-103343528D01*
X56383885Y-103351219D01*
G37*
G04 #@! TD.AperFunction*
G04 #@! TA.AperFunction,Conductor*
G36*
X53472241Y-95326686D02*
G01*
X53497505Y-95356639D01*
X53563361Y-95465381D01*
X53684619Y-95586639D01*
X53831301Y-95675472D01*
X53838548Y-95677743D01*
X53838550Y-95677744D01*
X53904836Y-95698517D01*
X53994938Y-95726753D01*
X54068365Y-95733500D01*
X54071263Y-95733500D01*
X54400860Y-95733499D01*
X54731634Y-95733499D01*
X54734492Y-95733236D01*
X54734501Y-95733236D01*
X54769840Y-95729989D01*
X54839505Y-95743676D01*
X54870462Y-95766366D01*
X55669896Y-96565801D01*
X56424595Y-97320500D01*
X56458621Y-97382812D01*
X56461500Y-97409595D01*
X56461500Y-101309471D01*
X56441498Y-101377592D01*
X56387842Y-101424085D01*
X56317568Y-101434189D01*
X56300352Y-101430469D01*
X56246711Y-101414885D01*
X56182508Y-101396232D01*
X56182503Y-101396231D01*
X56176331Y-101394438D01*
X56169926Y-101393934D01*
X56169921Y-101393933D01*
X56141458Y-101391693D01*
X56141450Y-101391693D01*
X56139002Y-101391500D01*
X55863937Y-101391500D01*
X55795816Y-101371498D01*
X55749323Y-101317842D01*
X55737949Y-101263739D01*
X55738086Y-101253962D01*
X55738086Y-101253956D01*
X55738141Y-101250000D01*
X55719798Y-101086466D01*
X55665680Y-100931060D01*
X55578476Y-100791505D01*
X55520499Y-100733122D01*
X55467486Y-100679737D01*
X55467482Y-100679734D01*
X55462522Y-100674739D01*
X55323580Y-100586563D01*
X55270887Y-100567800D01*
X55175189Y-100533723D01*
X55175187Y-100533722D01*
X55168555Y-100531361D01*
X55161569Y-100530528D01*
X55161565Y-100530527D01*
X55028903Y-100514709D01*
X55005153Y-100511877D01*
X54998150Y-100512613D01*
X54998149Y-100512613D01*
X54954935Y-100517155D01*
X54841495Y-100529078D01*
X54834827Y-100531348D01*
X54695952Y-100578625D01*
X54625019Y-100581643D01*
X54591211Y-100567802D01*
X54461101Y-100490855D01*
X54453490Y-100488644D01*
X54453488Y-100488643D01*
X54401269Y-100473472D01*
X54301331Y-100444438D01*
X54294924Y-100443934D01*
X54294920Y-100443933D01*
X54289616Y-100443516D01*
X54223274Y-100418231D01*
X54181133Y-100361094D01*
X54173500Y-100317904D01*
X54173500Y-100181528D01*
X54193502Y-100113407D01*
X54221927Y-100082238D01*
X54278991Y-100037655D01*
X54278992Y-100037654D01*
X54283847Y-100033861D01*
X54359789Y-99945881D01*
X54409049Y-99888813D01*
X54409050Y-99888811D01*
X54413078Y-99884145D01*
X54510769Y-99712179D01*
X54573197Y-99524513D01*
X54597985Y-99328295D01*
X54598380Y-99300000D01*
X54579080Y-99103167D01*
X54521916Y-98913831D01*
X54429066Y-98739204D01*
X54311143Y-98594616D01*
X54307960Y-98590713D01*
X54307957Y-98590710D01*
X54304065Y-98585938D01*
X54297724Y-98580692D01*
X54156425Y-98463799D01*
X54156421Y-98463797D01*
X54151675Y-98459870D01*
X53977701Y-98365802D01*
X53788768Y-98307318D01*
X53782643Y-98306674D01*
X53782642Y-98306674D01*
X53598204Y-98287289D01*
X53598202Y-98287289D01*
X53592075Y-98286645D01*
X53509576Y-98294153D01*
X53401251Y-98304011D01*
X53401248Y-98304012D01*
X53395112Y-98304570D01*
X53389206Y-98306308D01*
X53389202Y-98306309D01*
X53311279Y-98329243D01*
X53205381Y-98360410D01*
X53199923Y-98363263D01*
X53199919Y-98363265D01*
X53146376Y-98391257D01*
X53030110Y-98452040D01*
X52875975Y-98575968D01*
X52748846Y-98727474D01*
X52745879Y-98732872D01*
X52745875Y-98732877D01*
X52726444Y-98768223D01*
X52653567Y-98900787D01*
X52651706Y-98906654D01*
X52651705Y-98906656D01*
X52619061Y-99009562D01*
X52593765Y-99089306D01*
X52571719Y-99285851D01*
X52572235Y-99291995D01*
X52587073Y-99468699D01*
X52588268Y-99482934D01*
X52589967Y-99488858D01*
X52628915Y-99624685D01*
X52642783Y-99673050D01*
X52645602Y-99678535D01*
X52721792Y-99826783D01*
X52733187Y-99848956D01*
X52856035Y-100003953D01*
X52860728Y-100007947D01*
X52860729Y-100007948D01*
X52952163Y-100085764D01*
X52991076Y-100145147D01*
X52996500Y-100181718D01*
X52996500Y-100327222D01*
X52976498Y-100395343D01*
X52922842Y-100441836D01*
X52905653Y-100448219D01*
X52766512Y-100488643D01*
X52766510Y-100488644D01*
X52758899Y-100490855D01*
X52752072Y-100494892D01*
X52752073Y-100494892D01*
X52622520Y-100571509D01*
X52622517Y-100571511D01*
X52615693Y-100575547D01*
X52578225Y-100613015D01*
X52515913Y-100647041D01*
X52445098Y-100641976D01*
X52400035Y-100613015D01*
X52300381Y-100513361D01*
X52153699Y-100424528D01*
X52146452Y-100422257D01*
X52146450Y-100422256D01*
X52060570Y-100395343D01*
X51990062Y-100373247D01*
X51916635Y-100366500D01*
X51913737Y-100366500D01*
X51584140Y-100366501D01*
X51253366Y-100366501D01*
X51250508Y-100366764D01*
X51250499Y-100366764D01*
X51214996Y-100370026D01*
X51179938Y-100373247D01*
X51173558Y-100375246D01*
X51167004Y-100376559D01*
X51166611Y-100374598D01*
X51105194Y-100375709D01*
X51044784Y-100338412D01*
X51014127Y-100274376D01*
X51012500Y-100254191D01*
X51012500Y-97685594D01*
X51032502Y-97617473D01*
X51049405Y-97596499D01*
X51920270Y-96725634D01*
X51982582Y-96691608D01*
X52009365Y-96688729D01*
X52170519Y-96688729D01*
X52181778Y-96689233D01*
X52231373Y-96693682D01*
X52233795Y-96693712D01*
X52233802Y-96693712D01*
X52237116Y-96693752D01*
X52243715Y-96693833D01*
X52280007Y-96691471D01*
X52320408Y-96688841D01*
X52320418Y-96688840D01*
X52322829Y-96688683D01*
X52326840Y-96688109D01*
X52460161Y-96669016D01*
X52460167Y-96669015D01*
X52464606Y-96668379D01*
X52468911Y-96667120D01*
X52468916Y-96667119D01*
X52600108Y-96628755D01*
X52604410Y-96627497D01*
X52734789Y-96568217D01*
X52738560Y-96565805D01*
X52738568Y-96565801D01*
X52853721Y-96492157D01*
X52853722Y-96492156D01*
X52857497Y-96489742D01*
X52965998Y-96396252D01*
X53061750Y-96286489D01*
X53139650Y-96166304D01*
X53200748Y-96034076D01*
X53241784Y-95896858D01*
X53245415Y-95872565D01*
X53262650Y-95757235D01*
X53262650Y-95757232D01*
X53263312Y-95752804D01*
X53263784Y-95675472D01*
X53264160Y-95614055D01*
X53264160Y-95614050D01*
X53264187Y-95609583D01*
X53263852Y-95607139D01*
X53263729Y-95603344D01*
X53263729Y-95421910D01*
X53283731Y-95353789D01*
X53337387Y-95307296D01*
X53407661Y-95297192D01*
X53472241Y-95326686D01*
G37*
G04 #@! TD.AperFunction*
G04 #@! TA.AperFunction,Conductor*
G36*
X56467508Y-91226950D02*
G01*
X56511977Y-91282295D01*
X56521500Y-91330347D01*
X56521500Y-94954054D01*
X56520422Y-94970499D01*
X56516422Y-95000884D01*
X56517500Y-95009073D01*
X56532762Y-95125000D01*
X56536647Y-95154514D01*
X56558149Y-95206422D01*
X56595946Y-95297673D01*
X56690277Y-95420607D01*
X56696827Y-95425633D01*
X56714591Y-95439264D01*
X56726982Y-95450131D01*
X56874595Y-95597744D01*
X56908621Y-95660056D01*
X56911500Y-95686839D01*
X56911500Y-95711406D01*
X56891498Y-95779527D01*
X56837842Y-95826020D01*
X56767568Y-95836124D01*
X56702988Y-95806630D01*
X56696405Y-95800501D01*
X56140550Y-95244645D01*
X55392206Y-94496301D01*
X55361067Y-94444885D01*
X55327744Y-94338550D01*
X55327743Y-94338548D01*
X55325472Y-94331301D01*
X55236639Y-94184619D01*
X55141115Y-94089095D01*
X55107089Y-94026783D01*
X55112154Y-93955968D01*
X55141115Y-93910905D01*
X55236639Y-93815381D01*
X55325472Y-93668699D01*
X55345084Y-93606119D01*
X55372410Y-93518919D01*
X55376753Y-93505062D01*
X55383500Y-93431635D01*
X55383499Y-93139595D01*
X55403501Y-93071476D01*
X55420404Y-93050500D01*
X55592258Y-92878647D01*
X55600537Y-92871113D01*
X55607018Y-92867000D01*
X55653644Y-92817348D01*
X55656398Y-92814507D01*
X55676135Y-92794770D01*
X55678615Y-92791573D01*
X55686320Y-92782551D01*
X55711159Y-92756100D01*
X55716586Y-92750321D01*
X55720405Y-92743375D01*
X55720407Y-92743372D01*
X55726348Y-92732566D01*
X55737199Y-92716047D01*
X55744758Y-92706301D01*
X55749614Y-92700041D01*
X55752759Y-92692772D01*
X55752762Y-92692768D01*
X55767174Y-92659463D01*
X55772391Y-92648813D01*
X55793695Y-92610060D01*
X55798733Y-92590437D01*
X55805137Y-92571734D01*
X55810033Y-92560420D01*
X55810033Y-92560419D01*
X55813181Y-92553145D01*
X55814420Y-92545322D01*
X55814423Y-92545312D01*
X55820099Y-92509476D01*
X55822505Y-92497856D01*
X55831528Y-92462711D01*
X55831528Y-92462710D01*
X55833500Y-92455030D01*
X55833500Y-92434776D01*
X55835051Y-92415065D01*
X55836980Y-92402886D01*
X55838220Y-92395057D01*
X55834059Y-92351038D01*
X55833500Y-92339181D01*
X55833500Y-91459500D01*
X55853502Y-91391379D01*
X55907158Y-91344886D01*
X55959500Y-91333500D01*
X56029002Y-91333500D01*
X56031450Y-91333307D01*
X56031458Y-91333307D01*
X56059921Y-91331067D01*
X56059926Y-91331066D01*
X56066331Y-91330562D01*
X56183499Y-91296522D01*
X56218488Y-91286357D01*
X56218490Y-91286356D01*
X56226101Y-91284145D01*
X56331363Y-91221893D01*
X56400177Y-91204434D01*
X56467508Y-91226950D01*
G37*
G04 #@! TD.AperFunction*
G04 #@! TA.AperFunction,Conductor*
G36*
X52448162Y-90208024D02*
G01*
X52493225Y-90236985D01*
X52505693Y-90249453D01*
X52512517Y-90253489D01*
X52512520Y-90253491D01*
X52609602Y-90310905D01*
X52648899Y-90334145D01*
X52656510Y-90336356D01*
X52656512Y-90336357D01*
X52708731Y-90351528D01*
X52808669Y-90380562D01*
X52815074Y-90381066D01*
X52815079Y-90381067D01*
X52843542Y-90383307D01*
X52843550Y-90383307D01*
X52845998Y-90383500D01*
X54003000Y-90383500D01*
X54071121Y-90403502D01*
X54117614Y-90457158D01*
X54129000Y-90509500D01*
X54129000Y-90541000D01*
X54108998Y-90609121D01*
X54055342Y-90655614D01*
X54003000Y-90667000D01*
X53772115Y-90667000D01*
X53756876Y-90671475D01*
X53755671Y-90672865D01*
X53754000Y-90680548D01*
X53754000Y-92282999D01*
X53753221Y-92282999D01*
X53753220Y-92333226D01*
X53714835Y-92392952D01*
X53697598Y-92405500D01*
X53691123Y-92409422D01*
X53684619Y-92413361D01*
X53563361Y-92534619D01*
X53474528Y-92681301D01*
X53472257Y-92688548D01*
X53472256Y-92688550D01*
X53458462Y-92732566D01*
X53423247Y-92844938D01*
X53416500Y-92918365D01*
X53416501Y-93431634D01*
X53416764Y-93434492D01*
X53416764Y-93434501D01*
X53420026Y-93470004D01*
X53423247Y-93505062D01*
X53432672Y-93535137D01*
X53433957Y-93606119D01*
X53415959Y-93635271D01*
X53435207Y-93639075D01*
X53484717Y-93685523D01*
X53563361Y-93815381D01*
X53658885Y-93910905D01*
X53692911Y-93973217D01*
X53687846Y-94044032D01*
X53658885Y-94089095D01*
X53563361Y-94184619D01*
X53559424Y-94191120D01*
X53492276Y-94301995D01*
X53439879Y-94349902D01*
X53369899Y-94361875D01*
X53304555Y-94334114D01*
X53264593Y-94275432D01*
X53258500Y-94236724D01*
X53258500Y-93826866D01*
X53251745Y-93764684D01*
X53255171Y-93764312D01*
X53258067Y-93709020D01*
X53272040Y-93689593D01*
X53262179Y-93688357D01*
X53207690Y-93642843D01*
X53203444Y-93635840D01*
X53200615Y-93628295D01*
X53113261Y-93511739D01*
X52996705Y-93424385D01*
X52860316Y-93373255D01*
X52798134Y-93366500D01*
X51464500Y-93366500D01*
X51396379Y-93346498D01*
X51349886Y-93292842D01*
X51338500Y-93240500D01*
X51338500Y-92270955D01*
X51358502Y-92202834D01*
X51375405Y-92181860D01*
X51386860Y-92170405D01*
X51449172Y-92136379D01*
X51475955Y-92133500D01*
X51810283Y-92133499D01*
X51831634Y-92133499D01*
X51834492Y-92133236D01*
X51834501Y-92133236D01*
X51870004Y-92129974D01*
X51905062Y-92126753D01*
X51950237Y-92112596D01*
X52061450Y-92077744D01*
X52061452Y-92077743D01*
X52068699Y-92075472D01*
X52132048Y-92037107D01*
X52214363Y-91987256D01*
X52282993Y-91969077D01*
X52350556Y-91990888D01*
X52377709Y-92019837D01*
X52379550Y-92018409D01*
X52394054Y-92037107D01*
X52500396Y-92143449D01*
X52512822Y-92153089D01*
X52642279Y-92229648D01*
X52656710Y-92235893D01*
X52802565Y-92278269D01*
X52815167Y-92280570D01*
X52843584Y-92282807D01*
X52848514Y-92283000D01*
X53227885Y-92283000D01*
X53243124Y-92278525D01*
X53244329Y-92277135D01*
X53246000Y-92269452D01*
X53246000Y-90685116D01*
X53241525Y-90669877D01*
X53240135Y-90668672D01*
X53232452Y-90667001D01*
X52848517Y-90667001D01*
X52843580Y-90667195D01*
X52815164Y-90669430D01*
X52802569Y-90671730D01*
X52656710Y-90714107D01*
X52642279Y-90720352D01*
X52585087Y-90754175D01*
X52516271Y-90771634D01*
X52448939Y-90749117D01*
X52413174Y-90710994D01*
X52336639Y-90584619D01*
X52241115Y-90489095D01*
X52207089Y-90426783D01*
X52212154Y-90355968D01*
X52241115Y-90310905D01*
X52315035Y-90236985D01*
X52377347Y-90202959D01*
X52448162Y-90208024D01*
G37*
G04 #@! TD.AperFunction*
G04 #@! TA.AperFunction,Conductor*
G36*
X55367330Y-75699595D02*
G01*
X56484595Y-76816859D01*
X56518620Y-76879171D01*
X56521500Y-76905954D01*
X56521500Y-78585045D01*
X56501498Y-78653166D01*
X56447842Y-78699659D01*
X56377568Y-78709763D01*
X56312988Y-78680269D01*
X56306405Y-78674140D01*
X55849247Y-78216982D01*
X55838380Y-78204591D01*
X55824749Y-78186827D01*
X55819723Y-78180277D01*
X55696789Y-78085946D01*
X55637490Y-78061384D01*
X55553630Y-78026647D01*
X55545443Y-78025569D01*
X55545442Y-78025569D01*
X55408189Y-78007500D01*
X55400000Y-78006422D01*
X55369616Y-78010422D01*
X55353170Y-78011500D01*
X55326114Y-78011500D01*
X55257993Y-77991498D01*
X55218970Y-77951803D01*
X55183925Y-77895171D01*
X55183919Y-77895164D01*
X55180071Y-77888945D01*
X55135707Y-77844658D01*
X55101628Y-77782375D01*
X55106631Y-77711555D01*
X55135630Y-77666390D01*
X55186639Y-77615381D01*
X55275472Y-77468699D01*
X55326753Y-77305062D01*
X55333500Y-77231635D01*
X55333499Y-76568366D01*
X55333234Y-76565474D01*
X55327364Y-76501592D01*
X55326753Y-76494938D01*
X55275472Y-76331301D01*
X55186639Y-76184619D01*
X55065381Y-76063361D01*
X55048712Y-76053266D01*
X55000807Y-76000869D01*
X54988834Y-75930889D01*
X55016596Y-75865545D01*
X55047685Y-75838345D01*
X55054831Y-75833923D01*
X55054834Y-75833921D01*
X55061055Y-75830071D01*
X55180864Y-75710053D01*
X55181440Y-75709119D01*
X55237267Y-75669536D01*
X55308190Y-75666303D01*
X55367330Y-75699595D01*
G37*
G04 #@! TD.AperFunction*
G04 #@! TA.AperFunction,Conductor*
G36*
X55438058Y-72520323D02*
G01*
X56844595Y-73926860D01*
X56878621Y-73989172D01*
X56881500Y-74015955D01*
X56881500Y-75245045D01*
X56861498Y-75313166D01*
X56807842Y-75359659D01*
X56737568Y-75369763D01*
X56672988Y-75340269D01*
X56666404Y-75334140D01*
X55949243Y-74616978D01*
X55938382Y-74604594D01*
X55919723Y-74580277D01*
X55796789Y-74485946D01*
X55737490Y-74461384D01*
X55653630Y-74426647D01*
X55645443Y-74425569D01*
X55645442Y-74425569D01*
X55508189Y-74407500D01*
X55500000Y-74406422D01*
X55469616Y-74410422D01*
X55453170Y-74411500D01*
X55326114Y-74411500D01*
X55257993Y-74391498D01*
X55218970Y-74351803D01*
X55183925Y-74295171D01*
X55183919Y-74295164D01*
X55180071Y-74288945D01*
X55135707Y-74244658D01*
X55101628Y-74182375D01*
X55106631Y-74111555D01*
X55135630Y-74066390D01*
X55186639Y-74015381D01*
X55275472Y-73868699D01*
X55292278Y-73815073D01*
X55315912Y-73739654D01*
X55326753Y-73705062D01*
X55333500Y-73631635D01*
X55333499Y-72968366D01*
X55333234Y-72965474D01*
X55327364Y-72901592D01*
X55326753Y-72894938D01*
X55275472Y-72731301D01*
X55241360Y-72674974D01*
X55241187Y-72674689D01*
X55223008Y-72606059D01*
X55244819Y-72538496D01*
X55299695Y-72493450D01*
X55370213Y-72485223D01*
X55438058Y-72520323D01*
G37*
G04 #@! TD.AperFunction*
M02*
