%TF.GenerationSoftware,KiCad,Pcbnew,(6.0.11-0)*%
%TF.CreationDate,2025-05-14T22:18:46-06:00*%
%TF.ProjectId,AnalogPCB,416e616c-6f67-4504-9342-2e6b69636164,rev?*%
%TF.SameCoordinates,Original*%
%TF.FileFunction,Drillmap*%
%TF.FilePolarity,Positive*%
%FSLAX45Y45*%
G04 Gerber Fmt 4.5, Leading zero omitted, Abs format (unit mm)*
G04 Created by KiCad (PCBNEW (6.0.11-0)) date 2025-05-14 22:18:46*
%MOMM*%
%LPD*%
G01*
G04 APERTURE LIST*
%ADD10C,0.100000*%
%ADD11C,0.200000*%
%ADD12C,0.030000*%
%ADD13C,0.060000*%
%ADD14C,0.080000*%
%ADD15C,0.109220*%
%ADD16C,0.150000*%
%ADD17C,0.320000*%
G04 APERTURE END LIST*
D10*
X9300000Y-9000000D02*
G75*
G03*
X9500000Y-9000000I100000J0D01*
G01*
X9500000Y-9900000D02*
X9500000Y-11700000D01*
X11000000Y-5500000D02*
G75*
G03*
X10500000Y-5000000I-500000J0D01*
G01*
X6900000Y-14700000D02*
X6900000Y-13200000D01*
X10800000Y-15000000D02*
G75*
G03*
X11000000Y-14800000I0J200000D01*
G01*
D11*
X10500000Y-5000000D02*
X5500000Y-5000000D01*
D10*
X7100000Y-13200000D02*
X7100000Y-14700000D01*
X9775000Y-13075000D02*
X7275000Y-13075000D01*
X9500000Y-7200000D02*
X9500000Y-9000000D01*
D11*
X5500000Y-5000000D02*
G75*
G03*
X5000000Y-5500000I0J-500000D01*
G01*
D10*
X9300000Y-11700000D02*
G75*
G03*
X9500000Y-11700000I100000J0D01*
G01*
X9775000Y-13075000D02*
G75*
G03*
X9775000Y-12875000I0J100000D01*
G01*
X9500000Y-9900000D02*
G75*
G03*
X9300000Y-9900000I-100000J0D01*
G01*
X9500000Y-7200000D02*
G75*
G03*
X9300000Y-7200000I-100000J0D01*
G01*
D11*
X5200000Y-15000000D02*
X10800000Y-15000000D01*
D10*
X10500000Y-11950000D02*
G75*
G03*
X10300000Y-11950000I-100000J0D01*
G01*
X7275000Y-12875000D02*
G75*
G03*
X7275000Y-13075000I0J-100000D01*
G01*
X10500000Y-11950000D02*
X10500000Y-12450000D01*
X7100000Y-13200000D02*
G75*
G03*
X6900000Y-13200000I-100000J0D01*
G01*
X5000000Y-14800000D02*
G75*
G03*
X5200000Y-15000000I200000J0D01*
G01*
D11*
X11000000Y-14800000D02*
X11000000Y-5500000D01*
D10*
X7275000Y-12875000D02*
X9775000Y-12875000D01*
X10300000Y-12450000D02*
G75*
G03*
X10500000Y-12450000I100000J0D01*
G01*
D11*
X5000000Y-5500000D02*
X5000000Y-14800000D01*
D10*
X10300000Y-11950000D02*
X10300000Y-12450000D01*
X9300000Y-9000000D02*
X9300000Y-7200000D01*
X6900000Y-14700000D02*
G75*
G03*
X7100000Y-14700000I100000J0D01*
G01*
X9300000Y-11700000D02*
X9300000Y-9900000D01*
D11*
D12*
X5060000Y-14335000D02*
X5090000Y-14365000D01*
X5090000Y-14335000D02*
X5060000Y-14365000D01*
X5110000Y-12060000D02*
X5140000Y-12090000D01*
X5140000Y-12060000D02*
X5110000Y-12090000D01*
X5135000Y-11060000D02*
X5165000Y-11090000D01*
X5165000Y-11060000D02*
X5135000Y-11090000D01*
X5210000Y-10910000D02*
X5240000Y-10940000D01*
X5240000Y-10910000D02*
X5210000Y-10940000D01*
X5235000Y-10185000D02*
X5265000Y-10215000D01*
X5265000Y-10185000D02*
X5235000Y-10215000D01*
X5235000Y-11360000D02*
X5265000Y-11390000D01*
X5265000Y-11360000D02*
X5235000Y-11390000D01*
X5260000Y-8360000D02*
X5290000Y-8390000D01*
X5290000Y-8360000D02*
X5260000Y-8390000D01*
X5260000Y-12060000D02*
X5290000Y-12090000D01*
X5290000Y-12060000D02*
X5260000Y-12090000D01*
X5285000Y-13810000D02*
X5315000Y-13840000D01*
X5315000Y-13810000D02*
X5285000Y-13840000D01*
X5310000Y-9260000D02*
X5340000Y-9290000D01*
X5340000Y-9260000D02*
X5310000Y-9290000D01*
X5310000Y-10435000D02*
X5340000Y-10465000D01*
X5340000Y-10435000D02*
X5310000Y-10465000D01*
X5310000Y-10910000D02*
X5340000Y-10940000D01*
X5340000Y-10910000D02*
X5310000Y-10940000D01*
X5335000Y-9710000D02*
X5365000Y-9740000D01*
X5365000Y-9710000D02*
X5335000Y-9740000D01*
X5335000Y-10810000D02*
X5365000Y-10840000D01*
X5365000Y-10810000D02*
X5335000Y-10840000D01*
X5335000Y-14785000D02*
X5365000Y-14815000D01*
X5365000Y-14785000D02*
X5335000Y-14815000D01*
X5360000Y-7985000D02*
X5390000Y-8015000D01*
X5390000Y-7985000D02*
X5360000Y-8015000D01*
X5410000Y-10910000D02*
X5440000Y-10940000D01*
X5440000Y-10910000D02*
X5410000Y-10940000D01*
X5455000Y-12005000D02*
X5485000Y-12035000D01*
X5485000Y-12005000D02*
X5455000Y-12035000D01*
X5485000Y-8935000D02*
X5515000Y-8965000D01*
X5515000Y-8935000D02*
X5485000Y-8965000D01*
X5485000Y-10110000D02*
X5515000Y-10140000D01*
X5515000Y-10110000D02*
X5485000Y-10140000D01*
X5510000Y-11260000D02*
X5540000Y-11290000D01*
X5540000Y-11260000D02*
X5510000Y-11290000D01*
X5510000Y-11485000D02*
X5540000Y-11515000D01*
X5540000Y-11485000D02*
X5510000Y-11515000D01*
X5535000Y-10310000D02*
X5565000Y-10340000D01*
X5565000Y-10310000D02*
X5535000Y-10340000D01*
X5560000Y-7360000D02*
X5590000Y-7390000D01*
X5590000Y-7360000D02*
X5560000Y-7390000D01*
X5560000Y-7735000D02*
X5590000Y-7765000D01*
X5590000Y-7735000D02*
X5560000Y-7765000D01*
X5560000Y-9235000D02*
X5590000Y-9265000D01*
X5590000Y-9235000D02*
X5560000Y-9265000D01*
X5585000Y-11705000D02*
X5615000Y-11735000D01*
X5615000Y-11705000D02*
X5585000Y-11735000D01*
X5625000Y-10605000D02*
X5655000Y-10635000D01*
X5655000Y-10605000D02*
X5625000Y-10635000D01*
X5635000Y-10435000D02*
X5665000Y-10465000D01*
X5665000Y-10435000D02*
X5635000Y-10465000D01*
X5660000Y-12785000D02*
X5690000Y-12815000D01*
X5690000Y-12785000D02*
X5660000Y-12815000D01*
X5719191Y-12752658D02*
X5749191Y-12782658D01*
X5749191Y-12752658D02*
X5719191Y-12782658D01*
X5769654Y-12711768D02*
X5799654Y-12741768D01*
X5799654Y-12711768D02*
X5769654Y-12741768D01*
X5787950Y-10309603D02*
X5817950Y-10339603D01*
X5817950Y-10309603D02*
X5787950Y-10339603D01*
X5805000Y-11485000D02*
X5835000Y-11515000D01*
X5835000Y-11485000D02*
X5805000Y-11515000D01*
X5935000Y-10360000D02*
X5965000Y-10390000D01*
X5965000Y-10360000D02*
X5935000Y-10390000D01*
X5960000Y-9660000D02*
X5990000Y-9690000D01*
X5990000Y-9660000D02*
X5960000Y-9690000D01*
X5985000Y-10810000D02*
X6015000Y-10840000D01*
X6015000Y-10810000D02*
X5985000Y-10840000D01*
X6035000Y-9160000D02*
X6065000Y-9190000D01*
X6065000Y-9160000D02*
X6035000Y-9190000D01*
X6085000Y-12460000D02*
X6115000Y-12490000D01*
X6115000Y-12460000D02*
X6085000Y-12490000D01*
X6135000Y-7585000D02*
X6165000Y-7615000D01*
X6165000Y-7585000D02*
X6135000Y-7615000D01*
X6145000Y-7995500D02*
X6175000Y-8025500D01*
X6175000Y-7995500D02*
X6145000Y-8025500D01*
X6155000Y-10235000D02*
X6185000Y-10265000D01*
X6185000Y-10235000D02*
X6155000Y-10265000D01*
X6210000Y-14410000D02*
X6240000Y-14440000D01*
X6240000Y-14410000D02*
X6210000Y-14440000D01*
X6335000Y-7585000D02*
X6365000Y-7615000D01*
X6365000Y-7585000D02*
X6335000Y-7615000D01*
X6535000Y-11810000D02*
X6565000Y-11840000D01*
X6565000Y-11810000D02*
X6535000Y-11840000D01*
X6585000Y-11860000D02*
X6615000Y-11890000D01*
X6615000Y-11860000D02*
X6585000Y-11890000D01*
X6635000Y-10235000D02*
X6665000Y-10265000D01*
X6665000Y-10235000D02*
X6635000Y-10265000D01*
X6660000Y-11910000D02*
X6690000Y-11940000D01*
X6690000Y-11910000D02*
X6660000Y-11940000D01*
X6660000Y-13010000D02*
X6690000Y-13040000D01*
X6690000Y-13010000D02*
X6660000Y-13040000D01*
X6760000Y-13660000D02*
X6790000Y-13690000D01*
X6790000Y-13660000D02*
X6760000Y-13690000D01*
X6785000Y-13210000D02*
X6815000Y-13240000D01*
X6815000Y-13210000D02*
X6785000Y-13240000D01*
X6835000Y-14885000D02*
X6865000Y-14915000D01*
X6865000Y-14885000D02*
X6835000Y-14915000D01*
X6960000Y-12235000D02*
X6990000Y-12265000D01*
X6990000Y-12235000D02*
X6960000Y-12265000D01*
X7535000Y-12235000D02*
X7565000Y-12265000D01*
X7565000Y-12235000D02*
X7535000Y-12265000D01*
X7635000Y-6335000D02*
X7665000Y-6365000D01*
X7665000Y-6335000D02*
X7635000Y-6365000D01*
X7762704Y-6584970D02*
X7792704Y-6614970D01*
X7792704Y-6584970D02*
X7762704Y-6614970D01*
X7810000Y-10085000D02*
X7840000Y-10115000D01*
X7840000Y-10085000D02*
X7810000Y-10115000D01*
X7832654Y-6585093D02*
X7862654Y-6615093D01*
X7862654Y-6585093D02*
X7832654Y-6615093D01*
X7854050Y-8910000D02*
X7884050Y-8940000D01*
X7884050Y-8910000D02*
X7854050Y-8940000D01*
X7854050Y-11260000D02*
X7884050Y-11290000D01*
X7884050Y-11260000D02*
X7854050Y-11290000D01*
X7885000Y-11420950D02*
X7915000Y-11450950D01*
X7915000Y-11420950D02*
X7885000Y-11450950D01*
X7902550Y-6582331D02*
X7932550Y-6612331D01*
X7932550Y-6582331D02*
X7902550Y-6612331D01*
X7910000Y-5560000D02*
X7940000Y-5590000D01*
X7940000Y-5560000D02*
X7910000Y-5590000D01*
X7960000Y-5487950D02*
X7990000Y-5517950D01*
X7990000Y-5487950D02*
X7960000Y-5517950D01*
X7965000Y-12265000D02*
X7995000Y-12295000D01*
X7995000Y-12265000D02*
X7965000Y-12295000D01*
X7985000Y-7410000D02*
X8015000Y-7440000D01*
X8015000Y-7410000D02*
X7985000Y-7440000D01*
X7985000Y-7510000D02*
X8015000Y-7540000D01*
X8015000Y-7510000D02*
X7985000Y-7540000D01*
X7985000Y-7610000D02*
X8015000Y-7640000D01*
X8015000Y-7610000D02*
X7985000Y-7640000D01*
X7985000Y-7710000D02*
X8015000Y-7740000D01*
X8015000Y-7710000D02*
X7985000Y-7740000D01*
X7985000Y-7810000D02*
X8015000Y-7840000D01*
X8015000Y-7810000D02*
X7985000Y-7840000D01*
X7985000Y-11485000D02*
X8015000Y-11515000D01*
X8015000Y-11485000D02*
X7985000Y-11515000D01*
X7985000Y-11585000D02*
X8015000Y-11615000D01*
X8015000Y-11585000D02*
X7985000Y-11615000D01*
X7985000Y-11685000D02*
X8015000Y-11715000D01*
X8015000Y-11685000D02*
X7985000Y-11715000D01*
X7985000Y-11785000D02*
X8015000Y-11815000D01*
X8015000Y-11785000D02*
X7985000Y-11815000D01*
X7985000Y-11885000D02*
X8015000Y-11915000D01*
X8015000Y-11885000D02*
X7985000Y-11915000D01*
X7985000Y-11985000D02*
X8015000Y-12015000D01*
X8015000Y-11985000D02*
X7985000Y-12015000D01*
X8010000Y-5635000D02*
X8040000Y-5665000D01*
X8040000Y-5635000D02*
X8010000Y-5665000D01*
X8285000Y-6635000D02*
X8315000Y-6665000D01*
X8315000Y-6635000D02*
X8285000Y-6665000D01*
X8285000Y-6735000D02*
X8315000Y-6765000D01*
X8315000Y-6735000D02*
X8285000Y-6765000D01*
X8285000Y-6835000D02*
X8315000Y-6865000D01*
X8315000Y-6835000D02*
X8285000Y-6865000D01*
X8285000Y-6935000D02*
X8315000Y-6965000D01*
X8315000Y-6935000D02*
X8285000Y-6965000D01*
X8285000Y-7035000D02*
X8315000Y-7065000D01*
X8315000Y-7035000D02*
X8285000Y-7065000D01*
X8285000Y-10010000D02*
X8315000Y-10040000D01*
X8315000Y-10010000D02*
X8285000Y-10040000D01*
X8285000Y-10110000D02*
X8315000Y-10140000D01*
X8315000Y-10110000D02*
X8285000Y-10140000D01*
X8285000Y-10210000D02*
X8315000Y-10240000D01*
X8315000Y-10210000D02*
X8285000Y-10240000D01*
X8285000Y-10310000D02*
X8315000Y-10340000D01*
X8315000Y-10310000D02*
X8285000Y-10340000D01*
X8285000Y-10410000D02*
X8315000Y-10440000D01*
X8315000Y-10410000D02*
X8285000Y-10440000D01*
X8360000Y-5610000D02*
X8390000Y-5640000D01*
X8390000Y-5610000D02*
X8360000Y-5640000D01*
X8385000Y-6360000D02*
X8415000Y-6390000D01*
X8415000Y-6360000D02*
X8385000Y-6390000D01*
X8635000Y-12195000D02*
X8665000Y-12225000D01*
X8665000Y-12195000D02*
X8635000Y-12225000D01*
X8685000Y-5660000D02*
X8715000Y-5690000D01*
X8715000Y-5660000D02*
X8685000Y-5690000D01*
X8732050Y-5583238D02*
X8762050Y-5613238D01*
X8762050Y-5583238D02*
X8732050Y-5613238D01*
X8737950Y-11360000D02*
X8767950Y-11390000D01*
X8767950Y-11360000D02*
X8737950Y-11390000D01*
X8760000Y-12435000D02*
X8790000Y-12465000D01*
X8790000Y-12435000D02*
X8760000Y-12465000D01*
X8767119Y-5522714D02*
X8797119Y-5552714D01*
X8797119Y-5522714D02*
X8767119Y-5552714D01*
X8785450Y-11295000D02*
X8815450Y-11325000D01*
X8815450Y-11295000D02*
X8785450Y-11325000D01*
X8935000Y-12610000D02*
X8965000Y-12640000D01*
X8965000Y-12610000D02*
X8935000Y-12640000D01*
X9710000Y-12235000D02*
X9740000Y-12265000D01*
X9740000Y-12235000D02*
X9710000Y-12265000D01*
X9835000Y-12535000D02*
X9865000Y-12565000D01*
X9865000Y-12535000D02*
X9835000Y-12565000D01*
X10010000Y-12510000D02*
X10040000Y-12540000D01*
X10040000Y-12510000D02*
X10010000Y-12540000D01*
D13*
X6200000Y-14758750D02*
G75*
G03*
X6200000Y-14758750I-30000J0D01*
G01*
D11*
X6265000Y-14728750D02*
X6075000Y-14728750D01*
X6265000Y-14788750D02*
X6075000Y-14788750D01*
X6075000Y-14728750D02*
G75*
G03*
X6075000Y-14788750I0J-30000D01*
G01*
X6265000Y-14788750D02*
G75*
G03*
X6265000Y-14728750I0J30000D01*
G01*
D13*
X6690000Y-14408750D02*
G75*
G03*
X6690000Y-14408750I-30000J0D01*
G01*
D11*
X6630000Y-14313750D02*
X6630000Y-14503750D01*
X6690000Y-14313750D02*
X6690000Y-14503750D01*
X6630000Y-14503750D02*
G75*
G03*
X6690000Y-14503750I30000J0D01*
G01*
X6690000Y-14313750D02*
G75*
G03*
X6630000Y-14313750I-30000J0D01*
G01*
D14*
X5850000Y-14368750D02*
X5850000Y-14448750D01*
X5810000Y-14408750D02*
X5890000Y-14408750D01*
D11*
X5810000Y-14323750D02*
X5810000Y-14493750D01*
X5890000Y-14323750D02*
X5890000Y-14493750D01*
X5810000Y-14493750D02*
G75*
G03*
X5890000Y-14493750I40000J0D01*
G01*
X5890000Y-14323750D02*
G75*
G03*
X5810000Y-14323750I-40000J0D01*
G01*
D14*
X6055000Y-14018750D02*
X6055000Y-14098750D01*
X6015000Y-14058750D02*
X6095000Y-14058750D01*
D11*
X6140000Y-14018750D02*
X5970000Y-14018750D01*
X6140000Y-14098750D02*
X5970000Y-14098750D01*
X5970000Y-14018750D02*
G75*
G03*
X5970000Y-14098750I0J-40000D01*
G01*
X6140000Y-14098750D02*
G75*
G03*
X6140000Y-14018750I0J40000D01*
G01*
D10*
X6455356Y-14094106D02*
X6455356Y-14023394D01*
X6384644Y-14023394D01*
X6384644Y-14094106D01*
X6455356Y-14094106D01*
D11*
X6495000Y-14008750D02*
X6345000Y-14008750D01*
X6495000Y-14108750D02*
X6345000Y-14108750D01*
X6345000Y-14008750D02*
G75*
G03*
X6345000Y-14108750I0J-50000D01*
G01*
X6495000Y-14108750D02*
G75*
G03*
X6495000Y-14008750I0J50000D01*
G01*
D15*
X7330975Y-12302105D02*
X7385585Y-12247495D01*
X7330975Y-12192885D01*
X7276365Y-12247495D01*
X7330975Y-12302105D01*
X7330975Y-13452105D02*
X7385585Y-13397495D01*
X7330975Y-13342885D01*
X7276365Y-13397495D01*
X7330975Y-13452105D01*
X7330975Y-14152105D02*
X7385585Y-14097495D01*
X7330975Y-14042885D01*
X7276365Y-14097495D01*
X7330975Y-14152105D01*
X7384250Y-14634610D02*
X7438860Y-14580000D01*
X7384250Y-14525390D01*
X7329640Y-14580000D01*
X7384250Y-14634610D01*
X7734770Y-14634610D02*
X7789380Y-14580000D01*
X7734770Y-14525390D01*
X7680160Y-14580000D01*
X7734770Y-14634610D01*
X7800975Y-12302105D02*
X7855585Y-12247495D01*
X7800975Y-12192885D01*
X7746365Y-12247495D01*
X7800975Y-12302105D01*
X8405975Y-12302105D02*
X8460585Y-12247495D01*
X8405975Y-12192885D01*
X8351365Y-12247495D01*
X8405975Y-12302105D01*
X8405975Y-13452105D02*
X8460585Y-13397495D01*
X8405975Y-13342885D01*
X8351365Y-13397495D01*
X8405975Y-13452105D01*
X8405975Y-14152105D02*
X8460585Y-14097495D01*
X8405975Y-14042885D01*
X8351365Y-14097495D01*
X8405975Y-14152105D01*
X8699250Y-14634610D02*
X8753860Y-14580000D01*
X8699250Y-14525390D01*
X8644640Y-14580000D01*
X8699250Y-14634610D01*
X8875975Y-12302105D02*
X8930585Y-12247495D01*
X8875975Y-12192885D01*
X8821365Y-12247495D01*
X8875975Y-12302105D01*
X9049770Y-14634610D02*
X9104380Y-14580000D01*
X9049770Y-14525390D01*
X8995160Y-14580000D01*
X9049770Y-14634610D01*
X9480975Y-12302105D02*
X9535585Y-12247495D01*
X9480975Y-12192885D01*
X9426365Y-12247495D01*
X9480975Y-12302105D01*
X9480975Y-13452105D02*
X9535585Y-13397495D01*
X9480975Y-13342885D01*
X9426365Y-13397495D01*
X9480975Y-13452105D01*
X9480975Y-14152105D02*
X9535585Y-14097495D01*
X9480975Y-14042885D01*
X9426365Y-14097495D01*
X9480975Y-14152105D01*
X9950975Y-12302105D02*
X10005585Y-12247495D01*
X9950975Y-12192885D01*
X9896365Y-12247495D01*
X9950975Y-12302105D01*
X10014250Y-14635560D02*
X10068860Y-14580950D01*
X10014250Y-14526340D01*
X9959640Y-14580950D01*
X10014250Y-14635560D01*
X10364770Y-14635560D02*
X10419380Y-14580950D01*
X10364770Y-14526340D01*
X10310160Y-14580950D01*
X10364770Y-14635560D01*
X10560950Y-13689840D02*
X10615560Y-13635230D01*
X10560950Y-13580620D01*
X10506340Y-13635230D01*
X10560950Y-13689840D01*
X10560950Y-14040360D02*
X10615560Y-13985750D01*
X10560950Y-13931140D01*
X10506340Y-13985750D01*
X10560950Y-14040360D01*
D16*
X6582500Y-12550000D02*
X6732500Y-12700000D01*
X6732500Y-12550000D02*
X6582500Y-12700000D01*
X6732500Y-12625000D02*
G75*
G03*
X6732500Y-12625000I-75000J0D01*
G01*
X6582500Y-13340000D02*
X6732500Y-13490000D01*
X6732500Y-13340000D02*
X6582500Y-13490000D01*
X6732500Y-13415000D02*
G75*
G03*
X6732500Y-13415000I-75000J0D01*
G01*
X6590750Y-7140000D02*
X6740750Y-7290000D01*
X6740750Y-7140000D02*
X6590750Y-7290000D01*
X6740750Y-7215000D02*
G75*
G03*
X6740750Y-7215000I-75000J0D01*
G01*
X6590750Y-7940000D02*
X6740750Y-8090000D01*
X6740750Y-7940000D02*
X6590750Y-8090000D01*
X6740750Y-8015000D02*
G75*
G03*
X6740750Y-8015000I-75000J0D01*
G01*
X6590750Y-9780000D02*
X6740750Y-9930000D01*
X6740750Y-9780000D02*
X6590750Y-9930000D01*
X6740750Y-9855000D02*
G75*
G03*
X6740750Y-9855000I-75000J0D01*
G01*
X6590750Y-10580000D02*
X6740750Y-10730000D01*
X6740750Y-10580000D02*
X6590750Y-10730000D01*
X6740750Y-10655000D02*
G75*
G03*
X6740750Y-10655000I-75000J0D01*
G01*
X10440750Y-7140000D02*
X10590750Y-7290000D01*
X10590750Y-7140000D02*
X10440750Y-7290000D01*
X10590750Y-7215000D02*
G75*
G03*
X10590750Y-7215000I-75000J0D01*
G01*
X10440750Y-8215000D02*
X10590750Y-8365000D01*
X10590750Y-8215000D02*
X10440750Y-8365000D01*
X10590750Y-8290000D02*
G75*
G03*
X10590750Y-8290000I-75000J0D01*
G01*
X10440750Y-9780000D02*
X10590750Y-9930000D01*
X10590750Y-9780000D02*
X10440750Y-9930000D01*
X10590750Y-9855000D02*
G75*
G03*
X10590750Y-9855000I-75000J0D01*
G01*
X10440750Y-10855000D02*
X10590750Y-11005000D01*
X10590750Y-10855000D02*
X10440750Y-11005000D01*
X10590750Y-10930000D02*
G75*
G03*
X10590750Y-10930000I-75000J0D01*
G01*
D17*
X5340000Y-5340000D02*
X5660000Y-5660000D01*
X5660000Y-5340000D02*
X5340000Y-5660000D01*
X5500000Y-5340000D02*
X5500000Y-5660000D01*
X5340000Y-5500000D02*
X5660000Y-5500000D01*
X5340000Y-6340000D02*
X5660000Y-6660000D01*
X5660000Y-6340000D02*
X5340000Y-6660000D01*
X5500000Y-6340000D02*
X5500000Y-6660000D01*
X5340000Y-6500000D02*
X5660000Y-6500000D01*
X10340000Y-5340000D02*
X10660000Y-5660000D01*
X10660000Y-5340000D02*
X10340000Y-5660000D01*
X10500000Y-5340000D02*
X10500000Y-5660000D01*
X10340000Y-5500000D02*
X10660000Y-5500000D01*
X10340000Y-6340000D02*
X10660000Y-6660000D01*
X10660000Y-6340000D02*
X10340000Y-6660000D01*
X10500000Y-6340000D02*
X10500000Y-6660000D01*
X10340000Y-6500000D02*
X10660000Y-6500000D01*
D11*
X5247619Y-15320476D02*
X5247619Y-15120476D01*
X5295238Y-15120476D01*
X5323810Y-15130000D01*
X5342857Y-15149048D01*
X5352381Y-15168095D01*
X5361905Y-15206190D01*
X5361905Y-15234762D01*
X5352381Y-15272857D01*
X5342857Y-15291905D01*
X5323810Y-15310952D01*
X5295238Y-15320476D01*
X5247619Y-15320476D01*
X5447619Y-15320476D02*
X5447619Y-15187143D01*
X5447619Y-15225238D02*
X5457143Y-15206190D01*
X5466667Y-15196667D01*
X5485714Y-15187143D01*
X5504762Y-15187143D01*
X5571429Y-15320476D02*
X5571429Y-15187143D01*
X5571429Y-15120476D02*
X5561905Y-15130000D01*
X5571429Y-15139524D01*
X5580952Y-15130000D01*
X5571429Y-15120476D01*
X5571429Y-15139524D01*
X5695238Y-15320476D02*
X5676190Y-15310952D01*
X5666667Y-15291905D01*
X5666667Y-15120476D01*
X5800000Y-15320476D02*
X5780952Y-15310952D01*
X5771428Y-15291905D01*
X5771428Y-15120476D01*
X6028571Y-15320476D02*
X6028571Y-15120476D01*
X6095238Y-15263333D01*
X6161905Y-15120476D01*
X6161905Y-15320476D01*
X6342857Y-15320476D02*
X6342857Y-15215714D01*
X6333333Y-15196667D01*
X6314286Y-15187143D01*
X6276190Y-15187143D01*
X6257143Y-15196667D01*
X6342857Y-15310952D02*
X6323809Y-15320476D01*
X6276190Y-15320476D01*
X6257143Y-15310952D01*
X6247619Y-15291905D01*
X6247619Y-15272857D01*
X6257143Y-15253809D01*
X6276190Y-15244286D01*
X6323809Y-15244286D01*
X6342857Y-15234762D01*
X6438095Y-15187143D02*
X6438095Y-15387143D01*
X6438095Y-15196667D02*
X6457143Y-15187143D01*
X6495238Y-15187143D01*
X6514286Y-15196667D01*
X6523809Y-15206190D01*
X6533333Y-15225238D01*
X6533333Y-15282381D01*
X6523809Y-15301428D01*
X6514286Y-15310952D01*
X6495238Y-15320476D01*
X6457143Y-15320476D01*
X6438095Y-15310952D01*
X6619048Y-15301428D02*
X6628571Y-15310952D01*
X6619048Y-15320476D01*
X6609524Y-15310952D01*
X6619048Y-15301428D01*
X6619048Y-15320476D01*
X6619048Y-15196667D02*
X6628571Y-15206190D01*
X6619048Y-15215714D01*
X6609524Y-15206190D01*
X6619048Y-15196667D01*
X6619048Y-15215714D01*
D12*
X4960000Y-15635000D02*
X4990000Y-15665000D01*
X4990000Y-15635000D02*
X4960000Y-15665000D01*
D11*
X5285714Y-15540476D02*
X5304762Y-15540476D01*
X5323810Y-15550000D01*
X5333333Y-15559524D01*
X5342857Y-15578571D01*
X5352381Y-15616667D01*
X5352381Y-15664286D01*
X5342857Y-15702381D01*
X5333333Y-15721428D01*
X5323810Y-15730952D01*
X5304762Y-15740476D01*
X5285714Y-15740476D01*
X5266667Y-15730952D01*
X5257143Y-15721428D01*
X5247619Y-15702381D01*
X5238095Y-15664286D01*
X5238095Y-15616667D01*
X5247619Y-15578571D01*
X5257143Y-15559524D01*
X5266667Y-15550000D01*
X5285714Y-15540476D01*
X5438095Y-15721428D02*
X5447619Y-15730952D01*
X5438095Y-15740476D01*
X5428571Y-15730952D01*
X5438095Y-15721428D01*
X5438095Y-15740476D01*
X5514286Y-15540476D02*
X5638095Y-15540476D01*
X5571429Y-15616667D01*
X5600000Y-15616667D01*
X5619048Y-15626190D01*
X5628571Y-15635714D01*
X5638095Y-15654762D01*
X5638095Y-15702381D01*
X5628571Y-15721428D01*
X5619048Y-15730952D01*
X5600000Y-15740476D01*
X5542857Y-15740476D01*
X5523810Y-15730952D01*
X5514286Y-15721428D01*
X5761905Y-15540476D02*
X5780952Y-15540476D01*
X5800000Y-15550000D01*
X5809524Y-15559524D01*
X5819048Y-15578571D01*
X5828571Y-15616667D01*
X5828571Y-15664286D01*
X5819048Y-15702381D01*
X5809524Y-15721428D01*
X5800000Y-15730952D01*
X5780952Y-15740476D01*
X5761905Y-15740476D01*
X5742857Y-15730952D01*
X5733333Y-15721428D01*
X5723809Y-15702381D01*
X5714286Y-15664286D01*
X5714286Y-15616667D01*
X5723809Y-15578571D01*
X5733333Y-15559524D01*
X5742857Y-15550000D01*
X5761905Y-15540476D01*
X5952381Y-15540476D02*
X5971428Y-15540476D01*
X5990476Y-15550000D01*
X6000000Y-15559524D01*
X6009524Y-15578571D01*
X6019048Y-15616667D01*
X6019048Y-15664286D01*
X6009524Y-15702381D01*
X6000000Y-15721428D01*
X5990476Y-15730952D01*
X5971428Y-15740476D01*
X5952381Y-15740476D01*
X5933333Y-15730952D01*
X5923809Y-15721428D01*
X5914286Y-15702381D01*
X5904762Y-15664286D01*
X5904762Y-15616667D01*
X5914286Y-15578571D01*
X5923809Y-15559524D01*
X5933333Y-15550000D01*
X5952381Y-15540476D01*
X6104762Y-15740476D02*
X6104762Y-15607143D01*
X6104762Y-15626190D02*
X6114286Y-15616667D01*
X6133333Y-15607143D01*
X6161905Y-15607143D01*
X6180952Y-15616667D01*
X6190476Y-15635714D01*
X6190476Y-15740476D01*
X6190476Y-15635714D02*
X6200000Y-15616667D01*
X6219048Y-15607143D01*
X6247619Y-15607143D01*
X6266667Y-15616667D01*
X6276190Y-15635714D01*
X6276190Y-15740476D01*
X6371428Y-15740476D02*
X6371428Y-15607143D01*
X6371428Y-15626190D02*
X6380952Y-15616667D01*
X6400000Y-15607143D01*
X6428571Y-15607143D01*
X6447619Y-15616667D01*
X6457143Y-15635714D01*
X6457143Y-15740476D01*
X6457143Y-15635714D02*
X6466667Y-15616667D01*
X6485714Y-15607143D01*
X6514286Y-15607143D01*
X6533333Y-15616667D01*
X6542857Y-15635714D01*
X6542857Y-15740476D01*
X6933333Y-15530952D02*
X6761905Y-15788095D01*
X7190476Y-15540476D02*
X7209524Y-15540476D01*
X7228571Y-15550000D01*
X7238095Y-15559524D01*
X7247619Y-15578571D01*
X7257143Y-15616667D01*
X7257143Y-15664286D01*
X7247619Y-15702381D01*
X7238095Y-15721428D01*
X7228571Y-15730952D01*
X7209524Y-15740476D01*
X7190476Y-15740476D01*
X7171428Y-15730952D01*
X7161905Y-15721428D01*
X7152381Y-15702381D01*
X7142857Y-15664286D01*
X7142857Y-15616667D01*
X7152381Y-15578571D01*
X7161905Y-15559524D01*
X7171428Y-15550000D01*
X7190476Y-15540476D01*
X7342857Y-15721428D02*
X7352381Y-15730952D01*
X7342857Y-15740476D01*
X7333333Y-15730952D01*
X7342857Y-15721428D01*
X7342857Y-15740476D01*
X7476190Y-15540476D02*
X7495238Y-15540476D01*
X7514286Y-15550000D01*
X7523809Y-15559524D01*
X7533333Y-15578571D01*
X7542857Y-15616667D01*
X7542857Y-15664286D01*
X7533333Y-15702381D01*
X7523809Y-15721428D01*
X7514286Y-15730952D01*
X7495238Y-15740476D01*
X7476190Y-15740476D01*
X7457143Y-15730952D01*
X7447619Y-15721428D01*
X7438095Y-15702381D01*
X7428571Y-15664286D01*
X7428571Y-15616667D01*
X7438095Y-15578571D01*
X7447619Y-15559524D01*
X7457143Y-15550000D01*
X7476190Y-15540476D01*
X7733333Y-15740476D02*
X7619048Y-15740476D01*
X7676190Y-15740476D02*
X7676190Y-15540476D01*
X7657143Y-15569048D01*
X7638095Y-15588095D01*
X7619048Y-15597619D01*
X7923809Y-15740476D02*
X7809524Y-15740476D01*
X7866667Y-15740476D02*
X7866667Y-15540476D01*
X7847619Y-15569048D01*
X7828571Y-15588095D01*
X7809524Y-15597619D01*
X8038095Y-15626190D02*
X8019048Y-15616667D01*
X8009524Y-15607143D01*
X8000000Y-15588095D01*
X8000000Y-15578571D01*
X8009524Y-15559524D01*
X8019048Y-15550000D01*
X8038095Y-15540476D01*
X8076190Y-15540476D01*
X8095238Y-15550000D01*
X8104762Y-15559524D01*
X8114286Y-15578571D01*
X8114286Y-15588095D01*
X8104762Y-15607143D01*
X8095238Y-15616667D01*
X8076190Y-15626190D01*
X8038095Y-15626190D01*
X8019048Y-15635714D01*
X8009524Y-15645238D01*
X8000000Y-15664286D01*
X8000000Y-15702381D01*
X8009524Y-15721428D01*
X8019048Y-15730952D01*
X8038095Y-15740476D01*
X8076190Y-15740476D01*
X8095238Y-15730952D01*
X8104762Y-15721428D01*
X8114286Y-15702381D01*
X8114286Y-15664286D01*
X8104762Y-15645238D01*
X8095238Y-15635714D01*
X8076190Y-15626190D01*
X8190476Y-15540476D02*
X8190476Y-15578571D01*
X8266667Y-15540476D02*
X8266667Y-15578571D01*
X8561905Y-15816667D02*
X8552381Y-15807143D01*
X8533333Y-15778571D01*
X8523810Y-15759524D01*
X8514286Y-15730952D01*
X8504762Y-15683333D01*
X8504762Y-15645238D01*
X8514286Y-15597619D01*
X8523810Y-15569048D01*
X8533333Y-15550000D01*
X8552381Y-15521428D01*
X8561905Y-15511905D01*
X8742857Y-15740476D02*
X8628571Y-15740476D01*
X8685714Y-15740476D02*
X8685714Y-15540476D01*
X8666667Y-15569048D01*
X8647619Y-15588095D01*
X8628571Y-15597619D01*
X8866667Y-15540476D02*
X8885714Y-15540476D01*
X8904762Y-15550000D01*
X8914286Y-15559524D01*
X8923810Y-15578571D01*
X8933333Y-15616667D01*
X8933333Y-15664286D01*
X8923810Y-15702381D01*
X8914286Y-15721428D01*
X8904762Y-15730952D01*
X8885714Y-15740476D01*
X8866667Y-15740476D01*
X8847619Y-15730952D01*
X8838095Y-15721428D01*
X8828571Y-15702381D01*
X8819048Y-15664286D01*
X8819048Y-15616667D01*
X8828571Y-15578571D01*
X8838095Y-15559524D01*
X8847619Y-15550000D01*
X8866667Y-15540476D01*
X9057143Y-15540476D02*
X9076190Y-15540476D01*
X9095238Y-15550000D01*
X9104762Y-15559524D01*
X9114286Y-15578571D01*
X9123810Y-15616667D01*
X9123810Y-15664286D01*
X9114286Y-15702381D01*
X9104762Y-15721428D01*
X9095238Y-15730952D01*
X9076190Y-15740476D01*
X9057143Y-15740476D01*
X9038095Y-15730952D01*
X9028571Y-15721428D01*
X9019048Y-15702381D01*
X9009524Y-15664286D01*
X9009524Y-15616667D01*
X9019048Y-15578571D01*
X9028571Y-15559524D01*
X9038095Y-15550000D01*
X9057143Y-15540476D01*
X9361905Y-15740476D02*
X9361905Y-15540476D01*
X9447619Y-15740476D02*
X9447619Y-15635714D01*
X9438095Y-15616667D01*
X9419048Y-15607143D01*
X9390476Y-15607143D01*
X9371429Y-15616667D01*
X9361905Y-15626190D01*
X9571429Y-15740476D02*
X9552381Y-15730952D01*
X9542857Y-15721428D01*
X9533333Y-15702381D01*
X9533333Y-15645238D01*
X9542857Y-15626190D01*
X9552381Y-15616667D01*
X9571429Y-15607143D01*
X9600000Y-15607143D01*
X9619048Y-15616667D01*
X9628571Y-15626190D01*
X9638095Y-15645238D01*
X9638095Y-15702381D01*
X9628571Y-15721428D01*
X9619048Y-15730952D01*
X9600000Y-15740476D01*
X9571429Y-15740476D01*
X9752381Y-15740476D02*
X9733333Y-15730952D01*
X9723810Y-15711905D01*
X9723810Y-15540476D01*
X9904762Y-15730952D02*
X9885714Y-15740476D01*
X9847619Y-15740476D01*
X9828571Y-15730952D01*
X9819048Y-15711905D01*
X9819048Y-15635714D01*
X9828571Y-15616667D01*
X9847619Y-15607143D01*
X9885714Y-15607143D01*
X9904762Y-15616667D01*
X9914286Y-15635714D01*
X9914286Y-15654762D01*
X9819048Y-15673809D01*
X9990476Y-15730952D02*
X10009524Y-15740476D01*
X10047619Y-15740476D01*
X10066667Y-15730952D01*
X10076190Y-15711905D01*
X10076190Y-15702381D01*
X10066667Y-15683333D01*
X10047619Y-15673809D01*
X10019048Y-15673809D01*
X10000000Y-15664286D01*
X9990476Y-15645238D01*
X9990476Y-15635714D01*
X10000000Y-15616667D01*
X10019048Y-15607143D01*
X10047619Y-15607143D01*
X10066667Y-15616667D01*
X10142857Y-15816667D02*
X10152381Y-15807143D01*
X10171429Y-15778571D01*
X10180952Y-15759524D01*
X10190476Y-15730952D01*
X10200000Y-15683333D01*
X10200000Y-15645238D01*
X10190476Y-15597619D01*
X10180952Y-15569048D01*
X10171429Y-15550000D01*
X10152381Y-15521428D01*
X10142857Y-15511905D01*
D13*
X4990000Y-15914000D02*
G75*
G03*
X4990000Y-15914000I-30000J0D01*
G01*
D11*
X5285714Y-15804476D02*
X5304762Y-15804476D01*
X5323810Y-15814000D01*
X5333333Y-15823524D01*
X5342857Y-15842571D01*
X5352381Y-15880667D01*
X5352381Y-15928286D01*
X5342857Y-15966381D01*
X5333333Y-15985428D01*
X5323810Y-15994952D01*
X5304762Y-16004476D01*
X5285714Y-16004476D01*
X5266667Y-15994952D01*
X5257143Y-15985428D01*
X5247619Y-15966381D01*
X5238095Y-15928286D01*
X5238095Y-15880667D01*
X5247619Y-15842571D01*
X5257143Y-15823524D01*
X5266667Y-15814000D01*
X5285714Y-15804476D01*
X5438095Y-15985428D02*
X5447619Y-15994952D01*
X5438095Y-16004476D01*
X5428571Y-15994952D01*
X5438095Y-15985428D01*
X5438095Y-16004476D01*
X5619048Y-15804476D02*
X5580952Y-15804476D01*
X5561905Y-15814000D01*
X5552381Y-15823524D01*
X5533333Y-15852095D01*
X5523810Y-15890190D01*
X5523810Y-15966381D01*
X5533333Y-15985428D01*
X5542857Y-15994952D01*
X5561905Y-16004476D01*
X5600000Y-16004476D01*
X5619048Y-15994952D01*
X5628571Y-15985428D01*
X5638095Y-15966381D01*
X5638095Y-15918762D01*
X5628571Y-15899714D01*
X5619048Y-15890190D01*
X5600000Y-15880667D01*
X5561905Y-15880667D01*
X5542857Y-15890190D01*
X5533333Y-15899714D01*
X5523810Y-15918762D01*
X5761905Y-15804476D02*
X5780952Y-15804476D01*
X5800000Y-15814000D01*
X5809524Y-15823524D01*
X5819048Y-15842571D01*
X5828571Y-15880667D01*
X5828571Y-15928286D01*
X5819048Y-15966381D01*
X5809524Y-15985428D01*
X5800000Y-15994952D01*
X5780952Y-16004476D01*
X5761905Y-16004476D01*
X5742857Y-15994952D01*
X5733333Y-15985428D01*
X5723809Y-15966381D01*
X5714286Y-15928286D01*
X5714286Y-15880667D01*
X5723809Y-15842571D01*
X5733333Y-15823524D01*
X5742857Y-15814000D01*
X5761905Y-15804476D01*
X5952381Y-15804476D02*
X5971428Y-15804476D01*
X5990476Y-15814000D01*
X6000000Y-15823524D01*
X6009524Y-15842571D01*
X6019048Y-15880667D01*
X6019048Y-15928286D01*
X6009524Y-15966381D01*
X6000000Y-15985428D01*
X5990476Y-15994952D01*
X5971428Y-16004476D01*
X5952381Y-16004476D01*
X5933333Y-15994952D01*
X5923809Y-15985428D01*
X5914286Y-15966381D01*
X5904762Y-15928286D01*
X5904762Y-15880667D01*
X5914286Y-15842571D01*
X5923809Y-15823524D01*
X5933333Y-15814000D01*
X5952381Y-15804476D01*
X6104762Y-16004476D02*
X6104762Y-15871143D01*
X6104762Y-15890190D02*
X6114286Y-15880667D01*
X6133333Y-15871143D01*
X6161905Y-15871143D01*
X6180952Y-15880667D01*
X6190476Y-15899714D01*
X6190476Y-16004476D01*
X6190476Y-15899714D02*
X6200000Y-15880667D01*
X6219048Y-15871143D01*
X6247619Y-15871143D01*
X6266667Y-15880667D01*
X6276190Y-15899714D01*
X6276190Y-16004476D01*
X6371428Y-16004476D02*
X6371428Y-15871143D01*
X6371428Y-15890190D02*
X6380952Y-15880667D01*
X6400000Y-15871143D01*
X6428571Y-15871143D01*
X6447619Y-15880667D01*
X6457143Y-15899714D01*
X6457143Y-16004476D01*
X6457143Y-15899714D02*
X6466667Y-15880667D01*
X6485714Y-15871143D01*
X6514286Y-15871143D01*
X6533333Y-15880667D01*
X6542857Y-15899714D01*
X6542857Y-16004476D01*
X6933333Y-15794952D02*
X6761905Y-16052095D01*
X7190476Y-15804476D02*
X7209524Y-15804476D01*
X7228571Y-15814000D01*
X7238095Y-15823524D01*
X7247619Y-15842571D01*
X7257143Y-15880667D01*
X7257143Y-15928286D01*
X7247619Y-15966381D01*
X7238095Y-15985428D01*
X7228571Y-15994952D01*
X7209524Y-16004476D01*
X7190476Y-16004476D01*
X7171428Y-15994952D01*
X7161905Y-15985428D01*
X7152381Y-15966381D01*
X7142857Y-15928286D01*
X7142857Y-15880667D01*
X7152381Y-15842571D01*
X7161905Y-15823524D01*
X7171428Y-15814000D01*
X7190476Y-15804476D01*
X7342857Y-15985428D02*
X7352381Y-15994952D01*
X7342857Y-16004476D01*
X7333333Y-15994952D01*
X7342857Y-15985428D01*
X7342857Y-16004476D01*
X7476190Y-15804476D02*
X7495238Y-15804476D01*
X7514286Y-15814000D01*
X7523809Y-15823524D01*
X7533333Y-15842571D01*
X7542857Y-15880667D01*
X7542857Y-15928286D01*
X7533333Y-15966381D01*
X7523809Y-15985428D01*
X7514286Y-15994952D01*
X7495238Y-16004476D01*
X7476190Y-16004476D01*
X7457143Y-15994952D01*
X7447619Y-15985428D01*
X7438095Y-15966381D01*
X7428571Y-15928286D01*
X7428571Y-15880667D01*
X7438095Y-15842571D01*
X7447619Y-15823524D01*
X7457143Y-15814000D01*
X7476190Y-15804476D01*
X7619048Y-15823524D02*
X7628571Y-15814000D01*
X7647619Y-15804476D01*
X7695238Y-15804476D01*
X7714286Y-15814000D01*
X7723809Y-15823524D01*
X7733333Y-15842571D01*
X7733333Y-15861619D01*
X7723809Y-15890190D01*
X7609524Y-16004476D01*
X7733333Y-16004476D01*
X7800000Y-15804476D02*
X7923809Y-15804476D01*
X7857143Y-15880667D01*
X7885714Y-15880667D01*
X7904762Y-15890190D01*
X7914286Y-15899714D01*
X7923809Y-15918762D01*
X7923809Y-15966381D01*
X7914286Y-15985428D01*
X7904762Y-15994952D01*
X7885714Y-16004476D01*
X7828571Y-16004476D01*
X7809524Y-15994952D01*
X7800000Y-15985428D01*
X8095238Y-15804476D02*
X8057143Y-15804476D01*
X8038095Y-15814000D01*
X8028571Y-15823524D01*
X8009524Y-15852095D01*
X8000000Y-15890190D01*
X8000000Y-15966381D01*
X8009524Y-15985428D01*
X8019048Y-15994952D01*
X8038095Y-16004476D01*
X8076190Y-16004476D01*
X8095238Y-15994952D01*
X8104762Y-15985428D01*
X8114286Y-15966381D01*
X8114286Y-15918762D01*
X8104762Y-15899714D01*
X8095238Y-15890190D01*
X8076190Y-15880667D01*
X8038095Y-15880667D01*
X8019048Y-15890190D01*
X8009524Y-15899714D01*
X8000000Y-15918762D01*
X8190476Y-15804476D02*
X8190476Y-15842571D01*
X8266667Y-15804476D02*
X8266667Y-15842571D01*
X8561905Y-16080667D02*
X8552381Y-16071143D01*
X8533333Y-16042571D01*
X8523810Y-16023524D01*
X8514286Y-15994952D01*
X8504762Y-15947333D01*
X8504762Y-15909238D01*
X8514286Y-15861619D01*
X8523810Y-15833048D01*
X8533333Y-15814000D01*
X8552381Y-15785428D01*
X8561905Y-15775905D01*
X8676190Y-15804476D02*
X8695238Y-15804476D01*
X8714286Y-15814000D01*
X8723810Y-15823524D01*
X8733333Y-15842571D01*
X8742857Y-15880667D01*
X8742857Y-15928286D01*
X8733333Y-15966381D01*
X8723810Y-15985428D01*
X8714286Y-15994952D01*
X8695238Y-16004476D01*
X8676190Y-16004476D01*
X8657143Y-15994952D01*
X8647619Y-15985428D01*
X8638095Y-15966381D01*
X8628571Y-15928286D01*
X8628571Y-15880667D01*
X8638095Y-15842571D01*
X8647619Y-15823524D01*
X8657143Y-15814000D01*
X8676190Y-15804476D01*
X8980952Y-16004476D02*
X8980952Y-15804476D01*
X9066667Y-16004476D02*
X9066667Y-15899714D01*
X9057143Y-15880667D01*
X9038095Y-15871143D01*
X9009524Y-15871143D01*
X8990476Y-15880667D01*
X8980952Y-15890190D01*
X9190476Y-16004476D02*
X9171429Y-15994952D01*
X9161905Y-15985428D01*
X9152381Y-15966381D01*
X9152381Y-15909238D01*
X9161905Y-15890190D01*
X9171429Y-15880667D01*
X9190476Y-15871143D01*
X9219048Y-15871143D01*
X9238095Y-15880667D01*
X9247619Y-15890190D01*
X9257143Y-15909238D01*
X9257143Y-15966381D01*
X9247619Y-15985428D01*
X9238095Y-15994952D01*
X9219048Y-16004476D01*
X9190476Y-16004476D01*
X9371429Y-16004476D02*
X9352381Y-15994952D01*
X9342857Y-15975905D01*
X9342857Y-15804476D01*
X9523810Y-15994952D02*
X9504762Y-16004476D01*
X9466667Y-16004476D01*
X9447619Y-15994952D01*
X9438095Y-15975905D01*
X9438095Y-15899714D01*
X9447619Y-15880667D01*
X9466667Y-15871143D01*
X9504762Y-15871143D01*
X9523810Y-15880667D01*
X9533333Y-15899714D01*
X9533333Y-15918762D01*
X9438095Y-15937809D01*
X9609524Y-15994952D02*
X9628571Y-16004476D01*
X9666667Y-16004476D01*
X9685714Y-15994952D01*
X9695238Y-15975905D01*
X9695238Y-15966381D01*
X9685714Y-15947333D01*
X9666667Y-15937809D01*
X9638095Y-15937809D01*
X9619048Y-15928286D01*
X9609524Y-15909238D01*
X9609524Y-15899714D01*
X9619048Y-15880667D01*
X9638095Y-15871143D01*
X9666667Y-15871143D01*
X9685714Y-15880667D01*
X9933333Y-15928286D02*
X10085714Y-15928286D01*
X10009524Y-16004476D02*
X10009524Y-15852095D01*
X10323810Y-15823524D02*
X10333333Y-15814000D01*
X10352381Y-15804476D01*
X10400000Y-15804476D01*
X10419048Y-15814000D01*
X10428571Y-15823524D01*
X10438095Y-15842571D01*
X10438095Y-15861619D01*
X10428571Y-15890190D01*
X10314286Y-16004476D01*
X10438095Y-16004476D01*
X10666667Y-15994952D02*
X10685714Y-16004476D01*
X10723810Y-16004476D01*
X10742857Y-15994952D01*
X10752381Y-15975905D01*
X10752381Y-15966381D01*
X10742857Y-15947333D01*
X10723810Y-15937809D01*
X10695238Y-15937809D01*
X10676190Y-15928286D01*
X10666667Y-15909238D01*
X10666667Y-15899714D01*
X10676190Y-15880667D01*
X10695238Y-15871143D01*
X10723810Y-15871143D01*
X10742857Y-15880667D01*
X10866667Y-16004476D02*
X10847619Y-15994952D01*
X10838095Y-15975905D01*
X10838095Y-15804476D01*
X10971429Y-16004476D02*
X10952381Y-15994952D01*
X10942857Y-15985428D01*
X10933333Y-15966381D01*
X10933333Y-15909238D01*
X10942857Y-15890190D01*
X10952381Y-15880667D01*
X10971429Y-15871143D01*
X11000000Y-15871143D01*
X11019048Y-15880667D01*
X11028571Y-15890190D01*
X11038095Y-15909238D01*
X11038095Y-15966381D01*
X11028571Y-15985428D01*
X11019048Y-15994952D01*
X11000000Y-16004476D01*
X10971429Y-16004476D01*
X11095238Y-15871143D02*
X11171429Y-15871143D01*
X11123810Y-15804476D02*
X11123810Y-15975905D01*
X11133333Y-15994952D01*
X11152381Y-16004476D01*
X11171429Y-16004476D01*
X11228571Y-15994952D02*
X11247619Y-16004476D01*
X11285714Y-16004476D01*
X11304762Y-15994952D01*
X11314286Y-15975905D01*
X11314286Y-15966381D01*
X11304762Y-15947333D01*
X11285714Y-15937809D01*
X11257143Y-15937809D01*
X11238095Y-15928286D01*
X11228571Y-15909238D01*
X11228571Y-15899714D01*
X11238095Y-15880667D01*
X11257143Y-15871143D01*
X11285714Y-15871143D01*
X11304762Y-15880667D01*
X11380952Y-16080667D02*
X11390476Y-16071143D01*
X11409524Y-16042571D01*
X11419048Y-16023524D01*
X11428571Y-15994952D01*
X11438095Y-15947333D01*
X11438095Y-15909238D01*
X11428571Y-15861619D01*
X11419048Y-15833048D01*
X11409524Y-15814000D01*
X11390476Y-15785428D01*
X11380952Y-15775905D01*
D14*
X4950000Y-16138000D02*
X4950000Y-16218000D01*
X4910000Y-16178000D02*
X4990000Y-16178000D01*
D11*
X5285714Y-16068476D02*
X5304762Y-16068476D01*
X5323810Y-16078000D01*
X5333333Y-16087524D01*
X5342857Y-16106571D01*
X5352381Y-16144667D01*
X5352381Y-16192286D01*
X5342857Y-16230381D01*
X5333333Y-16249428D01*
X5323810Y-16258952D01*
X5304762Y-16268476D01*
X5285714Y-16268476D01*
X5266667Y-16258952D01*
X5257143Y-16249428D01*
X5247619Y-16230381D01*
X5238095Y-16192286D01*
X5238095Y-16144667D01*
X5247619Y-16106571D01*
X5257143Y-16087524D01*
X5266667Y-16078000D01*
X5285714Y-16068476D01*
X5438095Y-16249428D02*
X5447619Y-16258952D01*
X5438095Y-16268476D01*
X5428571Y-16258952D01*
X5438095Y-16249428D01*
X5438095Y-16268476D01*
X5561905Y-16154190D02*
X5542857Y-16144667D01*
X5533333Y-16135143D01*
X5523810Y-16116095D01*
X5523810Y-16106571D01*
X5533333Y-16087524D01*
X5542857Y-16078000D01*
X5561905Y-16068476D01*
X5600000Y-16068476D01*
X5619048Y-16078000D01*
X5628571Y-16087524D01*
X5638095Y-16106571D01*
X5638095Y-16116095D01*
X5628571Y-16135143D01*
X5619048Y-16144667D01*
X5600000Y-16154190D01*
X5561905Y-16154190D01*
X5542857Y-16163714D01*
X5533333Y-16173238D01*
X5523810Y-16192286D01*
X5523810Y-16230381D01*
X5533333Y-16249428D01*
X5542857Y-16258952D01*
X5561905Y-16268476D01*
X5600000Y-16268476D01*
X5619048Y-16258952D01*
X5628571Y-16249428D01*
X5638095Y-16230381D01*
X5638095Y-16192286D01*
X5628571Y-16173238D01*
X5619048Y-16163714D01*
X5600000Y-16154190D01*
X5761905Y-16068476D02*
X5780952Y-16068476D01*
X5800000Y-16078000D01*
X5809524Y-16087524D01*
X5819048Y-16106571D01*
X5828571Y-16144667D01*
X5828571Y-16192286D01*
X5819048Y-16230381D01*
X5809524Y-16249428D01*
X5800000Y-16258952D01*
X5780952Y-16268476D01*
X5761905Y-16268476D01*
X5742857Y-16258952D01*
X5733333Y-16249428D01*
X5723809Y-16230381D01*
X5714286Y-16192286D01*
X5714286Y-16144667D01*
X5723809Y-16106571D01*
X5733333Y-16087524D01*
X5742857Y-16078000D01*
X5761905Y-16068476D01*
X5952381Y-16068476D02*
X5971428Y-16068476D01*
X5990476Y-16078000D01*
X6000000Y-16087524D01*
X6009524Y-16106571D01*
X6019048Y-16144667D01*
X6019048Y-16192286D01*
X6009524Y-16230381D01*
X6000000Y-16249428D01*
X5990476Y-16258952D01*
X5971428Y-16268476D01*
X5952381Y-16268476D01*
X5933333Y-16258952D01*
X5923809Y-16249428D01*
X5914286Y-16230381D01*
X5904762Y-16192286D01*
X5904762Y-16144667D01*
X5914286Y-16106571D01*
X5923809Y-16087524D01*
X5933333Y-16078000D01*
X5952381Y-16068476D01*
X6104762Y-16268476D02*
X6104762Y-16135143D01*
X6104762Y-16154190D02*
X6114286Y-16144667D01*
X6133333Y-16135143D01*
X6161905Y-16135143D01*
X6180952Y-16144667D01*
X6190476Y-16163714D01*
X6190476Y-16268476D01*
X6190476Y-16163714D02*
X6200000Y-16144667D01*
X6219048Y-16135143D01*
X6247619Y-16135143D01*
X6266667Y-16144667D01*
X6276190Y-16163714D01*
X6276190Y-16268476D01*
X6371428Y-16268476D02*
X6371428Y-16135143D01*
X6371428Y-16154190D02*
X6380952Y-16144667D01*
X6400000Y-16135143D01*
X6428571Y-16135143D01*
X6447619Y-16144667D01*
X6457143Y-16163714D01*
X6457143Y-16268476D01*
X6457143Y-16163714D02*
X6466667Y-16144667D01*
X6485714Y-16135143D01*
X6514286Y-16135143D01*
X6533333Y-16144667D01*
X6542857Y-16163714D01*
X6542857Y-16268476D01*
X6933333Y-16058952D02*
X6761905Y-16316095D01*
X7190476Y-16068476D02*
X7209524Y-16068476D01*
X7228571Y-16078000D01*
X7238095Y-16087524D01*
X7247619Y-16106571D01*
X7257143Y-16144667D01*
X7257143Y-16192286D01*
X7247619Y-16230381D01*
X7238095Y-16249428D01*
X7228571Y-16258952D01*
X7209524Y-16268476D01*
X7190476Y-16268476D01*
X7171428Y-16258952D01*
X7161905Y-16249428D01*
X7152381Y-16230381D01*
X7142857Y-16192286D01*
X7142857Y-16144667D01*
X7152381Y-16106571D01*
X7161905Y-16087524D01*
X7171428Y-16078000D01*
X7190476Y-16068476D01*
X7342857Y-16249428D02*
X7352381Y-16258952D01*
X7342857Y-16268476D01*
X7333333Y-16258952D01*
X7342857Y-16249428D01*
X7342857Y-16268476D01*
X7476190Y-16068476D02*
X7495238Y-16068476D01*
X7514286Y-16078000D01*
X7523809Y-16087524D01*
X7533333Y-16106571D01*
X7542857Y-16144667D01*
X7542857Y-16192286D01*
X7533333Y-16230381D01*
X7523809Y-16249428D01*
X7514286Y-16258952D01*
X7495238Y-16268476D01*
X7476190Y-16268476D01*
X7457143Y-16258952D01*
X7447619Y-16249428D01*
X7438095Y-16230381D01*
X7428571Y-16192286D01*
X7428571Y-16144667D01*
X7438095Y-16106571D01*
X7447619Y-16087524D01*
X7457143Y-16078000D01*
X7476190Y-16068476D01*
X7609524Y-16068476D02*
X7733333Y-16068476D01*
X7666667Y-16144667D01*
X7695238Y-16144667D01*
X7714286Y-16154190D01*
X7723809Y-16163714D01*
X7733333Y-16182762D01*
X7733333Y-16230381D01*
X7723809Y-16249428D01*
X7714286Y-16258952D01*
X7695238Y-16268476D01*
X7638095Y-16268476D01*
X7619048Y-16258952D01*
X7609524Y-16249428D01*
X7923809Y-16268476D02*
X7809524Y-16268476D01*
X7866667Y-16268476D02*
X7866667Y-16068476D01*
X7847619Y-16097048D01*
X7828571Y-16116095D01*
X7809524Y-16125619D01*
X8104762Y-16068476D02*
X8009524Y-16068476D01*
X8000000Y-16163714D01*
X8009524Y-16154190D01*
X8028571Y-16144667D01*
X8076190Y-16144667D01*
X8095238Y-16154190D01*
X8104762Y-16163714D01*
X8114286Y-16182762D01*
X8114286Y-16230381D01*
X8104762Y-16249428D01*
X8095238Y-16258952D01*
X8076190Y-16268476D01*
X8028571Y-16268476D01*
X8009524Y-16258952D01*
X8000000Y-16249428D01*
X8190476Y-16068476D02*
X8190476Y-16106571D01*
X8266667Y-16068476D02*
X8266667Y-16106571D01*
X8561905Y-16344667D02*
X8552381Y-16335143D01*
X8533333Y-16306571D01*
X8523810Y-16287524D01*
X8514286Y-16258952D01*
X8504762Y-16211333D01*
X8504762Y-16173238D01*
X8514286Y-16125619D01*
X8523810Y-16097048D01*
X8533333Y-16078000D01*
X8552381Y-16049428D01*
X8561905Y-16039905D01*
X8676190Y-16068476D02*
X8695238Y-16068476D01*
X8714286Y-16078000D01*
X8723810Y-16087524D01*
X8733333Y-16106571D01*
X8742857Y-16144667D01*
X8742857Y-16192286D01*
X8733333Y-16230381D01*
X8723810Y-16249428D01*
X8714286Y-16258952D01*
X8695238Y-16268476D01*
X8676190Y-16268476D01*
X8657143Y-16258952D01*
X8647619Y-16249428D01*
X8638095Y-16230381D01*
X8628571Y-16192286D01*
X8628571Y-16144667D01*
X8638095Y-16106571D01*
X8647619Y-16087524D01*
X8657143Y-16078000D01*
X8676190Y-16068476D01*
X8980952Y-16268476D02*
X8980952Y-16068476D01*
X9066667Y-16268476D02*
X9066667Y-16163714D01*
X9057143Y-16144667D01*
X9038095Y-16135143D01*
X9009524Y-16135143D01*
X8990476Y-16144667D01*
X8980952Y-16154190D01*
X9190476Y-16268476D02*
X9171429Y-16258952D01*
X9161905Y-16249428D01*
X9152381Y-16230381D01*
X9152381Y-16173238D01*
X9161905Y-16154190D01*
X9171429Y-16144667D01*
X9190476Y-16135143D01*
X9219048Y-16135143D01*
X9238095Y-16144667D01*
X9247619Y-16154190D01*
X9257143Y-16173238D01*
X9257143Y-16230381D01*
X9247619Y-16249428D01*
X9238095Y-16258952D01*
X9219048Y-16268476D01*
X9190476Y-16268476D01*
X9371429Y-16268476D02*
X9352381Y-16258952D01*
X9342857Y-16239905D01*
X9342857Y-16068476D01*
X9523810Y-16258952D02*
X9504762Y-16268476D01*
X9466667Y-16268476D01*
X9447619Y-16258952D01*
X9438095Y-16239905D01*
X9438095Y-16163714D01*
X9447619Y-16144667D01*
X9466667Y-16135143D01*
X9504762Y-16135143D01*
X9523810Y-16144667D01*
X9533333Y-16163714D01*
X9533333Y-16182762D01*
X9438095Y-16201809D01*
X9609524Y-16258952D02*
X9628571Y-16268476D01*
X9666667Y-16268476D01*
X9685714Y-16258952D01*
X9695238Y-16239905D01*
X9695238Y-16230381D01*
X9685714Y-16211333D01*
X9666667Y-16201809D01*
X9638095Y-16201809D01*
X9619048Y-16192286D01*
X9609524Y-16173238D01*
X9609524Y-16163714D01*
X9619048Y-16144667D01*
X9638095Y-16135143D01*
X9666667Y-16135143D01*
X9685714Y-16144667D01*
X9933333Y-16192286D02*
X10085714Y-16192286D01*
X10009524Y-16268476D02*
X10009524Y-16116095D01*
X10323810Y-16087524D02*
X10333333Y-16078000D01*
X10352381Y-16068476D01*
X10400000Y-16068476D01*
X10419048Y-16078000D01*
X10428571Y-16087524D01*
X10438095Y-16106571D01*
X10438095Y-16125619D01*
X10428571Y-16154190D01*
X10314286Y-16268476D01*
X10438095Y-16268476D01*
X10666667Y-16258952D02*
X10685714Y-16268476D01*
X10723810Y-16268476D01*
X10742857Y-16258952D01*
X10752381Y-16239905D01*
X10752381Y-16230381D01*
X10742857Y-16211333D01*
X10723810Y-16201809D01*
X10695238Y-16201809D01*
X10676190Y-16192286D01*
X10666667Y-16173238D01*
X10666667Y-16163714D01*
X10676190Y-16144667D01*
X10695238Y-16135143D01*
X10723810Y-16135143D01*
X10742857Y-16144667D01*
X10866667Y-16268476D02*
X10847619Y-16258952D01*
X10838095Y-16239905D01*
X10838095Y-16068476D01*
X10971429Y-16268476D02*
X10952381Y-16258952D01*
X10942857Y-16249428D01*
X10933333Y-16230381D01*
X10933333Y-16173238D01*
X10942857Y-16154190D01*
X10952381Y-16144667D01*
X10971429Y-16135143D01*
X11000000Y-16135143D01*
X11019048Y-16144667D01*
X11028571Y-16154190D01*
X11038095Y-16173238D01*
X11038095Y-16230381D01*
X11028571Y-16249428D01*
X11019048Y-16258952D01*
X11000000Y-16268476D01*
X10971429Y-16268476D01*
X11095238Y-16135143D02*
X11171429Y-16135143D01*
X11123810Y-16068476D02*
X11123810Y-16239905D01*
X11133333Y-16258952D01*
X11152381Y-16268476D01*
X11171429Y-16268476D01*
X11228571Y-16258952D02*
X11247619Y-16268476D01*
X11285714Y-16268476D01*
X11304762Y-16258952D01*
X11314286Y-16239905D01*
X11314286Y-16230381D01*
X11304762Y-16211333D01*
X11285714Y-16201809D01*
X11257143Y-16201809D01*
X11238095Y-16192286D01*
X11228571Y-16173238D01*
X11228571Y-16163714D01*
X11238095Y-16144667D01*
X11257143Y-16135143D01*
X11285714Y-16135143D01*
X11304762Y-16144667D01*
X11380952Y-16344667D02*
X11390476Y-16335143D01*
X11409524Y-16306571D01*
X11419048Y-16287524D01*
X11428571Y-16258952D01*
X11438095Y-16211333D01*
X11438095Y-16173238D01*
X11428571Y-16125619D01*
X11419048Y-16097048D01*
X11409524Y-16078000D01*
X11390476Y-16049428D01*
X11380952Y-16039905D01*
D10*
X4975356Y-16477356D02*
X4975356Y-16406644D01*
X4904644Y-16406644D01*
X4904644Y-16477356D01*
X4975356Y-16477356D01*
D11*
X5352381Y-16532476D02*
X5238095Y-16532476D01*
X5295238Y-16532476D02*
X5295238Y-16332476D01*
X5276190Y-16361048D01*
X5257143Y-16380095D01*
X5238095Y-16389619D01*
X5438095Y-16513428D02*
X5447619Y-16522952D01*
X5438095Y-16532476D01*
X5428571Y-16522952D01*
X5438095Y-16513428D01*
X5438095Y-16532476D01*
X5571429Y-16332476D02*
X5590476Y-16332476D01*
X5609524Y-16342000D01*
X5619048Y-16351524D01*
X5628571Y-16370571D01*
X5638095Y-16408667D01*
X5638095Y-16456286D01*
X5628571Y-16494381D01*
X5619048Y-16513428D01*
X5609524Y-16522952D01*
X5590476Y-16532476D01*
X5571429Y-16532476D01*
X5552381Y-16522952D01*
X5542857Y-16513428D01*
X5533333Y-16494381D01*
X5523810Y-16456286D01*
X5523810Y-16408667D01*
X5533333Y-16370571D01*
X5542857Y-16351524D01*
X5552381Y-16342000D01*
X5571429Y-16332476D01*
X5761905Y-16332476D02*
X5780952Y-16332476D01*
X5800000Y-16342000D01*
X5809524Y-16351524D01*
X5819048Y-16370571D01*
X5828571Y-16408667D01*
X5828571Y-16456286D01*
X5819048Y-16494381D01*
X5809524Y-16513428D01*
X5800000Y-16522952D01*
X5780952Y-16532476D01*
X5761905Y-16532476D01*
X5742857Y-16522952D01*
X5733333Y-16513428D01*
X5723809Y-16494381D01*
X5714286Y-16456286D01*
X5714286Y-16408667D01*
X5723809Y-16370571D01*
X5733333Y-16351524D01*
X5742857Y-16342000D01*
X5761905Y-16332476D01*
X5952381Y-16332476D02*
X5971428Y-16332476D01*
X5990476Y-16342000D01*
X6000000Y-16351524D01*
X6009524Y-16370571D01*
X6019048Y-16408667D01*
X6019048Y-16456286D01*
X6009524Y-16494381D01*
X6000000Y-16513428D01*
X5990476Y-16522952D01*
X5971428Y-16532476D01*
X5952381Y-16532476D01*
X5933333Y-16522952D01*
X5923809Y-16513428D01*
X5914286Y-16494381D01*
X5904762Y-16456286D01*
X5904762Y-16408667D01*
X5914286Y-16370571D01*
X5923809Y-16351524D01*
X5933333Y-16342000D01*
X5952381Y-16332476D01*
X6104762Y-16532476D02*
X6104762Y-16399143D01*
X6104762Y-16418190D02*
X6114286Y-16408667D01*
X6133333Y-16399143D01*
X6161905Y-16399143D01*
X6180952Y-16408667D01*
X6190476Y-16427714D01*
X6190476Y-16532476D01*
X6190476Y-16427714D02*
X6200000Y-16408667D01*
X6219048Y-16399143D01*
X6247619Y-16399143D01*
X6266667Y-16408667D01*
X6276190Y-16427714D01*
X6276190Y-16532476D01*
X6371428Y-16532476D02*
X6371428Y-16399143D01*
X6371428Y-16418190D02*
X6380952Y-16408667D01*
X6400000Y-16399143D01*
X6428571Y-16399143D01*
X6447619Y-16408667D01*
X6457143Y-16427714D01*
X6457143Y-16532476D01*
X6457143Y-16427714D02*
X6466667Y-16408667D01*
X6485714Y-16399143D01*
X6514286Y-16399143D01*
X6533333Y-16408667D01*
X6542857Y-16427714D01*
X6542857Y-16532476D01*
X6933333Y-16322952D02*
X6761905Y-16580095D01*
X7190476Y-16332476D02*
X7209524Y-16332476D01*
X7228571Y-16342000D01*
X7238095Y-16351524D01*
X7247619Y-16370571D01*
X7257143Y-16408667D01*
X7257143Y-16456286D01*
X7247619Y-16494381D01*
X7238095Y-16513428D01*
X7228571Y-16522952D01*
X7209524Y-16532476D01*
X7190476Y-16532476D01*
X7171428Y-16522952D01*
X7161905Y-16513428D01*
X7152381Y-16494381D01*
X7142857Y-16456286D01*
X7142857Y-16408667D01*
X7152381Y-16370571D01*
X7161905Y-16351524D01*
X7171428Y-16342000D01*
X7190476Y-16332476D01*
X7342857Y-16513428D02*
X7352381Y-16522952D01*
X7342857Y-16532476D01*
X7333333Y-16522952D01*
X7342857Y-16513428D01*
X7342857Y-16532476D01*
X7476190Y-16332476D02*
X7495238Y-16332476D01*
X7514286Y-16342000D01*
X7523809Y-16351524D01*
X7533333Y-16370571D01*
X7542857Y-16408667D01*
X7542857Y-16456286D01*
X7533333Y-16494381D01*
X7523809Y-16513428D01*
X7514286Y-16522952D01*
X7495238Y-16532476D01*
X7476190Y-16532476D01*
X7457143Y-16522952D01*
X7447619Y-16513428D01*
X7438095Y-16494381D01*
X7428571Y-16456286D01*
X7428571Y-16408667D01*
X7438095Y-16370571D01*
X7447619Y-16351524D01*
X7457143Y-16342000D01*
X7476190Y-16332476D01*
X7609524Y-16332476D02*
X7733333Y-16332476D01*
X7666667Y-16408667D01*
X7695238Y-16408667D01*
X7714286Y-16418190D01*
X7723809Y-16427714D01*
X7733333Y-16446762D01*
X7733333Y-16494381D01*
X7723809Y-16513428D01*
X7714286Y-16522952D01*
X7695238Y-16532476D01*
X7638095Y-16532476D01*
X7619048Y-16522952D01*
X7609524Y-16513428D01*
X7828571Y-16532476D02*
X7866667Y-16532476D01*
X7885714Y-16522952D01*
X7895238Y-16513428D01*
X7914286Y-16484857D01*
X7923809Y-16446762D01*
X7923809Y-16370571D01*
X7914286Y-16351524D01*
X7904762Y-16342000D01*
X7885714Y-16332476D01*
X7847619Y-16332476D01*
X7828571Y-16342000D01*
X7819048Y-16351524D01*
X7809524Y-16370571D01*
X7809524Y-16418190D01*
X7819048Y-16437238D01*
X7828571Y-16446762D01*
X7847619Y-16456286D01*
X7885714Y-16456286D01*
X7904762Y-16446762D01*
X7914286Y-16437238D01*
X7923809Y-16418190D01*
X8095238Y-16399143D02*
X8095238Y-16532476D01*
X8047619Y-16322952D02*
X8000000Y-16465809D01*
X8123809Y-16465809D01*
X8190476Y-16332476D02*
X8190476Y-16370571D01*
X8266667Y-16332476D02*
X8266667Y-16370571D01*
X8561905Y-16608667D02*
X8552381Y-16599143D01*
X8533333Y-16570571D01*
X8523810Y-16551524D01*
X8514286Y-16522952D01*
X8504762Y-16475333D01*
X8504762Y-16437238D01*
X8514286Y-16389619D01*
X8523810Y-16361048D01*
X8533333Y-16342000D01*
X8552381Y-16313428D01*
X8561905Y-16303905D01*
X8742857Y-16532476D02*
X8628571Y-16532476D01*
X8685714Y-16532476D02*
X8685714Y-16332476D01*
X8666667Y-16361048D01*
X8647619Y-16380095D01*
X8628571Y-16389619D01*
X8971429Y-16522952D02*
X8990476Y-16532476D01*
X9028571Y-16532476D01*
X9047619Y-16522952D01*
X9057143Y-16503905D01*
X9057143Y-16494381D01*
X9047619Y-16475333D01*
X9028571Y-16465809D01*
X9000000Y-16465809D01*
X8980952Y-16456286D01*
X8971429Y-16437238D01*
X8971429Y-16427714D01*
X8980952Y-16408667D01*
X9000000Y-16399143D01*
X9028571Y-16399143D01*
X9047619Y-16408667D01*
X9171429Y-16532476D02*
X9152381Y-16522952D01*
X9142857Y-16503905D01*
X9142857Y-16332476D01*
X9276190Y-16532476D02*
X9257143Y-16522952D01*
X9247619Y-16513428D01*
X9238095Y-16494381D01*
X9238095Y-16437238D01*
X9247619Y-16418190D01*
X9257143Y-16408667D01*
X9276190Y-16399143D01*
X9304762Y-16399143D01*
X9323810Y-16408667D01*
X9333333Y-16418190D01*
X9342857Y-16437238D01*
X9342857Y-16494381D01*
X9333333Y-16513428D01*
X9323810Y-16522952D01*
X9304762Y-16532476D01*
X9276190Y-16532476D01*
X9400000Y-16399143D02*
X9476190Y-16399143D01*
X9428571Y-16332476D02*
X9428571Y-16503905D01*
X9438095Y-16522952D01*
X9457143Y-16532476D01*
X9476190Y-16532476D01*
X9523810Y-16608667D02*
X9533333Y-16599143D01*
X9552381Y-16570571D01*
X9561905Y-16551524D01*
X9571429Y-16522952D01*
X9580952Y-16475333D01*
X9580952Y-16437238D01*
X9571429Y-16389619D01*
X9561905Y-16361048D01*
X9552381Y-16342000D01*
X9533333Y-16313428D01*
X9523810Y-16303905D01*
D15*
X4935390Y-16760610D02*
X4990000Y-16706000D01*
X4935390Y-16651390D01*
X4880780Y-16706000D01*
X4935390Y-16760610D01*
D11*
X5352381Y-16796476D02*
X5238095Y-16796476D01*
X5295238Y-16796476D02*
X5295238Y-16596476D01*
X5276190Y-16625048D01*
X5257143Y-16644095D01*
X5238095Y-16653619D01*
X5438095Y-16777429D02*
X5447619Y-16786952D01*
X5438095Y-16796476D01*
X5428571Y-16786952D01*
X5438095Y-16777429D01*
X5438095Y-16796476D01*
X5571429Y-16596476D02*
X5590476Y-16596476D01*
X5609524Y-16606000D01*
X5619048Y-16615524D01*
X5628571Y-16634571D01*
X5638095Y-16672667D01*
X5638095Y-16720286D01*
X5628571Y-16758381D01*
X5619048Y-16777429D01*
X5609524Y-16786952D01*
X5590476Y-16796476D01*
X5571429Y-16796476D01*
X5552381Y-16786952D01*
X5542857Y-16777429D01*
X5533333Y-16758381D01*
X5523810Y-16720286D01*
X5523810Y-16672667D01*
X5533333Y-16634571D01*
X5542857Y-16615524D01*
X5552381Y-16606000D01*
X5571429Y-16596476D01*
X5733333Y-16796476D02*
X5771428Y-16796476D01*
X5790476Y-16786952D01*
X5800000Y-16777429D01*
X5819048Y-16748857D01*
X5828571Y-16710762D01*
X5828571Y-16634571D01*
X5819048Y-16615524D01*
X5809524Y-16606000D01*
X5790476Y-16596476D01*
X5752381Y-16596476D01*
X5733333Y-16606000D01*
X5723809Y-16615524D01*
X5714286Y-16634571D01*
X5714286Y-16682190D01*
X5723809Y-16701238D01*
X5733333Y-16710762D01*
X5752381Y-16720286D01*
X5790476Y-16720286D01*
X5809524Y-16710762D01*
X5819048Y-16701238D01*
X5828571Y-16682190D01*
X5904762Y-16615524D02*
X5914286Y-16606000D01*
X5933333Y-16596476D01*
X5980952Y-16596476D01*
X6000000Y-16606000D01*
X6009524Y-16615524D01*
X6019048Y-16634571D01*
X6019048Y-16653619D01*
X6009524Y-16682190D01*
X5895238Y-16796476D01*
X6019048Y-16796476D01*
X6104762Y-16796476D02*
X6104762Y-16663143D01*
X6104762Y-16682190D02*
X6114286Y-16672667D01*
X6133333Y-16663143D01*
X6161905Y-16663143D01*
X6180952Y-16672667D01*
X6190476Y-16691714D01*
X6190476Y-16796476D01*
X6190476Y-16691714D02*
X6200000Y-16672667D01*
X6219048Y-16663143D01*
X6247619Y-16663143D01*
X6266667Y-16672667D01*
X6276190Y-16691714D01*
X6276190Y-16796476D01*
X6371428Y-16796476D02*
X6371428Y-16663143D01*
X6371428Y-16682190D02*
X6380952Y-16672667D01*
X6400000Y-16663143D01*
X6428571Y-16663143D01*
X6447619Y-16672667D01*
X6457143Y-16691714D01*
X6457143Y-16796476D01*
X6457143Y-16691714D02*
X6466667Y-16672667D01*
X6485714Y-16663143D01*
X6514286Y-16663143D01*
X6533333Y-16672667D01*
X6542857Y-16691714D01*
X6542857Y-16796476D01*
X6933333Y-16586952D02*
X6761905Y-16844095D01*
X7190476Y-16596476D02*
X7209524Y-16596476D01*
X7228571Y-16606000D01*
X7238095Y-16615524D01*
X7247619Y-16634571D01*
X7257143Y-16672667D01*
X7257143Y-16720286D01*
X7247619Y-16758381D01*
X7238095Y-16777429D01*
X7228571Y-16786952D01*
X7209524Y-16796476D01*
X7190476Y-16796476D01*
X7171428Y-16786952D01*
X7161905Y-16777429D01*
X7152381Y-16758381D01*
X7142857Y-16720286D01*
X7142857Y-16672667D01*
X7152381Y-16634571D01*
X7161905Y-16615524D01*
X7171428Y-16606000D01*
X7190476Y-16596476D01*
X7342857Y-16777429D02*
X7352381Y-16786952D01*
X7342857Y-16796476D01*
X7333333Y-16786952D01*
X7342857Y-16777429D01*
X7342857Y-16796476D01*
X7476190Y-16596476D02*
X7495238Y-16596476D01*
X7514286Y-16606000D01*
X7523809Y-16615524D01*
X7533333Y-16634571D01*
X7542857Y-16672667D01*
X7542857Y-16720286D01*
X7533333Y-16758381D01*
X7523809Y-16777429D01*
X7514286Y-16786952D01*
X7495238Y-16796476D01*
X7476190Y-16796476D01*
X7457143Y-16786952D01*
X7447619Y-16777429D01*
X7438095Y-16758381D01*
X7428571Y-16720286D01*
X7428571Y-16672667D01*
X7438095Y-16634571D01*
X7447619Y-16615524D01*
X7457143Y-16606000D01*
X7476190Y-16596476D01*
X7714286Y-16663143D02*
X7714286Y-16796476D01*
X7666667Y-16586952D02*
X7619048Y-16729809D01*
X7742857Y-16729809D01*
X7800000Y-16596476D02*
X7923809Y-16596476D01*
X7857143Y-16672667D01*
X7885714Y-16672667D01*
X7904762Y-16682190D01*
X7914286Y-16691714D01*
X7923809Y-16710762D01*
X7923809Y-16758381D01*
X7914286Y-16777429D01*
X7904762Y-16786952D01*
X7885714Y-16796476D01*
X7828571Y-16796476D01*
X7809524Y-16786952D01*
X7800000Y-16777429D01*
X8047619Y-16596476D02*
X8066667Y-16596476D01*
X8085714Y-16606000D01*
X8095238Y-16615524D01*
X8104762Y-16634571D01*
X8114286Y-16672667D01*
X8114286Y-16720286D01*
X8104762Y-16758381D01*
X8095238Y-16777429D01*
X8085714Y-16786952D01*
X8066667Y-16796476D01*
X8047619Y-16796476D01*
X8028571Y-16786952D01*
X8019048Y-16777429D01*
X8009524Y-16758381D01*
X8000000Y-16720286D01*
X8000000Y-16672667D01*
X8009524Y-16634571D01*
X8019048Y-16615524D01*
X8028571Y-16606000D01*
X8047619Y-16596476D01*
X8190476Y-16596476D02*
X8190476Y-16634571D01*
X8266667Y-16596476D02*
X8266667Y-16634571D01*
X8561905Y-16872667D02*
X8552381Y-16863143D01*
X8533333Y-16834571D01*
X8523810Y-16815524D01*
X8514286Y-16786952D01*
X8504762Y-16739333D01*
X8504762Y-16701238D01*
X8514286Y-16653619D01*
X8523810Y-16625048D01*
X8533333Y-16606000D01*
X8552381Y-16577428D01*
X8561905Y-16567905D01*
X8628571Y-16615524D02*
X8638095Y-16606000D01*
X8657143Y-16596476D01*
X8704762Y-16596476D01*
X8723810Y-16606000D01*
X8733333Y-16615524D01*
X8742857Y-16634571D01*
X8742857Y-16653619D01*
X8733333Y-16682190D01*
X8619048Y-16796476D01*
X8742857Y-16796476D01*
X8866667Y-16596476D02*
X8885714Y-16596476D01*
X8904762Y-16606000D01*
X8914286Y-16615524D01*
X8923810Y-16634571D01*
X8933333Y-16672667D01*
X8933333Y-16720286D01*
X8923810Y-16758381D01*
X8914286Y-16777429D01*
X8904762Y-16786952D01*
X8885714Y-16796476D01*
X8866667Y-16796476D01*
X8847619Y-16786952D01*
X8838095Y-16777429D01*
X8828571Y-16758381D01*
X8819048Y-16720286D01*
X8819048Y-16672667D01*
X8828571Y-16634571D01*
X8838095Y-16615524D01*
X8847619Y-16606000D01*
X8866667Y-16596476D01*
X9171429Y-16796476D02*
X9171429Y-16596476D01*
X9257143Y-16796476D02*
X9257143Y-16691714D01*
X9247619Y-16672667D01*
X9228571Y-16663143D01*
X9200000Y-16663143D01*
X9180952Y-16672667D01*
X9171429Y-16682190D01*
X9380952Y-16796476D02*
X9361905Y-16786952D01*
X9352381Y-16777429D01*
X9342857Y-16758381D01*
X9342857Y-16701238D01*
X9352381Y-16682190D01*
X9361905Y-16672667D01*
X9380952Y-16663143D01*
X9409524Y-16663143D01*
X9428571Y-16672667D01*
X9438095Y-16682190D01*
X9447619Y-16701238D01*
X9447619Y-16758381D01*
X9438095Y-16777429D01*
X9428571Y-16786952D01*
X9409524Y-16796476D01*
X9380952Y-16796476D01*
X9561905Y-16796476D02*
X9542857Y-16786952D01*
X9533333Y-16767905D01*
X9533333Y-16596476D01*
X9714286Y-16786952D02*
X9695238Y-16796476D01*
X9657143Y-16796476D01*
X9638095Y-16786952D01*
X9628571Y-16767905D01*
X9628571Y-16691714D01*
X9638095Y-16672667D01*
X9657143Y-16663143D01*
X9695238Y-16663143D01*
X9714286Y-16672667D01*
X9723810Y-16691714D01*
X9723810Y-16710762D01*
X9628571Y-16729809D01*
X9800000Y-16786952D02*
X9819048Y-16796476D01*
X9857143Y-16796476D01*
X9876190Y-16786952D01*
X9885714Y-16767905D01*
X9885714Y-16758381D01*
X9876190Y-16739333D01*
X9857143Y-16729809D01*
X9828571Y-16729809D01*
X9809524Y-16720286D01*
X9800000Y-16701238D01*
X9800000Y-16691714D01*
X9809524Y-16672667D01*
X9828571Y-16663143D01*
X9857143Y-16663143D01*
X9876190Y-16672667D01*
X9952381Y-16872667D02*
X9961905Y-16863143D01*
X9980952Y-16834571D01*
X9990476Y-16815524D01*
X10000000Y-16786952D01*
X10009524Y-16739333D01*
X10009524Y-16701238D01*
X10000000Y-16653619D01*
X9990476Y-16625048D01*
X9980952Y-16606000D01*
X9961905Y-16577428D01*
X9952381Y-16567905D01*
D16*
X4840000Y-16895000D02*
X4990000Y-17045000D01*
X4990000Y-16895000D02*
X4840000Y-17045000D01*
X4990000Y-16970000D02*
G75*
G03*
X4990000Y-16970000I-75000J0D01*
G01*
D11*
X5352381Y-17060476D02*
X5238095Y-17060476D01*
X5295238Y-17060476D02*
X5295238Y-16860476D01*
X5276190Y-16889048D01*
X5257143Y-16908095D01*
X5238095Y-16917619D01*
X5438095Y-17041429D02*
X5447619Y-17050952D01*
X5438095Y-17060476D01*
X5428571Y-17050952D01*
X5438095Y-17041429D01*
X5438095Y-17060476D01*
X5628571Y-16860476D02*
X5533333Y-16860476D01*
X5523810Y-16955714D01*
X5533333Y-16946190D01*
X5552381Y-16936667D01*
X5600000Y-16936667D01*
X5619048Y-16946190D01*
X5628571Y-16955714D01*
X5638095Y-16974762D01*
X5638095Y-17022381D01*
X5628571Y-17041429D01*
X5619048Y-17050952D01*
X5600000Y-17060476D01*
X5552381Y-17060476D01*
X5533333Y-17050952D01*
X5523810Y-17041429D01*
X5761905Y-16860476D02*
X5780952Y-16860476D01*
X5800000Y-16870000D01*
X5809524Y-16879524D01*
X5819048Y-16898571D01*
X5828571Y-16936667D01*
X5828571Y-16984286D01*
X5819048Y-17022381D01*
X5809524Y-17041429D01*
X5800000Y-17050952D01*
X5780952Y-17060476D01*
X5761905Y-17060476D01*
X5742857Y-17050952D01*
X5733333Y-17041429D01*
X5723809Y-17022381D01*
X5714286Y-16984286D01*
X5714286Y-16936667D01*
X5723809Y-16898571D01*
X5733333Y-16879524D01*
X5742857Y-16870000D01*
X5761905Y-16860476D01*
X5952381Y-16860476D02*
X5971428Y-16860476D01*
X5990476Y-16870000D01*
X6000000Y-16879524D01*
X6009524Y-16898571D01*
X6019048Y-16936667D01*
X6019048Y-16984286D01*
X6009524Y-17022381D01*
X6000000Y-17041429D01*
X5990476Y-17050952D01*
X5971428Y-17060476D01*
X5952381Y-17060476D01*
X5933333Y-17050952D01*
X5923809Y-17041429D01*
X5914286Y-17022381D01*
X5904762Y-16984286D01*
X5904762Y-16936667D01*
X5914286Y-16898571D01*
X5923809Y-16879524D01*
X5933333Y-16870000D01*
X5952381Y-16860476D01*
X6104762Y-17060476D02*
X6104762Y-16927143D01*
X6104762Y-16946190D02*
X6114286Y-16936667D01*
X6133333Y-16927143D01*
X6161905Y-16927143D01*
X6180952Y-16936667D01*
X6190476Y-16955714D01*
X6190476Y-17060476D01*
X6190476Y-16955714D02*
X6200000Y-16936667D01*
X6219048Y-16927143D01*
X6247619Y-16927143D01*
X6266667Y-16936667D01*
X6276190Y-16955714D01*
X6276190Y-17060476D01*
X6371428Y-17060476D02*
X6371428Y-16927143D01*
X6371428Y-16946190D02*
X6380952Y-16936667D01*
X6400000Y-16927143D01*
X6428571Y-16927143D01*
X6447619Y-16936667D01*
X6457143Y-16955714D01*
X6457143Y-17060476D01*
X6457143Y-16955714D02*
X6466667Y-16936667D01*
X6485714Y-16927143D01*
X6514286Y-16927143D01*
X6533333Y-16936667D01*
X6542857Y-16955714D01*
X6542857Y-17060476D01*
X6933333Y-16850952D02*
X6761905Y-17108095D01*
X7190476Y-16860476D02*
X7209524Y-16860476D01*
X7228571Y-16870000D01*
X7238095Y-16879524D01*
X7247619Y-16898571D01*
X7257143Y-16936667D01*
X7257143Y-16984286D01*
X7247619Y-17022381D01*
X7238095Y-17041429D01*
X7228571Y-17050952D01*
X7209524Y-17060476D01*
X7190476Y-17060476D01*
X7171428Y-17050952D01*
X7161905Y-17041429D01*
X7152381Y-17022381D01*
X7142857Y-16984286D01*
X7142857Y-16936667D01*
X7152381Y-16898571D01*
X7161905Y-16879524D01*
X7171428Y-16870000D01*
X7190476Y-16860476D01*
X7342857Y-17041429D02*
X7352381Y-17050952D01*
X7342857Y-17060476D01*
X7333333Y-17050952D01*
X7342857Y-17041429D01*
X7342857Y-17060476D01*
X7476190Y-16860476D02*
X7495238Y-16860476D01*
X7514286Y-16870000D01*
X7523809Y-16879524D01*
X7533333Y-16898571D01*
X7542857Y-16936667D01*
X7542857Y-16984286D01*
X7533333Y-17022381D01*
X7523809Y-17041429D01*
X7514286Y-17050952D01*
X7495238Y-17060476D01*
X7476190Y-17060476D01*
X7457143Y-17050952D01*
X7447619Y-17041429D01*
X7438095Y-17022381D01*
X7428571Y-16984286D01*
X7428571Y-16936667D01*
X7438095Y-16898571D01*
X7447619Y-16879524D01*
X7457143Y-16870000D01*
X7476190Y-16860476D01*
X7723809Y-16860476D02*
X7628571Y-16860476D01*
X7619048Y-16955714D01*
X7628571Y-16946190D01*
X7647619Y-16936667D01*
X7695238Y-16936667D01*
X7714286Y-16946190D01*
X7723809Y-16955714D01*
X7733333Y-16974762D01*
X7733333Y-17022381D01*
X7723809Y-17041429D01*
X7714286Y-17050952D01*
X7695238Y-17060476D01*
X7647619Y-17060476D01*
X7628571Y-17050952D01*
X7619048Y-17041429D01*
X7828571Y-17060476D02*
X7866667Y-17060476D01*
X7885714Y-17050952D01*
X7895238Y-17041429D01*
X7914286Y-17012857D01*
X7923809Y-16974762D01*
X7923809Y-16898571D01*
X7914286Y-16879524D01*
X7904762Y-16870000D01*
X7885714Y-16860476D01*
X7847619Y-16860476D01*
X7828571Y-16870000D01*
X7819048Y-16879524D01*
X7809524Y-16898571D01*
X7809524Y-16946190D01*
X7819048Y-16965238D01*
X7828571Y-16974762D01*
X7847619Y-16984286D01*
X7885714Y-16984286D01*
X7904762Y-16974762D01*
X7914286Y-16965238D01*
X7923809Y-16946190D01*
X8114286Y-17060476D02*
X8000000Y-17060476D01*
X8057143Y-17060476D02*
X8057143Y-16860476D01*
X8038095Y-16889048D01*
X8019048Y-16908095D01*
X8000000Y-16917619D01*
X8190476Y-16860476D02*
X8190476Y-16898571D01*
X8266667Y-16860476D02*
X8266667Y-16898571D01*
X8561905Y-17136667D02*
X8552381Y-17127143D01*
X8533333Y-17098571D01*
X8523810Y-17079524D01*
X8514286Y-17050952D01*
X8504762Y-17003333D01*
X8504762Y-16965238D01*
X8514286Y-16917619D01*
X8523810Y-16889048D01*
X8533333Y-16870000D01*
X8552381Y-16841429D01*
X8561905Y-16831905D01*
X8742857Y-17060476D02*
X8628571Y-17060476D01*
X8685714Y-17060476D02*
X8685714Y-16860476D01*
X8666667Y-16889048D01*
X8647619Y-16908095D01*
X8628571Y-16917619D01*
X8866667Y-16860476D02*
X8885714Y-16860476D01*
X8904762Y-16870000D01*
X8914286Y-16879524D01*
X8923810Y-16898571D01*
X8933333Y-16936667D01*
X8933333Y-16984286D01*
X8923810Y-17022381D01*
X8914286Y-17041429D01*
X8904762Y-17050952D01*
X8885714Y-17060476D01*
X8866667Y-17060476D01*
X8847619Y-17050952D01*
X8838095Y-17041429D01*
X8828571Y-17022381D01*
X8819048Y-16984286D01*
X8819048Y-16936667D01*
X8828571Y-16898571D01*
X8838095Y-16879524D01*
X8847619Y-16870000D01*
X8866667Y-16860476D01*
X9171429Y-17060476D02*
X9171429Y-16860476D01*
X9257143Y-17060476D02*
X9257143Y-16955714D01*
X9247619Y-16936667D01*
X9228571Y-16927143D01*
X9200000Y-16927143D01*
X9180952Y-16936667D01*
X9171429Y-16946190D01*
X9380952Y-17060476D02*
X9361905Y-17050952D01*
X9352381Y-17041429D01*
X9342857Y-17022381D01*
X9342857Y-16965238D01*
X9352381Y-16946190D01*
X9361905Y-16936667D01*
X9380952Y-16927143D01*
X9409524Y-16927143D01*
X9428571Y-16936667D01*
X9438095Y-16946190D01*
X9447619Y-16965238D01*
X9447619Y-17022381D01*
X9438095Y-17041429D01*
X9428571Y-17050952D01*
X9409524Y-17060476D01*
X9380952Y-17060476D01*
X9561905Y-17060476D02*
X9542857Y-17050952D01*
X9533333Y-17031905D01*
X9533333Y-16860476D01*
X9714286Y-17050952D02*
X9695238Y-17060476D01*
X9657143Y-17060476D01*
X9638095Y-17050952D01*
X9628571Y-17031905D01*
X9628571Y-16955714D01*
X9638095Y-16936667D01*
X9657143Y-16927143D01*
X9695238Y-16927143D01*
X9714286Y-16936667D01*
X9723810Y-16955714D01*
X9723810Y-16974762D01*
X9628571Y-16993810D01*
X9800000Y-17050952D02*
X9819048Y-17060476D01*
X9857143Y-17060476D01*
X9876190Y-17050952D01*
X9885714Y-17031905D01*
X9885714Y-17022381D01*
X9876190Y-17003333D01*
X9857143Y-16993810D01*
X9828571Y-16993810D01*
X9809524Y-16984286D01*
X9800000Y-16965238D01*
X9800000Y-16955714D01*
X9809524Y-16936667D01*
X9828571Y-16927143D01*
X9857143Y-16927143D01*
X9876190Y-16936667D01*
X9952381Y-17136667D02*
X9961905Y-17127143D01*
X9980952Y-17098571D01*
X9990476Y-17079524D01*
X10000000Y-17050952D01*
X10009524Y-17003333D01*
X10009524Y-16965238D01*
X10000000Y-16917619D01*
X9990476Y-16889048D01*
X9980952Y-16870000D01*
X9961905Y-16841429D01*
X9952381Y-16831905D01*
X4790000Y-17140000D02*
X4990000Y-17340000D01*
X4990000Y-17140000D02*
X4790000Y-17340000D01*
X4890000Y-17140000D02*
X4890000Y-17340000D01*
X4790000Y-17240000D02*
X4990000Y-17240000D01*
X5228571Y-17130476D02*
X5352381Y-17130476D01*
X5285714Y-17206667D01*
X5314286Y-17206667D01*
X5333333Y-17216190D01*
X5342857Y-17225714D01*
X5352381Y-17244762D01*
X5352381Y-17292381D01*
X5342857Y-17311429D01*
X5333333Y-17320952D01*
X5314286Y-17330476D01*
X5257143Y-17330476D01*
X5238095Y-17320952D01*
X5228571Y-17311429D01*
X5438095Y-17311429D02*
X5447619Y-17320952D01*
X5438095Y-17330476D01*
X5428571Y-17320952D01*
X5438095Y-17311429D01*
X5438095Y-17330476D01*
X5523810Y-17149524D02*
X5533333Y-17140000D01*
X5552381Y-17130476D01*
X5600000Y-17130476D01*
X5619048Y-17140000D01*
X5628571Y-17149524D01*
X5638095Y-17168571D01*
X5638095Y-17187619D01*
X5628571Y-17216190D01*
X5514286Y-17330476D01*
X5638095Y-17330476D01*
X5761905Y-17130476D02*
X5780952Y-17130476D01*
X5800000Y-17140000D01*
X5809524Y-17149524D01*
X5819048Y-17168571D01*
X5828571Y-17206667D01*
X5828571Y-17254286D01*
X5819048Y-17292381D01*
X5809524Y-17311429D01*
X5800000Y-17320952D01*
X5780952Y-17330476D01*
X5761905Y-17330476D01*
X5742857Y-17320952D01*
X5733333Y-17311429D01*
X5723809Y-17292381D01*
X5714286Y-17254286D01*
X5714286Y-17206667D01*
X5723809Y-17168571D01*
X5733333Y-17149524D01*
X5742857Y-17140000D01*
X5761905Y-17130476D01*
X5952381Y-17130476D02*
X5971428Y-17130476D01*
X5990476Y-17140000D01*
X6000000Y-17149524D01*
X6009524Y-17168571D01*
X6019048Y-17206667D01*
X6019048Y-17254286D01*
X6009524Y-17292381D01*
X6000000Y-17311429D01*
X5990476Y-17320952D01*
X5971428Y-17330476D01*
X5952381Y-17330476D01*
X5933333Y-17320952D01*
X5923809Y-17311429D01*
X5914286Y-17292381D01*
X5904762Y-17254286D01*
X5904762Y-17206667D01*
X5914286Y-17168571D01*
X5923809Y-17149524D01*
X5933333Y-17140000D01*
X5952381Y-17130476D01*
X6104762Y-17330476D02*
X6104762Y-17197143D01*
X6104762Y-17216190D02*
X6114286Y-17206667D01*
X6133333Y-17197143D01*
X6161905Y-17197143D01*
X6180952Y-17206667D01*
X6190476Y-17225714D01*
X6190476Y-17330476D01*
X6190476Y-17225714D02*
X6200000Y-17206667D01*
X6219048Y-17197143D01*
X6247619Y-17197143D01*
X6266667Y-17206667D01*
X6276190Y-17225714D01*
X6276190Y-17330476D01*
X6371428Y-17330476D02*
X6371428Y-17197143D01*
X6371428Y-17216190D02*
X6380952Y-17206667D01*
X6400000Y-17197143D01*
X6428571Y-17197143D01*
X6447619Y-17206667D01*
X6457143Y-17225714D01*
X6457143Y-17330476D01*
X6457143Y-17225714D02*
X6466667Y-17206667D01*
X6485714Y-17197143D01*
X6514286Y-17197143D01*
X6533333Y-17206667D01*
X6542857Y-17225714D01*
X6542857Y-17330476D01*
X6933333Y-17120952D02*
X6761905Y-17378095D01*
X7190476Y-17130476D02*
X7209524Y-17130476D01*
X7228571Y-17140000D01*
X7238095Y-17149524D01*
X7247619Y-17168571D01*
X7257143Y-17206667D01*
X7257143Y-17254286D01*
X7247619Y-17292381D01*
X7238095Y-17311429D01*
X7228571Y-17320952D01*
X7209524Y-17330476D01*
X7190476Y-17330476D01*
X7171428Y-17320952D01*
X7161905Y-17311429D01*
X7152381Y-17292381D01*
X7142857Y-17254286D01*
X7142857Y-17206667D01*
X7152381Y-17168571D01*
X7161905Y-17149524D01*
X7171428Y-17140000D01*
X7190476Y-17130476D01*
X7342857Y-17311429D02*
X7352381Y-17320952D01*
X7342857Y-17330476D01*
X7333333Y-17320952D01*
X7342857Y-17311429D01*
X7342857Y-17330476D01*
X7542857Y-17330476D02*
X7428571Y-17330476D01*
X7485714Y-17330476D02*
X7485714Y-17130476D01*
X7466667Y-17159048D01*
X7447619Y-17178095D01*
X7428571Y-17187619D01*
X7619048Y-17149524D02*
X7628571Y-17140000D01*
X7647619Y-17130476D01*
X7695238Y-17130476D01*
X7714286Y-17140000D01*
X7723809Y-17149524D01*
X7733333Y-17168571D01*
X7733333Y-17187619D01*
X7723809Y-17216190D01*
X7609524Y-17330476D01*
X7733333Y-17330476D01*
X7904762Y-17130476D02*
X7866667Y-17130476D01*
X7847619Y-17140000D01*
X7838095Y-17149524D01*
X7819048Y-17178095D01*
X7809524Y-17216190D01*
X7809524Y-17292381D01*
X7819048Y-17311429D01*
X7828571Y-17320952D01*
X7847619Y-17330476D01*
X7885714Y-17330476D01*
X7904762Y-17320952D01*
X7914286Y-17311429D01*
X7923809Y-17292381D01*
X7923809Y-17244762D01*
X7914286Y-17225714D01*
X7904762Y-17216190D01*
X7885714Y-17206667D01*
X7847619Y-17206667D01*
X7828571Y-17216190D01*
X7819048Y-17225714D01*
X7809524Y-17244762D01*
X8047619Y-17130476D02*
X8066667Y-17130476D01*
X8085714Y-17140000D01*
X8095238Y-17149524D01*
X8104762Y-17168571D01*
X8114286Y-17206667D01*
X8114286Y-17254286D01*
X8104762Y-17292381D01*
X8095238Y-17311429D01*
X8085714Y-17320952D01*
X8066667Y-17330476D01*
X8047619Y-17330476D01*
X8028571Y-17320952D01*
X8019048Y-17311429D01*
X8009524Y-17292381D01*
X8000000Y-17254286D01*
X8000000Y-17206667D01*
X8009524Y-17168571D01*
X8019048Y-17149524D01*
X8028571Y-17140000D01*
X8047619Y-17130476D01*
X8190476Y-17130476D02*
X8190476Y-17168571D01*
X8266667Y-17130476D02*
X8266667Y-17168571D01*
X8561905Y-17406667D02*
X8552381Y-17397143D01*
X8533333Y-17368571D01*
X8523810Y-17349524D01*
X8514286Y-17320952D01*
X8504762Y-17273333D01*
X8504762Y-17235238D01*
X8514286Y-17187619D01*
X8523810Y-17159048D01*
X8533333Y-17140000D01*
X8552381Y-17111429D01*
X8561905Y-17101905D01*
X8723810Y-17197143D02*
X8723810Y-17330476D01*
X8676190Y-17120952D02*
X8628571Y-17263810D01*
X8752381Y-17263810D01*
X8980952Y-17330476D02*
X8980952Y-17130476D01*
X9066667Y-17330476D02*
X9066667Y-17225714D01*
X9057143Y-17206667D01*
X9038095Y-17197143D01*
X9009524Y-17197143D01*
X8990476Y-17206667D01*
X8980952Y-17216190D01*
X9190476Y-17330476D02*
X9171429Y-17320952D01*
X9161905Y-17311429D01*
X9152381Y-17292381D01*
X9152381Y-17235238D01*
X9161905Y-17216190D01*
X9171429Y-17206667D01*
X9190476Y-17197143D01*
X9219048Y-17197143D01*
X9238095Y-17206667D01*
X9247619Y-17216190D01*
X9257143Y-17235238D01*
X9257143Y-17292381D01*
X9247619Y-17311429D01*
X9238095Y-17320952D01*
X9219048Y-17330476D01*
X9190476Y-17330476D01*
X9371429Y-17330476D02*
X9352381Y-17320952D01*
X9342857Y-17301905D01*
X9342857Y-17130476D01*
X9523810Y-17320952D02*
X9504762Y-17330476D01*
X9466667Y-17330476D01*
X9447619Y-17320952D01*
X9438095Y-17301905D01*
X9438095Y-17225714D01*
X9447619Y-17206667D01*
X9466667Y-17197143D01*
X9504762Y-17197143D01*
X9523810Y-17206667D01*
X9533333Y-17225714D01*
X9533333Y-17244762D01*
X9438095Y-17263810D01*
X9609524Y-17320952D02*
X9628571Y-17330476D01*
X9666667Y-17330476D01*
X9685714Y-17320952D01*
X9695238Y-17301905D01*
X9695238Y-17292381D01*
X9685714Y-17273333D01*
X9666667Y-17263810D01*
X9638095Y-17263810D01*
X9619048Y-17254286D01*
X9609524Y-17235238D01*
X9609524Y-17225714D01*
X9619048Y-17206667D01*
X9638095Y-17197143D01*
X9666667Y-17197143D01*
X9685714Y-17206667D01*
X9761905Y-17406667D02*
X9771429Y-17397143D01*
X9790476Y-17368571D01*
X9800000Y-17349524D01*
X9809524Y-17320952D01*
X9819048Y-17273333D01*
X9819048Y-17235238D01*
X9809524Y-17187619D01*
X9800000Y-17159048D01*
X9790476Y-17140000D01*
X9771429Y-17111429D01*
X9761905Y-17101905D01*
M02*
