G04 #@! TF.GenerationSoftware,KiCad,Pcbnew,(6.0.11-0)*
G04 #@! TF.CreationDate,2025-05-14T22:18:42-06:00*
G04 #@! TF.ProjectId,AnalogPCB,416e616c-6f67-4504-9342-2e6b69636164,rev?*
G04 #@! TF.SameCoordinates,Original*
G04 #@! TF.FileFunction,Paste,Bot*
G04 #@! TF.FilePolarity,Positive*
%FSLAX46Y46*%
G04 Gerber Fmt 4.6, Leading zero omitted, Abs format (unit mm)*
G04 Created by KiCad (PCBNEW (6.0.11-0)) date 2025-05-14 22:18:42*
%MOMM*%
%LPD*%
G01*
G04 APERTURE LIST*
G04 Aperture macros list*
%AMRoundRect*
0 Rectangle with rounded corners*
0 $1 Rounding radius*
0 $2 $3 $4 $5 $6 $7 $8 $9 X,Y pos of 4 corners*
0 Add a 4 corners polygon primitive as box body*
4,1,4,$2,$3,$4,$5,$6,$7,$8,$9,$2,$3,0*
0 Add four circle primitives for the rounded corners*
1,1,$1+$1,$2,$3*
1,1,$1+$1,$4,$5*
1,1,$1+$1,$6,$7*
1,1,$1+$1,$8,$9*
0 Add four rect primitives between the rounded corners*
20,1,$1+$1,$2,$3,$4,$5,0*
20,1,$1+$1,$4,$5,$6,$7,0*
20,1,$1+$1,$6,$7,$8,$9,0*
20,1,$1+$1,$8,$9,$2,$3,0*%
G04 Aperture macros list end*
%ADD10C,0.010000*%
%ADD11RoundRect,0.225000X-0.250000X0.225000X-0.250000X-0.225000X0.250000X-0.225000X0.250000X0.225000X0*%
%ADD12RoundRect,0.250000X0.475000X-0.250000X0.475000X0.250000X-0.475000X0.250000X-0.475000X-0.250000X0*%
%ADD13R,0.800000X1.800000*%
G04 APERTURE END LIST*
G36*
X77890000Y-58600000D02*
G01*
X77610000Y-58600000D01*
X77610000Y-57400000D01*
X77890000Y-57400000D01*
X77890000Y-58600000D01*
G37*
D10*
X77890000Y-58600000D02*
X77610000Y-58600000D01*
X77610000Y-57400000D01*
X77890000Y-57400000D01*
X77890000Y-58600000D01*
G36*
X80890000Y-62600000D02*
G01*
X80610000Y-62600000D01*
X80610000Y-61400000D01*
X80890000Y-61400000D01*
X80890000Y-62600000D01*
G37*
X80890000Y-62600000D02*
X80610000Y-62600000D01*
X80610000Y-61400000D01*
X80890000Y-61400000D01*
X80890000Y-62600000D01*
G36*
X79390000Y-58600000D02*
G01*
X79110000Y-58600000D01*
X79110000Y-57400000D01*
X79390000Y-57400000D01*
X79390000Y-58600000D01*
G37*
X79390000Y-58600000D02*
X79110000Y-58600000D01*
X79110000Y-57400000D01*
X79390000Y-57400000D01*
X79390000Y-58600000D01*
G36*
X80390000Y-62600000D02*
G01*
X80110000Y-62600000D01*
X80110000Y-61400000D01*
X80390000Y-61400000D01*
X80390000Y-62600000D01*
G37*
X80390000Y-62600000D02*
X80110000Y-62600000D01*
X80110000Y-61400000D01*
X80390000Y-61400000D01*
X80390000Y-62600000D01*
G36*
X79890000Y-58600000D02*
G01*
X79610000Y-58600000D01*
X79610000Y-57400000D01*
X79890000Y-57400000D01*
X79890000Y-58600000D01*
G37*
X79890000Y-58600000D02*
X79610000Y-58600000D01*
X79610000Y-57400000D01*
X79890000Y-57400000D01*
X79890000Y-58600000D01*
G36*
X78390000Y-58600000D02*
G01*
X78110000Y-58600000D01*
X78110000Y-57400000D01*
X78390000Y-57400000D01*
X78390000Y-58600000D01*
G37*
X78390000Y-58600000D02*
X78110000Y-58600000D01*
X78110000Y-57400000D01*
X78390000Y-57400000D01*
X78390000Y-58600000D01*
G36*
X80890000Y-58600000D02*
G01*
X80610000Y-58600000D01*
X80610000Y-57400000D01*
X80890000Y-57400000D01*
X80890000Y-58600000D01*
G37*
X80890000Y-58600000D02*
X80610000Y-58600000D01*
X80610000Y-57400000D01*
X80890000Y-57400000D01*
X80890000Y-58600000D01*
G36*
X81390000Y-62600000D02*
G01*
X81110000Y-62600000D01*
X81110000Y-61400000D01*
X81390000Y-61400000D01*
X81390000Y-62600000D01*
G37*
X81390000Y-62600000D02*
X81110000Y-62600000D01*
X81110000Y-61400000D01*
X81390000Y-61400000D01*
X81390000Y-62600000D01*
G36*
X82390000Y-62600000D02*
G01*
X82110000Y-62600000D01*
X82110000Y-61400000D01*
X82390000Y-61400000D01*
X82390000Y-62600000D01*
G37*
X82390000Y-62600000D02*
X82110000Y-62600000D01*
X82110000Y-61400000D01*
X82390000Y-61400000D01*
X82390000Y-62600000D01*
G36*
X82390000Y-58600000D02*
G01*
X82110000Y-58600000D01*
X82110000Y-57400000D01*
X82390000Y-57400000D01*
X82390000Y-58600000D01*
G37*
X82390000Y-58600000D02*
X82110000Y-58600000D01*
X82110000Y-57400000D01*
X82390000Y-57400000D01*
X82390000Y-58600000D01*
G36*
X81890000Y-58600000D02*
G01*
X81610000Y-58600000D01*
X81610000Y-57400000D01*
X81890000Y-57400000D01*
X81890000Y-58600000D01*
G37*
X81890000Y-58600000D02*
X81610000Y-58600000D01*
X81610000Y-57400000D01*
X81890000Y-57400000D01*
X81890000Y-58600000D01*
G36*
X79390000Y-62600000D02*
G01*
X79110000Y-62600000D01*
X79110000Y-61400000D01*
X79390000Y-61400000D01*
X79390000Y-62600000D01*
G37*
X79390000Y-62600000D02*
X79110000Y-62600000D01*
X79110000Y-61400000D01*
X79390000Y-61400000D01*
X79390000Y-62600000D01*
G36*
X80390000Y-58600000D02*
G01*
X80110000Y-58600000D01*
X80110000Y-57400000D01*
X80390000Y-57400000D01*
X80390000Y-58600000D01*
G37*
X80390000Y-58600000D02*
X80110000Y-58600000D01*
X80110000Y-57400000D01*
X80390000Y-57400000D01*
X80390000Y-58600000D01*
G36*
X81390000Y-58600000D02*
G01*
X81110000Y-58600000D01*
X81110000Y-57400000D01*
X81390000Y-57400000D01*
X81390000Y-58600000D01*
G37*
X81390000Y-58600000D02*
X81110000Y-58600000D01*
X81110000Y-57400000D01*
X81390000Y-57400000D01*
X81390000Y-58600000D01*
G36*
X79890000Y-62600000D02*
G01*
X79610000Y-62600000D01*
X79610000Y-61400000D01*
X79890000Y-61400000D01*
X79890000Y-62600000D01*
G37*
X79890000Y-62600000D02*
X79610000Y-62600000D01*
X79610000Y-61400000D01*
X79890000Y-61400000D01*
X79890000Y-62600000D01*
G36*
X77890000Y-62600000D02*
G01*
X77610000Y-62600000D01*
X77610000Y-61400000D01*
X77890000Y-61400000D01*
X77890000Y-62600000D01*
G37*
X77890000Y-62600000D02*
X77610000Y-62600000D01*
X77610000Y-61400000D01*
X77890000Y-61400000D01*
X77890000Y-62600000D01*
G36*
X78390000Y-62600000D02*
G01*
X78110000Y-62600000D01*
X78110000Y-61400000D01*
X78390000Y-61400000D01*
X78390000Y-62600000D01*
G37*
X78390000Y-62600000D02*
X78110000Y-62600000D01*
X78110000Y-61400000D01*
X78390000Y-61400000D01*
X78390000Y-62600000D01*
G36*
X78890000Y-58600000D02*
G01*
X78610000Y-58600000D01*
X78610000Y-57400000D01*
X78890000Y-57400000D01*
X78890000Y-58600000D01*
G37*
X78890000Y-58600000D02*
X78610000Y-58600000D01*
X78610000Y-57400000D01*
X78890000Y-57400000D01*
X78890000Y-58600000D01*
G36*
X78890000Y-62600000D02*
G01*
X78610000Y-62600000D01*
X78610000Y-61400000D01*
X78890000Y-61400000D01*
X78890000Y-62600000D01*
G37*
X78890000Y-62600000D02*
X78610000Y-62600000D01*
X78610000Y-61400000D01*
X78890000Y-61400000D01*
X78890000Y-62600000D01*
G36*
X81890000Y-62600000D02*
G01*
X81610000Y-62600000D01*
X81610000Y-61400000D01*
X81890000Y-61400000D01*
X81890000Y-62600000D01*
G37*
X81890000Y-62600000D02*
X81610000Y-62600000D01*
X81610000Y-61400000D01*
X81890000Y-61400000D01*
X81890000Y-62600000D01*
D11*
X63600000Y-78600000D03*
X63600000Y-80150000D03*
X63700000Y-104845000D03*
X63700000Y-106395000D03*
D12*
X61700000Y-106350000D03*
X61700000Y-104450000D03*
D13*
X84000000Y-60000000D03*
X76000000Y-60000000D03*
D12*
X61600000Y-80105000D03*
X61600000Y-78205000D03*
M02*
