G04 #@! TF.GenerationSoftware,KiCad,Pcbnew,(6.0.11-0)*
G04 #@! TF.CreationDate,2025-05-14T22:18:42-06:00*
G04 #@! TF.ProjectId,AnalogPCB,416e616c-6f67-4504-9342-2e6b69636164,rev?*
G04 #@! TF.SameCoordinates,Original*
G04 #@! TF.FileFunction,Profile,NP*
%FSLAX46Y46*%
G04 Gerber Fmt 4.6, Leading zero omitted, Abs format (unit mm)*
G04 Created by KiCad (PCBNEW (6.0.11-0)) date 2025-05-14 22:18:42*
%MOMM*%
%LPD*%
G01*
G04 APERTURE LIST*
G04 #@! TA.AperFunction,Profile*
%ADD10C,0.100000*%
G04 #@! TD*
G04 #@! TA.AperFunction,Profile*
%ADD11C,0.200000*%
G04 #@! TD*
G04 APERTURE END LIST*
D10*
X93000000Y-90000000D02*
G75*
G03*
X95000000Y-90000000I1000000J0D01*
G01*
X95000000Y-99000000D02*
X95000000Y-117000000D01*
X110000000Y-55000000D02*
G75*
G03*
X105000000Y-50000000I-5000000J0D01*
G01*
X69000000Y-147000000D02*
X69000000Y-132000000D01*
X108000000Y-150000000D02*
G75*
G03*
X110000000Y-148000000I0J2000000D01*
G01*
D11*
X105000000Y-50000000D02*
X55000000Y-50000000D01*
D10*
X71000000Y-132000000D02*
X71000000Y-147000000D01*
X97750000Y-130750000D02*
X72750000Y-130750000D01*
X95000000Y-72000000D02*
X95000000Y-90000000D01*
D11*
X55000000Y-50000000D02*
G75*
G03*
X50000000Y-55000000I0J-5000000D01*
G01*
D10*
X93000000Y-117000000D02*
G75*
G03*
X95000000Y-117000000I1000000J0D01*
G01*
X97750000Y-130750000D02*
G75*
G03*
X97750000Y-128750000I0J1000000D01*
G01*
X95000000Y-99000000D02*
G75*
G03*
X93000000Y-99000000I-1000000J0D01*
G01*
X95000000Y-72000000D02*
G75*
G03*
X93000000Y-72000000I-1000000J0D01*
G01*
D11*
X52000000Y-150000000D02*
X108000000Y-150000000D01*
D10*
X105000000Y-119500000D02*
G75*
G03*
X103000000Y-119500000I-1000000J0D01*
G01*
X72750000Y-128750000D02*
G75*
G03*
X72750000Y-130750000I0J-1000000D01*
G01*
X105000000Y-119500000D02*
X105000000Y-124500000D01*
X71000000Y-132000000D02*
G75*
G03*
X69000000Y-132000000I-1000000J0D01*
G01*
X50000000Y-148000000D02*
G75*
G03*
X52000000Y-150000000I2000000J0D01*
G01*
D11*
X110000000Y-148000000D02*
X110000000Y-55000000D01*
D10*
X72750000Y-128750000D02*
X97750000Y-128750000D01*
X103000000Y-124500000D02*
G75*
G03*
X105000000Y-124500000I1000000J0D01*
G01*
D11*
X50000000Y-55000000D02*
X50000000Y-148000000D01*
D10*
X103000000Y-119500000D02*
X103000000Y-124500000D01*
X93000000Y-90000000D02*
X93000000Y-72000000D01*
X69000000Y-147000000D02*
G75*
G03*
X71000000Y-147000000I1000000J0D01*
G01*
X93000000Y-117000000D02*
X93000000Y-99000000D01*
M02*
