G04 #@! TF.GenerationSoftware,KiCad,Pcbnew,(6.0.11-0)*
G04 #@! TF.CreationDate,2025-05-12T21:09:53-06:00*
G04 #@! TF.ProjectId,DigitalPCB,44696769-7461-46c5-9043-422e6b696361,rev?*
G04 #@! TF.SameCoordinates,Original*
G04 #@! TF.FileFunction,Soldermask,Top*
G04 #@! TF.FilePolarity,Negative*
%FSLAX46Y46*%
G04 Gerber Fmt 4.6, Leading zero omitted, Abs format (unit mm)*
G04 Created by KiCad (PCBNEW (6.0.11-0)) date 2025-05-12 21:09:53*
%MOMM*%
%LPD*%
G01*
G04 APERTURE LIST*
G04 Aperture macros list*
%AMRoundRect*
0 Rectangle with rounded corners*
0 $1 Rounding radius*
0 $2 $3 $4 $5 $6 $7 $8 $9 X,Y pos of 4 corners*
0 Add a 4 corners polygon primitive as box body*
4,1,4,$2,$3,$4,$5,$6,$7,$8,$9,$2,$3,0*
0 Add four circle primitives for the rounded corners*
1,1,$1+$1,$2,$3*
1,1,$1+$1,$4,$5*
1,1,$1+$1,$6,$7*
1,1,$1+$1,$8,$9*
0 Add four rect primitives between the rounded corners*
20,1,$1+$1,$2,$3,$4,$5,0*
20,1,$1+$1,$4,$5,$6,$7,0*
20,1,$1+$1,$6,$7,$8,$9,0*
20,1,$1+$1,$8,$9,$2,$3,0*%
%AMFreePoly0*
4,1,22,0.550000,-0.750000,0.000000,-0.750000,0.000000,-0.745033,-0.079941,-0.743568,-0.215256,-0.701293,-0.333266,-0.622738,-0.424486,-0.514219,-0.481581,-0.384460,-0.499164,-0.250000,-0.500000,-0.250000,-0.500000,0.250000,-0.499164,0.250000,-0.499963,0.256109,-0.478152,0.396186,-0.417904,0.524511,-0.324060,0.630769,-0.204165,0.706417,-0.067858,0.745374,0.000000,0.744959,0.000000,0.750000,
0.550000,0.750000,0.550000,-0.750000,0.550000,-0.750000,$1*%
%AMFreePoly1*
4,1,20,0.000000,0.744959,0.073905,0.744508,0.209726,0.703889,0.328688,0.626782,0.421226,0.519385,0.479903,0.390333,0.500000,0.250000,0.500000,-0.250000,0.499851,-0.262216,0.476331,-0.402017,0.414519,-0.529596,0.319384,-0.634700,0.198574,-0.708877,0.061801,-0.746166,0.000000,-0.745033,0.000000,-0.750000,-0.550000,-0.750000,-0.550000,0.750000,0.000000,0.750000,0.000000,0.744959,
0.000000,0.744959,$1*%
G04 Aperture macros list end*
%ADD10RoundRect,0.200000X0.275000X-0.200000X0.275000X0.200000X-0.275000X0.200000X-0.275000X-0.200000X0*%
%ADD11RoundRect,0.225000X-0.250000X0.225000X-0.250000X-0.225000X0.250000X-0.225000X0.250000X0.225000X0*%
%ADD12RoundRect,0.200000X-0.275000X0.200000X-0.275000X-0.200000X0.275000X-0.200000X0.275000X0.200000X0*%
%ADD13RoundRect,0.225000X-0.225000X-0.250000X0.225000X-0.250000X0.225000X0.250000X-0.225000X0.250000X0*%
%ADD14R,1.400000X0.950000*%
%ADD15RoundRect,0.225000X0.250000X-0.225000X0.250000X0.225000X-0.250000X0.225000X-0.250000X-0.225000X0*%
%ADD16C,1.000000*%
%ADD17R,0.939800X1.625600*%
%ADD18R,0.508000X1.625600*%
%ADD19RoundRect,0.218750X0.218750X0.256250X-0.218750X0.256250X-0.218750X-0.256250X0.218750X-0.256250X0*%
%ADD20RoundRect,0.218750X-0.256250X0.218750X-0.256250X-0.218750X0.256250X-0.218750X0.256250X0.218750X0*%
%ADD21R,0.355600X1.778000*%
%ADD22R,0.609600X1.549400*%
%ADD23R,1.193800X1.803400*%
%ADD24C,5.600000*%
%ADD25R,1.350000X0.400000*%
%ADD26R,1.900000X1.200000*%
%ADD27O,1.900000X1.200000*%
%ADD28R,1.900000X1.500000*%
%ADD29C,1.450000*%
%ADD30RoundRect,0.250000X-0.475000X0.250000X-0.475000X-0.250000X0.475000X-0.250000X0.475000X0.250000X0*%
%ADD31RoundRect,0.218750X-0.218750X-0.256250X0.218750X-0.256250X0.218750X0.256250X-0.218750X0.256250X0*%
%ADD32RoundRect,0.200000X0.200000X0.275000X-0.200000X0.275000X-0.200000X-0.275000X0.200000X-0.275000X0*%
%ADD33RoundRect,0.250000X-0.250000X-0.475000X0.250000X-0.475000X0.250000X0.475000X-0.250000X0.475000X0*%
%ADD34R,2.200000X1.200000*%
%ADD35R,6.400000X5.800000*%
%ADD36FreePoly0,90.000000*%
%ADD37R,1.500000X1.000000*%
%ADD38FreePoly1,90.000000*%
%ADD39RoundRect,0.062500X0.350000X0.062500X-0.350000X0.062500X-0.350000X-0.062500X0.350000X-0.062500X0*%
%ADD40RoundRect,0.062500X0.062500X0.350000X-0.062500X0.350000X-0.062500X-0.350000X0.062500X-0.350000X0*%
%ADD41R,2.600000X2.600000*%
%ADD42RoundRect,0.150000X-0.150000X0.825000X-0.150000X-0.825000X0.150000X-0.825000X0.150000X0.825000X0*%
%ADD43R,1.650000X1.650000*%
%ADD44C,1.650000*%
%ADD45O,3.000000X6.000000*%
%ADD46RoundRect,0.250000X0.250000X0.475000X-0.250000X0.475000X-0.250000X-0.475000X0.250000X-0.475000X0*%
%ADD47R,0.406400X1.219200*%
%ADD48R,0.889000X1.498600*%
%ADD49R,1.498600X0.889000*%
%ADD50R,0.889000X0.889000*%
%ADD51R,1.700000X1.700000*%
%ADD52O,1.700000X1.700000*%
%ADD53R,0.650000X0.400000*%
%ADD54R,1.000000X0.700000*%
%ADD55R,0.600000X0.700000*%
G04 APERTURE END LIST*
D10*
X53200000Y-90625000D03*
X53200000Y-88975000D03*
D11*
X101800000Y-108223600D03*
X101800000Y-109773600D03*
D12*
X99890000Y-108173600D03*
X99890000Y-109823600D03*
D13*
X65025000Y-78300000D03*
X66575000Y-78300000D03*
D14*
X106200000Y-69625000D03*
X106200000Y-73775000D03*
D15*
X84100000Y-78775000D03*
X84100000Y-77225000D03*
D12*
X64900000Y-118700000D03*
X64900000Y-120350000D03*
D10*
X90910000Y-95348600D03*
X90910000Y-93698600D03*
D11*
X101900000Y-89750000D03*
X101900000Y-91300000D03*
D16*
X91800000Y-111200000D03*
D17*
X101173400Y-72766800D03*
D18*
X102877500Y-72766800D03*
X102877501Y-70633200D03*
X100957499Y-70633200D03*
D19*
X96887500Y-113800000D03*
X95312500Y-113800000D03*
D20*
X97990000Y-108211100D03*
X97990000Y-109786100D03*
D10*
X88600000Y-117550000D03*
X88600000Y-115900000D03*
D16*
X94000000Y-111200000D03*
D21*
X104025001Y-96471800D03*
X104674999Y-96471800D03*
X105325001Y-96471800D03*
X105974999Y-96471800D03*
X105974999Y-90528200D03*
X105325001Y-90528200D03*
X104674999Y-90528200D03*
X104025001Y-90528200D03*
D16*
X95900000Y-104900000D03*
X78180000Y-91500000D03*
X64900000Y-116900000D03*
D22*
X99799998Y-124498500D03*
X100799999Y-124498500D03*
X101799997Y-124498500D03*
X102799998Y-124498500D03*
D23*
X98499999Y-128373501D03*
X104099997Y-128373501D03*
D24*
X55000000Y-65000000D03*
D25*
X104837500Y-106800000D03*
X104837500Y-106150000D03*
X104837500Y-105500000D03*
X104837500Y-104850000D03*
X104837500Y-104200000D03*
D26*
X107537500Y-102600000D03*
D27*
X107537500Y-102000000D03*
D28*
X107537500Y-104500000D03*
D27*
X107537500Y-109000000D03*
D28*
X107537500Y-106500000D03*
D29*
X104837500Y-103000000D03*
X104837500Y-108000000D03*
D26*
X107537500Y-108400000D03*
D12*
X58716000Y-118700000D03*
X58716000Y-120350000D03*
D22*
X71205050Y-124598500D03*
X72205051Y-124598500D03*
X73205049Y-124598500D03*
X74205050Y-124598500D03*
D23*
X69905051Y-128473501D03*
X75505049Y-128473501D03*
D22*
X90268348Y-124498500D03*
X91268349Y-124498500D03*
X92268347Y-124498500D03*
X93268348Y-124498500D03*
D23*
X88968349Y-128373501D03*
X94568347Y-128373501D03*
D12*
X94510000Y-93698600D03*
X94510000Y-95348600D03*
D13*
X52625000Y-78300000D03*
X54175000Y-78300000D03*
D16*
X88900000Y-108900000D03*
D30*
X98410000Y-95848600D03*
X98410000Y-97748600D03*
D31*
X55812500Y-74500000D03*
X57387500Y-74500000D03*
D15*
X108000000Y-91275000D03*
X108000000Y-89725000D03*
D12*
X55600000Y-118700000D03*
X55600000Y-120350000D03*
D31*
X55812500Y-70800000D03*
X57387500Y-70800000D03*
D16*
X83500000Y-91500000D03*
X82500000Y-97000000D03*
D32*
X62925000Y-74500000D03*
X61275000Y-74500000D03*
D33*
X51650000Y-116600000D03*
X53550000Y-116600000D03*
D34*
X107780000Y-119345000D03*
D35*
X101480000Y-117065000D03*
D34*
X107780000Y-114785000D03*
D36*
X55580000Y-124825000D03*
D37*
X55580000Y-123525000D03*
D38*
X55580000Y-122225000D03*
D13*
X58825000Y-78300000D03*
X60375000Y-78300000D03*
D16*
X101500000Y-86800000D03*
X72860000Y-91500000D03*
D13*
X86025000Y-78800000D03*
X87575000Y-78800000D03*
D39*
X94537500Y-100450000D03*
X94537500Y-99950000D03*
X94537500Y-99450000D03*
X94537500Y-98950000D03*
X94537500Y-98450000D03*
X94537500Y-97950000D03*
D40*
X93850000Y-97262500D03*
X93350000Y-97262500D03*
X92850000Y-97262500D03*
X92350000Y-97262500D03*
X91850000Y-97262500D03*
X91350000Y-97262500D03*
D39*
X90662500Y-97950000D03*
X90662500Y-98450000D03*
X90662500Y-98950000D03*
X90662500Y-99450000D03*
X90662500Y-99950000D03*
X90662500Y-100450000D03*
D40*
X91350000Y-101137500D03*
X91850000Y-101137500D03*
X92350000Y-101137500D03*
X92850000Y-101137500D03*
X93350000Y-101137500D03*
X93850000Y-101137500D03*
D41*
X92600000Y-99200000D03*
D42*
X88845000Y-81095000D03*
X87575000Y-81095000D03*
X86305000Y-81095000D03*
X85035000Y-81095000D03*
X85035000Y-86045000D03*
X86305000Y-86045000D03*
X87575000Y-86045000D03*
X88845000Y-86045000D03*
D43*
X82500000Y-119500000D03*
D44*
X77500000Y-119500000D03*
X82500000Y-105000000D03*
X77500000Y-105000000D03*
X80000000Y-105000000D03*
D45*
X85700000Y-112500000D03*
X74300000Y-112500000D03*
D16*
X91200000Y-71200000D03*
D12*
X90300000Y-105550000D03*
X90300000Y-107200000D03*
D16*
X88600000Y-119300000D03*
D12*
X56900000Y-88975000D03*
X56900000Y-90625000D03*
D46*
X96870000Y-117400000D03*
X94970000Y-117400000D03*
D32*
X101925000Y-74900000D03*
X100275000Y-74900000D03*
D16*
X55580000Y-117000000D03*
X77700000Y-97000000D03*
X82000000Y-71200000D03*
D24*
X105000000Y-55000000D03*
D32*
X62925000Y-72650000D03*
X61275000Y-72650000D03*
D16*
X70200000Y-91500000D03*
D32*
X96965000Y-115495000D03*
X95315000Y-115495000D03*
D13*
X104525000Y-86000000D03*
X106075000Y-86000000D03*
D47*
X52130000Y-87141700D03*
X54670000Y-87141700D03*
X54670000Y-80258300D03*
X53400000Y-80258300D03*
X52130000Y-80258300D03*
D12*
X88100000Y-100275000D03*
X88100000Y-101925000D03*
X61812000Y-118700000D03*
X61812000Y-120350000D03*
D48*
X51491330Y-113550000D03*
X52761330Y-113550000D03*
X54031330Y-113550000D03*
X55301330Y-113550000D03*
X56571330Y-113550000D03*
X57841330Y-113550000D03*
X59111330Y-113550000D03*
X60381330Y-113550000D03*
X61651330Y-113550000D03*
X62921330Y-113550000D03*
X64191330Y-113550000D03*
X65461330Y-113550000D03*
X66731330Y-113550000D03*
X68001330Y-113550000D03*
D49*
X69251772Y-110515000D03*
X69251772Y-109245000D03*
X69251772Y-107975000D03*
X69251772Y-106705000D03*
X69251772Y-105435000D03*
X69251772Y-104165000D03*
X69251772Y-102895000D03*
X69251772Y-101625000D03*
X69251772Y-100355000D03*
X69251772Y-99085000D03*
D48*
X68001330Y-96050000D03*
X66731330Y-96050000D03*
X65461330Y-96050000D03*
X64191330Y-96050000D03*
X62921330Y-96050000D03*
X61651330Y-96050000D03*
X60381330Y-96050000D03*
X59111330Y-96050000D03*
X57841330Y-96050000D03*
X56571330Y-96050000D03*
X55301330Y-96050000D03*
X54031330Y-96050000D03*
X52761330Y-96050000D03*
X51491330Y-96050000D03*
D50*
X57431193Y-107704289D03*
X57431193Y-106304290D03*
X57431193Y-104904290D03*
X58831193Y-107704289D03*
X58831193Y-106304290D03*
X58831193Y-104904290D03*
X60231191Y-107704236D03*
X60231191Y-106304188D03*
X60231191Y-104904140D03*
D10*
X82500000Y-102625000D03*
X82500000Y-100975000D03*
D12*
X95900000Y-106875000D03*
X95900000Y-108525000D03*
D16*
X88700000Y-112100000D03*
X61800000Y-117000000D03*
D32*
X106000000Y-98975000D03*
X104350000Y-98975000D03*
D10*
X58875000Y-90625000D03*
X58875000Y-88975000D03*
D36*
X61800000Y-124825000D03*
D37*
X61800000Y-123525000D03*
D38*
X61800000Y-122225000D03*
D11*
X96410000Y-96243600D03*
X96410000Y-97793600D03*
D51*
X56780000Y-127900000D03*
D52*
X59320000Y-127900000D03*
X61860000Y-127900000D03*
X64400000Y-127900000D03*
D16*
X61200000Y-89200000D03*
D12*
X80900000Y-100975000D03*
X80900000Y-102625000D03*
D31*
X55812500Y-72650000D03*
X57387500Y-72650000D03*
D15*
X103600000Y-81775000D03*
X103600000Y-80225000D03*
D12*
X92710000Y-93698600D03*
X92710000Y-95348600D03*
D36*
X64900000Y-124825000D03*
D37*
X64900000Y-123525000D03*
D38*
X64900000Y-122225000D03*
D14*
X106200000Y-78925000D03*
X106200000Y-83075000D03*
D10*
X75500000Y-87625000D03*
X75500000Y-85975000D03*
X65100000Y-90625000D03*
X65100000Y-88975000D03*
D12*
X86400000Y-100275000D03*
X86400000Y-101925000D03*
D24*
X105000000Y-65000000D03*
D32*
X62925000Y-70800000D03*
X61275000Y-70800000D03*
X106125000Y-87800000D03*
X104475000Y-87800000D03*
D16*
X58700000Y-117000000D03*
D33*
X106480000Y-112240000D03*
X108380000Y-112240000D03*
D12*
X63200000Y-88975000D03*
X63200000Y-90625000D03*
D16*
X55000000Y-89200000D03*
D11*
X84100000Y-101025000D03*
X84100000Y-102575000D03*
D53*
X91950000Y-107050000D03*
X91950000Y-107700000D03*
X91950000Y-108350000D03*
X93850000Y-108350000D03*
X93850000Y-107700000D03*
X93850000Y-107050000D03*
D10*
X77700000Y-102625000D03*
X77700000Y-100975000D03*
D54*
X99650000Y-104700000D03*
D55*
X97950000Y-104700000D03*
X97950000Y-106700000D03*
X99850000Y-106700000D03*
D16*
X86600000Y-71200000D03*
D47*
X64530000Y-87141700D03*
X67070000Y-87141700D03*
X67070000Y-80258300D03*
X65800000Y-80258300D03*
X64530000Y-80258300D03*
D10*
X72800000Y-87625000D03*
X72800000Y-85975000D03*
D15*
X98600000Y-71675000D03*
X98600000Y-70125000D03*
D24*
X55000000Y-55000000D03*
D16*
X75520000Y-91500000D03*
D46*
X96870000Y-119555000D03*
X94970000Y-119555000D03*
D13*
X52025000Y-119300000D03*
X53575000Y-119300000D03*
D16*
X80840000Y-91500000D03*
D22*
X80736699Y-124598500D03*
X81736700Y-124598500D03*
X82736698Y-124598500D03*
X83736699Y-124598500D03*
D23*
X79436700Y-128473501D03*
X85036698Y-128473501D03*
D12*
X51500000Y-88975000D03*
X51500000Y-90625000D03*
X79300000Y-100975000D03*
X79300000Y-102625000D03*
D16*
X67400000Y-89200000D03*
D11*
X76100000Y-101025000D03*
X76100000Y-102575000D03*
D47*
X58330000Y-87141700D03*
X60870000Y-87141700D03*
X60870000Y-80258300D03*
X59600000Y-80258300D03*
X58330000Y-80258300D03*
D36*
X58700000Y-124825000D03*
D37*
X58700000Y-123525000D03*
D38*
X58700000Y-122225000D03*
M02*
