M48
; DRILL file {KiCad (6.0.11-0)} date 
; FORMAT={-:-/ absolute / metric / decimal}
; #@! TF.CreationDate,2025-05-12T21:09:56-06:00
; #@! TF.GenerationSoftware,Kicad,Pcbnew,(6.0.11-0)
; #@! TF.FileFunction,Plated,1,4,PTH
FMAT,2
METRIC
; #@! TA.AperFunction,Plated,PTH,ViaDrill
T1C0.300
; #@! TA.AperFunction,Plated,PTH,ComponentDrill
T2C0.600
; #@! TA.AperFunction,Plated,PTH,ComponentDrill
T3C0.850
; #@! TA.AperFunction,Plated,PTH,ComponentDrill
T4C1.000
; #@! TA.AperFunction,Plated,PTH,ComponentDrill
T5C1.100
; #@! TA.AperFunction,Plated,PTH,ComponentDrill
T6C2.000
; #@! TA.AperFunction,Plated,PTH,ComponentDrill
T7C3.200
%
G90
G05
T1
X50.7Y-115.2
X50.8Y-119.3
X50.9Y-88.0
X51.1Y-111.7
X51.2Y-83.7
X51.7Y-115.1
X51.9Y-118.0
X51.9Y-120.6
X52.7Y-83.7
X52.7Y-111.7
X53.2Y-91.7
X53.4Y-87.1
X53.6Y-118.1
X53.6Y-121.6
X54.1Y-115.1
X54.2Y-83.7
X54.6Y-70.8
X54.6Y-72.6
X54.6Y-74.5
X55.0Y-98.2
X55.1Y-91.3
X55.1Y-102.6
X55.1Y-104.1
X55.1Y-105.6
X55.1Y-107.1
X55.1Y-108.6
X55.1Y-110.1
X55.3Y-94.1
X55.4Y-78.3
X55.6Y-122.3
X55.6Y-124.8
X55.7Y-83.7
X56.6Y-87.9
X56.6Y-102.6
X56.6Y-104.1
X56.6Y-105.6
X56.6Y-107.1
X56.6Y-108.6
X56.6Y-110.1
X56.875Y-97.956
X57.1Y-117.8
X57.2Y-83.7
X57.3Y-97.4
X58.1Y-102.6
X58.1Y-104.1
X58.1Y-105.6
X58.1Y-107.1
X58.1Y-108.6
X58.1Y-110.1
X58.7Y-83.7
X58.7Y-122.3
X58.7Y-124.8
X58.825Y-78.3
X58.9Y-91.7
X59.4Y-71.7
X59.4Y-73.6
X59.6Y-102.6
X59.6Y-104.1
X59.6Y-105.6
X59.6Y-107.1
X59.6Y-108.6
X59.6Y-110.1
X59.7Y-87.1
X60.2Y-83.7
X60.3Y-117.9
X61.1Y-102.6
X61.1Y-104.1
X61.1Y-105.6
X61.1Y-107.1
X61.1Y-108.6
X61.1Y-110.1
X61.2Y-91.2
X61.6Y-78.3
X61.7Y-83.7
X61.8Y-122.3
X61.8Y-124.8
X62.1Y-75.5
X62.6Y-102.6
X62.6Y-104.1
X62.6Y-105.6
X62.6Y-107.1
X62.6Y-108.6
X62.6Y-110.1
X62.9Y-87.9
X63.0Y-74.5
X63.2Y-83.7
X63.5Y-117.9
X64.0Y-72.6
X64.1Y-99.4
X64.7Y-83.7
X64.9Y-122.3
X64.9Y-124.8
X65.1Y-91.6
X65.4Y-98.9
X65.8Y-87.1
X66.7Y-98.5
X67.8Y-78.3
X67.8Y-124.6
X69.0Y-95.8
X70.2Y-124.6
X71.5Y-85.9
X71.5Y-99.7
X72.2Y-122.9
X72.2Y-126.3
X72.7Y-128.3
X72.8Y-88.6
X73.3Y-126.2
X74.1Y-88.6
X74.2Y-85.9
X75.3Y-124.6
X75.5Y-88.6
X75.7Y-96.3
X76.1Y-99.3
X76.6Y-56.3
X76.6Y-57.2
X76.6Y-58.2
X77.1Y-116.4
X77.4Y-124.6
X77.537Y-116.946
X77.7Y-56.3
X78.1Y-65.9
X78.6Y-56.3
X79.1Y-65.9
X79.4Y-56.3
X79.4Y-90.3
X79.7Y-124.6
X79.9Y-96.4
X80.1Y-65.9
X80.1Y-99.9
X80.2Y-56.6
X81.1Y-65.9
X81.6Y-83.5
X81.7Y-122.9
X81.7Y-126.3
X82.2Y-56.8
X82.2Y-128.3
X83.0Y-75.0
X83.0Y-82.5
X83.73Y-74.471
X83.75Y-81.75
X83.8Y-58.7
X83.8Y-62.8
X84.09Y-73.37
X84.1Y-75.6
X85.1Y-75.6
X85.829Y-73.071
X86.4Y-98.4
X86.9Y-124.5
X86.9Y-128.4
X86.929Y-99.0
X87.2Y-96.8
X87.6Y-90.2
X88.6Y-93.7
X88.6Y-114.7
X88.9Y-106.9
X89.3Y-77.5
X89.3Y-124.5
X89.8Y-115.9
X90.5Y-110.0
X90.9Y-92.7
X91.3Y-122.9
X91.3Y-126.1
X91.32Y-103.1
X91.6Y-128.0
X91.8Y-111.2
X91.9Y-109.1
X92.0Y-106.2
X92.7Y-104.2
X93.3Y-117.4
X93.3Y-119.5
X94.5Y-92.4
X94.8Y-106.1
X95.0Y-121.3
X95.581Y-100.219
X95.75Y-97.95
X96.075Y-99.724
X96.1Y-99.0
X96.37Y-103.7
X96.4Y-124.5
X96.5Y-95.0
X96.6Y-109.9
X96.6Y-128.3
X96.9Y-105.9
X96.9Y-112.5
X97.206Y-97.794
X97.5Y-85.3
X97.5Y-86.3
X97.5Y-87.4
X97.5Y-88.4
X97.5Y-89.4
X98.4Y-94.6
X98.41Y-97.749
X98.45Y-78.7
X98.7Y-114.6
X98.7Y-117.0
X98.7Y-119.6
X98.8Y-107.3
X98.8Y-124.5
X99.029Y-83.0
X99.9Y-72.9
X100.0Y-85.0
X100.0Y-86.0
X100.0Y-87.0
X100.0Y-88.0
X100.4Y-89.8
X100.4Y-90.9
X100.8Y-122.8
X100.8Y-126.2
X100.8Y-128.2
X100.9Y-92.9
X100.957Y-68.243
X100.957Y-69.243
X101.0Y-85.0
X101.0Y-88.0
X101.6Y-82.9
X101.6Y-103.4
X101.8Y-111.3
X101.9Y-92.9
X102.0Y-85.0
X102.0Y-88.0
X102.9Y-103.4
X103.0Y-85.0
X103.0Y-86.0
X103.0Y-87.0
X103.0Y-88.0
X103.0Y-92.9
X103.1Y-98.9
X104.0Y-92.4
X104.4Y-93.7
X105.0Y-110.7
X106.1Y-84.7
X106.2Y-72.6
X106.2Y-80.2
X107.1Y-110.5
X107.3Y-86.0
X107.3Y-87.7
X107.4Y-99.0
X107.8Y-117.2
X107.8Y-122.5
X108.1Y-88.5
X108.4Y-110.5
X109.2Y-89.7
T3
X104.837Y-103.0
X104.837Y-108.0
T4
X56.78Y-127.9
X59.32Y-127.9
X61.86Y-127.9
X64.4Y-127.9
T5
X77.5Y-105.0
X77.5Y-119.5
X80.0Y-105.0
X82.5Y-105.0
X82.5Y-119.5
T7
X55.0Y-55.0
X55.0Y-65.0
X105.0Y-55.0
X105.0Y-65.0
T2
X107.188Y-102.0G85X107.887Y-102.0
G05
X107.887Y-109.0G85X107.188Y-109.0
G05
T6
X74.3Y-112.9G85X74.3Y-112.1
G05
X85.7Y-112.9G85X85.7Y-112.1
G05
T0
M30
