G04 #@! TF.GenerationSoftware,KiCad,Pcbnew,(6.0.11-0)*
G04 #@! TF.CreationDate,2025-05-12T21:09:53-06:00*
G04 #@! TF.ProjectId,DigitalPCB,44696769-7461-46c5-9043-422e6b696361,rev?*
G04 #@! TF.SameCoordinates,Original*
G04 #@! TF.FileFunction,Paste,Bot*
G04 #@! TF.FilePolarity,Positive*
%FSLAX46Y46*%
G04 Gerber Fmt 4.6, Leading zero omitted, Abs format (unit mm)*
G04 Created by KiCad (PCBNEW (6.0.11-0)) date 2025-05-12 21:09:53*
%MOMM*%
%LPD*%
G01*
G04 APERTURE LIST*
%ADD10C,0.010000*%
G04 APERTURE END LIST*
G36*
X80890000Y-58600000D02*
G01*
X80610000Y-58600000D01*
X80610000Y-57400000D01*
X80890000Y-57400000D01*
X80890000Y-58600000D01*
G37*
D10*
X80890000Y-58600000D02*
X80610000Y-58600000D01*
X80610000Y-57400000D01*
X80890000Y-57400000D01*
X80890000Y-58600000D01*
G36*
X82390000Y-58600000D02*
G01*
X82110000Y-58600000D01*
X82110000Y-57400000D01*
X82390000Y-57400000D01*
X82390000Y-58600000D01*
G37*
X82390000Y-58600000D02*
X82110000Y-58600000D01*
X82110000Y-57400000D01*
X82390000Y-57400000D01*
X82390000Y-58600000D01*
G36*
X81890000Y-58600000D02*
G01*
X81610000Y-58600000D01*
X81610000Y-57400000D01*
X81890000Y-57400000D01*
X81890000Y-58600000D01*
G37*
X81890000Y-58600000D02*
X81610000Y-58600000D01*
X81610000Y-57400000D01*
X81890000Y-57400000D01*
X81890000Y-58600000D01*
G36*
X81390000Y-58600000D02*
G01*
X81110000Y-58600000D01*
X81110000Y-57400000D01*
X81390000Y-57400000D01*
X81390000Y-58600000D01*
G37*
X81390000Y-58600000D02*
X81110000Y-58600000D01*
X81110000Y-57400000D01*
X81390000Y-57400000D01*
X81390000Y-58600000D01*
G36*
X78890000Y-62600000D02*
G01*
X78610000Y-62600000D01*
X78610000Y-61400000D01*
X78890000Y-61400000D01*
X78890000Y-62600000D01*
G37*
X78890000Y-62600000D02*
X78610000Y-62600000D01*
X78610000Y-61400000D01*
X78890000Y-61400000D01*
X78890000Y-62600000D01*
G36*
X81390000Y-62600000D02*
G01*
X81110000Y-62600000D01*
X81110000Y-61400000D01*
X81390000Y-61400000D01*
X81390000Y-62600000D01*
G37*
X81390000Y-62600000D02*
X81110000Y-62600000D01*
X81110000Y-61400000D01*
X81390000Y-61400000D01*
X81390000Y-62600000D01*
G36*
X79390000Y-58600000D02*
G01*
X79110000Y-58600000D01*
X79110000Y-57400000D01*
X79390000Y-57400000D01*
X79390000Y-58600000D01*
G37*
X79390000Y-58600000D02*
X79110000Y-58600000D01*
X79110000Y-57400000D01*
X79390000Y-57400000D01*
X79390000Y-58600000D01*
G36*
X80890000Y-62600000D02*
G01*
X80610000Y-62600000D01*
X80610000Y-61400000D01*
X80890000Y-61400000D01*
X80890000Y-62600000D01*
G37*
X80890000Y-62600000D02*
X80610000Y-62600000D01*
X80610000Y-61400000D01*
X80890000Y-61400000D01*
X80890000Y-62600000D01*
G36*
X80390000Y-62600000D02*
G01*
X80110000Y-62600000D01*
X80110000Y-61400000D01*
X80390000Y-61400000D01*
X80390000Y-62600000D01*
G37*
X80390000Y-62600000D02*
X80110000Y-62600000D01*
X80110000Y-61400000D01*
X80390000Y-61400000D01*
X80390000Y-62600000D01*
G36*
X78390000Y-62600000D02*
G01*
X78110000Y-62600000D01*
X78110000Y-61400000D01*
X78390000Y-61400000D01*
X78390000Y-62600000D01*
G37*
X78390000Y-62600000D02*
X78110000Y-62600000D01*
X78110000Y-61400000D01*
X78390000Y-61400000D01*
X78390000Y-62600000D01*
G36*
X77890000Y-58600000D02*
G01*
X77610000Y-58600000D01*
X77610000Y-57400000D01*
X77890000Y-57400000D01*
X77890000Y-58600000D01*
G37*
X77890000Y-58600000D02*
X77610000Y-58600000D01*
X77610000Y-57400000D01*
X77890000Y-57400000D01*
X77890000Y-58600000D01*
G36*
X78890000Y-58600000D02*
G01*
X78610000Y-58600000D01*
X78610000Y-57400000D01*
X78890000Y-57400000D01*
X78890000Y-58600000D01*
G37*
X78890000Y-58600000D02*
X78610000Y-58600000D01*
X78610000Y-57400000D01*
X78890000Y-57400000D01*
X78890000Y-58600000D01*
G36*
X80390000Y-58600000D02*
G01*
X80110000Y-58600000D01*
X80110000Y-57400000D01*
X80390000Y-57400000D01*
X80390000Y-58600000D01*
G37*
X80390000Y-58600000D02*
X80110000Y-58600000D01*
X80110000Y-57400000D01*
X80390000Y-57400000D01*
X80390000Y-58600000D01*
G36*
X78390000Y-58600000D02*
G01*
X78110000Y-58600000D01*
X78110000Y-57400000D01*
X78390000Y-57400000D01*
X78390000Y-58600000D01*
G37*
X78390000Y-58600000D02*
X78110000Y-58600000D01*
X78110000Y-57400000D01*
X78390000Y-57400000D01*
X78390000Y-58600000D01*
G36*
X77890000Y-62600000D02*
G01*
X77610000Y-62600000D01*
X77610000Y-61400000D01*
X77890000Y-61400000D01*
X77890000Y-62600000D01*
G37*
X77890000Y-62600000D02*
X77610000Y-62600000D01*
X77610000Y-61400000D01*
X77890000Y-61400000D01*
X77890000Y-62600000D01*
G36*
X82390000Y-62600000D02*
G01*
X82110000Y-62600000D01*
X82110000Y-61400000D01*
X82390000Y-61400000D01*
X82390000Y-62600000D01*
G37*
X82390000Y-62600000D02*
X82110000Y-62600000D01*
X82110000Y-61400000D01*
X82390000Y-61400000D01*
X82390000Y-62600000D01*
G36*
X79890000Y-62600000D02*
G01*
X79610000Y-62600000D01*
X79610000Y-61400000D01*
X79890000Y-61400000D01*
X79890000Y-62600000D01*
G37*
X79890000Y-62600000D02*
X79610000Y-62600000D01*
X79610000Y-61400000D01*
X79890000Y-61400000D01*
X79890000Y-62600000D01*
G36*
X81890000Y-62600000D02*
G01*
X81610000Y-62600000D01*
X81610000Y-61400000D01*
X81890000Y-61400000D01*
X81890000Y-62600000D01*
G37*
X81890000Y-62600000D02*
X81610000Y-62600000D01*
X81610000Y-61400000D01*
X81890000Y-61400000D01*
X81890000Y-62600000D01*
G36*
X79890000Y-58600000D02*
G01*
X79610000Y-58600000D01*
X79610000Y-57400000D01*
X79890000Y-57400000D01*
X79890000Y-58600000D01*
G37*
X79890000Y-58600000D02*
X79610000Y-58600000D01*
X79610000Y-57400000D01*
X79890000Y-57400000D01*
X79890000Y-58600000D01*
G36*
X79390000Y-62600000D02*
G01*
X79110000Y-62600000D01*
X79110000Y-61400000D01*
X79390000Y-61400000D01*
X79390000Y-62600000D01*
G37*
X79390000Y-62600000D02*
X79110000Y-62600000D01*
X79110000Y-61400000D01*
X79390000Y-61400000D01*
X79390000Y-62600000D01*
M02*
