G04 #@! TF.GenerationSoftware,KiCad,Pcbnew,(6.0.11-0)*
G04 #@! TF.CreationDate,2025-05-12T21:09:53-06:00*
G04 #@! TF.ProjectId,DigitalPCB,44696769-7461-46c5-9043-422e6b696361,rev?*
G04 #@! TF.SameCoordinates,Original*
G04 #@! TF.FileFunction,Legend,Bot*
G04 #@! TF.FilePolarity,Positive*
%FSLAX46Y46*%
G04 Gerber Fmt 4.6, Leading zero omitted, Abs format (unit mm)*
G04 Created by KiCad (PCBNEW (6.0.11-0)) date 2025-05-12 21:09:53*
%MOMM*%
%LPD*%
G01*
G04 APERTURE LIST*
%ADD10C,0.200000*%
%ADD11C,0.100000*%
%ADD12C,0.508000*%
%ADD13C,0.120000*%
%ADD14C,0.127000*%
%ADD15C,0.010000*%
%ADD16C,5.600000*%
%ADD17O,1.900000X1.200000*%
%ADD18C,1.450000*%
%ADD19R,1.650000X1.650000*%
%ADD20C,1.650000*%
%ADD21O,3.000000X6.000000*%
%ADD22R,1.700000X1.700000*%
%ADD23O,1.700000X1.700000*%
G04 APERTURE END LIST*
D10*
X53128928Y-100312857D02*
X54628928Y-100312857D01*
X54628928Y-99955714D01*
X54557500Y-99741428D01*
X54414642Y-99598571D01*
X54271785Y-99527142D01*
X53986071Y-99455714D01*
X53771785Y-99455714D01*
X53486071Y-99527142D01*
X53343214Y-99598571D01*
X53200357Y-99741428D01*
X53128928Y-99955714D01*
X53128928Y-100312857D01*
X53128928Y-98812857D02*
X54628928Y-98812857D01*
X53128928Y-98098571D02*
X54628928Y-98098571D01*
X53557500Y-97598571D01*
X54628928Y-97098571D01*
X53128928Y-97098571D01*
X53271785Y-96384285D02*
X53200357Y-96312857D01*
X53128928Y-96384285D01*
X53200357Y-96455714D01*
X53271785Y-96384285D01*
X53128928Y-96384285D01*
X54057500Y-96384285D02*
X53986071Y-96312857D01*
X53914642Y-96384285D01*
X53986071Y-96455714D01*
X54057500Y-96384285D01*
X53914642Y-96384285D01*
X53986071Y-94312857D02*
X54057500Y-94455714D01*
X54128928Y-94527142D01*
X54271785Y-94598571D01*
X54343214Y-94598571D01*
X54486071Y-94527142D01*
X54557500Y-94455714D01*
X54628928Y-94312857D01*
X54628928Y-94027142D01*
X54557500Y-93884285D01*
X54486071Y-93812857D01*
X54343214Y-93741428D01*
X54271785Y-93741428D01*
X54128928Y-93812857D01*
X54057500Y-93884285D01*
X53986071Y-94027142D01*
X53986071Y-94312857D01*
X53914642Y-94455714D01*
X53843214Y-94527142D01*
X53700357Y-94598571D01*
X53414642Y-94598571D01*
X53271785Y-94527142D01*
X53200357Y-94455714D01*
X53128928Y-94312857D01*
X53128928Y-94027142D01*
X53200357Y-93884285D01*
X53271785Y-93812857D01*
X53414642Y-93741428D01*
X53700357Y-93741428D01*
X53843214Y-93812857D01*
X53914642Y-93884285D01*
X53986071Y-94027142D01*
X54628928Y-92812857D02*
X54628928Y-92670000D01*
X54557500Y-92527142D01*
X54486071Y-92455714D01*
X54343214Y-92384285D01*
X54057500Y-92312857D01*
X53700357Y-92312857D01*
X53414642Y-92384285D01*
X53271785Y-92455714D01*
X53200357Y-92527142D01*
X53128928Y-92670000D01*
X53128928Y-92812857D01*
X53200357Y-92955714D01*
X53271785Y-93027142D01*
X53414642Y-93098571D01*
X53700357Y-93170000D01*
X54057500Y-93170000D01*
X54343214Y-93098571D01*
X54486071Y-93027142D01*
X54557500Y-92955714D01*
X54628928Y-92812857D01*
X53128928Y-91670000D02*
X54128928Y-91670000D01*
X53986071Y-91670000D02*
X54057500Y-91598571D01*
X54128928Y-91455714D01*
X54128928Y-91241428D01*
X54057500Y-91098571D01*
X53914642Y-91027142D01*
X53128928Y-91027142D01*
X53914642Y-91027142D02*
X54057500Y-90955714D01*
X54128928Y-90812857D01*
X54128928Y-90598571D01*
X54057500Y-90455714D01*
X53914642Y-90384285D01*
X53128928Y-90384285D01*
X53128928Y-89670000D02*
X54128928Y-89670000D01*
X53986071Y-89670000D02*
X54057500Y-89598571D01*
X54128928Y-89455714D01*
X54128928Y-89241428D01*
X54057500Y-89098571D01*
X53914642Y-89027142D01*
X53128928Y-89027142D01*
X53914642Y-89027142D02*
X54057500Y-88955714D01*
X54128928Y-88812857D01*
X54128928Y-88598571D01*
X54057500Y-88455714D01*
X53914642Y-88384285D01*
X53128928Y-88384285D01*
X54628928Y-86670000D02*
X53128928Y-85670000D01*
X54628928Y-85670000D02*
X53128928Y-86670000D01*
X54628928Y-83312857D02*
X54628928Y-83598571D01*
X54557500Y-83741428D01*
X54486071Y-83812857D01*
X54271785Y-83955714D01*
X53986071Y-84027142D01*
X53414642Y-84027142D01*
X53271785Y-83955714D01*
X53200357Y-83884285D01*
X53128928Y-83741428D01*
X53128928Y-83455714D01*
X53200357Y-83312857D01*
X53271785Y-83241428D01*
X53414642Y-83170000D01*
X53771785Y-83170000D01*
X53914642Y-83241428D01*
X53986071Y-83312857D01*
X54057500Y-83455714D01*
X54057500Y-83741428D01*
X53986071Y-83884285D01*
X53914642Y-83955714D01*
X53771785Y-84027142D01*
X54628928Y-82241428D02*
X54628928Y-82098571D01*
X54557500Y-81955714D01*
X54486071Y-81884285D01*
X54343214Y-81812857D01*
X54057500Y-81741428D01*
X53700357Y-81741428D01*
X53414642Y-81812857D01*
X53271785Y-81884285D01*
X53200357Y-81955714D01*
X53128928Y-82098571D01*
X53128928Y-82241428D01*
X53200357Y-82384285D01*
X53271785Y-82455714D01*
X53414642Y-82527142D01*
X53700357Y-82598571D01*
X54057500Y-82598571D01*
X54343214Y-82527142D01*
X54486071Y-82455714D01*
X54557500Y-82384285D01*
X54628928Y-82241428D01*
X53128928Y-81098571D02*
X54128928Y-81098571D01*
X53986071Y-81098571D02*
X54057500Y-81027142D01*
X54128928Y-80884285D01*
X54128928Y-80670000D01*
X54057500Y-80527142D01*
X53914642Y-80455714D01*
X53128928Y-80455714D01*
X53914642Y-80455714D02*
X54057500Y-80384285D01*
X54128928Y-80241428D01*
X54128928Y-80027142D01*
X54057500Y-79884285D01*
X53914642Y-79812857D01*
X53128928Y-79812857D01*
X53128928Y-79098571D02*
X54128928Y-79098571D01*
X53986071Y-79098571D02*
X54057500Y-79027142D01*
X54128928Y-78884285D01*
X54128928Y-78670000D01*
X54057500Y-78527142D01*
X53914642Y-78455714D01*
X53128928Y-78455714D01*
X53914642Y-78455714D02*
X54057500Y-78384285D01*
X54128928Y-78241428D01*
X54128928Y-78027142D01*
X54057500Y-77884285D01*
X53914642Y-77812857D01*
X53128928Y-77812857D01*
X50713928Y-100312857D02*
X52213928Y-100312857D01*
X51499642Y-100312857D02*
X51499642Y-99455714D01*
X50713928Y-99455714D02*
X52213928Y-99455714D01*
X52213928Y-98455714D02*
X52213928Y-98170000D01*
X52142500Y-98027142D01*
X51999642Y-97884285D01*
X51713928Y-97812857D01*
X51213928Y-97812857D01*
X50928214Y-97884285D01*
X50785357Y-98027142D01*
X50713928Y-98170000D01*
X50713928Y-98455714D01*
X50785357Y-98598571D01*
X50928214Y-98741428D01*
X51213928Y-98812857D01*
X51713928Y-98812857D01*
X51999642Y-98741428D01*
X52142500Y-98598571D01*
X52213928Y-98455714D01*
X50713928Y-96455714D02*
X50713928Y-97170000D01*
X52213928Y-97170000D01*
X51499642Y-95955714D02*
X51499642Y-95455714D01*
X50713928Y-95241428D02*
X50713928Y-95955714D01*
X52213928Y-95955714D01*
X52213928Y-95241428D01*
X50856785Y-94598571D02*
X50785357Y-94527142D01*
X50713928Y-94598571D01*
X50785357Y-94670000D01*
X50856785Y-94598571D01*
X50713928Y-94598571D01*
X51642500Y-94598571D02*
X51571071Y-94527142D01*
X51499642Y-94598571D01*
X51571071Y-94670000D01*
X51642500Y-94598571D01*
X51499642Y-94598571D01*
X50713928Y-91955714D02*
X50713928Y-92812857D01*
X50713928Y-92384285D02*
X52213928Y-92384285D01*
X51999642Y-92527142D01*
X51856785Y-92670000D01*
X51785357Y-92812857D01*
X52213928Y-91027142D02*
X52213928Y-90884285D01*
X52142500Y-90741428D01*
X52071071Y-90670000D01*
X51928214Y-90598571D01*
X51642500Y-90527142D01*
X51285357Y-90527142D01*
X50999642Y-90598571D01*
X50856785Y-90670000D01*
X50785357Y-90741428D01*
X50713928Y-90884285D01*
X50713928Y-91027142D01*
X50785357Y-91170000D01*
X50856785Y-91241428D01*
X50999642Y-91312857D01*
X51285357Y-91384285D01*
X51642500Y-91384285D01*
X51928214Y-91312857D01*
X52071071Y-91241428D01*
X52142500Y-91170000D01*
X52213928Y-91027142D01*
X50713928Y-89884285D02*
X51713928Y-89884285D01*
X51571071Y-89884285D02*
X51642500Y-89812857D01*
X51713928Y-89670000D01*
X51713928Y-89455714D01*
X51642500Y-89312857D01*
X51499642Y-89241428D01*
X50713928Y-89241428D01*
X51499642Y-89241428D02*
X51642500Y-89170000D01*
X51713928Y-89027142D01*
X51713928Y-88812857D01*
X51642500Y-88670000D01*
X51499642Y-88598571D01*
X50713928Y-88598571D01*
X50713928Y-87884285D02*
X51713928Y-87884285D01*
X51571071Y-87884285D02*
X51642500Y-87812857D01*
X51713928Y-87670000D01*
X51713928Y-87455714D01*
X51642500Y-87312857D01*
X51499642Y-87241428D01*
X50713928Y-87241428D01*
X51499642Y-87241428D02*
X51642500Y-87170000D01*
X51713928Y-87027142D01*
X51713928Y-86812857D01*
X51642500Y-86670000D01*
X51499642Y-86598571D01*
X50713928Y-86598571D01*
X50713928Y-84884285D02*
X51713928Y-84098571D01*
X51713928Y-84884285D02*
X50713928Y-84098571D01*
X52213928Y-81670000D02*
X52213928Y-82384285D01*
X51499642Y-82455714D01*
X51571071Y-82384285D01*
X51642500Y-82241428D01*
X51642500Y-81884285D01*
X51571071Y-81741428D01*
X51499642Y-81670000D01*
X51356785Y-81598571D01*
X50999642Y-81598571D01*
X50856785Y-81670000D01*
X50785357Y-81741428D01*
X50713928Y-81884285D01*
X50713928Y-82241428D01*
X50785357Y-82384285D01*
X50856785Y-82455714D01*
X52213928Y-80670000D02*
X52213928Y-80527142D01*
X52142500Y-80384285D01*
X52071071Y-80312857D01*
X51928214Y-80241428D01*
X51642500Y-80170000D01*
X51285357Y-80170000D01*
X50999642Y-80241428D01*
X50856785Y-80312857D01*
X50785357Y-80384285D01*
X50713928Y-80527142D01*
X50713928Y-80670000D01*
X50785357Y-80812857D01*
X50856785Y-80884285D01*
X50999642Y-80955714D01*
X51285357Y-81027142D01*
X51642500Y-81027142D01*
X51928214Y-80955714D01*
X52071071Y-80884285D01*
X52142500Y-80812857D01*
X52213928Y-80670000D01*
X50713928Y-79527142D02*
X51713928Y-79527142D01*
X51571071Y-79527142D02*
X51642500Y-79455714D01*
X51713928Y-79312857D01*
X51713928Y-79098571D01*
X51642500Y-78955714D01*
X51499642Y-78884285D01*
X50713928Y-78884285D01*
X51499642Y-78884285D02*
X51642500Y-78812857D01*
X51713928Y-78670000D01*
X51713928Y-78455714D01*
X51642500Y-78312857D01*
X51499642Y-78241428D01*
X50713928Y-78241428D01*
X50713928Y-77527142D02*
X51713928Y-77527142D01*
X51571071Y-77527142D02*
X51642500Y-77455714D01*
X51713928Y-77312857D01*
X51713928Y-77098571D01*
X51642500Y-76955714D01*
X51499642Y-76884285D01*
X50713928Y-76884285D01*
X51499642Y-76884285D02*
X51642500Y-76812857D01*
X51713928Y-76670000D01*
X51713928Y-76455714D01*
X51642500Y-76312857D01*
X51499642Y-76241428D01*
X50713928Y-76241428D01*
X50713928Y-74527142D02*
X51713928Y-73741428D01*
X51713928Y-74527142D02*
X50713928Y-73741428D01*
X52213928Y-72170000D02*
X52213928Y-71241428D01*
X51642500Y-71741428D01*
X51642500Y-71527142D01*
X51571071Y-71384285D01*
X51499642Y-71312857D01*
X51356785Y-71241428D01*
X50999642Y-71241428D01*
X50856785Y-71312857D01*
X50785357Y-71384285D01*
X50713928Y-71527142D01*
X50713928Y-71955714D01*
X50785357Y-72098571D01*
X50856785Y-72170000D01*
X50713928Y-70598571D02*
X51713928Y-70598571D01*
X51571071Y-70598571D02*
X51642500Y-70527142D01*
X51713928Y-70384285D01*
X51713928Y-70170000D01*
X51642500Y-70027142D01*
X51499642Y-69955714D01*
X50713928Y-69955714D01*
X51499642Y-69955714D02*
X51642500Y-69884285D01*
X51713928Y-69741428D01*
X51713928Y-69527142D01*
X51642500Y-69384285D01*
X51499642Y-69312857D01*
X50713928Y-69312857D01*
X50713928Y-68598571D02*
X51713928Y-68598571D01*
X51571071Y-68598571D02*
X51642500Y-68527142D01*
X51713928Y-68384285D01*
X51713928Y-68170000D01*
X51642500Y-68027142D01*
X51499642Y-67955714D01*
X50713928Y-67955714D01*
X51499642Y-67955714D02*
X51642500Y-67884285D01*
X51713928Y-67741428D01*
X51713928Y-67527142D01*
X51642500Y-67384285D01*
X51499642Y-67312857D01*
X50713928Y-67312857D01*
D11*
X81550000Y-55739285D02*
X81550000Y-56275000D01*
X81585714Y-56382142D01*
X81657142Y-56453571D01*
X81764285Y-56489285D01*
X81835714Y-56489285D01*
X80800000Y-56489285D02*
X81228571Y-56489285D01*
X81014285Y-56489285D02*
X81014285Y-55739285D01*
X81085714Y-55846428D01*
X81157142Y-55917857D01*
X81228571Y-55953571D01*
D12*
X96778798Y-124498500D02*
G75*
G03*
X96778798Y-124498500I-381000J0D01*
G01*
X68183850Y-124598500D02*
G75*
G03*
X68183850Y-124598500I-381000J0D01*
G01*
X87247148Y-124498500D02*
G75*
G03*
X87247148Y-124498500I-381000J0D01*
G01*
D13*
X51872330Y-114566300D02*
G75*
G03*
X51872330Y-114566300I-381000J0D01*
G01*
D12*
X77715499Y-124598500D02*
G75*
G03*
X77715499Y-124598500I-381000J0D01*
G01*
D14*
X83550000Y-61800000D02*
X82720000Y-61800000D01*
X82720000Y-58200000D02*
X83550000Y-58200000D01*
X76450000Y-58200000D02*
X77280000Y-58200000D01*
X83550000Y-58200000D02*
X83550000Y-61800000D01*
X77280000Y-61800000D02*
X76450000Y-61800000D01*
X76450000Y-61800000D02*
X76450000Y-58200000D01*
D10*
X77850000Y-63350000D02*
G75*
G03*
X77850000Y-63350000I-100000J0D01*
G01*
%LPC*%
G36*
X79950000Y-62650000D02*
G01*
X79550000Y-62650000D01*
X79550000Y-60950000D01*
X79950000Y-60950000D01*
X79950000Y-62650000D01*
G37*
D15*
X79950000Y-62650000D02*
X79550000Y-62650000D01*
X79550000Y-60950000D01*
X79950000Y-60950000D01*
X79950000Y-62650000D01*
G36*
X82450000Y-62650000D02*
G01*
X82050000Y-62650000D01*
X82050000Y-60950000D01*
X82450000Y-60950000D01*
X82450000Y-62650000D01*
G37*
X82450000Y-62650000D02*
X82050000Y-62650000D01*
X82050000Y-60950000D01*
X82450000Y-60950000D01*
X82450000Y-62650000D01*
G36*
X78950000Y-59050000D02*
G01*
X78550000Y-59050000D01*
X78550000Y-57350000D01*
X78950000Y-57350000D01*
X78950000Y-59050000D01*
G37*
X78950000Y-59050000D02*
X78550000Y-59050000D01*
X78550000Y-57350000D01*
X78950000Y-57350000D01*
X78950000Y-59050000D01*
G36*
X78950000Y-62650000D02*
G01*
X78550000Y-62650000D01*
X78550000Y-60950000D01*
X78950000Y-60950000D01*
X78950000Y-62650000D01*
G37*
X78950000Y-62650000D02*
X78550000Y-62650000D01*
X78550000Y-60950000D01*
X78950000Y-60950000D01*
X78950000Y-62650000D01*
G36*
X82450000Y-59050000D02*
G01*
X82050000Y-59050000D01*
X82050000Y-57350000D01*
X82450000Y-57350000D01*
X82450000Y-59050000D01*
G37*
X82450000Y-59050000D02*
X82050000Y-59050000D01*
X82050000Y-57350000D01*
X82450000Y-57350000D01*
X82450000Y-59050000D01*
G36*
X79950000Y-59050000D02*
G01*
X79550000Y-59050000D01*
X79550000Y-57350000D01*
X79950000Y-57350000D01*
X79950000Y-59050000D01*
G37*
X79950000Y-59050000D02*
X79550000Y-59050000D01*
X79550000Y-57350000D01*
X79950000Y-57350000D01*
X79950000Y-59050000D01*
G36*
X80950000Y-62650000D02*
G01*
X80550000Y-62650000D01*
X80550000Y-60950000D01*
X80950000Y-60950000D01*
X80950000Y-62650000D01*
G37*
X80950000Y-62650000D02*
X80550000Y-62650000D01*
X80550000Y-60950000D01*
X80950000Y-60950000D01*
X80950000Y-62650000D01*
G36*
X77950000Y-59050000D02*
G01*
X77550000Y-59050000D01*
X77550000Y-57350000D01*
X77950000Y-57350000D01*
X77950000Y-59050000D01*
G37*
X77950000Y-59050000D02*
X77550000Y-59050000D01*
X77550000Y-57350000D01*
X77950000Y-57350000D01*
X77950000Y-59050000D01*
G36*
X81950000Y-59050000D02*
G01*
X81550000Y-59050000D01*
X81550000Y-57350000D01*
X81950000Y-57350000D01*
X81950000Y-59050000D01*
G37*
X81950000Y-59050000D02*
X81550000Y-59050000D01*
X81550000Y-57350000D01*
X81950000Y-57350000D01*
X81950000Y-59050000D01*
G36*
X78450000Y-59050000D02*
G01*
X78050000Y-59050000D01*
X78050000Y-57350000D01*
X78450000Y-57350000D01*
X78450000Y-59050000D01*
G37*
X78450000Y-59050000D02*
X78050000Y-59050000D01*
X78050000Y-57350000D01*
X78450000Y-57350000D01*
X78450000Y-59050000D01*
G36*
X80950000Y-59050000D02*
G01*
X80550000Y-59050000D01*
X80550000Y-57350000D01*
X80950000Y-57350000D01*
X80950000Y-59050000D01*
G37*
X80950000Y-59050000D02*
X80550000Y-59050000D01*
X80550000Y-57350000D01*
X80950000Y-57350000D01*
X80950000Y-59050000D01*
G36*
X78450000Y-62650000D02*
G01*
X78050000Y-62650000D01*
X78050000Y-60950000D01*
X78450000Y-60950000D01*
X78450000Y-62650000D01*
G37*
X78450000Y-62650000D02*
X78050000Y-62650000D01*
X78050000Y-60950000D01*
X78450000Y-60950000D01*
X78450000Y-62650000D01*
G36*
X80450000Y-59050000D02*
G01*
X80050000Y-59050000D01*
X80050000Y-57350000D01*
X80450000Y-57350000D01*
X80450000Y-59050000D01*
G37*
X80450000Y-59050000D02*
X80050000Y-59050000D01*
X80050000Y-57350000D01*
X80450000Y-57350000D01*
X80450000Y-59050000D01*
G36*
X77950000Y-62650000D02*
G01*
X77550000Y-62650000D01*
X77550000Y-60950000D01*
X77950000Y-60950000D01*
X77950000Y-62650000D01*
G37*
X77950000Y-62650000D02*
X77550000Y-62650000D01*
X77550000Y-60950000D01*
X77950000Y-60950000D01*
X77950000Y-62650000D01*
G36*
X81950000Y-62650000D02*
G01*
X81550000Y-62650000D01*
X81550000Y-60950000D01*
X81950000Y-60950000D01*
X81950000Y-62650000D01*
G37*
X81950000Y-62650000D02*
X81550000Y-62650000D01*
X81550000Y-60950000D01*
X81950000Y-60950000D01*
X81950000Y-62650000D01*
G36*
X79450000Y-59050000D02*
G01*
X79050000Y-59050000D01*
X79050000Y-57350000D01*
X79450000Y-57350000D01*
X79450000Y-59050000D01*
G37*
X79450000Y-59050000D02*
X79050000Y-59050000D01*
X79050000Y-57350000D01*
X79450000Y-57350000D01*
X79450000Y-59050000D01*
G36*
X81450000Y-59050000D02*
G01*
X81050000Y-59050000D01*
X81050000Y-57350000D01*
X81450000Y-57350000D01*
X81450000Y-59050000D01*
G37*
X81450000Y-59050000D02*
X81050000Y-59050000D01*
X81050000Y-57350000D01*
X81450000Y-57350000D01*
X81450000Y-59050000D01*
G36*
X80450000Y-62650000D02*
G01*
X80050000Y-62650000D01*
X80050000Y-60950000D01*
X80450000Y-60950000D01*
X80450000Y-62650000D01*
G37*
X80450000Y-62650000D02*
X80050000Y-62650000D01*
X80050000Y-60950000D01*
X80450000Y-60950000D01*
X80450000Y-62650000D01*
G36*
X81450000Y-62650000D02*
G01*
X81050000Y-62650000D01*
X81050000Y-60950000D01*
X81450000Y-60950000D01*
X81450000Y-62650000D01*
G37*
X81450000Y-62650000D02*
X81050000Y-62650000D01*
X81050000Y-60950000D01*
X81450000Y-60950000D01*
X81450000Y-62650000D01*
G36*
X79450000Y-62650000D02*
G01*
X79050000Y-62650000D01*
X79050000Y-60950000D01*
X79450000Y-60950000D01*
X79450000Y-62650000D01*
G37*
X79450000Y-62650000D02*
X79050000Y-62650000D01*
X79050000Y-60950000D01*
X79450000Y-60950000D01*
X79450000Y-62650000D01*
D16*
X55000000Y-65000000D03*
D17*
X107537500Y-102000000D03*
X107537500Y-109000000D03*
D18*
X104837500Y-103000000D03*
X104837500Y-108000000D03*
D19*
X82500000Y-119500000D03*
D20*
X77500000Y-119500000D03*
X82500000Y-105000000D03*
X77500000Y-105000000D03*
X80000000Y-105000000D03*
D21*
X85700000Y-112500000D03*
X74300000Y-112500000D03*
D16*
X105000000Y-55000000D03*
D22*
X56780000Y-127900000D03*
D23*
X59320000Y-127900000D03*
X61860000Y-127900000D03*
X64400000Y-127900000D03*
D16*
X105000000Y-65000000D03*
X55000000Y-55000000D03*
M02*
