G04 #@! TF.GenerationSoftware,KiCad,Pcbnew,(6.0.11-0)*
G04 #@! TF.CreationDate,2025-05-12T21:09:53-06:00*
G04 #@! TF.ProjectId,DigitalPCB,44696769-7461-46c5-9043-422e6b696361,rev?*
G04 #@! TF.SameCoordinates,Original*
G04 #@! TF.FileFunction,Paste,Top*
G04 #@! TF.FilePolarity,Positive*
%FSLAX46Y46*%
G04 Gerber Fmt 4.6, Leading zero omitted, Abs format (unit mm)*
G04 Created by KiCad (PCBNEW (6.0.11-0)) date 2025-05-12 21:09:53*
%MOMM*%
%LPD*%
G01*
G04 APERTURE LIST*
G04 Aperture macros list*
%AMRoundRect*
0 Rectangle with rounded corners*
0 $1 Rounding radius*
0 $2 $3 $4 $5 $6 $7 $8 $9 X,Y pos of 4 corners*
0 Add a 4 corners polygon primitive as box body*
4,1,4,$2,$3,$4,$5,$6,$7,$8,$9,$2,$3,0*
0 Add four circle primitives for the rounded corners*
1,1,$1+$1,$2,$3*
1,1,$1+$1,$4,$5*
1,1,$1+$1,$6,$7*
1,1,$1+$1,$8,$9*
0 Add four rect primitives between the rounded corners*
20,1,$1+$1,$2,$3,$4,$5,0*
20,1,$1+$1,$4,$5,$6,$7,0*
20,1,$1+$1,$6,$7,$8,$9,0*
20,1,$1+$1,$8,$9,$2,$3,0*%
G04 Aperture macros list end*
%ADD10RoundRect,0.200000X0.275000X-0.200000X0.275000X0.200000X-0.275000X0.200000X-0.275000X-0.200000X0*%
%ADD11RoundRect,0.225000X-0.250000X0.225000X-0.250000X-0.225000X0.250000X-0.225000X0.250000X0.225000X0*%
%ADD12RoundRect,0.200000X-0.275000X0.200000X-0.275000X-0.200000X0.275000X-0.200000X0.275000X0.200000X0*%
%ADD13RoundRect,0.225000X-0.225000X-0.250000X0.225000X-0.250000X0.225000X0.250000X-0.225000X0.250000X0*%
%ADD14R,1.400000X0.950000*%
%ADD15RoundRect,0.225000X0.250000X-0.225000X0.250000X0.225000X-0.250000X0.225000X-0.250000X-0.225000X0*%
%ADD16R,0.939800X1.625600*%
%ADD17R,0.508000X1.625600*%
%ADD18RoundRect,0.218750X0.218750X0.256250X-0.218750X0.256250X-0.218750X-0.256250X0.218750X-0.256250X0*%
%ADD19RoundRect,0.218750X-0.256250X0.218750X-0.256250X-0.218750X0.256250X-0.218750X0.256250X0.218750X0*%
%ADD20R,0.355600X1.778000*%
%ADD21R,0.609600X1.549400*%
%ADD22R,1.193800X1.803400*%
%ADD23R,1.350000X0.400000*%
%ADD24R,1.900000X1.500000*%
%ADD25RoundRect,0.250000X-0.475000X0.250000X-0.475000X-0.250000X0.475000X-0.250000X0.475000X0.250000X0*%
%ADD26RoundRect,0.218750X-0.218750X-0.256250X0.218750X-0.256250X0.218750X0.256250X-0.218750X0.256250X0*%
%ADD27RoundRect,0.200000X0.200000X0.275000X-0.200000X0.275000X-0.200000X-0.275000X0.200000X-0.275000X0*%
%ADD28RoundRect,0.250000X-0.250000X-0.475000X0.250000X-0.475000X0.250000X0.475000X-0.250000X0.475000X0*%
%ADD29R,3.050000X2.750000*%
%ADD30R,2.200000X1.200000*%
%ADD31RoundRect,0.250000X0.275000X0.275000X-0.275000X0.275000X-0.275000X-0.275000X0.275000X-0.275000X0*%
%ADD32RoundRect,0.062500X0.350000X0.062500X-0.350000X0.062500X-0.350000X-0.062500X0.350000X-0.062500X0*%
%ADD33RoundRect,0.062500X0.062500X0.350000X-0.062500X0.350000X-0.062500X-0.350000X0.062500X-0.350000X0*%
%ADD34RoundRect,0.150000X-0.150000X0.825000X-0.150000X-0.825000X0.150000X-0.825000X0.150000X0.825000X0*%
%ADD35RoundRect,0.250000X0.250000X0.475000X-0.250000X0.475000X-0.250000X-0.475000X0.250000X-0.475000X0*%
%ADD36R,0.406400X1.219200*%
%ADD37R,0.889000X1.498600*%
%ADD38R,1.498600X0.889000*%
%ADD39R,0.889000X0.889000*%
%ADD40R,0.650000X0.400000*%
%ADD41R,1.000000X0.700000*%
%ADD42R,0.600000X0.700000*%
G04 APERTURE END LIST*
D10*
X53200000Y-90625000D03*
X53200000Y-88975000D03*
D11*
X101800000Y-108223600D03*
X101800000Y-109773600D03*
D12*
X99890000Y-108173600D03*
X99890000Y-109823600D03*
D13*
X65025000Y-78300000D03*
X66575000Y-78300000D03*
D14*
X106200000Y-69625000D03*
X106200000Y-73775000D03*
D15*
X84100000Y-78775000D03*
X84100000Y-77225000D03*
D12*
X64900000Y-118700000D03*
X64900000Y-120350000D03*
D10*
X90910000Y-95348600D03*
X90910000Y-93698600D03*
D11*
X101900000Y-89750000D03*
X101900000Y-91300000D03*
D16*
X101173400Y-72766800D03*
D17*
X102877500Y-72766800D03*
X102877501Y-70633200D03*
X100957499Y-70633200D03*
D18*
X96887500Y-113800000D03*
X95312500Y-113800000D03*
D19*
X97990000Y-108211100D03*
X97990000Y-109786100D03*
D10*
X88600000Y-117550000D03*
X88600000Y-115900000D03*
D20*
X104025001Y-96471800D03*
X104674999Y-96471800D03*
X105325001Y-96471800D03*
X105974999Y-96471800D03*
X105974999Y-90528200D03*
X105325001Y-90528200D03*
X104674999Y-90528200D03*
X104025001Y-90528200D03*
D21*
X99799998Y-124498500D03*
X100799999Y-124498500D03*
X101799997Y-124498500D03*
X102799998Y-124498500D03*
D22*
X98499999Y-128373501D03*
X104099997Y-128373501D03*
D23*
X104837500Y-106800000D03*
X104837500Y-106150000D03*
X104837500Y-105500000D03*
X104837500Y-104850000D03*
X104837500Y-104200000D03*
D24*
X107537500Y-104500000D03*
X107537500Y-106500000D03*
D12*
X58716000Y-118700000D03*
X58716000Y-120350000D03*
D21*
X71205050Y-124598500D03*
X72205051Y-124598500D03*
X73205049Y-124598500D03*
X74205050Y-124598500D03*
D22*
X69905051Y-128473501D03*
X75505049Y-128473501D03*
D21*
X90268348Y-124498500D03*
X91268349Y-124498500D03*
X92268347Y-124498500D03*
X93268348Y-124498500D03*
D22*
X88968349Y-128373501D03*
X94568347Y-128373501D03*
D12*
X94510000Y-93698600D03*
X94510000Y-95348600D03*
D13*
X52625000Y-78300000D03*
X54175000Y-78300000D03*
D25*
X98410000Y-95848600D03*
X98410000Y-97748600D03*
D26*
X55812500Y-74500000D03*
X57387500Y-74500000D03*
D15*
X108000000Y-91275000D03*
X108000000Y-89725000D03*
D12*
X55600000Y-118700000D03*
X55600000Y-120350000D03*
D26*
X55812500Y-70800000D03*
X57387500Y-70800000D03*
D27*
X62925000Y-74500000D03*
X61275000Y-74500000D03*
D28*
X51650000Y-116600000D03*
X53550000Y-116600000D03*
D29*
X99805000Y-118590000D03*
X99805000Y-115540000D03*
X103155000Y-118590000D03*
X103155000Y-115540000D03*
D30*
X107780000Y-119345000D03*
X107780000Y-114785000D03*
D13*
X58825000Y-78300000D03*
X60375000Y-78300000D03*
X86025000Y-78800000D03*
X87575000Y-78800000D03*
D31*
X93250000Y-98550000D03*
X91950000Y-99850000D03*
X93250000Y-99850000D03*
X91950000Y-98550000D03*
D32*
X94537500Y-100450000D03*
X94537500Y-99950000D03*
X94537500Y-99450000D03*
X94537500Y-98950000D03*
X94537500Y-98450000D03*
X94537500Y-97950000D03*
D33*
X93850000Y-97262500D03*
X93350000Y-97262500D03*
X92850000Y-97262500D03*
X92350000Y-97262500D03*
X91850000Y-97262500D03*
X91350000Y-97262500D03*
D32*
X90662500Y-97950000D03*
X90662500Y-98450000D03*
X90662500Y-98950000D03*
X90662500Y-99450000D03*
X90662500Y-99950000D03*
X90662500Y-100450000D03*
D33*
X91350000Y-101137500D03*
X91850000Y-101137500D03*
X92350000Y-101137500D03*
X92850000Y-101137500D03*
X93350000Y-101137500D03*
X93850000Y-101137500D03*
D34*
X88845000Y-81095000D03*
X87575000Y-81095000D03*
X86305000Y-81095000D03*
X85035000Y-81095000D03*
X85035000Y-86045000D03*
X86305000Y-86045000D03*
X87575000Y-86045000D03*
X88845000Y-86045000D03*
D12*
X90300000Y-105550000D03*
X90300000Y-107200000D03*
X56900000Y-88975000D03*
X56900000Y-90625000D03*
D35*
X96870000Y-117400000D03*
X94970000Y-117400000D03*
D27*
X101925000Y-74900000D03*
X100275000Y-74900000D03*
X62925000Y-72650000D03*
X61275000Y-72650000D03*
X96965000Y-115495000D03*
X95315000Y-115495000D03*
D13*
X104525000Y-86000000D03*
X106075000Y-86000000D03*
D36*
X52130000Y-87141700D03*
X54670000Y-87141700D03*
X54670000Y-80258300D03*
X53400000Y-80258300D03*
X52130000Y-80258300D03*
D12*
X88100000Y-100275000D03*
X88100000Y-101925000D03*
X61812000Y-118700000D03*
X61812000Y-120350000D03*
D37*
X51491330Y-113550000D03*
X52761330Y-113550000D03*
X54031330Y-113550000D03*
X55301330Y-113550000D03*
X56571330Y-113550000D03*
X57841330Y-113550000D03*
X59111330Y-113550000D03*
X60381330Y-113550000D03*
X61651330Y-113550000D03*
X62921330Y-113550000D03*
X64191330Y-113550000D03*
X65461330Y-113550000D03*
X66731330Y-113550000D03*
X68001330Y-113550000D03*
D38*
X69251772Y-110515000D03*
X69251772Y-109245000D03*
X69251772Y-107975000D03*
X69251772Y-106705000D03*
X69251772Y-105435000D03*
X69251772Y-104165000D03*
X69251772Y-102895000D03*
X69251772Y-101625000D03*
X69251772Y-100355000D03*
X69251772Y-99085000D03*
D37*
X68001330Y-96050000D03*
X66731330Y-96050000D03*
X65461330Y-96050000D03*
X64191330Y-96050000D03*
X62921330Y-96050000D03*
X61651330Y-96050000D03*
X60381330Y-96050000D03*
X59111330Y-96050000D03*
X57841330Y-96050000D03*
X56571330Y-96050000D03*
X55301330Y-96050000D03*
X54031330Y-96050000D03*
X52761330Y-96050000D03*
X51491330Y-96050000D03*
D39*
X57431193Y-107704289D03*
X57431193Y-106304290D03*
X57431193Y-104904290D03*
X58831193Y-107704289D03*
X58831193Y-106304290D03*
X58831193Y-104904290D03*
X60231191Y-107704236D03*
X60231191Y-106304188D03*
X60231191Y-104904140D03*
D10*
X82500000Y-102625000D03*
X82500000Y-100975000D03*
D12*
X95900000Y-106875000D03*
X95900000Y-108525000D03*
D27*
X106000000Y-98975000D03*
X104350000Y-98975000D03*
D10*
X58875000Y-90625000D03*
X58875000Y-88975000D03*
D11*
X96410000Y-96243600D03*
X96410000Y-97793600D03*
D12*
X80900000Y-100975000D03*
X80900000Y-102625000D03*
D26*
X55812500Y-72650000D03*
X57387500Y-72650000D03*
D15*
X103600000Y-81775000D03*
X103600000Y-80225000D03*
D12*
X92710000Y-93698600D03*
X92710000Y-95348600D03*
D14*
X106200000Y-78925000D03*
X106200000Y-83075000D03*
D10*
X75500000Y-87625000D03*
X75500000Y-85975000D03*
X65100000Y-90625000D03*
X65100000Y-88975000D03*
D12*
X86400000Y-100275000D03*
X86400000Y-101925000D03*
D27*
X62925000Y-70800000D03*
X61275000Y-70800000D03*
X106125000Y-87800000D03*
X104475000Y-87800000D03*
D28*
X106480000Y-112240000D03*
X108380000Y-112240000D03*
D12*
X63200000Y-88975000D03*
X63200000Y-90625000D03*
D11*
X84100000Y-101025000D03*
X84100000Y-102575000D03*
D40*
X91950000Y-107050000D03*
X91950000Y-107700000D03*
X91950000Y-108350000D03*
X93850000Y-108350000D03*
X93850000Y-107700000D03*
X93850000Y-107050000D03*
D10*
X77700000Y-102625000D03*
X77700000Y-100975000D03*
D41*
X99650000Y-104700000D03*
D42*
X97950000Y-104700000D03*
X97950000Y-106700000D03*
X99850000Y-106700000D03*
D36*
X64530000Y-87141700D03*
X67070000Y-87141700D03*
X67070000Y-80258300D03*
X65800000Y-80258300D03*
X64530000Y-80258300D03*
D10*
X72800000Y-87625000D03*
X72800000Y-85975000D03*
D15*
X98600000Y-71675000D03*
X98600000Y-70125000D03*
D35*
X96870000Y-119555000D03*
X94970000Y-119555000D03*
D13*
X52025000Y-119300000D03*
X53575000Y-119300000D03*
D21*
X80736699Y-124598500D03*
X81736700Y-124598500D03*
X82736698Y-124598500D03*
X83736699Y-124598500D03*
D22*
X79436700Y-128473501D03*
X85036698Y-128473501D03*
D12*
X51500000Y-88975000D03*
X51500000Y-90625000D03*
X79300000Y-100975000D03*
X79300000Y-102625000D03*
D11*
X76100000Y-101025000D03*
X76100000Y-102575000D03*
D36*
X58330000Y-87141700D03*
X60870000Y-87141700D03*
X60870000Y-80258300D03*
X59600000Y-80258300D03*
X58330000Y-80258300D03*
M02*
